# 3ds Max Wavefront OBJ Exporter v0.97b - (c)2007 guruware
# File Created: 07.02.2018 16:05:02

#
# object MedCon_OnePlusThreeS_Start001
#

v  0.1379 -0.2970 -15.9999
v  0.7758 -0.2954 -15.9999
v  0.1680 -0.2964 -31.9999
v  -0.1682 -0.2964 -31.9999
v  0.8241 -0.2982 0.0000
v  2.1166 -0.2937 0.0001
v  3.4700 -0.2926 16.0001
v  1.5104 -0.2994 16.0000
v  4.1800 -0.2950 32.0000
v  1.8200 -0.3000 32.0000
v  -4.0357 -0.3000 32.0000
v  -3.8557 -0.3000 32.0000
v  -3.7088 -0.2994 16.0166
v  -3.8888 -0.2994 16.0166
v  -3.3858 -0.2982 0.0700
v  -3.5652 -0.2982 0.0700
v  -3.0610 -0.2970 -15.9154
v  -3.2406 -0.2970 -15.9154
v  -2.9090 -0.2964 -31.9999
v  -3.0890 -0.2964 -31.9999
v  3.6026 -0.2961 -15.9159
v  3.7827 -0.2961 -15.9158
v  3.1629 -0.2964 -32.0003
v  2.9829 -0.2964 -32.0003
v  4.9680 -0.2962 0.0701
v  5.1481 -0.2962 0.0702
v  6.5073 -0.2967 16.0167
v  6.3272 -0.2967 16.0167
v  7.0704 -0.2997 32.0000
v  6.8899 -0.2997 32.0000
# 30 vertices

vn 0.0000 1.0000 -0.0000
# 1 vertex normals

vt 0.8429 0.7489 0.0000
vt 0.7752 0.7489 0.0000
vt 0.7983 0.9979 0.0000
vt 0.8177 0.9977 0.0000
vt 0.8666 0.5000 0.0000
vt 0.7520 0.5000 0.0000
vt 0.7289 0.2511 0.0000
vt 0.8903 0.2511 0.0000
vt 0.7058 0.0021 0.0000
vt 0.9140 0.0023 0.0000
vt 0.1589 0.0000 0.0000
vt 0.1635 0.0000 0.0000
vt 0.1635 0.2500 0.0000
vt 0.1589 0.2500 0.0000
vt 0.1635 0.5000 0.0000
vt 0.1589 0.5000 0.0000
vt 0.1635 0.7500 0.0000
vt 0.1589 0.7500 0.0000
vt 0.1635 1.0000 0.0000
vt 0.1589 1.0000 0.0000
# 20 texture coords

g MedCon_OnePlusThreeS_Start001
s 1
f 1/1/1 2/2/1 3/3/1 4/4/1 
f 5/5/1 6/6/1 2/2/1 1/1/1 
f 7/7/1 6/6/1 5/5/1 8/8/1 
f 9/9/1 7/7/1 8/8/1 10/10/1 
f 11/11/1 12/12/1 13/13/1 14/14/1 
f 14/14/1 13/13/1 15/15/1 16/16/1 
f 15/15/1 17/17/1 18/18/1 16/16/1 
f 17/17/1 19/19/1 20/20/1 18/18/1 
f 21/14/1 22/13/1 23/12/1 24/11/1 
f 25/16/1 26/15/1 22/13/1 21/14/1 
f 27/17/1 26/15/1 25/16/1 28/18/1 
f 29/19/1 27/17/1 28/18/1 30/20/1 
# 12 polygons

