# 3ds Max Wavefront OBJ Exporter v0.97b - (c)2007 guruware
# File Created: 02.02.2018 17:36:53

#
# object MedCon_OnePlusTwoS_End_LOD
#

v  1.7432 -0.2500 32.0000
v  1.6216 -0.2501 16.0000
v  -1.0874 -0.2501 16.0000
v  -1.7568 -0.2500 32.0000
v  1.8232 -0.2502 -0.0000
v  -0.0949 -0.2503 -0.0000
v  2.0246 -0.2504 -16.0000
v  0.8975 -0.2504 -16.0000
v  1.9025 -0.2505 -32.0000
v  1.5663 -0.2505 -32.0000
# 10 vertices

vn 0.0000 1.0000 -0.0000
# 1 vertex normals

vt 0.7060 0.9981 0.0000
vt 0.7277 0.7490 0.0000
vt 0.8923 0.7490 0.0000
vt 0.9140 0.9981 0.0000
vt 0.7495 0.5000 0.0000
vt 0.8705 0.5000 0.0000
vt 0.7713 0.2510 0.0000
vt 0.8487 0.2510 0.0000
vt 0.7931 0.0019 0.0000
vt 0.8269 0.0019 0.0000
# 10 texture coords

g MedCon_OnePlusTwoS_End_LOD
s 1
f 1/1/1 2/2/1 3/3/1 4/4/1 
f 2/2/1 5/5/1 6/6/1 3/3/1 
f 5/5/1 7/7/1 8/8/1 6/6/1 
f 7/7/1 9/9/1 10/10/1 8/8/1 
# 4 polygons

