# 3ds Max Wavefront OBJ Exporter v0.97b - (c)2007 guruware
# File Created: 04.11.2015 23:46:23

#
# object Plane001
#

v  -11.00000 0.00000 -0.00000
v  -5.00000 0.00000 -0.00000
v  -5.00000 0.00000 -5.33333
v  -11.00000 0.00000 -5.33333
v  5.00000 0.00000 -0.00000
v  11.00000 0.00000 -0.00000
v  11.00000 0.00000 -5.33333
v  5.00000 0.00000 -5.33333
v  5.00000 -0.30000 -0.00000
v  -5.00000 -0.30000 -0.00000
v  -5.00000 -0.30000 5.33333
v  5.00000 -0.30000 5.33333
v  -5.00000 -0.30000 -5.33333
v  5.00000 0.00000 5.33333
v  -11.00000 0.00000 32.00000
v  -5.00000 0.00000 32.00000
v  -5.00000 0.00000 26.66667
v  -11.00000 0.00000 26.66667
v  -5.00000 0.00000 21.33333
v  -11.00000 0.00000 21.33333
v  -5.00000 0.00000 16.00000
v  -11.00000 0.00000 16.00000
v  -5.00000 0.00000 10.66667
v  -11.00000 0.00000 10.66667
v  -5.00000 0.00000 5.33333
v  -11.00000 0.00000 5.33333
v  -5.00000 0.00000 -32.00000
v  -11.00000 0.00000 -32.00000
v  -11.00000 0.00000 -26.66667
v  -5.00000 0.00000 -26.66667
v  -11.00000 0.00000 -21.33333
v  -5.00000 0.00000 -21.33333
v  -11.00000 0.00000 -16.00000
v  -5.00000 0.00000 -16.00000
v  -11.00000 0.00000 -10.66667
v  -5.00000 0.00000 -10.66667
v  5.00000 0.00000 32.00000
v  11.00000 0.00000 32.00000
v  11.00000 0.00000 26.66667
v  5.00000 0.00000 26.66667
v  11.00000 0.00000 21.33333
v  5.00000 0.00000 21.33333
v  11.00000 0.00000 16.00000
v  5.00000 0.00000 16.00000
v  11.00000 0.00000 10.66667
v  5.00000 0.00000 10.66667
v  11.00000 0.00000 5.33333
v  11.00000 0.00000 -32.00000
v  5.00000 0.00000 -32.00000
v  5.00000 0.00000 -26.66667
v  11.00000 0.00000 -26.66667
v  5.00000 0.00000 -21.33333
v  11.00000 0.00000 -21.33333
v  5.00000 0.00000 -16.00000
v  11.00000 0.00000 -16.00000
v  5.00000 0.00000 -10.66667
v  11.00000 0.00000 -10.66667
v  5.00000 -0.30000 -32.00000
v  -5.00000 -0.30000 -32.00000
v  -5.00000 -0.30000 -26.66667
v  5.00000 -0.30000 -26.66667
v  -5.00000 -0.30000 -21.33333
v  5.00000 -0.30000 -21.33333
v  -5.00000 -0.30000 -16.00000
v  5.00000 -0.30000 -16.00000
v  -5.00000 -0.30000 -10.66667
v  5.00000 -0.30000 -10.66667
v  5.00000 -0.30000 -5.33333
v  -5.00000 -0.30000 32.00000
v  5.00000 -0.30000 32.00000
v  5.00000 -0.30000 26.66667
v  -5.00000 -0.30000 26.66667
v  5.00000 -0.30000 21.33333
v  -5.00000 -0.30000 21.33333
v  5.00000 -0.30000 16.00000
v  -5.00000 -0.30000 16.00000
v  5.00000 -0.30000 10.66667
v  -5.00000 -0.30000 10.66667
# 78 vertices

vn 0.00000 1.00000 -0.00000
vn 1.00000 0.00000 -0.00000
vn -1.00000 0.00000 -0.00000
# 3 vertex normals

vt 0.00218 0.50000 0.00000
vt 0.20582 0.50000 0.00000
vt 0.20582 0.58333 0.00000
vt 0.00218 0.58333 0.00000
vt 0.79418 0.50000 0.00000
vt 0.99782 0.50000 0.00000
vt 0.99782 0.58333 0.00000
vt 0.79418 0.58333 0.00000
vt 0.20582 0.41667 0.00000
vt 0.79418 0.41667 0.00000
vt 0.00218 0.00000 0.00000
vt 0.20582 0.00000 0.00000
vt 0.20582 0.08333 0.00000
vt 0.00218 0.08333 0.00000
vt 0.20582 0.16667 0.00000
vt 0.00218 0.16667 0.00000
vt 0.20582 0.25000 0.00000
vt 0.00218 0.25000 0.00000
vt 0.20582 0.33333 0.00000
vt 0.00218 0.33333 0.00000
vt 0.00218 0.41667 0.00000
vt 0.20582 1.00000 0.00000
vt 0.00218 1.00000 0.00000
vt 0.00218 0.91667 0.00000
vt 0.20582 0.91667 0.00000
vt 0.00218 0.83333 0.00000
vt 0.20582 0.83333 0.00000
vt 0.00218 0.75000 0.00000
vt 0.20582 0.75000 0.00000
vt 0.00218 0.66667 0.00000
vt 0.20582 0.66667 0.00000
vt 0.79418 0.00000 0.00000
vt 0.99782 0.00000 0.00000
vt 0.99782 0.08333 0.00000
vt 0.79418 0.08333 0.00000
vt 0.99782 0.16667 0.00000
vt 0.79418 0.16667 0.00000
vt 0.99782 0.25000 0.00000
vt 0.79418 0.25000 0.00000
vt 0.99782 0.33333 0.00000
vt 0.79418 0.33333 0.00000
vt 0.99782 0.41667 0.00000
vt 0.99782 1.00000 0.00000
vt 0.79418 1.00000 0.00000
vt 0.79418 0.91667 0.00000
vt 0.99782 0.91667 0.00000
vt 0.79418 0.83333 0.00000
vt 0.99782 0.83333 0.00000
vt 0.79418 0.75000 0.00000
vt 0.99782 0.75000 0.00000
vt 0.79418 0.66667 0.00000
vt 0.99782 0.66667 0.00000
# 52 texture coords

g Plane001
f 1/1/1 2/2/1 3/3/1 
f 3/3/1 4/4/1 1/1/1 
f 5/5/1 6/6/1 7/7/1 
f 7/7/1 8/8/1 5/5/1 
f 9/5/1 10/2/1 11/9/1 
f 11/9/1 12/10/1 9/5/1 
f 2/2/2 10/2/2 13/3/2 
f 13/3/2 3/3/2 2/2/2 
f 5/5/3 9/5/3 12/10/3 
f 12/10/3 14/10/3 5/5/3 
f 15/11/1 16/12/1 17/13/1 
f 17/13/1 18/14/1 15/11/1 
f 18/14/1 17/13/1 19/15/1 
f 19/15/1 20/16/1 18/14/1 
f 20/16/1 19/15/1 21/17/1 
f 21/17/1 22/18/1 20/16/1 
f 22/18/1 21/17/1 23/19/1 
f 23/19/1 24/20/1 22/18/1 
f 24/20/1 23/19/1 25/9/1 
f 25/9/1 26/21/1 24/20/1 
f 26/21/1 25/9/1 2/2/1 
f 2/2/1 1/1/1 26/21/1 
f 27/22/1 28/23/1 29/24/1 
f 29/24/1 30/25/1 27/22/1 
f 30/25/1 29/24/1 31/26/1 
f 31/26/1 32/27/1 30/25/1 
f 32/27/1 31/26/1 33/28/1 
f 33/28/1 34/29/1 32/27/1 
f 34/29/1 33/28/1 35/30/1 
f 35/30/1 36/31/1 34/29/1 
f 36/31/1 35/30/1 4/4/1 
f 4/4/1 3/3/1 36/31/1 
f 37/32/1 38/33/1 39/34/1 
f 39/34/1 40/35/1 37/32/1 
f 40/35/1 39/34/1 41/36/1 
f 41/36/1 42/37/1 40/35/1 
f 42/37/1 41/36/1 43/38/1 
f 43/38/1 44/39/1 42/37/1 
f 44/39/1 43/38/1 45/40/1 
f 45/40/1 46/41/1 44/39/1 
f 46/41/1 45/40/1 47/42/1 
f 47/42/1 14/10/1 46/41/1 
f 14/10/1 47/42/1 6/6/1 
f 6/6/1 5/5/1 14/10/1 
f 48/43/1 49/44/1 50/45/1 
f 50/45/1 51/46/1 48/43/1 
f 51/46/1 50/45/1 52/47/1 
f 52/47/1 53/48/1 51/46/1 
f 53/48/1 52/47/1 54/49/1 
f 54/49/1 55/50/1 53/48/1 
f 55/50/1 54/49/1 56/51/1 
f 56/51/1 57/52/1 55/50/1 
f 57/52/1 56/51/1 8/8/1 
f 8/8/1 7/7/1 57/52/1 
f 58/44/1 59/22/1 60/25/1 
f 60/25/1 61/45/1 58/44/1 
f 61/45/1 60/25/1 62/27/1 
f 62/27/1 63/47/1 61/45/1 
f 63/47/1 62/27/1 64/29/1 
f 64/29/1 65/49/1 63/47/1 
f 65/49/1 64/29/1 66/31/1 
f 66/31/1 67/51/1 65/49/1 
f 67/51/1 66/31/1 13/3/1 
f 13/3/1 68/8/1 67/51/1 
f 68/8/1 13/3/1 10/2/1 
f 10/2/1 9/5/1 68/8/1 
f 69/12/1 70/32/1 71/35/1 
f 71/35/1 72/13/1 69/12/1 
f 72/13/1 71/35/1 73/37/1 
f 73/37/1 74/15/1 72/13/1 
f 74/15/1 73/37/1 75/39/1 
f 75/39/1 76/17/1 74/15/1 
f 76/17/1 75/39/1 77/41/1 
f 77/41/1 78/19/1 76/17/1 
f 78/19/1 77/41/1 12/10/1 
f 12/10/1 11/9/1 78/19/1 
f 16/12/2 69/12/2 72/13/2 
f 72/13/2 17/13/2 16/12/2 
f 17/13/2 72/13/2 74/15/2 
f 74/15/2 19/15/2 17/13/2 
f 19/15/2 74/15/2 76/17/2 
f 76/17/2 21/17/2 19/15/2 
f 21/17/2 76/17/2 78/19/2 
f 78/19/2 23/19/2 21/17/2 
f 23/19/2 78/19/2 11/9/2 
f 11/9/2 25/9/2 23/19/2 
f 25/9/2 11/9/2 10/2/2 
f 10/2/2 2/2/2 25/9/2 
f 59/22/2 27/22/2 30/25/2 
f 30/25/2 60/25/2 59/22/2 
f 60/25/2 30/25/2 32/27/2 
f 32/27/2 62/27/2 60/25/2 
f 62/27/2 32/27/2 34/29/2 
f 34/29/2 64/29/2 62/27/2 
f 64/29/2 34/29/2 36/31/2 
f 36/31/2 66/31/2 64/29/2 
f 66/31/2 36/31/2 3/3/2 
f 3/3/2 13/3/2 66/31/2 
f 49/44/3 58/44/3 61/45/3 
f 61/45/3 50/45/3 49/44/3 
f 50/45/3 61/45/3 63/47/3 
f 63/47/3 52/47/3 50/45/3 
f 52/47/3 63/47/3 65/49/3 
f 65/49/3 54/49/3 52/47/3 
f 54/49/3 65/49/3 67/51/3 
f 67/51/3 56/51/3 54/49/3 
f 56/51/3 67/51/3 68/8/3 
f 68/8/3 8/8/3 56/51/3 
f 8/8/3 68/8/3 9/5/3 
f 9/5/3 5/5/3 8/8/3 
f 70/32/3 37/32/3 40/35/3 
f 40/35/3 71/35/3 70/32/3 
f 71/35/3 40/35/3 42/37/3 
f 42/37/3 73/37/3 71/35/3 
f 73/37/3 42/37/3 44/39/3 
f 44/39/3 75/39/3 73/37/3 
f 75/39/3 44/39/3 46/41/3 
f 46/41/3 77/41/3 75/39/3 
f 77/41/3 46/41/3 14/10/3 
f 14/10/3 12/10/3 77/41/3 
# 120 faces

