# 3ds Max Wavefront OBJ Exporter v0.97b - (c)2007 guruware
# File Created: 05.11.2015 22:39:49

#
# object Plane001
#

v  11.00000 -0.30000 -0.00000
v  5.00000 -0.30000 -0.00000
v  5.00000 -0.30000 16.00000
v  11.00000 -0.30000 16.00000
v  11.00000 -0.30000 -32.00000
v  5.00000 -0.30000 -32.00000
v  5.00000 -0.30000 -16.00000
v  11.00000 -0.30000 -16.00000
v  -11.00000 -0.30000 32.00000
v  -5.00000 -0.30000 32.00000
v  -5.00000 -0.30000 16.00000
v  -11.00000 -0.30000 16.00000
v  -5.00000 -0.30000 -0.00000
v  0.00000 -0.30000 16.00000
v  0.00000 -0.30000 -0.00000
v  -5.00000 -0.30000 -32.00000
v  -5.00000 -0.30000 -16.00000
v  0.00000 -0.30000 -16.00000
v  0.00000 -0.30000 -32.00000
v  5.00000 -0.30000 32.00000
v  0.00000 -0.30000 32.00000
v  11.00000 -0.30000 32.00000
v  -11.00000 -0.30000 -0.00000
v  -11.00000 -0.30000 -32.00000
v  -11.00000 -0.30000 -16.00000
# 25 vertices

vn 0.00000 1.00000 -0.00000
# 1 vertex normals

vt 1.14355 0.50000 0.00000
vt 0.79371 0.50000 0.00000
vt 0.79371 0.25000 0.00000
vt 1.14355 0.25000 0.00000
vt 1.14355 1.00000 0.00000
vt 0.79371 1.00000 0.00000
vt 0.79371 0.75000 0.00000
vt 1.14355 0.75000 0.00000
vt -0.13919 0.00000 0.00000
vt 0.21065 0.00000 0.00000
vt 0.21065 0.25000 0.00000
vt -0.13919 0.25000 0.00000
vt 0.21065 0.50000 0.00000
vt 0.50218 0.25000 0.00000
vt 0.50218 0.50000 0.00000
vt 0.21065 1.00000 0.00000
vt 0.21065 0.75000 0.00000
vt 0.50218 0.75000 0.00000
vt 0.50218 1.00000 0.00000
vt 0.79371 0.00000 0.00000
vt 0.50218 0.00000 0.00000
vt 1.14355 0.00000 0.00000
vt -0.13919 0.50000 0.00000
vt -0.13919 1.00000 0.00000
vt -0.13919 0.75000 0.00000
# 25 texture coords

g Plane001
f 1/1/1 2/2/1 3/3/1 
f 3/3/1 4/4/1 1/1/1 
f 5/5/1 6/6/1 7/7/1 
f 7/7/1 8/8/1 5/5/1 
f 8/8/1 7/7/1 2/2/1 
f 2/2/1 1/1/1 8/8/1 
f 9/9/1 10/10/1 11/11/1 
f 11/11/1 12/12/1 9/9/1 
f 13/13/1 11/11/1 14/14/1 
f 14/14/1 15/15/1 13/13/1 
f 16/16/1 17/17/1 18/18/1 
f 18/18/1 19/19/1 16/16/1 
f 17/17/1 13/13/1 15/15/1 
f 15/15/1 18/18/1 17/17/1 
f 20/20/1 3/3/1 14/14/1 
f 14/14/1 21/21/1 20/20/1 
f 15/15/1 14/14/1 3/3/1 
f 3/3/1 2/2/1 15/15/1 
f 19/19/1 18/18/1 7/7/1 
f 7/7/1 6/6/1 19/19/1 
f 18/18/1 15/15/1 2/2/1 
f 2/2/1 7/7/1 18/18/1 
f 22/22/1 4/4/1 3/3/1 
f 3/3/1 20/20/1 22/22/1 
f 21/21/1 14/14/1 11/11/1 
f 11/11/1 10/10/1 21/21/1 
f 23/23/1 12/12/1 11/11/1 
f 11/11/1 13/13/1 23/23/1 
f 24/24/1 25/25/1 17/17/1 
f 17/17/1 16/16/1 24/24/1 
f 25/25/1 23/23/1 13/13/1 
f 13/13/1 17/17/1 25/25/1 
# 32 faces

