# 3ds Max Wavefront OBJ Exporter v0.97b - (c)2007 guruware
# File Created: 01.10.2015 08:46:24

#
# object Plane005
#

v  16.00000 7.50000 -32.00000
v  14.00000 7.50000 -30.00000
v  15.99999 7.50000 -30.00000
v  -14.00000 0.10000 -32.00000
v  -14.00469 0.09687 -30.00000
v  -0.00000 0.09687 -30.00000
v  -0.00000 0.10000 -32.00000
v  -14.07734 4.25000 1.00000
v  -16.00002 4.25000 1.00000
v  -16.00001 3.70833 6.16667
v  -14.08945 3.70833 6.16667
v  14.00000 0.04844 1.00000
v  0.00000 0.04844 1.00000
v  0.00000 0.04036 6.16667
v  14.00000 0.04036 6.16667
v  16.00000 -3.00001 -32.00001
v  16.00001 -2.90626 -30.00000
v  14.00000 3.70833 6.16667
v  14.00000 4.25000 1.00000
v  14.00000 0.00000 32.00000
v  16.00001 0.00000 32.00000
v  16.00001 1.00000 32.00000
v  14.00000 1.00000 32.00000
v  -16.00000 -1.45313 1.00000
v  -16.00000 -1.21094 6.16667
v  -16.00000 0.00000 32.00000
v  -14.14999 0.00000 32.00000
v  -14.14999 1.00000 32.00000
v  -16.00000 1.00000 32.00000
v  -14.00000 6.00000 -32.00000
v  -14.00469 6.00000 -30.00000
v  16.00000 4.25000 1.00000
v  16.00000 4.79167 -4.16667
v  14.00000 4.79167 -4.16667
v  -14.00469 7.50000 -30.00000
v  -16.00004 7.49999 -32.00000
v  -16.00003 7.50000 -30.00000
v  16.00000 -1.45313 1.00000
v  16.00001 -1.69532 -4.16667
v  -16.00000 -3.00001 -32.00000
v  -16.00000 -2.90626 -30.00000
v  -14.07734 0.04844 1.00000
v  -14.06524 0.05651 -4.16666
v  -14.06524 4.79167 -4.16666
v  14.00000 0.10000 -32.00000
v  14.00000 0.09687 -30.00000
v  14.00000 6.00000 -30.00000
v  14.00000 6.00000 -32.00000
v  -0.00001 7.50000 -30.00000
v  -0.00001 6.00000 -30.00000
v  -0.00001 6.00000 -32.00000
v  -0.00001 7.50000 -32.00000
v  -0.00000 0.05651 -4.16667
v  -16.00003 6.95833 -24.83333
v  -14.01680 6.95833 -24.83333
v  -16.00003 6.41666 -19.66667
v  -14.02891 6.41667 -19.66666
v  -16.00002 5.87500 -14.50000
v  -14.04102 5.87500 -14.50000
v  -16.00002 5.33333 -9.33333
v  -14.05313 5.33333 -9.33333
v  -16.00002 4.79166 -4.16666
v  -14.13789 1.54167 26.83333
v  -16.00000 1.54167 26.83334
v  -14.12578 2.08333 21.66667
v  -16.00000 2.08333 21.66667
v  -14.11367 2.62500 16.50000
v  -16.00001 2.62500 16.50000
v  -14.10156 3.16667 11.33334
v  -16.00001 3.16667 11.33333
v  -0.00000 0.08880 -24.83334
v  14.00000 0.08880 -24.83334
v  -0.00000 0.08073 -19.66667
v  14.00000 0.08073 -19.66667
v  -0.00000 0.07266 -14.50000
v  14.00000 0.07266 -14.50000
v  -0.00000 0.06458 -9.33334
v  14.00000 0.06458 -9.33334
v  14.00000 0.05651 -4.16667
v  0.00000 0.00000 32.00000
v  14.00000 0.00807 26.83333
v  0.00000 0.00807 26.83333
v  14.00000 0.01615 21.66667
v  0.00000 0.01615 21.66667
v  14.00000 0.02422 16.50000
v  0.00000 0.02422 16.50000
v  14.00000 0.03229 11.33333
v  0.00000 0.03229 11.33333
v  14.00000 6.95833 -24.83334
v  14.00000 6.41667 -19.66667
v  14.00000 5.87500 -14.50000
v  14.00000 5.33333 -9.33333
v  14.00000 1.54167 26.83333
v  14.00000 2.08333 21.66667
v  14.00000 2.62500 16.50000
v  14.00000 3.16667 11.33333
v  -16.00000 -2.66407 -24.83333
v  -16.00000 -2.42188 -19.66667
v  -16.00000 -2.17969 -14.50000
v  -16.00000 -1.93750 -9.33333
v  -16.00000 -1.69532 -4.16667
v  -16.00000 -0.24219 26.83333
v  -16.00000 -0.48438 21.66667
v  -16.00000 -0.72656 16.50000
v  -16.00000 -0.96875 11.33333
v  16.00000 1.54167 26.83333
v  16.00000 2.08333 21.66667
v  16.00000 2.62500 16.50000
v  16.00000 3.16667 11.33333
v  16.00000 3.70833 6.16666
v  16.00000 6.95834 -24.83334
v  16.00000 6.41667 -19.66667
v  16.00000 5.87500 -14.50000
v  16.00000 5.33333 -9.33333
v  16.00000 -0.24219 26.83333
v  16.00001 -0.48438 21.66667
v  16.00000 -0.72656 16.50000
v  16.00001 -0.96875 11.33333
v  16.00000 -1.21094 6.16667
v  16.00001 -2.66407 -24.83333
v  16.00000 -2.42188 -19.66667
v  16.00001 -2.17969 -14.50000
v  16.00000 -1.93751 -9.33333
v  -14.13789 0.00807 26.83334
v  -14.12578 0.01615 21.66667
v  -14.11367 0.02422 16.50000
v  -14.10156 0.03229 11.33334
v  -14.08945 0.04036 6.16667
v  -14.01680 0.08880 -24.83333
v  -14.02891 0.08073 -19.66666
v  -14.04102 0.07266 -14.49999
v  -14.05313 0.06458 -9.33333
# 132 vertices

vn -0.00000 1.00000 -0.00000
vn 0.00000 0.99758 0.06960
vn -0.00000 0.99864 0.05220
vn 0.00000 1.00000 0.00156
vn -0.00000 0.99455 0.10427
vn -0.00000 1.00000 0.00156
vn 1.00000 0.00000 0.00000
vn 1.00000 0.00000 -0.00000
vn -1.00000 0.00000 0.00000
vn 0.00000 0.00000 1.00000
vn -1.00000 -0.00000 0.00000
vn 1.00000 0.00000 0.00234
vn 0.00000 0.99455 0.10427
vn -0.00000 0.99758 0.06953
vn 1.00000 -0.00000 0.00234
vn -0.00000 -1.00000 -0.00000
vn -1.00000 0.00000 -0.00000
# 17 vertex normals

vt 0.07847 0.00042 0.00000
vt 0.11376 0.03166 0.00000
vt 0.07845 0.03166 0.00000
vt 0.13200 0.00008 0.00000
vt 0.13198 0.03132 0.00000
vt 0.37941 0.03136 0.00000
vt 0.37942 0.00012 0.00000
vt 0.11355 0.48466 0.00000
vt 0.07824 0.48467 0.00000
vt 0.07828 0.40396 0.00000
vt 0.11359 0.40396 0.00000
vt 0.13200 0.51565 0.00000
vt 0.37932 0.51566 0.00000
vt 0.37930 0.59637 0.00000
vt 0.13201 0.59638 0.00000
vt 0.11350 0.59661 0.00000
vt 0.11354 0.51590 0.00000
vt 0.11331 1.00015 0.00000
vt 0.07800 1.00016 0.00000
vt 0.11378 0.00042 0.00000
vt 0.11333 0.96891 0.00000
vt 0.07822 0.51591 0.00000
vt 0.07826 0.43520 0.00000
vt 0.11357 0.43520 0.00000
vt 0.07801 0.96892 0.00000
vt 0.11351 0.56537 0.00000
vt 0.11354 0.50021 0.00000
vt 0.11354 0.50028 0.00000
vt 0.07823 0.50029 0.00000
vt 0.13177 0.51557 0.00000
vt 0.37934 0.43494 0.00000
vt 0.13181 0.43486 0.00000
vt 0.13198 0.00007 0.00000
vt 0.07805 0.88821 0.00000
vt 0.11336 0.88820 0.00000
vt 0.07809 0.80750 0.00000
vt 0.11340 0.80749 0.00000
vt 0.07813 0.72679 0.00000
vt 0.11344 0.72679 0.00000
vt 0.07816 0.64608 0.00000
vt 0.11348 0.64608 0.00000
vt 0.07820 0.56538 0.00000
vt 0.11374 0.08112 0.00000
vt 0.07843 0.08113 0.00000
vt 0.11370 0.16183 0.00000
vt 0.07839 0.16184 0.00000
vt 0.11366 0.24254 0.00000
vt 0.07835 0.24255 0.00000
vt 0.11363 0.32325 0.00000
vt 0.07831 0.32325 0.00000
vt 0.37940 0.11208 0.00000
vt 0.13198 0.11204 0.00000
vt 0.37938 0.19280 0.00000
vt 0.13199 0.19276 0.00000
vt 0.37937 0.27351 0.00000
vt 0.13199 0.27349 0.00000
vt 0.37935 0.35423 0.00000
vt 0.13200 0.35421 0.00000
vt 0.13200 0.43493 0.00000
vt 0.37923 0.99995 0.00000
vt 0.13203 0.99999 0.00000
vt 0.13203 0.91927 0.00000
vt 0.37924 0.91924 0.00000
vt 0.13202 0.83854 0.00000
vt 0.37926 0.83852 0.00000
vt 0.13202 0.75782 0.00000
vt 0.37927 0.75780 0.00000
vt 0.13201 0.67710 0.00000
vt 0.37929 0.67709 0.00000
vt 0.11373 0.11237 0.00000
vt 0.11369 0.19307 0.00000
vt 0.11365 0.27378 0.00000
vt 0.11361 0.35449 0.00000
vt 0.11335 0.91944 0.00000
vt 0.11339 0.83874 0.00000
vt 0.11342 0.75803 0.00000
vt 0.11346 0.67732 0.00000
vt 0.07803 0.91945 0.00000
vt 0.07807 0.83874 0.00000
vt 0.07811 0.75803 0.00000
vt 0.07815 0.67733 0.00000
vt 0.07819 0.59662 0.00000
vt 0.07841 0.11237 0.00000
vt 0.07838 0.19308 0.00000
vt 0.07834 0.27379 0.00000
vt 0.07830 0.35449 0.00000
vt 0.07830 0.35450 0.00000
vt 0.13156 0.99983 0.00000
vt 0.13160 0.91912 0.00000
vt 0.13163 0.83841 0.00000
vt 0.13167 0.75770 0.00000
vt 0.13170 0.67699 0.00000
vt 0.13174 0.59628 0.00000
vt 0.13195 0.11203 0.00000
vt 0.13191 0.19274 0.00000
vt 0.13188 0.27345 0.00000
vt 0.13184 0.35416 0.00000
# 97 texture coords

g Plane005
f 1/1/1 2/2/2 3/3/3 
f 4/4/4 5/5/4 6/6/4 
f 6/6/4 7/7/4 4/4/4 
f 8/8/5 9/9/5 10/10/5 
f 10/10/5 11/11/5 8/8/5 
f 12/12/6 13/13/4 14/14/4 
f 14/14/4 15/15/4 12/12/6 
f 16/1/7 1/1/7 3/3/7 
f 3/3/8 17/3/8 16/1/8 
f 18/16/9 19/17/9 12/17/9 
f 12/17/9 15/16/9 18/16/9 
f 20/18/10 21/19/10 22/19/10 
f 22/19/10 23/18/10 20/18/10 
f 10/10/11 9/9/11 24/9/11 
f 24/9/11 25/10/11 10/10/11 
f 26/1/10 27/20/10 28/20/10 
f 28/20/10 29/1/10 26/1/10 
f 30/18/12 31/21/12 5/21/12 
f 5/21/12 4/18/12 30/18/12 
f 19/17/13 32/22/13 33/23/13 
f 33/23/13 34/24/13 19/17/13 
f 35/21/14 36/19/1 37/25/3 
f 32/22/7 38/22/7 39/23/7 
f 39/23/8 33/23/8 32/22/8 
f 37/25/11 36/19/11 40/19/11 
f 40/19/11 41/25/11 37/25/11 
f 8/8/15 42/8/15 43/26/15 
f 43/26/12 44/26/12 8/8/12 
f 45/20/9 46/2/9 47/2/9 
f 47/2/9 48/20/9 45/20/9 
f 2/2/10 49/27/10 50/27/10 
f 50/27/10 47/2/10 2/2/10 
f 47/2/16 50/27/16 51/28/16 
f 51/28/16 48/20/16 47/2/16 
f 2/2/1 1/1/1 52/29/1 
f 52/29/1 49/27/1 2/2/1 
f 42/30/4 13/13/4 53/31/4 
f 53/31/4 43/32/4 42/30/4 
f 45/33/4 7/7/4 6/6/4 
f 6/6/4 46/5/4 45/33/4 
f 35/21/10 31/21/10 50/27/10 
f 50/27/10 49/27/10 35/21/10 
f 31/21/16 30/18/16 51/28/16 
f 51/28/16 50/27/16 31/21/16 
f 52/29/1 36/19/1 35/21/1 
f 35/21/1 49/27/1 52/29/1 
f 35/21/14 37/25/3 54/34/5 
f 54/34/5 55/35/5 35/21/14 
f 55/35/5 54/34/5 56/36/5 
f 56/36/5 57/37/5 55/35/5 
f 57/37/5 56/36/5 58/38/5 
f 58/38/5 59/39/5 57/37/5 
f 59/39/5 58/38/5 60/40/5 
f 60/40/5 61/41/5 59/39/5 
f 61/41/5 60/40/5 62/42/5 
f 62/42/5 44/26/5 61/41/5 
f 44/26/5 62/42/5 9/9/5 
f 9/9/5 8/8/5 44/26/5 
f 29/1/13 28/20/13 63/43/5 
f 63/43/5 64/44/5 29/1/13 
f 64/44/5 63/43/5 65/45/5 
f 65/45/5 66/46/5 64/44/5 
f 66/46/5 65/45/5 67/47/5 
f 67/47/5 68/48/5 66/46/5 
f 68/48/5 67/47/5 69/49/5 
f 69/49/5 70/50/5 68/48/5 
f 70/50/5 69/49/5 11/11/5 
f 11/11/5 10/10/5 70/50/5 
f 46/5/4 6/6/4 71/51/4 
f 71/51/4 72/52/4 46/5/4 
f 72/52/4 71/51/4 73/53/4 
f 73/53/4 74/54/4 72/52/4 
f 74/54/4 73/53/4 75/55/4 
f 75/55/4 76/56/4 74/54/4 
f 76/56/4 75/55/4 77/57/4 
f 77/57/4 78/58/4 76/56/4 
f 78/58/4 77/57/4 53/31/4 
f 53/31/4 79/59/6 78/58/4 
f 79/59/6 53/31/4 13/13/4 
f 13/13/4 12/12/6 79/59/6 
f 80/60/4 20/61/4 81/62/4 
f 81/62/4 82/63/4 80/60/4 
f 82/63/4 81/62/4 83/64/4 
f 83/64/4 84/65/4 82/63/4 
f 84/65/4 83/64/4 85/66/4 
f 85/66/4 86/67/4 84/65/4 
f 86/67/4 85/66/4 87/68/4 
f 87/68/4 88/69/4 86/67/4 
f 88/69/4 87/68/4 15/15/4 
f 15/15/4 14/14/4 88/69/4 
f 89/70/9 2/2/9 47/2/9 
f 89/70/9 47/2/9 46/2/9 
f 89/70/9 46/2/9 72/70/9 
f 90/71/9 89/70/9 72/70/9 
f 72/70/9 74/71/9 90/71/9 
f 91/72/9 90/71/9 74/71/9 
f 74/71/9 76/72/9 91/72/9 
f 92/73/9 91/72/9 76/72/9 
f 76/72/9 78/73/9 92/73/9 
f 34/24/9 92/73/9 78/73/9 
f 78/73/9 79/24/9 34/24/9 
f 19/17/9 34/24/9 79/24/9 
f 79/24/9 12/17/9 19/17/9 
f 81/74/9 20/18/9 23/18/9 
f 23/18/9 93/74/9 81/74/9 
f 83/75/9 81/74/9 93/74/9 
f 93/74/9 94/75/9 83/75/9 
f 85/76/9 83/75/9 94/75/9 
f 94/75/9 95/76/9 85/76/9 
f 87/77/9 85/76/9 95/76/9 
f 95/76/9 96/77/9 87/77/9 
f 15/16/9 87/77/9 96/77/9 
f 96/77/9 18/16/9 15/16/9 
f 54/34/11 37/25/11 41/25/11 
f 41/25/11 97/34/11 54/34/11 
f 56/36/11 54/34/11 97/34/11 
f 97/34/11 98/36/11 56/36/11 
f 58/38/11 56/36/11 98/36/11 
f 98/36/11 99/38/11 58/38/11 
f 60/40/11 58/38/11 99/38/11 
f 99/38/11 100/40/11 60/40/11 
f 62/42/11 60/40/11 100/40/11 
f 100/40/11 101/42/11 62/42/11 
f 9/9/11 62/42/11 101/42/11 
f 101/42/11 24/9/11 9/9/11 
f 102/44/17 26/1/17 29/1/17 
f 29/1/11 64/44/11 102/44/11 
f 103/46/11 102/44/11 64/44/11 
f 64/44/11 66/46/11 103/46/11 
f 104/48/11 103/46/11 66/46/11 
f 66/46/11 68/48/11 104/48/11 
f 105/50/11 104/48/11 68/48/11 
f 68/48/11 70/50/11 105/50/11 
f 25/10/11 105/50/11 70/50/11 
f 70/50/11 10/10/11 25/10/11 
f 23/18/13 22/19/13 106/78/5 
f 106/78/5 93/74/5 23/18/13 
f 93/74/5 106/78/5 107/79/13 
f 107/79/13 94/75/13 93/74/5 
f 94/75/13 107/79/13 108/80/13 
f 108/80/13 95/76/13 94/75/13 
f 95/76/13 108/80/13 109/81/13 
f 109/81/13 96/77/13 95/76/13 
f 96/77/13 109/81/13 110/82/13 
f 110/82/13 18/16/13 96/77/13 
f 18/16/13 110/82/13 32/22/13 
f 32/22/13 19/17/13 18/16/13 
f 3/3/3 2/2/2 89/70/5 
f 89/70/5 111/83/5 3/3/3 
f 111/83/5 89/70/5 90/71/5 
f 90/71/5 112/84/13 111/83/5 
f 112/84/13 90/71/5 91/72/13 
f 91/72/13 113/85/13 112/84/13 
f 113/85/13 91/72/13 92/73/13 
f 92/73/13 114/86/13 113/85/13 
f 114/86/13 92/73/13 34/24/13 
f 34/24/13 33/23/13 114/86/13 
f 22/19/8 21/19/8 115/78/8 
f 115/78/8 106/78/8 22/19/8 
f 106/78/7 115/78/7 116/79/7 
f 116/79/8 107/79/8 106/78/8 
f 107/79/8 116/79/8 117/80/8 
f 117/80/8 108/80/8 107/79/8 
f 108/80/7 117/80/7 118/81/7 
f 118/81/8 109/81/8 108/80/8 
f 109/81/8 118/81/8 119/82/8 
f 119/82/8 110/82/8 109/81/8 
f 110/82/8 119/82/8 38/22/8 
f 38/22/8 32/22/8 110/82/8 
f 17/3/8 3/3/8 111/83/8 
f 111/83/8 120/83/8 17/3/8 
f 120/83/8 111/83/8 112/84/8 
f 112/84/7 121/84/7 120/83/7 
f 121/84/8 112/84/8 113/85/8 
f 113/85/8 122/85/8 121/84/8 
f 122/85/8 113/85/8 114/86/8 
f 114/86/7 123/87/7 122/85/7 
f 123/87/8 114/86/8 33/23/8 
f 33/23/8 39/23/8 123/87/8 
f 28/20/12 27/20/12 124/43/12 
f 124/43/12 63/43/12 28/20/12 
f 63/43/12 124/43/12 125/45/12 
f 125/45/12 65/45/12 63/43/12 
f 65/45/12 125/45/12 126/47/12 
f 126/47/12 67/47/12 65/45/12 
f 67/47/12 126/47/12 127/49/12 
f 127/49/12 69/49/12 67/47/12 
f 69/49/12 127/49/12 128/11/12 
f 128/11/12 11/11/12 69/49/12 
f 11/11/12 128/11/12 42/8/12 
f 42/8/15 8/8/15 11/11/15 
f 129/35/12 5/21/12 31/21/12 
f 129/35/12 31/21/12 35/21/12 
f 129/35/12 35/21/12 55/35/12 
f 129/35/12 55/35/12 57/37/12 
f 57/37/15 130/37/15 129/35/15 
f 130/37/15 57/37/15 59/39/15 
f 59/39/12 131/39/12 130/37/12 
f 131/39/12 59/39/12 61/41/12 
f 61/41/12 132/41/12 131/39/12 
f 132/41/12 61/41/12 44/26/12 
f 44/26/12 43/26/12 132/41/12 
f 27/88/4 80/60/4 82/63/4 
f 82/63/4 124/89/4 27/88/4 
f 124/89/4 82/63/4 84/65/4 
f 84/65/4 125/90/4 124/89/4 
f 125/90/4 84/65/4 86/67/4 
f 86/67/4 126/91/4 125/90/4 
f 126/91/4 86/67/4 88/69/4 
f 88/69/4 127/92/4 126/91/4 
f 127/92/4 88/69/4 14/14/4 
f 14/14/4 128/93/4 127/92/4 
f 128/93/4 14/14/4 13/13/4 
f 13/13/4 42/30/4 128/93/4 
f 6/6/4 5/5/4 129/94/4 
f 129/94/4 71/51/4 6/6/4 
f 71/51/4 129/94/4 130/95/4 
f 130/95/4 73/53/4 71/51/4 
f 73/53/4 130/95/4 131/96/4 
f 131/96/4 75/55/4 73/53/4 
f 75/55/4 131/96/4 132/97/4 
f 132/97/4 77/57/4 75/55/4 
f 77/57/4 132/97/4 43/32/4 
f 43/32/4 53/31/4 77/57/4 
# 224 faces

