# 3ds Max Wavefront OBJ Exporter v0.97b - (c)2007 guruware
# File Created: 02.05.2016 19:40:23

#
# object Plane005
#

v  8.0000 -0.1500 -0.0000
v  6.0000 -0.1500 -0.0000
v  6.0000 -0.3000 32.0000
v  8.0000 -0.3000 32.0000
v  0.0000 0.0500 -32.0000
v  0.0000 -0.1500 -0.0000
v  6.0000 0.0500 -32.0000
v  -8.0000 0.0500 -32.0000
v  -8.0000 -0.1500 -0.0000
v  -6.0000 -0.1500 -0.0000
v  -6.0000 0.0500 -32.0000
v  8.0000 0.0500 -32.0000
v  0.0000 -0.3000 32.0000
v  -8.0000 -0.3000 32.0000
v  -6.0000 -0.3000 32.0000
# 15 vertices

vn -0.0000 1.0000 0.0055
vn -0.0000 1.0000 0.0047
vn -0.0000 1.0000 0.0062
# 3 vertex normals

vt 1.0019 0.5000 0.0000
vt 0.8762 0.5000 0.0000
vt 0.8762 0.0000 0.0000
vt 1.0019 0.0000 0.0000
vt 0.4992 1.0000 0.0000
vt 0.4992 0.5000 0.0000
vt 0.8762 1.0000 0.0000
vt -0.0036 1.0000 0.0000
vt -0.0036 0.5000 0.0000
vt 0.1221 0.5000 0.0000
vt 0.1221 1.0000 0.0000
vt 1.0019 1.0000 0.0000
vt 0.4992 0.0000 0.0000
vt -0.0036 0.0000 0.0000
vt 0.1221 0.0000 0.0000
# 15 texture coords

g Plane005
s 1
f 1/1/1 2/2/1 3/3/2 
f 3/3/2 4/4/2 1/1/1 
f 5/5/3 6/6/1 2/2/1 
f 2/2/1 7/7/3 5/5/3 
f 8/8/3 9/9/1 10/10/1 
f 10/10/1 11/11/3 8/8/3 
f 11/11/3 10/10/1 6/6/1 
f 6/6/1 5/5/3 11/11/3 
f 12/12/3 7/7/3 2/2/1 
f 2/2/1 1/1/1 12/12/3 
f 13/13/2 3/3/2 2/2/1 
f 2/2/1 6/6/1 13/13/2 
f 14/14/2 15/15/2 10/10/1 
f 10/10/1 9/9/1 14/14/2 
f 15/15/2 13/13/2 6/6/1 
f 6/6/1 10/10/1 15/15/2 
# 16 faces

