# 3ds Max Wavefront OBJ Exporter v0.97b - (c)2007 guruware
# File Created: 29.05.2016 22:33:15

#
# object Plane009
#

v  0.0000 -0.1250 32.0000
v  0.0000 -0.1250 -0.0000
v  -6.0000 -0.1250 -0.0000
v  -6.0000 -0.1250 32.0000
v  0.0000 -0.1250 -32.0000
v  -6.0000 -0.1250 -32.0000
v  8.0000 -0.1250 32.0000
v  8.0000 -0.1250 -0.0000
v  6.0000 -0.1250 -0.0000
v  6.0000 -0.1250 32.0000
v  -8.0000 -0.1250 -0.0000
v  -8.0000 -0.1250 32.0000
v  8.0000 -0.1250 -32.0000
v  6.0000 -0.1250 -32.0000
v  -8.0000 -0.1250 -32.0000
# 15 vertices

vn 0.0000 1.0000 -0.0000
# 1 vertex normals

vt 0.5010 0.0000 0.0000
vt 0.5010 0.5000 0.0000
vt 0.2752 0.5000 0.0000
vt 0.2752 0.0000 0.0000
vt 0.5009 1.0000 0.0000
vt 0.2752 1.0000 0.0000
vt 0.9524 0.0000 0.0000
vt 0.9524 0.5000 0.0000
vt 0.7267 0.5000 0.0000
vt 0.7267 0.0000 0.0000
vt 0.0495 0.5000 0.0000
vt 0.0495 0.0000 0.0000
vt 0.9524 1.0000 0.0000
vt 0.7267 1.0000 0.0000
vt 0.0495 1.0000 0.0000
# 15 texture coords

g Plane009
s 1
f 1/1/1 2/2/1 3/3/1 
f 3/3/1 4/4/1 1/1/1 
f 2/2/1 5/5/1 6/6/1 
f 6/6/1 3/3/1 2/2/1 
f 7/7/1 8/8/1 9/9/1 
f 9/9/1 10/10/1 7/7/1 
f 10/10/1 9/9/1 2/2/1 
f 2/2/1 1/1/1 10/10/1 
f 11/11/1 12/12/1 4/4/1 
f 4/4/1 3/3/1 11/11/1 
f 8/8/1 13/13/1 14/14/1 
f 14/14/1 9/9/1 8/8/1 
f 9/9/1 14/14/1 5/5/1 
f 5/5/1 2/2/1 9/9/1 
f 15/15/1 11/11/1 3/3/1 
f 3/3/1 6/6/1 15/15/1 
# 16 faces

