# 3ds Max Wavefront OBJ Exporter v0.97b - (c)2007 guruware
# File Created: 29.10.2015 08:18:05

#
# object Plane01_001
#

v  -5.00029 -0.30000 0.00000
v  -8.20000 -0.30000 -0.00000
v  -5.00029 -0.30000 3.12167
v  4.99971 -0.30000 0.00001
v  8.20000 -0.30000 0.00001
v  4.99971 -0.30000 -3.12222
v  8.20000 -0.30000 16.00001
v  4.99971 -0.30000 12.87778
v  4.99971 -0.30000 16.00001
v  -5.00029 -0.30000 16.00000
v  -8.20000 -0.30000 16.00000
v  -5.00029 -0.30000 19.12167
v  4.99971 -0.30000 32.00001
v  8.20000 -0.30000 32.00001
v  4.99971 -0.30000 28.87778
v  -5.00029 -0.30000 -16.00000
v  -8.20000 -0.30000 -16.00000
v  -5.00029 -0.30000 -12.87833
v  8.20000 -0.30000 -15.99999
v  4.99971 -0.30000 -19.12222
v  4.99971 -0.30000 -15.99999
v  -5.00029 -0.30000 -32.00000
v  -8.20000 -0.30000 -32.00000
v  -5.00029 -0.30000 -28.87833
v  8.06000 0.99979 -0.00005
v  7.90000 -0.29996 0.00000
v  8.06000 0.99979 15.99994
v  7.90000 -0.29996 -16.00000
v  7.90000 -0.29996 16.00000
v  8.06000 0.99979 31.99995
v  7.90000 -0.29996 32.00000
v  8.06000 0.99979 -16.00005
v  7.90000 -0.29996 -32.00000
v  8.06000 0.99979 -32.00005
v  8.48587 -1.99978 -0.00000
v  8.48587 -1.99978 15.99999
v  8.06000 0.99979 15.99995
v  8.48587 -1.99978 32.00000
v  8.48587 -1.99978 -16.00000
v  8.48587 -1.99978 -32.00000
v  6.50000 -4.00000 -0.00001
v  6.50000 -4.00000 15.99998
v  8.48587 -1.99978 16.00000
v  6.50000 -4.00000 31.99999
v  6.50000 -4.00000 -16.00001
v  6.50000 -4.00000 -32.00001
v  -5.00029 -4.00000 0.00001
v  -5.00029 -4.00000 1.84581
v  -6.50000 -4.00000 0.00001
v  4.99971 -4.00000 -0.00001
v  4.99971 -4.00000 -1.84651
v  6.50000 -4.00000 15.99999
v  4.99971 -4.00000 15.99999
v  4.99971 -4.00000 14.15349
v  -5.00029 -4.00000 16.00001
v  -5.00029 -4.00000 17.84581
v  -6.50000 -4.00000 16.00001
v  4.99971 -4.00000 31.99999
v  4.99971 -4.00000 30.15349
v  -5.00029 -4.00000 -15.99999
v  -5.00029 -4.00000 -14.15419
v  -6.50000 -4.00000 -15.99999
v  4.99971 -4.00000 -16.00001
v  4.99971 -4.00000 -17.84651
v  -5.00029 -4.00000 -31.99998
v  -5.00029 -4.00000 -30.15419
v  -6.50000 -4.00000 -31.99998
v  -6.50000 -4.00000 16.00000
v  -8.48645 -2.00000 -0.00000
v  -8.48645 -2.00000 -16.00000
v  -8.48645 -2.00000 16.00000
v  -6.50000 -4.00000 32.00001
v  -8.48645 -2.00000 32.00000
v  -8.48645 -2.00000 -32.00000
v  -6.50000 -4.00000 -31.99999
v  -8.48645 -2.00000 15.99999
v  -8.06000 0.99980 -0.00006
v  -8.06000 0.99980 -16.00006
v  -8.06000 0.99980 15.99994
v  -8.06000 0.99980 31.99994
v  -8.06000 0.99980 -32.00006
v  -8.06000 0.99980 15.99993
v  -7.90000 -0.30000 -0.00000
v  -7.90000 -0.30000 -16.00000
v  -7.90000 -0.30000 16.00000
v  -7.90000 -0.30000 32.00000
v  -7.90000 -0.30000 -32.00000
v  4.99971 -0.30000 3.12202
v  -0.00029 -0.30000 7.99973
v  -5.00029 -0.30000 -3.12189
v  -0.00029 -0.30000 -8.00027
v  -5.00029 -0.30000 12.87811
v  4.99971 -0.30000 19.12202
v  -0.00029 -0.30000 23.99973
v  -8.20000 -0.30000 32.00000
v  -5.00029 -0.30000 32.00000
v  -5.00029 -0.30000 28.87811
v  4.99971 -0.30000 -12.87798
v  -5.00029 -0.30000 -19.12189
v  -0.00029 -0.30000 -24.00027
v  8.20000 -0.30000 -31.99999
v  4.99971 -0.30000 -31.99999
v  4.99971 -0.30000 -28.87798
v  4.99971 -4.00000 12.30715
v  -0.00029 -4.00000 0.00000
v  -5.00029 -4.00000 -12.30823
v  -5.00029 -4.00000 3.69177
v  -0.00029 -4.00000 16.00000
v  4.99971 -4.00000 28.30715
v  -5.00029 -4.00000 19.69177
v  -5.00029 -4.00000 32.00001
v  -0.00029 -4.00000 32.00000
v  4.99971 -4.00000 -3.69285
v  -0.00029 -4.00000 -16.00000
v  -5.00029 -4.00000 -28.30823
v  4.99971 -4.00000 -19.69285
v  4.99971 -4.00000 -31.99999
v  -0.00029 -4.00000 -31.99999
v  -0.00029 -0.30000 0.00001
v  -0.00029 -0.30000 16.00001
v  -0.00029 -0.30000 32.00001
v  -0.00029 -0.30000 -15.99999
v  -0.00029 -4.00000 -8.00035
v  -0.00029 -4.00000 7.99965
v  -0.00029 -4.00000 23.99965
v  -0.00029 -4.00000 -24.00035
v  -0.00029 -0.30000 -32.00000
v  6.50000 -4.00000 -32.00000
# 128 vertices

vn 0.00000 1.00000 -0.00000
vn -0.95507 0.29639 -0.00000
vn 0.97535 0.22065 -0.00000
vn 0.72571 -0.68800 -0.00000
vn 0.00000 -1.00000 -0.00000
vn -0.72571 -0.68800 -0.00000
vn -0.97535 0.22065 -0.00000
vn 0.95501 0.29656 -0.00000
# 8 vertex normals

vt 0.52057 0.50000 0.00000
vt 0.58947 0.50000 0.00000
vt 0.52057 0.45122 0.00000
vt 0.30526 0.50000 0.00000
vt 0.23635 0.50000 0.00000
vt 0.30526 0.54878 0.00000
vt 0.23635 0.25000 0.00000
vt 0.30526 0.29878 0.00000
vt 0.30526 0.25000 0.00000
vt 0.52057 0.25000 0.00000
vt 0.58947 0.25000 0.00000
vt 0.52057 0.20122 0.00000
vt 0.30526 0.00000 0.00000
vt 0.23635 0.00000 0.00000
vt 0.30526 0.04878 0.00000
vt 0.52057 0.75000 0.00000
vt 0.58947 0.75000 0.00000
vt 0.52057 0.70122 0.00000
vt 0.23635 0.75000 0.00000
vt 0.30526 0.79878 0.00000
vt 0.30526 0.75000 0.00000
vt 0.52057 1.00000 0.00000
vt 0.58947 1.00000 0.00000
vt 0.52057 0.95122 0.00000
vt 0.18477 0.50000 0.00000
vt 0.18477 0.25000 0.00000
vt 0.18477 0.00000 0.00000
vt 0.18477 0.75000 0.00000
vt 0.23635 1.00000 0.00000
vt 0.18477 1.00000 0.00000
vt 0.07620 0.50000 0.00000
vt 0.07620 0.25000 0.00000
vt 0.07620 0.00000 0.00000
vt 0.07620 0.75000 0.00000
vt 0.07620 1.00000 0.00000
vt 0.00000 0.50000 0.00000
vt 0.00000 0.25000 0.00000
vt 0.00000 0.00000 0.00000
vt 0.00000 0.75000 0.00000
vt 0.00000 1.00000 0.00000
vt 0.97959 0.50000 0.00000
vt 0.97959 0.47116 0.00000
vt 1.00000 0.50000 0.00000
vt 0.84347 0.50000 0.00000
vt 0.84347 0.52885 0.00000
vt 0.82305 0.50000 0.00000
vt 0.82305 0.25000 0.00000
vt 0.84347 0.25000 0.00000
vt 0.84347 0.27885 0.00000
vt 0.97959 0.25000 0.00000
vt 0.97959 0.22116 0.00000
vt 1.00000 0.25000 0.00000
vt 0.84347 0.00000 0.00000
vt 0.84347 0.02885 0.00000
vt 0.82305 0.00000 0.00000
vt 0.97959 0.75000 0.00000
vt 0.97959 0.72116 0.00000
vt 1.00000 0.75000 0.00000
vt 0.82305 0.75000 0.00000
vt 0.84347 0.75000 0.00000
vt 0.84347 0.77885 0.00000
vt 0.97959 1.00000 0.00000
vt 0.97959 0.97116 0.00000
vt 1.00000 1.00000 0.00000
vt 0.75045 0.50000 0.00000
vt 0.75045 0.25000 0.00000
vt 0.75045 0.00000 0.00000
vt 0.75045 0.75000 0.00000
vt 0.82305 1.00000 0.00000
vt 0.75045 1.00000 0.00000
vt 0.63829 0.50000 0.00000
vt 0.63829 0.25000 0.00000
vt 0.63829 0.00000 0.00000
vt 0.63829 0.75000 0.00000
vt 0.63829 1.00000 0.00000
vt 0.58947 0.00000 0.00000
vt 0.30526 0.45122 0.00000
vt 0.41292 0.37500 0.00000
vt 0.52057 0.54878 0.00000
vt 0.41292 0.62500 0.00000
vt 0.52057 0.29878 0.00000
vt 0.30526 0.20122 0.00000
vt 0.41292 0.12500 0.00000
vt 0.52057 0.00000 0.00000
vt 0.52057 0.04878 0.00000
vt 0.30526 0.70122 0.00000
vt 0.52057 0.79878 0.00000
vt 0.41292 0.87500 0.00000
vt 0.30526 1.00000 0.00000
vt 0.30526 0.95122 0.00000
vt 0.84347 0.30770 0.00000
vt 0.91153 0.50000 0.00000
vt 0.97959 0.69232 0.00000
vt 0.97959 0.44232 0.00000
vt 0.91153 0.25000 0.00000
vt 0.84347 0.05770 0.00000
vt 0.97959 0.19232 0.00000
vt 0.97959 0.00000 0.00000
vt 0.91153 0.00000 0.00000
vt 0.84347 0.55770 0.00000
vt 0.91153 0.75000 0.00000
vt 0.97959 0.94232 0.00000
vt 0.84347 0.80770 0.00000
vt 0.84347 1.00000 0.00000
vt 0.91153 1.00000 0.00000
vt 0.41292 0.50000 0.00000
vt 0.41292 0.25000 0.00000
vt 0.41292 0.00000 0.00000
vt 0.41292 0.75000 0.00000
vt 0.91153 0.62501 0.00000
vt 0.91153 0.37501 0.00000
vt 0.91153 0.12501 0.00000
vt 0.91153 0.87501 0.00000
vt 0.41292 1.00000 0.00000
vt 1.00000 0.00000 0.00000
# 115 texture coords

g Plane01_001
f 1/1/1 2/2/1 3/3/1 
f 4/4/1 5/5/1 6/6/1 
f 7/7/1 8/8/1 9/9/1 
f 10/10/1 11/11/1 12/12/1 
f 13/13/1 14/14/1 15/15/1 
f 16/16/1 17/17/1 18/18/1 
f 19/19/1 20/20/1 21/21/1 
f 22/22/1 23/23/1 24/24/1 
f 25/25/2 26/5/2 27/26/2 
f 26/5/2 25/25/2 28/19/2 
f 27/26/2 26/5/2 29/7/2 
f 27/26/2 29/7/2 30/27/2 
f 31/14/2 30/27/2 29/7/2 
f 32/28/2 28/19/2 25/25/2 
f 32/28/2 33/29/2 28/19/2 
f 34/30/2 33/29/2 32/28/2 
f 35/31/3 25/25/3 36/32/3 
f 25/25/3 35/31/3 32/28/3 
f 36/32/3 25/25/3 37/26/3 
f 36/32/3 37/26/3 38/33/3 
f 30/27/3 38/33/3 37/26/3 
f 39/34/3 32/28/3 35/31/3 
f 39/34/3 34/30/3 32/28/3 
f 40/35/3 34/30/3 39/34/3 
f 41/36/4 35/31/4 42/37/4 
f 35/31/4 41/36/4 39/34/4 
f 42/37/4 35/31/4 43/32/4 
f 42/37/4 43/32/4 44/38/4 
f 38/33/4 44/38/4 43/32/4 
f 45/39/4 39/34/4 41/36/4 
f 45/39/4 40/35/4 39/34/4 
f 46/40/4 40/35/4 45/39/4 
f 47/41/5 48/42/5 49/43/5 
f 50/44/5 51/45/5 41/46/5 
f 52/47/5 53/48/5 54/49/5 
f 55/50/5 56/51/5 57/52/5 
f 58/53/5 59/54/5 44/55/5 
f 60/56/5 61/57/5 62/58/5 
f 45/59/5 63/60/5 64/61/5 
f 65/62/5 66/63/5 67/64/5 
f 49/65/6 68/66/6 69/46/6 
f 69/46/6 70/59/6 49/65/6 
f 68/66/6 71/47/6 69/46/6 
f 68/66/6 72/67/6 71/47/6 
f 73/55/6 71/47/6 72/67/6 
f 62/68/6 49/65/6 70/59/6 
f 62/68/6 70/59/6 74/69/6 
f 75/70/6 62/68/6 74/69/6 
f 69/71/7 76/72/7 77/65/7 
f 77/65/7 78/68/7 69/71/7 
f 76/72/7 79/66/7 77/65/7 
f 76/72/7 73/73/7 79/66/7 
f 80/67/7 79/66/7 73/73/7 
f 70/74/7 69/71/7 78/68/7 
f 70/74/7 78/68/7 81/70/7 
f 74/75/7 70/74/7 81/70/7 
f 77/2/8 82/11/8 83/71/8 
f 83/71/8 84/74/8 77/2/8 
f 82/11/8 85/72/8 83/71/8 
f 82/11/8 80/76/8 85/72/8 
f 86/73/8 85/72/8 80/76/8 
f 78/17/8 77/2/8 84/74/8 
f 78/17/8 84/74/8 87/75/8 
f 81/23/8 78/17/8 87/75/8 
f 5/5/1 4/4/1 88/77/1 
f 88/77/1 89/78/1 8/8/1 
f 2/2/1 1/1/1 90/79/1 
f 90/79/1 91/80/1 18/18/1 
f 10/10/1 92/81/1 11/11/1 
f 89/78/1 3/3/1 92/81/1 
f 7/7/1 9/9/1 93/82/1 
f 93/82/1 94/83/1 15/15/1 
f 95/76/1 96/84/1 97/85/1 
f 97/85/1 94/83/1 12/12/1 
f 19/19/1 21/21/1 98/86/1 
f 98/86/1 91/80/1 6/6/1 
f 16/16/1 99/87/1 17/17/1 
f 100/88/1 24/24/1 99/87/1 
f 101/29/1 102/89/1 103/90/1 
f 103/90/1 100/88/1 20/20/1 
f 104/91/5 52/47/5 54/49/5 
f 50/44/5 104/91/5 105/92/5 
f 106/93/5 62/58/5 61/57/5 
f 47/41/5 106/93/5 105/92/5 
f 48/42/5 107/94/5 49/43/5 
f 108/95/5 55/50/5 107/94/5 
f 109/96/5 44/55/5 59/54/5 
f 53/48/5 109/96/5 108/95/5 
f 110/97/5 57/52/5 56/51/5 
f 111/98/5 110/97/5 112/99/5 
f 113/100/5 41/46/5 51/45/5 
f 63/60/5 113/100/5 114/101/5 
f 66/63/5 115/102/5 67/64/5 
f 114/101/5 60/56/5 115/102/5 
f 116/103/5 45/59/5 64/61/5 
f 117/104/5 116/103/5 118/105/5 
f 119/106/1 4/4/1 6/6/1 
f 119/106/1 6/6/1 91/80/1 
f 9/9/1 8/8/1 120/107/1 
f 8/8/1 89/78/1 120/107/1 
f 121/108/1 13/13/1 15/15/1 
f 121/108/1 15/15/1 94/83/1 
f 21/21/1 20/20/1 122/109/1 
f 20/20/1 100/88/1 122/109/1 
f 50/44/5 123/110/5 51/45/5 
f 105/92/5 123/110/5 50/44/5 
f 54/49/5 53/48/5 124/111/5 
f 53/48/5 108/95/5 124/111/5 
f 58/53/5 125/112/5 59/54/5 
f 112/99/5 125/112/5 58/53/5 
f 64/61/5 63/60/5 126/113/5 
f 63/60/5 114/101/5 126/113/5 
f 88/77/1 4/4/1 89/78/1 
f 4/4/1 119/106/1 89/78/1 
f 5/5/1 88/77/1 8/8/1 
f 5/5/1 8/8/1 7/7/1 
f 93/82/1 9/9/1 94/83/1 
f 9/9/1 120/107/1 94/83/1 
f 7/7/1 93/82/1 15/15/1 
f 7/7/1 15/15/1 14/14/1 
f 98/86/1 21/21/1 91/80/1 
f 21/21/1 122/109/1 91/80/1 
f 19/19/1 98/86/1 6/6/1 
f 19/19/1 6/6/1 5/5/1 
f 103/90/1 102/89/1 100/88/1 
f 102/89/1 127/114/1 100/88/1 
f 101/29/1 103/90/1 20/20/1 
f 101/29/1 20/20/1 19/19/1 
f 105/92/5 104/91/5 54/49/5 
f 105/92/5 54/49/5 124/111/5 
f 50/44/5 52/47/5 104/91/5 
f 41/46/5 52/47/5 50/44/5 
f 108/95/5 109/96/5 59/54/5 
f 108/95/5 59/54/5 125/112/5 
f 53/48/5 44/55/5 109/96/5 
f 52/47/5 44/55/5 53/48/5 
f 114/101/5 113/100/5 51/45/5 
f 114/101/5 51/45/5 123/110/5 
f 63/60/5 41/46/5 113/100/5 
f 45/59/5 41/46/5 63/60/5 
f 118/105/5 116/103/5 64/61/5 
f 118/105/5 64/61/5 126/113/5 
f 117/104/5 45/59/5 116/103/5 
f 128/69/5 45/59/5 117/104/5 
f 119/106/1 1/1/1 3/3/1 
f 119/106/1 3/3/1 89/78/1 
f 120/107/1 10/10/1 12/12/1 
f 120/107/1 12/12/1 94/83/1 
f 122/109/1 16/16/1 18/18/1 
f 122/109/1 18/18/1 91/80/1 
f 127/114/1 22/22/1 24/24/1 
f 127/114/1 24/24/1 100/88/1 
f 47/41/5 124/111/5 48/42/5 
f 105/92/5 124/111/5 47/41/5 
f 55/50/5 125/112/5 56/51/5 
f 108/95/5 125/112/5 55/50/5 
f 60/56/5 123/110/5 61/57/5 
f 114/101/5 123/110/5 60/56/5 
f 65/62/5 126/113/5 66/63/5 
f 118/105/5 126/113/5 65/62/5 
f 90/79/1 1/1/1 91/80/1 
f 1/1/1 119/106/1 91/80/1 
f 2/2/1 90/79/1 18/18/1 
f 2/2/1 18/18/1 17/17/1 
f 10/10/1 89/78/1 92/81/1 
f 120/107/1 89/78/1 10/10/1 
f 92/81/1 3/3/1 11/11/1 
f 3/3/1 2/2/1 11/11/1 
f 97/85/1 96/84/1 94/83/1 
f 96/84/1 121/108/1 94/83/1 
f 95/76/1 97/85/1 12/12/1 
f 95/76/1 12/12/1 11/11/1 
f 16/16/1 100/88/1 99/87/1 
f 122/109/1 100/88/1 16/16/1 
f 99/87/1 24/24/1 17/17/1 
f 24/24/1 23/23/1 17/17/1 
f 105/92/5 106/93/5 61/57/5 
f 105/92/5 61/57/5 123/110/5 
f 47/41/5 62/58/5 106/93/5 
f 49/43/5 62/58/5 47/41/5 
f 48/42/5 108/95/5 107/94/5 
f 124/111/5 108/95/5 48/42/5 
f 107/94/5 55/50/5 49/43/5 
f 55/50/5 57/52/5 49/43/5 
f 112/99/5 110/97/5 56/51/5 
f 112/99/5 56/51/5 125/112/5 
f 111/98/5 57/52/5 110/97/5 
f 72/115/5 57/52/5 111/98/5 
f 66/63/5 114/101/5 115/102/5 
f 126/113/5 114/101/5 66/63/5 
f 115/102/5 60/56/5 67/64/5 
f 60/56/5 62/58/5 67/64/5 
# 192 faces

