# 3ds Max Wavefront OBJ Exporter v0.97b - (c)2007 guruware
# File Created: 22.10.2015 08:39:27

#
# object Plane005
#

v  -12.00000 -0.00000 -0.00000
v  -14.00000 -0.00000 -0.00000
v  -14.00000 -0.00000 16.00000
v  -12.00000 -0.00000 16.00000
v  12.00000 -0.00000 -0.00000
v  0.00000 -0.00000 -0.00000
v  0.00000 -0.00000 16.00000
v  12.00000 -0.00000 16.00000
v  14.00000 -0.00000 -0.00000
v  14.00000 -0.00000 16.00000
v  -12.00000 0.00000 -32.00000
v  -14.00000 0.00000 -32.00000
v  -14.00000 -0.00000 -16.00000
v  -12.00000 -0.00000 -16.00000
v  -14.00000 -0.00000 32.00000
v  -12.00000 -0.00000 32.00000
v  12.00000 0.00000 -32.00000
v  0.00000 0.00000 -32.00000
v  0.00000 -0.00000 -16.00000
v  12.00000 -0.00000 -16.00000
v  0.00000 -0.00000 32.00000
v  12.00000 -0.00000 32.00000
v  14.00000 0.00000 -32.00000
v  14.00000 -0.00000 -16.00000
v  14.00000 -0.00000 32.00000
# 25 vertices

vn -0.00000 1.00000 0.00000
# 1 vertex normals

vt 0.10577 0.50000 0.00000
vt 0.04006 0.50000 0.00000
vt 0.04006 0.25000 0.00000
vt 0.10577 0.25000 0.00000
vt 0.89436 0.50000 0.00000
vt 0.50007 0.50000 0.00000
vt 0.50007 0.25000 0.00000
vt 0.89436 0.25000 0.00000
vt 0.96008 0.50000 0.00000
vt 0.96008 0.25000 0.00000
vt 0.10577 1.00000 0.00000
vt 0.04006 1.00000 0.00000
vt 0.04006 0.75000 0.00000
vt 0.10577 0.75000 0.00000
vt 0.04006 0.00000 0.00000
vt 0.10577 0.00000 0.00000
vt 0.89436 1.00000 0.00000
vt 0.50007 1.00000 0.00000
vt 0.50007 0.75000 0.00000
vt 0.89436 0.75000 0.00000
vt 0.50007 0.00000 0.00000
vt 0.89436 0.00000 0.00000
vt 0.96008 1.00000 0.00000
vt 0.96008 0.75000 0.00000
vt 0.96008 0.00000 0.00000
# 25 texture coords

g Plane005
f 1/1/1 2/2/1 3/3/1 
f 3/3/1 4/4/1 1/1/1 
f 5/5/1 6/6/1 7/7/1 
f 7/7/1 8/8/1 5/5/1 
f 9/9/1 5/5/1 8/8/1 
f 8/8/1 10/10/1 9/9/1 
f 6/6/1 1/1/1 4/4/1 
f 4/4/1 7/7/1 6/6/1 
f 11/11/1 12/12/1 13/13/1 
f 13/13/1 14/14/1 11/11/1 
f 14/14/1 13/13/1 2/2/1 
f 2/2/1 1/1/1 14/14/1 
f 15/15/1 16/16/1 4/4/1 
f 4/4/1 3/3/1 15/15/1 
f 17/17/1 18/18/1 19/19/1 
f 19/19/1 20/20/1 17/17/1 
f 20/20/1 19/19/1 6/6/1 
f 6/6/1 5/5/1 20/20/1 
f 21/21/1 22/22/1 8/8/1 
f 8/8/1 7/7/1 21/21/1 
f 23/23/1 17/17/1 20/20/1 
f 20/20/1 24/24/1 23/23/1 
f 24/24/1 20/20/1 5/5/1 
f 5/5/1 9/9/1 24/24/1 
f 22/22/1 25/25/1 10/10/1 
f 10/10/1 8/8/1 22/22/1 
f 18/18/1 11/11/1 14/14/1 
f 14/14/1 19/19/1 18/18/1 
f 19/19/1 14/14/1 1/1/1 
f 1/1/1 6/6/1 19/19/1 
f 16/16/1 21/21/1 7/7/1 
f 7/7/1 4/4/1 16/16/1 
# 32 faces

