# 3ds Max Wavefront OBJ Exporter v0.97b - (c)2007 guruware
# File Created: 10.10.2015 12:54:47

#
# object Plane01_0
#

v  4.50000 -4.49999 -0.00000
v  6.48587 -1.99978 -0.00000
v  6.48587 -1.99978 16.00000
v  4.50000 -4.49999 16.00000
v  -4.50000 -4.49999 0.00000
v  -6.48645 -2.00000 -0.00000
v  -6.48645 -2.00000 -16.00000
v  -4.50000 -4.49999 -15.99999
v  5.50400 1.50000 -0.00000
v  5.50400 1.50000 16.00000
v  -5.50440 1.50000 -0.00000
v  -5.50440 1.50000 -16.00000
v  -0.00029 -4.49999 -0.00000
v  -0.00029 -4.49999 -16.00000
v  5.25000 0.00002 -0.00000
v  5.25000 0.00002 16.00000
v  -5.25000 0.00002 -0.00000
v  -5.25000 0.00002 -16.00000
v  -4.00000 0.00002 -0.00000
v  -5.25000 0.00002 16.00000
v  -4.00000 0.00002 16.00000
v  4.50000 -4.49999 -16.00000
v  4.00000 -0.14998 -0.00000
v  -0.00029 -0.14998 -0.00000
v  -0.00029 -0.22498 16.00000
v  4.00000 -0.22498 16.00000
v  4.00000 0.00002 -0.00000
v  4.00000 0.00002 16.00000
v  -4.00000 -0.14998 -0.00000
v  -4.00000 -0.22498 16.00000
v  -4.00000 0.00002 -16.00000
v  -4.00000 -0.07498 -16.00000
v  4.50000 -4.49999 -32.00000
v  6.48587 -1.99978 -32.00000
v  6.48587 -1.99978 -16.00000
v  6.48587 -1.99978 32.00000
v  4.50000 -4.49999 32.00000
v  -4.50000 -4.49999 32.00000
v  -6.48645 -2.00000 32.00000
v  -6.48645 -2.00000 16.00000
v  -4.50000 -4.49999 16.00000
v  -6.48645 -2.00000 -32.00000
v  -4.50000 -4.49999 -31.99999
v  5.50400 1.50000 -32.00000
v  5.50400 1.50000 -16.00000
v  5.50400 1.50000 32.00000
v  -5.50440 1.50000 32.00000
v  -5.50440 1.50000 16.00000
v  -5.50440 1.50000 -32.00000
v  -0.00029 -4.49999 32.00000
v  -0.00029 -4.49999 16.00000
v  -0.00029 -4.49999 -32.00000
v  5.25000 0.00002 -32.00000
v  5.25000 0.00002 -16.00000
v  5.25000 0.00002 32.00000
v  -5.25000 0.00002 32.00000
v  -5.25000 0.00002 -32.00000
v  -4.00000 0.00002 -32.00000
v  -4.00000 0.00002 32.00000
v  4.00000 0.00002 -32.00000
v  -0.00029 0.00002 -32.00000
v  -0.00029 -0.07498 -16.00000
v  4.00000 -0.07498 -16.00000
v  -0.00029 -0.29998 32.00000
v  4.00000 -0.29998 32.00000
v  4.00000 0.00002 -16.00000
v  4.00000 0.00002 32.00000
v  -4.00000 -0.29998 32.00000
# 68 vertices

vn 0.78305 -0.62196 0.00000
vn 0.98029 -0.19755 0.00000
vn -0.78293 -0.62211 0.00000
vn -0.98028 -0.19763 -0.00000
vn -0.05286 0.99860 -0.00000
vn 0.05275 0.99861 -0.00000
vn 0.00000 -1.00000 0.00000
vn -0.98596 0.16696 -0.00000
vn 0.98592 0.16721 0.00000
vn 0.98592 0.16721 -0.00000
vn 0.00000 1.00000 -0.00000
vn -0.00000 -1.00000 0.00000
vn 0.00000 0.99999 0.00469
vn -0.00000 1.00000 -0.00000
vn 1.00000 0.00000 0.00000
vn -1.00000 0.00000 -0.00000
vn -0.98028 -0.19763 0.00000
vn 1.00000 0.00000 -0.00000
# 18 vertex normals

vt 0.83887 0.50000 0.00000
vt 0.78471 0.50000 0.00000
vt 0.78471 0.75000 0.00000
vt 0.83887 0.75000 0.00000
vt 0.78471 0.25000 0.00000
vt 0.83887 0.25000 0.00000
vt 0.72459 0.50000 0.00000
vt 0.65703 0.50001 0.00000
vt 0.65703 0.75000 0.00000
vt 0.72459 0.75000 0.00000
vt 0.65703 0.25001 0.00000
vt 0.72459 0.25000 0.00000
vt 0.88053 0.50000 0.00000
vt 0.79770 0.50000 0.00000
vt 0.79770 0.75000 0.00000
vt 0.88053 0.75000 0.00000
vt 0.64480 0.50000 0.00000
vt 0.66984 0.50000 0.00000
vt 0.66984 0.75000 0.00000
vt 0.64480 0.75000 0.00000
vt 0.66984 0.25000 0.00000
vt 0.64480 0.25000 0.00000
vt 0.16697 0.50000 0.00000
vt 0.14470 0.50000 0.00000
vt 0.14470 0.25000 0.00000
vt 0.16697 0.25000 0.00000
vt 0.96337 0.50000 0.00000
vt 0.96337 0.75000 0.00000
vt 0.30947 0.50000 0.00000
vt 0.23821 0.50000 0.00000
vt 0.23821 0.25000 0.00000
vt 0.30947 0.25000 0.00000
vt 0.33173 0.50000 0.00000
vt 0.33173 0.25000 0.00000
vt 0.16697 0.75000 0.00000
vt 0.83887 0.00000 0.00000
vt 0.78471 0.00000 0.00000
vt 0.78471 1.00000 0.00000
vt 0.83887 1.00000 0.00000
vt 0.72459 0.00000 0.00000
vt 0.65704 0.00002 0.00000
vt 0.65703 1.00000 0.00000
vt 0.72459 1.00000 0.00000
vt 0.88053 0.00000 0.00000
vt 0.79770 0.00000 0.00000
vt 0.79770 0.25000 0.00000
vt 0.88053 0.25000 0.00000
vt 0.79770 1.00000 0.00000
vt 0.88053 1.00000 0.00000
vt 0.64480 0.00000 0.00000
vt 0.66984 0.00000 0.00000
vt 0.66984 1.00000 0.00000
vt 0.64480 1.00000 0.00000
vt 0.16697 1.00000 0.00000
vt 0.14470 1.00000 0.00000
vt 0.14470 0.75000 0.00000
vt 0.14470 0.00000 0.00000
vt 0.16697 0.00000 0.00000
vt 0.96337 0.00000 0.00000
vt 0.96337 0.25000 0.00000
vt 0.96337 1.00000 0.00000
vt 0.30947 1.00000 0.00000
vt 0.23821 1.00000 0.00000
vt 0.23821 0.75000 0.00000
vt 0.30947 0.75000 0.00000
vt 0.23821 0.00000 0.00000
vt 0.30947 0.00000 0.00000
vt 0.33173 1.00000 0.00000
vt 0.33173 0.75000 0.00000
vt 0.33173 0.00000 0.00000
# 70 texture coords

g Plane01_0
f 1/1/1 2/2/2 3/3/2 
f 3/3/2 4/4/1 1/1/1 
f 5/1/3 6/2/4 7/5/4 
f 7/5/4 8/6/3 5/1/3 
f 2/7/2 9/8/5 10/9/5 
f 10/9/5 3/10/2 2/7/2 
f 6/7/4 11/8/6 12/11/6 
f 12/11/6 7/12/4 6/7/4 
f 13/13/7 5/14/7 8/15/7 
f 8/15/7 14/16/7 13/13/7 
f 9/17/5 15/18/8 16/19/8 
f 16/19/8 10/20/5 9/17/5 
f 11/17/6 17/18/9 18/21/10 
f 18/21/10 12/22/6 11/17/6 
f 19/23/11 17/24/11 20/25/11 
f 20/25/11 21/26/11 19/23/11 
f 1/27/12 13/13/7 14/16/7 
f 14/16/7 22/28/7 1/27/12 
f 23/29/13 24/30/13 25/31/13 
f 25/31/13 26/32/13 23/29/13 
f 15/33/14 27/29/14 28/32/14 
f 28/32/14 16/34/14 15/33/14 
f 24/30/13 29/23/13 30/26/13 
f 30/26/13 25/31/13 24/30/13 
f 31/35/15 19/23/15 29/23/15 
f 29/23/15 32/35/15 31/35/15 
f 27/29/16 23/29/16 26/32/16 
f 26/32/16 28/32/16 27/29/16 
f 33/36/1 34/37/2 35/5/2 
f 35/5/2 22/6/1 33/36/1 
f 22/6/1 35/5/2 2/2/2 
f 2/2/2 1/1/1 22/6/1 
f 36/38/2 37/39/1 4/4/1 
f 4/4/1 3/3/2 36/38/2 
f 38/39/3 39/38/17 40/3/4 
f 40/3/4 41/4/3 38/39/3 
f 41/4/3 40/3/4 6/2/4 
f 6/2/4 5/1/3 41/4/3 
f 42/37/17 43/36/3 8/6/3 
f 8/6/3 7/5/4 42/37/17 
f 34/40/2 44/41/5 45/11/5 
f 45/11/5 35/12/2 34/40/2 
f 35/12/2 45/11/5 9/8/5 
f 9/8/5 2/7/2 35/12/2 
f 46/42/5 36/43/2 3/10/2 
f 3/10/2 10/9/5 46/42/5 
f 39/43/17 47/42/6 48/9/6 
f 48/9/6 40/10/4 39/43/17 
f 40/10/4 48/9/6 11/8/6 
f 11/8/6 6/7/4 40/10/4 
f 49/41/6 42/40/17 7/12/4 
f 7/12/4 12/11/6 49/41/6 
f 50/44/7 38/45/7 41/46/7 
f 41/46/7 51/47/7 50/44/7 
f 51/47/7 41/46/7 5/14/7 
f 5/14/7 13/13/7 51/47/7 
f 43/48/7 52/49/7 14/16/7 
f 14/16/7 8/15/7 43/48/7 
f 44/50/5 53/51/8 54/21/8 
f 54/21/8 45/22/5 44/50/5 
f 45/22/5 54/21/8 15/18/8 
f 15/18/8 9/17/5 45/22/5 
f 55/52/8 46/53/5 10/20/5 
f 10/20/5 16/19/8 55/52/8 
f 47/53/6 56/52/10 20/19/9 
f 20/19/9 48/20/6 47/53/6 
f 48/20/6 20/19/9 17/18/9 
f 17/18/9 11/17/6 48/20/6 
f 57/51/10 49/50/6 12/22/6 
f 12/22/6 18/21/10 57/51/10 
f 58/54/11 57/55/11 18/56/11 
f 18/56/11 31/35/11 58/54/11 
f 31/35/11 18/56/11 17/24/11 
f 17/24/11 19/23/11 31/35/11 
f 56/57/11 59/58/11 21/26/11 
f 21/26/11 20/25/11 56/57/11 
f 37/59/12 50/44/7 51/47/7 
f 51/47/7 4/60/12 37/59/12 
f 4/60/12 51/47/7 13/13/7 
f 13/13/7 1/27/12 4/60/12 
f 52/49/7 33/61/7 22/28/7 
f 22/28/7 14/16/7 52/49/7 
f 60/62/13 61/63/13 62/64/13 
f 62/64/13 63/65/13 60/62/13 
f 63/65/13 62/64/13 24/30/13 
f 24/30/13 23/29/13 63/65/13 
f 64/66/13 65/67/13 26/32/13 
f 26/32/13 25/31/13 64/66/13 
f 53/68/14 60/62/14 66/65/14 
f 66/65/14 54/69/14 53/68/14 
f 54/69/14 66/65/14 27/29/14 
f 27/29/14 15/33/14 54/69/14 
f 67/67/14 55/70/14 16/34/14 
f 16/34/14 28/32/14 67/67/14 
f 61/63/13 58/54/13 32/35/13 
f 32/35/13 62/64/13 61/63/13 
f 62/64/13 32/35/13 29/23/13 
f 29/23/13 24/30/13 62/64/13 
f 68/58/13 64/66/13 25/31/13 
f 25/31/13 30/26/13 68/58/13 
f 59/58/18 68/58/18 30/26/18 
f 30/26/18 21/26/18 59/58/18 
f 21/26/18 30/26/18 29/23/18 
f 29/23/18 19/23/18 21/26/18 
f 32/35/18 58/54/18 31/35/18 
f 66/65/16 60/62/16 63/65/16 
f 66/65/16 63/65/16 23/29/16 
f 23/29/16 27/29/16 66/65/16 
f 65/67/16 67/67/16 28/32/16 
f 28/32/16 26/32/16 65/67/16 
# 110 faces

