# 3ds Max Wavefront OBJ Exporter v0.97b - (c)2007 guruware
# File Created: 10.10.2015 12:48:03

#
# object Plane01_0
#

v  6.48587 -1.99978 -0.00000
v  4.50000 -4.49999 -0.00000
v  4.50000 -4.49999 -16.00000
v  6.48587 -1.99978 -16.00000
v  -6.48645 -2.00000 -0.00000
v  -4.50000 -4.49999 0.00000
v  -4.50000 -4.49999 16.00000
v  -6.48645 -2.00000 16.00000
v  5.50400 1.50000 -0.00000
v  5.50400 1.50000 -16.00000
v  -5.50440 1.50000 -0.00000
v  -5.50440 1.50000 16.00000
v  -0.00029 -4.49999 0.00000
v  -0.00029 -4.49999 16.00000
v  5.25000 0.00002 -0.00000
v  5.25000 0.00002 -16.00000
v  -5.25000 0.00002 -0.00000
v  -5.25000 0.00002 16.00000
v  4.00000 0.00002 -0.00000
v  4.00000 0.00002 -16.00000
v  -4.00000 0.00002 -0.00000
v  -0.00029 0.00002 -0.00000
v  -0.00029 0.00002 -16.00000
v  -4.00000 0.00002 -16.00000
v  -5.25000 0.00002 -16.00000
v  6.48587 -1.99978 32.00000
v  4.50000 -4.49999 32.00000
v  4.50000 -4.49999 16.00000
v  6.48587 -1.99978 16.00000
v  4.50000 -4.49999 -32.00000
v  6.48587 -1.99978 -32.00000
v  -6.48645 -2.00000 -32.00000
v  -4.50000 -4.49999 -31.99999
v  -4.50000 -4.49999 -15.99999
v  -6.48645 -2.00000 -16.00000
v  -4.50000 -4.49999 32.00000
v  -6.48645 -2.00000 32.00000
v  5.50400 1.50000 32.00000
v  5.50400 1.50000 16.00000
v  5.50400 1.50000 -32.00000
v  -5.50440 1.50000 -32.00000
v  -5.50440 1.50000 -16.00000
v  -5.50440 1.50000 32.00000
v  -0.00029 -4.49999 -32.00000
v  -0.00029 -4.49999 -16.00000
v  -0.00029 -4.49999 32.00000
v  5.25000 0.00002 32.00000
v  5.25000 0.00002 16.00000
v  5.25000 0.00002 -32.00000
v  -5.25000 0.00002 -32.00000
v  -5.25000 0.00002 32.00000
v  4.00000 0.00002 32.00000
v  4.00000 0.00002 16.00000
v  4.00000 0.00002 -32.00000
v  -4.00000 0.00002 32.00000
v  -0.00029 0.00002 32.00000
v  -0.00029 0.00002 16.00000
v  -4.00000 0.00002 16.00000
v  -0.00029 0.00002 -32.00000
v  -4.00000 0.00002 -32.00000
# 60 vertices

vn 0.98029 -0.19755 0.00000
vn 0.78305 -0.62196 0.00000
vn -0.98028 -0.19763 -0.00000
vn -0.78293 -0.62211 0.00000
vn -0.05286 0.99860 -0.00000
vn 0.05275 0.99861 -0.00000
vn 0.00000 -1.00000 0.00000
vn -0.98596 0.16696 -0.00000
vn 0.98592 0.16721 0.00000
vn 0.00000 1.00000 -0.00000
vn -0.98028 -0.19763 0.00000
vn 0.98592 0.16721 -0.00000
# 12 vertex normals

vt 0.78471 0.50000 0.00000
vt 0.83887 0.50000 0.00000
vt 0.83887 0.25000 0.00000
vt 0.78471 0.25000 0.00000
vt 0.83887 0.75000 0.00000
vt 0.78471 0.75000 0.00000
vt 0.65703 0.50001 0.00000
vt 0.72459 0.50000 0.00000
vt 0.72459 0.25000 0.00000
vt 0.65703 0.25001 0.00000
vt 0.72459 0.75000 0.00000
vt 0.65703 0.75000 0.00000
vt 0.79770 0.50000 0.00000
vt 0.88053 0.50000 0.00000
vt 0.88053 0.25000 0.00000
vt 0.79770 0.25000 0.00000
vt 0.66984 0.50000 0.00000
vt 0.64480 0.50000 0.00000
vt 0.64480 0.25000 0.00000
vt 0.66984 0.25000 0.00000
vt 0.64480 0.75000 0.00000
vt 0.66984 0.75000 0.00000
vt 0.30947 0.50000 0.00000
vt 0.33173 0.50000 0.00000
vt 0.33173 0.75000 0.00000
vt 0.30947 0.75000 0.00000
vt 0.16697 0.50000 0.00000
vt 0.23821 0.50000 0.00000
vt 0.23821 0.75000 0.00000
vt 0.16697 0.75000 0.00000
vt 0.14470 0.50000 0.00000
vt 0.14470 0.75000 0.00000
vt 0.78471 1.00000 0.00000
vt 0.83887 1.00000 0.00000
vt 0.83887 0.00000 0.00000
vt 0.78471 0.00000 0.00000
vt 0.65703 1.00000 0.00000
vt 0.72459 1.00000 0.00000
vt 0.72459 0.00000 0.00000
vt 0.65704 0.00002 0.00000
vt 0.79770 1.00000 0.00000
vt 0.88053 1.00000 0.00000
vt 0.88053 0.75000 0.00000
vt 0.79770 0.75000 0.00000
vt 0.96337 0.00000 0.00000
vt 0.88053 0.00000 0.00000
vt 0.96337 0.25000 0.00000
vt 0.66984 1.00000 0.00000
vt 0.64480 1.00000 0.00000
vt 0.64480 0.00000 0.00000
vt 0.66984 0.00000 0.00000
vt 0.30947 0.00000 0.00000
vt 0.33173 0.00000 0.00000
vt 0.33173 0.25000 0.00000
vt 0.30947 0.25000 0.00000
vt 0.33173 1.00000 0.00000
vt 0.30947 1.00000 0.00000
vt 0.16697 0.00000 0.00000
vt 0.23821 0.00000 0.00000
vt 0.23821 0.25000 0.00000
vt 0.16697 0.25000 0.00000
vt 0.23821 1.00000 0.00000
vt 0.14470 0.00000 0.00000
vt 0.14470 0.25000 0.00000
vt 0.16697 1.00000 0.00000
vt 0.14470 1.00000 0.00000
vt 0.96337 0.50000 0.00000
vt 0.96337 1.00000 0.00000
vt 0.96337 0.75000 0.00000
vt 0.79770 0.00000 0.00000
# 70 texture coords

g Plane01_0
f 1/1/1 2/2/2 3/3/2 
f 3/3/2 4/4/1 1/1/1 
f 5/1/3 6/2/4 7/5/4 
f 7/5/4 8/6/3 5/1/3 
f 9/7/5 1/8/1 4/9/1 
f 4/9/1 10/10/5 9/7/5 
f 11/7/6 5/8/3 8/11/3 
f 8/11/3 12/12/6 11/7/6 
f 6/13/7 13/14/7 14/15/7 
f 14/15/7 7/16/7 6/13/7 
f 15/17/8 9/18/5 10/19/5 
f 10/19/5 16/20/8 15/17/8 
f 17/17/9 11/18/6 12/21/6 
f 12/21/6 18/22/9 17/17/9 
f 19/23/10 15/24/10 16/25/10 
f 16/25/10 20/26/10 19/23/10 
f 21/27/10 22/28/10 23/29/10 
f 23/29/10 24/30/10 21/27/10 
f 17/31/10 21/27/10 24/30/10 
f 24/30/10 25/32/10 17/31/10 
f 26/33/1 27/34/2 28/5/2 
f 28/5/2 29/6/1 26/33/1 
f 29/6/1 28/5/2 2/2/2 
f 2/2/2 1/1/1 29/6/1 
f 30/35/2 31/36/1 4/4/1 
f 4/4/1 3/3/2 30/35/2 
f 32/36/11 33/35/4 34/3/4 
f 34/3/4 35/4/3 32/36/11 
f 35/4/3 34/3/4 6/2/4 
f 6/2/4 5/1/3 35/4/3 
f 36/34/4 37/33/11 8/6/3 
f 8/6/3 7/5/4 36/34/4 
f 38/37/5 26/38/1 29/11/1 
f 29/11/1 39/12/5 38/37/5 
f 39/12/5 29/11/1 1/8/1 
f 1/8/1 9/7/5 39/12/5 
f 31/39/1 40/40/5 10/10/5 
f 10/10/5 4/9/1 31/39/1 
f 41/40/6 32/39/11 35/9/3 
f 35/9/3 42/10/6 41/40/6 
f 42/10/6 35/9/3 5/8/3 
f 5/8/3 11/7/6 42/10/6 
f 37/38/11 43/37/6 12/12/6 
f 12/12/6 8/11/3 37/38/11 
f 33/41/7 44/42/7 45/43/7 
f 45/43/7 34/44/7 33/41/7 
f 34/44/7 45/43/7 13/14/7 
f 13/14/7 6/13/7 34/44/7 
f 27/45/7 46/46/7 14/15/7 
f 14/15/7 28/47/7 27/45/7 
f 47/48/8 38/49/5 39/21/5 
f 39/21/5 48/22/8 47/48/8 
f 48/22/8 39/21/5 9/18/5 
f 9/18/5 15/17/8 48/22/8 
f 40/50/5 49/51/8 16/20/8 
f 16/20/8 10/19/5 40/50/5 
f 50/51/12 41/50/6 42/19/6 
f 42/19/6 25/20/12 50/51/12 
f 25/20/12 42/19/6 11/18/6 
f 11/18/6 17/17/9 25/20/12 
f 43/49/6 51/48/12 18/22/9 
f 18/22/9 12/21/6 43/49/6 
f 52/52/10 47/53/10 48/54/10 
f 48/54/10 53/55/10 52/52/10 
f 53/55/10 48/54/10 15/24/10 
f 15/24/10 19/23/10 53/55/10 
f 49/56/10 54/57/10 20/26/10 
f 20/26/10 16/25/10 49/56/10 
f 55/58/10 56/59/10 57/60/10 
f 57/60/10 58/61/10 55/58/10 
f 58/61/10 57/60/10 22/28/10 
f 22/28/10 21/27/10 58/61/10 
f 54/57/10 59/62/10 23/29/10 
f 23/29/10 20/26/10 54/57/10 
f 51/63/10 55/58/10 58/61/10 
f 58/61/10 18/64/10 51/63/10 
f 18/64/10 58/61/10 21/27/10 
f 21/27/10 17/31/10 18/64/10 
f 60/65/10 50/66/10 25/32/10 
f 25/32/10 24/30/10 60/65/10 
f 2/67/7 28/47/7 14/15/7 
f 14/15/7 13/14/7 2/67/7 
f 19/23/10 20/26/10 23/29/10 
f 23/29/10 22/28/10 19/23/10 
f 30/68/7 3/69/7 45/43/7 
f 45/43/7 44/42/7 30/68/7 
f 3/69/7 2/67/7 13/14/7 
f 13/14/7 45/43/7 3/69/7 
f 36/70/7 7/16/7 14/15/7 
f 14/15/7 46/46/7 36/70/7 
f 52/52/10 53/55/10 57/60/10 
f 57/60/10 56/59/10 52/52/10 
f 53/55/10 19/23/10 22/28/10 
f 22/28/10 57/60/10 53/55/10 
f 60/65/10 24/30/10 23/29/10 
f 23/29/10 59/62/10 60/65/10 
# 96 faces

