# 3ds Max Wavefront OBJ Exporter v0.97b - (c)2007 guruware
# File Created: 08.02.2018 01:49:22

#
# object MedCon_OnePlusOne_Start
#

v  0.7554 -0.2950 -16.0000
v  2.0938 -0.2950 -16.0000
v  1.8565 -0.2950 -32.0000
v  1.5203 -0.2950 -32.0000
v  -0.9308 -0.2950 -0.0000
v  2.6161 -0.2950 -0.0000
v  3.1397 -0.2950 16.0000
v  -2.6165 -0.2950 16.0000
v  3.3800 -0.2950 32.0000
v  -3.3800 -0.2950 32.0000
v  -5.5599 -0.2950 15.3812
v  -6.2852 -0.2950 32.0000
v  -6.1052 -0.2950 32.0000
v  -5.3796 -0.2950 15.3812
v  -3.9999 -0.2950 -0.5338
v  -3.8195 -0.2950 -0.5332
v  -2.2728 -0.2950 -16.1271
v  -2.4528 -0.2950 -16.1271
v  -1.5672 -0.2950 -32.0000
v  -1.7472 -0.2950 -32.0000
# 20 vertices

vn 0.0000 1.0000 -0.0000
# 1 vertex normals

vt 0.8429 0.7489 0.0000
vt 0.7752 0.7489 0.0000
vt 0.7983 0.9979 0.0000
vt 0.8177 0.9977 0.0000
vt 0.8666 0.5000 0.0000
vt 0.7520 0.5000 0.0000
vt 0.7289 0.2511 0.0000
vt 0.8903 0.2511 0.0000
vt 0.7058 0.0021 0.0000
vt 0.9140 0.0023 0.0000
vt 0.1590 0.2500 0.0000
vt 0.1590 0.0000 0.0000
vt 0.1635 0.0000 0.0000
vt 0.1635 0.2500 0.0000
vt 0.1590 0.5000 0.0000
vt 0.1635 0.5000 0.0000
vt 0.1635 0.7500 0.0000
vt 0.1590 0.7500 0.0000
vt 0.1635 1.0000 0.0000
vt 0.1590 1.0000 0.0000
# 20 texture coords

g MedCon_OnePlusOne_Start
s 1
f 1/1/1 2/2/1 3/3/1 4/4/1 
f 5/5/1 6/6/1 2/2/1 1/1/1 
f 7/7/1 6/6/1 5/5/1 8/8/1 
f 9/9/1 7/7/1 8/8/1 10/10/1 
f 11/11/1 12/12/1 13/13/1 14/14/1 
f 15/15/1 11/11/1 14/14/1 16/16/1 
f 17/17/1 18/18/1 15/15/1 16/16/1 
f 19/19/1 20/20/1 18/18/1 17/17/1 
# 8 polygons

