# 3ds Max Wavefront OBJ Exporter v0.97b - (c)2007 guruware
# File Created: 09.10.2015 12:53:52

#
# object Plane005
#

v  -11.00000 -3.16500 -0.00000
v  -8.00000 -0.00000 -0.00000
v  -8.00000 -0.00000 -5.33333
v  -11.00000 -3.16500 -5.33333
v  11.00000 -3.16500 -0.00000
v  8.00000 -0.00000 -0.00000
v  8.00000 -0.00000 5.33333
v  11.00000 -3.16500 5.33333
v  6.00000 -0.00000 -0.00000
v  6.00000 -0.00000 5.33333
v  -6.00000 -0.00000 -0.00000
v  0.00000 -0.00000 -0.00000
v  0.00000 -0.00000 -5.33333
v  -6.00000 -0.00000 -5.33333
v  6.00000 -0.00000 -5.33333
v  -11.00000 -3.16500 32.00000
v  -8.00000 -0.00000 32.00000
v  -8.00000 -0.00000 26.66667
v  -11.00000 -3.16500 26.66667
v  -8.00000 -0.00000 21.33333
v  -11.00000 -3.16500 21.33333
v  -8.00000 -0.00000 16.00000
v  -11.00000 -3.16500 16.00000
v  -8.00000 -0.00000 10.66667
v  -11.00000 -3.16500 10.66667
v  -8.00000 -0.00000 5.33333
v  -11.00000 -3.16500 5.33333
v  -8.00000 0.00000 -32.00000
v  -11.00000 -3.16500 -32.00000
v  -11.00000 -3.16500 -26.66667
v  -8.00000 -0.00000 -26.66667
v  -11.00000 -3.16500 -21.33333
v  -8.00000 -0.00000 -21.33333
v  -11.00000 -3.16500 -16.00000
v  -8.00000 -0.00000 -16.00000
v  -11.00000 -3.16500 -10.66667
v  -8.00000 -0.00000 -10.66667
v  11.00000 -3.16500 -32.00000
v  8.00000 0.00000 -32.00000
v  8.00000 -0.00000 -26.66667
v  11.00000 -3.16500 -26.66667
v  8.00000 -0.00000 -21.33333
v  11.00000 -3.16500 -21.33333
v  8.00000 -0.00000 -16.00000
v  11.00000 -3.16500 -16.00000
v  8.00000 -0.00000 -10.66667
v  11.00000 -3.16500 -10.66667
v  8.00000 -0.00000 -5.33333
v  11.00000 -3.16500 -5.33333
v  8.00000 -0.00000 32.00000
v  11.00000 -3.16500 32.00000
v  11.00000 -3.16500 26.66667
v  8.00000 -0.00000 26.66667
v  11.00000 -3.16500 21.33333
v  8.00000 -0.00000 21.33333
v  11.00000 -3.16500 16.00000
v  8.00000 -0.00000 16.00000
v  11.00000 -3.16500 10.66667
v  8.00000 -0.00000 10.66667
v  6.00000 0.00000 -32.00000
v  6.00000 -0.00000 -26.66667
v  6.00000 -0.00000 -21.33333
v  6.00000 -0.00000 -16.00000
v  6.00000 -0.00000 -10.66667
v  6.00000 -0.00000 32.00000
v  6.00000 -0.00000 26.66667
v  6.00000 -0.00000 21.33333
v  6.00000 -0.00000 16.00000
v  6.00000 -0.00000 10.66667
v  -6.00000 -0.00000 32.00000
v  0.00000 -0.00000 32.00000
v  0.00000 -0.00000 26.66667
v  -6.00000 -0.00000 26.66667
v  0.00000 -0.00000 21.33333
v  -6.00000 -0.00000 21.33333
v  0.00000 -0.00000 16.00000
v  -6.00000 -0.00000 16.00000
v  0.00000 -0.00000 10.66667
v  -6.00000 -0.00000 10.66667
v  0.00000 -0.00000 5.33333
v  -6.00000 -0.00000 5.33333
v  0.00000 0.00000 -32.00000
v  -6.00000 0.00000 -32.00000
v  -6.00000 -0.00000 -26.66667
v  0.00000 -0.00000 -26.66667
v  -6.00000 -0.00000 -21.33333
v  0.00000 -0.00000 -21.33333
v  -6.00000 -0.00000 -16.00000
v  0.00000 -0.00000 -16.00000
v  -6.00000 -0.00000 -10.66667
v  0.00000 -0.00000 -10.66667
# 91 vertices

vn -0.72577 0.68794 0.00000
vn -0.39501 0.91868 0.00000
vn 0.72577 0.68794 0.00000
vn 0.39501 0.91868 0.00000
vn -0.00000 1.00000 0.00000
# 5 vertex normals

vt 0.01750 0.50000 0.00000
vt 0.01750 0.58333 0.00000
vt 0.03590 0.50000 0.00000
vt 0.03590 0.41667 0.00000
vt 0.37780 0.50000 0.00000
vt 0.34289 0.50000 0.00000
vt 0.34289 0.41667 0.00000
vt 0.37780 0.41667 0.00000
vt 0.13343 0.50000 0.00000
vt 0.23816 0.50000 0.00000
vt 0.23816 0.58333 0.00000
vt 0.13343 0.58333 0.00000
vt 0.34289 0.58333 0.00000
vt 0.09852 0.50000 0.00000
vt 0.09852 0.58333 0.00000
vt 0.01750 0.00000 0.00000
vt 0.01750 0.08333 0.00000
vt 0.01750 0.16667 0.00000
vt 0.01750 0.25000 0.00000
vt 0.01750 0.33333 0.00000
vt 0.01750 0.41667 0.00000
vt 0.01750 1.00000 0.00000
vt 0.01750 0.91667 0.00000
vt 0.01750 0.83333 0.00000
vt 0.01750 0.75000 0.00000
vt 0.01750 0.66667 0.00000
vt 0.03590 1.00000 0.00000
vt 0.03590 0.91667 0.00000
vt 0.03590 0.83333 0.00000
vt 0.03590 0.75000 0.00000
vt 0.03590 0.66667 0.00000
vt 0.03590 0.58333 0.00000
vt 0.03590 0.00000 0.00000
vt 0.03590 0.08333 0.00000
vt 0.03590 0.16667 0.00000
vt 0.03590 0.25000 0.00000
vt 0.03590 0.33333 0.00000
vt 0.37780 1.00000 0.00000
vt 0.34289 1.00000 0.00000
vt 0.34289 0.91667 0.00000
vt 0.37780 0.91667 0.00000
vt 0.34289 0.83333 0.00000
vt 0.37780 0.83333 0.00000
vt 0.34289 0.75000 0.00000
vt 0.37780 0.75000 0.00000
vt 0.34289 0.66667 0.00000
vt 0.37780 0.66667 0.00000
vt 0.37780 0.58333 0.00000
vt 0.34289 0.00000 0.00000
vt 0.37780 0.00000 0.00000
vt 0.37780 0.08333 0.00000
vt 0.34289 0.08333 0.00000
vt 0.37780 0.16667 0.00000
vt 0.34289 0.16667 0.00000
vt 0.37780 0.25000 0.00000
vt 0.34289 0.25000 0.00000
vt 0.37780 0.33333 0.00000
vt 0.34289 0.33333 0.00000
vt 0.13343 0.00000 0.00000
vt 0.23816 0.00000 0.00000
vt 0.23816 0.08333 0.00000
vt 0.13343 0.08333 0.00000
vt 0.23816 0.16667 0.00000
vt 0.13343 0.16667 0.00000
vt 0.23816 0.25000 0.00000
vt 0.13343 0.25000 0.00000
vt 0.23816 0.33333 0.00000
vt 0.13343 0.33333 0.00000
vt 0.23816 0.41667 0.00000
vt 0.13343 0.41667 0.00000
vt 0.23816 1.00000 0.00000
vt 0.13343 1.00000 0.00000
vt 0.13343 0.91667 0.00000
vt 0.23816 0.91667 0.00000
vt 0.13343 0.83333 0.00000
vt 0.23816 0.83333 0.00000
vt 0.13343 0.75000 0.00000
vt 0.23816 0.75000 0.00000
vt 0.13343 0.66667 0.00000
vt 0.23816 0.66667 0.00000
vt 0.09852 0.00000 0.00000
vt 0.09852 0.08333 0.00000
vt 0.09852 0.16667 0.00000
vt 0.09852 0.25000 0.00000
vt 0.09852 0.33333 0.00000
vt 0.09852 0.41667 0.00000
vt 0.09852 1.00000 0.00000
vt 0.09852 0.91667 0.00000
vt 0.09852 0.83333 0.00000
vt 0.09852 0.75000 0.00000
vt 0.09852 0.66667 0.00000
# 91 texture coords

g Plane005
f 1/1/1 2/1/2 3/2/2 
f 3/2/2 4/2/1 1/1/1 
f 5/3/3 6/3/4 7/4/4 
f 7/4/4 8/4/3 5/3/3 
f 6/5/4 9/6/5 10/7/5 
f 10/7/5 7/8/4 6/5/4 
f 11/9/5 12/10/5 13/11/5 
f 13/11/5 14/12/5 11/9/5 
f 12/10/5 9/6/5 15/13/5 
f 15/13/5 13/11/5 12/10/5 
f 2/14/2 11/9/5 14/12/5 
f 14/12/5 3/15/2 2/14/2 
f 16/16/1 17/16/2 18/17/2 
f 18/17/2 19/17/1 16/16/1 
f 19/17/1 18/17/2 20/18/2 
f 20/18/2 21/18/1 19/17/1 
f 21/18/1 20/18/2 22/19/2 
f 22/19/2 23/19/1 21/18/1 
f 23/19/1 22/19/2 24/20/2 
f 24/20/2 25/20/1 23/19/1 
f 25/20/1 24/20/2 26/21/2 
f 26/21/2 27/21/1 25/20/1 
f 27/21/1 26/21/2 2/1/2 
f 2/1/2 1/1/1 27/21/1 
f 28/22/2 29/22/1 30/23/1 
f 30/23/1 31/23/2 28/22/2 
f 31/23/2 30/23/1 32/24/1 
f 32/24/1 33/24/2 31/23/2 
f 33/24/2 32/24/1 34/25/1 
f 34/25/1 35/25/2 33/24/2 
f 35/25/2 34/25/1 36/26/1 
f 36/26/1 37/26/2 35/25/2 
f 37/26/2 36/26/1 4/2/1 
f 4/2/1 3/2/2 37/26/2 
f 38/27/3 39/27/4 40/28/4 
f 40/28/4 41/28/3 38/27/3 
f 41/28/3 40/28/4 42/29/4 
f 42/29/4 43/29/3 41/28/3 
f 43/29/3 42/29/4 44/30/4 
f 44/30/4 45/30/3 43/29/3 
f 45/30/3 44/30/4 46/31/4 
f 46/31/4 47/31/3 45/30/3 
f 47/31/3 46/31/4 48/32/4 
f 48/32/4 49/32/3 47/31/3 
f 49/32/3 48/32/4 6/3/4 
f 6/3/4 5/3/3 49/32/3 
f 50/33/4 51/33/3 52/34/3 
f 52/34/3 53/34/4 50/33/4 
f 53/34/4 52/34/3 54/35/3 
f 54/35/3 55/35/4 53/34/4 
f 55/35/4 54/35/3 56/36/3 
f 56/36/3 57/36/4 55/35/4 
f 57/36/4 56/36/3 58/37/3 
f 58/37/3 59/37/4 57/36/4 
f 59/37/4 58/37/3 8/4/3 
f 8/4/3 7/4/4 59/37/4 
f 39/38/4 60/39/5 61/40/5 
f 61/40/5 40/41/4 39/38/4 
f 40/41/4 61/40/5 62/42/5 
f 62/42/5 42/43/4 40/41/4 
f 42/43/4 62/42/5 63/44/5 
f 63/44/5 44/45/4 42/43/4 
f 44/45/4 63/44/5 64/46/5 
f 64/46/5 46/47/4 44/45/4 
f 46/47/4 64/46/5 15/13/5 
f 15/13/5 48/48/4 46/47/4 
f 48/48/4 15/13/5 9/6/5 
f 9/6/5 6/5/4 48/48/4 
f 65/49/5 50/50/4 53/51/4 
f 53/51/4 66/52/5 65/49/5 
f 66/52/5 53/51/4 55/53/4 
f 55/53/4 67/54/5 66/52/5 
f 67/54/5 55/53/4 57/55/4 
f 57/55/4 68/56/5 67/54/5 
f 68/56/5 57/55/4 59/57/4 
f 59/57/4 69/58/5 68/56/5 
f 69/58/5 59/57/4 7/8/4 
f 7/8/4 10/7/5 69/58/5 
f 70/59/5 71/60/5 72/61/5 
f 72/61/5 73/62/5 70/59/5 
f 73/62/5 72/61/5 74/63/5 
f 74/63/5 75/64/5 73/62/5 
f 75/64/5 74/63/5 76/65/5 
f 76/65/5 77/66/5 75/64/5 
f 77/66/5 76/65/5 78/67/5 
f 78/67/5 79/68/5 77/66/5 
f 79/68/5 78/67/5 80/69/5 
f 80/69/5 81/70/5 79/68/5 
f 81/70/5 80/69/5 12/10/5 
f 12/10/5 11/9/5 81/70/5 
f 82/71/5 83/72/5 84/73/5 
f 84/73/5 85/74/5 82/71/5 
f 85/74/5 84/73/5 86/75/5 
f 86/75/5 87/76/5 85/74/5 
f 87/76/5 86/75/5 88/77/5 
f 88/77/5 89/78/5 87/76/5 
f 89/78/5 88/77/5 90/79/5 
f 90/79/5 91/80/5 89/78/5 
f 91/80/5 90/79/5 14/12/5 
f 14/12/5 13/11/5 91/80/5 
f 71/60/5 65/49/5 66/52/5 
f 66/52/5 72/61/5 71/60/5 
f 72/61/5 66/52/5 67/54/5 
f 67/54/5 74/63/5 72/61/5 
f 74/63/5 67/54/5 68/56/5 
f 68/56/5 76/65/5 74/63/5 
f 76/65/5 68/56/5 69/58/5 
f 69/58/5 78/67/5 76/65/5 
f 78/67/5 69/58/5 10/7/5 
f 10/7/5 80/69/5 78/67/5 
f 80/69/5 10/7/5 9/6/5 
f 9/6/5 12/10/5 80/69/5 
f 60/39/5 82/71/5 85/74/5 
f 85/74/5 61/40/5 60/39/5 
f 61/40/5 85/74/5 87/76/5 
f 87/76/5 62/42/5 61/40/5 
f 62/42/5 87/76/5 89/78/5 
f 89/78/5 63/44/5 62/42/5 
f 63/44/5 89/78/5 91/80/5 
f 91/80/5 64/46/5 63/44/5 
f 64/46/5 91/80/5 13/11/5 
f 13/11/5 15/13/5 64/46/5 
f 17/81/2 70/59/5 73/62/5 
f 73/62/5 18/82/2 17/81/2 
f 18/82/2 73/62/5 75/64/5 
f 75/64/5 20/83/2 18/82/2 
f 20/83/2 75/64/5 77/66/5 
f 77/66/5 22/84/2 20/83/2 
f 22/84/2 77/66/5 79/68/5 
f 79/68/5 24/85/2 22/84/2 
f 24/85/2 79/68/5 81/70/5 
f 81/70/5 26/86/2 24/85/2 
f 26/86/2 81/70/5 11/9/5 
f 11/9/5 2/14/2 26/86/2 
f 83/72/5 28/87/2 31/88/2 
f 31/88/2 84/73/5 83/72/5 
f 84/73/5 31/88/2 33/89/2 
f 33/89/2 86/75/5 84/73/5 
f 86/75/5 33/89/2 35/90/2 
f 35/90/2 88/77/5 86/75/5 
f 88/77/5 35/90/2 37/91/2 
f 37/91/2 90/79/5 88/77/5 
f 90/79/5 37/91/2 3/15/2 
f 3/15/2 14/12/5 90/79/5 
# 144 faces

