# 3ds Max Wavefront OBJ Exporter v0.97b - (c)2007 guruware
# File Created: 24.10.2015 22:20:02

#
# object Plane005
#

v  -6.00000 1.00000 -0.00000
v  -8.00000 1.00000 -0.00000
v  -8.00000 1.00000 5.32500
v  -6.00000 1.00000 5.32500
v  6.00000 0.00000 -0.00000
v  0.00000 0.00000 -0.00000
v  0.00000 0.00000 5.33333
v  6.00000 0.00000 5.33333
v  6.00000 1.00000 -0.00000
v  8.00000 1.00000 -0.00000
v  8.00000 1.00000 -5.32500
v  6.00000 1.00000 -5.32500
v  -8.00000 -0.00000 -0.00000
v  -8.00000 -0.00000 5.33333
v  -8.00000 -0.00000 32.00000
v  -6.00000 0.00000 32.00000
v  -6.00000 1.00000 31.95000
v  -8.00000 1.00000 31.95000
v  -6.00000 0.00000 -0.00000
v  -6.00000 0.00000 -5.33333
v  -6.00000 1.00000 -5.32500
v  -6.00000 0.00000 -32.00000
v  -8.00000 0.00000 -32.00000
v  -8.00000 1.00000 -31.95000
v  -6.00000 1.00000 -31.95000
v  8.00000 -0.00000 -0.00000
v  8.00000 -0.00000 -5.33333
v  8.00000 0.00000 -32.00000
v  6.00000 0.00000 -32.00000
v  6.00000 1.00000 -31.95000
v  8.00000 1.00000 -31.95000
v  6.00000 1.00000 5.32500
v  6.00000 0.00000 32.00000
v  8.00000 -0.00000 32.00000
v  8.00000 1.00000 31.95000
v  6.00000 1.00000 31.95000
v  0.00000 0.00000 -5.33333
v  -8.00000 1.00000 -26.62500
v  -6.00000 1.00000 -26.62500
v  -8.00000 1.00000 -21.30000
v  -6.00000 1.00000 -21.30000
v  -8.00000 1.00000 -15.97500
v  -6.00000 1.00000 -15.97500
v  -8.00000 1.00000 -10.65000
v  -6.00000 1.00000 -10.65000
v  -8.00000 1.00000 -5.32500
v  -6.00000 1.00000 26.62500
v  -8.00000 1.00000 26.62500
v  -6.00000 1.00000 21.30000
v  -8.00000 1.00000 21.30000
v  -6.00000 1.00000 15.97500
v  -8.00000 1.00000 15.97500
v  -6.00000 1.00000 10.65000
v  -8.00000 1.00000 10.65000
v  0.00000 0.00000 -32.00000
v  0.00000 0.00000 -26.66667
v  6.00000 0.00000 -26.66667
v  0.00000 0.00000 -21.33333
v  6.00000 0.00000 -21.33333
v  0.00000 0.00000 -16.00000
v  6.00000 0.00000 -16.00000
v  0.00000 0.00000 -10.66667
v  6.00000 0.00000 -10.66667
v  6.00000 0.00000 -5.33333
v  0.00000 0.00000 32.00000
v  6.00000 0.00000 26.66667
v  0.00000 0.00000 26.66667
v  6.00000 0.00000 21.33333
v  0.00000 0.00000 21.33333
v  6.00000 0.00000 16.00000
v  0.00000 0.00000 16.00000
v  6.00000 0.00000 10.66667
v  0.00000 0.00000 10.66667
v  8.00000 1.00000 26.62500
v  6.00000 1.00000 26.62500
v  8.00000 1.00000 21.30000
v  6.00000 1.00000 21.30000
v  8.00000 1.00000 15.97500
v  6.00000 1.00000 15.97500
v  8.00000 1.00000 10.65000
v  6.00000 1.00000 10.65000
v  8.00000 1.00000 5.32500
v  6.00000 1.00000 -26.62500
v  8.00000 1.00000 -26.62500
v  6.00000 1.00000 -21.30000
v  8.00000 1.00000 -21.30000
v  6.00000 1.00000 -15.97500
v  8.00000 1.00000 -15.97500
v  6.00000 1.00000 -10.65000
v  8.00000 1.00000 -10.65000
v  -8.00000 -0.00000 -26.66667
v  -8.00000 -0.00000 -21.33333
v  -8.00000 -0.00000 -16.00000
v  -8.00000 -0.00000 -10.66667
v  -8.00000 -0.00000 -5.33333
v  -8.00000 -0.00000 26.66667
v  -8.00000 -0.00000 21.33333
v  -8.00000 -0.00000 16.00000
v  -8.00000 -0.00000 10.66667
v  -6.00000 0.00000 26.66667
v  -6.00000 0.00000 21.33333
v  -6.00000 0.00000 16.00000
v  -6.00000 0.00000 10.66667
v  -6.00000 0.00000 5.33333
v  -6.00000 0.00000 -26.66667
v  -6.00000 0.00000 -21.33333
v  -6.00000 0.00000 -16.00000
v  -6.00000 0.00000 -10.66667
v  8.00000 -0.00000 26.66667
v  8.00000 -0.00000 21.33333
v  8.00000 -0.00000 16.00000
v  8.00000 -0.00000 10.66667
v  8.00000 -0.00000 5.33333
v  8.00000 -0.00000 -26.66667
v  8.00000 -0.00000 -21.33333
v  8.00000 -0.00000 -16.00000
v  8.00000 -0.00000 -10.66667
# 117 vertices

vn 0.00000 1.00000 0.00000
vn -0.00000 1.00000 0.00000
vn 0.00000 1.00000 -0.00000
vn -1.00000 0.00000 -0.00000
vn -0.00000 0.04994 0.99875
vn 0.00000 0.04994 0.99875
vn 1.00000 0.00000 -0.00000
vn 0.00000 0.04994 -0.99875
vn -0.00000 0.04994 -0.99875
# 9 vertex normals

vt 0.11354 0.50028 0.00000
vt 0.07823 0.50029 0.00000
vt 0.07827 0.41698 0.00000
vt 0.11358 0.41697 0.00000
vt 0.13178 0.49995 0.00000
vt 0.13189 0.49999 0.00000
vt 0.13191 0.41667 0.00000
vt 0.13182 0.41664 0.00000
vt 0.07847 0.00042 0.00000
vt 0.11378 0.00042 0.00000
vt 0.11351 0.58360 0.00000
vt 0.11331 1.00015 0.00000
vt 0.07800 1.00016 0.00000
vt 0.13200 0.50003 0.00000
vt 0.13188 0.58331 0.00000
vt 0.13201 0.58336 0.00000
vt 0.07804 0.91685 0.00000
vt 0.11335 0.91684 0.00000
vt 0.07808 0.83353 0.00000
vt 0.11339 0.83353 0.00000
vt 0.07811 0.75022 0.00000
vt 0.11343 0.75022 0.00000
vt 0.07815 0.66691 0.00000
vt 0.11347 0.66691 0.00000
vt 0.07819 0.58360 0.00000
vt 0.11374 0.08373 0.00000
vt 0.07843 0.08373 0.00000
vt 0.11370 0.16704 0.00000
vt 0.07839 0.16704 0.00000
vt 0.11366 0.25035 0.00000
vt 0.07835 0.25036 0.00000
vt 0.11362 0.33366 0.00000
vt 0.07831 0.33367 0.00000
vt 0.13156 0.99983 0.00000
vt 0.13180 0.99991 0.00000
vt 0.13181 0.91659 0.00000
vt 0.13160 0.91651 0.00000
vt 0.13183 0.83327 0.00000
vt 0.13163 0.83320 0.00000
vt 0.13184 0.74995 0.00000
vt 0.13167 0.74989 0.00000
vt 0.13186 0.66663 0.00000
vt 0.13171 0.66658 0.00000
vt 0.13174 0.58326 0.00000
vt 0.13199 0.00007 0.00000
vt 0.13200 0.00008 0.00000
vt 0.13196 0.08339 0.00000
vt 0.13197 0.08339 0.00000
vt 0.13192 0.16670 0.00000
vt 0.13195 0.16671 0.00000
vt 0.13189 0.25001 0.00000
vt 0.13194 0.25003 0.00000
vt 0.13185 0.33333 0.00000
vt 0.13192 0.33335 0.00000
vt 0.13198 0.00007 0.00000
vt 0.13198 0.08340 0.00000
vt 0.13199 0.16672 0.00000
vt 0.13199 0.25005 0.00000
vt 0.13199 0.33338 0.00000
vt 0.13200 0.41670 0.00000
vt 0.13203 0.99999 0.00000
vt 0.13203 0.91666 0.00000
vt 0.13202 0.83334 0.00000
vt 0.13202 0.75001 0.00000
vt 0.13201 0.66668 0.00000
# 65 texture coords

g Plane005
f 1/1/1 2/2/1 3/3/1 
f 3/3/1 4/4/2 1/1/1 
f 5/5/3 6/6/3 7/7/3 
f 7/7/3 8/8/3 5/5/3 
f 9/1/2 10/2/2 11/3/2 
f 11/3/2 12/4/2 9/1/2 
f 2/2/4 13/2/4 14/3/4 
f 14/3/4 3/3/4 2/2/4 
f 15/9/5 16/10/5 17/10/5 
f 17/10/6 18/9/6 15/9/6 
f 1/1/7 19/1/7 20/11/7 
f 20/11/7 21/11/7 1/1/7 
f 22/12/8 23/13/8 24/13/8 
f 24/13/8 25/12/8 22/12/8 
f 10/2/7 26/2/7 27/3/7 
f 27/3/7 11/3/7 10/2/7 
f 28/9/9 29/10/9 30/10/9 
f 30/10/9 31/9/9 28/9/9 
f 9/1/4 5/1/4 8/11/4 
f 8/11/4 32/11/4 9/1/4 
f 33/12/6 34/13/6 35/13/6 
f 35/13/5 36/12/5 33/12/5 
f 19/14/3 6/6/3 37/15/3 
f 37/15/3 20/16/3 19/14/3 
f 25/12/1 24/13/1 38/17/1 
f 38/17/1 39/18/1 25/12/1 
f 39/18/1 38/17/1 40/19/2 
f 40/19/2 41/20/2 39/18/1 
f 41/20/2 40/19/2 42/21/1 
f 42/21/1 43/22/1 41/20/2 
f 43/22/1 42/21/1 44/23/2 
f 44/23/2 45/24/2 43/22/1 
f 45/24/2 44/23/2 46/25/2 
f 46/25/2 21/11/1 45/24/2 
f 21/11/1 46/25/2 2/2/1 
f 2/2/1 1/1/1 21/11/1 
f 18/9/1 17/10/1 47/26/1 
f 47/26/1 48/27/1 18/9/1 
f 48/27/1 47/26/1 49/28/2 
f 49/28/2 50/29/2 48/27/1 
f 50/29/2 49/28/2 51/30/1 
f 51/30/1 52/31/1 50/29/2 
f 52/31/1 51/30/1 53/32/2 
f 53/32/2 54/33/2 52/31/1 
f 54/33/2 53/32/2 4/4/2 
f 4/4/2 3/3/1 54/33/2 
f 29/34/3 55/35/3 56/36/3 
f 56/36/3 57/37/3 29/34/3 
f 57/37/3 56/36/3 58/38/3 
f 58/38/3 59/39/3 57/37/3 
f 59/39/3 58/38/3 60/40/3 
f 60/40/3 61/41/3 59/39/3 
f 61/41/3 60/40/3 62/42/3 
f 62/42/3 63/43/3 61/41/3 
f 63/43/3 62/42/3 37/15/3 
f 37/15/3 64/44/3 63/43/3 
f 64/44/3 37/15/3 6/6/3 
f 6/6/3 5/5/3 64/44/3 
f 65/45/3 33/46/3 66/47/3 
f 66/47/3 67/48/3 65/45/3 
f 67/48/3 66/47/3 68/49/3 
f 68/49/3 69/50/3 67/48/3 
f 69/50/3 68/49/3 70/51/3 
f 70/51/3 71/52/3 69/50/3 
f 71/52/3 70/51/3 72/53/3 
f 72/53/3 73/54/3 71/52/3 
f 73/54/3 72/53/3 8/8/3 
f 8/8/3 7/7/3 73/54/3 
f 36/12/2 35/13/2 74/17/2 
f 74/17/2 75/18/2 36/12/2 
f 75/18/2 74/17/2 76/19/2 
f 76/19/2 77/20/2 75/18/2 
f 77/20/2 76/19/2 78/21/2 
f 78/21/2 79/22/2 77/20/2 
f 79/22/2 78/21/2 80/23/2 
f 80/23/2 81/24/2 79/22/2 
f 81/24/2 80/23/2 82/25/2 
f 82/25/2 32/11/2 81/24/2 
f 32/11/2 82/25/2 10/2/2 
f 10/2/2 9/1/2 32/11/2 
f 31/9/2 30/10/2 83/26/2 
f 83/26/2 84/27/2 31/9/2 
f 84/27/2 83/26/2 85/28/2 
f 85/28/2 86/29/2 84/27/2 
f 86/29/2 85/28/2 87/30/2 
f 87/30/2 88/31/2 86/29/2 
f 88/31/2 87/30/2 89/32/2 
f 89/32/2 90/33/2 88/31/2 
f 90/33/2 89/32/2 12/4/2 
f 12/4/2 11/3/2 90/33/2 
f 24/13/4 23/13/4 91/17/4 
f 91/17/4 38/17/4 24/13/4 
f 38/17/4 91/17/4 92/19/4 
f 92/19/4 40/19/4 38/17/4 
f 40/19/4 92/19/4 93/21/4 
f 93/21/4 42/21/4 40/19/4 
f 42/21/4 93/21/4 94/23/4 
f 94/23/4 44/23/4 42/21/4 
f 44/23/4 94/23/4 95/25/4 
f 95/25/4 46/25/4 44/23/4 
f 46/25/4 95/25/4 13/2/4 
f 13/2/4 2/2/4 46/25/4 
f 96/27/4 15/9/4 18/9/4 
f 18/9/4 48/27/4 96/27/4 
f 97/29/4 96/27/4 48/27/4 
f 48/27/4 50/29/4 97/29/4 
f 98/31/4 97/29/4 50/29/4 
f 50/29/4 52/31/4 98/31/4 
f 99/33/4 98/31/4 52/31/4 
f 52/31/4 54/33/4 99/33/4 
f 99/33/4 54/33/4 3/3/4 
f 3/3/4 14/3/4 99/33/4 
f 17/10/7 16/10/7 100/26/7 
f 100/26/7 47/26/7 17/10/7 
f 47/26/7 100/26/7 101/28/7 
f 101/28/7 49/28/7 47/26/7 
f 49/28/7 101/28/7 102/30/7 
f 102/30/7 51/30/7 49/28/7 
f 51/30/7 102/30/7 103/32/7 
f 103/32/7 53/32/7 51/30/7 
f 53/32/7 103/32/7 104/4/7 
f 104/4/7 4/4/7 53/32/7 
f 4/4/7 104/4/7 19/1/7 
f 19/1/7 1/1/7 4/4/7 
f 105/18/7 22/12/7 25/12/7 
f 25/12/7 39/18/7 105/18/7 
f 106/20/7 105/18/7 39/18/7 
f 39/18/7 41/20/7 106/20/7 
f 107/22/7 106/20/7 41/20/7 
f 41/20/7 43/22/7 107/22/7 
f 108/24/7 107/22/7 43/22/7 
f 43/22/7 45/24/7 108/24/7 
f 108/24/7 45/24/7 21/11/7 
f 21/11/7 20/11/7 108/24/7 
f 35/13/7 34/13/7 109/17/7 
f 109/17/7 74/17/7 35/13/7 
f 74/17/7 109/17/7 110/19/7 
f 110/19/7 76/19/7 74/17/7 
f 76/19/7 110/19/7 111/21/7 
f 111/21/7 78/21/7 76/19/7 
f 78/21/7 111/21/7 112/23/7 
f 112/23/7 80/23/7 78/21/7 
f 80/23/7 112/23/7 113/25/7 
f 113/25/7 82/25/7 80/23/7 
f 82/25/7 113/25/7 26/2/7 
f 26/2/7 10/2/7 82/25/7 
f 114/27/7 28/9/7 31/9/7 
f 31/9/7 84/27/7 114/27/7 
f 115/29/7 114/27/7 84/27/7 
f 84/27/7 86/29/7 115/29/7 
f 116/31/7 115/29/7 86/29/7 
f 86/29/7 88/31/7 116/31/7 
f 117/33/7 116/31/7 88/31/7 
f 88/31/7 90/33/7 117/33/7 
f 117/33/7 90/33/7 11/3/7 
f 11/3/7 27/3/7 117/33/7 
f 30/10/4 29/10/4 57/26/4 
f 57/26/4 83/26/4 30/10/4 
f 83/26/4 57/26/4 59/28/4 
f 59/28/4 85/28/4 83/26/4 
f 85/28/4 59/28/4 61/30/4 
f 61/30/4 87/30/4 85/28/4 
f 87/30/4 61/30/4 63/32/4 
f 63/32/4 89/32/4 87/30/4 
f 89/32/4 63/32/4 64/4/4 
f 64/4/4 12/4/4 89/32/4 
f 12/4/4 64/4/4 5/1/4 
f 5/1/4 9/1/4 12/4/4 
f 66/18/4 33/12/4 36/12/4 
f 36/12/4 75/18/4 66/18/4 
f 68/20/4 66/18/4 75/18/4 
f 75/18/4 77/20/4 68/20/4 
f 70/22/4 68/20/4 77/20/4 
f 77/20/4 79/22/4 70/22/4 
f 72/24/4 70/22/4 79/22/4 
f 79/22/4 81/24/4 72/24/4 
f 72/24/4 81/24/4 32/11/4 
f 32/11/4 8/11/4 72/24/4 
f 16/55/3 65/45/3 67/48/3 
f 67/48/3 100/56/3 16/55/3 
f 100/56/3 67/48/3 69/50/3 
f 69/50/3 101/57/3 100/56/3 
f 101/57/3 69/50/3 71/52/3 
f 71/52/3 102/58/3 101/57/3 
f 102/58/3 71/52/3 73/54/3 
f 73/54/3 103/59/3 102/58/3 
f 103/59/3 73/54/3 7/7/3 
f 7/7/3 104/60/3 103/59/3 
f 104/60/3 7/7/3 6/6/3 
f 6/6/3 19/14/3 104/60/3 
f 55/35/3 22/61/3 105/62/3 
f 105/62/3 56/36/3 55/35/3 
f 56/36/3 105/62/3 106/63/3 
f 106/63/3 58/38/3 56/36/3 
f 58/38/3 106/63/3 107/64/3 
f 107/64/3 60/40/3 58/38/3 
f 60/40/3 107/64/3 108/65/3 
f 108/65/3 62/42/3 60/40/3 
f 62/42/3 108/65/3 20/16/3 
f 20/16/3 37/15/3 62/42/3 
# 200 faces

