# 3ds Max Wavefront OBJ Exporter v0.97b - (c)2007 guruware
# File Created: 24.10.2015 22:58:27

#
# object Plane005
#

v  -6.00000 1.00000 -0.00000
v  -8.00000 1.00000 -0.00000
v  -8.00000 1.00000 5.32500
v  -6.00000 1.00000 5.32500
v  6.00000 -0.15000 -0.00000
v  0.00000 -0.15000 -0.00000
v  0.00000 -0.17500 5.33334
v  6.00000 -0.17500 5.33333
v  6.00000 1.00000 -0.00000
v  8.00000 1.00000 -0.00000
v  8.00000 1.00000 -5.32500
v  6.00000 1.00000 -5.32500
v  -8.00000 -0.00000 -0.00000
v  -8.00000 -0.00000 5.33333
v  -8.00000 -0.00000 32.00000
v  -6.00000 0.00000 32.00000
v  -6.00000 1.00000 31.95000
v  -8.00000 1.00000 31.95000
v  -6.00000 0.00000 -0.00000
v  -6.00000 0.00000 -5.33333
v  -6.00000 1.00000 -5.32500
v  -6.00000 0.00000 -32.00000
v  -8.00000 0.00000 -32.00000
v  -8.00000 1.00000 -31.95000
v  -6.00000 1.00000 -31.95000
v  8.00000 -0.00000 -0.00000
v  8.00000 -0.00000 -5.33333
v  8.00000 0.00000 -32.00000
v  6.00000 0.00000 -32.00000
v  6.00000 1.00000 -31.95000
v  8.00000 1.00000 -31.95000
v  6.00000 0.00000 -0.00000
v  6.00000 0.00000 5.33333
v  6.00000 1.00000 5.32500
v  6.00000 0.00000 32.00000
v  8.00000 -0.00000 32.00000
v  8.00000 1.00000 31.95000
v  6.00000 1.00000 31.95000
v  -6.00000 -0.15000 -0.00000
v  0.00000 -0.12500 -5.33333
v  -6.00000 -0.12500 -5.33333
v  0.00000 0.00000 -32.00000
v  0.00000 -0.00000 -32.00000
v  6.00000 -0.00000 -32.00000
v  -6.00000 -0.00000 -32.00000
v  -8.00000 1.00000 -26.62500
v  -6.00000 1.00000 -26.62500
v  -8.00000 1.00000 -21.30000
v  -6.00000 1.00000 -21.30000
v  -8.00000 1.00000 -15.97500
v  -6.00000 1.00000 -15.97500
v  -8.00000 1.00000 -10.65000
v  -6.00000 1.00000 -10.65000
v  -8.00000 1.00000 -5.32500
v  -6.00000 1.00000 26.62500
v  -8.00000 1.00000 26.62500
v  -6.00000 1.00000 21.30000
v  -8.00000 1.00000 21.30000
v  -6.00000 1.00000 15.97500
v  -8.00000 1.00000 15.97500
v  -6.00000 1.00000 10.65000
v  -8.00000 1.00000 10.65000
v  0.00000 -0.02500 -26.66667
v  6.00000 -0.02500 -26.66666
v  0.00000 -0.05000 -21.33333
v  6.00000 -0.05000 -21.33334
v  0.00000 -0.07500 -16.00000
v  6.00000 -0.07500 -16.00000
v  0.00000 -0.10000 -10.66667
v  6.00000 -0.10000 -10.66666
v  6.00000 -0.12500 -5.33334
v  0.00000 -0.30000 32.00000
v  6.00000 -0.30000 32.00000
v  6.00000 -0.27500 26.66667
v  0.00000 -0.27500 26.66666
v  6.00000 -0.25000 21.33333
v  0.00000 -0.25000 21.33334
v  6.00000 -0.22500 16.00000
v  0.00000 -0.22500 16.00000
v  6.00000 -0.20000 10.66667
v  0.00000 -0.20000 10.66666
v  8.00000 1.00000 26.62500
v  6.00000 1.00000 26.62500
v  8.00000 1.00000 21.30000
v  6.00000 1.00000 21.30000
v  8.00000 1.00000 15.97500
v  6.00000 1.00000 15.97500
v  8.00000 1.00000 10.65000
v  6.00000 1.00000 10.65000
v  8.00000 1.00000 5.32500
v  6.00000 1.00000 -26.62500
v  8.00000 1.00000 -26.62500
v  6.00000 1.00000 -21.30000
v  8.00000 1.00000 -21.30000
v  6.00000 1.00000 -15.97500
v  8.00000 1.00000 -15.97500
v  6.00000 1.00000 -10.65000
v  8.00000 1.00000 -10.65000
v  -8.00000 -0.00000 -26.66667
v  -8.00000 -0.00000 -21.33333
v  -8.00000 -0.00000 -16.00000
v  -8.00000 -0.00000 -10.66667
v  -8.00000 -0.00000 -5.33333
v  -8.00000 -0.00000 26.66667
v  -8.00000 -0.00000 21.33333
v  -8.00000 -0.00000 16.00000
v  -8.00000 -0.00000 10.66667
v  -6.00000 0.00000 26.66667
v  -6.00000 0.00000 21.33333
v  -6.00000 0.00000 16.00000
v  -6.00000 0.00000 10.66667
v  -6.00000 0.00000 5.33333
v  -6.00000 0.00000 -26.66667
v  -6.00000 0.00000 -21.33333
v  -6.00000 0.00000 -16.00000
v  -6.00000 0.00000 -10.66667
v  8.00000 -0.00000 26.66667
v  8.00000 -0.00000 21.33333
v  8.00000 -0.00000 16.00000
v  8.00000 -0.00000 10.66667
v  8.00000 -0.00000 5.33333
v  8.00000 -0.00000 -26.66667
v  8.00000 -0.00000 -21.33333
v  8.00000 -0.00000 -16.00000
v  8.00000 -0.00000 -10.66667
v  6.00000 0.00000 -26.66667
v  6.00000 0.00000 -21.33333
v  6.00000 0.00000 -16.00000
v  6.00000 0.00000 -10.66667
v  6.00000 0.00000 -5.33333
v  6.00000 0.00000 26.66667
v  6.00000 0.00000 21.33333
v  6.00000 0.00000 16.00000
v  6.00000 0.00000 10.66667
v  -6.00000 -0.30000 32.00000
v  -6.00000 -0.27500 26.66666
v  -6.00000 -0.25000 21.33334
v  -6.00000 -0.22500 16.00000
v  -6.00000 -0.20000 10.66666
v  -6.00000 -0.17500 5.33334
v  -6.00000 -0.02500 -26.66667
v  -6.00000 -0.05000 -21.33333
v  -6.00000 -0.07500 -16.00000
v  -6.00000 -0.10000 -10.66667
# 144 vertices

vn 0.00000 1.00000 0.00000
vn -0.00000 1.00000 0.00000
vn 0.00000 0.99999 0.00469
vn -1.00000 0.00000 -0.00000
vn -0.00000 0.04994 0.99875
vn 0.00000 0.04994 0.99875
vn 1.00000 0.00000 -0.00000
vn 0.00000 0.04994 -0.99875
vn -0.00000 0.04994 -0.99875
vn 0.00000 0.00000 1.00000
# 10 vertex normals

vt 0.11354 0.50028 0.00000
vt 0.07823 0.50029 0.00000
vt 0.07827 0.41698 0.00000
vt 0.11358 0.41697 0.00000
vt 0.13178 0.49995 0.00000
vt 0.13189 0.49999 0.00000
vt 0.13191 0.41667 0.00000
vt 0.13182 0.41664 0.00000
vt 0.07847 0.00042 0.00000
vt 0.11378 0.00042 0.00000
vt 0.11351 0.58360 0.00000
vt 0.11331 1.00015 0.00000
vt 0.07800 1.00016 0.00000
vt 0.13200 0.50003 0.00000
vt 0.13188 0.58331 0.00000
vt 0.13201 0.58336 0.00000
vt 0.13156 0.99983 0.00000
vt 0.13180 0.99991 0.00000
vt 0.13203 0.99999 0.00000
vt 0.07804 0.91685 0.00000
vt 0.11335 0.91684 0.00000
vt 0.07808 0.83353 0.00000
vt 0.11339 0.83353 0.00000
vt 0.07811 0.75022 0.00000
vt 0.11343 0.75022 0.00000
vt 0.07815 0.66691 0.00000
vt 0.11347 0.66691 0.00000
vt 0.07819 0.58360 0.00000
vt 0.11374 0.08373 0.00000
vt 0.07843 0.08373 0.00000
vt 0.11370 0.16704 0.00000
vt 0.07839 0.16704 0.00000
vt 0.11366 0.25035 0.00000
vt 0.07835 0.25036 0.00000
vt 0.11362 0.33366 0.00000
vt 0.07831 0.33367 0.00000
vt 0.13181 0.91659 0.00000
vt 0.13160 0.91651 0.00000
vt 0.13183 0.83327 0.00000
vt 0.13163 0.83320 0.00000
vt 0.13184 0.74995 0.00000
vt 0.13167 0.74989 0.00000
vt 0.13186 0.66663 0.00000
vt 0.13171 0.66658 0.00000
vt 0.13174 0.58326 0.00000
vt 0.13199 0.00007 0.00000
vt 0.13200 0.00008 0.00000
vt 0.13196 0.08339 0.00000
vt 0.13197 0.08339 0.00000
vt 0.13192 0.16670 0.00000
vt 0.13195 0.16671 0.00000
vt 0.13189 0.25001 0.00000
vt 0.13194 0.25003 0.00000
vt 0.13185 0.33333 0.00000
vt 0.13192 0.33335 0.00000
vt 0.13198 0.00007 0.00000
vt 0.13198 0.08340 0.00000
vt 0.13199 0.16672 0.00000
vt 0.13199 0.25005 0.00000
vt 0.13199 0.33338 0.00000
vt 0.13200 0.41670 0.00000
vt 0.13203 0.91666 0.00000
vt 0.13202 0.83334 0.00000
vt 0.13202 0.75001 0.00000
vt 0.13201 0.66668 0.00000
# 65 texture coords

g Plane005
f 1/1/1 2/2/1 3/3/1 
f 3/3/1 4/4/2 1/1/1 
f 5/5/3 6/6/3 7/7/3 
f 7/7/3 8/8/3 5/5/3 
f 9/1/2 10/2/2 11/3/2 
f 11/3/2 12/4/2 9/1/2 
f 2/2/4 13/2/4 14/3/4 
f 14/3/4 3/3/4 2/2/4 
f 15/9/5 16/10/5 17/10/5 
f 17/10/6 18/9/6 15/9/6 
f 1/1/7 19/1/7 20/11/7 
f 20/11/7 21/11/7 1/1/7 
f 22/12/8 23/13/8 24/13/8 
f 24/13/8 25/12/8 22/12/8 
f 10/2/7 26/2/7 27/3/7 
f 27/3/7 11/3/7 10/2/7 
f 28/9/9 29/10/9 30/10/9 
f 30/10/9 31/9/9 28/9/9 
f 9/1/4 32/1/4 33/11/4 
f 33/11/4 34/11/4 9/1/4 
f 35/12/6 36/13/6 37/13/6 
f 37/13/5 38/12/5 35/12/5 
f 39/14/3 6/6/3 40/15/3 
f 40/15/3 41/16/3 39/14/3 
f 29/17/10 42/18/10 43/18/10 
f 43/18/10 44/17/10 29/17/10 
f 42/18/10 22/19/10 45/19/10 
f 45/19/10 43/18/10 42/18/10 
f 19/14/7 39/14/7 41/16/7 
f 41/16/7 20/16/7 19/14/7 
f 32/5/4 5/5/4 8/8/4 
f 8/8/4 33/8/4 32/5/4 
f 25/12/1 24/13/1 46/20/1 
f 46/20/1 47/21/1 25/12/1 
f 47/21/1 46/20/1 48/22/2 
f 48/22/2 49/23/2 47/21/1 
f 49/23/2 48/22/2 50/24/1 
f 50/24/1 51/25/1 49/23/2 
f 51/25/1 50/24/1 52/26/2 
f 52/26/2 53/27/2 51/25/1 
f 53/27/2 52/26/2 54/28/2 
f 54/28/2 21/11/1 53/27/2 
f 21/11/1 54/28/2 2/2/1 
f 2/2/1 1/1/1 21/11/1 
f 18/9/1 17/10/1 55/29/1 
f 55/29/1 56/30/1 18/9/1 
f 56/30/1 55/29/1 57/31/2 
f 57/31/2 58/32/2 56/30/1 
f 58/32/2 57/31/2 59/33/1 
f 59/33/1 60/34/1 58/32/2 
f 60/34/1 59/33/1 61/35/2 
f 61/35/2 62/36/2 60/34/1 
f 62/36/2 61/35/2 4/4/2 
f 4/4/2 3/3/1 62/36/2 
f 44/17/3 43/18/3 63/37/3 
f 63/37/3 64/38/3 44/17/3 
f 64/38/3 63/37/3 65/39/3 
f 65/39/3 66/40/3 64/38/3 
f 66/40/3 65/39/3 67/41/3 
f 67/41/3 68/42/3 66/40/3 
f 68/42/3 67/41/3 69/43/3 
f 69/43/3 70/44/3 68/42/3 
f 70/44/3 69/43/3 40/15/3 
f 40/15/3 71/45/3 70/44/3 
f 71/45/3 40/15/3 6/6/3 
f 6/6/3 5/5/3 71/45/3 
f 72/46/3 73/47/3 74/48/3 
f 74/48/3 75/49/3 72/46/3 
f 75/49/3 74/48/3 76/50/3 
f 76/50/3 77/51/3 75/49/3 
f 77/51/3 76/50/3 78/52/3 
f 78/52/3 79/53/3 77/51/3 
f 79/53/3 78/52/3 80/54/3 
f 80/54/3 81/55/3 79/53/3 
f 81/55/3 80/54/3 8/8/3 
f 8/8/3 7/7/3 81/55/3 
f 38/12/2 37/13/2 82/20/2 
f 82/20/2 83/21/2 38/12/2 
f 83/21/2 82/20/2 84/22/2 
f 84/22/2 85/23/2 83/21/2 
f 85/23/2 84/22/2 86/24/2 
f 86/24/2 87/25/2 85/23/2 
f 87/25/2 86/24/2 88/26/2 
f 88/26/2 89/27/2 87/25/2 
f 89/27/2 88/26/2 90/28/2 
f 90/28/2 34/11/2 89/27/2 
f 34/11/2 90/28/2 10/2/2 
f 10/2/2 9/1/2 34/11/2 
f 31/9/2 30/10/2 91/29/2 
f 91/29/2 92/30/2 31/9/2 
f 92/30/2 91/29/2 93/31/2 
f 93/31/2 94/32/2 92/30/2 
f 94/32/2 93/31/2 95/33/2 
f 95/33/2 96/34/2 94/32/2 
f 96/34/2 95/33/2 97/35/2 
f 97/35/2 98/36/2 96/34/2 
f 98/36/2 97/35/2 12/4/2 
f 12/4/2 11/3/2 98/36/2 
f 24/13/4 23/13/4 99/20/4 
f 99/20/4 46/20/4 24/13/4 
f 46/20/4 99/20/4 100/22/4 
f 100/22/4 48/22/4 46/20/4 
f 48/22/4 100/22/4 101/24/4 
f 101/24/4 50/24/4 48/22/4 
f 50/24/4 101/24/4 102/26/4 
f 102/26/4 52/26/4 50/24/4 
f 52/26/4 102/26/4 103/28/4 
f 103/28/4 54/28/4 52/26/4 
f 54/28/4 103/28/4 13/2/4 
f 13/2/4 2/2/4 54/28/4 
f 104/30/4 15/9/4 18/9/4 
f 18/9/4 56/30/4 104/30/4 
f 105/32/4 104/30/4 56/30/4 
f 56/30/4 58/32/4 105/32/4 
f 106/34/4 105/32/4 58/32/4 
f 58/32/4 60/34/4 106/34/4 
f 107/36/4 106/34/4 60/34/4 
f 60/34/4 62/36/4 107/36/4 
f 107/36/4 62/36/4 3/3/4 
f 3/3/4 14/3/4 107/36/4 
f 17/10/7 16/10/7 108/29/7 
f 108/29/7 55/29/7 17/10/7 
f 55/29/7 108/29/7 109/31/7 
f 109/31/7 57/31/7 55/29/7 
f 57/31/7 109/31/7 110/33/7 
f 110/33/7 59/33/7 57/31/7 
f 59/33/7 110/33/7 111/35/7 
f 111/35/7 61/35/7 59/33/7 
f 61/35/7 111/35/7 112/4/7 
f 112/4/7 4/4/7 61/35/7 
f 4/4/7 112/4/7 19/1/7 
f 19/1/7 1/1/7 4/4/7 
f 113/21/7 22/12/7 25/12/7 
f 25/12/7 47/21/7 113/21/7 
f 114/23/7 113/21/7 47/21/7 
f 47/21/7 49/23/7 114/23/7 
f 115/25/7 114/23/7 49/23/7 
f 49/23/7 51/25/7 115/25/7 
f 116/27/7 115/25/7 51/25/7 
f 51/25/7 53/27/7 116/27/7 
f 116/27/7 53/27/7 21/11/7 
f 21/11/7 20/11/7 116/27/7 
f 37/13/7 36/13/7 117/20/7 
f 117/20/7 82/20/7 37/13/7 
f 82/20/7 117/20/7 118/22/7 
f 118/22/7 84/22/7 82/20/7 
f 84/22/7 118/22/7 119/24/7 
f 119/24/7 86/24/7 84/22/7 
f 86/24/7 119/24/7 120/26/7 
f 120/26/7 88/26/7 86/24/7 
f 88/26/7 120/26/7 121/28/7 
f 121/28/7 90/28/7 88/26/7 
f 90/28/7 121/28/7 26/2/7 
f 26/2/7 10/2/7 90/28/7 
f 122/30/7 28/9/7 31/9/7 
f 31/9/7 92/30/7 122/30/7 
f 123/32/7 122/30/7 92/30/7 
f 92/30/7 94/32/7 123/32/7 
f 124/34/7 123/32/7 94/32/7 
f 94/32/7 96/34/7 124/34/7 
f 125/36/7 124/34/7 96/34/7 
f 96/34/7 98/36/7 125/36/7 
f 125/36/7 98/36/7 11/3/7 
f 11/3/7 27/3/7 125/36/7 
f 30/10/4 29/10/4 126/29/4 
f 126/29/4 91/29/4 30/10/4 
f 91/29/4 126/29/4 127/31/4 
f 127/31/4 93/31/4 91/29/4 
f 93/31/4 127/31/4 128/33/4 
f 128/33/4 95/33/4 93/31/4 
f 95/33/4 128/33/4 129/35/4 
f 129/35/4 97/35/4 95/33/4 
f 97/35/4 129/35/4 130/4/4 
f 130/4/4 12/4/4 97/35/4 
f 12/4/4 130/4/4 32/1/4 
f 32/1/4 9/1/4 12/4/4 
f 131/21/4 35/12/4 38/12/4 
f 38/12/4 83/21/4 131/21/4 
f 132/23/4 131/21/4 83/21/4 
f 83/21/4 85/23/4 132/23/4 
f 133/25/4 132/23/4 85/23/4 
f 85/23/4 87/25/4 133/25/4 
f 134/27/4 133/25/4 87/25/4 
f 87/25/4 89/27/4 134/27/4 
f 134/27/4 89/27/4 34/11/4 
f 34/11/4 33/11/4 134/27/4 
f 135/56/3 72/46/3 75/49/3 
f 75/49/3 136/57/3 135/56/3 
f 136/57/3 75/49/3 77/51/3 
f 77/51/3 137/58/3 136/57/3 
f 137/58/3 77/51/3 79/53/3 
f 79/53/3 138/59/3 137/58/3 
f 138/59/3 79/53/3 81/55/3 
f 81/55/3 139/60/3 138/59/3 
f 139/60/3 81/55/3 7/7/3 
f 7/7/3 140/61/3 139/60/3 
f 140/61/3 7/7/3 6/6/3 
f 6/6/3 39/14/3 140/61/3 
f 43/18/3 45/19/3 141/62/3 
f 141/62/3 63/37/3 43/18/3 
f 63/37/3 141/62/3 142/63/3 
f 142/63/3 65/39/3 63/37/3 
f 65/39/3 142/63/3 143/64/3 
f 143/64/3 67/41/3 65/39/3 
f 67/41/3 143/64/3 144/65/3 
f 144/65/3 69/43/3 67/41/3 
f 69/43/3 144/65/3 41/16/3 
f 41/16/3 40/15/3 69/43/3 
f 16/56/7 135/56/7 136/57/7 
f 136/57/7 108/57/7 16/56/7 
f 108/57/7 136/57/7 137/58/7 
f 137/58/7 109/58/7 108/57/7 
f 109/58/7 137/58/7 138/59/7 
f 138/59/7 110/59/7 109/58/7 
f 110/59/7 138/59/7 139/60/7 
f 139/60/7 111/60/7 110/59/7 
f 111/60/7 139/60/7 140/61/7 
f 140/61/7 112/61/7 111/60/7 
f 112/61/7 140/61/7 39/14/7 
f 39/14/7 19/14/7 112/61/7 
f 141/62/7 45/19/7 22/19/7 
f 22/19/7 113/62/7 141/62/7 
f 141/62/7 113/62/7 114/63/7 
f 114/63/7 142/63/7 141/62/7 
f 142/63/7 114/63/7 115/64/7 
f 115/64/7 143/64/7 142/63/7 
f 143/64/7 115/64/7 116/65/7 
f 116/65/7 144/65/7 143/64/7 
f 144/65/7 116/65/7 20/16/7 
f 20/16/7 41/16/7 144/65/7 
f 44/17/4 64/38/4 126/38/4 
f 126/38/4 29/17/4 44/17/4 
f 126/38/4 64/38/4 66/40/4 
f 66/40/4 127/40/4 126/38/4 
f 127/40/4 66/40/4 68/42/4 
f 68/42/4 128/42/4 127/40/4 
f 128/42/4 68/42/4 70/44/4 
f 70/44/4 129/44/4 128/42/4 
f 129/44/4 70/44/4 71/45/4 
f 71/45/4 130/45/4 129/44/4 
f 130/45/4 71/45/4 5/5/4 
f 5/5/4 32/5/4 130/45/4 
f 73/47/4 35/47/4 131/48/4 
f 131/48/4 74/48/4 73/47/4 
f 74/48/4 131/48/4 132/50/4 
f 132/50/4 76/50/4 74/48/4 
f 76/50/4 132/50/4 133/52/4 
f 133/52/4 78/52/4 76/50/4 
f 78/52/4 133/52/4 134/54/4 
f 134/54/4 80/54/4 78/52/4 
f 80/54/4 134/54/4 33/8/4 
f 33/8/4 8/8/4 80/54/4 
# 252 faces

