# 3ds Max Wavefront OBJ Exporter v0.97b - (c)2007 guruware
# File Created: 28.11.2017 17:47:55

#
# object Ground
#

v  -4.0000 -0.3000 -32.0000
v  -12.0000 -0.3000 -32.0000
v  -12.0000 -0.3000 -28.6432
v  -4.0000 -0.3000 -28.6389
v  -2.0000 0.0000 -32.0000
v  -4.0000 0.0000 -32.0000
v  -4.0000 0.0000 -28.5179
v  -2.0000 0.0000 -28.5163
v  12.0000 -0.3000 -32.0000
v  -2.0000 -0.3000 -32.0000
v  -2.0000 -0.3000 -28.6374
v  12.0000 -0.3000 -28.6316
v  -4.0000 -0.3000 32.0000
v  -4.0000 0.0000 32.0000
v  -4.0000 0.0000 28.7600
v  -4.0000 -0.3000 28.6389
v  -2.0000 -0.3000 32.0000
v  -2.0000 0.0000 32.0000
v  -12.0000 -0.3000 28.6432
v  -12.0000 -0.3000 32.0000
v  -2.0000 0.0000 28.7584
v  12.0000 -0.3000 28.6316
v  -2.0000 -0.3000 28.6374
v  12.0000 -0.3000 32.0000
v  -4.0000 0.0000 25.7847
v  -4.0000 -0.3000 25.8250
v  -12.0000 -0.3000 -25.8250
v  -4.0000 -0.3000 -25.8250
v  -4.0000 0.0000 -25.7979
v  -2.0000 0.0000 -25.7979
v  -2.0000 -0.3000 -25.8250
v  12.0000 -0.3000 -25.8250
v  -4.0000 -0.3000 22.4566
v  -4.0000 0.0000 22.4163
v  -12.0000 -0.3000 25.8250
v  -2.0000 0.0000 25.7847
v  12.0000 -0.3000 25.8250
v  -2.0000 -0.3000 25.8250
v  -12.0000 -0.3000 22.4566
v  -2.0000 0.0000 22.4163
v  12.0000 -0.3000 22.4566
v  -2.0000 -0.3000 22.4566
v  -4.0000 -0.3000 19.0882
v  -4.0000 0.0000 19.0479
v  -12.0000 -0.3000 19.0882
v  -2.0000 0.0000 19.0479
v  12.0000 -0.3000 19.0882
v  -2.0000 -0.3000 19.0882
v  -4.0000 -0.3000 15.6261
v  -4.0000 0.0000 15.5858
v  -12.0000 -0.3000 15.6261
v  -2.0000 0.0000 15.5858
v  12.0000 -0.3000 15.6261
v  -2.0000 -0.3000 15.6261
v  -4.0000 -0.3000 12.1640
v  -4.0000 0.0000 12.1238
v  -12.0000 -0.3000 12.1640
v  -2.0000 0.0000 12.1238
v  12.0000 -0.3000 12.1640
v  -2.0000 -0.3000 12.1640
v  -4.0000 -0.3000 8.7020
v  -4.0000 0.0000 8.6617
v  -12.0000 -0.3000 8.7020
v  -2.0000 0.0000 8.6617
v  12.0000 -0.3000 8.7020
v  -2.0000 -0.3000 8.7020
v  -4.0000 -0.3000 5.2399
v  -4.0000 0.0000 5.1997
v  -12.0000 -0.3000 5.2399
v  -2.0000 0.0000 5.1997
v  12.0000 -0.3000 5.2399
v  -2.0000 -0.3000 5.2399
v  -4.0000 -0.3000 1.7779
v  -4.0000 0.0000 1.7376
v  -12.0000 -0.3000 1.7779
v  -2.0000 0.0000 1.7376
v  12.0000 -0.3000 1.7779
v  -2.0000 -0.3000 1.7779
v  -4.0000 -0.3000 -1.6842
v  -4.0000 0.0000 -1.7245
v  -12.0000 -0.3000 -1.6842
v  -2.0000 0.0000 -1.7245
v  12.0000 -0.3000 -1.6842
v  -2.0000 -0.3000 -1.6842
v  -4.0000 0.0000 -5.1192
v  -4.0000 -0.3000 -5.1463
v  -12.0000 -0.3000 -5.1463
v  -2.0000 0.0000 -5.1192
v  12.0000 -0.3000 -5.1463
v  -2.0000 -0.3000 -5.1463
v  -4.0000 0.0000 -8.5813
v  -4.0000 -0.3000 -8.6083
v  -12.0000 -0.3000 -8.6083
v  -2.0000 0.0000 -8.5813
v  12.0000 -0.3000 -8.6083
v  -2.0000 -0.3000 -8.6083
v  -4.0000 0.0000 -12.0433
v  -4.0000 -0.3000 -12.0704
v  -12.0000 -0.3000 -12.0704
v  -2.0000 0.0000 -12.0433
v  12.0000 -0.3000 -12.0704
v  -2.0000 -0.3000 -12.0704
v  -4.0000 0.0000 -15.5054
v  -4.0000 -0.3000 -15.5325
v  -12.0000 -0.3000 -15.5325
v  -2.0000 0.0000 -15.5054
v  12.0000 -0.3000 -15.5325
v  -2.0000 -0.3000 -15.5325
v  -4.0000 0.0000 -18.9674
v  -4.0000 -0.3000 -18.9945
v  -12.0000 -0.3000 -18.9945
v  -2.0000 0.0000 -18.9674
v  12.0000 -0.3000 -18.9945
v  -2.0000 -0.3000 -18.9945
v  -4.0000 0.0000 -22.4396
v  -4.0000 -0.3000 -22.4663
v  -12.0000 -0.3000 -22.4566
v  -2.0000 0.0000 -22.4432
v  12.0000 -0.3000 -22.4833
v  -2.0000 -0.3000 -22.4699
v  16.0000 0.0000 5.3333
v  19.0000 -3.1650 5.3333
v  19.0000 -3.1650 -0.0000
v  16.0000 0.0000 -0.0000
v  13.0000 0.0000 -32.0000
v  13.0000 0.0000 -26.6667
v  16.0000 0.0000 -26.6667
v  16.0000 0.0000 -32.0000
v  13.0000 0.0000 -21.3333
v  16.0000 0.0000 -21.3333
v  13.0000 0.0000 -16.0000
v  16.0000 0.0000 -16.0000
v  13.0000 0.0000 -10.6667
v  16.0000 0.0000 -10.6667
v  13.0000 0.0000 -5.3333
v  16.0000 0.0000 -5.3333
v  19.0000 -3.1650 -26.6667
v  19.0000 -3.1650 -32.0000
v  19.0000 -3.1650 -21.3333
v  19.0000 -3.1650 -16.0000
v  19.0000 -3.1650 -10.6667
v  19.0000 -3.1650 -5.3333
v  19.0000 -3.1650 26.6667
v  16.0000 0.0000 26.6667
v  16.0000 0.0000 32.0000
v  19.0000 -3.1650 32.0000
v  19.0000 -3.1650 21.3333
v  16.0000 0.0000 21.3333
v  19.0000 -3.1650 16.0000
v  16.0000 0.0000 16.0000
v  19.0000 -3.1650 10.6667
v  16.0000 0.0000 10.6667
v  -13.0000 0.0000 -0.0000
v  -13.0000 0.0000 -5.3333
v  -16.0000 0.0000 -5.3333
v  -16.0000 0.0000 -0.0000
v  -19.0000 -3.1650 5.3333
v  -16.0000 0.0000 5.3333
v  -19.0000 -3.1650 -0.0000
v  -13.0000 0.0000 32.0000
v  -13.0000 0.0000 26.6667
v  -16.0000 0.0000 26.6667
v  -16.0000 0.0000 32.0000
v  -13.0000 0.0000 21.3333
v  -16.0000 0.0000 21.3333
v  -13.0000 0.0000 16.0000
v  -16.0000 0.0000 16.0000
v  -13.0000 0.0000 10.6667
v  -16.0000 0.0000 10.6667
v  -13.0000 0.0000 5.3333
v  -19.0000 -3.1650 -26.6667
v  -16.0000 0.0000 -26.6667
v  -16.0000 0.0000 -32.0000
v  -19.0000 -3.1650 -32.0000
v  -19.0000 -3.1650 -21.3333
v  -16.0000 0.0000 -21.3333
v  -19.0000 -3.1650 -16.0000
v  -16.0000 0.0000 -16.0000
v  -19.0000 -3.1650 -10.6667
v  -16.0000 0.0000 -10.6667
v  -19.0000 -3.1650 -5.3333
v  -19.0000 -3.1650 26.6667
v  -19.0000 -3.1650 32.0000
v  -19.0000 -3.1650 21.3333
v  -19.0000 -3.1650 16.0000
v  -19.0000 -3.1650 10.6667
v  13.0000 0.0000 -0.0000
v  13.0000 0.0000 26.6667
v  13.0000 0.0000 32.0000
v  13.0000 0.0000 21.3333
v  13.0000 0.0000 16.0000
v  13.0000 0.0000 10.6667
v  13.0000 0.0000 5.3333
v  -13.0000 0.0000 -26.6667
v  -13.0000 0.0000 -32.0000
v  -13.0000 0.0000 -21.3333
v  -13.0000 0.0000 -16.0000
v  -13.0000 0.0000 -10.6667
# 198 vertices

vn 0.0000 1.0000 -0.0000
vn -1.0000 0.0000 -0.0000
vn 1.0000 0.0000 -0.0000
vn 0.0000 0.0000 1.0000
vn 0.0000 0.0000 -1.0000
vn 0.7258 0.6879 -0.0000
vn -0.7258 0.6879 -0.0000
# 7 vertex normals

vt 0.6278 -0.0000 0.0000
vt 0.8757 0.0000 0.0000
vt 0.8757 0.0525 0.0000
vt 0.6278 0.0525 0.0000
vt 0.5639 -0.0000 0.0000
vt 0.6278 0.0544 0.0000
vt 0.5639 0.0544 0.0000
vt 0.1287 -0.0000 0.0000
vt 0.5639 0.0525 0.0000
vt 0.1287 0.0526 0.0000
vt 0.5817 1.0000 0.0000
vt 0.5817 -0.0000 0.0000
vt 0.5825 -0.0000 0.0000
vt 0.5825 1.0000 0.0000
vt 0.5977 1.0000 0.0000
vt 0.5986 1.0000 0.0000
vt 0.5986 -0.0000 0.0000
vt 0.5977 -0.0000 0.0000
vt 0.6226 1.0000 0.0000
vt 0.5673 1.0000 0.0000
vt 0.5673 -0.0000 0.0000
vt 0.6226 -0.0000 0.0000
vt 0.6278 0.9475 0.0000
vt 0.8757 0.9475 0.0000
vt 0.8757 1.0000 0.0000
vt 0.6278 1.0000 0.0000
vt 0.5639 0.9494 0.0000
vt 0.6278 0.9494 0.0000
vt 0.5639 1.0000 0.0000
vt 0.1287 0.9474 0.0000
vt 0.5639 0.9475 0.0000
vt 0.1287 1.0000 0.0000
vt 0.5833 -0.0000 0.0000
vt 0.5833 1.0000 0.0000
vt 0.8757 0.0965 0.0000
vt 0.6278 0.0965 0.0000
vt 0.6278 0.0969 0.0000
vt 0.5639 0.0969 0.0000
vt 0.5639 0.0965 0.0000
vt 0.1287 0.0965 0.0000
vt 0.5970 1.0000 0.0000
vt 0.5970 -0.0000 0.0000
vt 0.5842 1.0000 0.0000
vt 0.5842 -0.0000 0.0000
vt 0.6278 0.9035 0.0000
vt 0.8757 0.9035 0.0000
vt 0.5639 0.9029 0.0000
vt 0.6278 0.9029 0.0000
vt 0.1287 0.9035 0.0000
vt 0.5639 0.9035 0.0000
vt 0.6278 0.8509 0.0000
vt 0.8757 0.8509 0.0000
vt 0.5639 0.8503 0.0000
vt 0.6278 0.8503 0.0000
vt 0.1287 0.8509 0.0000
vt 0.5639 0.8509 0.0000
vt 0.5851 1.0000 0.0000
vt 0.5851 -0.0000 0.0000
vt 0.6278 0.7983 0.0000
vt 0.8757 0.7983 0.0000
vt 0.5639 0.7976 0.0000
vt 0.6278 0.7976 0.0000
vt 0.1287 0.7983 0.0000
vt 0.5639 0.7983 0.0000
vt 0.5860 1.0000 0.0000
vt 0.5860 -0.0000 0.0000
vt 0.6278 0.7442 0.0000
vt 0.8757 0.7442 0.0000
vt 0.5639 0.7435 0.0000
vt 0.6278 0.7435 0.0000
vt 0.1287 0.7442 0.0000
vt 0.5639 0.7442 0.0000
vt 0.5869 1.0000 0.0000
vt 0.5869 -0.0000 0.0000
vt 0.6278 0.6901 0.0000
vt 0.8757 0.6901 0.0000
vt 0.5639 0.6894 0.0000
vt 0.6278 0.6894 0.0000
vt 0.1287 0.6901 0.0000
vt 0.5639 0.6901 0.0000
vt 0.5878 1.0000 0.0000
vt 0.5878 -0.0000 0.0000
vt 0.6278 0.6360 0.0000
vt 0.8757 0.6360 0.0000
vt 0.5639 0.6353 0.0000
vt 0.6278 0.6353 0.0000
vt 0.1287 0.6360 0.0000
vt 0.5639 0.6360 0.0000
vt 0.5888 1.0000 0.0000
vt 0.5888 -0.0000 0.0000
vt 0.6278 0.5819 0.0000
vt 0.8757 0.5819 0.0000
vt 0.5639 0.5812 0.0000
vt 0.6278 0.5812 0.0000
vt 0.1287 0.5819 0.0000
vt 0.5639 0.5819 0.0000
vt 0.5897 1.0000 0.0000
vt 0.5897 -0.0000 0.0000
vt 0.6278 0.5278 0.0000
vt 0.8757 0.5278 0.0000
vt 0.5639 0.5271 0.0000
vt 0.6278 0.5271 0.0000
vt 0.1287 0.5278 0.0000
vt 0.5639 0.5278 0.0000
vt 0.5906 1.0000 0.0000
vt 0.5906 -0.0000 0.0000
vt 0.6278 0.4737 0.0000
vt 0.8757 0.4737 0.0000
vt 0.5639 0.4731 0.0000
vt 0.6278 0.4731 0.0000
vt 0.1287 0.4737 0.0000
vt 0.5639 0.4737 0.0000
vt 0.5915 -0.0000 0.0000
vt 0.5915 1.0000 0.0000
vt 0.6278 0.4196 0.0000
vt 0.8757 0.4196 0.0000
vt 0.5639 0.4200 0.0000
vt 0.6278 0.4200 0.0000
vt 0.1287 0.4196 0.0000
vt 0.5639 0.4196 0.0000
vt 0.5924 -0.0000 0.0000
vt 0.5925 1.0000 0.0000
vt 0.6278 0.3655 0.0000
vt 0.8757 0.3655 0.0000
vt 0.5639 0.3659 0.0000
vt 0.6278 0.3659 0.0000
vt 0.1287 0.3655 0.0000
vt 0.5639 0.3655 0.0000
vt 0.5933 -0.0000 0.0000
vt 0.5933 1.0000 0.0000
vt 0.6278 0.3114 0.0000
vt 0.8757 0.3114 0.0000
vt 0.5639 0.3118 0.0000
vt 0.6278 0.3118 0.0000
vt 0.1287 0.3114 0.0000
vt 0.5639 0.3114 0.0000
vt 0.5942 -0.0000 0.0000
vt 0.5942 1.0000 0.0000
vt 0.6278 0.2573 0.0000
vt 0.8757 0.2573 0.0000
vt 0.5639 0.2577 0.0000
vt 0.6278 0.2577 0.0000
vt 0.1287 0.2573 0.0000
vt 0.5639 0.2573 0.0000
vt 0.5952 -0.0000 0.0000
vt 0.5952 1.0000 0.0000
vt 0.6278 0.2032 0.0000
vt 0.8757 0.2032 0.0000
vt 0.5639 0.2036 0.0000
vt 0.6278 0.2036 0.0000
vt 0.1287 0.2032 0.0000
vt 0.5639 0.2032 0.0000
vt 0.5961 -0.0000 0.0000
vt 0.5961 1.0000 0.0000
vt 0.6278 0.1490 0.0000
vt 0.8757 0.1491 0.0000
vt 0.5639 0.1493 0.0000
vt 0.6278 0.1494 0.0000
vt 0.1287 0.1487 0.0000
vt 0.5639 0.1489 0.0000
vt 0.0348 1.0000 0.0000
vt 0.0348 -0.0000 0.0000
vt 0.0298 -0.0000 0.0000
vt 0.0298 1.0000 0.0000
vt 0.9066 1.0000 0.0000
vt 0.9066 0.9167 0.0000
vt 1.0000 0.9167 0.0000
vt 1.0000 1.0000 0.0000
vt 0.9066 0.8333 0.0000
vt 1.0000 0.8333 0.0000
vt 0.9066 0.7500 0.0000
vt 1.0000 0.7500 0.0000
vt 0.9066 0.6667 0.0000
vt 1.0000 0.6667 0.0000
vt 0.9066 0.5833 0.0000
vt 1.0000 0.5833 0.0000
vt 0.0050 1.0000 0.0000
vt 0.0050 -0.0000 0.0000
vt 0.0000 -0.0000 0.0000
vt 0.0000 1.0000 0.0000
vt 0.0099 1.0000 0.0000
vt 0.0099 -0.0000 0.0000
vt 0.0149 1.0000 0.0000
vt 0.0149 -0.0000 0.0000
vt 0.0199 1.0000 0.0000
vt 0.0199 -0.0000 0.0000
vt 0.0249 1.0000 0.0000
vt 0.0249 -0.0000 0.0000
vt 0.0547 -0.0000 0.0000
vt 0.0547 1.0000 0.0000
vt 0.0597 1.0000 0.0000
vt 0.0597 -0.0000 0.0000
vt 0.0497 -0.0000 0.0000
vt 0.0497 1.0000 0.0000
vt 0.0447 -0.0000 0.0000
vt 0.0447 1.0000 0.0000
vt 0.0398 -0.0000 0.0000
vt 0.0398 1.0000 0.0000
vt 0.0946 0.5000 0.0000
vt 0.0946 0.5833 0.0000
vt 0.0000 0.5833 0.0000
vt 0.0000 0.5000 0.0000
vt 0.0348 0.0000 0.0000
vt 0.0298 0.0000 0.0000
vt 0.0946 0.0000 0.0000
vt 0.0946 0.0833 0.0000
vt 0.0000 0.0833 0.0000
vt 0.0000 0.0000 0.0000
vt 0.0946 0.1667 0.0000
vt 0.0000 0.1667 0.0000
vt 0.0946 0.2500 0.0000
vt 0.0000 0.2500 0.0000
vt 0.0946 0.3333 0.0000
vt 0.0000 0.3333 0.0000
vt 0.0946 0.4167 0.0000
vt 0.0000 0.4167 0.0000
vt 0.0050 0.0000 0.0000
vt 0.0099 0.0000 0.0000
vt 0.0149 0.0000 0.0000
vt 0.0199 0.0000 0.0000
vt 0.0249 0.0000 0.0000
vt 0.0547 0.0000 0.0000
vt 0.0597 0.0000 0.0000
vt 0.0497 0.0000 0.0000
vt 0.0447 0.0000 0.0000
vt 0.0398 0.0000 0.0000
vt 1.0000 0.5000 0.0000
vt 0.9066 0.5000 0.0000
vt 1.0000 0.0000 0.0000
vt 1.0000 0.0833 0.0000
vt 0.9066 0.0833 0.0000
vt 0.9066 0.0000 0.0000
vt 1.0000 0.1667 0.0000
vt 0.9066 0.1667 0.0000
vt 1.0000 0.2500 0.0000
vt 0.9066 0.2500 0.0000
vt 1.0000 0.3333 0.0000
vt 0.9066 0.3333 0.0000
vt 1.0000 0.4167 0.0000
vt 0.9066 0.4167 0.0000
vt 0.0000 0.9167 0.0000
vt 0.0946 0.9167 0.0000
vt 0.0946 1.0000 0.0000
vt 0.0000 0.8333 0.0000
vt 0.0946 0.8333 0.0000
vt 0.0000 0.7500 0.0000
vt 0.0946 0.7500 0.0000
vt 0.0000 0.6667 0.0000
vt 0.0946 0.6667 0.0000
# 249 texture coords

g Ground
s 1
f 1/1/1 2/2/1 3/3/1 4/4/1 
f 5/5/1 6/1/1 7/6/1 8/7/1 
f 9/8/1 10/5/1 11/9/1 12/10/1 
s off
f 13/11/2 14/12/2 15/13/2 16/14/2 
f 11/15/3 10/16/3 5/17/3 8/18/3 
f 13/19/4 17/20/4 18/21/4 14/22/4 
f 10/20/5 1/19/5 6/22/5 5/21/5 
s 1
f 16/23/1 19/24/1 20/25/1 13/26/1 
f 21/27/1 15/28/1 14/26/1 18/29/1 
f 22/30/1 23/31/1 17/29/1 24/32/1 
s off
f 16/14/2 15/13/2 25/33/2 26/34/2 
f 17/11/3 23/14/3 21/13/3 18/12/3 
s 1
f 4/4/1 3/3/1 27/35/1 28/36/1 
f 8/7/1 7/6/1 29/37/1 30/38/1 
f 12/10/1 11/9/1 31/39/1 32/40/1 
s off
f 31/41/3 11/15/3 8/18/3 30/42/3 
f 4/15/2 7/18/2 6/17/2 1/16/2 
f 33/43/2 26/34/2 25/33/2 34/44/2 
s 1
f 26/45/1 35/46/1 19/24/1 16/23/1 
f 36/47/1 25/48/1 15/28/1 21/27/1 
f 37/49/1 38/50/1 23/31/1 22/30/1 
s off
f 23/14/3 38/34/3 36/33/3 21/13/3 
s 1
f 33/51/1 39/52/1 35/46/1 26/45/1 
f 40/53/1 34/54/1 25/48/1 36/47/1 
f 41/55/1 42/56/1 38/50/1 37/49/1 
s off
f 42/43/3 40/44/3 36/33/3 38/34/3 
f 43/57/2 33/43/2 34/44/2 44/58/2 
s 1
f 43/59/1 45/60/1 39/52/1 33/51/1 
f 46/61/1 44/62/1 34/54/1 40/53/1 
f 47/63/1 48/64/1 42/56/1 41/55/1 
s off
f 48/57/3 46/58/3 40/44/3 42/43/3 
f 49/65/2 43/57/2 44/58/2 50/66/2 
s 1
f 49/67/1 51/68/1 45/60/1 43/59/1 
f 52/69/1 50/70/1 44/62/1 46/61/1 
f 53/71/1 54/72/1 48/64/1 47/63/1 
s off
f 54/65/3 52/66/3 46/58/3 48/57/3 
f 55/73/2 49/65/2 50/66/2 56/74/2 
s 1
f 55/75/1 57/76/1 51/68/1 49/67/1 
f 58/77/1 56/78/1 50/70/1 52/69/1 
f 59/79/1 60/80/1 54/72/1 53/71/1 
s off
f 60/73/3 58/74/3 52/66/3 54/65/3 
f 61/81/2 55/73/2 56/74/2 62/82/2 
s 1
f 61/83/1 63/84/1 57/76/1 55/75/1 
f 64/85/1 62/86/1 56/78/1 58/77/1 
f 65/87/1 66/88/1 60/80/1 59/79/1 
s off
f 66/81/3 64/82/3 58/74/3 60/73/3 
f 67/89/2 61/81/2 62/82/2 68/90/2 
s 1
f 67/91/1 69/92/1 63/84/1 61/83/1 
f 70/93/1 68/94/1 62/86/1 64/85/1 
f 71/95/1 72/96/1 66/88/1 65/87/1 
s off
f 72/89/3 70/90/3 64/82/3 66/81/3 
f 73/97/2 67/89/2 68/90/2 74/98/2 
s 1
f 73/99/1 75/100/1 69/92/1 67/91/1 
f 76/101/1 74/102/1 68/94/1 70/93/1 
f 77/103/1 78/104/1 72/96/1 71/95/1 
s off
f 78/97/3 76/98/3 70/90/3 72/89/3 
f 79/105/2 73/97/2 74/98/2 80/106/2 
s 1
f 79/107/1 81/108/1 75/100/1 73/99/1 
f 82/109/1 80/110/1 74/102/1 76/101/1 
f 83/111/1 84/112/1 78/104/1 77/103/1 
s off
f 84/105/3 82/106/3 76/98/3 78/97/3 
f 79/105/2 80/106/2 85/113/2 86/114/2 
s 1
f 86/115/1 87/116/1 81/108/1 79/107/1 
f 88/117/1 85/118/1 80/110/1 82/109/1 
f 89/119/1 90/120/1 84/112/1 83/111/1 
s off
f 90/114/3 88/113/3 82/106/3 84/105/3 
f 86/114/2 85/113/2 91/121/2 92/122/2 
s 1
f 92/123/1 93/124/1 87/116/1 86/115/1 
f 94/125/1 91/126/1 85/118/1 88/117/1 
f 95/127/1 96/128/1 90/120/1 89/119/1 
s off
f 90/114/3 96/122/3 94/121/3 88/113/3 
f 92/122/2 91/121/2 97/129/2 98/130/2 
s 1
f 98/131/1 99/132/1 93/124/1 92/123/1 
f 100/133/1 97/134/1 91/126/1 94/125/1 
f 101/135/1 102/136/1 96/128/1 95/127/1 
s off
f 96/122/3 102/130/3 100/129/3 94/121/3 
f 98/130/2 97/129/2 103/137/2 104/138/2 
s 1
f 104/139/1 105/140/1 99/132/1 98/131/1 
f 106/141/1 103/142/1 97/134/1 100/133/1 
f 107/143/1 108/144/1 102/136/1 101/135/1 
s off
f 102/130/3 108/138/3 106/137/3 100/129/3 
f 104/138/2 103/137/2 109/145/2 110/146/2 
s 1
f 110/147/1 111/148/1 105/140/1 104/139/1 
f 112/149/1 109/150/1 103/142/1 106/141/1 
f 113/151/1 114/152/1 108/144/1 107/143/1 
s off
f 108/138/3 114/146/3 112/145/3 106/137/3 
f 110/146/2 109/145/2 115/153/2 116/154/2 
s 1
f 116/155/1 117/156/1 111/148/1 110/147/1 
f 118/157/1 115/158/1 109/150/1 112/149/1 
f 119/159/1 120/160/1 114/152/1 113/151/1 
s off
f 114/146/3 120/154/3 118/153/3 112/145/3 
f 116/154/2 115/153/2 29/42/2 28/41/2 
s 1
f 28/36/1 27/35/1 117/156/1 116/155/1 
f 30/38/1 29/37/1 115/158/1 118/157/1 
f 32/40/1 31/39/1 120/160/1 119/159/1 
s off
f 120/154/3 31/41/3 30/42/3 118/153/3 
f 28/41/2 29/42/2 7/18/2 4/15/2 
f 121/161/6 122/162/6 123/163/6 124/164/6 
s 1
f 125/165/1 126/166/1 127/167/1 128/168/1 
f 126/166/1 129/169/1 130/170/1 127/167/1 
f 129/169/1 131/171/1 132/172/1 130/170/1 
f 131/171/1 133/173/1 134/174/1 132/172/1 
f 133/173/1 135/175/1 136/176/1 134/174/1 
s off
f 127/177/6 137/178/6 138/179/6 128/180/6 
f 130/181/6 139/182/6 137/178/6 127/177/6 
f 132/183/6 140/184/6 139/182/6 130/181/6 
f 134/185/6 141/186/6 140/184/6 132/183/6 
f 136/187/6 142/188/6 141/186/6 134/185/6 
f 124/164/6 123/163/6 142/188/6 136/187/6 
f 143/189/6 144/190/6 145/191/6 146/192/6 
f 147/193/6 148/194/6 144/190/6 143/189/6 
f 149/195/6 150/196/6 148/194/6 147/193/6 
f 151/197/6 152/198/6 150/196/6 149/195/6 
f 122/162/6 121/161/6 152/198/6 151/197/6 
s 1
f 153/199/1 154/200/1 155/201/1 156/202/1 
s off
f 157/203/7 158/161/7 156/164/7 159/204/7 
s 1
f 160/205/1 161/206/1 162/207/1 163/208/1 
f 161/206/1 164/209/1 165/210/1 162/207/1 
f 164/209/1 166/211/1 167/212/1 165/210/1 
f 166/211/1 168/213/1 169/214/1 167/212/1 
f 168/213/1 170/215/1 158/216/1 169/214/1 
f 170/215/1 153/199/1 156/202/1 158/216/1 
s off
f 171/217/7 172/177/7 173/180/7 174/208/7 
f 175/218/7 176/181/7 172/177/7 171/217/7 
f 177/219/7 178/183/7 176/181/7 175/218/7 
f 179/220/7 180/185/7 178/183/7 177/219/7 
f 181/221/7 155/187/7 180/185/7 179/220/7 
f 159/204/7 156/164/7 155/187/7 181/221/7 
f 162/190/7 182/222/7 183/223/7 163/191/7 
f 165/194/7 184/224/7 182/222/7 162/190/7 
f 167/196/7 185/225/7 184/224/7 165/194/7 
f 169/198/7 186/226/7 185/225/7 167/196/7 
f 158/161/7 157/203/7 186/226/7 169/198/7 
s 1
f 124/227/1 136/176/1 135/175/1 187/228/1 
f 145/229/1 144/230/1 188/231/1 189/232/1 
f 144/230/1 148/233/1 190/234/1 188/231/1 
f 148/233/1 150/235/1 191/236/1 190/234/1 
f 150/235/1 152/237/1 192/238/1 191/236/1 
f 152/237/1 121/239/1 193/240/1 192/238/1 
f 121/239/1 124/227/1 187/228/1 193/240/1 
f 173/180/1 172/241/1 194/242/1 195/243/1 
f 172/241/1 176/244/1 196/245/1 194/242/1 
f 176/244/1 178/246/1 197/247/1 196/245/1 
f 178/246/1 180/248/1 198/249/1 197/247/1 
f 180/248/1 155/201/1 154/200/1 198/249/1 
# 145 polygons

