# 3ds Max Wavefront OBJ Exporter v0.97b - (c)2007 guruware
# File Created: 14.02.2018 17:34:47

#
# object Plane003
#

v  1.8757 -0.2950 -16.0000
v  0.2996 -0.2950 -16.0000
v  -2.0055 -0.2950 -0.0000
v  0.6506 -0.2950 -0.0000
v  1.5408 -0.2950 -32.0000
v  1.8757 -0.2950 -32.0000
v  -3.2466 -0.2950 16.0000
v  -1.6245 -0.2950 16.0000
v  -3.2466 -0.2950 32.0000
v  -2.8496 -0.2950 32.0000
# 10 vertices

vn 0.0000 1.0000 -0.0000
# 1 vertex normals

vt 0.8439 0.7500 0.0000
vt 0.7763 0.7500 0.0000
vt 0.7529 0.5000 0.0000
vt 0.8662 0.5000 0.0000
vt 0.7998 1.0000 0.0000
vt 0.8215 1.0000 0.0000
vt 0.8438 0.7500 0.0000
vt 0.8214 1.0000 0.0000
vt 0.7997 1.0000 0.0000
# 9 texture coords

g Plane003
s 1
f 1/1/1 2/2/1 3/3/1 4/4/1 
f 5/5/1 2/2/1 1/1/1 6/6/1 
f 7/7/1 8/2/1 4/3/1 3/4/1 
f 9/8/1 10/9/1 8/2/1 7/7/1 
# 4 polygons

