# 3ds Max Wavefront OBJ Exporter v0.97b - (c)2007 guruware
# File Created: 05.02.2018 23:56:58

#
# object MedCon_OnePlusThreeS_Start
#

v  3.2231 -0.2955 -32.0000
v  2.8869 -0.2955 -32.0000
v  2.4305 -0.2962 -16.0000
v  3.1879 -0.2962 -16.0000
v  1.4383 -0.2978 0.0000
v  3.1108 -0.2978 -0.0000
v  0.4481 -0.2993 16.0000
v  3.0342 -0.2993 16.0000
v  0.0000 -0.3000 32.0000
v  3.0000 -0.3000 32.0000
v  -3.0692 -0.2950 32.0000
v  -2.5761 -0.2950 16.0000
v  -2.7561 -0.2950 16.0000
v  -3.2492 -0.2950 32.0000
v  -1.4914 -0.2950 -0.0000
v  -1.6714 -0.2950 -0.0000
v  -0.4067 -0.2950 -16.0000
v  -0.5867 -0.2950 -16.0000
v  0.0863 -0.2950 -32.0000
v  -0.0937 -0.2950 -32.0000
v  -6.2920 -0.2950 32.0000
v  -5.7990 -0.2950 16.0000
v  -5.9790 -0.2950 16.0000
v  -6.4720 -0.2950 32.0000
v  -4.7143 -0.2950 -0.0000
v  -4.8943 -0.2950 -0.0000
v  -3.6296 -0.2950 -16.0000
v  -3.8096 -0.2950 -16.0000
v  -3.1366 -0.2950 -32.0000
v  -3.3166 -0.2950 -32.0000
# 30 vertices

vn 0.0000 1.0000 -0.0000
# 1 vertex normals

vt 0.7983 0.9979 0.0000
vt 0.8177 0.9977 0.0000
vt 0.8429 0.7489 0.0000
vt 0.7752 0.7489 0.0000
vt 0.8666 0.5000 0.0000
vt 0.7520 0.5000 0.0000
vt 0.8903 0.2511 0.0000
vt 0.7289 0.2511 0.0000
vt 0.9140 0.0023 0.0000
vt 0.7058 0.0021 0.0000
vt 0.1635 0.0000 0.0000
vt 0.1635 0.2500 0.0000
vt 0.1589 0.2500 0.0000
vt 0.1589 0.0000 0.0000
vt 0.1635 0.5000 0.0000
vt 0.1589 0.5000 0.0000
vt 0.1635 0.7500 0.0000
vt 0.1589 0.7500 0.0000
vt 0.1635 1.0000 0.0000
vt 0.1589 1.0000 0.0000
# 20 texture coords

g MedCon_OnePlusThreeS_Start
s 1
f 1/1/1 2/2/1 3/3/1 4/4/1 
f 4/4/1 3/3/1 5/5/1 6/6/1 
f 5/5/1 7/7/1 8/8/1 6/6/1 
f 7/7/1 9/9/1 10/10/1 8/8/1 
f 11/11/1 12/12/1 13/13/1 14/14/1 
f 13/13/1 12/12/1 15/15/1 16/16/1 
f 15/15/1 17/17/1 18/18/1 16/16/1 
f 17/17/1 19/19/1 20/20/1 18/18/1 
f 21/11/1 22/12/1 23/13/1 24/14/1 
f 23/13/1 22/12/1 25/15/1 26/16/1 
f 25/15/1 27/17/1 28/18/1 26/16/1 
f 27/17/1 29/19/1 30/20/1 28/18/1 
# 12 polygons

