# 3ds Max Wavefront OBJ Exporter v0.97b - (c)2007 guruware
# File Created: 04.02.2018 23:24:14

#
# object Plane005
#

v  2.8632 -0.2955 32.0000
v  3.2232 -0.2955 32.0000
v  3.1635 -0.2955 26.6667
v  2.8034 -0.2955 26.6667
v  2.9981 -0.2955 21.3333
v  2.6380 -0.2955 21.3333
v  2.7481 -0.2955 16.0000
v  2.3879 -0.2955 16.0000
v  2.4347 -0.2954 10.6667
v  2.0744 -0.2954 10.6667
v  2.0789 -0.2954 5.3333
v  1.7186 -0.2954 5.3333
v  1.7019 -0.2954 -0.0000
v  1.3417 -0.2954 -0.0000
v  1.3249 -0.2954 -5.3333
v  0.9647 -0.2954 -5.3333
v  0.9691 -0.2954 -10.6667
v  0.6090 -0.2954 -10.6667
v  0.6555 -0.2953 -16.0000
v  0.2955 -0.2953 -16.0000
v  0.4054 -0.2953 -21.3333
v  0.0454 -0.2953 -21.3333
v  0.2399 -0.2953 -26.6667
v  -0.1201 -0.2953 -26.6667
v  0.1800 -0.2953 -32.0000
v  -0.1800 -0.2953 -32.0000
# 26 vertices

vn -0.0000 1.0000 0.0000
vn 0.0000 1.0000 0.0000
# 2 vertex normals

vt 0.1015 0.0000 0.0000
vt 0.1192 0.0000 0.0000
vt 0.1192 0.0833 0.0000
vt 0.1015 0.0833 0.0000
vt 0.1192 0.1667 0.0000
vt 0.1015 0.1667 0.0000
vt 0.1192 0.2500 0.0000
vt 0.1015 0.2500 0.0000
vt 0.1192 0.3333 0.0000
vt 0.1015 0.3333 0.0000
vt 0.1192 0.4167 0.0000
vt 0.1015 0.4167 0.0000
vt 0.1192 0.5000 0.0000
vt 0.1015 0.5000 0.0000
vt 0.1192 0.5833 0.0000
vt 0.1015 0.5833 0.0000
vt 0.1192 0.6667 0.0000
vt 0.1015 0.6667 0.0000
vt 0.1192 0.7500 0.0000
vt 0.1015 0.7500 0.0000
vt 0.1192 0.8333 0.0000
vt 0.1015 0.8333 0.0000
vt 0.1192 0.9167 0.0000
vt 0.1015 0.9167 0.0000
vt 0.1192 1.0000 0.0000
vt 0.1015 1.0000 0.0000
# 26 texture coords

g Plane005
s 1
f 1/1/1 2/2/2 3/3/1 4/4/1 
f 4/4/1 3/3/1 5/5/1 6/6/1 
f 6/6/1 5/5/1 7/7/1 8/8/1 
f 8/8/1 7/7/1 9/9/1 10/10/1 
f 10/10/1 9/9/1 11/11/1 12/12/1 
f 12/12/1 11/11/1 13/13/1 14/14/1 
f 14/14/1 13/13/1 15/15/1 16/16/1 
f 16/16/1 15/15/1 17/17/1 18/18/1 
f 18/18/1 17/17/1 19/19/1 20/20/1 
f 20/20/1 19/19/1 21/21/1 22/22/2 
f 22/22/2 21/21/1 23/23/2 24/24/2 
f 24/24/2 23/23/2 25/25/2 26/26/2 
# 12 polygons

