# 3ds Max Wavefront OBJ Exporter v0.97b - (c)2007 guruware
# File Created: 05.02.2018 23:54:55

#
# object MedCon_OnePlusThreeS_Start
#

v  3.2231 -0.2955 32.0000
v  2.8869 -0.2955 32.0000
v  2.8280 -0.2956 26.6667
v  3.2186 -0.2956 26.6667
v  2.6691 -0.2959 21.3333
v  3.2063 -0.2959 21.3333
v  2.4305 -0.2962 16.0000
v  3.1879 -0.2962 16.0000
v  2.1327 -0.2967 10.6667
v  3.1648 -0.2967 10.6667
v  1.7953 -0.2972 5.3333
v  3.1386 -0.2972 5.3333
v  1.4383 -0.2978 -0.0000
v  3.1108 -0.2978 -0.0000
v  1.0813 -0.2983 -5.3333
v  3.0831 -0.2983 -5.3333
v  0.7446 -0.2988 -10.6667
v  3.0571 -0.2988 -10.6667
v  0.4481 -0.2993 -16.0000
v  3.0342 -0.2993 -16.0000
v  0.2116 -0.2996 -21.3333
v  3.0161 -0.2996 -21.3333
v  0.0556 -0.2999 -26.6667
v  3.0041 -0.2999 -26.6667
v  0.0000 -0.3000 -32.0000
v  3.0000 -0.3000 -32.0000
v  -3.2492 -0.2950 -32.0000
v  -3.0692 -0.2950 -32.0000
v  -3.0071 -0.2950 -26.6667
v  -3.1871 -0.2950 -26.6667
v  -2.8354 -0.2950 -21.3333
v  -3.0154 -0.2950 -21.3333
v  -2.5761 -0.2950 -16.0000
v  -2.7561 -0.2950 -16.0000
v  -2.2511 -0.2950 -10.6667
v  -2.4311 -0.2950 -10.6667
v  -1.8822 -0.2950 -5.3333
v  -2.0622 -0.2950 -5.3333
v  -1.4914 -0.2950 0.0000
v  -1.6714 -0.2950 0.0000
v  -1.1006 -0.2950 5.3333
v  -1.2806 -0.2950 5.3333
v  -0.7318 -0.2950 10.6667
v  -0.9118 -0.2950 10.6667
v  -0.4067 -0.2950 16.0000
v  -0.5867 -0.2950 16.0000
v  -0.1474 -0.2950 21.3333
v  -0.3274 -0.2950 21.3333
v  0.0242 -0.2950 26.6667
v  -0.1558 -0.2950 26.6667
v  0.0863 -0.2950 32.0000
v  -0.0937 -0.2950 32.0000
v  -6.4720 -0.2950 -32.0000
v  -6.2920 -0.2950 -32.0000
v  -6.2300 -0.2950 -26.6667
v  -6.4100 -0.2950 -26.6667
v  -6.0583 -0.2950 -21.3333
v  -6.2383 -0.2950 -21.3333
v  -5.7990 -0.2950 -16.0000
v  -5.9790 -0.2950 -16.0000
v  -5.4740 -0.2950 -10.6667
v  -5.6540 -0.2950 -10.6667
v  -5.1051 -0.2950 -5.3333
v  -5.2851 -0.2950 -5.3333
v  -4.7143 -0.2950 0.0000
v  -4.8943 -0.2950 0.0000
v  -4.3235 -0.2950 5.3333
v  -4.5035 -0.2950 5.3333
v  -3.9546 -0.2950 10.6667
v  -4.1346 -0.2950 10.6667
v  -3.6296 -0.2950 16.0000
v  -3.8096 -0.2950 16.0000
v  -3.3703 -0.2950 21.3333
v  -3.5503 -0.2950 21.3333
v  -3.1987 -0.2950 26.6667
v  -3.3787 -0.2950 26.6667
v  -3.1366 -0.2950 32.0000
v  -3.3166 -0.2950 32.0000
# 78 vertices

vn 0.0000 1.0000 -0.0000
# 1 vertex normals

vt 0.7983 0.9979 0.0000
vt 0.8177 0.9977 0.0000
vt 0.8270 0.9148 0.0000
vt 0.7906 0.9149 0.0000
vt 0.8350 0.8318 0.0000
vt 0.7829 0.8319 0.0000
vt 0.8429 0.7489 0.0000
vt 0.7752 0.7489 0.0000
vt 0.8508 0.6659 0.0000
vt 0.7675 0.6660 0.0000
vt 0.8587 0.5830 0.0000
vt 0.7598 0.5830 0.0000
vt 0.8666 0.5000 0.0000
vt 0.7520 0.5000 0.0000
vt 0.8745 0.4170 0.0000
vt 0.7443 0.4170 0.0000
vt 0.8824 0.3341 0.0000
vt 0.7366 0.3340 0.0000
vt 0.8903 0.2511 0.0000
vt 0.7289 0.2511 0.0000
vt 0.8982 0.1682 0.0000
vt 0.7212 0.1681 0.0000
vt 0.9061 0.0852 0.0000
vt 0.7135 0.0851 0.0000
vt 0.9140 0.0023 0.0000
vt 0.7058 0.0021 0.0000
vt 0.1589 0.0000 0.0000
vt 0.1635 0.0000 0.0000
vt 0.1635 0.0833 0.0000
vt 0.1589 0.0833 0.0000
vt 0.1635 0.1667 0.0000
vt 0.1589 0.1667 0.0000
vt 0.1635 0.2500 0.0000
vt 0.1589 0.2500 0.0000
vt 0.1635 0.3333 0.0000
vt 0.1589 0.3333 0.0000
vt 0.1635 0.4167 0.0000
vt 0.1589 0.4167 0.0000
vt 0.1635 0.5000 0.0000
vt 0.1589 0.5000 0.0000
vt 0.1635 0.5833 0.0000
vt 0.1589 0.5833 0.0000
vt 0.1635 0.6667 0.0000
vt 0.1589 0.6667 0.0000
vt 0.1635 0.7500 0.0000
vt 0.1589 0.7500 0.0000
vt 0.1635 0.8333 0.0000
vt 0.1589 0.8333 0.0000
vt 0.1635 0.9167 0.0000
vt 0.1589 0.9167 0.0000
vt 0.1635 1.0000 0.0000
vt 0.1589 1.0000 0.0000
# 52 texture coords

g MedCon_OnePlusThreeS_Start
s 1
f 4/4/1 3/3/1 2/2/1 1/1/1 
f 4/4/1 6/6/1 5/5/1 3/3/1 
f 6/6/1 8/8/1 7/7/1 5/5/1 
f 8/8/1 10/10/1 9/9/1 7/7/1 
f 10/10/1 12/12/1 11/11/1 9/9/1 
f 12/12/1 14/14/1 13/13/1 11/11/1 
f 14/14/1 16/16/1 15/15/1 13/13/1 
f 16/16/1 18/18/1 17/17/1 15/15/1 
f 18/18/1 20/20/1 19/19/1 17/17/1 
f 20/20/1 22/22/1 21/21/1 19/19/1 
f 22/22/1 24/24/1 23/23/1 21/21/1 
f 24/24/1 26/26/1 25/25/1 23/23/1 
f 30/30/1 29/29/1 28/28/1 27/27/1 
f 32/32/1 31/31/1 29/29/1 30/30/1 
f 34/34/1 33/33/1 31/31/1 32/32/1 
f 36/36/1 35/35/1 33/33/1 34/34/1 
f 38/38/1 37/37/1 35/35/1 36/36/1 
f 40/40/1 39/39/1 37/37/1 38/38/1 
f 42/42/1 41/41/1 39/39/1 40/40/1 
f 44/44/1 43/43/1 41/41/1 42/42/1 
f 46/46/1 45/45/1 43/43/1 44/44/1 
f 48/48/1 47/47/1 45/45/1 46/46/1 
f 50/50/1 49/49/1 47/47/1 48/48/1 
f 52/52/1 51/51/1 49/49/1 50/50/1 
f 56/30/1 55/29/1 54/28/1 53/27/1 
f 58/32/1 57/31/1 55/29/1 56/30/1 
f 60/34/1 59/33/1 57/31/1 58/32/1 
f 62/36/1 61/35/1 59/33/1 60/34/1 
f 64/38/1 63/37/1 61/35/1 62/36/1 
f 66/40/1 65/39/1 63/37/1 64/38/1 
f 68/42/1 67/41/1 65/39/1 66/40/1 
f 70/44/1 69/43/1 67/41/1 68/42/1 
f 72/46/1 71/45/1 69/43/1 70/44/1 
f 74/48/1 73/47/1 71/45/1 72/46/1 
f 76/50/1 75/49/1 73/47/1 74/48/1 
f 78/52/1 77/51/1 75/49/1 76/50/1 
# 36 polygons

