# 3ds Max Wavefront OBJ Exporter v0.97b - (c)2007 guruware
# File Created: 07.02.2018 14:18:51

#
# object MedCon_OnePlusThreeS_Start001
#

v  2.8869 -0.2955 -32.0000
v  2.8245 -0.2956 -26.6667
v  3.2222 -0.2956 -26.6667
v  3.2231 -0.2955 -32.0000
v  2.6559 -0.2959 -21.3333
v  3.2196 -0.2959 -21.3333
v  2.4026 -0.2962 -16.0000
v  3.2161 -0.2962 -16.0000
v  2.0863 -0.2967 -10.6667
v  3.2115 -0.2967 -10.6667
v  1.7278 -0.2972 -5.3333
v  3.2063 -0.2972 -5.3333
v  1.3485 -0.2978 -0.0000
v  3.2008 -0.2978 -0.0000
v  0.9691 -0.2983 5.3333
v  3.1954 -0.2983 5.3333
v  0.6113 -0.2988 10.6667
v  3.1905 -0.2988 10.6667
v  0.2962 -0.2993 16.0000
v  3.1861 -0.2993 16.0000
v  0.0449 -0.2996 21.3333
v  3.1828 -0.2996 21.3333
v  -0.1209 -0.2999 26.6667
v  3.1805 -0.2999 26.6667
v  -0.1800 -0.3000 32.0000
v  3.1800 -0.3000 32.0000
v  -3.0692 -0.2950 32.0000
v  -3.0071 -0.2950 26.6667
v  -3.1871 -0.2950 26.6667
v  -3.2492 -0.2950 32.0000
v  -2.8354 -0.2950 21.3333
v  -3.0154 -0.2950 21.3333
v  -2.5761 -0.2950 16.0000
v  -2.7561 -0.2950 16.0000
v  -2.2511 -0.2950 10.6667
v  -2.4311 -0.2950 10.6667
v  -1.8822 -0.2950 5.3333
v  -2.0622 -0.2950 5.3333
v  -1.4914 -0.2950 -0.0000
v  -1.6714 -0.2950 -0.0000
v  -1.1006 -0.2950 -5.3333
v  -1.2806 -0.2950 -5.3333
v  -0.7318 -0.2950 -10.6667
v  -0.9118 -0.2950 -10.6667
v  -0.4067 -0.2950 -16.0000
v  -0.5867 -0.2950 -16.0000
v  -0.1474 -0.2950 -21.3333
v  -0.3274 -0.2950 -21.3333
v  0.0242 -0.2950 -26.6667
v  -0.1558 -0.2950 -26.6667
v  0.0863 -0.2950 -32.0000
v  -0.0937 -0.2950 -32.0000
v  -6.2920 -0.2950 32.0000
v  -6.2300 -0.2950 26.6667
v  -6.4100 -0.2950 26.6667
v  -6.4720 -0.2950 32.0000
v  -6.0583 -0.2950 21.3333
v  -6.2383 -0.2950 21.3333
v  -5.7990 -0.2950 16.0000
v  -5.9790 -0.2950 16.0000
v  -5.4740 -0.2950 10.6667
v  -5.6540 -0.2950 10.6667
v  -5.1051 -0.2950 5.3333
v  -5.2851 -0.2950 5.3333
v  -4.7143 -0.2950 -0.0000
v  -4.8943 -0.2950 -0.0000
v  -4.3235 -0.2950 -5.3333
v  -4.5035 -0.2950 -5.3333
v  -3.9546 -0.2950 -10.6667
v  -4.1346 -0.2950 -10.6667
v  -3.6296 -0.2950 -16.0000
v  -3.8096 -0.2950 -16.0000
v  -3.3703 -0.2950 -21.3333
v  -3.5503 -0.2950 -21.3333
v  -3.1987 -0.2950 -26.6667
v  -3.3787 -0.2950 -26.6667
v  -3.1366 -0.2950 -32.0000
v  -3.3166 -0.2950 -32.0000
# 78 vertices

vn 0.0000 1.0000 -0.0000
# 1 vertex normals

vt 0.8177 0.9977 0.0000
vt 0.8270 0.9148 0.0000
vt 0.7906 0.9149 0.0000
vt 0.7983 0.9979 0.0000
vt 0.8350 0.8318 0.0000
vt 0.7829 0.8319 0.0000
vt 0.8429 0.7489 0.0000
vt 0.7752 0.7489 0.0000
vt 0.8508 0.6659 0.0000
vt 0.7675 0.6660 0.0000
vt 0.8587 0.5830 0.0000
vt 0.7598 0.5830 0.0000
vt 0.8666 0.5000 0.0000
vt 0.7520 0.5000 0.0000
vt 0.8745 0.4170 0.0000
vt 0.7443 0.4170 0.0000
vt 0.8824 0.3341 0.0000
vt 0.7366 0.3340 0.0000
vt 0.8903 0.2511 0.0000
vt 0.7289 0.2511 0.0000
vt 0.8982 0.1682 0.0000
vt 0.7212 0.1681 0.0000
vt 0.9061 0.0852 0.0000
vt 0.7135 0.0851 0.0000
vt 0.9140 0.0023 0.0000
vt 0.7058 0.0021 0.0000
vt 0.1635 0.0000 0.0000
vt 0.1635 0.0833 0.0000
vt 0.1589 0.0833 0.0000
vt 0.1589 0.0000 0.0000
vt 0.1635 0.1667 0.0000
vt 0.1589 0.1667 0.0000
vt 0.1635 0.2500 0.0000
vt 0.1589 0.2500 0.0000
vt 0.1635 0.3333 0.0000
vt 0.1589 0.3333 0.0000
vt 0.1635 0.4167 0.0000
vt 0.1589 0.4167 0.0000
vt 0.1635 0.5000 0.0000
vt 0.1589 0.5000 0.0000
vt 0.1635 0.5833 0.0000
vt 0.1589 0.5833 0.0000
vt 0.1635 0.6667 0.0000
vt 0.1589 0.6667 0.0000
vt 0.1635 0.7500 0.0000
vt 0.1589 0.7500 0.0000
vt 0.1635 0.8333 0.0000
vt 0.1589 0.8333 0.0000
vt 0.1635 0.9167 0.0000
vt 0.1589 0.9167 0.0000
vt 0.1635 1.0000 0.0000
vt 0.1589 1.0000 0.0000
# 52 texture coords

g MedCon_OnePlusThreeS_Start001
s 1
f 1/1/1 2/2/1 3/3/1 4/4/1 
f 5/5/1 6/6/1 3/3/1 2/2/1 
f 5/5/1 7/7/1 8/8/1 6/6/1 
f 7/7/1 9/9/1 10/10/1 8/8/1 
f 9/9/1 11/11/1 12/12/1 10/10/1 
f 11/11/1 13/13/1 14/14/1 12/12/1 
f 13/13/1 15/15/1 16/16/1 14/14/1 
f 15/15/1 17/17/1 18/18/1 16/16/1 
f 17/17/1 19/19/1 20/20/1 18/18/1 
f 19/19/1 21/21/1 22/22/1 20/20/1 
f 21/21/1 23/23/1 24/24/1 22/22/1 
f 25/25/1 26/26/1 24/24/1 23/23/1 
f 27/27/1 28/28/1 29/29/1 30/30/1 
f 28/28/1 31/31/1 32/32/1 29/29/1 
f 31/31/1 33/33/1 34/34/1 32/32/1 
f 33/33/1 35/35/1 36/36/1 34/34/1 
f 35/35/1 37/37/1 38/38/1 36/36/1 
f 37/37/1 39/39/1 40/40/1 38/38/1 
f 39/39/1 41/41/1 42/42/1 40/40/1 
f 41/41/1 43/43/1 44/44/1 42/42/1 
f 43/43/1 45/45/1 46/46/1 44/44/1 
f 45/45/1 47/47/1 48/48/1 46/46/1 
f 47/47/1 49/49/1 50/50/1 48/48/1 
f 49/49/1 51/51/1 52/52/1 50/50/1 
f 53/27/1 54/28/1 55/29/1 56/30/1 
f 54/28/1 57/31/1 58/32/1 55/29/1 
f 57/31/1 59/33/1 60/34/1 58/32/1 
f 59/33/1 61/35/1 62/36/1 60/34/1 
f 61/35/1 63/37/1 64/38/1 62/36/1 
f 63/37/1 65/39/1 66/40/1 64/38/1 
f 65/39/1 67/41/1 68/42/1 66/40/1 
f 67/41/1 69/43/1 70/44/1 68/42/1 
f 69/43/1 71/45/1 72/46/1 70/44/1 
f 71/45/1 73/47/1 74/48/1 72/46/1 
f 73/47/1 75/49/1 76/50/1 74/48/1 
f 75/49/1 77/51/1 78/52/1 76/50/1 
# 36 polygons

