# 3ds Max Wavefront OBJ Exporter v0.97b - (c)2007 guruware
# File Created: 07.02.2018 17:22:08

#
# object Object004
#

v  3.6778 0.0000 -5.3333
v  3.7712 0.0000 0.0000
v  -0.5988 -0.0000 -0.0000
v  -1.2435 -0.0000 -5.3333
v  -0.5988 -0.3000 -0.0000
v  -1.2435 -0.3000 -5.3333
v  3.8551 0.0000 5.3333
v  3.7934 -0.3000 0.0000
v  3.8761 -0.3000 5.3333
v  4.0186 0.0000 26.6667
v  4.0000 0.0000 32.0000
v  2.0000 0.0000 32.0000
v  1.8988 -0.0000 26.6667
v  4.0130 0.0000 21.3333
v  1.6168 -0.0000 21.3333
v  3.9803 0.0000 16.0000
v  1.1898 -0.0000 16.0000
v  3.9260 0.0000 10.6667
v  0.6541 -0.0000 10.6667
v  0.0459 -0.0000 5.3333
v  -3.0981 -0.0000 -26.6667
v  -3.2000 -0.0000 -32.0000
v  3.2000 0.0000 -32.0000
v  3.2807 0.0000 -26.6667
v  -2.8155 -0.0000 -21.3333
v  3.3747 0.0000 -21.3333
v  -2.3881 -0.0000 -16.0000
v  3.4756 0.0000 -16.0000
v  -1.8521 -0.0000 -10.6667
v  3.5780 0.0000 -10.6667
v  2.0000 -0.3000 32.0000
v  1.8988 -0.3000 26.6667
v  1.6168 -0.3000 21.3333
v  1.1898 -0.3000 16.0000
v  0.6541 -0.3000 10.6667
v  0.0459 -0.3000 5.3333
v  -3.0981 -0.3000 -26.6667
v  -3.2000 -0.3000 -32.0000
v  -2.8155 -0.3000 -21.3333
v  -2.3881 -0.3000 -16.0000
v  -1.8521 -0.3000 -10.6667
v  3.2000 -0.3000 -32.0000
v  3.2814 -0.3000 -26.6667
v  3.3784 -0.3000 -21.3333
v  3.4851 -0.3000 -16.0000
v  3.5958 -0.3000 -10.6667
v  3.7000 -0.3000 -5.3333
v  4.0228 -0.3000 26.6667
v  4.0000 -0.3000 32.0000
v  4.0232 -0.3000 21.3333
v  3.9954 -0.3000 16.0000
v  3.9447 -0.3000 10.6667
v  6.8952 -0.2500 32.0014
v  6.8833 -0.2500 26.5793
v  7.0633 -0.2500 26.5765
v  7.0752 -0.2500 31.9986
v  6.8505 -0.2500 21.1199
v  7.0305 -0.2500 21.1172
v  6.8010 -0.2500 15.7101
v  6.9810 -0.2500 15.7075
v  6.7388 -0.2500 10.3503
v  6.9188 -0.2500 10.3478
v  6.6682 -0.2500 5.0338
v  6.8482 -0.2500 5.0313
v  6.5934 -0.2500 -0.2508
v  6.7734 -0.2500 -0.2533
v  6.5187 -0.2500 -5.5182
v  6.6987 -0.2500 -5.5207
v  6.4481 -0.2500 -10.7833
v  6.6281 -0.2500 -10.7858
v  6.3859 -0.2500 -16.0585
v  6.5659 -0.2500 -16.0611
v  6.3362 -0.2500 -21.3527
v  6.5162 -0.2500 -21.3553
v  6.3034 -0.2500 -26.6680
v  6.4834 -0.2500 -26.6707
v  6.2915 -0.2500 -31.9996
v  6.4715 -0.2500 -31.9996
v  -4.0366 -0.2500 32.0005
v  -4.0718 -0.2500 26.5784
v  -3.8918 -0.2500 26.5786
v  -3.8566 -0.2500 32.0005
v  -4.1876 -0.2500 21.1105
v  -4.0076 -0.2500 21.1108
v  -4.3799 -0.2500 15.6886
v  -4.1999 -0.2500 15.6891
v  -4.6316 -0.2500 10.3145
v  -4.4516 -0.2500 10.3151
v  -4.9243 -0.2500 4.9828
v  -4.7443 -0.2500 4.9833
v  -5.2392 -0.2500 -0.3176
v  -5.0592 -0.2500 -0.3170
v  -5.5567 -0.2500 -5.6003
v  -5.3767 -0.2500 -5.5997
v  -5.8575 -0.2500 -10.8793
v  -5.6775 -0.2500 -10.8789
v  -6.1224 -0.2500 -16.1670
v  -5.9424 -0.2500 -16.1668
v  -6.3327 -0.2500 -21.4713
v  -6.1527 -0.2500 -21.4713
v  -6.4710 -0.2500 -26.7934
v  -6.2910 -0.2500 -26.7934
v  -6.5210 -0.2500 -32.1261
v  -6.3410 -0.2500 -32.1261
v  -0.7788 -0.3000 0.0000
v  -1.4235 -0.3000 -5.3333
v  1.8200 -0.3000 32.0000
v  1.7188 -0.3000 26.6667
v  1.4368 -0.3000 21.3333
v  1.0098 -0.3000 16.0000
v  0.4741 -0.3000 10.6667
v  -0.1341 -0.3000 5.3333
v  -3.2781 -0.3000 -26.6667
v  -3.3800 -0.3000 -32.0000
v  -2.9955 -0.3000 -21.3333
v  -2.5681 -0.3000 -16.0000
v  -2.0321 -0.3000 -10.6667
v  3.9734 -0.3000 -0.0000
v  4.0561 -0.3000 5.3333
v  3.3800 -0.3000 -32.0000
v  3.4614 -0.3000 -26.6667
v  3.5584 -0.3000 -21.3333
v  3.6651 -0.3000 -16.0000
v  3.7758 -0.3000 -10.6667
v  3.8800 -0.3000 -5.3333
v  4.2028 -0.3000 26.6667
v  4.1800 -0.3000 32.0000
v  4.2032 -0.3000 21.3333
v  4.1754 -0.3000 16.0000
v  4.1247 -0.3000 10.6667
# 130 vertices

vn 0.0000 1.0000 -0.0000
vn -1.0000 0.0000 -0.0000
vn 1.0000 0.0000 -0.0000
vn 0.0000 0.0000 -1.0000
vn 0.0000 0.0000 1.0000
vn -0.0000 1.0000 0.0000
vn -0.0000 1.0000 -0.0000
# 7 vertex normals

vt 0.6046 0.5833 0.0000
vt 0.6046 0.5000 0.0000
vt 0.4004 0.5000 0.0000
vt 0.4004 0.5833 0.0000
vt 0.6046 0.4167 0.0000
vt 0.6046 0.0833 0.0000
vt 0.6046 0.0000 0.0000
vt 0.4004 0.0000 0.0000
vt 0.4004 0.0833 0.0000
vt 0.6046 0.1667 0.0000
vt 0.4004 0.1667 0.0000
vt 0.6046 0.2500 0.0000
vt 0.4004 0.2500 0.0000
vt 0.6046 0.3333 0.0000
vt 0.4004 0.3333 0.0000
vt 0.4004 0.4167 0.0000
vt 0.4004 0.9167 0.0000
vt 0.4004 1.0000 0.0000
vt 0.6046 1.0000 0.0000
vt 0.6046 0.9167 0.0000
vt 0.4004 0.8333 0.0000
vt 0.6046 0.8333 0.0000
vt 0.4004 0.7500 0.0000
vt 0.6046 0.7500 0.0000
vt 0.4004 0.6667 0.0000
vt 0.6046 0.6667 0.0000
vt 0.2440 1.0000 0.0000
vt 0.0398 1.0000 0.0000
vt 0.0398 0.0000 0.0000
vt 0.2440 0.0000 0.0000
vt 0.1583 0.0001 0.0000
vt 0.1583 0.0834 0.0000
vt 0.1643 0.0834 0.0000
vt 0.1643 0.0001 0.0000
vt 0.1583 0.1667 0.0000
vt 0.1643 0.1668 0.0000
vt 0.1583 0.2500 0.0000
vt 0.1643 0.2501 0.0000
vt 0.1583 0.3334 0.0000
vt 0.1643 0.3334 0.0000
vt 0.1583 0.4167 0.0000
vt 0.1643 0.4167 0.0000
vt 0.1583 0.5000 0.0000
vt 0.1643 0.5001 0.0000
vt 0.1583 0.5833 0.0000
vt 0.1643 0.5834 0.0000
vt 0.1583 0.6667 0.0000
vt 0.1643 0.6667 0.0000
vt 0.1583 0.7500 0.0000
vt 0.1643 0.7500 0.0000
vt 0.1583 0.8333 0.0000
vt 0.1643 0.8334 0.0000
vt 0.1583 0.9166 0.0000
vt 0.1643 0.9167 0.0000
vt 0.1583 1.0000 0.0000
vt 0.1643 1.0000 0.0000
vt 0.1592 0.0000 0.0000
vt 0.1592 0.0833 0.0000
vt 0.1631 0.0833 0.0000
vt 0.1631 0.0000 0.0000
vt 0.1592 0.1667 0.0000
vt 0.1631 0.1667 0.0000
vt 0.1592 0.2500 0.0000
vt 0.1631 0.2500 0.0000
vt 0.1592 0.3333 0.0000
vt 0.1631 0.3333 0.0000
vt 0.1592 0.4167 0.0000
vt 0.1631 0.4167 0.0000
vt 0.1592 0.5000 0.0000
vt 0.1631 0.5000 0.0000
vt 0.1592 0.5833 0.0000
vt 0.1631 0.5833 0.0000
vt 0.1592 0.6667 0.0000
vt 0.1631 0.6667 0.0000
vt 0.1592 0.7500 0.0000
vt 0.1631 0.7500 0.0000
vt 0.1592 0.8333 0.0000
vt 0.1631 0.8333 0.0000
vt 0.1592 0.9167 0.0000
vt 0.1631 0.9167 0.0000
vt 0.1592 1.0000 0.0000
vt 0.1631 1.0000 0.0000
vt 0.1879 0.4170 0.0000
vt 0.1879 0.5003 0.0000
vt 0.1817 0.5003 0.0000
vt 0.1817 0.4170 0.0000
vt 0.1879 0.9167 0.0000
vt 0.1879 1.0000 0.0000
vt 0.1817 1.0000 0.0000
vt 0.1817 0.9167 0.0000
vt 0.1879 0.8334 0.0000
vt 0.1817 0.8334 0.0000
vt 0.1879 0.7501 0.0000
vt 0.1817 0.7501 0.0000
vt 0.1879 0.6668 0.0000
vt 0.1817 0.6668 0.0000
vt 0.1879 0.5836 0.0000
vt 0.1817 0.5836 0.0000
vt 0.1879 0.0006 0.0000
vt 0.1879 0.0839 0.0000
vt 0.1817 0.0839 0.0000
vt 0.1817 0.0006 0.0000
vt 0.1879 0.1671 0.0000
vt 0.1817 0.1671 0.0000
vt 0.1879 0.2504 0.0000
vt 0.1817 0.2504 0.0000
vt 0.1879 0.3337 0.0000
vt 0.1817 0.3337 0.0000
# 108 texture coords

g Object004
s off
f 3/3/1 2/2/1 1/1/1 
f 1/1/1 4/4/1 3/3/1 
f 5/3/2 3/3/2 4/4/2 
f 4/4/2 6/4/2 5/3/2 
f 8/2/3 2/2/3 7/5/3 
f 7/5/3 9/5/3 8/2/3 
f 12/8/1 11/7/1 10/6/1 
f 10/6/1 13/9/1 12/8/1 
f 13/9/1 10/6/1 14/10/1 
f 14/10/1 15/11/1 13/9/1 
f 15/11/1 14/10/1 16/12/1 
f 16/12/1 17/13/1 15/11/1 
f 17/13/1 16/12/1 18/14/1 
f 18/14/1 19/15/1 17/13/1 
f 19/15/1 18/14/1 7/5/1 
f 7/5/1 20/16/1 19/15/1 
f 20/16/1 7/5/1 2/2/1 
f 2/2/1 3/3/1 20/16/1 
f 23/19/1 22/18/1 21/17/1 
f 21/17/1 24/20/1 23/19/1 
f 24/20/1 21/17/1 25/21/1 
f 25/21/1 26/22/1 24/20/1 
f 26/22/1 25/21/1 27/23/1 
f 27/23/1 28/24/1 26/22/1 
f 28/24/1 27/23/1 29/25/1 
f 29/25/1 30/26/1 28/24/1 
f 30/26/1 29/25/1 4/4/1 
f 4/4/1 1/1/1 30/26/1 
f 31/8/2 12/8/2 13/9/2 
f 13/9/2 32/9/2 31/8/2 
f 32/9/2 13/9/2 15/11/2 
f 15/11/2 33/11/2 32/9/2 
f 33/11/2 15/11/2 17/13/2 
f 17/13/2 34/13/2 33/11/2 
f 34/13/2 17/13/2 19/15/2 
f 19/15/2 35/15/2 34/13/2 
f 35/15/2 19/15/2 20/16/2 
f 20/16/2 36/16/2 35/15/2 
f 36/16/2 20/16/2 3/3/2 
f 3/3/2 5/3/2 36/16/2 
f 22/18/2 38/18/2 37/17/2 
f 37/17/2 21/17/2 22/18/2 
f 21/17/2 37/17/2 39/21/2 
f 39/21/2 25/21/2 21/17/2 
f 25/21/2 39/21/2 40/23/2 
f 40/23/2 27/23/2 25/21/2 
f 27/23/2 40/23/2 41/25/2 
f 41/25/2 29/25/2 27/23/2 
f 29/25/2 41/25/2 6/4/2 
f 6/4/2 4/4/2 29/25/2 
f 42/19/3 23/19/3 24/20/3 
f 24/20/3 43/20/3 42/19/3 
f 43/20/3 24/20/3 26/22/3 
f 26/22/3 44/22/3 43/20/3 
f 44/22/3 26/22/3 28/24/3 
f 28/24/3 45/24/3 44/22/3 
f 45/24/3 28/24/3 30/26/3 
f 30/26/3 46/26/3 45/24/3 
f 46/26/3 30/26/3 1/1/3 
f 1/1/3 47/1/3 46/26/3 
f 47/1/3 1/1/3 2/2/3 
f 2/2/3 8/2/3 47/1/3 
f 11/7/3 49/7/3 48/6/3 
f 48/6/3 10/6/3 11/7/3 
f 10/6/3 48/6/3 50/10/3 
f 50/10/3 14/10/3 10/6/3 
f 14/10/3 50/10/3 51/12/3 
f 51/12/3 16/12/3 14/10/3 
f 16/12/3 51/12/3 52/14/3 
f 52/14/3 18/14/3 16/12/3 
f 18/14/3 52/14/3 9/5/3 
f 9/5/3 7/5/3 18/14/3 
f 38/28/4 23/27/4 42/27/4 
f 38/28/4 22/28/4 23/27/4 
f 49/30/5 11/30/5 12/29/5 
f 12/29/5 31/29/5 49/30/5 
f 56/34/1 55/33/1 54/32/1 53/31/1 
f 55/33/1 58/36/1 57/35/1 54/32/1 
f 58/36/1 60/38/1 59/37/1 57/35/1 
f 60/38/1 62/40/1 61/39/1 59/37/1 
f 62/40/1 64/42/1 63/41/1 61/39/1 
f 64/42/1 66/44/1 65/43/1 63/41/1 
f 66/44/1 68/46/1 67/45/1 65/43/1 
f 68/46/1 70/48/1 69/47/1 67/45/1 
f 70/48/1 72/50/1 71/49/1 69/47/1 
f 72/50/1 74/52/1 73/51/1 71/49/1 
f 74/52/1 76/54/1 75/53/1 73/51/1 
f 76/54/1 78/56/1 77/55/1 75/53/1 
s 1
f 82/60/1 81/59/1 80/58/1 79/57/1 
f 81/59/1 84/62/1 83/61/1 80/58/1 
f 84/62/1 86/64/1 85/63/1 83/61/1 
f 86/64/1 88/66/1 87/65/1 85/63/1 
f 88/66/1 90/68/1 89/67/1 87/65/1 
f 90/68/1 92/70/1 91/69/1 89/67/1 
f 92/70/1 94/72/1 93/71/1 91/69/1 
f 94/72/1 96/74/1 95/73/1 93/71/1 
f 96/74/1 98/76/1 97/75/1 95/73/1 
f 98/76/1 100/78/1 99/77/1 97/75/1 
f 100/78/1 102/80/1 101/79/1 99/77/1 
f 102/80/1 104/82/1 103/81/1 101/79/1 
s off
f 106/86/1 105/85/1 5/84/1 6/83/1 
f 108/90/1 107/89/1 31/88/1 32/87/1 
f 109/92/1 108/90/1 32/87/1 33/91/1 
f 110/94/1 109/92/1 33/91/1 34/93/1 
f 111/96/1 110/94/1 34/93/1 35/95/1 
f 112/98/1 111/96/1 35/95/1 36/97/1 
f 105/85/1 112/98/1 36/97/1 5/84/1 
f 114/102/1 113/101/1 37/100/1 38/99/1 
f 113/101/1 115/104/1 39/103/1 37/100/1 
f 115/104/1 116/106/1 40/105/1 39/103/1 
f 116/106/1 117/108/1 41/107/1 40/105/1 
f 117/108/1 106/86/1 6/83/1 41/107/1 
f 119/86/6 118/85/6 8/84/6 9/83/6 
f 121/90/6 120/89/6 42/88/6 43/87/6 
f 122/92/6 121/90/6 43/87/6 44/91/6 
f 123/94/6 122/92/6 44/91/6 45/93/6 
f 124/96/6 123/94/6 45/93/6 46/95/6 
f 125/98/6 124/96/6 46/95/6 47/97/6 
f 118/85/6 125/98/6 47/97/6 8/84/6 
f 127/102/7 126/101/7 48/100/7 49/99/7 
f 126/101/6 128/104/6 50/103/6 48/100/6 
f 128/104/6 129/106/6 51/105/6 50/103/6 
f 129/106/6 130/108/6 52/107/6 51/105/6 
f 130/108/6 119/86/6 9/83/6 52/107/6 
# 48 polygons - 76 triangles

