# 3ds Max Wavefront OBJ Exporter v0.97b - (c)2007 guruware
# File Created: 07.02.2018 17:26:03

#
# object Object004
#

v  -0.5988 -0.0000 0.0000
v  -0.5988 -0.3000 0.0000
v  -2.3881 -0.3000 16.0000
v  3.7712 0.0000 -0.0000
v  -2.3881 -0.0000 16.0000
v  3.4756 0.0000 16.0000
v  3.7934 -0.3000 -0.0000
v  3.4851 -0.3000 16.0000
v  1.1898 -0.3000 -16.0000
v  1.1898 -0.0000 -16.0000
v  3.9803 0.0000 -16.0000
v  4.0000 -0.3000 -32.0000
v  3.9954 -0.3000 -16.0000
v  4.0000 0.0000 -32.0000
v  2.0000 0.0000 -32.0000
v  2.0000 -0.3000 -32.0000
v  -3.2000 -0.3000 32.0000
v  -3.2000 -0.0000 32.0000
v  3.2000 0.0000 32.0000
v  3.2000 -0.3000 32.0000
v  7.0752 -0.2500 -31.9986
v  6.8952 -0.2500 -32.0014
v  6.8010 -0.2500 -15.7101
v  6.9810 -0.2500 -15.7075
v  6.5934 -0.2500 0.2508
v  6.7734 -0.2500 0.2533
v  6.3859 -0.2500 16.0585
v  6.5659 -0.2500 16.0611
v  6.2915 -0.2500 31.9996
v  6.4715 -0.2500 31.9996
v  -4.0366 -0.2500 -32.0005
v  -4.3799 -0.2500 -15.6886
v  -4.1999 -0.2500 -15.6891
v  -3.8566 -0.2500 -32.0005
v  -5.2392 -0.2500 0.3176
v  -5.0592 -0.2500 0.3170
v  -6.1224 -0.2500 16.1670
v  -5.9424 -0.2500 16.1668
v  -6.5210 -0.2500 32.1261
v  -6.3410 -0.2500 32.1261
# 40 vertices

vn -0.0685 0.9976 0.0110
vn -0.0511 0.9985 -0.0197
vn 0.9984 0.0528 0.0188
vn -0.1068 0.9936 -0.0374
vn 0.9987 0.0501 0.0003
vn 0.1482 0.9880 0.0446
vn -0.9987 0.0000 -0.0506
vn -0.0684 0.9969 -0.0383
vn 0.9972 0.0738 0.0126
vn 0.1062 0.9931 0.0490
vn -0.9938 0.0000 -0.1111
vn -0.0511 0.9986 0.0161
vn -0.0000 0.0000 -1.0000
vn 0.0467 0.9987 0.0195
vn 0.0000 0.0000 1.0000
vn 0.0000 0.0000 -1.0000
vn 0.0000 1.0000 -0.0000
vn 0.0000 1.0000 0.0000
# 18 vertex normals

vt 0.4004 0.5000 0.0000
vt 0.4004 0.7500 0.0000
vt 0.6046 0.5000 0.0000
vt 0.6046 0.7500 0.0000
vt 0.4004 0.2500 0.0000
vt 0.6046 0.2500 0.0000
vt 0.6046 0.0000 0.0000
vt 0.4004 0.0000 0.0000
vt 0.4004 1.0000 0.0000
vt 0.6046 1.0000 0.0000
vt 0.2440 1.0000 0.0000
vt 0.0398 1.0000 0.0000
vt 0.2440 0.0000 0.0000
vt 0.0398 0.0000 0.0000
vt 0.1643 0.0001 0.0000
vt 0.1583 0.0001 0.0000
vt 0.1583 0.2500 0.0000
vt 0.1643 0.2501 0.0000
vt 0.1583 0.5000 0.0000
vt 0.1643 0.5001 0.0000
vt 0.1583 0.7500 0.0000
vt 0.1643 0.7500 0.0000
vt 0.1583 1.0000 0.0000
vt 0.1643 1.0000 0.0000
vt 0.1592 0.0000 0.0000
vt 0.1592 0.2500 0.0000
vt 0.1631 0.2500 0.0000
vt 0.1631 0.0000 0.0000
vt 0.1592 0.5000 0.0000
vt 0.1631 0.5000 0.0000
vt 0.1592 0.7500 0.0000
vt 0.1631 0.7500 0.0000
vt 0.1592 1.0000 0.0000
vt 0.1631 1.0000 0.0000
# 34 texture coords

g Object004
s off
f 1/1/1 2/1/1 3/2/1 4/3/1 
f 3/2/2 5/2/2 6/4/2 4/3/2 
f 7/3/3 4/3/3 6/4/3 8/4/3 
f 9/5/4 10/5/4 11/6/4 12/7/4 
f 11/6/5 13/6/5 12/7/5 
f 9/5/6 12/7/6 14/7/6 15/8/6 
f 9/5/7 15/8/7 16/8/7 
f 2/1/8 1/1/8 4/3/8 13/6/8 
f 4/3/9 7/3/9 13/6/9 
f 2/1/10 13/6/10 11/6/10 10/5/10 
f 2/1/11 10/5/11 9/5/11 
f 5/2/12 3/2/12 17/9/12 6/4/12 
f 17/9/13 18/9/13 19/10/13 20/10/13 
f 6/4/14 17/9/14 20/10/14 8/4/14 
f 19/11/15 18/12/15 17/12/15 
f 17/12/15 20/11/15 19/11/15 
f 12/13/16 16/14/16 15/14/16 14/13/16 
f 21/15/17 22/16/17 23/17/17 24/18/17 
f 24/18/17 23/17/17 25/19/17 26/20/17 
f 25/19/17 27/21/17 28/22/17 26/20/17 
f 27/21/17 29/23/17 30/24/17 28/22/17 
s 1
f 31/25/18 32/26/18 33/27/18 34/28/18 
f 33/27/18 32/26/18 35/29/18 36/30/18 
f 35/29/18 37/31/18 38/32/18 36/30/18 
f 37/31/18 39/33/18 40/34/18 38/32/18 
# 19 polygons - 6 triangles

