# 3ds Max Wavefront OBJ Exporter v0.97b - (c)2007 guruware
# File Created: 21.10.2015 12:46:13

#
# object Plane005
#

v  -13.00000 0.00000 -0.00000
v  -12.00000 -0.00000 -0.00000
v  -12.00000 -0.00000 -16.00000
v  -13.00000 0.00000 -16.00000
v  -13.00000 7.00000 -0.00000
v  -13.00000 7.00000 16.00000
v  -13.00000 0.00000 16.00000
v  13.00000 0.00000 -0.00000
v  13.00000 7.00000 -0.00000
v  13.00000 7.00000 -16.00000
v  13.00000 0.00000 -16.00000
v  0.00000 7.00000 -0.00000
v  0.00000 7.00000 -16.00000
v  -14.00000 7.50000 -0.00000
v  -14.00000 -0.50000 -0.00000
v  -14.00000 -0.50000 16.00000
v  -14.00000 7.50000 16.00000
v  14.00000 7.50000 -0.00000
v  14.00000 -0.50000 -0.00000
v  14.00000 -0.50000 -16.00000
v  14.00000 7.50000 -16.00000
v  0.00000 7.50000 -0.00000
v  0.00000 7.50000 16.00000
v  14.00000 7.50000 16.00000
v  12.00000 -0.15000 -0.00000
v  0.00000 -0.15000 -0.00000
v  0.00000 -0.22500 16.00000
v  12.00000 -0.22500 16.00000
v  0.00000 7.00000 16.00000
v  0.00000 7.50000 -16.00000
v  -14.00000 7.50000 -16.00000
v  12.00000 -0.00000 -0.00000
v  12.00000 -0.00000 16.00000
v  13.00000 0.00000 16.00000
v  -12.00000 -0.15000 -0.00000
v  -12.00000 -0.22500 16.00000
v  -12.00000 -0.07500 -16.00000
v  -13.00000 0.00000 32.00000
v  -12.00000 0.00000 32.00000
v  -12.00000 -0.00000 16.00000
v  -12.00000 -0.00000 -32.00000
v  -13.00000 0.00000 -32.00000
v  -13.00000 7.00000 -32.00000
v  -13.00000 7.00000 -16.00000
v  -13.00000 7.00000 32.00000
v  13.00000 0.00000 32.00000
v  13.00000 7.00000 32.00000
v  13.00000 7.00000 16.00000
v  13.00000 7.00000 -32.00000
v  13.00000 0.00000 -32.00000
v  0.00000 7.00000 32.00000
v  0.00000 7.00000 -32.00000
v  -14.00000 7.50000 -32.00000
v  -14.00000 -0.50000 -32.00000
v  -14.00000 -0.50000 -16.00000
v  -14.00000 -0.50000 32.00000
v  -14.00000 7.50000 32.00000
v  14.00000 7.50000 32.00000
v  14.00000 -0.50000 32.00000
v  14.00000 -0.50000 16.00000
v  14.00000 -0.50000 -32.00000
v  14.00000 7.50000 -32.00000
v  0.00000 7.50000 -32.00000
v  0.00000 7.50000 32.00000
v  12.00000 -0.00000 -32.00000
v  0.00000 -0.00000 -32.00000
v  0.00000 -0.07500 -16.00000
v  12.00000 -0.07500 -16.00000
v  0.00000 -0.30000 32.00000
v  12.00000 -0.30000 32.00000
v  12.00000 -0.00000 -16.00000
v  12.00000 0.00000 32.00000
v  -12.00000 -0.30000 32.00000
# 73 vertices

vn 0.00000 1.00000 -0.00000
vn 1.00000 0.00000 -0.00000
vn -1.00000 0.00000 -0.00000
vn 0.00000 -1.00000 -0.00000
vn 0.00000 0.99999 0.00469
vn -0.00000 1.00000 -0.00000
vn 0.00000 1.00000 0.00234
vn -0.00000 1.00000 0.00234
# 8 vertex normals

vt 0.14914 0.50000 0.00000
vt 0.16682 0.50000 0.00000
vt 0.16682 0.75000 0.00000
vt 0.14914 0.75000 0.00000
vt 0.77150 0.50000 0.00000
vt 0.84371 0.50000 0.00000
vt 0.84371 0.25000 0.00000
vt 0.77150 0.25000 0.00000
vt 0.84371 0.75000 0.00000
vt 0.77150 0.75000 0.00000
vt 0.99951 0.50000 0.00000
vt 0.92163 0.50000 0.00000
vt 0.92163 0.75000 0.00000
vt 0.99951 0.75000 0.00000
vt 1.00000 1.00000 1.00000
vt 0.59114 0.50000 0.00000
vt 0.37898 0.50000 0.00000
vt 0.37898 0.25000 0.00000
vt 0.59114 0.25000 0.00000
vt 0.84375 0.50000 0.00000
vt 0.92163 0.25000 0.00000
vt 0.84375 0.25000 0.00000
vt 0.60882 0.50000 0.00000
vt 0.60882 0.25000 0.00000
vt 0.16682 0.25000 0.00000
vt 0.14914 0.00000 0.00000
vt 0.16682 0.00000 0.00000
vt 0.14914 0.25000 0.00000
vt 0.16682 1.00000 0.00000
vt 0.14914 1.00000 0.00000
vt 0.77150 1.00000 0.00000
vt 0.84371 1.00000 0.00000
vt 0.84371 0.00000 0.00000
vt 0.77150 0.00000 0.00000
vt 0.99951 0.00000 0.00000
vt 0.92163 0.00000 0.00000
vt 0.99951 0.25000 0.00000
vt 0.92163 1.00000 0.00000
vt 0.99951 1.00000 0.00000
vt 0.59114 1.00000 0.00000
vt 0.37898 1.00000 0.00000
vt 0.37898 0.75000 0.00000
vt 0.59114 0.75000 0.00000
vt 0.37898 0.00000 0.00000
vt 0.59114 0.00000 0.00000
vt 0.84375 1.00000 0.00000
vt 0.84375 0.75000 0.00000
vt 0.84375 0.00000 0.00000
vt 0.60882 1.00000 0.00000
vt 0.60882 0.75000 0.00000
vt 0.60882 0.00000 0.00000
# 51 texture coords

g Plane005
f 1/1/1 2/2/1 3/3/1 
f 3/3/1 4/4/1 1/1/1 
f 1/5/2 5/6/2 6/7/2 
f 6/7/2 7/8/2 1/5/2 
f 8/5/3 9/6/3 10/9/3 
f 10/9/3 11/10/3 8/5/3 
f 9/11/4 12/12/4 13/13/4 
f 13/13/4 10/14/4 9/11/4 
f 14/15/3 15/15/3 16/15/3 
f 16/15/3 17/15/3 14/15/3 
f 18/15/2 19/15/2 20/15/2 
f 20/15/2 21/15/2 18/15/2 
f 18/15/1 22/15/1 23/15/1 
f 23/15/1 24/15/1 18/15/1 
f 25/16/5 26/17/5 27/18/5 
f 27/18/5 28/19/5 25/16/5 
f 5/20/4 12/12/4 29/21/4 
f 29/21/4 6/22/4 5/20/4 
f 14/15/1 22/15/1 30/15/1 
f 30/15/1 31/15/1 14/15/1 
f 8/23/6 32/16/6 33/19/6 
f 33/19/6 34/24/6 8/23/6 
f 26/17/5 35/2/5 36/25/5 
f 36/25/5 27/18/5 26/17/5 
f 3/3/2 2/2/2 35/2/2 
f 35/2/2 37/3/2 3/3/2 
f 32/16/3 25/16/3 28/19/3 
f 28/19/3 33/19/3 32/16/3 
f 38/26/1 39/27/1 40/25/1 
f 40/25/1 7/28/1 38/26/1 
f 7/28/1 40/25/1 2/2/1 
f 2/2/1 1/1/1 7/28/1 
f 41/29/7 42/30/1 4/4/1 
f 4/4/1 3/3/1 41/29/7 
f 42/31/2 43/32/2 44/9/2 
f 44/9/2 4/10/2 42/31/2 
f 4/10/2 44/9/2 5/6/2 
f 5/6/2 1/5/2 4/10/2 
f 45/33/2 38/34/2 7/8/2 
f 7/8/2 6/7/2 45/33/2 
f 46/34/3 47/33/3 48/7/3 
f 48/7/3 34/8/3 46/34/3 
f 34/8/3 48/7/3 9/6/3 
f 9/6/3 8/5/3 34/8/3 
f 49/32/3 50/31/3 11/10/3 
f 11/10/3 10/9/3 49/32/3 
f 47/35/4 51/36/4 29/21/4 
f 29/21/4 48/37/4 47/35/4 
f 48/37/4 29/21/4 12/12/4 
f 12/12/4 9/11/4 48/37/4 
f 52/38/4 49/39/4 10/14/4 
f 10/14/4 13/13/4 52/38/4 
f 53/15/3 54/15/3 55/15/3 
f 55/15/3 31/15/3 53/15/3 
f 31/15/3 55/15/3 15/15/3 
f 15/15/3 14/15/3 31/15/3 
f 56/15/3 57/15/3 17/15/3 
f 17/15/3 16/15/3 56/15/3 
f 58/15/2 59/15/2 60/15/2 
f 60/15/2 24/15/2 58/15/2 
f 24/15/2 60/15/2 19/15/2 
f 19/15/2 18/15/2 24/15/2 
f 61/15/2 62/15/2 21/15/2 
f 21/15/2 20/15/2 61/15/2 
f 62/15/1 63/15/1 30/15/1 
f 30/15/1 21/15/1 62/15/1 
f 21/15/1 30/15/1 22/15/1 
f 22/15/1 18/15/1 21/15/1 
f 64/15/1 58/15/1 24/15/1 
f 24/15/1 23/15/1 64/15/1 
f 65/40/8 66/41/5 67/42/5 
f 67/42/5 68/43/5 65/40/8 
f 68/43/5 67/42/5 26/17/5 
f 26/17/5 25/16/5 68/43/5 
f 69/44/5 70/45/5 28/19/5 
f 28/19/5 27/18/5 69/44/5 
f 43/46/4 52/38/4 13/13/4 
f 13/13/4 44/47/4 43/46/4 
f 44/47/4 13/13/4 12/12/4 
f 12/12/4 5/20/4 44/47/4 
f 51/36/4 45/48/4 6/22/4 
f 6/22/4 29/21/4 51/36/4 
f 57/15/1 64/15/1 23/15/1 
f 23/15/1 17/15/1 57/15/1 
f 17/15/1 23/15/1 22/15/1 
f 22/15/1 14/15/1 17/15/1 
f 63/15/1 53/15/1 31/15/1 
f 31/15/1 30/15/1 63/15/1 
f 50/49/6 65/40/8 71/43/6 
f 71/43/6 11/50/6 50/49/6 
f 11/50/6 71/43/6 32/16/6 
f 32/16/6 8/23/6 11/50/6 
f 72/45/6 46/51/1 34/24/6 
f 34/24/6 33/19/6 72/45/6 
f 66/41/5 41/29/7 37/3/5 
f 37/3/5 67/42/5 66/41/5 
f 67/42/5 37/3/5 35/2/5 
f 35/2/5 26/17/5 67/42/5 
f 73/27/5 69/44/5 27/18/5 
f 27/18/5 36/25/5 73/27/5 
f 39/27/2 73/27/2 36/25/2 
f 36/25/2 40/25/2 39/27/2 
f 40/25/2 36/25/2 35/2/2 
f 35/2/2 2/2/2 40/25/2 
f 37/3/2 41/29/2 3/3/2 
f 71/43/3 65/40/3 68/43/3 
f 71/43/3 68/43/3 25/16/3 
f 25/16/3 32/16/3 71/43/3 
f 70/45/3 72/45/3 33/19/3 
f 33/19/3 28/19/3 70/45/3 
# 110 faces

