# 3ds Max Wavefront OBJ Exporter v0.97b - (c)2007 guruware
# File Created: 04.02.2017 15:11:19

#
# object Elevated_LOD_NoCom
#

v  -4.2002 -1.0000 -0.0001
v  4.1998 -1.0000 -0.0001
v  4.1998 -1.0000 15.9999
v  -4.2002 -1.0000 15.9999
v  -4.2002 -1.0000 32.0000
v  4.1998 -1.0000 32.0000
v  4.1998 0.0500 32.0000
v  -4.2002 0.0500 32.0000
v  4.1998 0.0500 -0.0001
v  4.1998 0.0500 15.9999
v  4.1998 -1.0000 -32.0000
v  -4.2002 -1.0000 -32.0000
v  -4.2002 0.0500 -32.0000
v  4.1998 0.0500 -32.0000
v  -4.2002 0.0500 -0.0001
v  -4.2002 0.0500 -16.0000
v  -4.2002 -1.0000 -16.0000
v  -3.8283 0.0500 -0.0000
v  -3.8283 0.0500 16.0000
v  -4.2002 0.0500 15.9999
v  -3.8283 1.0998 -0.0001
v  -4.2002 1.0998 -0.0000
v  -4.2002 1.0998 16.0000
v  -3.8283 1.0998 15.9999
v  -3.8283 0.0500 32.0000
v  -3.8283 1.0998 32.0000
v  -4.2002 1.0998 32.0000
v  -3.8283 0.0500 -32.0000
v  -4.2002 1.0998 -32.0000
v  -3.8283 1.0998 -32.0000
v  -4.2002 1.0998 -16.0000
v  4.1998 1.0998 -0.0001
v  3.8280 1.0998 -0.0000
v  3.8280 1.0998 16.0000
v  4.1998 1.0998 15.9999
v  3.8280 0.0500 32.0000
v  4.1998 1.0998 32.0000
v  3.8280 1.0998 32.0000
v  3.8280 0.0500 -32.0000
v  3.8280 1.0998 -32.0000
v  4.1998 1.0998 -32.0000
v  3.8280 0.0500 -0.0000
v  3.8280 1.0998 -16.0000
v  3.8280 0.0500 -16.0000
v  4.1998 -1.0000 -16.0000
v  4.1998 0.0500 -16.0000
v  -3.8283 0.0500 -16.0000
v  -3.8283 1.0998 -16.0000
v  4.1998 1.0998 -16.0000
v  3.8280 0.0500 16.0000
v  -3.8283 0.0500 -0.0001
v  -3.8283 0.0500 15.9999
# 52 vertices

vn 0.0000 -1.0000 -0.0000
vn 0.0000 0.0000 1.0000
vn 1.0000 0.0000 -0.0000
vn 0.0000 0.0000 -1.0000
vn -1.0000 0.0000 -0.0000
vn 0.0000 1.0000 -0.0000
# 6 vertex normals

vt 0.9994 0.2240 0.0000
vt 0.5880 0.2240 0.0000
vt 0.5880 0.1315 0.0000
vt 0.9994 0.1315 0.0000
vt -2.0561 0.6474 0.0000
vt -1.0561 0.6474 0.0000
vt -1.0561 1.6474 0.0000
vt -2.0561 1.6474 0.0000
vt 0.3697 0.0006 0.0000
vt 0.3697 1.0006 0.0000
vt 0.2847 1.0006 0.0000
vt 0.2847 0.0006 0.0000
vt -2.0832 0.6972 0.0000
vt -1.0832 0.6972 0.0000
vt -1.0832 1.6972 0.0000
vt -2.0832 1.6972 0.0000
vt 0.1999 0.0006 0.0000
vt 0.1999 1.0006 0.0000
vt 0.1150 1.0006 0.0000
vt 0.1150 0.0006 0.0000
vt 0.9994 0.5006 0.0000
vt -0.0006 0.5006 0.0000
vt -0.0006 0.2506 0.0000
vt 0.9994 0.2506 0.0000
vt 0.8470 1.7125 0.0000
vt -0.1530 1.7125 0.0000
vt -0.1530 1.4625 0.0000
vt 0.8470 1.4625 0.0000
vt -2.0742 0.6836 0.0000
vt -1.0742 0.6836 0.0000
vt -1.0742 1.6836 0.0000
vt -2.0742 1.6836 0.0000
vt 0.7237 0.7749 0.0000
vt 0.9994 0.7749 0.0000
vt 0.9994 0.8855 0.0000
vt 0.7237 0.8855 0.0000
vt -2.0198 0.7062 0.0000
vt -1.0198 0.7062 0.0000
vt -1.0198 1.7062 0.0000
vt -2.0198 1.7062 0.0000
vt 0.7237 0.7587 0.0000
vt 0.9994 0.7587 0.0000
vt 0.9994 0.8774 0.0000
vt 0.7237 0.8774 0.0000
vt -2.0334 0.7741 0.0000
vt -1.0334 0.7741 0.0000
vt -1.0334 1.7741 0.0000
vt -2.0334 1.7741 0.0000
vt 0.7237 0.8724 0.0000
vt 0.9994 0.8724 0.0000
vt 0.9994 0.9962 0.0000
vt 0.7237 0.9962 0.0000
vt -1.9882 0.7289 0.0000
vt -0.9882 0.7289 0.0000
vt -0.9882 1.7289 0.0000
vt -1.9882 1.7289 0.0000
vt 0.9994 0.4090 0.0000
vt 0.5880 0.4090 0.0000
vt 0.5880 0.3165 0.0000
vt 0.9994 0.3165 0.0000
vt 0.5880 0.0390 0.0000
vt 0.9994 0.0390 0.0000
vt 0.1147 0.0006 0.0000
vt 0.1147 1.0006 0.0000
vt 0.0297 1.0006 0.0000
vt 0.0297 0.0006 0.0000
vt 0.1997 0.0006 0.0000
vt 0.1997 1.0006 0.0000
vt 0.2848 1.0006 0.0000
vt 0.2848 0.0006 0.0000
vt 0.0301 1.0006 0.0000
vt 0.0301 0.0006 0.0000
vt 0.9994 1.0006 0.0000
vt -0.0006 1.0006 0.0000
vt -0.0006 0.7506 0.0000
vt 0.9994 0.7506 0.0000
vt -0.0006 0.0006 0.0000
vt 0.9994 0.0006 0.0000
vt 1.9770 1.8476 0.0000
vt 0.9770 1.8476 0.0000
vt 0.9770 1.5976 0.0000
vt 1.9770 1.5976 0.0000
vt 2.2184 0.3027 0.0000
vt 1.2184 0.3027 0.0000
vt 1.2184 0.0527 0.0000
vt 2.2184 0.0527 0.0000
vt -0.6769 -0.4885 0.0000
vt 0.3231 -0.4885 0.0000
vt 0.3231 -0.2385 0.0000
vt -0.6769 -0.2385 0.0000
vt 0.7237 0.5536 0.0000
vt 0.9994 0.5536 0.0000
vt 0.9994 0.6642 0.0000
vt 0.7237 0.6642 0.0000
vt 0.7237 0.5212 0.0000
vt 0.9994 0.5212 0.0000
vt 0.9994 0.6399 0.0000
vt 0.7237 0.6399 0.0000
vt 0.7237 0.5012 0.0000
vt 0.9994 0.5012 0.0000
vt 0.9994 0.6249 0.0000
vt 0.7237 0.6249 0.0000
vt 0.9994 0.7487 0.0000
vt 0.7237 0.7487 0.0000
vt 0.5846 0.0000 0.0000
vt 0.9983 0.0000 0.0000
vt 0.9983 0.4000 0.0000
vt 0.5846 0.4000 0.0000
# 108 texture coords

g Elevated_LOD_NoCom
s 2
f 1/1/1 2/2/1 3/3/1 
f 3/3/1 4/4/1 1/1/1 
s 8
f 5/5/2 6/6/2 7/7/2 
f 7/7/2 8/8/2 5/5/2 
s 16
f 2/9/3 9/10/3 10/11/3 
f 10/11/3 3/12/3 2/9/3 
s 32
f 11/13/4 12/14/4 13/15/4 
f 13/15/4 14/16/4 11/13/4 
s 64
f 1/17/5 15/18/5 16/19/5 
f 16/19/5 17/20/5 1/17/5 
s 2
f 15/21/1 18/22/1 19/23/1 
f 19/23/1 20/24/1 15/21/1 
s 4
f 21/25/6 22/26/6 23/27/6 
f 23/27/6 24/28/6 21/25/6 
s 8
f 8/29/2 25/30/2 26/31/2 
f 26/31/2 27/32/2 8/29/2 
s 16
f 18/33/3 21/34/3 24/35/3 
f 24/35/3 19/36/3 18/33/3 
s 32
f 28/37/4 13/38/4 29/39/4 
f 29/39/4 30/40/4 28/37/4 
s 64
f 15/41/5 22/42/5 31/43/5 
f 31/43/5 16/44/5 15/41/5 
s 4
f 32/25/6 33/26/6 34/27/6 
f 34/27/6 35/28/6 32/25/6 
s 8
f 36/45/2 7/46/2 37/47/2 
f 37/47/2 38/48/2 36/45/2 
s 16
f 9/49/3 32/50/3 35/51/3 
f 35/51/3 10/52/3 9/49/3 
s 32
f 14/53/4 39/54/4 40/55/4 
f 40/55/4 41/56/4 14/53/4 
s 64
f 42/41/5 33/42/5 43/43/5 
f 43/43/5 44/44/5 42/41/5 
s 2
f 12/57/1 11/58/1 45/59/1 
f 45/59/1 17/60/1 12/57/1 
f 17/60/1 45/59/1 2/2/1 
f 2/2/1 1/1/1 17/60/1 
f 6/61/1 5/62/1 4/4/1 
f 4/4/1 3/3/1 6/61/1 
s 16
f 11/63/3 14/64/3 46/65/3 
f 46/65/3 45/66/3 11/63/3 
f 45/67/3 46/68/3 9/64/3 
f 9/64/3 2/63/3 45/67/3 
f 7/68/3 6/67/3 3/12/3 
f 3/12/3 10/11/3 7/68/3 
s 64
f 5/9/5 8/10/5 20/69/5 
f 20/69/5 4/70/5 5/9/5 
f 4/70/5 20/69/5 15/18/5 
f 15/18/5 1/17/5 4/70/5 
f 13/71/5 12/72/5 17/20/5 
f 17/20/5 16/19/5 13/71/5 
s 2
f 13/73/1 28/74/1 47/75/1 
f 47/75/1 16/76/1 13/73/1 
f 16/76/1 47/75/1 18/22/1 
f 18/22/1 15/21/1 16/76/1 
f 25/77/1 8/78/1 20/24/1 
f 20/24/1 19/23/1 25/77/1 
s 4
f 30/79/6 29/80/6 31/81/6 
f 31/81/6 48/82/6 30/79/6 
f 48/83/6 31/84/6 22/85/6 
f 22/85/6 21/86/6 48/83/6 
f 27/87/6 26/88/6 24/89/6 
f 24/89/6 23/90/6 27/87/6 
s 16
f 28/91/3 30/92/3 48/93/3 
f 48/93/3 47/94/3 28/91/3 
f 47/94/3 48/93/3 21/34/3 
f 21/34/3 18/33/3 47/94/3 
f 26/51/3 25/52/3 19/36/3 
f 19/36/3 24/35/3 26/51/3 
s 64
f 8/95/5 27/96/5 23/97/5 
f 23/97/5 20/98/5 8/95/5 
f 20/98/5 23/97/5 22/42/5 
f 22/42/5 15/41/5 20/98/5 
f 29/51/5 13/52/5 16/44/5 
f 16/44/5 31/43/5 29/51/5 
s 4
f 41/79/6 40/80/6 43/81/6 
f 43/81/6 49/82/6 41/79/6 
f 49/83/6 43/84/6 33/85/6 
f 33/85/6 32/86/6 49/83/6 
f 38/87/6 37/88/6 35/89/6 
f 35/89/6 34/90/6 38/87/6 
s 16
f 14/99/3 41/100/3 49/101/3 
f 49/101/3 46/102/3 14/99/3 
f 46/102/3 49/101/3 32/103/3 
f 32/103/3 9/104/3 46/102/3 
f 37/50/3 7/49/3 10/104/3 
f 10/104/3 35/103/3 37/50/3 
s 64
f 36/95/5 38/96/5 34/97/5 
f 34/97/5 50/98/5 36/95/5 
f 50/98/5 34/97/5 33/42/5 
f 33/42/5 42/41/5 50/98/5 
f 40/51/5 39/52/5 44/44/5 
f 44/44/5 43/43/5 40/51/5 
s off
f 47/105/6 44/106/6 39/107/6 
f 39/107/6 28/108/6 47/105/6 
f 51/105/6 42/106/6 44/107/6 
f 44/107/6 47/108/6 51/105/6 
f 52/105/6 50/106/6 42/107/6 
f 42/107/6 51/108/6 52/105/6 
f 25/105/6 36/106/6 50/107/6 
f 50/107/6 52/108/6 25/105/6 
# 100 faces

