# 3ds Max Wavefront OBJ Exporter v0.97b - (c)2007 guruware
# File Created: 18.05.2016 23:30:17

#
# object Box015
#

v  -4.2002 -1.0000 15.9999
v  -4.2002 -1.0000 -0.0001
v  -2.0000 -1.0000 -0.0001
v  -2.0000 -1.0000 32.0000
v  -4.2002 -1.0000 32.0000
v  1.9998 -1.0000 32.0000
v  4.1998 -1.0000 32.0000
v  4.1998 0.0500 32.0000
v  -0.0002 -1.0000 32.0000
v  -4.2002 0.0500 32.0000
v  4.1998 -1.0000 -0.0001
v  4.1998 0.0500 -0.0001
v  4.1998 0.0500 15.9999
v  4.1998 -1.0000 15.9999
v  -4.2002 -1.0000 -32.0000
v  -4.2002 0.0500 -32.0000
v  4.1998 -1.0000 -32.0000
v  4.1998 0.0500 -32.0000
v  -4.2002 0.0500 -0.0001
v  -4.2002 0.0500 -16.0000
v  -4.2002 -1.0000 -16.0000
v  -3.8283 0.0500 -0.0000
v  -3.8283 0.0500 16.0000
v  -4.2002 0.0500 15.9999
v  -3.8283 1.0998 -0.0001
v  -4.2002 1.0998 -0.0000
v  -4.2002 1.0998 16.0000
v  -3.8283 1.0998 15.9999
v  -4.2002 1.0998 32.0000
v  -3.8283 1.0998 32.0000
v  -3.8283 0.0500 32.0000
v  -3.8283 0.0500 -32.0000
v  -4.2002 1.0998 -32.0000
v  -3.8283 1.0998 -32.0000
v  -4.2002 1.0998 -16.0000
v  4.1998 1.0998 -0.0001
v  3.8280 1.0998 -0.0000
v  3.8280 1.0998 16.0000
v  4.1998 1.0998 15.9999
v  3.8280 1.0998 32.0000
v  4.1998 1.0998 32.0000
v  3.8280 0.0500 32.0000
v  3.8280 0.0500 -32.0000
v  3.8280 1.0998 -32.0000
v  4.1998 1.0998 -32.0000
v  3.8280 0.0500 -0.0000
v  3.8280 1.0998 -16.0000
v  3.8280 0.0500 -16.0000
v  4.1998 0.0500 -16.0000
v  4.1998 -1.0000 -16.0000
v  -3.8283 0.0500 -16.0000
v  -3.8283 1.0998 -16.0000
v  4.1998 1.0998 -16.0000
v  3.8280 0.0500 16.0000
v  -3.8283 0.0500 -0.0001
v  -2.0000 0.0500 -0.0001
v  -3.8283 0.0500 15.9999
v  -2.0000 0.0500 32.0000
v  1.9998 -1.0000 -0.0001
v  -0.0002 -1.0000 -0.0001
v  -0.0002 0.0500 -0.0000
v  1.9998 0.0500 -0.0000
v  0.0242 0.0500 -0.0000
v  -0.0002 0.0500 0.1866
v  1.9998 0.0500 32.0000
v  -0.0002 0.0500 32.0000
v  -0.0283 0.0500 0.4020
# 67 vertices

vn 0.0000 -1.0000 -0.0000
vn 0.0000 -1.0000 0.0000
vn 0.0000 0.0000 1.0000
vn 1.0000 0.0000 -0.0000
vn 0.0000 0.0000 -1.0000
vn -0.0000 0.0000 -1.0000
vn -1.0000 0.0000 -0.0000
vn 0.0000 1.0000 -0.0000
vn -0.7809 0.6247 -0.0000
vn 0.3475 0.9312 -0.1099
vn -1.0000 -0.0000 -0.0000
vn 0.0000 1.0000 0.0000
vn -0.0000 -1.0000 -0.0000
vn 0.7071 -0.7071 -0.0000
vn -0.0000 1.0000 -0.0000
vn 0.7210 -0.6911 -0.0496
vn -0.9915 0.0000 0.1301
# 17 vertex normals

vt 0.9994 0.2642 0.0000
vt 0.9994 0.3145 0.0000
vt 0.8917 0.3145 0.0000
vt 0.8917 0.2138 0.0000
vt 0.9994 0.2138 0.0000
vt -1.3180 0.6474 0.0000
vt -1.0561 0.6474 0.0000
vt -1.0561 1.6474 0.0000
vt -1.5561 0.6474 0.0000
vt -1.7941 0.6474 0.0000
vt -2.0561 0.6474 0.0000
vt -2.0561 1.6474 0.0000
vt 0.3697 0.0006 0.0000
vt 0.3697 1.0006 0.0000
vt 0.2847 1.0006 0.0000
vt 0.2847 0.0006 0.0000
vt 0.1997 1.0006 0.0000
vt 0.1997 0.0006 0.0000
vt -1.3452 0.6972 0.0000
vt -1.0832 0.6972 0.0000
vt -1.0832 1.6972 0.0000
vt -1.5832 0.6972 0.0000
vt -1.8213 0.6972 0.0000
vt -2.0832 0.6972 0.0000
vt -2.0832 1.6972 0.0000
vt 0.1999 0.0006 0.0000
vt 0.1999 1.0006 0.0000
vt 0.1150 1.0006 0.0000
vt 0.1150 0.0006 0.0000
vt 0.0301 1.0006 0.0000
vt 0.0301 0.0006 0.0000
vt 0.9994 0.5006 0.0000
vt -0.0006 0.5006 0.0000
vt -0.0006 0.2506 0.0000
vt 0.9994 0.2506 0.0000
vt 0.8470 1.7125 0.0000
vt -0.1530 1.7125 0.0000
vt -0.1530 1.4625 0.0000
vt 0.8470 1.4625 0.0000
vt -0.1530 1.2125 0.0000
vt 0.8470 1.2125 0.0000
vt -2.0742 0.6836 0.0000
vt -1.0742 0.6836 0.0000
vt -1.0742 1.6836 0.0000
vt -2.0742 1.6836 0.0000
vt 0.7237 0.7749 0.0000
vt 0.9994 0.7749 0.0000
vt 0.9994 0.8855 0.0000
vt 0.7237 0.8855 0.0000
vt 0.9994 0.9962 0.0000
vt 0.7237 0.9962 0.0000
vt -2.0198 0.7062 0.0000
vt -1.0198 0.7062 0.0000
vt -1.0198 1.7062 0.0000
vt -2.0198 1.7062 0.0000
vt 0.7237 0.7587 0.0000
vt 0.9994 0.7587 0.0000
vt 0.9994 0.8774 0.0000
vt 0.7237 0.8774 0.0000
vt -2.0334 0.7741 0.0000
vt -1.0334 0.7741 0.0000
vt -1.0334 1.7741 0.0000
vt -2.0334 1.7741 0.0000
vt 0.7237 0.8724 0.0000
vt 0.9994 0.8724 0.0000
vt 0.9994 1.1199 0.0000
vt 0.7237 1.1199 0.0000
vt -1.9882 0.7289 0.0000
vt -0.9882 0.7289 0.0000
vt -0.9882 1.7289 0.0000
vt -1.9882 1.7289 0.0000
vt 0.9994 0.3649 0.0000
vt 0.9994 0.4153 0.0000
vt 0.8917 0.4153 0.0000
vt 0.1147 1.0006 0.0000
vt 0.1147 0.0006 0.0000
vt 0.2848 1.0006 0.0000
vt 0.2848 0.0006 0.0000
vt 0.9994 1.0006 0.0000
vt -0.0006 1.0006 0.0000
vt -0.0006 0.7506 0.0000
vt 0.9994 0.7506 0.0000
vt -0.0006 0.0006 0.0000
vt 0.9994 0.0006 0.0000
vt 2.2184 0.5527 0.0000
vt 1.2184 0.5527 0.0000
vt 1.2184 0.3027 0.0000
vt 2.2184 0.3027 0.0000
vt 1.2184 0.0527 0.0000
vt 2.2184 0.0527 0.0000
vt 0.7237 0.5536 0.0000
vt 0.9994 0.5536 0.0000
vt 0.9994 0.6642 0.0000
vt 0.7237 0.6642 0.0000
vt 0.7237 0.5212 0.0000
vt 0.9994 0.5212 0.0000
vt 0.9994 0.6399 0.0000
vt 0.7237 0.6399 0.0000
vt 0.7237 0.5012 0.0000
vt 0.9994 0.5012 0.0000
vt 0.9994 0.6249 0.0000
vt 0.7237 0.6249 0.0000
vt 0.9994 0.7487 0.0000
vt 0.7237 0.7487 0.0000
vt 0.5892 0.1934 0.0000
vt 0.5892 0.0077 0.0000
vt 0.6879 0.0077 0.0000
vt 0.6879 0.4113 0.0000
vt 0.5892 0.4113 0.0000
vt 0.5846 0.1925 0.0000
vt 0.5846 0.0068 0.0000
vt 0.6834 0.0068 0.0000
vt 0.6834 0.4104 0.0000
vt 0.5846 0.4104 0.0000
vt 0.6957 0.3145 0.0000
vt 0.6957 0.2138 0.0000
vt 0.7937 0.2138 0.0000
vt 0.7937 0.3145 0.0000
vt 0.6957 0.4153 0.0000
vt 0.7960 0.0077 0.0000
vt 0.9041 0.4113 0.0000
vt 0.7960 0.4113 0.0000
vt 0.8995 0.4104 0.0000
vt 0.7928 0.4104 0.0000
vt 0.7915 0.4079 0.0000
vt 0.8995 0.0068 0.0000
vt 0.7915 0.0068 0.0000
vt 0.5880 0.3145 0.0000
vt 0.5880 0.2642 0.0000
vt 0.5880 0.2138 0.0000
vt 0.5880 0.4153 0.0000
vt 0.5880 0.3649 0.0000
vt 0.9041 0.0077 0.0000
vt 1.0028 0.0077 0.0000
vt 1.0028 0.1934 0.0000
vt 1.0028 0.4113 0.0000
vt 0.9983 0.0068 0.0000
vt 0.9983 0.1925 0.0000
vt 0.9983 0.4104 0.0000
vt 0.7937 0.4153 0.0000
vt 0.7899 0.4049 0.0000
vt 0.7973 0.0077 0.0000
vt 0.7915 0.4104 0.0000
# 143 texture coords

g Box015
s 2
f 1/1/1 2/2/2 3/3/1 
f 1/1/1 3/3/1 4/4/1 
f 1/1/1 4/4/1 5/5/1 
s 8
f 6/6/3 7/7/3 8/8/3 
f 9/9/3 6/6/3 8/8/3 
f 4/10/3 9/9/3 8/8/3 
f 5/11/3 4/10/3 8/8/3 
f 5/11/3 8/8/3 10/12/3 
s 16
f 11/13/4 12/14/4 13/15/4 
f 14/16/4 11/13/4 13/15/4 
f 14/16/4 13/15/4 8/17/4 
f 14/16/4 8/17/4 7/18/4 
s 32
f 15/19/3 15/20/3 16/21/5 
f 15/22/3 15/19/3 16/21/5 
f 17/23/5 15/22/3 16/21/5 
f 17/24/5 17/23/5 16/21/5 
f 17/24/5 16/21/5 18/25/6 
s 64
f 2/26/7 19/27/7 20/28/7 
f 21/29/7 2/26/7 20/28/7 
f 21/29/7 20/28/7 16/30/7 
f 21/29/7 16/30/7 15/31/7 
s 2
f 19/32/1 22/33/1 23/34/1 
f 23/34/1 24/35/1 19/32/1 
s 4
f 25/36/8 26/37/8 27/38/8 
f 28/39/8 25/36/8 27/38/8 
f 28/39/8 27/38/8 29/40/8 
f 28/39/8 29/40/8 30/41/8 
s 8
f 10/42/3 31/43/3 30/44/3 
f 30/44/3 29/45/3 10/42/3 
s 16
f 22/46/4 25/47/4 28/48/4 
f 23/49/4 22/46/4 28/48/4 
f 23/49/4 28/48/4 30/50/4 
f 23/49/4 30/50/4 31/51/4 
s 32
f 32/52/5 16/53/5 33/54/5 
f 33/54/5 34/55/5 32/52/5 
s 64
f 19/56/7 26/57/7 35/58/7 
f 20/59/7 19/56/7 35/58/7 
f 20/59/7 35/58/7 33/50/7 
f 20/59/7 33/50/7 16/51/7 
s 4
f 36/36/8 37/37/8 38/38/8 
f 39/39/8 36/36/8 38/38/8 
f 39/39/8 38/38/8 40/40/8 
f 39/39/8 40/40/8 41/41/8 
s 8
f 42/60/3 8/61/3 41/62/3 
f 41/62/3 40/63/3 42/60/3 
s 16
f 12/64/4 36/65/4 39/50/4 
f 13/51/4 12/64/4 39/50/4 
f 13/51/4 39/50/4 41/66/4 
f 13/51/4 41/66/4 8/67/4 
s 32
f 18/68/6 43/69/6 44/70/6 
f 44/70/6 45/71/5 18/68/6 
s 64
f 46/56/7 37/57/7 47/58/7 
f 48/59/7 46/56/7 47/58/7 
f 48/59/7 47/58/7 44/50/7 
f 48/59/7 44/50/7 43/51/7 
s 2
f 21/72/9 15/73/9 15/74/10 
f 2/2/2 21/72/9 15/74/10 
f 2/2/2 15/74/10 3/3/1 
s 16
f 17/16/4 18/15/4 49/17/4 
f 50/18/4 17/16/4 49/17/4 
f 50/18/4 49/17/4 12/75/4 
f 11/76/4 50/18/4 12/75/4 
s 64
f 5/13/7 10/14/7 24/77/7 
f 1/78/7 5/13/7 24/77/7 
f 1/78/7 24/77/7 19/27/7 
f 2/26/7 1/78/7 19/27/7 
s 2
f 16/79/1 32/80/1 51/81/1 
f 51/81/1 20/82/1 16/79/1 
f 20/82/1 51/81/1 22/33/1 
f 22/33/1 19/32/1 20/82/1 
f 31/83/1 10/84/1 24/35/1 
f 24/35/1 23/34/1 31/83/1 
s 4
f 34/85/8 33/86/8 35/87/8 
f 52/88/8 34/85/8 35/87/8 
f 52/88/8 35/87/8 26/89/8 
f 25/90/8 52/88/8 26/89/8 
s 16
f 32/91/4 34/92/4 52/93/4 
f 51/94/4 32/91/4 52/93/4 
f 51/94/4 52/93/4 25/47/4 
f 22/46/4 51/94/4 25/47/4 
s 64
f 10/95/7 29/96/7 27/97/7 
f 24/98/7 10/95/7 27/97/7 
f 24/98/7 27/97/7 26/57/7 
f 19/56/7 24/98/7 26/57/7 
s 4
f 45/85/8 44/86/8 47/87/8 
f 53/88/8 45/85/8 47/87/8 
f 53/88/8 47/87/8 37/89/8 
f 36/90/8 53/88/8 37/89/8 
s 16
f 18/99/4 45/100/4 53/101/4 
f 49/102/4 18/99/4 53/101/4 
f 49/102/4 53/101/4 36/103/4 
f 12/104/4 49/102/4 36/103/4 
s 64
f 42/95/7 40/96/7 38/97/7 
f 54/98/11 42/95/7 38/97/7 
f 54/98/11 38/97/7 37/57/7 
f 46/56/7 54/98/11 37/57/7 
s off
f 51/105/8 55/106/8 56/107/8 
f 56/107/1 16/108/1 32/109/1 
f 51/105/8 56/107/8 32/109/8 
f 57/110/12 31/111/12 58/112/12 
f 57/110/8 58/112/8 56/113/8 
f 57/110/12 56/113/12 55/114/12 
s 2
f 59/115/2 6/116/1 9/117/1 
f 9/117/1 60/118/13 59/115/2 
f 17/119/14 59/115/2 60/118/13 
s off
f 61/120/12 18/121/12 16/122/12 
f 62/123/12 63/124/12 64/125/12 
f 65/126/8 62/123/8 64/125/8 
f 66/127/8 65/126/8 64/125/8 
s 2
f 59/115/2 11/128/2 14/129/1 
f 59/115/2 14/129/1 7/130/1 
f 59/115/2 7/130/1 6/116/1 
f 17/119/14 17/131/4 50/132/4 
f 17/119/14 50/132/4 11/128/2 
f 17/119/14 11/128/2 59/115/2 
s off
f 62/133/8 46/134/8 48/135/8 
f 48/135/13 43/136/13 18/121/13 
f 62/133/15 48/135/15 18/121/15 
f 65/126/12 42/137/12 54/138/12 
f 65/126/12 54/138/12 46/139/12 
f 65/126/8 46/139/8 62/123/8 
s 2
f 60/118/13 9/117/1 4/4/1 
f 4/4/1 3/3/1 60/118/13 
f 15/140/16 60/118/13 3/3/1 
f 3/3/1 15/74/10 15/140/16 
s off
f 61/120/17 16/122/17 16/108/17 
f 16/108/8 56/107/8 61/120/8 
f 67/141/8 58/112/8 66/127/8 
f 66/127/8 64/125/8 67/141/8 
f 63/142/8 62/133/8 18/121/8 
f 18/121/8 61/120/8 63/142/8 
f 63/124/8 61/143/8 64/125/8 
f 64/125/8 61/143/8 56/113/8 
f 56/113/8 58/112/8 67/141/8 
f 64/125/12 56/113/12 67/141/12 
s 2
f 60/118/13 15/140/16 17/119/14 
# 136 faces

