# 3ds Max Wavefront OBJ Exporter v0.97b - (c)2007 guruware
# File Created: 09.02.2017 23:55:20

#
# object Ground_Node_LOD_NoCom
#

v  -3.8283 0.6000 -32.0000
v  -3.8283 0.6000 -16.0000
v  -3.8283 0.6000 -0.0001
v  -2.0000 0.6000 -0.0001
v  -3.8283 0.6000 15.9999
v  -3.8283 0.6000 32.0000
v  -2.0000 0.6000 32.0000
v  0.0120 0.6000 -0.0000
v  3.8280 0.6000 -32.0000
v  1.9998 0.6000 32.0000
v  1.9998 0.6000 -0.0000
v  -0.0002 0.6000 32.0000
v  3.8280 0.6000 -0.0000
v  3.8280 0.6000 -16.0000
v  3.8280 0.6000 32.0000
v  3.8280 0.6000 16.0000
# 16 vertices

vn 1.0000 0.0000 -0.0000
vn -0.0000 1.0000 -0.0000
vn -0.0000 1.0000 0.0000
vn 0.0000 1.0000 -0.0000
vn 0.0000 1.0000 0.0000
# 5 vertex normals

vt 0.9994 1.0006 0.0000
vt -0.0006 1.0006 0.0000
vt -0.0006 0.7506 0.0000
vt 0.9994 0.7506 0.0000
vt 0.4994 0.5006 0.0000
vt 0.5892 0.1934 0.0000
vt 0.5892 0.0077 0.0000
vt 0.6879 0.0077 0.0000
vt 0.6386 0.4113 0.0000
vt 0.5846 0.1925 0.0000
vt 0.5846 0.0068 0.0000
vt 0.6834 0.0068 0.0000
vt 0.6834 0.4104 0.0000
vt 0.5846 0.4104 0.0000
vt 0.7966 0.0077 0.0000
vt 0.9534 0.4113 0.0000
vt 0.7960 0.4113 0.0000
vt 0.8995 0.0068 0.0000
vt 0.8995 0.4104 0.0000
vt 0.7912 0.4077 0.0000
vt 0.7915 0.0068 0.0000
vt 0.9041 0.0077 0.0000
vt 1.0028 0.0077 0.0000
vt 1.0028 0.1934 0.0000
vt 0.9983 0.0068 0.0000
vt 0.9983 0.1925 0.0000
vt 0.9983 0.4104 0.0000
# 27 texture coords

g Ground_Node_LOD_NoCom
s 2
f 1/1/1 1/2/1 2/3/1 
f 2/3/1 2/4/1 1/1/1 
f 2/4/1 2/3/1 3/5/1 
s off
f 2/6/2 3/7/2 4/8/2 
f 2/6/3 4/8/3 1/9/3 
f 5/10/4 6/11/4 7/12/4 
f 5/10/3 7/12/3 4/13/3 
f 5/10/2 4/13/2 3/14/2 
f 8/15/4 9/16/4 1/17/4 
f 10/18/4 11/19/4 8/20/4 
f 12/21/5 10/18/5 8/20/5 
f 11/22/4 13/23/4 14/24/4 
f 11/22/4 14/24/4 9/16/4 
f 10/18/4 15/25/4 16/26/4 
f 10/18/4 16/26/4 13/27/4 
f 10/18/4 13/27/4 11/19/4 
f 1/9/3 4/8/3 8/15/3 
f 8/20/5 7/12/5 12/21/5 
f 8/15/5 11/22/5 9/16/5 
f 4/13/3 7/12/3 8/20/3 
# 20 faces

