# 3ds Max Wavefront OBJ Exporter v0.97b - (c)2007 guruware
# File Created: 11.02.2017 12:59:54

#
# object Ground_NoCom003
#

v  -1.9999 0.6193 32.0000
v  -1.9999 0.4860 26.1819
v  -3.9999 0.4668 26.1819
v  -3.9999 0.6001 32.0000
v  -1.9999 0.2196 20.3636
v  -3.9999 0.2004 20.3636
v  -1.9999 0.2193 14.5454
v  -3.9999 0.2001 14.5454
v  -1.9999 0.2193 8.7272
v  -3.9999 0.2001 8.7272
v  -1.9999 0.2193 2.9090
v  -3.9999 0.2001 2.9090
v  -1.9999 0.2193 -2.9091
v  -3.9999 0.2001 -2.9091
v  -1.9999 0.2193 -8.7273
v  -3.9999 0.2001 -8.7273
v  -1.9999 0.2193 -14.5455
v  -3.9999 0.2001 -14.5455
v  -1.9999 0.2196 -20.3637
v  -3.9999 0.2004 -20.3637
v  -1.9999 0.4860 -26.1819
v  -3.9999 0.4668 -26.1819
v  -1.9999 0.6193 -32.0000
v  -3.9999 0.6001 -32.0000
v  -3.9999 0.5001 32.0000
v  -1.9999 0.5193 32.0000
v  -1.9999 0.5452 32.0000
v  4.0001 0.6001 32.0000
v  2.0001 0.6193 32.0000
v  2.0001 0.5934 32.0000
v  4.0001 0.5001 32.0000
v  4.0001 0.3668 26.1819
v  4.0001 0.4668 26.1819
v  4.0001 0.1004 20.3636
v  4.0001 0.2004 20.3636
v  4.0001 0.1001 14.5454
v  4.0001 0.2001 14.5454
v  4.0001 0.1001 8.7272
v  4.0001 0.2001 8.7272
v  4.0001 0.1001 2.9090
v  4.0001 0.2001 2.9090
v  4.0001 0.1001 -2.9091
v  4.0001 0.2001 -2.9091
v  4.0001 0.1001 -8.7273
v  4.0001 0.2001 -8.7273
v  4.0001 0.1001 -14.5455
v  4.0001 0.2001 -14.5455
v  4.0001 0.1004 -20.3637
v  4.0001 0.2004 -20.3637
v  4.0001 0.3668 -26.1819
v  4.0001 0.4668 -26.1819
v  4.0001 0.5001 -32.0000
v  4.0001 0.6001 -32.0000
v  2.0001 0.5193 -32.0000
v  2.0001 0.5452 -32.0000
v  -1.9999 0.5934 -32.0000
v  -3.9999 0.5001 -32.0000
v  -3.9999 0.3668 -26.1819
v  -3.9999 0.1004 -20.3637
v  -3.9999 0.1001 -14.5455
v  -3.9999 0.1001 -8.7273
v  -3.9999 0.1001 -2.9091
v  -3.9999 0.1001 2.9090
v  -3.9999 0.1001 8.7272
v  -3.9999 0.1001 14.5454
v  -3.9999 0.1004 20.3636
v  -3.9999 0.3668 26.1819
v  3.7765 -0.1199 -0.0004
v  3.7765 0.1001 -0.0004
v  3.7765 0.1001 -5.3337
v  3.7765 -0.1199 -5.3337
v  3.8487 -0.1199 -0.0004
v  3.8487 -0.1199 -5.3337
v  3.8487 0.1001 -0.0004
v  3.8487 0.1001 -5.3337
v  3.8487 0.5001 31.9997
v  3.7765 0.5001 31.9997
v  3.7765 0.2801 31.9997
v  3.8487 0.2801 31.9997
v  3.7765 0.2801 -32.0003
v  3.7765 0.5001 -32.0003
v  3.8487 0.5001 -32.0003
v  3.8487 0.2801 -32.0003
v  -3.8489 -0.1199 -0.0003
v  -3.8489 0.1000 -0.0003
v  -3.8489 0.1000 -5.3337
v  -3.8489 -0.1199 -5.3337
v  -3.7767 -0.1199 -0.0003
v  -3.7767 -0.1199 -5.3337
v  -3.7767 0.1000 -0.0003
v  -3.7767 0.1000 -5.3337
v  -3.7767 0.5000 31.9997
v  -3.8489 0.5000 31.9997
v  -3.8489 0.2801 31.9997
v  -3.7767 0.2801 31.9997
v  -3.8489 0.2801 -32.0003
v  -3.8489 0.5000 -32.0003
v  -3.7767 0.5000 -32.0003
v  -3.7767 0.2801 -32.0003
v  3.7765 0.3779 26.6663
v  3.7765 0.1579 26.6663
v  3.7765 0.0997 20.3640
v  3.7765 -0.1203 20.3640
v  3.7765 0.1001 14.5450
v  3.7765 -0.1199 14.5450
v  3.7765 0.1001 10.6663
v  3.7765 -0.1199 10.6663
v  3.7765 0.1001 5.3330
v  3.7765 -0.1199 5.3330
v  3.7765 0.1579 -26.6670
v  3.7765 0.3779 -26.6670
v  3.7765 -0.1203 -20.3640
v  3.7765 0.0997 -20.3640
v  3.7765 -0.0866 -16.0003
v  3.7765 0.1334 -16.0003
v  3.7765 -0.1199 -14.5460
v  3.7765 0.1001 -14.5460
v  3.8487 0.1579 26.6663
v  3.8487 -0.1203 20.3640
v  3.8487 -0.1199 14.5450
v  3.8487 -0.1199 10.6663
v  3.8487 -0.1199 5.3330
v  3.8487 0.1579 -26.6670
v  3.8487 -0.1203 -20.3640
v  3.8487 -0.0866 -16.0003
v  3.8487 -0.1199 -14.5460
v  3.8487 0.3779 26.6663
v  3.8487 0.0997 20.3640
v  3.8487 0.1001 14.5450
v  3.8487 0.1001 10.6663
v  3.8487 0.1001 5.3330
v  3.8487 0.3779 -26.6670
v  3.8487 0.0997 -20.3640
v  3.8487 0.1334 -16.0003
v  3.8487 0.1001 -14.5460
v  -3.8489 0.3778 26.6663
v  -3.8489 0.1579 26.6663
v  -3.8489 0.0996 20.3640
v  -3.8489 -0.1203 20.3640
v  -3.8489 0.1000 14.5450
v  -3.8489 -0.1199 14.5450
v  -3.8489 0.1000 10.6663
v  -3.8489 -0.1199 10.6663
v  -3.8489 0.1000 5.3330
v  -3.8489 -0.1199 5.3330
v  -3.8489 0.1579 -26.6670
v  -3.8489 0.3778 -26.6670
v  -3.8489 -0.1203 -20.3640
v  -3.8489 0.0996 -20.3640
v  -3.8489 -0.0866 -16.0003
v  -3.8489 0.1333 -16.0003
v  -3.8489 -0.1199 -14.5460
v  -3.8489 0.1000 -14.5460
v  -3.7767 0.1579 26.6663
v  -3.7767 -0.1203 20.3640
v  -3.7767 -0.1199 14.5450
v  -3.7767 -0.1199 10.6663
v  -3.7767 -0.1199 5.3330
v  -3.7767 0.1579 -26.6670
v  -3.7767 -0.1203 -20.3640
v  -3.7767 -0.0866 -16.0003
v  -3.7767 -0.1199 -14.5460
v  -3.7767 0.3778 26.6663
v  -3.7767 0.0996 20.3640
v  -3.7767 0.1000 14.5450
v  -3.7767 0.1000 10.6663
v  -3.7767 0.1000 5.3330
v  -3.7767 0.3778 -26.6670
v  -3.7767 0.0996 -20.3640
v  -3.7767 0.1333 -16.0003
v  -3.7767 0.1000 -14.5460
v  2.0001 0.4860 26.1819
v  0.0001 0.5168 26.1819
v  0.0001 0.6501 32.0000
v  2.0001 0.2196 20.3636
v  0.0001 0.2504 20.3636
v  2.0001 0.2193 14.5454
v  0.0001 0.2501 14.5454
v  2.0001 0.2193 8.7272
v  0.0001 0.2501 8.7272
v  2.0001 0.2193 2.9090
v  0.0001 0.2501 2.9090
v  2.0001 0.2193 -2.9091
v  0.0001 0.2501 -2.9091
v  2.0001 0.2193 -8.7273
v  0.0001 0.2501 -8.7273
v  2.0001 0.2193 -14.5455
v  0.0001 0.2501 -14.5455
v  2.0001 0.2196 -20.3637
v  0.0001 0.2504 -20.3637
v  2.0001 0.4860 -26.1819
v  0.0001 0.5168 -26.1819
v  2.0001 0.6193 -32.0000
v  0.0001 0.6501 -32.0000
v  2.0001 0.5193 32.0000
v  0.0001 0.6001 32.0000
v  0.0001 0.5501 32.0000
v  -1.9999 0.5193 -32.0000
v  0.0001 0.6001 -32.0000
v  0.0001 0.5501 -32.0000
# 200 vertices

vn -0.0059 0.9997 -0.0229
vn -0.0059 0.9994 -0.0343
vn -0.0089 0.9994 -0.0343
vn -0.0089 0.9997 -0.0229
vn -0.0059 1.0000 -0.0000
vn -0.0089 1.0000 -0.0000
vn -0.0059 0.9997 0.0229
vn -0.0089 0.9997 0.0229
vn -0.0059 0.9994 0.0343
vn -0.0089 0.9994 0.0343
vn 0.0000 0.0000 1.0000
vn 1.0000 0.0000 -0.0000
vn 0.0000 0.0000 -1.0000
vn 0.0000 -0.0004 -1.0000
vn 0.0000 -0.0001 -1.0000
vn 0.0000 0.0002 -1.0000
vn 0.0000 0.0001 -1.0000
vn -1.0000 0.0000 -0.0000
vn 0.0000 -1.0000 -0.0000
vn 0.0000 -0.9997 0.0229
vn 0.0000 -0.9990 0.0441
vn 0.0000 -1.0000 -0.0001
vn 0.0000 -0.9997 -0.0229
vn 0.0000 -0.9990 -0.0441
vn 0.0000 -1.0000 0.0077
vn 0.0059 0.9997 -0.0229
vn 0.0059 0.9994 -0.0343
vn 0.0000 0.9994 -0.0343
vn 0.0000 0.9997 -0.0229
vn 0.0059 1.0000 -0.0000
vn 0.0000 1.0000 -0.0000
vn 0.0059 0.9997 0.0229
vn 0.0000 0.9997 0.0229
vn 0.0059 0.9994 0.0343
vn 0.0000 0.9994 0.0343
vn 0.0089 0.9997 -0.0229
vn 0.0089 0.9994 -0.0343
vn 0.0089 1.0000 -0.0000
vn 0.0089 0.9997 0.0229
vn 0.0089 0.9994 0.0343
# 40 vertex normals

vt 0.6877 0.1402 0.0000
vt 0.6877 0.2802 0.0000
vt 0.5786 0.2802 0.0000
vt 0.5786 0.1402 0.0000
vt 0.6877 0.4202 0.0000
vt 0.5786 0.4202 0.0000
vt 0.6877 0.0007 0.0000
vt 0.6877 0.1407 0.0000
vt 0.5786 0.1407 0.0000
vt 0.5786 0.0007 0.0000
vt 0.6877 0.2807 0.0000
vt 0.5786 0.2807 0.0000
vt 0.6877 0.4207 0.0000
vt 0.5786 0.4207 0.0000
vt 0.6877 0.0002 0.0000
vt 0.5786 0.0002 0.0000
vt 1.0000 0.1402 0.0000
vt 0.8908 0.1402 0.0000
vt 0.5779 0.0005 0.0000
vt 0.5779 0.4216 0.0000
vt 0.5923 0.4217 0.0000
vt 0.5923 0.0005 0.0000
vt 0.5779 0.4217 0.0000
vt 0.5923 0.4216 0.0000
vt 1.0000 0.4207 0.0000
vt 0.8908 0.4207 0.0000
vt 0.4444 -0.0001 0.0000
vt 0.3291 -0.0001 0.0000
vt 0.3291 0.9999 0.0000
vt 0.4444 0.9999 0.0000
vt -0.8085 0.5000 0.0000
vt -0.8306 0.5000 0.0000
vt -0.8306 0.4167 0.0000
vt -0.8085 0.4167 0.0000
vt -0.8085 1.0000 0.0000
vt -0.8306 1.0000 0.0000
vt -0.8306 0.9167 0.0000
vt -0.8085 0.9167 0.0000
vt -0.8306 0.8333 0.0000
vt -0.8085 0.8333 0.0000
vt -0.8306 0.7500 0.0000
vt -0.8085 0.7500 0.0000
vt -0.8306 0.6667 0.0000
vt -0.8085 0.6667 0.0000
vt -0.8306 0.5833 0.0000
vt -0.8085 0.5833 0.0000
vt -0.8306 0.0000 0.0000
vt -0.8085 0.0000 0.0000
vt -0.8085 0.0833 0.0000
vt -0.8306 0.0833 0.0000
vt -0.8085 0.1667 0.0000
vt -0.8306 0.1667 0.0000
vt -0.8085 0.2500 0.0000
vt -0.8306 0.2500 0.0000
vt -0.8085 0.3333 0.0000
vt -0.8306 0.3333 0.0000
vt 0.4444 1.0000 0.0000
vt 0.3291 1.0000 0.0000
vt 0.8908 0.2802 0.0000
vt 0.7893 0.2802 0.0000
vt 0.7893 0.1402 0.0000
vt 0.8908 0.4202 0.0000
vt 0.7893 0.4202 0.0000
vt 0.8908 0.0007 0.0000
vt 0.8908 0.1407 0.0000
vt 0.7893 0.1407 0.0000
vt 0.7893 0.0007 0.0000
vt 0.8908 0.2807 0.0000
vt 0.7893 0.2807 0.0000
vt 0.7893 0.4207 0.0000
vt 0.8908 0.0002 0.0000
vt 0.7893 0.0002 0.0000
vt 1.0000 0.2802 0.0000
vt 1.0000 0.4202 0.0000
vt 1.0000 0.0007 0.0000
vt 1.0000 0.1407 0.0000
vt 1.0000 0.2807 0.0000
vt 1.0000 0.0002 0.0000
# 78 texture coords

g Ground_NoCom003
s 4
f 1/1/1 2/2/2 3/3/3 
f 3/3/3 4/4/4 1/1/1 
f 2/2/2 5/5/1 6/6/4 
f 6/6/4 3/3/3 2/2/2 
f 5/7/1 7/8/5 8/9/6 
f 8/9/6 6/10/4 5/7/1 
f 7/8/5 9/11/5 10/12/6 
f 10/12/6 8/9/6 7/8/5 
f 9/11/5 11/13/5 12/14/6 
f 12/14/6 10/12/6 9/11/5 
f 11/15/5 13/1/5 14/4/6 
f 14/4/6 12/16/6 11/15/5 
f 13/1/5 15/2/5 16/3/6 
f 16/3/6 14/4/6 13/1/5 
f 15/2/5 17/5/5 18/6/6 
f 18/6/6 16/3/6 15/2/5 
f 17/7/5 19/8/7 20/9/8 
f 20/9/8 18/10/6 17/7/5 
f 19/8/7 21/11/9 22/12/10 
f 22/12/10 20/9/8 19/8/7 
f 21/11/9 23/13/7 24/14/8 
f 24/14/8 22/12/10 21/11/9 
s 8
f 25/4/11 26/1/11 27/1/11 
f 28/17/11 29/18/11 30/18/11 
s 16
f 31/19/12 32/20/12 33/21/12 
f 33/21/12 28/22/12 31/19/12 
f 32/19/12 34/20/12 35/21/12 
f 35/21/12 33/22/12 32/19/12 
f 34/23/12 36/19/12 37/22/12 
f 37/22/12 35/24/12 34/23/12 
f 36/19/12 38/20/12 39/21/12 
f 39/21/12 37/22/12 36/19/12 
f 38/19/12 40/20/12 41/21/12 
f 41/21/12 39/22/12 38/19/12 
f 40/23/12 42/19/12 43/22/12 
f 43/22/12 41/24/12 40/23/12 
f 42/19/12 44/20/12 45/21/12 
f 45/21/12 43/22/12 42/19/12 
f 44/19/12 46/20/12 47/21/12 
f 47/21/12 45/22/12 44/19/12 
f 46/23/12 48/19/12 49/22/12 
f 49/22/12 47/24/12 46/23/12 
f 48/19/12 50/20/12 51/21/12 
f 51/21/12 49/22/12 48/19/12 
f 50/19/12 52/20/12 53/21/12 
f 53/21/12 51/22/12 50/19/12 
s 32
f 52/25/13 54/26/14 55/26/15 
f 24/14/13 23/13/16 56/13/17 
s 64
f 57/23/18 58/19/18 22/22/18 
f 22/22/18 24/24/18 57/23/18 
f 58/23/18 59/19/18 20/22/18 
f 20/22/18 22/24/18 58/23/18 
f 59/19/18 60/20/18 18/21/18 
f 18/21/18 20/22/18 59/19/18 
f 60/23/18 61/19/18 16/22/18 
f 16/22/18 18/24/18 60/23/18 
f 61/23/18 62/19/18 14/22/18 
f 14/22/18 16/24/18 61/23/18 
f 62/19/18 63/20/18 12/21/18 
f 12/21/18 14/22/18 62/19/18 
f 63/23/18 64/19/18 10/22/18 
f 10/22/18 12/24/18 63/23/18 
f 64/23/18 65/19/18 8/22/18 
f 8/22/18 10/24/18 64/23/18 
f 65/19/18 66/20/18 6/21/18 
f 6/21/18 8/22/18 65/19/18 
f 66/23/18 67/19/18 3/22/18 
f 3/22/18 6/24/18 66/23/18 
f 67/23/18 25/19/18 4/22/18 
f 4/22/18 3/24/18 67/23/18 
s off
f 68/27/18 69/28/18 70/29/18 
f 70/29/18 71/30/18 68/27/18 
f 72/31/19 68/32/19 71/33/19 
f 71/33/19 73/34/19 72/31/19 
f 74/28/12 72/27/12 73/30/12 
f 73/30/12 75/29/12 74/28/12 
f 76/28/11 77/27/11 78/28/11 
f 78/28/11 79/28/11 76/28/11 
f 80/28/13 81/27/13 82/28/13 
f 82/28/13 83/28/13 80/28/13 
f 84/27/18 85/28/18 86/29/18 
f 86/29/18 87/30/18 84/27/18 
f 88/27/19 84/28/19 87/29/19 
f 87/29/19 89/30/19 88/27/19 
f 90/28/12 88/27/12 89/30/12 
f 89/30/12 91/29/12 90/28/12 
f 92/28/11 93/27/11 94/28/11 
f 94/28/11 95/28/11 92/28/11 
f 96/28/13 97/27/13 98/28/13 
f 98/28/13 99/28/13 96/28/13 
f 78/27/18 77/28/18 100/29/18 
f 100/29/18 101/30/18 78/27/18 
f 101/30/18 100/29/18 102/28/18 
f 102/28/18 103/27/18 101/30/18 
f 103/27/18 102/28/18 104/29/18 
f 104/29/18 105/30/18 103/27/18 
f 105/30/18 104/29/18 106/28/18 
f 106/28/18 107/27/18 105/30/18 
f 107/27/18 106/28/18 108/29/18 
f 108/29/18 109/30/18 107/27/18 
f 109/30/18 108/29/18 69/28/18 
f 69/28/18 68/27/18 109/30/18 
f 81/28/18 80/27/18 110/30/18 
f 110/30/18 111/29/18 81/28/18 
f 111/29/18 110/30/18 112/27/18 
f 112/27/18 113/28/18 111/29/18 
f 113/28/18 112/27/18 114/30/18 
f 114/30/18 115/29/18 113/28/18 
f 115/29/18 114/30/18 116/27/18 
f 116/27/18 117/28/18 115/29/18 
f 117/28/18 116/27/18 71/30/18 
f 71/30/18 70/29/18 117/28/18 
f 79/35/20 78/36/20 101/37/20 
f 101/37/20 118/38/20 79/35/20 
f 118/38/21 101/37/21 103/39/21 
f 103/39/21 119/40/21 118/38/21 
f 119/40/22 103/39/22 105/41/22 
f 105/41/22 120/42/22 119/40/22 
f 120/42/19 105/41/19 107/43/19 
f 107/43/19 121/44/19 120/42/19 
f 121/44/19 107/43/19 109/45/19 
f 109/45/19 122/46/19 121/44/19 
f 122/46/19 109/45/19 68/32/19 
f 68/32/19 72/31/19 122/46/19 
f 80/47/23 83/48/23 123/49/23 
f 123/49/23 110/50/23 80/47/23 
f 110/50/24 123/49/24 124/51/24 
f 124/51/24 112/52/24 110/50/24 
f 112/52/25 124/51/25 125/53/25 
f 125/53/25 114/54/25 112/52/25 
f 114/54/23 125/53/23 126/55/23 
f 126/55/23 116/56/23 114/54/23 
f 116/56/19 126/55/19 73/34/19 
f 73/34/19 71/33/19 116/56/19 
f 76/28/12 79/27/12 118/30/12 
f 118/30/12 127/29/12 76/28/12 
f 127/29/12 118/30/12 119/27/12 
f 119/27/12 128/28/12 127/29/12 
f 128/28/12 119/27/12 120/30/12 
f 120/30/12 129/29/12 128/28/12 
f 129/29/12 120/30/12 121/27/12 
f 121/27/12 130/28/12 129/29/12 
f 130/28/12 121/27/12 122/30/12 
f 122/30/12 131/29/12 130/28/12 
f 131/29/12 122/30/12 72/27/12 
f 72/27/12 74/28/12 131/29/12 
f 83/27/12 82/28/12 132/29/12 
f 132/29/12 123/30/12 83/27/12 
f 123/30/12 132/29/12 133/28/12 
f 133/28/12 124/27/12 123/30/12 
f 124/27/12 133/28/12 134/29/12 
f 134/29/12 125/30/12 124/27/12 
f 125/30/12 134/29/12 135/28/12 
f 135/28/12 126/27/12 125/30/12 
f 126/27/12 135/28/12 75/29/12 
f 75/29/12 73/30/12 126/27/12 
f 94/57/18 93/58/18 136/28/18 
f 136/28/18 137/27/18 94/57/18 
f 137/30/18 136/29/18 138/28/18 
f 138/28/18 139/27/18 137/30/18 
f 139/27/18 138/28/18 140/29/18 
f 140/29/18 141/30/18 139/27/18 
f 141/30/18 140/29/18 142/28/18 
f 142/28/18 143/27/18 141/30/18 
f 143/27/18 142/28/18 144/29/18 
f 144/29/18 145/30/18 143/27/18 
f 145/30/18 144/29/18 85/28/18 
f 85/28/18 84/27/18 145/30/18 
f 97/28/18 96/27/18 146/30/18 
f 146/30/18 147/29/18 97/28/18 
f 147/29/18 146/30/18 148/27/18 
f 148/27/18 149/28/18 147/29/18 
f 149/28/18 148/27/18 150/30/18 
f 150/30/18 151/29/18 149/28/18 
f 151/29/18 150/30/18 152/27/18 
f 152/27/18 153/28/18 151/29/18 
f 153/28/18 152/27/18 87/30/18 
f 87/30/18 86/29/18 153/28/18 
f 95/28/20 94/27/20 137/30/20 
f 137/30/20 154/29/20 95/28/20 
f 154/30/21 137/29/21 139/28/21 
f 139/28/21 155/27/21 154/30/21 
f 155/27/22 139/28/22 141/29/22 
f 141/29/22 156/30/22 155/27/22 
f 156/29/19 141/30/19 143/27/19 
f 143/27/19 157/28/19 156/29/19 
f 157/28/19 143/27/19 145/30/19 
f 145/30/19 158/29/19 157/28/19 
f 158/30/19 145/29/19 84/28/19 
f 84/28/19 88/27/19 158/30/19 
f 96/27/23 99/28/23 159/29/23 
f 159/29/23 146/30/23 96/27/23 
f 146/29/24 159/30/24 160/27/24 
f 160/27/24 148/28/24 146/29/24 
f 148/28/25 160/27/25 161/30/25 
f 161/30/25 150/29/25 148/28/25 
f 150/30/23 161/29/23 162/28/23 
f 162/28/23 152/27/23 150/30/23 
f 152/27/19 162/28/19 89/29/19 
f 89/29/19 87/30/19 152/27/19 
f 92/28/12 95/27/12 154/30/12 
f 154/30/12 163/29/12 92/28/12 
f 163/29/12 154/30/12 155/27/12 
f 155/27/12 164/28/12 163/29/12 
f 164/28/12 155/27/12 156/30/12 
f 156/30/12 165/29/12 164/28/12 
f 165/29/12 156/30/12 157/27/12 
f 157/27/12 166/28/12 165/29/12 
f 166/28/12 157/27/12 158/30/12 
f 158/30/12 167/29/12 166/28/12 
f 167/29/12 158/30/12 88/27/12 
f 88/27/12 90/28/12 167/29/12 
f 99/27/12 98/28/12 168/29/12 
f 168/29/12 159/30/12 99/27/12 
f 159/30/12 168/29/12 169/28/12 
f 169/28/12 160/27/12 159/30/12 
f 160/27/12 169/28/12 170/29/12 
f 170/29/12 161/30/12 160/27/12 
f 161/30/12 170/29/12 171/28/12 
f 171/28/12 162/27/12 161/30/12 
f 162/27/12 171/28/12 91/29/12 
f 91/29/12 89/30/12 162/27/12 
f 68/27/18 69/28/18 70/29/18 
f 70/29/18 71/30/18 68/27/18 
f 72/31/19 68/32/19 71/33/19 
f 71/33/19 73/34/19 72/31/19 
f 74/28/12 72/27/12 73/30/12 
f 73/30/12 75/29/12 74/28/12 
f 76/28/11 77/27/11 78/28/11 
f 78/28/11 79/28/11 76/28/11 
f 80/28/13 81/27/13 82/28/13 
f 82/28/13 83/28/13 80/28/13 
f 84/27/18 85/28/18 86/29/18 
f 86/29/18 87/30/18 84/27/18 
f 88/27/19 84/28/19 87/29/19 
f 87/29/19 89/30/19 88/27/19 
f 90/28/12 88/27/12 89/30/12 
f 89/30/12 91/29/12 90/28/12 
f 92/28/11 93/27/11 94/28/11 
f 94/28/11 95/28/11 92/28/11 
f 96/28/13 97/27/13 98/28/13 
f 98/28/13 99/28/13 96/28/13 
f 78/27/18 77/28/18 100/29/18 
f 100/29/18 101/30/18 78/27/18 
f 101/30/18 100/29/18 102/28/18 
f 102/28/18 103/27/18 101/30/18 
f 103/27/18 102/28/18 104/29/18 
f 104/29/18 105/30/18 103/27/18 
f 105/30/18 104/29/18 106/28/18 
f 106/28/18 107/27/18 105/30/18 
f 107/27/18 106/28/18 108/29/18 
f 108/29/18 109/30/18 107/27/18 
f 109/30/18 108/29/18 69/28/18 
f 69/28/18 68/27/18 109/30/18 
f 81/28/18 80/27/18 110/30/18 
f 110/30/18 111/29/18 81/28/18 
f 111/29/18 110/30/18 112/27/18 
f 112/27/18 113/28/18 111/29/18 
f 113/28/18 112/27/18 114/30/18 
f 114/30/18 115/29/18 113/28/18 
f 115/29/18 114/30/18 116/27/18 
f 116/27/18 117/28/18 115/29/18 
f 117/28/18 116/27/18 71/30/18 
f 71/30/18 70/29/18 117/28/18 
f 79/35/20 78/36/20 101/37/20 
f 101/37/20 118/38/20 79/35/20 
f 118/38/21 101/37/21 103/39/21 
f 103/39/21 119/40/21 118/38/21 
f 119/40/22 103/39/22 105/41/22 
f 105/41/22 120/42/22 119/40/22 
f 120/42/19 105/41/19 107/43/19 
f 107/43/19 121/44/19 120/42/19 
f 121/44/19 107/43/19 109/45/19 
f 109/45/19 122/46/19 121/44/19 
f 122/46/19 109/45/19 68/32/19 
f 68/32/19 72/31/19 122/46/19 
f 80/47/23 83/48/23 123/49/23 
f 123/49/23 110/50/23 80/47/23 
f 110/50/24 123/49/24 124/51/24 
f 124/51/24 112/52/24 110/50/24 
f 112/52/25 124/51/25 125/53/25 
f 125/53/25 114/54/25 112/52/25 
f 114/54/23 125/53/23 126/55/23 
f 126/55/23 116/56/23 114/54/23 
f 116/56/19 126/55/19 73/34/19 
f 73/34/19 71/33/19 116/56/19 
f 76/28/12 79/27/12 118/30/12 
f 118/30/12 127/29/12 76/28/12 
f 127/29/12 118/30/12 119/27/12 
f 119/27/12 128/28/12 127/29/12 
f 128/28/12 119/27/12 120/30/12 
f 120/30/12 129/29/12 128/28/12 
f 129/29/12 120/30/12 121/27/12 
f 121/27/12 130/28/12 129/29/12 
f 130/28/12 121/27/12 122/30/12 
f 122/30/12 131/29/12 130/28/12 
f 131/29/12 122/30/12 72/27/12 
f 72/27/12 74/28/12 131/29/12 
f 83/27/12 82/28/12 132/29/12 
f 132/29/12 123/30/12 83/27/12 
f 123/30/12 132/29/12 133/28/12 
f 133/28/12 124/27/12 123/30/12 
f 124/27/12 133/28/12 134/29/12 
f 134/29/12 125/30/12 124/27/12 
f 125/30/12 134/29/12 135/28/12 
f 135/28/12 126/27/12 125/30/12 
f 126/27/12 135/28/12 75/29/12 
f 75/29/12 73/30/12 126/27/12 
f 94/57/18 93/58/18 136/28/18 
f 136/28/18 137/27/18 94/57/18 
f 137/30/18 136/29/18 138/28/18 
f 138/28/18 139/27/18 137/30/18 
f 139/27/18 138/28/18 140/29/18 
f 140/29/18 141/30/18 139/27/18 
f 141/30/18 140/29/18 142/28/18 
f 142/28/18 143/27/18 141/30/18 
f 143/27/18 142/28/18 144/29/18 
f 144/29/18 145/30/18 143/27/18 
f 145/30/18 144/29/18 85/28/18 
f 85/28/18 84/27/18 145/30/18 
f 97/28/18 96/27/18 146/30/18 
f 146/30/18 147/29/18 97/28/18 
f 147/29/18 146/30/18 148/27/18 
f 148/27/18 149/28/18 147/29/18 
f 149/28/18 148/27/18 150/30/18 
f 150/30/18 151/29/18 149/28/18 
f 151/29/18 150/30/18 152/27/18 
f 152/27/18 153/28/18 151/29/18 
f 153/28/18 152/27/18 87/30/18 
f 87/30/18 86/29/18 153/28/18 
f 95/28/20 94/27/20 137/30/20 
f 137/30/20 154/29/20 95/28/20 
f 154/30/21 137/29/21 139/28/21 
f 139/28/21 155/27/21 154/30/21 
f 155/27/22 139/28/22 141/29/22 
f 141/29/22 156/30/22 155/27/22 
f 156/29/19 141/30/19 143/27/19 
f 143/27/19 157/28/19 156/29/19 
f 157/28/19 143/27/19 145/30/19 
f 145/30/19 158/29/19 157/28/19 
f 158/30/19 145/29/19 84/28/19 
f 84/28/19 88/27/19 158/30/19 
f 96/27/23 99/28/23 159/29/23 
f 159/29/23 146/30/23 96/27/23 
f 146/29/24 159/30/24 160/27/24 
f 160/27/24 148/28/24 146/29/24 
f 148/28/25 160/27/25 161/30/25 
f 161/30/25 150/29/25 148/28/25 
f 150/30/23 161/29/23 162/28/23 
f 162/28/23 152/27/23 150/30/23 
f 152/27/19 162/28/19 89/29/19 
f 89/29/19 87/30/19 152/27/19 
f 92/28/12 95/27/12 154/30/12 
f 154/30/12 163/29/12 92/28/12 
f 163/29/12 154/30/12 155/27/12 
f 155/27/12 164/28/12 163/29/12 
f 164/28/12 155/27/12 156/30/12 
f 156/30/12 165/29/12 164/28/12 
f 165/29/12 156/30/12 157/27/12 
f 157/27/12 166/28/12 165/29/12 
f 166/28/12 157/27/12 158/30/12 
f 158/30/12 167/29/12 166/28/12 
f 167/29/12 158/30/12 88/27/12 
f 88/27/12 90/28/12 167/29/12 
f 99/27/12 98/28/12 168/29/12 
f 168/29/12 159/30/12 99/27/12 
f 159/30/12 168/29/12 169/28/12 
f 169/28/12 160/27/12 159/30/12 
f 160/27/12 169/28/12 170/29/12 
f 170/29/12 161/30/12 160/27/12 
f 161/30/12 170/29/12 171/28/12 
f 171/28/12 162/27/12 161/30/12 
f 162/27/12 171/28/12 91/29/12 
f 91/29/12 89/30/12 162/27/12 
s 4
f 29/18/26 172/59/27 173/60/28 
f 173/60/28 174/61/29 29/18/26 
f 172/59/27 175/62/26 176/63/29 
f 176/63/29 173/60/28 172/59/27 
f 175/64/26 177/65/30 178/66/31 
f 178/66/31 176/67/29 175/64/26 
f 177/65/30 179/68/30 180/69/31 
f 180/69/31 178/66/31 177/65/30 
f 179/68/30 181/26/30 182/70/31 
f 182/70/31 180/69/31 179/68/30 
f 181/71/30 183/18/30 184/61/31 
f 184/61/31 182/72/31 181/71/30 
f 183/18/30 185/59/30 186/60/31 
f 186/60/31 184/61/31 183/18/30 
f 185/59/30 187/62/30 188/63/31 
f 188/63/31 186/60/31 185/59/30 
f 187/64/30 189/65/32 190/66/33 
f 190/66/33 188/67/31 187/64/30 
f 189/65/32 191/68/34 192/69/35 
f 192/69/35 190/66/33 189/65/32 
f 191/68/34 193/26/32 194/70/33 
f 194/70/33 192/69/35 191/68/34 
s 8
f 195/18/11 30/18/11 196/61/11 
f 196/61/11 197/61/11 195/18/11 
f 1/1/11 27/1/11 196/61/11 
f 196/61/11 174/61/11 1/1/11 
s 32
f 198/13/15 56/13/17 199/70/13 
f 199/70/13 200/70/13 198/13/15 
f 193/26/16 55/26/15 199/70/13 
f 199/70/13 194/70/13 193/26/16 
s 8
f 30/18/11 29/18/11 174/61/11 
f 174/61/11 196/61/11 30/18/11 
s 32
f 199/70/13 55/26/15 54/26/14 
f 54/26/14 200/70/13 199/70/13 
s 4
f 28/17/36 33/73/37 172/59/27 
f 172/59/27 29/18/26 28/17/36 
f 33/73/37 35/74/36 175/62/26 
f 175/62/26 172/59/27 33/73/37 
f 35/75/36 37/76/38 177/65/30 
f 177/65/30 175/64/26 35/75/36 
f 37/76/38 39/77/38 179/68/30 
f 179/68/30 177/65/30 37/76/38 
f 39/77/38 41/25/38 181/26/30 
f 181/26/30 179/68/30 39/77/38 
f 41/78/38 43/17/38 183/18/30 
f 183/18/30 181/71/30 41/78/38 
f 43/17/38 45/73/38 185/59/30 
f 185/59/30 183/18/30 43/17/38 
f 45/73/38 47/74/38 187/62/30 
f 187/62/30 185/59/30 45/73/38 
f 47/75/38 49/76/39 189/65/32 
f 189/65/32 187/64/30 47/75/38 
f 49/76/39 51/77/40 191/68/34 
f 191/68/34 189/65/32 49/76/39 
f 51/77/40 53/25/39 193/26/32 
f 193/26/32 191/68/34 51/77/40 
s 8
f 31/17/11 28/17/11 30/18/11 
f 30/18/11 195/18/11 31/17/11 
s 32
f 53/25/13 52/25/13 55/26/15 
f 55/26/15 193/26/16 53/25/13 
s 4
f 174/61/29 173/60/28 2/2/2 
f 2/2/2 1/1/1 174/61/29 
f 173/60/28 176/63/29 5/5/1 
f 5/5/1 2/2/2 173/60/28 
f 176/67/29 178/66/31 7/8/5 
f 7/8/5 5/7/1 176/67/29 
f 178/66/31 180/69/31 9/11/5 
f 9/11/5 7/8/5 178/66/31 
f 180/69/31 182/70/31 11/13/5 
f 11/13/5 9/11/5 180/69/31 
f 182/72/31 184/61/31 13/1/5 
f 13/1/5 11/15/5 182/72/31 
f 184/61/31 186/60/31 15/2/5 
f 15/2/5 13/1/5 184/61/31 
f 186/60/31 188/63/31 17/5/5 
f 17/5/5 15/2/5 186/60/31 
f 188/67/31 190/66/33 19/8/7 
f 19/8/7 17/7/5 188/67/31 
f 190/66/33 192/69/35 21/11/9 
f 21/11/9 19/8/7 190/66/33 
f 192/69/35 194/70/33 23/13/7 
f 23/13/7 21/11/9 192/69/35 
s 8
f 196/61/11 27/1/11 26/1/11 
f 26/1/11 197/61/11 196/61/11 
s 32
f 56/13/17 23/13/16 194/70/13 
f 194/70/13 199/70/13 56/13/17 
s 8
f 4/4/11 25/4/11 27/1/11 
f 27/1/11 1/1/11 4/4/11 
s 32
f 57/14/13 24/14/13 56/13/17 
f 56/13/17 198/13/15 57/14/13 
# 464 faces

