# 3ds Max Wavefront OBJ Exporter v0.97b - (c)2007 guruware
# File Created: 10.02.2017 20:56:05

#
# object Plane001
#

v  2.0000 0.3000 -0.0000
v  2.0000 0.2500 5.3333
v  4.0000 0.3000 -0.0000
v  4.0000 0.2500 5.3333
v  0.0000 0.1500 -0.0001
v  0.0000 0.2250 -5.3334
v  -2.0000 0.1500 -0.0001
v  -2.0000 0.2250 -5.3334
v  2.0000 0.1500 -0.0001
v  2.0000 0.2250 -5.3334
v  -2.0000 0.3000 -0.0000
v  -2.0000 0.3500 -5.3333
v  -4.0000 0.3000 -0.0000
v  -4.0000 0.3500 -5.3333
v  -2.0000 0.2500 5.3333
v  -2.0000 0.0750 5.3332
v  2.0000 0.0750 5.3332
v  2.0000 0.6000 -32.0000
v  2.0000 0.5500 -26.6667
v  4.0000 0.6000 -32.0000
v  4.0000 0.5500 -26.6667
v  2.0000 0.5000 -21.3333
v  4.0000 0.5000 -21.3333
v  2.0000 0.4500 -16.0000
v  4.0000 0.4500 -16.0000
v  2.0000 0.4000 -10.6667
v  4.0000 0.4000 -10.6667
v  2.0000 0.3500 -5.3333
v  4.0000 0.3500 -5.3333
v  4.0000 0.0000 32.0000
v  4.0000 0.0500 26.6667
v  2.0000 0.0000 32.0000
v  2.0000 0.0500 26.6667
v  4.0000 0.1000 21.3333
v  2.0000 0.1000 21.3333
v  4.0000 0.1500 16.0000
v  2.0000 0.1500 16.0000
v  4.0000 0.2000 10.6667
v  2.0000 0.2000 10.6667
v  0.0000 -0.3000 31.9998
v  0.0000 -0.2250 26.6665
v  -2.0000 -0.3000 31.9998
v  -2.0000 -0.2250 26.6664
v  0.0000 -0.1500 21.3331
v  -2.0000 -0.1500 21.3331
v  0.0000 -0.0750 15.9998
v  -2.0000 -0.0750 15.9998
v  0.0000 0.0000 10.6665
v  -2.0000 0.0000 10.6665
v  0.0000 0.0750 5.3332
v  -2.0000 0.6000 -32.0000
v  -2.0000 0.5250 -26.6667
v  0.0000 0.6000 -32.0000
v  0.0000 0.5250 -26.6667
v  -2.0000 0.4500 -21.3334
v  0.0000 0.4500 -21.3334
v  -2.0000 0.3750 -16.0001
v  0.0000 0.3750 -16.0001
v  -2.0000 0.3000 -10.6667
v  0.0000 0.3000 -10.6667
v  2.0000 -0.3000 31.9998
v  2.0000 -0.2250 26.6665
v  2.0000 -0.1500 21.3331
v  2.0000 -0.0750 15.9998
v  2.0000 0.0000 10.6665
v  2.0000 0.5250 -26.6667
v  2.0000 0.4500 -21.3334
v  2.0000 0.3750 -16.0001
v  2.0000 0.3000 -10.6667
v  -2.0000 0.0000 32.0000
v  -2.0000 0.0500 26.6667
v  -4.0000 0.0000 32.0000
v  -4.0000 0.0500 26.6667
v  -2.0000 0.1000 21.3333
v  -4.0000 0.1000 21.3333
v  -2.0000 0.1500 16.0000
v  -4.0000 0.1500 16.0000
v  -2.0000 0.2000 10.6667
v  -4.0000 0.2000 10.6667
v  -4.0000 0.2500 5.3333
v  -4.0000 0.6000 -32.0000
v  -4.0000 0.5500 -26.6667
v  -2.0000 0.5500 -26.6667
v  -4.0000 0.5000 -21.3333
v  -2.0000 0.5000 -21.3333
v  -4.0000 0.4500 -16.0000
v  -2.0000 0.4500 -16.0000
v  -4.0000 0.4000 -10.6667
v  -2.0000 0.4000 -10.6667
v  4.0000 -0.1000 32.0000
v  4.0000 -0.0454 26.1819
v  4.0000 0.0546 26.1819
v  4.0000 -0.0000 32.0000
v  4.0000 0.0091 20.3636
v  4.0000 0.1091 20.3636
v  4.0000 0.0637 14.5454
v  4.0000 0.1637 14.5454
v  4.0000 0.1182 8.7272
v  4.0000 0.2182 8.7272
v  4.0000 0.1728 2.9090
v  4.0000 0.2728 2.9090
v  4.0001 0.2273 -2.9091
v  4.0001 0.3273 -2.9091
v  4.0001 0.2819 -8.7273
v  4.0001 0.3819 -8.7273
v  4.0001 0.3364 -14.5455
v  4.0001 0.4364 -14.5455
v  4.0001 0.3910 -20.3637
v  4.0001 0.4910 -20.3637
v  4.0001 0.4455 -26.1819
v  4.0001 0.5455 -26.1819
v  4.0001 0.5001 -32.0000
v  4.0001 0.6001 -32.0000
v  -3.9999 0.5001 -32.0000
v  -3.9999 0.4455 -26.1819
v  -3.9999 0.5455 -26.1819
v  -3.9999 0.6001 -32.0000
v  -3.9999 0.3910 -20.3637
v  -3.9999 0.4910 -20.3637
v  -3.9999 0.3364 -14.5455
v  -3.9999 0.4364 -14.5455
v  -3.9999 0.2819 -8.7273
v  -3.9999 0.3819 -8.7273
v  -3.9999 0.2273 -2.9091
v  -3.9999 0.3273 -2.9091
v  -4.0000 0.1728 2.9090
v  -4.0000 0.2728 2.9090
v  -4.0000 0.1182 8.7272
v  -4.0000 0.2182 8.7272
v  -4.0000 0.0637 14.5454
v  -4.0000 0.1637 14.5454
v  -4.0000 0.0091 20.3636
v  -4.0000 0.1091 20.3636
v  -4.0000 -0.0454 26.1819
v  -4.0000 0.0546 26.1819
v  -4.0000 -0.1000 32.0000
v  -4.0000 -0.0000 32.0000
v  3.6629 0.1444 5.9312
v  3.9620 0.1444 5.9312
v  3.9620 0.1556 4.7353
v  3.6629 0.1556 4.7353
v  3.6629 -12.3257 5.9312
v  3.9620 -12.3257 5.9312
v  3.9620 -12.3145 4.7353
v  3.6629 -12.3145 4.7353
v  -3.9624 0.1443 5.9312
v  -3.6633 0.1443 5.9312
v  -3.6633 0.1555 4.7353
v  -3.9624 0.1555 4.7353
v  -3.9624 -12.3258 5.9312
v  -3.6633 -12.3258 5.9312
v  -3.6633 -12.3146 4.7353
v  -3.9624 -12.3146 4.7353
v  3.6630 -12.0242 -26.2185
v  3.9621 -12.0242 -26.2185
v  3.9621 0.4459 -26.2185
v  3.6630 0.4459 -26.2185
v  3.9621 -12.0130 -27.4139
v  3.9621 0.4571 -27.4139
v  3.6630 -12.0130 -27.4139
v  3.6630 0.4571 -27.4139
v  -3.9623 -12.0243 -26.2185
v  -3.6632 -12.0243 -26.2185
v  -3.6632 0.4458 -26.2185
v  -3.9623 0.4458 -26.2185
v  -3.6632 -12.0131 -27.4139
v  -3.6632 0.4570 -27.4139
v  -3.9623 -12.0131 -27.4139
v  -3.9623 0.4570 -27.4139
v  3.7764 -0.0199 -0.0004
v  3.7764 0.2001 -0.0004
v  3.7765 0.2501 -5.3337
v  3.7765 0.0301 -5.3337
v  3.8486 -0.0199 -0.0004
v  3.8487 0.0301 -5.3337
v  3.8486 0.2001 -0.0004
v  3.8487 0.2501 -5.3337
v  3.8486 -0.1000 31.9997
v  3.7764 -0.1000 31.9997
v  3.7764 -0.3200 31.9997
v  3.8486 -0.3200 31.9997
v  3.7765 0.2801 -32.0003
v  3.7765 0.5001 -32.0003
v  3.8487 0.5001 -32.0003
v  3.8487 0.2801 -32.0003
v  -3.8490 -0.0199 -0.0003
v  -3.8490 0.2000 -0.0003
v  -3.8489 0.2500 -5.3337
v  -3.8489 0.0301 -5.3337
v  -3.7768 -0.0199 -0.0003
v  -3.7767 0.0301 -5.3337
v  -3.7768 0.2000 -0.0003
v  -3.7767 0.2500 -5.3337
v  -3.7768 -0.1001 31.9997
v  -3.8490 -0.1001 31.9997
v  -3.8490 -0.3200 31.9997
v  -3.7768 -0.3200 31.9997
v  -3.8489 0.2801 -32.0003
v  -3.8489 0.5000 -32.0003
v  -3.7767 0.5000 -32.0003
v  -3.7767 0.2801 -32.0003
v  3.7764 -0.0500 26.6663
v  3.7764 -0.2700 26.6663
v  3.7764 0.0000 21.3330
v  3.7764 -0.2200 21.3330
v  3.7764 0.0500 15.9996
v  3.7764 -0.1700 15.9996
v  3.7764 0.1000 10.6663
v  3.7764 -0.1200 10.6663
v  3.7764 0.1500 5.3330
v  3.7764 -0.0700 5.3330
v  3.7765 0.2301 -26.6670
v  3.7765 0.4501 -26.6670
v  3.7765 0.1801 -21.3337
v  3.7765 0.4001 -21.3337
v  3.7765 0.1301 -16.0003
v  3.7765 0.3501 -16.0003
v  3.7765 0.0801 -10.6670
v  3.7765 0.3001 -10.6670
v  3.8486 -0.2700 26.6663
v  3.8486 -0.2200 21.3330
v  3.8486 -0.1700 15.9996
v  3.8486 -0.1200 10.6663
v  3.8486 -0.0700 5.3330
v  3.8487 0.2301 -26.6670
v  3.8487 0.1801 -21.3337
v  3.8487 0.1301 -16.0003
v  3.8487 0.0801 -10.6670
v  3.8486 -0.0500 26.6663
v  3.8486 0.0000 21.3330
v  3.8486 0.0500 15.9996
v  3.8486 0.1000 10.6663
v  3.8486 0.1500 5.3330
v  3.8487 0.4501 -26.6670
v  3.8487 0.4001 -21.3337
v  3.8487 0.3501 -16.0003
v  3.8487 0.3001 -10.6670
v  -3.8490 -0.0501 26.6663
v  -3.8490 -0.2700 26.6663
v  -3.8490 -0.0001 21.3330
v  -3.8490 -0.2200 21.3330
v  -3.8490 0.0499 15.9997
v  -3.8490 -0.1700 15.9997
v  -3.8490 0.0999 10.6663
v  -3.8490 -0.1200 10.6663
v  -3.8490 0.1499 5.3330
v  -3.8490 -0.0700 5.3330
v  -3.8489 0.2301 -26.6670
v  -3.8489 0.4500 -26.6670
v  -3.8489 0.1801 -21.3337
v  -3.8489 0.4000 -21.3337
v  -3.8489 0.1301 -16.0003
v  -3.8489 0.3500 -16.0003
v  -3.8489 0.0801 -10.6670
v  -3.8489 0.3000 -10.6670
v  -3.7768 -0.2700 26.6663
v  -3.7768 -0.2200 21.3330
v  -3.7768 -0.1700 15.9997
v  -3.7768 -0.1200 10.6663
v  -3.7768 -0.0700 5.3330
v  -3.7767 0.2301 -26.6670
v  -3.7767 0.1801 -21.3337
v  -3.7767 0.1301 -16.0003
v  -3.7767 0.0801 -10.6670
v  -3.7768 -0.0501 26.6663
v  -3.7768 -0.0001 21.3330
v  -3.7768 0.0499 15.9997
v  -3.7768 0.0999 10.6663
v  -3.7768 0.1499 5.3330
v  -3.7767 0.4500 -26.6670
v  -3.7767 0.4000 -21.3337
v  -3.7767 0.3500 -16.0003
v  -3.7767 0.3000 -10.6670
# 273 vertices

vn 0.0000 1.0000 0.0094
vn 0.4163 0.9092 0.0076
vn 0.4131 0.9107 0.0076
vn 0.0000 0.9999 0.0141
vn -0.4149 0.9099 0.0076
vn -0.4181 0.9084 0.0076
vn 1.0000 0.0000 -0.0000
vn -1.0000 0.0000 -0.0000
vn 0.0000 0.9999 0.0117
vn 0.4330 0.9013 0.0085
vn 0.4318 0.9019 0.0076
vn 0.4288 0.9034 0.0076
vn 0.4258 0.9048 0.0076
vn 0.4227 0.9062 0.0076
vn 0.4195 0.9077 0.0076
vn 0.3974 0.9176 0.0066
vn 0.3994 0.9168 0.0076
vn 0.4029 0.9152 0.0076
vn 0.4063 0.9137 0.0076
vn 0.4097 0.9122 0.0076
vn -0.3959 0.9183 0.0086
vn -0.3978 0.9174 0.0076
vn -0.4013 0.9159 0.0076
vn -0.4048 0.9144 0.0076
vn -0.4082 0.9128 0.0076
vn -0.4116 0.9113 0.0076
vn -0.4317 0.9020 0.0067
vn -0.4304 0.9026 0.0076
vn -0.4274 0.9040 0.0076
vn -0.4244 0.9055 0.0076
vn -0.4213 0.9069 0.0076
vn 1.0000 -0.0000 0.0000
vn 1.0000 0.0000 0.0000
vn -0.0000 1.0000 0.0094
vn 0.0000 0.0000 1.0000
vn -0.0000 0.0000 1.0000
vn 0.0000 0.0000 -1.0000
vn -0.0000 0.0000 -1.0000
vn -1.0000 -0.0000 -0.0000
vn 0.0000 -0.0000 1.0000
vn 0.0000 -1.0000 -0.0094
vn -0.0000 -1.0000 -0.0094
# 42 vertex normals

vt 0.5968 0.5000 0.0000
vt 0.5968 0.4167 0.0000
vt 0.6590 0.5000 0.0000
vt 0.6590 0.4167 0.0000
vt 0.5009 0.5000 0.0000
vt 0.5009 0.5833 0.0000
vt 0.4075 0.5000 0.0000
vt 0.4075 0.5833 0.0000
vt 0.5944 0.5000 0.0000
vt 0.5944 0.5833 0.0000
vt 0.4059 0.5000 0.0000
vt 0.4059 0.5833 0.0000
vt 0.3436 0.5000 0.0000
vt 0.3436 0.5833 0.0000
vt 0.5985 0.4990 0.0000
vt 0.5987 0.4159 0.0000
vt 0.5970 0.4990 0.0000
vt 0.5969 0.4159 0.0000
vt 0.5968 1.0000 0.0000
vt 0.5968 0.9167 0.0000
vt 0.6590 1.0000 0.0000
vt 0.6590 0.9167 0.0000
vt 0.5968 0.8333 0.0000
vt 0.6590 0.8333 0.0000
vt 0.5968 0.7500 0.0000
vt 0.6590 0.7500 0.0000
vt 0.5968 0.6667 0.0000
vt 0.6590 0.6667 0.0000
vt 0.5968 0.5833 0.0000
vt 0.6590 0.5833 0.0000
vt 0.6590 0.0000 0.0000
vt 0.6590 0.0833 0.0000
vt 0.5968 0.0000 0.0000
vt 0.5968 0.0833 0.0000
vt 0.6590 0.1667 0.0000
vt 0.5968 0.1667 0.0000
vt 0.6590 0.2500 0.0000
vt 0.5968 0.2500 0.0000
vt 0.6590 0.3333 0.0000
vt 0.5968 0.3333 0.0000
vt 0.5009 0.0000 0.0000
vt 0.5009 0.0833 0.0000
vt 0.4075 0.0000 0.0000
vt 0.4075 0.0833 0.0000
vt 0.5009 0.1667 0.0000
vt 0.4075 0.1667 0.0000
vt 0.5009 0.2500 0.0000
vt 0.4075 0.2500 0.0000
vt 0.5009 0.3333 0.0000
vt 0.4075 0.3333 0.0000
vt 0.5009 0.4167 0.0000
vt 0.4075 0.4167 0.0000
vt 0.4075 1.0000 0.0000
vt 0.4075 0.9167 0.0000
vt 0.5009 1.0000 0.0000
vt 0.5009 0.9167 0.0000
vt 0.4075 0.8333 0.0000
vt 0.5009 0.8333 0.0000
vt 0.4075 0.7500 0.0000
vt 0.5009 0.7500 0.0000
vt 0.4075 0.6667 0.0000
vt 0.5009 0.6667 0.0000
vt 0.5944 0.0000 0.0000
vt 0.5944 0.0833 0.0000
vt 0.5944 0.1667 0.0000
vt 0.5944 0.2500 0.0000
vt 0.5944 0.3333 0.0000
vt 0.5944 0.4167 0.0000
vt 0.5944 1.0000 0.0000
vt 0.5944 0.9167 0.0000
vt 0.5944 0.8333 0.0000
vt 0.5944 0.7500 0.0000
vt 0.5944 0.6667 0.0000
vt 0.4059 0.0000 0.0000
vt 0.4059 0.0833 0.0000
vt 0.3436 0.0000 0.0000
vt 0.3436 0.0833 0.0000
vt 0.4059 0.1667 0.0000
vt 0.3436 0.1667 0.0000
vt 0.4059 0.2500 0.0000
vt 0.3436 0.2500 0.0000
vt 0.4059 0.3333 0.0000
vt 0.3436 0.3333 0.0000
vt 0.4059 0.4167 0.0000
vt 0.3436 0.4167 0.0000
vt 0.3436 1.0000 0.0000
vt 0.3436 0.9167 0.0000
vt 0.4059 1.0000 0.0000
vt 0.4059 0.9167 0.0000
vt 0.3436 0.8333 0.0000
vt 0.4059 0.8333 0.0000
vt 0.3436 0.7500 0.0000
vt 0.4059 0.7500 0.0000
vt 0.3436 0.6667 0.0000
vt 0.4059 0.6667 0.0000
vt 0.5975 0.9981 0.0000
vt 0.5977 0.9149 0.0000
vt 0.5974 0.9149 0.0000
vt 0.5978 0.8317 0.0000
vt 0.5973 0.8317 0.0000
vt 0.5980 0.7485 0.0000
vt 0.5972 0.7485 0.0000
vt 0.5982 0.6654 0.0000
vt 0.5972 0.6654 0.0000
vt 0.5983 0.5822 0.0000
vt 0.5971 0.5822 0.0000
vt 0.5965 0.0000 0.0000
vt 0.5966 0.0832 0.0000
vt 0.5995 0.0000 0.0000
vt 0.5993 0.0832 0.0000
vt 0.5966 0.1663 0.0000
vt 0.5992 0.1663 0.0000
vt 0.5967 0.2495 0.0000
vt 0.5990 0.2495 0.0000
vt 0.5968 0.3327 0.0000
vt 0.5988 0.3327 0.0000
vt 0.5971 0.6654 0.0000
vt 0.6248 -0.0055 0.0000
vt 0.6248 0.1044 0.0000
vt 0.6392 0.1045 0.0000
vt 0.6392 -0.0055 0.0000
vt 0.6248 0.1045 0.0000
vt 0.6392 0.1044 0.0000
vt 0.3999 0.4975 0.0000
vt 0.3999 0.5110 0.0000
vt 0.0225 0.5110 0.0000
vt 0.0225 0.4975 0.0000
vt 0.3999 0.5406 0.0000
vt 0.3999 0.5547 0.0000
vt 0.0225 0.5541 0.0000
vt 0.0225 0.5396 0.0000
vt 0.3999 0.5257 0.0000
vt 0.3999 0.5396 0.0000
vt 0.0225 0.5257 0.0000
vt 0.3999 0.5118 0.0000
vt 0.0225 0.5118 0.0000
vt 0.3999 0.5397 0.0000
vt 0.3999 0.5539 0.0000
vt 0.0225 0.5539 0.0000
vt 0.0225 0.5397 0.0000
vt 0.3999 0.5260 0.0000
vt 0.0225 0.5254 0.0000
vt 0.3999 0.5117 0.0000
vt 0.0225 0.5117 0.0000
vt 0.3999 0.5255 0.0000
vt 0.0225 0.5255 0.0000
vt 0.6051 0.4361 0.0000
vt 0.6051 0.4532 0.0000
vt 0.8110 0.4532 0.0000
vt 0.8110 0.4361 0.0000
vt -0.8085 0.5000 0.0000
vt -0.8306 0.5000 0.0000
vt -0.8306 0.4167 0.0000
vt -0.8085 0.4167 0.0000
vt 0.3291 -0.0001 0.0000
vt 0.4444 -0.0001 0.0000
vt 0.3291 0.9999 0.0000
vt 0.4444 0.9999 0.0000
vt -0.8085 1.0000 0.0000
vt -0.8306 1.0000 0.0000
vt -0.8306 0.9167 0.0000
vt -0.8085 0.9167 0.0000
vt -0.8306 0.8333 0.0000
vt -0.8085 0.8333 0.0000
vt -0.8306 0.7500 0.0000
vt -0.8085 0.7500 0.0000
vt -0.8306 0.6667 0.0000
vt -0.8085 0.6667 0.0000
vt -0.8306 0.5833 0.0000
vt -0.8085 0.5833 0.0000
vt -0.8306 0.0000 0.0000
vt -0.8085 0.0000 0.0000
vt -0.8085 0.0833 0.0000
vt -0.8306 0.0833 0.0000
vt -0.8085 0.1667 0.0000
vt -0.8306 0.1667 0.0000
vt -0.8085 0.2500 0.0000
vt -0.8306 0.2500 0.0000
vt -0.8085 0.3333 0.0000
vt -0.8306 0.3333 0.0000
vt 0.4444 1.0000 0.0000
vt 0.3291 1.0000 0.0000
# 182 texture coords

g Plane001
s 1
f 1/1/1 2/2/1 3/3/2 
f 4/4/3 3/3/2 2/2/1 
f 5/5/4 6/6/4 7/7/4 
f 8/8/4 7/7/4 6/6/4 
f 9/9/4 10/10/4 5/5/4 
f 6/6/4 5/5/4 10/10/4 
f 11/11/1 12/12/1 13/13/5 
f 14/14/6 13/13/5 12/12/1 
s off
f 11/15/7 15/16/7 7/17/7 
f 16/18/7 7/17/7 15/16/7 
f 9/17/8 17/18/8 1/15/8 
f 2/16/8 1/15/8 17/18/8 
s 1
f 18/19/9 19/20/1 20/21/10 
f 21/22/11 20/21/10 19/20/1 
f 19/20/1 22/23/1 21/22/11 
f 23/24/12 21/22/11 22/23/1 
f 22/23/1 24/25/1 23/24/12 
f 25/26/13 23/24/12 24/25/1 
f 24/25/1 26/27/1 25/26/13 
f 27/28/14 25/26/13 26/27/1 
f 26/27/1 28/29/1 27/28/14 
f 29/30/15 27/28/14 28/29/1 
f 28/29/1 1/1/1 29/30/15 
f 3/3/2 29/30/15 1/1/1 
f 30/31/16 31/32/17 32/33/1 
f 33/34/1 32/33/1 31/32/17 
f 31/32/17 34/35/18 33/34/1 
f 35/36/1 33/34/1 34/35/18 
f 34/35/18 36/37/19 35/36/1 
f 37/38/1 35/36/1 36/37/19 
f 36/37/19 38/39/20 37/38/1 
f 39/40/1 37/38/1 38/39/20 
f 38/39/20 4/4/3 39/40/1 
f 2/2/1 39/40/1 4/4/3 
f 40/41/4 41/42/4 42/43/4 
f 43/44/4 42/43/4 41/42/4 
f 41/42/4 44/45/4 43/44/4 
f 45/46/4 43/44/4 44/45/4 
f 44/45/4 46/47/4 45/46/4 
f 47/48/4 45/46/4 46/47/4 
f 46/47/4 48/49/4 47/48/4 
f 49/50/4 47/48/4 48/49/4 
f 48/49/4 50/51/4 49/50/4 
f 16/52/4 49/50/4 50/51/4 
f 50/51/4 5/5/4 16/52/4 
f 7/7/4 16/52/4 5/5/4 
f 51/53/9 52/54/4 53/55/4 
f 54/56/4 53/55/4 52/54/4 
f 52/54/4 55/57/4 54/56/4 
f 56/58/4 54/56/4 55/57/4 
f 55/57/4 57/59/4 56/58/4 
f 58/60/4 56/58/4 57/59/4 
f 57/59/4 59/61/4 58/60/4 
f 60/62/4 58/60/4 59/61/4 
f 59/61/4 8/8/4 60/62/4 
f 6/6/4 60/62/4 8/8/4 
f 61/63/4 62/64/4 40/41/4 
f 41/42/4 40/41/4 62/64/4 
f 62/64/4 63/65/4 41/42/4 
f 44/45/4 41/42/4 63/65/4 
f 63/65/4 64/66/4 44/45/4 
f 46/47/4 44/45/4 64/66/4 
f 64/66/4 65/67/4 46/47/4 
f 48/49/4 46/47/4 65/67/4 
f 65/67/4 17/68/4 48/49/4 
f 50/51/4 48/49/4 17/68/4 
f 17/68/4 9/9/4 50/51/4 
f 5/5/4 50/51/4 9/9/4 
f 53/55/4 54/56/4 18/69/9 
f 66/70/4 18/69/9 54/56/4 
f 54/56/4 56/58/4 66/70/4 
f 67/71/4 66/70/4 56/58/4 
f 56/58/4 58/60/4 67/71/4 
f 68/72/4 67/71/4 58/60/4 
f 58/60/4 60/62/4 68/72/4 
f 69/73/4 68/72/4 60/62/4 
f 60/62/4 6/6/4 69/73/4 
f 10/10/4 69/73/4 6/6/4 
f 70/74/1 71/75/1 72/76/21 
f 73/77/22 72/76/21 71/75/1 
f 71/75/1 74/78/1 73/77/22 
f 75/79/23 73/77/22 74/78/1 
f 74/78/1 76/80/1 75/79/23 
f 77/81/24 75/79/23 76/80/1 
f 76/80/1 78/82/1 77/81/24 
f 79/83/25 77/81/24 78/82/1 
f 78/82/1 15/84/1 79/83/25 
f 80/85/26 79/83/25 15/84/1 
f 15/84/1 11/11/1 80/85/26 
f 13/13/5 80/85/26 11/11/1 
f 81/86/27 82/87/28 51/88/9 
f 83/89/1 51/88/9 82/87/28 
f 82/87/28 84/90/29 83/89/1 
f 85/91/1 83/89/1 84/90/29 
f 84/90/29 86/92/30 85/91/1 
f 87/93/1 85/91/1 86/92/30 
f 86/92/30 88/94/31 87/93/1 
f 89/95/1 87/93/1 88/94/31 
f 88/94/31 14/14/6 89/95/1 
f 12/12/1 89/95/1 14/14/6 
s off
f 51/96/7 83/97/7 52/98/7 
f 83/97/7 85/99/7 52/98/7 
f 55/100/7 52/98/7 85/99/7 
f 85/99/7 87/101/7 55/100/7 
f 57/102/7 55/100/7 87/101/7 
f 87/101/7 89/103/7 57/102/7 
f 59/104/7 57/102/7 89/103/7 
f 89/103/7 12/105/7 59/104/7 
f 8/106/7 59/104/7 12/105/7 
f 12/105/7 11/15/7 8/106/7 
f 7/17/7 8/106/7 11/15/7 
f 42/107/7 43/108/7 70/109/7 
f 71/110/7 70/109/7 43/108/7 
f 43/108/7 45/111/7 71/110/7 
f 74/112/7 71/110/7 45/111/7 
f 45/111/7 47/113/7 74/112/7 
f 76/114/7 74/112/7 47/113/7 
f 47/113/7 49/115/7 76/114/7 
f 78/116/7 76/114/7 49/115/7 
f 49/115/7 16/18/7 78/116/7 
f 15/16/7 78/116/7 16/18/7 
f 18/96/8 66/98/8 19/97/8 
f 66/98/8 67/100/8 19/97/8 
f 22/99/8 19/97/8 67/100/8 
f 67/100/8 68/102/8 22/99/8 
f 24/101/8 22/99/8 68/102/8 
f 68/102/8 69/117/8 24/101/8 
f 26/103/8 24/101/8 69/117/8 
f 69/117/8 10/106/8 26/103/8 
f 28/105/8 26/103/8 10/106/8 
f 10/106/8 9/17/8 28/105/8 
f 1/15/8 28/105/8 9/17/8 
f 32/109/8 33/110/8 61/107/8 
f 62/108/8 61/107/8 33/110/8 
f 33/110/8 35/112/8 62/108/8 
f 63/111/8 62/108/8 35/112/8 
f 35/112/8 37/114/8 63/111/8 
f 64/113/8 63/111/8 37/114/8 
f 37/114/8 39/116/8 64/113/8 
f 65/115/8 64/113/8 39/116/8 
f 39/116/8 2/16/8 65/115/8 
f 17/18/8 65/115/8 2/16/8 
s 16
f 90/118/32 91/119/32 92/120/32 
f 92/120/32 93/121/33 90/118/32 
f 91/118/32 94/119/33 95/120/32 
f 95/120/32 92/121/32 91/118/32 
f 94/122/33 96/118/33 97/121/33 
f 97/121/33 95/123/32 94/122/33 
f 96/118/33 98/119/33 99/120/33 
f 99/120/33 97/121/33 96/118/33 
f 98/118/33 100/119/33 101/120/33 
f 101/120/33 99/121/33 98/118/33 
f 100/122/33 102/118/33 103/121/33 
f 103/121/33 101/123/33 100/122/33 
f 102/118/33 104/119/33 105/120/33 
f 105/120/33 103/121/33 102/118/33 
f 104/118/33 106/119/33 107/120/33 
f 107/120/33 105/121/33 104/118/33 
f 106/122/33 108/118/33 109/121/33 
f 109/121/33 107/123/33 106/122/33 
f 108/118/33 110/119/33 111/120/33 
f 111/120/33 109/121/33 108/118/33 
f 110/118/33 112/119/33 113/120/33 
f 113/120/33 111/121/33 110/118/33 
s 64
f 114/122/8 115/118/8 116/121/8 
f 116/121/8 117/123/8 114/122/8 
f 115/122/8 118/118/8 119/121/8 
f 119/121/8 116/123/8 115/122/8 
f 118/118/8 120/119/8 121/120/8 
f 121/120/8 119/121/8 118/118/8 
f 120/122/8 122/118/8 123/121/8 
f 123/121/8 121/123/8 120/122/8 
f 122/122/8 124/118/8 125/121/8 
f 125/121/8 123/123/8 122/122/8 
f 124/118/8 126/119/8 127/120/8 
f 127/120/8 125/121/8 124/118/8 
f 126/122/8 128/118/8 129/121/8 
f 129/121/8 127/123/8 126/122/8 
f 128/122/8 130/118/8 131/121/8 
f 131/121/8 129/123/8 128/122/8 
f 130/118/8 132/119/8 133/120/8 
f 133/120/8 131/121/8 130/118/8 
f 132/122/8 134/118/8 135/121/8 
f 135/121/8 133/123/8 132/122/8 
f 134/122/8 136/118/8 137/121/8 
f 137/121/8 135/123/8 134/122/8 
s off
f 138/124/34 139/125/34 140/126/34 
f 140/126/1 141/127/1 138/124/1 
f 142/128/35 143/129/35 139/130/35 
f 139/130/36 138/131/36 142/128/36 
f 143/132/32 144/133/32 140/131/32 
f 140/131/32 139/134/32 143/132/32 
f 144/124/37 145/135/37 141/136/37 
f 141/136/38 140/127/38 144/124/38 
f 145/137/39 142/138/39 138/139/39 
f 138/139/8 141/140/8 145/137/8 
f 146/124/1 147/125/1 148/126/1 
f 148/126/1 149/127/1 146/124/1 
f 150/141/35 151/128/35 147/131/35 
f 147/131/35 146/142/35 150/141/35 
f 151/124/33 152/143/33 148/144/33 
f 148/144/33 147/127/33 151/124/33 
f 152/135/37 153/141/37 149/142/37 
f 149/142/37 148/136/37 152/135/37 
f 153/143/8 150/145/8 146/146/8 
f 146/146/8 149/144/8 153/143/8 
f 154/128/40 155/129/40 156/130/40 
f 156/130/40 157/131/40 154/128/40 
f 155/132/33 158/133/33 159/131/33 
f 159/131/33 156/134/33 155/132/33 
f 158/124/37 160/135/37 161/136/37 
f 161/136/38 159/127/38 158/124/38 
f 160/137/39 154/138/39 157/139/39 
f 157/139/39 161/140/39 160/137/39 
f 162/141/36 163/128/36 164/131/36 
f 164/131/36 165/142/36 162/141/36 
f 163/124/33 166/143/33 167/144/33 
f 167/144/33 164/127/33 163/124/33 
f 166/135/37 168/141/37 169/142/37 
f 169/142/37 167/136/37 166/135/37 
f 168/143/8 162/145/8 165/146/8 
f 165/146/8 169/144/8 168/143/8 
f 170/147/8 171/148/8 172/149/8 
f 172/149/8 173/150/8 170/147/8 
f 174/151/41 170/152/41 173/153/41 
f 173/153/41 175/154/41 174/151/41 
f 176/148/33 174/147/33 175/150/33 
f 175/150/32 177/149/32 176/148/32 
f 178/155/35 179/156/35 180/155/35 
f 180/155/35 181/155/35 178/155/35 
f 182/148/37 183/147/37 184/148/37 
f 184/148/37 185/148/37 182/148/37 
f 186/147/39 187/148/39 188/149/39 
f 188/149/8 189/150/8 186/147/8 
f 190/147/42 186/148/42 189/149/42 
f 189/149/41 191/150/41 190/147/41 
f 192/148/33 190/147/33 191/150/33 
f 191/150/33 193/149/33 192/148/33 
f 194/155/35 195/156/35 196/155/35 
f 196/155/35 197/155/35 194/155/35 
f 198/148/37 199/147/37 200/148/37 
f 200/148/37 201/148/37 198/148/37 
f 180/156/8 179/155/8 202/157/8 
f 202/157/39 203/158/39 180/156/39 
f 203/158/39 202/157/39 204/155/39 
f 204/155/39 205/156/39 203/158/39 
f 205/147/39 204/148/39 206/149/39 
f 206/149/8 207/150/8 205/147/8 
f 207/150/8 206/149/8 208/148/8 
f 208/148/8 209/147/8 207/150/8 
f 209/147/8 208/148/8 210/149/8 
f 210/149/8 211/150/8 209/147/8 
f 211/150/8 210/149/8 171/148/8 
f 171/148/8 170/147/8 211/150/8 
f 183/148/8 182/147/8 212/150/8 
f 212/150/8 213/149/8 183/148/8 
f 213/149/8 212/150/8 214/147/8 
f 214/147/8 215/148/8 213/149/8 
f 215/148/8 214/147/8 216/150/8 
f 216/150/8 217/149/8 215/148/8 
f 217/149/8 216/150/8 218/147/8 
f 218/147/8 219/148/8 217/149/8 
f 219/148/8 218/147/8 173/150/8 
f 173/150/8 172/149/8 219/148/8 
f 181/159/41 180/160/41 203/161/41 
f 203/161/41 220/162/41 181/159/41 
f 220/162/41 203/161/41 205/163/41 
f 205/163/41 221/164/41 220/162/41 
f 221/164/41 205/163/41 207/165/41 
f 207/165/41 222/166/41 221/164/41 
f 222/166/41 207/165/41 209/167/41 
f 209/167/42 223/168/42 222/166/42 
f 223/168/42 209/167/42 211/169/42 
f 211/169/41 224/170/41 223/168/41 
f 224/170/41 211/169/41 170/152/41 
f 170/152/41 174/151/41 224/170/41 
f 182/171/41 185/172/41 225/173/41 
f 225/173/42 212/174/42 182/171/42 
f 212/174/42 225/173/42 226/175/42 
f 226/175/42 214/176/42 212/174/42 
f 214/176/42 226/175/42 227/177/42 
f 227/177/41 216/178/41 214/176/41 
f 216/178/41 227/177/41 228/179/41 
f 228/179/41 218/180/41 216/178/41 
f 218/180/41 228/179/41 175/154/41 
f 175/154/41 173/153/41 218/180/41 
f 178/155/33 181/156/33 220/158/33 
f 220/158/33 229/157/33 178/155/33 
f 229/157/33 220/158/33 221/156/33 
f 221/156/33 230/155/33 229/157/33 
f 230/155/33 221/156/33 222/158/33 
f 222/150/33 231/149/33 230/148/33 
f 231/149/33 222/150/33 223/147/33 
f 223/147/32 232/148/32 231/149/32 
f 232/148/32 223/147/32 224/150/32 
f 224/150/32 233/149/32 232/148/32 
f 233/149/32 224/150/32 174/147/32 
f 174/147/33 176/148/33 233/149/33 
f 185/147/33 184/148/33 234/149/33 
f 234/149/32 225/150/32 185/147/32 
f 225/150/32 234/149/32 235/148/32 
f 235/148/33 226/147/33 225/150/33 
f 226/147/33 235/148/33 236/149/33 
f 236/149/33 227/150/33 226/147/33 
f 227/150/33 236/149/33 237/148/33 
f 237/148/32 228/147/32 227/150/32 
f 228/147/32 237/148/32 177/149/32 
f 177/149/32 175/150/32 228/147/32 
f 196/181/8 195/182/8 238/155/8 
f 238/155/8 239/156/8 196/181/8 
f 239/150/8 238/149/8 240/148/8 
f 240/148/8 241/147/8 239/150/8 
f 241/147/8 240/148/8 242/149/8 
f 242/149/8 243/150/8 241/147/8 
f 243/150/8 242/149/8 244/148/8 
f 244/148/8 245/147/8 243/150/8 
f 245/147/8 244/148/8 246/149/8 
f 246/149/8 247/150/8 245/147/8 
f 247/150/8 246/149/8 187/148/8 
f 187/148/39 186/147/39 247/150/39 
f 199/148/8 198/147/8 248/150/8 
f 248/150/8 249/149/8 199/148/8 
f 249/149/8 248/150/8 250/147/8 
f 250/147/8 251/148/8 249/149/8 
f 251/148/8 250/147/8 252/150/8 
f 252/150/8 253/149/8 251/148/8 
f 253/149/8 252/150/8 254/147/8 
f 254/147/8 255/148/8 253/149/8 
f 255/148/8 254/147/8 189/150/8 
f 189/150/8 188/149/8 255/148/8 
f 197/155/41 196/156/41 239/158/41 
f 239/158/41 256/157/41 197/155/41 
f 256/158/41 239/157/41 241/155/41 
f 241/155/41 257/156/41 256/158/41 
f 257/147/41 241/148/41 243/149/41 
f 243/149/41 258/150/41 257/147/41 
f 258/149/41 243/150/41 245/147/41 
f 245/147/42 259/148/42 258/149/42 
f 259/148/42 245/147/42 247/150/42 
f 247/150/42 260/149/42 259/148/42 
f 260/150/42 247/149/42 186/148/42 
f 186/148/42 190/147/42 260/150/42 
f 198/147/41 201/148/41 261/149/41 
f 261/149/41 248/150/41 198/147/41 
f 248/149/41 261/150/41 262/147/41 
f 262/147/41 250/148/41 248/149/41 
f 250/148/41 262/147/41 263/150/41 
f 263/150/42 252/149/42 250/148/42 
f 252/150/42 263/149/42 264/148/42 
f 264/148/42 254/147/42 252/150/42 
f 254/147/42 264/148/42 191/149/42 
f 191/149/41 189/150/41 254/147/41 
f 194/155/33 197/156/33 256/158/33 
f 256/150/33 265/149/33 194/148/33 
f 265/149/33 256/150/33 257/147/33 
f 257/147/33 266/148/33 265/149/33 
f 266/148/33 257/147/33 258/150/33 
f 258/150/33 267/149/33 266/148/33 
f 267/149/33 258/150/33 259/147/33 
f 259/147/33 268/148/33 267/149/33 
f 268/148/33 259/147/33 260/150/33 
f 260/150/33 269/149/33 268/148/33 
f 269/149/33 260/150/33 190/147/33 
f 190/147/33 192/148/33 269/149/33 
f 201/147/33 200/148/33 270/149/33 
f 270/149/33 261/150/33 201/147/33 
f 261/150/33 270/149/33 271/148/33 
f 271/148/33 262/147/33 261/150/33 
f 262/147/33 271/148/33 272/149/33 
f 272/149/33 263/150/33 262/147/33 
f 263/150/33 272/149/33 273/148/33 
f 273/148/33 264/147/33 263/150/33 
f 264/147/33 273/148/33 193/149/33 
f 193/149/33 191/150/33 264/147/33 
# 374 faces

