# 3ds Max Wavefront OBJ Exporter v0.97b - (c)2007 guruware
# File Created: 12.06.2016 16:04:31

#
# object Plane01_0
#

v  4.0398 -0.1499 -0.0001
v  4.0398 0.1001 -0.0001
v  4.0398 0.1001 -5.3334
v  4.0398 -0.1499 -5.3334
v  4.1120 -0.1499 -0.0001
v  4.1120 -0.1499 -5.3334
v  4.1120 0.1001 -0.0001
v  4.1120 0.1001 -5.3334
v  4.0398 -0.1499 -32.0000
v  4.0398 0.1001 -32.0000
v  4.1120 0.1001 -32.0000
v  4.1120 -0.1499 -32.0000
v  -4.0724 -0.1499 0.0000
v  -4.0724 0.1000 0.0000
v  -4.0724 0.1000 -5.3334
v  -4.0724 -0.1499 -5.3334
v  -4.0002 -0.1499 0.0000
v  -4.0002 -0.1499 -5.3334
v  -4.0002 0.1000 0.0000
v  -4.0002 0.1000 -5.3334
v  -4.0724 -0.1499 -32.0000
v  -4.0724 0.1000 -32.0000
v  -4.0002 0.1000 -32.0000
v  -4.0002 -0.1499 -32.0000
v  4.0398 -0.1499 32.0000
v  4.0398 0.1001 32.0000
v  4.0398 0.1001 26.6666
v  4.0398 -0.1499 26.6666
v  4.0398 0.1001 21.3333
v  4.0398 -0.1499 21.3333
v  4.0398 0.1001 16.0000
v  4.0398 -0.1499 16.0000
v  4.0398 0.1001 10.6667
v  4.0398 -0.1499 10.6667
v  4.0398 0.1001 5.3334
v  4.0398 -0.1499 5.3334
v  4.0398 -0.1499 -26.6667
v  4.0398 0.1001 -26.6667
v  4.0398 -0.1499 -21.3334
v  4.0398 0.1001 -21.3334
v  4.0398 -0.1499 -16.0000
v  4.0398 0.1001 -16.0000
v  4.0398 -0.1499 -10.6667
v  4.0398 0.1001 -10.6667
v  4.1120 -0.1499 32.0000
v  4.1120 -0.1499 26.6666
v  4.1120 -0.1499 21.3333
v  4.1120 -0.1499 16.0000
v  4.1120 -0.1499 10.6667
v  4.1120 -0.1499 5.3334
v  4.1120 -0.1499 -26.6667
v  4.1120 -0.1499 -21.3334
v  4.1120 -0.1499 -16.0000
v  4.1120 -0.1499 -10.6667
v  4.1120 0.1001 32.0000
v  4.1120 0.1001 26.6666
v  4.1120 0.1001 21.3333
v  4.1120 0.1001 16.0000
v  4.1120 0.1001 10.6667
v  4.1120 0.1001 5.3334
v  4.1120 0.1001 -26.6667
v  4.1120 0.1001 -21.3334
v  4.1120 0.1001 -16.0000
v  4.1120 0.1001 -10.6667
v  -4.0724 -0.1499 32.0000
v  -4.0724 0.1000 32.0000
v  -4.0724 0.1000 26.6666
v  -4.0724 -0.1499 26.6666
v  -4.0724 0.1000 21.3333
v  -4.0724 -0.1499 21.3333
v  -4.0724 0.1000 16.0000
v  -4.0724 -0.1499 16.0000
v  -4.0724 0.1000 10.6667
v  -4.0724 -0.1499 10.6667
v  -4.0724 0.1000 5.3333
v  -4.0724 -0.1499 5.3333
v  -4.0724 -0.1499 -26.6667
v  -4.0724 0.1000 -26.6667
v  -4.0724 -0.1499 -21.3334
v  -4.0724 0.1000 -21.3334
v  -4.0724 -0.1499 -16.0000
v  -4.0724 0.1000 -16.0000
v  -4.0724 -0.1499 -10.6667
v  -4.0724 0.1000 -10.6667
v  -4.0002 -0.1499 32.0000
v  -4.0002 -0.1499 26.6666
v  -4.0002 -0.1499 21.3333
v  -4.0002 -0.1499 16.0000
v  -4.0002 -0.1499 10.6667
v  -4.0002 -0.1499 5.3333
v  -4.0002 -0.1499 -26.6667
v  -4.0002 -0.1499 -21.3334
v  -4.0002 -0.1499 -16.0000
v  -4.0002 -0.1499 -10.6667
v  -4.0002 0.1000 32.0000
v  -4.0002 0.1000 26.6666
v  -4.0002 0.1000 21.3333
v  -4.0002 0.1000 16.0000
v  -4.0002 0.1000 10.6667
v  -4.0002 0.1000 5.3333
v  -4.0002 0.1000 -26.6667
v  -4.0002 0.1000 -21.3334
v  -4.0002 0.1000 -16.0000
v  -4.0002 0.1000 -10.6667
v  -2.0000 0.2000 32.0000
v  -2.0000 0.2000 26.1819
v  -4.1500 0.2000 26.1819
v  -4.1500 0.2000 32.0000
v  -2.0000 0.2000 20.3636
v  -4.1500 0.2000 20.3636
v  -2.0000 0.2000 14.5455
v  -4.1500 0.2000 14.5455
v  -2.0000 0.2000 8.7272
v  -4.1500 0.2000 8.7272
v  -2.0000 0.2000 2.9090
v  -4.1500 0.2000 2.9090
v  -2.0000 0.2000 -2.9091
v  -4.1500 0.2000 -2.9091
v  -2.0000 0.2000 -8.7272
v  -4.1500 0.2000 -8.7272
v  -2.0000 0.2000 -14.5455
v  -4.1500 0.2000 -14.5455
v  -2.0000 0.2000 -20.3637
v  -4.1500 0.2000 -20.3637
v  -2.0000 0.2000 -26.1819
v  -4.1500 0.2000 -26.1819
v  -2.0000 0.2000 -32.0000
v  -4.1500 0.2000 -32.0000
v  -2.0000 0.1001 32.0000
v  -4.1500 0.1001 32.0000
v  4.1500 0.1001 32.0000
v  4.1500 0.1001 26.1819
v  4.1500 0.2000 26.1819
v  4.1500 0.2000 32.0000
v  4.1500 0.1001 20.3636
v  4.1500 0.2000 20.3636
v  4.1500 0.1001 14.5455
v  4.1500 0.2000 14.5455
v  4.1500 0.1001 8.7272
v  4.1500 0.2000 8.7272
v  4.1500 0.1001 2.9090
v  4.1500 0.2000 2.9090
v  4.1500 0.1001 -2.9091
v  4.1500 0.2000 -2.9091
v  4.1500 0.1001 -8.7272
v  4.1500 0.2000 -8.7272
v  4.1500 0.1001 -14.5455
v  4.1500 0.2000 -14.5455
v  4.1500 0.1001 -20.3637
v  4.1500 0.2000 -20.3637
v  4.1500 0.1001 -26.1819
v  4.1500 0.2000 -26.1819
v  4.1500 0.1001 -32.0000
v  4.1500 0.2000 -32.0000
v  -4.1500 0.1001 -32.0000
v  -4.1500 0.1001 -26.1819
v  -4.1500 0.1001 -20.3637
v  -4.1500 0.1001 -14.5455
v  -4.1500 0.1001 -8.7272
v  -4.1500 0.1001 -2.9091
v  -4.1500 0.1001 2.9090
v  -4.1500 0.1001 8.7272
v  -4.1500 0.1001 14.5455
v  -4.1500 0.1001 20.3636
v  -4.1500 0.1001 26.1819
v  -0.0001 0.2000 32.0000
v  2.0000 0.2000 32.0000
v  2.0000 0.2000 26.1819
v  -0.0001 0.2000 26.1819
v  2.0000 0.2000 20.3636
v  -0.0001 0.2000 20.3636
v  2.0000 0.2000 14.5455
v  -0.0001 0.2000 14.5455
v  2.0000 0.2000 8.7272
v  -0.0001 0.2000 8.7272
v  2.0000 0.2000 2.9090
v  -0.0001 0.2000 2.9090
v  2.0000 0.2000 -2.9091
v  -0.0001 0.2000 -2.9091
v  2.0000 0.2000 -8.7272
v  -0.0001 0.2000 -8.7272
v  2.0000 0.2000 -14.5455
v  -0.0001 0.2000 -14.5455
v  2.0000 0.2000 -20.3637
v  -0.0001 0.2000 -20.3637
v  2.0000 0.2000 -26.1819
v  -0.0001 0.2000 -26.1819
v  2.0000 0.2000 -32.0000
v  -0.0001 0.2000 -32.0000
v  2.0000 0.1001 32.0000
v  -0.0001 0.1001 32.0000
v  -2.0000 -0.1499 32.0000
v  -4.0724 0.0999 32.0000
v  -4.0724 -0.1501 32.0000
v  2.0000 -0.1499 32.0000
v  -0.0001 -0.1499 32.0000
v  4.0720 -0.1499 31.9999
v  4.0720 0.1001 31.9999
# 198 vertices

vn -1.0000 0.0000 -0.0000
vn 0.0000 -1.0000 -0.0000
vn 1.0000 0.0000 -0.0000
vn 0.0000 1.0000 -0.0000
vn 0.0000 0.0000 -1.0000
vn 0.0000 0.0000 1.0000
# 6 vertex normals

vt 0.4444 -0.0001 0.0000
vt 0.3291 -0.0001 0.0000
vt 0.3291 0.9999 0.0000
vt 0.4444 0.9999 0.0000
vt -0.8085 0.5000 0.0000
vt -0.8306 0.5000 0.0000
vt -0.8306 0.4167 0.0000
vt -0.8085 0.4167 0.0000
vt -0.8085 1.0000 0.0000
vt -0.8306 1.0000 0.0000
vt -0.8306 0.9167 0.0000
vt -0.8085 0.9167 0.0000
vt -0.8306 0.8333 0.0000
vt -0.8085 0.8333 0.0000
vt -0.8306 0.7500 0.0000
vt -0.8085 0.7500 0.0000
vt -0.8306 0.6667 0.0000
vt -0.8085 0.6667 0.0000
vt -0.8306 0.5833 0.0000
vt -0.8085 0.5833 0.0000
vt -0.8306 0.0000 0.0000
vt -0.8085 0.0000 0.0000
vt -0.8085 0.0833 0.0000
vt -0.8306 0.0833 0.0000
vt -0.8085 0.1667 0.0000
vt -0.8306 0.1667 0.0000
vt -0.8085 0.2500 0.0000
vt -0.8306 0.2500 0.0000
vt -0.8085 0.3333 0.0000
vt -0.8306 0.3333 0.0000
vt 0.4444 1.0000 0.0000
vt 0.3291 1.0000 0.0000
vt 0.6910 0.5737 0.0000
vt 0.5874 0.5737 0.0000
vt 0.5876 0.4349 0.0000
vt 0.6910 0.4349 0.0000
vt 0.5870 0.5737 0.0000
vt 0.6813 0.5737 0.0000
vt 0.6812 0.4349 0.0000
vt 0.5870 0.4349 0.0000
vt 0.6817 0.8447 0.0000
vt 0.5874 0.8447 0.0000
vt 0.5876 0.9835 0.0000
vt 0.6817 0.9835 0.0000
vt 0.5870 0.8447 0.0000
vt 0.6813 0.8447 0.0000
vt 0.6812 0.9835 0.0000
vt 0.5870 0.9835 0.0000
vt 0.5876 0.8447 0.0000
vt 0.6816 0.5737 0.0000
vt 0.5878 0.5737 0.0000
vt 0.5881 0.4349 0.0000
vt 0.6817 0.4349 0.0000
vt 0.6812 0.5737 0.0000
vt 1.7481 0.0000 0.0000
vt 1.7481 1.0000 0.0000
vt 1.4950 1.0000 0.0000
vt 1.4950 0.0000 0.0000
vt 0.5779 0.0005 0.0000
vt 0.5779 0.4216 0.0000
vt 0.5923 0.4217 0.0000
vt 0.5923 0.0005 0.0000
vt 0.5779 0.4217 0.0000
vt 0.5923 0.4216 0.0000
vt 0.6910 0.7112 0.0000
vt 0.6910 0.8447 0.0000
vt 0.5872 0.8447 0.0000
vt 0.5873 0.7112 0.0000
vt 0.6816 0.8447 0.0000
vt 0.6814 0.7112 0.0000
vt 0.5870 0.7112 0.0000
vt 0.6817 0.5737 0.0000
vt 0.5872 0.5737 0.0000
vt 0.6817 0.7112 0.0000
vt 0.5876 0.5737 0.0000
vt 0.5878 0.7112 0.0000
vt 0.5873 0.8447 0.0000
vt 0.6812 0.8447 0.0000
vt 0.5876 0.7112 0.0000
vt 2.2419 0.0000 0.0000
vt 2.2419 1.0000 0.0000
vt 1.9950 1.0000 0.0000
vt 1.9950 0.0000 0.0000
vt 0.6910 0.9835 0.0000
vt 2.4950 0.0000 0.0000
vt 2.4950 1.0000 0.0000
# 86 texture coords

g Plane01_0
s off
f 1/1/1 2/2/1 3/3/1 
f 3/3/1 4/4/1 1/1/1 
f 5/5/2 1/6/2 4/7/2 
f 4/7/2 6/8/2 5/5/2 
f 7/2/3 5/1/3 6/4/3 
f 6/4/3 8/3/3 7/2/3 
f 2/5/4 7/6/4 8/7/4 
f 8/7/4 3/8/4 2/5/4 
f 9/2/5 10/1/5 11/2/5 
f 11/2/5 12/2/5 9/2/5 
f 13/1/1 14/2/1 15/3/1 
f 15/3/1 16/4/1 13/1/1 
f 17/1/2 13/2/2 16/3/2 
f 16/3/2 18/4/2 17/1/2 
f 19/2/3 17/1/3 18/4/3 
f 18/4/3 20/3/3 19/2/3 
f 14/5/4 19/6/4 20/7/4 
f 20/7/4 15/8/4 14/5/4 
f 21/2/5 22/1/5 23/2/5 
f 23/2/5 24/2/5 21/2/5 
f 25/1/1 26/2/1 27/3/1 
f 27/3/1 28/4/1 25/1/1 
f 28/4/1 27/3/1 29/2/1 
f 29/2/1 30/1/1 28/4/1 
f 30/1/1 29/2/1 31/3/1 
f 31/3/1 32/4/1 30/1/1 
f 32/4/1 31/3/1 33/2/1 
f 33/2/1 34/1/1 32/4/1 
f 34/1/1 33/2/1 35/3/1 
f 35/3/1 36/4/1 34/1/1 
f 36/4/1 35/3/1 2/2/1 
f 2/2/1 1/1/1 36/4/1 
f 10/2/1 9/1/1 37/4/1 
f 37/4/1 38/3/1 10/2/1 
f 38/3/1 37/4/1 39/1/1 
f 39/1/1 40/2/1 38/3/1 
f 40/2/1 39/1/1 41/4/1 
f 41/4/1 42/3/1 40/2/1 
f 42/3/1 41/4/1 43/1/1 
f 43/1/1 44/2/1 42/3/1 
f 44/2/1 43/1/1 4/4/1 
f 4/4/1 3/3/1 44/2/1 
f 45/9/2 25/10/2 28/11/2 
f 28/11/2 46/12/2 45/9/2 
f 46/12/2 28/11/2 30/13/2 
f 30/13/2 47/14/2 46/12/2 
f 47/14/2 30/13/2 32/15/2 
f 32/15/2 48/16/2 47/14/2 
f 48/16/2 32/15/2 34/17/2 
f 34/17/2 49/18/2 48/16/2 
f 49/18/2 34/17/2 36/19/2 
f 36/19/2 50/20/2 49/18/2 
f 50/20/2 36/19/2 1/6/2 
f 1/6/2 5/5/2 50/20/2 
f 9/21/2 12/22/2 51/23/2 
f 51/23/2 37/24/2 9/21/2 
f 37/24/2 51/23/2 52/25/2 
f 52/25/2 39/26/2 37/24/2 
f 39/26/2 52/25/2 53/27/2 
f 53/27/2 41/28/2 39/26/2 
f 41/28/2 53/27/2 54/29/2 
f 54/29/2 43/30/2 41/28/2 
f 43/30/2 54/29/2 6/8/2 
f 6/8/2 4/7/2 43/30/2 
f 55/2/3 45/1/3 46/4/3 
f 46/4/3 56/3/3 55/2/3 
f 56/3/3 46/4/3 47/1/3 
f 47/1/3 57/2/3 56/3/3 
f 57/2/3 47/1/3 48/4/3 
f 48/4/3 58/3/3 57/2/3 
f 58/3/3 48/4/3 49/1/3 
f 49/1/3 59/2/3 58/3/3 
f 59/2/3 49/1/3 50/4/3 
f 50/4/3 60/3/3 59/2/3 
f 60/3/3 50/4/3 5/1/3 
f 5/1/3 7/2/3 60/3/3 
f 12/1/3 11/2/3 61/3/3 
f 61/3/3 51/4/3 12/1/3 
f 51/4/3 61/3/3 62/2/3 
f 62/2/3 52/1/3 51/4/3 
f 52/1/3 62/2/3 63/3/3 
f 63/3/3 53/4/3 52/1/3 
f 53/4/3 63/3/3 64/2/3 
f 64/2/3 54/1/3 53/4/3 
f 54/1/3 64/2/3 8/3/3 
f 8/3/3 6/4/3 54/1/3 
f 26/9/4 55/10/4 56/11/4 
f 56/11/4 27/12/4 26/9/4 
f 27/12/4 56/11/4 57/13/4 
f 57/13/4 29/14/4 27/12/4 
f 29/14/4 57/13/4 58/15/4 
f 58/15/4 31/16/4 29/14/4 
f 31/16/4 58/15/4 59/17/4 
f 59/17/4 33/18/4 31/16/4 
f 33/18/4 59/17/4 60/19/4 
f 60/19/4 35/20/4 33/18/4 
f 35/20/4 60/19/4 7/6/4 
f 7/6/4 2/5/4 35/20/4 
f 11/21/4 10/22/4 38/23/4 
f 38/23/4 61/24/4 11/21/4 
f 61/24/4 38/23/4 40/25/4 
f 40/25/4 62/26/4 61/24/4 
f 62/26/4 40/25/4 42/27/4 
f 42/27/4 63/28/4 62/26/4 
f 63/28/4 42/27/4 44/29/4 
f 44/29/4 64/30/4 63/28/4 
f 64/30/4 44/29/4 3/8/4 
f 3/8/4 8/7/4 64/30/4 
f 65/31/1 66/32/1 67/2/1 
f 67/2/1 68/1/1 65/31/1 
f 68/4/1 67/3/1 69/2/1 
f 69/2/1 70/1/1 68/4/1 
f 70/1/1 69/2/1 71/3/1 
f 71/3/1 72/4/1 70/1/1 
f 72/4/1 71/3/1 73/2/1 
f 73/2/1 74/1/1 72/4/1 
f 74/1/1 73/2/1 75/3/1 
f 75/3/1 76/4/1 74/1/1 
f 76/4/1 75/3/1 14/2/1 
f 14/2/1 13/1/1 76/4/1 
f 22/2/1 21/1/1 77/4/1 
f 77/4/1 78/3/1 22/2/1 
f 78/3/1 77/4/1 79/1/1 
f 79/1/1 80/2/1 78/3/1 
f 80/2/1 79/1/1 81/4/1 
f 81/4/1 82/3/1 80/2/1 
f 82/3/1 81/4/1 83/1/1 
f 83/1/1 84/2/1 82/3/1 
f 84/2/1 83/1/1 16/4/1 
f 16/4/1 15/3/1 84/2/1 
f 85/2/2 65/1/2 68/4/2 
f 68/4/2 86/3/2 85/2/2 
f 86/4/2 68/3/2 70/2/2 
f 70/2/2 87/1/2 86/4/2 
f 87/1/2 70/2/2 72/3/2 
f 72/3/2 88/4/2 87/1/2 
f 88/3/2 72/4/2 74/1/2 
f 74/1/2 89/2/2 88/3/2 
f 89/2/2 74/1/2 76/4/2 
f 76/4/2 90/3/2 89/2/2 
f 90/4/2 76/3/2 13/2/2 
f 13/2/2 17/1/2 90/4/2 
f 21/1/2 24/2/2 91/3/2 
f 91/3/2 77/4/2 21/1/2 
f 77/3/2 91/4/2 92/1/2 
f 92/1/2 79/2/2 77/3/2 
f 79/2/2 92/1/2 93/4/2 
f 93/4/2 81/3/2 79/2/2 
f 81/4/2 93/3/2 94/2/2 
f 94/2/2 83/1/2 81/4/2 
f 83/1/2 94/2/2 18/3/2 
f 18/3/2 16/4/2 83/1/2 
f 95/2/3 85/1/3 86/4/3 
f 86/4/3 96/3/3 95/2/3 
f 96/3/3 86/4/3 87/1/3 
f 87/1/3 97/2/3 96/3/3 
f 97/2/3 87/1/3 88/4/3 
f 88/4/3 98/3/3 97/2/3 
f 98/3/3 88/4/3 89/1/3 
f 89/1/3 99/2/3 98/3/3 
f 99/2/3 89/1/3 90/4/3 
f 90/4/3 100/3/3 99/2/3 
f 100/3/3 90/4/3 17/1/3 
f 17/1/3 19/2/3 100/3/3 
f 24/1/3 23/2/3 101/3/3 
f 101/3/3 91/4/3 24/1/3 
f 91/4/3 101/3/3 102/2/3 
f 102/2/3 92/1/3 91/4/3 
f 92/1/3 102/2/3 103/3/3 
f 103/3/3 93/4/3 92/1/3 
f 93/4/3 103/3/3 104/2/3 
f 104/2/3 94/1/3 93/4/3 
f 94/1/3 104/2/3 20/3/3 
f 20/3/3 18/4/3 94/1/3 
f 66/9/4 95/10/4 96/11/4 
f 96/11/4 67/12/4 66/9/4 
f 67/12/4 96/11/4 97/13/4 
f 97/13/4 69/14/4 67/12/4 
f 69/14/4 97/13/4 98/15/4 
f 98/15/4 71/16/4 69/14/4 
f 71/16/4 98/15/4 99/17/4 
f 99/17/4 73/18/4 71/16/4 
f 73/18/4 99/17/4 100/19/4 
f 100/19/4 75/20/4 73/18/4 
f 75/20/4 100/19/4 19/6/4 
f 19/6/4 14/5/4 75/20/4 
f 23/21/4 22/22/4 78/23/4 
f 78/23/4 101/24/4 23/21/4 
f 101/24/4 78/23/4 80/25/4 
f 80/25/4 102/26/4 101/24/4 
f 102/26/4 80/25/4 82/27/4 
f 82/27/4 103/28/4 102/26/4 
f 103/28/4 82/27/4 84/29/4 
f 84/29/4 104/30/4 103/28/4 
f 104/30/4 84/29/4 15/8/4 
f 15/8/4 20/7/4 104/30/4 
s 4
f 105/33/4 106/34/4 107/35/4 
f 107/35/4 108/36/4 105/33/4 
f 106/37/4 109/38/4 110/39/4 
f 110/39/4 107/40/4 106/37/4 
f 109/41/4 111/42/4 112/43/4 
f 112/43/4 110/44/4 109/41/4 
f 111/45/4 113/46/4 114/47/4 
f 114/47/4 112/48/4 111/45/4 
f 113/37/4 115/38/4 116/39/4 
f 116/39/4 114/40/4 113/37/4 
f 115/41/4 117/42/4 118/43/4 
f 118/43/4 116/44/4 115/41/4 
f 117/46/4 119/49/4 120/43/4 
f 120/43/4 118/47/4 117/46/4 
f 119/50/4 121/51/4 122/52/4 
f 122/52/4 120/53/4 119/50/4 
f 121/34/4 123/54/4 124/39/4 
f 124/39/4 122/35/4 121/34/4 
f 123/50/4 125/51/4 126/52/4 
f 126/52/4 124/53/4 123/50/4 
f 125/46/4 127/49/4 128/43/4 
f 128/43/4 126/47/4 125/46/4 
s 8
f 129/55/6 105/56/6 108/57/6 
f 108/57/6 130/58/6 129/55/6 
s 16
f 131/59/3 132/60/3 133/61/3 
f 133/61/3 134/62/3 131/59/3 
f 132/59/3 135/60/3 136/61/3 
f 136/61/3 133/62/3 132/59/3 
f 135/63/3 137/59/3 138/62/3 
f 138/62/3 136/64/3 135/63/3 
f 137/59/3 139/60/3 140/61/3 
f 140/61/3 138/62/3 137/59/3 
f 139/59/3 141/60/3 142/61/3 
f 142/61/3 140/62/3 139/59/3 
f 141/63/3 143/59/3 144/62/3 
f 144/62/3 142/64/3 141/63/3 
f 143/59/3 145/60/3 146/61/3 
f 146/61/3 144/62/3 143/59/3 
f 145/59/3 147/60/3 148/61/3 
f 148/61/3 146/62/3 145/59/3 
f 147/63/3 149/59/3 150/62/3 
f 150/62/3 148/64/3 147/63/3 
f 149/59/3 151/60/3 152/61/3 
f 152/61/3 150/62/3 149/59/3 
f 151/59/3 153/60/3 154/61/3 
f 154/61/3 152/62/3 151/59/3 
s 64
f 155/63/1 156/59/1 126/62/1 
f 126/62/1 128/64/1 155/63/1 
f 156/63/1 157/59/1 124/62/1 
f 124/62/1 126/64/1 156/63/1 
f 157/59/1 158/60/1 122/61/1 
f 122/61/1 124/62/1 157/59/1 
f 158/63/1 159/59/1 120/62/1 
f 120/62/1 122/64/1 158/63/1 
f 159/63/1 160/59/1 118/62/1 
f 118/62/1 120/64/1 159/63/1 
f 160/59/1 161/60/1 116/61/1 
f 116/61/1 118/62/1 160/59/1 
f 161/63/1 162/59/1 114/62/1 
f 114/62/1 116/64/1 161/63/1 
f 162/63/1 163/59/1 112/62/1 
f 112/62/1 114/64/1 162/63/1 
f 163/59/1 164/60/1 110/61/1 
f 110/61/1 112/62/1 163/59/1 
f 164/63/1 165/59/1 107/62/1 
f 107/62/1 110/64/1 164/63/1 
f 165/63/1 130/59/1 108/62/1 
f 108/62/1 107/64/1 165/63/1 
s 4
f 166/65/4 167/66/4 168/67/4 
f 168/67/4 169/68/4 166/65/4 
f 168/45/4 170/69/4 171/70/4 
f 171/70/4 169/71/4 168/45/4 
f 170/72/4 172/73/4 173/68/4 
f 173/68/4 171/74/4 170/72/4 
f 172/37/4 174/50/4 175/70/4 
f 175/70/4 173/71/4 172/37/4 
f 174/45/4 176/69/4 177/70/4 
f 177/70/4 175/71/4 174/45/4 
f 176/72/4 178/73/4 179/68/4 
f 179/68/4 177/74/4 176/72/4 
f 178/50/4 180/75/4 181/76/4 
f 181/76/4 179/74/4 178/50/4 
f 180/46/4 182/77/4 183/76/4 
f 183/76/4 181/74/4 180/46/4 
f 182/67/4 184/78/4 185/70/4 
f 185/70/4 183/79/4 182/67/4 
f 184/46/4 186/77/4 187/76/4 
f 187/76/4 185/74/4 184/46/4 
f 186/50/4 188/75/4 189/76/4 
f 189/76/4 187/74/4 186/50/4 
s 8
f 190/80/6 167/81/6 166/82/6 
f 166/82/6 191/83/6 190/80/6 
s 4
f 134/84/4 133/48/4 168/67/4 
f 168/67/4 167/66/4 134/84/4 
f 133/48/4 136/44/4 170/69/4 
f 170/69/4 168/45/4 133/48/4 
f 136/53/4 138/40/4 172/73/4 
f 172/73/4 170/72/4 136/53/4 
f 138/40/4 140/53/4 174/50/4 
f 174/50/4 172/37/4 138/40/4 
f 140/48/4 142/44/4 176/69/4 
f 176/69/4 174/45/4 140/48/4 
f 142/53/4 144/40/4 178/73/4 
f 178/73/4 176/72/4 142/53/4 
f 144/53/4 146/35/4 180/75/4 
f 180/75/4 178/50/4 144/53/4 
f 146/47/4 148/48/4 182/77/4 
f 182/77/4 180/46/4 146/47/4 
f 148/48/4 150/47/4 184/78/4 
f 184/78/4 182/67/4 148/48/4 
f 150/47/4 152/48/4 186/77/4 
f 186/77/4 184/46/4 150/47/4 
f 152/53/4 154/35/4 188/75/4 
f 188/75/4 186/50/4 152/53/4 
s 8
f 131/85/6 134/86/6 167/81/6 
f 167/81/6 190/80/6 131/85/6 
s 4
f 105/33/4 166/65/4 169/68/4 
f 169/68/4 106/34/4 105/33/4 
f 169/71/4 171/70/4 109/38/4 
f 109/38/4 106/37/4 169/71/4 
f 171/74/4 173/68/4 111/42/4 
f 111/42/4 109/41/4 171/74/4 
f 173/71/4 175/70/4 113/46/4 
f 113/46/4 111/45/4 173/71/4 
f 175/71/4 177/70/4 115/38/4 
f 115/38/4 113/37/4 175/71/4 
f 177/74/4 179/68/4 117/42/4 
f 117/42/4 115/41/4 177/74/4 
f 179/74/4 181/76/4 119/49/4 
f 119/49/4 117/46/4 179/74/4 
f 181/74/4 183/76/4 121/51/4 
f 121/51/4 119/50/4 181/74/4 
f 183/79/4 185/70/4 123/54/4 
f 123/54/4 121/34/4 183/79/4 
f 185/74/4 187/76/4 125/51/4 
f 125/51/4 123/50/4 185/74/4 
f 187/74/4 189/76/4 127/49/4 
f 127/49/4 125/46/4 187/74/4 
s 8
f 191/83/6 166/82/6 105/56/6 
f 105/56/6 129/55/6 191/83/6 
s 4
f 192/33/6 129/34/6 193/35/6 
f 193/35/6 194/36/6 192/33/6 
f 195/66/6 190/67/6 191/68/6 
f 191/68/6 196/65/6 195/66/6 
f 197/84/6 198/48/6 190/67/6 
f 190/67/6 195/66/6 197/84/6 
f 196/65/6 191/68/6 129/34/6 
f 129/34/6 192/33/6 196/65/6 
# 344 faces

