# 3ds Max Wavefront OBJ Exporter v0.97b - (c)2007 guruware
# File Created: 09.06.2016 23:48:54

#
# object Object001
#

v  -3.8283 0.0500 -16.0000
v  3.8280 0.0500 -16.0000
v  3.8280 0.0500 -32.0000
v  -3.8283 0.0500 -32.0000
v  -3.8283 0.0500 -0.0001
v  3.8280 0.0500 -0.0000
v  -3.8283 0.0500 15.9999
v  3.8280 0.0500 16.0000
v  -3.8283 0.0500 32.0000
v  3.8280 0.0500 32.0000
# 10 vertices

vn 0.0000 1.0000 -0.0000
# 1 vertex normals

vt 0.5846 0.0000 0.0000
vt 0.9983 0.0000 0.0000
vt 0.9983 0.4000 0.0000
vt 0.5846 0.4000 0.0000
# 4 texture coords

g Object001
s off
f 1/1/1 2/2/1 3/3/1 
f 3/3/1 4/4/1 1/1/1 
f 5/1/1 6/2/1 2/3/1 
f 2/3/1 1/4/1 5/1/1 
f 7/1/1 8/2/1 6/3/1 
f 6/3/1 5/4/1 7/1/1 
f 9/1/1 10/2/1 8/3/1 
f 8/3/1 7/4/1 9/1/1 
# 8 faces

