# 3ds Max Wavefront OBJ Exporter v0.97b - (c)2007 guruware
# File Created: 29.01.2017 01:36:05

#
# object Object001
#

v  -4.1499 -0.3999 24.6152
v  -4.1499 0.6001 32.0000
v  -2.0000 0.6193 32.0000
v  -2.0000 -0.3807 24.6152
v  0.0001 0.6251 32.0000
v  0.0001 -0.3749 24.6152
v  2.0000 0.6193 32.0000
v  2.0000 -0.3807 24.6152
v  4.1501 0.6001 32.0000
v  4.1501 -0.3999 24.6152
v  -4.1499 -0.3999 32.0000
v  4.1501 -0.3999 32.0000
# 12 vertices

vn -0.0088 0.9909 -0.1342
vn -0.0029 0.9910 -0.1342
vn 0.0029 0.9910 -0.1342
vn 0.0088 0.9909 -0.1342
vn -1.0000 0.0000 0.0000
vn 1.0000 0.0000 -0.0000
vn -1.0000 0.0000 -0.0000
vn 1.0000 0.0000 0.0000
# 8 vertex normals

vt 0.7261 0.0442 0.0000
vt 0.7261 0.2653 0.0000
vt 0.5907 0.2653 0.0000
vt 0.5907 0.0442 0.0000
vt 0.9953 0.2653 0.0000
vt 0.9953 0.0442 0.0000
vt 0.8599 0.2653 0.0000
vt 0.8599 0.0442 0.0000
vt 0.7244 0.2653 0.0000
vt 0.7244 0.0442 0.0000
vt 0.9186 0.0442 0.0000
vt 0.9186 0.2653 0.0000
vt 0.9969 0.0442 0.0000
vt 0.9969 0.2653 0.0000
vt 0.8027 0.2653 0.0000
vt 0.8027 0.0442 0.0000
# 16 texture coords

g Object001
s off
f 1/1/1 2/2/1 3/3/1 
f 3/3/1 4/4/1 1/1/1 
f 4/4/2 3/3/2 5/5/2 
f 5/5/2 6/6/2 4/4/2 
f 6/6/3 5/5/3 7/7/3 
f 7/7/3 8/8/3 6/6/3 
f 8/8/4 7/7/4 9/9/4 
f 9/9/4 10/10/4 8/8/4 
f 1/11/5 11/12/5 2/9/5 
f 2/9/6 1/10/6 1/11/6 
f 12/13/7 10/14/7 10/15/7 
f 10/15/8 9/16/8 12/13/8 
# 12 faces

