# 3ds Max Wavefront OBJ Exporter v0.97b - (c)2007 guruware
# File Created: 02.02.2017 23:37:55

#
# object Plane001
#

v  -4.0000 0.3000 -0.3181
v  -4.0000 0.3500 -5.6514
v  -7.0000 -3.1650 -0.3181
v  -7.0000 -3.1650 -5.6514
v  4.0000 0.3000 -0.3181
v  4.0000 0.2500 5.0152
v  7.0000 -3.1650 -0.3181
v  7.0000 -3.1650 5.0152
v  2.0000 0.3000 -0.3181
v  2.0000 0.2500 5.0152
v  0.0000 0.1500 -0.3182
v  0.0000 0.2250 -5.6515
v  -2.0000 0.1500 -0.3182
v  -2.0000 0.2250 -5.6515
v  2.0000 0.1500 -0.3182
v  2.0000 0.2250 -5.6515
v  -2.0000 0.3000 -0.3181
v  -2.0000 0.3500 -5.6514
v  -2.0000 0.2500 5.0152
v  -2.0000 0.0750 5.0151
v  2.0000 0.0750 5.0151
v  -4.0000 0.0000 31.6819
v  -4.0000 0.0500 26.3486
v  -7.0000 -3.1650 31.6819
v  -7.0000 -3.1650 26.3486
v  -4.0000 0.1000 21.0152
v  -7.0000 -3.1650 21.0152
v  -4.0000 0.1500 15.6819
v  -7.0000 -3.1650 15.6819
v  -4.0000 0.2000 10.3486
v  -7.0000 -3.1650 10.3486
v  -4.0000 0.2500 5.0152
v  -7.0000 -3.1650 5.0152
v  -7.0000 -3.1650 -32.3181
v  -7.0000 -3.1650 -26.9848
v  -4.0000 0.6000 -32.3181
v  -4.0000 0.5500 -26.9848
v  -7.0000 -3.1650 -21.6514
v  -4.0000 0.5000 -21.6514
v  -7.0000 -3.1650 -16.3181
v  -4.0000 0.4500 -16.3181
v  -7.0000 -3.1650 -10.9848
v  -4.0000 0.4000 -10.9848
v  4.0000 0.6000 -32.3181
v  4.0000 0.5500 -26.9848
v  7.0000 -3.1650 -32.3181
v  7.0000 -3.1650 -26.9848
v  4.0000 0.5000 -21.6514
v  7.0000 -3.1650 -21.6514
v  4.0000 0.4500 -16.3181
v  7.0000 -3.1650 -16.3181
v  4.0000 0.4000 -10.9848
v  7.0000 -3.1650 -10.9848
v  4.0000 0.3500 -5.6514
v  7.0000 -3.1650 -5.6514
v  7.0000 -3.1650 31.6819
v  7.0000 -3.1650 26.3486
v  4.0000 0.0000 31.6819
v  4.0000 0.0500 26.3486
v  7.0000 -3.1650 21.0152
v  4.0000 0.1000 21.0152
v  7.0000 -3.1650 15.6819
v  4.0000 0.1500 15.6819
v  7.0000 -3.1650 10.3486
v  4.0000 0.2000 10.3486
v  2.0000 0.6000 -32.3181
v  2.0000 0.5500 -26.9848
v  2.0000 0.5000 -21.6514
v  2.0000 0.4500 -16.3181
v  2.0000 0.4000 -10.9848
v  2.0000 0.3500 -5.6514
v  2.0000 0.0000 31.6819
v  2.0000 0.0500 26.3486
v  2.0000 0.1000 21.0152
v  2.0000 0.1500 15.6819
v  2.0000 0.2000 10.3486
v  0.0000 -0.3000 31.6817
v  0.0000 -0.2250 26.3484
v  -2.0000 -0.3000 31.6817
v  -2.0000 -0.2250 26.3483
v  0.0000 -0.1500 21.0150
v  -2.0000 -0.1500 21.0150
v  0.0000 -0.0750 15.6817
v  -2.0000 -0.0750 15.6817
v  0.0000 0.0000 10.3484
v  -2.0000 0.0000 10.3484
v  -0.0000 0.0750 5.0151
v  -2.0000 0.6000 -32.3181
v  -2.0000 0.5250 -26.9848
v  0.0000 0.6000 -32.3181
v  0.0000 0.5250 -26.9848
v  -2.0000 0.4500 -21.6515
v  0.0000 0.4500 -21.6515
v  -2.0000 0.3750 -16.3182
v  0.0000 0.3750 -16.3182
v  -2.0000 0.3000 -10.9848
v  0.0000 0.3000 -10.9848
v  2.0000 -0.3000 31.6817
v  2.0000 -0.2250 26.3484
v  2.0000 -0.1500 21.0150
v  2.0000 -0.0750 15.6817
v  2.0000 0.0000 10.3484
v  2.0000 0.5250 -26.9848
v  2.0000 0.4500 -21.6515
v  2.0000 0.3750 -16.3182
v  2.0000 0.3000 -10.9848
v  -2.0000 0.0000 31.6819
v  -2.0000 0.0500 26.3486
v  -2.0000 0.1000 21.0152
v  -2.0000 0.1500 15.6819
v  -2.0000 0.2000 10.3486
v  -2.0000 0.5500 -26.9848
v  -2.0000 0.5000 -21.6514
v  -2.0000 0.4500 -16.3181
v  -2.0000 0.4000 -10.9848
# 115 vertices

vn -0.4149 0.9099 0.0076
vn -0.4181 0.9084 0.0076
vn -0.7571 0.6533 0.0017
vn -0.7617 0.6480 0.0016
vn 0.4163 0.9092 0.0076
vn 0.4131 0.9107 0.0076
vn 0.7550 0.6558 0.0017
vn 0.7502 0.6612 0.0017
vn 0.0000 1.0000 0.0094
vn -0.0000 1.0000 0.0094
vn -0.0000 0.9999 0.0141
vn 0.0000 0.9999 0.0141
vn 1.0000 0.0000 -0.0000
vn -1.0000 0.0000 -0.0000
vn -1.0000 0.0000 0.0000
vn -0.3959 0.9183 0.0086
vn -0.3978 0.9174 0.0076
vn -0.7281 0.6854 0.0036
vn -0.7323 0.6810 0.0018
vn -0.4013 0.9159 0.0076
vn -0.7375 0.6754 0.0018
vn -0.4048 0.9144 0.0076
vn -0.7426 0.6698 0.0017
vn -0.4082 0.9128 0.0076
vn -0.7475 0.6642 0.0017
vn -0.4116 0.9113 0.0076
vn -0.7523 0.6588 0.0017
vn -0.7821 0.6232 -0.0000
vn -0.7790 0.6271 0.0016
vn -0.4317 0.9020 0.0067
vn -0.4304 0.9026 0.0076
vn -0.7748 0.6322 0.0016
vn -0.4274 0.9040 0.0076
vn -0.7705 0.6374 0.0016
vn -0.4244 0.9055 0.0076
vn -0.7661 0.6427 0.0016
vn -0.4213 0.9069 0.0076
vn 0.4330 0.9013 0.0085
vn 0.4318 0.9019 0.0076
vn 0.7802 0.6255 0.0031
vn 0.7770 0.6295 0.0016
vn 0.4288 0.9034 0.0076
vn 0.7728 0.6346 0.0016
vn 0.4258 0.9048 0.0076
vn 0.7685 0.6398 0.0016
vn 0.4227 0.9062 0.0076
vn 0.7641 0.6451 0.0016
vn 0.4195 0.9077 0.0076
vn 0.7596 0.6504 0.0017
vn 0.7258 0.6879 -0.0000
vn 0.7300 0.6835 0.0018
vn 0.3974 0.9176 0.0066
vn 0.3994 0.9168 0.0076
vn 0.7352 0.6778 0.0018
vn 0.4029 0.9152 0.0076
vn 0.7403 0.6722 0.0018
vn 0.4063 0.9137 0.0076
vn 0.7453 0.6667 0.0017
vn 0.4097 0.9122 0.0076
vn 0.0000 0.9999 0.0117
vn 1.0000 -0.0000 0.0000
vn 1.0000 0.0000 0.0000
vn -1.0000 -0.0000 -0.0000
# 63 vertex normals

vt 0.0175 0.5000 0.0000
vt 0.0175 0.5833 0.0000
vt 0.0359 0.5000 0.0000
vt 0.0359 0.4167 0.0000
vt 0.5968 0.5000 0.0000
vt 0.5968 0.4167 0.0000
vt 0.6590 0.5000 0.0000
vt 0.6590 0.4167 0.0000
vt 0.5009 0.5000 0.0000
vt 0.5009 0.5833 0.0000
vt 0.4075 0.5000 0.0000
vt 0.4075 0.5833 0.0000
vt 0.5944 0.5000 0.0000
vt 0.5944 0.5833 0.0000
vt 0.4059 0.5000 0.0000
vt 0.4059 0.5833 0.0000
vt 0.3436 0.5000 0.0000
vt 0.3436 0.5833 0.0000
vt 0.5985 0.4990 0.0000
vt 0.5987 0.4159 0.0000
vt 0.5970 0.4990 0.0000
vt 0.5969 0.4159 0.0000
vt 0.0175 0.0000 0.0000
vt 0.0175 0.0833 0.0000
vt 0.0175 0.1667 0.0000
vt 0.0175 0.2500 0.0000
vt 0.0175 0.3333 0.0000
vt 0.0175 0.4167 0.0000
vt 0.0175 1.0000 0.0000
vt 0.0175 0.9167 0.0000
vt 0.0175 0.8333 0.0000
vt 0.0175 0.7500 0.0000
vt 0.0175 0.6667 0.0000
vt 0.0359 1.0000 0.0000
vt 0.0359 0.9167 0.0000
vt 0.0359 0.8333 0.0000
vt 0.0359 0.7500 0.0000
vt 0.0359 0.6667 0.0000
vt 0.0359 0.5833 0.0000
vt 0.0359 0.0000 0.0000
vt 0.0359 0.0833 0.0000
vt 0.0359 0.1667 0.0000
vt 0.0359 0.2500 0.0000
vt 0.0359 0.3333 0.0000
vt 0.5968 1.0000 0.0000
vt 0.5968 0.9167 0.0000
vt 0.6590 1.0000 0.0000
vt 0.6590 0.9167 0.0000
vt 0.5968 0.8333 0.0000
vt 0.6590 0.8333 0.0000
vt 0.5968 0.7500 0.0000
vt 0.6590 0.7500 0.0000
vt 0.5968 0.6667 0.0000
vt 0.6590 0.6667 0.0000
vt 0.5968 0.5833 0.0000
vt 0.6590 0.5833 0.0000
vt 0.6590 0.0000 0.0000
vt 0.6590 0.0833 0.0000
vt 0.5968 0.0000 0.0000
vt 0.5968 0.0833 0.0000
vt 0.6590 0.1667 0.0000
vt 0.5968 0.1667 0.0000
vt 0.6590 0.2500 0.0000
vt 0.5968 0.2500 0.0000
vt 0.6590 0.3333 0.0000
vt 0.5968 0.3333 0.0000
vt 0.5009 0.0000 0.0000
vt 0.5009 0.0833 0.0000
vt 0.4075 0.0000 0.0000
vt 0.4075 0.0833 0.0000
vt 0.5009 0.1667 0.0000
vt 0.4075 0.1667 0.0000
vt 0.5009 0.2500 0.0000
vt 0.4075 0.2500 0.0000
vt 0.5009 0.3333 0.0000
vt 0.4075 0.3333 0.0000
vt 0.5009 0.4167 0.0000
vt 0.4075 0.4167 0.0000
vt 0.4075 1.0000 0.0000
vt 0.4075 0.9167 0.0000
vt 0.5009 1.0000 0.0000
vt 0.5009 0.9167 0.0000
vt 0.4075 0.8333 0.0000
vt 0.5009 0.8333 0.0000
vt 0.4075 0.7500 0.0000
vt 0.5009 0.7500 0.0000
vt 0.4075 0.6667 0.0000
vt 0.5009 0.6667 0.0000
vt 0.5944 0.0000 0.0000
vt 0.5944 0.0833 0.0000
vt 0.5944 0.1667 0.0000
vt 0.5944 0.2500 0.0000
vt 0.5944 0.3333 0.0000
vt 0.5944 0.4167 0.0000
vt 0.5944 1.0000 0.0000
vt 0.5944 0.9167 0.0000
vt 0.5944 0.8333 0.0000
vt 0.5944 0.7500 0.0000
vt 0.5944 0.6667 0.0000
vt 0.4059 0.0000 0.0000
vt 0.4059 0.0833 0.0000
vt 0.3436 0.0000 0.0000
vt 0.3436 0.0833 0.0000
vt 0.4059 0.1667 0.0000
vt 0.3436 0.1667 0.0000
vt 0.4059 0.2500 0.0000
vt 0.3436 0.2500 0.0000
vt 0.4059 0.3333 0.0000
vt 0.3436 0.3333 0.0000
vt 0.4059 0.4167 0.0000
vt 0.3436 0.4167 0.0000
vt 0.3436 1.0000 0.0000
vt 0.3436 0.9167 0.0000
vt 0.4059 1.0000 0.0000
vt 0.4059 0.9167 0.0000
vt 0.3436 0.8333 0.0000
vt 0.4059 0.8333 0.0000
vt 0.3436 0.7500 0.0000
vt 0.4059 0.7500 0.0000
vt 0.3436 0.6667 0.0000
vt 0.4059 0.6667 0.0000
vt 0.5975 0.9981 0.0000
vt 0.5977 0.9149 0.0000
vt 0.5974 0.9149 0.0000
vt 0.5978 0.8317 0.0000
vt 0.5973 0.8317 0.0000
vt 0.5980 0.7485 0.0000
vt 0.5972 0.7485 0.0000
vt 0.5982 0.6654 0.0000
vt 0.5972 0.6654 0.0000
vt 0.5983 0.5822 0.0000
vt 0.5971 0.5822 0.0000
vt 0.5965 0.0000 0.0000
vt 0.5966 0.0832 0.0000
vt 0.5995 0.0000 0.0000
vt 0.5993 0.0832 0.0000
vt 0.5966 0.1663 0.0000
vt 0.5992 0.1663 0.0000
vt 0.5967 0.2495 0.0000
vt 0.5990 0.2495 0.0000
vt 0.5968 0.3327 0.0000
vt 0.5988 0.3327 0.0000
vt 0.5971 0.6654 0.0000
# 143 texture coords

g Plane001
s 1
f 1/1/1 2/2/2 3/1/3 
f 4/2/4 3/1/3 2/2/2 
f 5/3/5 6/4/6 7/3/7 
f 8/4/8 7/3/7 6/4/6 
f 9/5/9 10/6/10 5/7/5 
f 6/8/6 5/7/5 10/6/10 
f 11/9/11 12/10/11 13/11/12 
f 14/12/11 13/11/12 12/10/11 
f 15/13/11 16/14/11 11/9/11 
f 12/10/11 11/9/11 16/14/11 
f 17/15/10 18/16/10 1/17/1 
f 2/18/2 1/17/1 18/16/10 
s off
f 17/19/13 19/20/13 13/21/13 
f 20/22/13 13/21/13 19/20/13 
f 15/21/14 21/22/14 9/19/14 
f 10/20/15 9/19/15 21/22/15 
s 1
f 22/23/16 23/24/17 24/23/18 
f 25/24/19 24/23/18 23/24/17 
f 23/24/17 26/25/20 25/24/19 
f 27/25/21 25/24/19 26/25/20 
f 26/25/20 28/26/22 27/25/21 
f 29/26/23 27/25/21 28/26/22 
f 28/26/22 30/27/24 29/26/23 
f 31/27/25 29/26/23 30/27/24 
f 30/27/24 32/28/26 31/27/25 
f 33/28/27 31/27/25 32/28/26 
f 32/28/26 1/1/1 33/28/27 
f 3/1/3 33/28/27 1/1/1 
f 34/29/28 35/30/29 36/29/30 
f 37/30/31 36/29/30 35/30/29 
f 35/30/29 38/31/32 37/30/31 
f 39/31/33 37/30/31 38/31/32 
f 38/31/32 40/32/34 39/31/33 
f 41/32/35 39/31/33 40/32/34 
f 40/32/34 42/33/36 41/32/35 
f 43/33/37 41/32/35 42/33/36 
f 42/33/36 4/2/4 43/33/37 
f 2/2/2 43/33/37 4/2/4 
f 44/34/38 45/35/39 46/34/40 
f 47/35/41 46/34/40 45/35/39 
f 45/35/39 48/36/42 47/35/41 
f 49/36/43 47/35/41 48/36/42 
f 48/36/42 50/37/44 49/36/43 
f 51/37/45 49/36/43 50/37/44 
f 50/37/44 52/38/46 51/37/45 
f 53/38/47 51/37/45 52/38/46 
f 52/38/46 54/39/48 53/38/47 
f 55/39/49 53/38/47 54/39/48 
f 54/39/48 5/3/5 55/39/49 
f 7/3/7 55/39/49 5/3/5 
f 56/40/50 57/41/51 58/40/52 
f 59/41/53 58/40/52 57/41/51 
f 57/41/51 60/42/54 59/41/53 
f 61/42/55 59/41/53 60/42/54 
f 60/42/54 62/43/56 61/42/55 
f 63/43/57 61/42/55 62/43/56 
f 62/43/56 64/44/58 63/43/57 
f 65/44/59 63/43/57 64/44/58 
f 64/44/58 8/4/8 65/44/59 
f 6/4/6 65/44/59 8/4/8 
f 66/45/60 67/46/9 44/47/38 
f 45/48/39 44/47/38 67/46/9 
f 67/46/9 68/49/9 45/48/39 
f 48/50/42 45/48/39 68/49/9 
f 68/49/9 69/51/9 48/50/42 
f 50/52/44 48/50/42 69/51/9 
f 69/51/9 70/53/9 50/52/44 
f 52/54/46 50/52/44 70/53/9 
f 70/53/9 71/55/9 52/54/46 
f 54/56/48 52/54/46 71/55/9 
f 71/55/9 9/5/9 54/56/48 
f 5/7/5 54/56/48 9/5/9 
f 58/57/52 59/58/53 72/59/9 
f 73/60/9 72/59/9 59/58/53 
f 59/58/53 61/61/55 73/60/9 
f 74/62/9 73/60/9 61/61/55 
f 61/61/55 63/63/57 74/62/9 
f 75/64/9 74/62/9 63/63/57 
f 63/63/57 65/65/59 75/64/9 
f 76/66/10 75/64/9 65/65/59 
f 65/65/59 6/8/6 76/66/10 
f 10/6/10 76/66/10 6/8/6 
f 77/67/12 78/68/11 79/69/11 
f 80/70/11 79/69/11 78/68/11 
f 78/68/11 81/71/11 80/70/11 
f 82/72/12 80/70/11 81/71/11 
f 81/71/11 83/73/11 82/72/12 
f 84/74/11 82/72/12 83/73/11 
f 83/73/11 85/75/11 84/74/11 
f 86/76/11 84/74/11 85/75/11 
f 85/75/11 87/77/11 86/76/11 
f 20/78/11 86/76/11 87/77/11 
f 87/77/11 11/9/11 20/78/11 
f 13/11/12 20/78/11 11/9/11 
f 88/79/60 89/80/12 90/81/12 
f 91/82/12 90/81/12 89/80/12 
f 89/80/12 92/83/12 91/82/12 
f 93/84/11 91/82/12 92/83/12 
f 92/83/12 94/85/11 93/84/11 
f 95/86/11 93/84/11 94/85/11 
f 94/85/11 96/87/11 95/86/11 
f 97/88/11 95/86/11 96/87/11 
f 96/87/11 14/12/11 97/88/11 
f 12/10/11 97/88/11 14/12/11 
f 98/89/12 99/90/12 77/67/12 
f 78/68/11 77/67/12 99/90/12 
f 99/90/12 100/91/11 78/68/11 
f 81/71/11 78/68/11 100/91/11 
f 100/91/11 101/92/11 81/71/11 
f 83/73/11 81/71/11 101/92/11 
f 101/92/11 102/93/11 83/73/11 
f 85/75/11 83/73/11 102/93/11 
f 102/93/11 21/94/11 85/75/11 
f 87/77/11 85/75/11 21/94/11 
f 21/94/11 15/13/11 87/77/11 
f 11/9/11 87/77/11 15/13/11 
f 90/81/12 91/82/12 66/95/60 
f 103/96/11 66/95/60 91/82/12 
f 91/82/12 93/84/11 103/96/11 
f 104/97/11 103/96/11 93/84/11 
f 93/84/11 95/86/11 104/97/11 
f 105/98/12 104/97/11 95/86/11 
f 95/86/11 97/88/11 105/98/12 
f 106/99/12 105/98/12 97/88/11 
f 97/88/11 12/10/11 106/99/12 
f 16/14/11 106/99/12 12/10/11 
f 107/100/9 108/101/9 22/102/16 
f 23/103/17 22/102/16 108/101/9 
f 108/101/9 109/104/9 23/103/17 
f 26/105/20 23/103/17 109/104/9 
f 109/104/9 110/106/9 26/105/20 
f 28/107/22 26/105/20 110/106/9 
f 110/106/9 111/108/9 28/107/22 
f 30/109/24 28/107/22 111/108/9 
f 111/108/9 19/110/10 30/109/24 
f 32/111/26 30/109/24 19/110/10 
f 19/110/10 17/15/10 32/111/26 
f 1/17/1 32/111/26 17/15/10 
f 36/112/30 37/113/31 88/114/60 
f 112/115/10 88/114/60 37/113/31 
f 37/113/31 39/116/33 112/115/10 
f 113/117/10 112/115/10 39/116/33 
f 39/116/33 41/118/35 113/117/10 
f 114/119/9 113/117/10 41/118/35 
f 41/118/35 43/120/37 114/119/9 
f 115/121/10 114/119/9 43/120/37 
f 43/120/37 2/18/2 115/121/10 
f 18/16/10 115/121/10 2/18/2 
s off
f 88/122/13 112/123/13 89/124/13 
f 112/123/13 113/125/13 89/124/13 
f 92/126/13 89/124/13 113/125/13 
f 113/125/13 114/127/13 92/126/13 
f 94/128/13 92/126/13 114/127/13 
f 114/127/13 115/129/13 94/128/13 
f 96/130/13 94/128/13 115/129/13 
f 115/129/13 18/131/13 96/130/13 
f 14/132/13 96/130/13 18/131/13 
f 18/131/13 17/19/13 14/132/13 
f 13/21/13 14/132/13 17/19/13 
f 79/133/13 80/134/13 107/135/13 
f 108/136/13 107/135/13 80/134/13 
f 80/134/13 82/137/13 108/136/13 
f 109/138/13 108/136/13 82/137/13 
f 82/137/61 84/139/61 109/138/61 
f 110/140/62 109/138/62 84/139/62 
f 84/139/13 86/141/13 110/140/13 
f 111/142/13 110/140/13 86/141/13 
f 86/141/13 20/22/13 111/142/13 
f 19/20/13 111/142/13 20/22/13 
f 66/122/14 103/124/14 67/123/14 
f 103/124/14 104/126/14 67/123/14 
f 68/125/14 67/123/14 104/126/14 
f 104/126/14 105/128/14 68/125/14 
f 69/127/14 68/125/14 105/128/14 
f 105/128/14 106/143/14 69/127/14 
f 70/129/14 69/127/14 106/143/14 
f 106/143/14 16/132/14 70/129/14 
f 71/131/14 70/129/14 16/132/14 
f 16/132/14 15/21/14 71/131/14 
f 9/19/14 71/131/14 15/21/14 
f 72/135/14 73/136/14 98/133/14 
f 99/134/15 98/133/15 73/136/15 
f 73/136/15 74/138/15 99/134/15 
f 100/137/63 99/134/63 74/138/63 
f 74/138/63 75/140/63 100/137/63 
f 101/139/14 100/137/14 75/140/14 
f 75/140/14 76/142/14 101/139/14 
f 102/141/14 101/139/14 76/142/14 
f 76/142/14 10/20/14 102/141/14 
f 21/22/15 102/141/15 10/20/15 
# 190 faces

