# 3ds Max Wavefront OBJ Exporter v0.97b - (c)2007 guruware
# File Created: 03.02.2017 07:37:55

#
# object Ground_NoCom006
#

v  -3.0000 0.6003 32.0000
v  -3.0000 0.6003 26.1819
v  -4.5749 -0.0778 26.1819
v  -3.9999 0.6001 32.0000
v  -3.0000 0.6003 20.3636
v  -5.0000 -0.2497 20.3636
v  -3.0000 0.6003 -20.3636
v  -3.0000 0.6003 -26.1819
v  -4.5750 -0.0778 -26.1818
v  -5.0000 -0.2247 -20.3636
v  -3.0000 0.6003 -32.0000
v  -3.9999 0.6001 -32.0000
v  -3.9999 0.5001 32.0000
v  -3.0000 0.5003 32.0000
v  -3.0000 0.5262 32.0000
v  4.0001 0.6001 32.0000
v  3.0000 0.6003 32.0000
v  3.0000 0.5744 32.0000
v  4.5750 -0.0778 26.1819
v  4.0001 0.5001 32.0000
v  5.0000 -0.2247 20.3636
v  3.0000 0.5753 8.7272
v  3.0000 0.5003 2.9090
v  3.0000 0.6003 2.9091
v  3.0000 0.5753 -2.9091
v  3.0000 0.6003 -2.9091
v  3.0000 0.5878 -8.7273
v  4.5751 -0.0778 -26.1818
v  4.0001 0.5001 -32.0000
v  4.0001 0.6001 -32.0000
v  3.0000 0.5003 -32.0000
v  3.0000 0.5262 -32.0000
v  -3.0000 0.5744 -32.0000
v  -3.9999 0.5001 -32.0000
v  -3.0000 0.6003 14.5454
v  -5.0000 -0.2247 14.5454
v  -3.0000 0.6003 8.7273
v  -5.0000 -0.2247 8.7273
v  -3.0000 0.6003 2.9091
v  -5.0000 -0.2247 2.9091
v  -3.0000 0.6003 -2.9091
v  -5.0000 -0.2247 -2.9091
v  -3.0000 0.6003 -8.7273
v  -5.0000 -0.2247 -8.7273
v  -3.0000 0.6003 -14.5455
v  -5.0000 -0.2247 -14.5455
v  5.0000 -0.2497 -20.3636
v  3.0000 0.6003 -20.3636
v  3.0000 0.5878 -14.5455
v  5.0000 -0.2247 -14.5455
v  5.0000 -0.2247 -8.7273
v  5.0000 -0.2247 -2.9091
v  5.0000 -0.2247 2.9091
v  3.0000 0.6003 8.7273
v  5.0000 -0.2247 8.7273
v  3.0000 0.5836 14.5454
v  5.0000 -0.2247 14.5454
v  3.0000 0.5878 20.3636
v  3.0000 0.6003 26.1819
v  0.0001 0.6061 26.1819
v  0.0001 0.6061 32.0000
v  0.0001 0.6061 20.3636
v  3.0000 0.6003 14.5454
v  0.0001 0.6061 14.5454
v  0.0001 0.6061 8.7272
v  3.0000 0.6003 2.9090
v  0.0001 0.6061 2.9090
v  0.0001 0.6061 -2.9091
v  3.0000 0.6003 -8.7273
v  0.0001 0.6061 -8.7273
v  0.0001 0.6061 -14.5455
v  0.0001 0.6061 -20.3637
v  3.0000 0.6003 -26.1819
v  0.0001 0.6061 -26.1819
v  3.0000 0.6003 -32.0000
v  0.0001 0.6061 -32.0000
v  3.0000 0.5003 32.0000
v  0.0001 0.5561 32.0000
v  0.0001 0.5061 32.0000
v  -3.0000 0.5003 -32.0000
v  0.0001 0.5561 -32.0000
v  0.0001 0.5061 -32.0000
v  3.7765 0.2801 31.9997
v  3.7765 0.5001 31.9997
v  4.3521 -0.0755 26.6663
v  4.3160 -0.2955 26.6663
v  3.7765 0.5001 -32.0003
v  3.7765 0.2801 -32.0003
v  4.3160 -0.2955 -26.6669
v  4.3521 -0.0755 -26.6669
v  3.8487 0.2801 31.9997
v  4.3882 -0.2955 26.6663
v  3.8487 0.2801 -32.0003
v  4.3882 -0.2955 -26.6669
v  3.8487 0.5001 31.9997
v  3.8487 0.5001 -32.0003
v  -3.8489 0.2801 31.9997
v  -3.8489 0.5000 31.9997
v  -4.3524 -0.0756 26.6663
v  -4.3885 -0.2955 26.6663
v  -3.8489 0.5000 -32.0003
v  -3.8489 0.2801 -32.0003
v  -4.3885 -0.2955 -26.6669
v  -4.3524 -0.0756 -26.6669
v  -3.7767 0.2801 31.9997
v  -4.3163 -0.2955 26.6663
v  -3.7767 0.2801 -32.0003
v  -4.3163 -0.2955 -26.6669
v  -3.7767 0.5000 31.9997
v  -3.7767 0.5000 -32.0003
# 110 vertices

vn -0.1397 0.9902 0.0000
vn -0.3955 0.9185 -0.0000
vn -0.0002 0.9933 -0.1157
vn -0.3911 0.9203 -0.0000
vn -0.3955 0.9185 0.0018
vn -0.3955 0.9185 0.0000
vn -0.1482 0.9890 -0.0002
vn -0.3813 0.9244 -0.0045
vn -0.3945 0.9164 0.0678
vn -0.0064 0.1481 0.9890
vn 0.9952 0.0000 0.0983
vn 0.2984 0.9544 -0.0002
vn 0.0029 1.0000 -0.0000
vn 1.0000 0.0000 -0.0000
vn -0.0029 1.0000 -0.0000
vn -0.9952 0.0000 -0.0984
vn -0.3813 0.9244 0.0040
vn -0.3813 0.9244 0.0002
vn -0.3813 0.9244 -0.0000
vn 0.3911 0.9203 0.0020
vn 0.3797 0.9251 0.0002
vn 0.3764 0.9265 -0.0040
vn 0.3764 0.9265 -0.0000
vn 0.3764 0.9265 0.0020
vn 0.3714 0.9285 -0.0000
vn 0.3714 0.9285 -0.0040
vn 0.3813 0.9244 0.0026
vn 0.3747 0.9271 -0.0000
vn 0.3747 0.9271 -0.0007
vn 0.0038 1.0000 0.0006
vn 0.0035 1.0000 -0.0001
vn 0.0061 1.0000 -0.0021
vn 0.0019 1.0000 0.0021
vn 0.0061 1.0000 -0.0000
vn 0.0103 0.9999 -0.0043
vn 0.0019 1.0000 0.0043
vn 0.0103 0.9999 -0.0000
vn 0.0019 1.0000 -0.0000
vn 0.2919 0.9562 0.0210
vn 0.3945 0.9164 -0.0678
vn 0.1329 0.9911 -0.0000
vn 0.3764 0.9265 0.0041
vn 0.3954 0.9185 -0.0020
vn 0.3954 0.9185 -0.0017
vn 0.3911 0.9203 -0.0000
vn 0.0002 0.9933 0.1157
vn 0.3954 0.9185 -0.0000
vn -0.0019 1.0000 -0.0000
vn -0.0019 1.0000 0.0000
vn -0.9942 0.0000 -0.1073
vn -0.9801 0.1608 -0.1165
vn -0.9949 0.0000 0.1006
vn -0.9793 0.1607 0.1230
vn 0.0000 -0.9942 0.1073
vn 0.0000 -0.9942 -0.1073
vn 0.9949 0.0000 0.1006
vn 0.9840 0.1615 0.0755
vn 0.9956 0.0000 -0.0940
vn 0.9835 0.1614 -0.0821
vn -0.9956 0.0000 0.0940
vn -0.9835 0.1614 0.0821
vn -0.9949 0.0000 -0.1007
vn -0.9840 0.1615 -0.0755
vn -0.0000 -0.9942 0.1073
vn -0.0000 -0.9942 -0.1073
vn 0.9949 0.0000 -0.1007
vn 0.9793 0.1608 -0.1231
vn 0.9942 0.0000 0.1073
vn 0.9801 0.1609 0.1165
# 69 vertex normals

vt 0.8031 0.0016 0.0000
vt 0.9987 0.0016 0.0000
vt 0.9987 0.2686 0.0000
vt 0.8031 0.1965 0.0000
vt 0.9091 0.3570 0.0000
vt 0.8182 0.3570 0.0000
vt 0.8182 0.0000 0.0000
vt 0.9091 0.0852 0.0000
vt 0.7815 0.3570 0.0000
vt 0.6906 0.3570 0.0000
vt 0.6906 0.0852 0.0000
vt 0.7815 0.0000 0.0000
vt 0.7993 0.0058 0.0000
vt 0.9948 0.0058 0.0000
vt 0.9948 0.2007 0.0000
vt 0.7993 0.2727 0.0000
vt 1.4126 0.0000 0.0000
vt 1.6716 0.0000 0.0000
vt 1.6716 0.2590 0.0000
vt 2.4126 1.0000 0.0000
vt 2.1536 1.0000 0.0000
vt 2.1536 0.7410 0.0000
vt 0.8777 0.4219 0.0000
vt 1.1702 0.0010 0.0000
vt 0.5779 0.0005 0.0000
vt 0.5923 0.4217 0.0000
vt 0.7801 0.2814 0.0000
vt 0.5851 0.4216 0.0000
vt 0.5779 0.4217 0.0000
vt 0.5923 0.0005 0.0000
vt 1.1702 0.8433 0.0000
vt 1.7010 0.0000 0.0000
vt 1.9600 0.0000 0.0000
vt 1.9600 0.2590 0.0000
vt 2.7010 1.0000 0.0000
vt 2.4420 1.0000 0.0000
vt 2.4420 0.7410 0.0000
vt 0.7273 0.3570 0.0000
vt 0.7273 0.0000 0.0000
vt 0.6364 0.3570 0.0000
vt 0.6364 0.0000 0.0000
vt 0.8357 0.0442 0.0000
vt 0.8357 0.3828 0.0000
vt 0.7002 0.3828 0.0000
vt 0.7002 0.0442 0.0000
vt 0.9970 0.0442 0.0000
vt 0.9970 0.3828 0.0000
vt 0.8615 0.3828 0.0000
vt 0.8615 0.0442 0.0000
vt 0.7261 0.3828 0.0000
vt 0.7261 0.0442 0.0000
vt 0.9633 0.0000 0.0000
vt 0.9633 0.3570 0.0000
vt 0.8724 0.3570 0.0000
vt 0.8724 0.0000 0.0000
vt 0.7815 -0.0000 0.0000
vt 0.8724 -0.0000 0.0000
vt 0.9633 -0.0000 0.0000
vt 0.6364 -0.0000 0.0000
vt 0.7273 -0.0000 0.0000
vt 0.8182 -0.0000 0.0000
vt 1.0001 0.1185 0.0000
vt 1.0001 0.2995 0.0000
vt 0.7884 0.2995 0.0000
vt 0.7884 0.1185 0.0000
vt 0.5766 0.0056 0.0000
vt 0.5766 0.1942 0.0000
vt 0.7882 0.1942 0.0000
vt 0.7882 0.0056 0.0000
vt 1.0001 0.4147 0.0000
vt 1.0001 0.2261 0.0000
vt 0.7885 0.2261 0.0000
vt 0.7885 0.4147 0.0000
vt 1.0001 0.0056 0.0000
vt 1.0001 0.1942 0.0000
vt 0.7885 0.1942 0.0000
vt 0.7885 0.0056 0.0000
vt 0.5766 0.1185 0.0000
vt 0.5766 0.2995 0.0000
vt 0.7882 0.2995 0.0000
vt 0.7882 0.1185 0.0000
vt 2.1536 0.0000 0.0000
vt 1.9126 0.5000 0.0000
vt 1.9126 0.0000 0.0000
vt 1.6716 1.0000 0.0000
vt 1.9126 1.0000 0.0000
vt 2.4420 0.0000 0.0000
vt 2.2010 0.5000 0.0000
vt 2.2010 0.0000 0.0000
vt 1.9600 1.0000 0.0000
vt 2.2010 1.0000 0.0000
vt 0.8031 0.0736 0.0000
vt 0.9987 0.0015 0.0000
vt 0.9987 0.2685 0.0000
vt 0.8031 0.2685 0.0000
vt 0.7936 0.0015 0.0000
vt 0.9891 0.0735 0.0000
vt 0.9891 0.2685 0.0000
vt 0.7936 0.2685 0.0000
vt 2.4126 0.0000 0.0000
vt 1.7010 1.0000 0.0000
vt 0.5766 0.2994 0.0000
vt 1.0001 0.1941 0.0000
vt 0.5766 0.2262 0.0000
vt 0.5766 0.4147 0.0000
vt 0.5766 0.1941 0.0000
vt 1.0001 0.2994 0.0000
vt 1.4126 1.0000 0.0000
vt 2.7010 0.0000 0.0000
vt 0.3868 -0.0001 0.0000
vt 0.3291 -0.0001 0.0000
vt 0.3291 0.9999 0.0000
vt 0.4444 0.9999 0.0000
vt -0.8085 1.0000 0.0000
vt -0.8306 1.0000 0.0000
vt -0.8306 0.9167 0.0000
vt -0.8085 0.9167 0.0000
vt -0.8306 0.0000 0.0000
vt -0.8085 0.0000 0.0000
vt -0.8085 0.0833 0.0000
vt -0.8306 0.0833 0.0000
vt 0.4444 1.0000 0.0000
vt 0.3291 1.0000 0.0000
# 123 texture coords

g Ground_NoCom006
s off
f 1/1/1 2/2/1 3/3/2 
f 3/3/3 4/4/1 1/1/1 
f 2/5/1 5/6/4 6/7/1 
f 6/7/1 3/8/5 2/5/1 
f 7/9/6 8/10/7 9/11/6 
f 9/11/8 10/12/1 7/9/8 
f 8/13/1 11/14/1 12/15/1 
f 12/15/1 9/16/9 8/13/1 
f 13/17/10 14/18/10 15/19/10 
f 16/20/10 17/21/10 18/22/10 
f 19/23/11 16/24/12 20/25/12 
f 19/25/13 21/23/13 21/26/13 
f 22/27/12 23/28/12 24/26/14 
f 23/29/12 25/27/12 26/30/12 
f 26/30/12 24/31/14 23/29/12 
f 27/28/14 26/30/12 25/27/12 
f 28/25/12 29/23/12 30/26/12 
f 29/32/15 31/33/15 32/34/15 
f 12/35/15 11/36/15 33/37/15 
f 9/25/16 12/31/15 34/29/15 
f 3/29/15 13/25/15 4/24/15 
f 6/7/4 5/6/4 35/38/4 
f 35/38/17 36/39/18 6/7/17 
f 36/39/18 35/38/19 37/40/18 
f 37/40/18 38/41/18 36/39/18 
f 38/42/18 37/43/18 39/44/18 
f 39/44/18 40/45/18 38/42/18 
f 40/46/18 39/47/18 41/48/19 
f 41/48/19 42/49/18 40/46/18 
f 42/49/18 41/48/19 43/50/19 
f 43/50/19 44/51/18 42/49/18 
f 44/52/18 43/53/19 45/54/19 
f 45/54/19 46/55/18 44/52/18 
f 46/55/18 45/54/19 7/9/18 
f 7/9/18 10/12/19 46/55/18 
f 47/56/20 48/9/21 49/54/20 
f 49/54/22 50/57/22 47/56/22 
f 50/57/23 49/54/23 27/53/23 
f 27/53/23 51/58/23 50/57/21 
f 51/42/24 27/43/24 25/44/24 
f 25/44/25 52/45/21 51/42/21 
f 52/46/21 25/47/26 24/48/21 
f 24/48/21 53/49/21 52/46/21 
f 53/49/21 24/48/21 54/50/21 
f 54/50/21 55/51/21 53/49/21 
f 55/59/21 54/40/21 56/38/27 
f 56/38/28 57/60/28 55/59/21 
f 57/60/21 56/38/29 58/6/29 
f 58/6/23 21/61/23 57/60/23 
f 17/62/30 59/63/30 60/64/30 
f 60/64/31 61/65/31 17/62/31 
f 59/66/31 58/67/32 62/68/31 
f 62/68/30 60/69/30 59/66/30 
f 58/70/33 63/71/30 64/72/30 
f 64/72/30 62/73/30 58/70/34 
f 63/74/31 22/75/35 65/76/31 
f 65/76/31 64/77/31 63/74/31 
f 22/66/36 66/67/30 67/68/30 
f 67/68/31 65/69/31 22/66/37 
f 66/70/31 25/71/35 68/72/31 
f 68/72/31 67/73/31 66/70/31 
f 25/66/36 69/67/31 70/68/31 
f 70/68/30 68/69/30 25/66/37 
f 69/74/30 49/75/32 71/76/30 
f 71/76/31 70/77/31 69/74/31 
f 49/70/33 48/71/33 72/72/31 
f 72/72/30 71/73/30 49/70/34 
f 48/74/38 73/75/30 74/76/30 
f 74/76/31 72/77/31 48/74/38 
f 73/78/31 75/79/31 76/80/31 
f 76/80/31 74/81/31 73/78/31 
f 77/82/10 18/22/10 78/83/10 
f 78/83/10 79/84/10 77/82/10 
f 1/85/10 15/19/10 78/83/10 
f 78/83/10 61/86/10 1/85/10 
f 80/87/15 33/37/15 81/88/15 
f 81/88/15 82/89/15 80/87/15 
f 75/90/15 32/34/15 81/88/15 
f 81/88/15 76/91/15 75/90/15 
f 18/22/10 17/21/10 61/86/10 
f 61/86/10 78/83/10 18/22/10 
f 81/88/15 32/34/15 31/33/15 
f 31/33/15 82/89/15 81/88/15 
f 16/92/39 19/93/40 59/94/39 
f 59/94/41 17/95/41 16/92/41 
f 19/8/42 21/61/39 58/6/42 
f 58/6/43 59/5/39 19/8/43 
f 47/56/39 28/11/44 73/10/39 
f 73/10/41 48/9/45 47/56/41 
f 28/96/46 30/97/39 75/98/39 
f 75/98/39 73/99/39 28/96/47 
f 20/100/10 16/20/10 18/22/10 
f 18/22/10 77/82/10 20/100/10 
f 30/101/15 29/32/15 32/34/15 
f 32/34/15 75/90/15 30/101/15 
f 61/65/48 60/64/48 2/102/48 
f 2/102/48 1/78/48 61/65/48 
f 60/69/49 62/68/49 5/103/48 
f 5/103/48 2/74/48 60/69/48 
f 62/73/48 64/72/48 35/104/48 
f 35/104/48 5/105/48 62/73/48 
f 64/77/48 65/76/48 37/106/48 
f 37/106/48 35/66/48 64/77/48 
f 65/69/48 67/68/48 39/103/48 
f 39/103/48 37/74/48 65/69/49 
f 67/73/48 68/72/48 41/104/48 
f 41/104/48 39/105/48 67/73/48 
f 68/69/49 70/68/49 43/103/48 
f 43/103/48 41/74/48 68/69/49 
f 70/77/48 71/76/48 45/106/48 
f 45/106/48 43/66/48 70/77/48 
f 71/73/48 72/72/48 7/104/48 
f 7/104/48 45/105/48 71/73/48 
f 72/77/49 74/76/49 8/106/49 
f 8/106/49 7/66/49 72/77/49 
f 74/81/48 76/80/48 11/107/48 
f 11/107/48 8/62/48 74/81/48 
f 78/83/10 15/19/10 14/18/10 
f 14/18/10 79/84/10 78/83/10 
f 33/37/15 11/36/15 76/91/15 
f 76/91/15 81/88/15 33/37/15 
f 4/108/10 13/17/10 15/19/10 
f 15/19/10 1/85/10 4/108/10 
f 34/109/15 12/35/15 33/37/15 
f 33/37/15 80/87/15 34/109/15 
f 83/110/50 84/111/50 85/112/50 
f 85/112/51 86/113/51 83/110/51 
f 87/111/52 88/110/52 89/113/52 
f 89/113/53 90/112/53 87/111/53 
f 91/114/54 83/115/54 86/116/54 
f 86/116/54 92/117/54 91/114/54 
f 88/118/55 93/119/55 94/120/55 
f 94/120/55 89/121/55 88/118/55 
f 95/111/56 91/110/56 92/113/56 
f 92/113/57 85/112/57 95/111/57 
f 93/110/58 96/111/58 90/112/58 
f 90/112/59 94/113/59 93/110/59 
f 97/122/60 98/123/60 99/111/60 
f 99/111/61 100/110/61 97/122/61 
f 101/111/62 102/110/62 103/113/62 
f 103/113/63 104/112/63 101/111/63 
f 105/111/64 97/110/64 100/113/64 
f 100/113/54 106/112/54 105/111/54 
f 102/110/65 107/111/65 108/112/65 
f 108/112/55 103/113/55 102/110/55 
f 109/111/66 105/110/66 106/113/66 
f 106/113/67 99/112/67 109/111/67 
f 107/110/68 110/111/68 104/112/68 
f 104/112/69 108/113/69 107/110/69 
# 149 faces

