# 3ds Max Wavefront OBJ Exporter v0.97b - (c)2007 guruware
# File Created: 02.04.2016 17:26:06

#
# object Plane001
#

v  -3.0000 0.1500 -0.0000
v  3.0000 0.1500 -0.0000
v  3.0000 0.1500 -16.0000
v  -3.0000 0.1500 -16.0000
v  -3.0000 0.1500 32.0000
v  3.0000 0.1500 32.0000
v  3.0000 0.1500 16.0000
v  -3.0000 0.1500 16.0000
v  3.0000 0.1500 -32.0000
v  -3.0000 0.1500 -32.0000
# 10 vertices

vn 0.0000 1.0000 -0.0000
# 1 vertex normals

vt 0.3958 0.5000 0.0000
vt 1.0636 0.5000 0.0000
vt 1.0636 0.7500 0.0000
vt 0.3958 0.7500 0.0000
vt 0.3958 0.0000 0.0000
vt 1.0636 0.0000 0.0000
vt 1.0636 0.2500 0.0000
vt 0.3958 0.2500 0.0000
vt 1.0636 1.0000 0.0000
vt 0.3958 1.0000 0.0000
# 10 texture coords

g Plane001
s 1
f 1/1/1 2/2/1 3/3/1 
f 3/3/1 4/4/1 1/1/1 
f 5/5/1 6/6/1 7/7/1 
f 7/7/1 8/8/1 5/5/1 
f 8/8/1 7/7/1 2/2/1 
f 2/2/1 1/1/1 8/8/1 
f 9/9/1 10/10/1 4/4/1 
f 4/4/1 3/3/1 9/9/1 
# 8 faces

