# 3ds Max Wavefront OBJ Exporter v0.97b - (c)2007 guruware
# File Created: 31.03.2016 23:05:00

#
# object Plane002
#

v  -3.0000 0.0000 32.0000
v  -1.1250 0.0000 32.0000
v  -1.1250 0.0000 16.0000
v  -3.0000 0.0000 16.0000
v  -1.1250 0.0000 -0.0000
v  -3.0000 0.0000 -0.0000
v  -1.1250 0.0000 -16.0000
v  -3.0000 0.0000 -16.0000
v  -1.1250 0.0000 -32.0000
v  -3.0000 0.0000 -32.0000
v  -0.0000 0.0000 32.0000
v  -0.0000 0.0000 16.0000
v  -0.0000 0.0000 -0.0000
v  -0.0000 0.0000 -16.0000
v  -0.0000 0.0000 -32.0000
v  3.0000 0.0000 32.0000
v  3.0000 0.0000 16.0000
v  1.1250 0.0000 16.0000
v  1.1250 0.0000 32.0000
v  3.0000 0.0000 -0.0000
v  1.1250 0.0000 -0.0000
v  3.0000 0.0000 -16.0000
v  1.1250 0.0000 -16.0000
v  3.0000 0.0000 -32.0000
v  1.1250 0.0000 -32.0000
# 25 vertices

vn 0.0000 1.0000 -0.0000
# 1 vertex normals

vt 0.4278 0.1358 0.0000
vt 0.5899 0.1358 0.0000
vt 0.5899 0.2500 0.0000
vt 0.4278 0.2500 0.0000
vt 0.5899 0.5000 0.0000
vt 0.4278 0.5000 0.0000
vt 0.5899 0.7500 0.0000
vt 0.4278 0.7500 0.0000
vt 0.5899 0.8677 0.0000
vt 0.4278 0.8677 0.0000
vt 0.6872 0.1358 0.0000
vt 0.6872 0.2500 0.0000
vt 0.6872 0.5000 0.0000
vt 0.6872 0.7500 0.0000
vt 0.6872 0.8677 0.0000
vt 0.9467 0.1358 0.0000
vt 0.9467 0.2500 0.0000
vt 0.7845 0.2500 0.0000
vt 0.7845 0.1358 0.0000
vt 0.9467 0.5000 0.0000
vt 0.7845 0.5000 0.0000
vt 0.9467 0.7500 0.0000
vt 0.7845 0.7500 0.0000
vt 0.9467 0.8677 0.0000
vt 0.7845 0.8677 0.0000
# 25 texture coords

g Plane002
s 1
f 1/1/1 2/2/1 3/3/1 
f 3/3/1 4/4/1 1/1/1 
f 4/4/1 3/3/1 5/5/1 
f 5/5/1 6/6/1 4/4/1 
f 6/6/1 5/5/1 7/7/1 
f 7/7/1 8/8/1 6/6/1 
f 8/8/1 7/7/1 9/9/1 
f 9/9/1 10/10/1 8/8/1 
f 11/11/1 12/12/1 3/3/1 
f 3/3/1 2/2/1 11/11/1 
f 12/12/1 13/13/1 5/5/1 
f 5/5/1 3/3/1 12/12/1 
f 13/13/1 14/14/1 7/7/1 
f 7/7/1 5/5/1 13/13/1 
f 14/14/1 15/15/1 9/9/1 
f 9/9/1 7/7/1 14/14/1 
f 16/16/1 17/17/1 18/18/1 
f 18/18/1 19/19/1 16/16/1 
f 17/17/1 20/20/1 21/21/1 
f 21/21/1 18/18/1 17/17/1 
f 20/20/1 22/22/1 23/23/1 
f 23/23/1 21/21/1 20/20/1 
f 22/22/1 24/24/1 25/25/1 
f 25/25/1 23/23/1 22/22/1 
f 19/19/1 18/18/1 12/12/1 
f 12/12/1 11/11/1 19/19/1 
f 18/18/1 21/21/1 13/13/1 
f 13/13/1 12/12/1 18/18/1 
f 21/21/1 23/23/1 14/14/1 
f 14/14/1 13/13/1 21/21/1 
f 23/23/1 25/25/1 15/15/1 
f 15/15/1 14/14/1 23/23/1 
# 32 faces

