# 3ds Max Wavefront OBJ Exporter v0.97b - (c)2007 guruware
# File Created: 29.04.2016 19:07:32

#
# object Plane001
#

v  -3.0000 0.0250 -0.0000
v  -1.1250 0.0250 0.0000
v  -1.1250 0.0292 -5.3333
v  -3.0000 0.0292 -5.3333
v  6.0000 -3.1400 0.0000
v  3.0000 0.0250 0.0000
v  3.0000 0.0208 5.3333
v  6.0000 -3.1442 5.3333
v  -6.0000 -3.1400 -0.0000
v  -6.0000 -3.1442 5.3333
v  -3.0000 0.0208 5.3333
v  1.1250 0.0250 0.0000
v  0.0000 0.0250 0.0000
v  0.0000 0.0208 5.3333
v  1.1250 0.0208 5.3333
v  -1.1250 0.0208 5.3333
v  -3.0000 0.0000 32.0000
v  -1.1250 0.0000 32.0000
v  -1.1250 0.0042 26.6667
v  -3.0000 0.0042 26.6667
v  -1.1250 0.0083 21.3333
v  -3.0000 0.0083 21.3333
v  -1.1250 0.0125 16.0000
v  -3.0000 0.0125 16.0000
v  -1.1250 0.0167 10.6667
v  -3.0000 0.0167 10.6667
v  -1.1250 0.0500 -32.0000
v  -3.0000 0.0500 -32.0000
v  -3.0000 0.0458 -26.6667
v  -1.1250 0.0458 -26.6667
v  -3.0000 0.0417 -21.3333
v  -1.1250 0.0417 -21.3333
v  -3.0000 0.0375 -16.0000
v  -1.1250 0.0375 -16.0000
v  -3.0000 0.0333 -10.6667
v  -1.1250 0.0333 -10.6667
v  6.0000 -3.1150 -32.0000
v  3.0000 0.0500 -32.0000
v  3.0000 0.0458 -26.6667
v  6.0000 -3.1192 -26.6667
v  3.0000 0.0417 -21.3333
v  6.0000 -3.1233 -21.3333
v  3.0000 0.0375 -16.0000
v  6.0000 -3.1275 -16.0000
v  3.0000 0.0333 -10.6667
v  6.0000 -3.1317 -10.6667
v  3.0000 0.0292 -5.3333
v  6.0000 -3.1358 -5.3333
v  3.0000 0.0000 32.0000
v  6.0000 -3.1650 32.0000
v  6.0000 -3.1608 26.6667
v  3.0000 0.0042 26.6667
v  6.0000 -3.1567 21.3333
v  3.0000 0.0083 21.3333
v  6.0000 -3.1525 16.0000
v  3.0000 0.0125 16.0000
v  6.0000 -3.1483 10.6667
v  3.0000 0.0167 10.6667
v  -6.0000 -3.1150 -32.0000
v  -6.0000 -3.1192 -26.6667
v  -6.0000 -3.1233 -21.3333
v  -6.0000 -3.1275 -16.0000
v  -6.0000 -3.1317 -10.6667
v  -6.0000 -3.1358 -5.3333
v  -6.0000 -3.1650 32.0000
v  -6.0000 -3.1608 26.6667
v  -6.0000 -3.1567 21.3333
v  -6.0000 -3.1525 16.0000
v  -6.0000 -3.1483 10.6667
v  1.1250 0.0500 -32.0000
v  0.0000 0.0500 -32.0000
v  0.0000 0.0458 -26.6667
v  1.1250 0.0458 -26.6667
v  0.0000 0.0417 -21.3333
v  1.1250 0.0417 -21.3333
v  0.0000 0.0375 -16.0000
v  1.1250 0.0375 -16.0000
v  0.0000 0.0333 -10.6667
v  1.1250 0.0333 -10.6667
v  0.0000 0.0292 -5.3333
v  1.1250 0.0292 -5.3333
v  0.0000 0.0000 32.0000
v  1.1250 -0.0000 32.0000
v  1.1250 0.0042 26.6667
v  0.0000 0.0042 26.6667
v  1.1250 0.0083 21.3333
v  0.0000 0.0083 21.3333
v  1.1250 0.0125 16.0000
v  0.0000 0.0125 16.0000
v  1.1250 0.0167 10.6667
v  0.0000 0.0167 10.6667
# 91 vertices

vn -0.0000 1.0000 0.0008
vn 0.0000 1.0000 0.0008
vn 0.7258 0.6879 0.0005
vn -0.7258 0.6879 0.0005
# 4 vertex normals

vt 0.0000 0.5000 0.0000
vt 0.1667 0.5000 0.0000
vt 0.1667 0.5833 0.0000
vt 0.0000 0.5833 0.0000
vt 1.0000 1.0000 1.0000
vt 1.0000 0.5000 0.0000
vt 1.0000 0.4167 0.0000
vt 0.1365 1.0000 1.0000
vt 0.0000 0.4167 0.0000
vt 0.8333 0.5000 0.0000
vt 0.5000 0.5000 0.0000
vt 0.5000 0.4167 0.0000
vt 0.8333 0.4167 0.0000
vt 0.1667 0.4167 0.0000
vt 0.0000 0.0000 0.0000
vt 0.1667 0.0000 0.0000
vt 0.1667 0.0833 0.0000
vt 0.0000 0.0833 0.0000
vt 0.1667 0.1667 0.0000
vt 0.0000 0.1667 0.0000
vt 0.1667 0.2500 0.0000
vt 0.0000 0.2500 0.0000
vt 0.1667 0.3333 0.0000
vt 0.0000 0.3333 0.0000
vt 0.1667 1.0000 0.0000
vt 0.0000 1.0000 0.0000
vt 0.0000 0.9167 0.0000
vt 0.1667 0.9167 0.0000
vt 0.0000 0.8333 0.0000
vt 0.1667 0.8333 0.0000
vt 0.0000 0.7500 0.0000
vt 0.1667 0.7500 0.0000
vt 0.0000 0.6667 0.0000
vt 0.1667 0.6667 0.0000
vt 1.0000 1.0000 0.0000
vt 1.0000 0.9167 0.0000
vt 1.0000 0.8333 0.0000
vt 1.0000 0.7500 0.0000
vt 1.0000 0.6667 0.0000
vt 1.0000 0.5833 0.0000
vt 1.0000 0.0000 0.0000
vt 1.0000 0.0833 0.0000
vt 1.0000 0.1667 0.0000
vt 1.0000 0.2500 0.0000
vt 1.0000 0.3333 0.0000
vt 0.8333 1.0000 0.0000
vt 0.5000 1.0000 0.0000
vt 0.5000 0.9167 0.0000
vt 0.8333 0.9167 0.0000
vt 0.5000 0.8333 0.0000
vt 0.8333 0.8333 0.0000
vt 0.5000 0.7500 0.0000
vt 0.8333 0.7500 0.0000
vt 0.5000 0.6667 0.0000
vt 0.8333 0.6667 0.0000
vt 0.5000 0.5833 0.0000
vt 0.8333 0.5833 0.0000
vt 0.5000 0.0000 0.0000
vt 0.8333 0.0000 0.0000
vt 0.8333 0.0833 0.0000
vt 0.5000 0.0833 0.0000
vt 0.8333 0.1667 0.0000
vt 0.5000 0.1667 0.0000
vt 0.8333 0.2500 0.0000
vt 0.5000 0.2500 0.0000
vt 0.8333 0.3333 0.0000
vt 0.5000 0.3333 0.0000
# 67 texture coords

g Plane001
s 1
f 1/1/1 2/2/2 3/3/2 
f 3/3/2 4/4/1 1/1/1 
s off
f 5/5/3 6/6/3 7/7/3 
f 7/7/3 8/5/3 5/5/3 
f 1/1/4 9/8/4 10/8/4 
f 10/8/4 11/9/4 1/1/4 
s 1
f 12/10/2 13/11/2 14/12/2 
f 14/12/2 15/13/2 12/10/2 
f 6/6/1 12/10/2 15/13/2 
f 15/13/2 7/7/1 6/6/1 
f 13/11/2 2/2/2 16/14/2 
f 16/14/2 14/12/2 13/11/2 
f 17/15/1 18/16/2 19/17/2 
f 19/17/2 20/18/1 17/15/1 
f 20/18/1 19/17/2 21/19/2 
f 21/19/2 22/20/1 20/18/1 
f 22/20/1 21/19/2 23/21/2 
f 23/21/2 24/22/1 22/20/1 
f 24/22/1 23/21/2 25/23/2 
f 25/23/2 26/24/1 24/22/1 
f 26/24/1 25/23/2 16/14/2 
f 16/14/2 11/9/1 26/24/1 
f 11/9/1 16/14/2 2/2/2 
f 2/2/2 1/1/1 11/9/1 
f 27/25/2 28/26/1 29/27/1 
f 29/27/1 30/28/2 27/25/2 
f 30/28/2 29/27/1 31/29/1 
f 31/29/1 32/30/2 30/28/2 
f 32/30/2 31/29/1 33/31/1 
f 33/31/1 34/32/2 32/30/2 
f 34/32/2 33/31/1 35/33/1 
f 35/33/1 36/34/2 34/32/2 
f 36/34/2 35/33/1 4/4/1 
f 4/4/1 3/3/2 36/34/2 
s off
f 37/5/3 38/35/3 39/36/3 
f 39/36/3 40/5/3 37/5/3 
f 40/5/3 39/36/3 41/37/3 
f 41/37/3 42/5/3 40/5/3 
f 42/5/3 41/37/3 43/38/3 
f 43/38/3 44/5/3 42/5/3 
f 44/5/3 43/38/3 45/39/3 
f 45/39/3 46/5/3 44/5/3 
f 46/5/3 45/39/3 47/40/3 
f 47/40/3 48/5/3 46/5/3 
f 48/5/3 47/40/3 6/6/3 
f 6/6/3 5/5/3 48/5/3 
f 49/41/3 50/5/3 51/5/3 
f 51/5/3 52/42/3 49/41/3 
f 52/42/3 51/5/3 53/5/3 
f 53/5/3 54/43/3 52/42/3 
f 54/43/3 53/5/3 55/5/3 
f 55/5/3 56/44/3 54/43/3 
f 56/44/3 55/5/3 57/5/3 
f 57/5/3 58/45/3 56/44/3 
f 58/45/3 57/5/3 8/5/3 
f 8/5/3 7/7/3 58/45/3 
f 28/26/4 59/8/4 60/8/4 
f 60/8/4 29/27/4 28/26/4 
f 29/27/4 60/8/4 61/8/4 
f 61/8/4 31/29/4 29/27/4 
f 31/29/4 61/8/4 62/8/4 
f 62/8/4 33/31/4 31/29/4 
f 33/31/4 62/8/4 63/8/4 
f 63/8/4 35/33/4 33/31/4 
f 35/33/4 63/8/4 64/8/4 
f 64/8/4 4/4/4 35/33/4 
f 4/4/4 64/8/4 9/8/4 
f 9/8/4 1/1/4 4/4/4 
f 65/8/4 17/15/4 20/18/4 
f 20/18/4 66/8/4 65/8/4 
f 66/8/4 20/18/4 22/20/4 
f 22/20/4 67/8/4 66/8/4 
f 67/8/4 22/20/4 24/22/4 
f 24/22/4 68/8/4 67/8/4 
f 68/8/4 24/22/4 26/24/4 
f 26/24/4 69/8/4 68/8/4 
f 69/8/4 26/24/4 11/9/4 
f 11/9/4 10/8/4 69/8/4 
s 1
f 70/46/2 71/47/2 72/48/2 
f 72/48/2 73/49/2 70/46/2 
f 73/49/2 72/48/2 74/50/2 
f 74/50/2 75/51/2 73/49/2 
f 75/51/2 74/50/2 76/52/2 
f 76/52/2 77/53/2 75/51/2 
f 77/53/2 76/52/2 78/54/2 
f 78/54/2 79/55/2 77/53/2 
f 79/55/2 78/54/2 80/56/2 
f 80/56/2 81/57/2 79/55/2 
f 81/57/2 80/56/2 13/11/2 
f 13/11/2 12/10/2 81/57/2 
f 82/58/2 83/59/2 84/60/2 
f 84/60/2 85/61/2 82/58/2 
f 85/61/2 84/60/2 86/62/2 
f 86/62/2 87/63/2 85/61/2 
f 87/63/2 86/62/2 88/64/2 
f 88/64/2 89/65/2 87/63/2 
f 89/65/2 88/64/2 90/66/2 
f 90/66/2 91/67/2 89/65/2 
f 91/67/2 90/66/2 15/13/2 
f 15/13/2 14/12/2 91/67/2 
f 38/35/1 70/46/2 73/49/2 
f 73/49/2 39/36/1 38/35/1 
f 39/36/1 73/49/2 75/51/2 
f 75/51/2 41/37/1 39/36/1 
f 41/37/1 75/51/2 77/53/2 
f 77/53/2 43/38/1 41/37/1 
f 43/38/1 77/53/2 79/55/2 
f 79/55/2 45/39/1 43/38/1 
f 45/39/1 79/55/2 81/57/2 
f 81/57/2 47/40/1 45/39/1 
f 47/40/1 81/57/2 12/10/2 
f 12/10/2 6/6/1 47/40/1 
f 83/59/2 49/41/1 52/42/1 
f 52/42/1 84/60/2 83/59/2 
f 84/60/2 52/42/1 54/43/1 
f 54/43/1 86/62/2 84/60/2 
f 86/62/2 54/43/1 56/44/1 
f 56/44/1 88/64/2 86/62/2 
f 88/64/2 56/44/1 58/45/1 
f 58/45/1 90/66/2 88/64/2 
f 90/66/2 58/45/1 7/7/1 
f 7/7/1 15/13/2 90/66/2 
f 71/47/2 27/25/2 30/28/2 
f 30/28/2 72/48/2 71/47/2 
f 72/48/2 30/28/2 32/30/2 
f 32/30/2 74/50/2 72/48/2 
f 74/50/2 32/30/2 34/32/2 
f 34/32/2 76/52/2 74/50/2 
f 76/52/2 34/32/2 36/34/2 
f 36/34/2 78/54/2 76/52/2 
f 78/54/2 36/34/2 3/3/2 
f 3/3/2 80/56/2 78/54/2 
f 80/56/2 3/3/2 2/2/2 
f 2/2/2 13/11/2 80/56/2 
f 18/16/2 82/58/2 85/61/2 
f 85/61/2 19/17/2 18/16/2 
f 19/17/2 85/61/2 87/63/2 
f 87/63/2 21/19/2 19/17/2 
f 21/19/2 87/63/2 89/65/2 
f 89/65/2 23/21/2 21/19/2 
f 23/21/2 89/65/2 91/67/2 
f 91/67/2 25/23/2 23/21/2 
f 25/23/2 91/67/2 14/12/2 
f 14/12/2 16/14/2 25/23/2 
# 144 faces

