# 3ds Max Wavefront OBJ Exporter v0.97b - (c)2007 guruware
# File Created: 03.04.2016 01:10:28

#
# object Plane004
#

v  -3.0000 0.1500 32.0000
v  -1.1250 0.1500 32.0000
v  -1.1250 0.1500 16.0000
v  -3.0000 0.1500 16.0000
v  -1.1250 0.1500 -0.0000
v  -3.0000 0.1500 -0.0000
v  -1.1250 0.1500 -16.0000
v  -3.0000 0.1500 -16.0000
v  -1.1250 0.1500 -32.0000
v  -3.0000 0.1500 -32.0000
v  0.0000 0.1500 32.0000
v  0.0000 0.1500 16.0000
v  0.0000 0.1500 -0.0000
v  0.0000 0.1500 -16.0000
v  0.0000 0.1500 -32.0000
v  3.0000 0.1500 32.0000
v  3.0000 0.1500 16.0000
v  1.1250 0.1500 16.0000
v  1.1250 0.1500 32.0000
v  3.0000 0.1500 -0.0000
v  1.1250 0.1500 -0.0000
v  3.0000 0.1500 -16.0000
v  1.1250 0.1500 -16.0000
v  3.0000 0.1500 -32.0000
v  1.1250 0.1500 -32.0000
# 25 vertices

vn 0.0000 1.0000 -0.0000
# 1 vertex normals

vt 0.6224 0.0060 0.0000
vt 0.8565 0.0060 0.0000
vt 0.7822 0.2527 0.0000
vt 0.5615 0.2527 0.0000
vt 0.7319 0.5045 0.0000
vt 0.5219 0.5045 0.0000
vt 0.6784 0.7441 0.0000
vt 0.4684 0.7441 0.0000
vt 0.6330 0.9955 0.0000
vt 0.4230 0.9955 0.0000
vt 0.9825 0.0060 0.0000
vt 0.9083 0.2527 0.0000
vt 0.8580 0.5045 0.0000
vt 0.8044 0.7441 0.0000
vt 0.7591 0.9955 0.0000
vt 1.0833 0.0060 0.0000
vt 1.0771 0.2568 0.0000
vt 0.8859 0.2527 0.0000
vt 0.8904 0.0060 0.0000
vt 1.1616 0.5045 0.0000
vt 0.8901 0.5179 0.0000
vt 1.1637 0.7441 0.0000
vt 0.8858 0.7575 0.0000
vt 1.1184 0.9955 0.0000
vt 0.8753 0.9955 0.0000
vt 0.9961 0.0060 0.0000
vt 0.9916 0.2527 0.0000
vt 0.9314 0.2527 0.0000
vt 0.9857 0.0060 0.0000
vt 0.9927 0.5045 0.0000
vt 0.8811 0.5045 0.0000
vt 0.9536 0.7441 0.0000
vt 0.8276 0.7441 0.0000
vt 0.9083 0.9955 0.0000
vt 0.7822 0.9955 0.0000
# 35 texture coords

g Plane004
s 1
f 1/1/1 2/2/1 3/3/1 
f 3/3/1 4/4/1 1/1/1 
f 4/4/1 3/3/1 5/5/1 
f 5/5/1 6/6/1 4/4/1 
f 6/6/1 5/5/1 7/7/1 
f 7/7/1 8/8/1 6/6/1 
f 8/8/1 7/7/1 9/9/1 
f 9/9/1 10/10/1 8/8/1 
f 11/11/1 12/12/1 3/3/1 
f 3/3/1 2/2/1 11/11/1 
f 12/12/1 13/13/1 5/5/1 
f 5/5/1 3/3/1 12/12/1 
f 13/13/1 14/14/1 7/7/1 
f 7/7/1 5/5/1 13/13/1 
f 14/14/1 15/15/1 9/9/1 
f 9/9/1 7/7/1 14/14/1 
f 16/16/1 17/17/1 18/18/1 
f 18/18/1 19/19/1 16/16/1 
f 17/17/1 20/20/1 21/21/1 
f 21/21/1 18/18/1 17/17/1 
f 20/20/1 22/22/1 23/23/1 
f 23/23/1 21/21/1 20/20/1 
f 22/22/1 24/24/1 25/25/1 
f 25/25/1 23/23/1 22/22/1 
f 19/26/1 18/27/1 12/28/1 
f 12/28/1 11/29/1 19/26/1 
f 18/27/1 21/30/1 13/31/1 
f 13/31/1 12/28/1 18/27/1 
f 21/30/1 23/32/1 14/33/1 
f 14/33/1 13/31/1 21/30/1 
f 23/32/1 25/34/1 15/35/1 
f 15/35/1 14/33/1 23/32/1 
# 32 faces

