# 3ds Max Wavefront OBJ Exporter v0.97b - (c)2007 guruware
# File Created: 15.03.2016 23:40:09

#
# object Plane001_0
#

v  0.0000 4.1000 0.0000
v  0.0000 6.1000 0.0000
v  0.0000 4.1000 32.0000
v  0.0000 6.1000 32.0000
v  0.0000 6.1000 -32.0000
v  0.0000 4.1000 -32.0000
v  0.0000 4.8200 0.0000
v  0.0000 6.8200 0.0000
v  0.0000 4.8200 32.0000
v  0.0000 6.8200 32.0000
v  0.0000 6.8200 -32.0000
v  0.0000 4.8200 -32.0000
# 12 vertices

vn 1.0000 0.0000 0.0000
vn 1.0000 0.0000 0.0000
vn 1.0000 0.0000 0.0000
vn 1.0000 0.0000 0.0000
vn 1.0000 0.0000 0.0000
vn 1.0000 0.0000 0.0000
vn 1.0000 0.0000 0.0000
vn 1.0000 0.0000 0.0000
vn 1.0000 0.0000 0.0000
vn 1.0000 0.0000 0.0000
vn 1.0000 0.0000 0.0000
vn 1.0000 0.0000 0.0000
vn 1.0000 0.0000 0.0000
vn 1.0000 0.0000 0.0000
vn 1.0000 0.0000 0.0000
vn 1.0000 0.0000 0.0000
vn 1.0000 0.0000 0.0000
vn 1.0000 0.0000 0.0000
vn 1.0000 0.0000 0.0000
vn 1.0000 0.0000 0.0000
vn 1.0000 0.0000 0.0000
vn 1.0000 0.0000 0.0000
vn 1.0000 0.0000 0.0000
vn 1.0000 0.0000 0.0000
# 24 vertex normals

vt 0.0000 -1.0000 0.0000
vt 0.0000 1.0000 0.0000
vt 1.0000 -1.0000 0.0000
vt 1.0000 1.0000 0.0000
vt -1.0000 1.0000 0.0000
vt -1.0000 -1.0000 0.0000
vt 0.0000 -1.0000 0.0000
vt 0.0000 1.0000 0.0000
vt 1.0000 -1.0000 0.0000
vt 1.0000 1.0000 0.0000
vt -1.0000 1.0000 0.0000
vt -1.0000 -1.0000 0.0000
vt 0.0000 -1.0000 0.0000
vt 0.0000 1.0000 0.0000
vt 1.0000 -1.0000 0.0000
vt 1.0000 1.0000 0.0000
vt -1.0000 1.0000 0.0000
vt -1.0000 -1.0000 0.0000
vt 0.0000 -1.0000 0.0000
vt 0.0000 1.0000 0.0000
vt 1.0000 -1.0000 0.0000
vt 1.0000 1.0000 0.0000
vt -1.0000 1.0000 0.0000
vt -1.0000 -1.0000 0.0000
# 24 texture coords

g Plane001_0
s 1
f 1/1/1 2/2/2 3/3/3 
f 4/4/4 3/3/5 2/2/6 
f 2/2/7 1/1/8 5/5/9 
f 6/6/10 5/5/11 1/1/12 
f 7/13/13 8/14/14 9/15/15 
f 10/16/16 9/15/17 8/14/18 
f 8/14/19 7/13/20 11/17/21 
f 12/18/22 11/17/23 7/13/24 
# 8 faces

