# 3ds Max Wavefront OBJ Exporter v0.97b - (c)2007 guruware
# File Created: 07.04.2016 20:17:46

#
# object Plane005
#

v  -2.0000 1.0000 -0.0000
v  -4.0000 1.0000 -0.0000
v  -4.0000 1.0000 5.3250
v  -2.0000 1.0000 5.3250
v  2.0000 0.0000 -0.0000
v  -2.0000 0.0000 -0.0000
v  -2.0000 0.0000 5.3333
v  2.0000 0.0000 5.3333
v  2.0000 1.0000 -0.0000
v  4.0000 1.0000 -0.0000
v  4.0000 1.0000 -5.3250
v  2.0000 1.0000 -5.3250
v  -4.0000 0.0000 -0.0000
v  -4.0000 0.0000 5.3333
v  -4.0000 0.0000 32.0000
v  -2.0000 0.0000 32.0000
v  -2.0000 1.0000 31.9500
v  -4.0000 1.0000 31.9500
v  -2.0000 0.0000 -5.3333
v  -2.0000 1.0000 -5.3250
v  -2.0000 0.0000 -32.0000
v  -4.0000 0.0000 -32.0000
v  -4.0000 1.0000 -31.9500
v  -2.0000 1.0000 -31.9500
v  4.0000 0.0000 -0.0000
v  4.0000 0.0000 -5.3333
v  4.0000 0.0000 -32.0000
v  2.0000 0.0000 -32.0000
v  2.0000 1.0000 -31.9500
v  4.0000 1.0000 -31.9500
v  2.0000 1.0000 5.3250
v  2.0000 0.0000 32.0000
v  4.0000 0.0000 32.0000
v  4.0000 1.0000 31.9500
v  2.0000 1.0000 31.9500
v  -4.0000 1.0000 -26.6250
v  -2.0000 1.0000 -26.6250
v  -4.0000 1.0000 -21.3000
v  -2.0000 1.0000 -21.3000
v  -4.0000 1.0000 -15.9750
v  -2.0000 1.0000 -15.9750
v  -4.0000 1.0000 -10.6500
v  -2.0000 1.0000 -10.6500
v  -4.0000 1.0000 -5.3250
v  -2.0000 1.0000 26.6250
v  -4.0000 1.0000 26.6250
v  -2.0000 1.0000 21.3000
v  -4.0000 1.0000 21.3000
v  -2.0000 1.0000 15.9750
v  -4.0000 1.0000 15.9750
v  -2.0000 1.0000 10.6500
v  -4.0000 1.0000 10.6500
v  -2.0000 0.0000 -26.6667
v  2.0000 0.0000 -26.6667
v  -2.0000 0.0000 -21.3333
v  2.0000 0.0000 -21.3333
v  -2.0000 0.0000 -16.0000
v  2.0000 0.0000 -16.0000
v  -2.0000 0.0000 -10.6667
v  2.0000 0.0000 -10.6667
v  2.0000 0.0000 -5.3333
v  2.0000 0.0000 26.6667
v  -2.0000 0.0000 26.6667
v  2.0000 0.0000 21.3333
v  -2.0000 0.0000 21.3333
v  2.0000 0.0000 16.0000
v  -2.0000 0.0000 16.0000
v  2.0000 0.0000 10.6667
v  -2.0000 0.0000 10.6667
v  4.0000 1.0000 26.6250
v  2.0000 1.0000 26.6250
v  4.0000 1.0000 21.3000
v  2.0000 1.0000 21.3000
v  4.0000 1.0000 15.9750
v  2.0000 1.0000 15.9750
v  4.0000 1.0000 10.6500
v  2.0000 1.0000 10.6500
v  4.0000 1.0000 5.3250
v  2.0000 1.0000 -26.6250
v  4.0000 1.0000 -26.6250
v  2.0000 1.0000 -21.3000
v  4.0000 1.0000 -21.3000
v  2.0000 1.0000 -15.9750
v  4.0000 1.0000 -15.9750
v  2.0000 1.0000 -10.6500
v  4.0000 1.0000 -10.6500
v  -4.0000 0.0000 -26.6667
v  -4.0000 0.0000 -21.3333
v  -4.0000 0.0000 -16.0000
v  -4.0000 0.0000 -10.6667
v  -4.0000 0.0000 -5.3333
v  -4.0000 0.0000 26.6667
v  -4.0000 0.0000 21.3333
v  -4.0000 0.0000 16.0000
v  -4.0000 0.0000 10.6667
v  4.0000 0.0000 26.6667
v  4.0000 0.0000 21.3333
v  4.0000 0.0000 16.0000
v  4.0000 0.0000 10.6667
v  4.0000 0.0000 5.3333
v  4.0000 0.0000 -26.6667
v  4.0000 0.0000 -21.3333
v  4.0000 0.0000 -16.0000
v  4.0000 0.0000 -10.6667
# 104 vertices

vn 0.0000 1.0000 -0.0000
vn -1.0000 0.0000 -0.0000
vn 0.0000 0.0499 0.9987
vn 1.0000 0.0000 -0.0000
vn 0.0000 0.0499 -0.9987
# 5 vertex normals

vt 0.1135 0.5003 0.0000
vt 0.0782 0.5003 0.0000
vt 0.0783 0.4170 0.0000
vt 0.1136 0.4170 0.0000
vt 0.1318 0.4999 0.0000
vt 0.1320 0.5000 0.0000
vt 0.1320 0.4167 0.0000
vt 0.1318 0.4166 0.0000
vt 0.0785 0.0004 0.0000
vt 0.1138 0.0004 0.0000
vt 0.1135 0.5836 0.0000
vt 0.1133 1.0001 0.0000
vt 0.0780 1.0002 0.0000
vt 0.0780 0.9168 0.0000
vt 0.1133 0.9168 0.0000
vt 0.0781 0.8335 0.0000
vt 0.1134 0.8335 0.0000
vt 0.0781 0.7502 0.0000
vt 0.1134 0.7502 0.0000
vt 0.0781 0.6669 0.0000
vt 0.1135 0.6669 0.0000
vt 0.0782 0.5836 0.0000
vt 0.1137 0.0837 0.0000
vt 0.0784 0.0837 0.0000
vt 0.1137 0.1670 0.0000
vt 0.0784 0.1670 0.0000
vt 0.1137 0.2503 0.0000
vt 0.0784 0.2504 0.0000
vt 0.1136 0.3337 0.0000
vt 0.0783 0.3337 0.0000
vt 0.1316 0.9998 0.0000
vt 0.1320 1.0000 0.0000
vt 0.1320 0.9167 0.0000
vt 0.1316 0.9165 0.0000
vt 0.1320 0.8333 0.0000
vt 0.1316 0.8332 0.0000
vt 0.1320 0.7500 0.0000
vt 0.1317 0.7499 0.0000
vt 0.1320 0.6667 0.0000
vt 0.1317 0.6666 0.0000
vt 0.1320 0.5834 0.0000
vt 0.1317 0.5833 0.0000
vt 0.1320 0.0001 0.0000
vt 0.1320 0.0834 0.0000
vt 0.1319 0.1667 0.0000
vt 0.1320 0.1667 0.0000
vt 0.1319 0.2500 0.0000
vt 0.1320 0.2501 0.0000
vt 0.1319 0.3333 0.0000
vt 0.1320 0.3334 0.0000
# 50 texture coords

g Plane005
s 1
f 1/1/1 2/2/1 3/3/1 
f 3/3/1 4/4/1 1/1/1 
f 5/5/1 6/6/1 7/7/1 
f 7/7/1 8/8/1 5/5/1 
f 9/1/1 10/2/1 11/3/1 
f 11/3/1 12/4/1 9/1/1 
f 2/2/2 13/2/2 14/3/2 
f 14/3/2 3/3/2 2/2/2 
f 15/9/3 16/10/3 17/10/3 
f 17/10/3 18/9/3 15/9/3 
f 1/1/4 6/1/4 19/11/4 
f 19/11/4 20/11/4 1/1/4 
f 21/12/5 22/13/5 23/13/5 
f 23/13/5 24/12/5 21/12/5 
f 10/2/4 25/2/4 26/3/4 
f 26/3/4 11/3/4 10/2/4 
f 27/9/5 28/10/5 29/10/5 
f 29/10/5 30/9/5 27/9/5 
f 9/1/2 5/1/2 8/11/2 
f 8/11/2 31/11/2 9/1/2 
f 32/12/3 33/13/3 34/13/3 
f 34/13/3 35/12/3 32/12/3 
f 24/12/1 23/13/1 36/14/1 
f 36/14/1 37/15/1 24/12/1 
f 37/15/1 36/14/1 38/16/1 
f 38/16/1 39/17/1 37/15/1 
f 39/17/1 38/16/1 40/18/1 
f 40/18/1 41/19/1 39/17/1 
f 41/19/1 40/18/1 42/20/1 
f 42/20/1 43/21/1 41/19/1 
f 43/21/1 42/20/1 44/22/1 
f 44/22/1 20/11/1 43/21/1 
f 20/11/1 44/22/1 2/2/1 
f 2/2/1 1/1/1 20/11/1 
f 18/9/1 17/10/1 45/23/1 
f 45/23/1 46/24/1 18/9/1 
f 46/24/1 45/23/1 47/25/1 
f 47/25/1 48/26/1 46/24/1 
f 48/26/1 47/25/1 49/27/1 
f 49/27/1 50/28/1 48/26/1 
f 50/28/1 49/27/1 51/29/1 
f 51/29/1 52/30/1 50/28/1 
f 52/30/1 51/29/1 4/4/1 
f 4/4/1 3/3/1 52/30/1 
f 28/31/1 21/32/1 53/33/1 
f 53/33/1 54/34/1 28/31/1 
f 54/34/1 53/33/1 55/35/1 
f 55/35/1 56/36/1 54/34/1 
f 56/36/1 55/35/1 57/37/1 
f 57/37/1 58/38/1 56/36/1 
f 58/38/1 57/37/1 59/39/1 
f 59/39/1 60/40/1 58/38/1 
f 60/40/1 59/39/1 19/41/1 
f 19/41/1 61/42/1 60/40/1 
f 61/42/1 19/41/1 6/6/1 
f 6/6/1 5/5/1 61/42/1 
f 16/43/1 32/43/1 62/44/1 
f 62/44/1 63/44/1 16/43/1 
f 63/44/1 62/44/1 64/45/1 
f 64/45/1 65/46/1 63/44/1 
f 65/46/1 64/45/1 66/47/1 
f 66/47/1 67/48/1 65/46/1 
f 67/48/1 66/47/1 68/49/1 
f 68/49/1 69/50/1 67/48/1 
f 69/50/1 68/49/1 8/8/1 
f 8/8/1 7/7/1 69/50/1 
f 35/12/1 34/13/1 70/14/1 
f 70/14/1 71/15/1 35/12/1 
f 71/15/1 70/14/1 72/16/1 
f 72/16/1 73/17/1 71/15/1 
f 73/17/1 72/16/1 74/18/1 
f 74/18/1 75/19/1 73/17/1 
f 75/19/1 74/18/1 76/20/1 
f 76/20/1 77/21/1 75/19/1 
f 77/21/1 76/20/1 78/22/1 
f 78/22/1 31/11/1 77/21/1 
f 31/11/1 78/22/1 10/2/1 
f 10/2/1 9/1/1 31/11/1 
f 30/9/1 29/10/1 79/23/1 
f 79/23/1 80/24/1 30/9/1 
f 80/24/1 79/23/1 81/25/1 
f 81/25/1 82/26/1 80/24/1 
f 82/26/1 81/25/1 83/27/1 
f 83/27/1 84/28/1 82/26/1 
f 84/28/1 83/27/1 85/29/1 
f 85/29/1 86/30/1 84/28/1 
f 86/30/1 85/29/1 12/4/1 
f 12/4/1 11/3/1 86/30/1 
f 23/13/2 22/13/2 87/14/2 
f 87/14/2 36/14/2 23/13/2 
f 36/14/2 87/14/2 88/16/2 
f 88/16/2 38/16/2 36/14/2 
f 38/16/2 88/16/2 89/18/2 
f 89/18/2 40/18/2 38/16/2 
f 40/18/2 89/18/2 90/20/2 
f 90/20/2 42/20/2 40/18/2 
f 42/20/2 90/20/2 91/22/2 
f 91/22/2 44/22/2 42/20/2 
f 44/22/2 91/22/2 13/2/2 
f 13/2/2 2/2/2 44/22/2 
f 92/24/2 15/9/2 18/9/2 
f 18/9/2 46/24/2 92/24/2 
f 93/26/2 92/24/2 46/24/2 
f 46/24/2 48/26/2 93/26/2 
f 94/28/2 93/26/2 48/26/2 
f 48/26/2 50/28/2 94/28/2 
f 95/30/2 94/28/2 50/28/2 
f 50/28/2 52/30/2 95/30/2 
f 95/30/2 52/30/2 3/3/2 
f 3/3/2 14/3/2 95/30/2 
f 17/10/4 16/10/4 63/23/4 
f 63/23/4 45/23/4 17/10/4 
f 45/23/4 63/23/4 65/25/4 
f 65/25/4 47/25/4 45/23/4 
f 47/25/4 65/25/4 67/27/4 
f 67/27/4 49/27/4 47/25/4 
f 49/27/4 67/27/4 69/29/4 
f 69/29/4 51/29/4 49/27/4 
f 51/29/4 69/29/4 7/4/4 
f 7/4/4 4/4/4 51/29/4 
f 4/4/4 7/4/4 6/1/4 
f 6/1/4 1/1/4 4/4/4 
f 53/15/4 21/12/4 24/12/4 
f 24/12/4 37/15/4 53/15/4 
f 55/17/4 53/15/4 37/15/4 
f 37/15/4 39/17/4 55/17/4 
f 57/19/4 55/17/4 39/17/4 
f 39/17/4 41/19/4 57/19/4 
f 59/21/4 57/19/4 41/19/4 
f 41/19/4 43/21/4 59/21/4 
f 59/21/4 43/21/4 20/11/4 
f 20/11/4 19/11/4 59/21/4 
f 34/13/4 33/13/4 96/14/4 
f 96/14/4 70/14/4 34/13/4 
f 70/14/4 96/14/4 97/16/4 
f 97/16/4 72/16/4 70/14/4 
f 72/16/4 97/16/4 98/18/4 
f 98/18/4 74/18/4 72/16/4 
f 74/18/4 98/18/4 99/20/4 
f 99/20/4 76/20/4 74/18/4 
f 76/20/4 99/20/4 100/22/4 
f 100/22/4 78/22/4 76/20/4 
f 78/22/4 100/22/4 25/2/4 
f 25/2/4 10/2/4 78/22/4 
f 101/24/4 27/9/4 30/9/4 
f 30/9/4 80/24/4 101/24/4 
f 102/26/4 101/24/4 80/24/4 
f 80/24/4 82/26/4 102/26/4 
f 103/28/4 102/26/4 82/26/4 
f 82/26/4 84/28/4 103/28/4 
f 104/30/4 103/28/4 84/28/4 
f 84/28/4 86/30/4 104/30/4 
f 104/30/4 86/30/4 11/3/4 
f 11/3/4 26/3/4 104/30/4 
f 29/10/2 28/10/2 54/23/2 
f 54/23/2 79/23/2 29/10/2 
f 79/23/2 54/23/2 56/25/2 
f 56/25/2 81/25/2 79/23/2 
f 81/25/2 56/25/2 58/27/2 
f 58/27/2 83/27/2 81/25/2 
f 83/27/2 58/27/2 60/29/2 
f 60/29/2 85/29/2 83/27/2 
f 85/29/2 60/29/2 61/4/2 
f 61/4/2 12/4/2 85/29/2 
f 12/4/2 61/4/2 5/1/2 
f 5/1/2 9/1/2 12/4/2 
f 62/15/2 32/12/2 35/12/2 
f 35/12/2 71/15/2 62/15/2 
f 64/17/2 62/15/2 71/15/2 
f 71/15/2 73/17/2 64/17/2 
f 66/19/2 64/17/2 73/17/2 
f 73/17/2 75/19/2 66/19/2 
f 68/21/2 66/19/2 75/19/2 
f 75/19/2 77/21/2 68/21/2 
f 68/21/2 77/21/2 31/11/2 
f 31/11/2 8/11/2 68/21/2 
# 176 faces

