# 3ds Max Wavefront OBJ Exporter v0.97b - (c)2007 guruware
# File Created: 07.04.2016 20:21:30

#
# object Plane005
#

v  -2.0000 1.0000 -0.0000
v  -4.0000 1.0000 -0.0000
v  -4.0000 1.0000 5.3250
v  -2.0000 1.0000 5.3250
v  0.0000 0.0000 -0.0000
v  0.0000 0.0000 5.3333
v  2.0000 0.0000 5.3333
v  2.0000 0.0000 -0.0000
v  2.0000 1.0000 -0.0000
v  4.0000 1.0000 -0.0000
v  4.0000 1.0000 -5.3250
v  2.0000 1.0000 -5.3250
v  -4.0000 0.0000 -0.0000
v  -4.0000 0.0000 5.3333
v  -4.0000 0.0000 32.0000
v  -2.0000 0.0000 32.0000
v  -2.0000 1.0000 31.9500
v  -4.0000 1.0000 31.9500
v  -2.0000 0.0000 -0.0000
v  -2.0000 0.0000 -5.3333
v  -2.0000 1.0000 -5.3250
v  -2.0000 0.0000 -32.0000
v  -4.0000 0.0000 -32.0000
v  -4.0000 1.0000 -31.9500
v  -2.0000 1.0000 -31.9500
v  4.0000 0.0000 -0.0000
v  4.0000 0.0000 -5.3333
v  4.0000 0.0000 -32.0000
v  2.0000 0.0000 -32.0000
v  2.0000 1.0000 -31.9500
v  4.0000 1.0000 -31.9500
v  2.0000 1.0000 5.3250
v  2.0000 0.0000 32.0000
v  4.0000 0.0000 32.0000
v  4.0000 1.0000 31.9500
v  2.0000 1.0000 31.9500
v  -4.0000 1.0000 -26.6250
v  -2.0000 1.0000 -26.6250
v  -4.0000 1.0000 -21.3000
v  -2.0000 1.0000 -21.3000
v  -4.0000 1.0000 -15.9750
v  -2.0000 1.0000 -15.9750
v  -4.0000 1.0000 -10.6500
v  -2.0000 1.0000 -10.6500
v  -4.0000 1.0000 -5.3250
v  -2.0000 1.0000 26.6250
v  -4.0000 1.0000 26.6250
v  -2.0000 1.0000 21.3000
v  -4.0000 1.0000 21.3000
v  -2.0000 1.0000 15.9750
v  -4.0000 1.0000 15.9750
v  -2.0000 1.0000 10.6500
v  -4.0000 1.0000 10.6500
v  0.0000 0.0000 -32.0000
v  0.0000 0.0000 -26.6667
v  2.0000 0.0000 -26.6667
v  0.0000 0.0000 -21.3333
v  2.0000 0.0000 -21.3333
v  0.0000 0.0000 -16.0000
v  2.0000 0.0000 -16.0000
v  0.0000 0.0000 -10.6667
v  2.0000 0.0000 -10.6667
v  0.0000 0.0000 -5.3333
v  2.0000 0.0000 -5.3333
v  0.0000 0.0000 32.0000
v  0.0000 0.0000 26.6667
v  -2.0000 0.0000 26.6667
v  0.0000 0.0000 21.3333
v  -2.0000 0.0000 21.3333
v  0.0000 0.0000 16.0000
v  -2.0000 0.0000 16.0000
v  0.0000 0.0000 10.6667
v  -2.0000 0.0000 10.6667
v  -2.0000 0.0000 5.3333
v  4.0000 1.0000 26.6250
v  2.0000 1.0000 26.6250
v  4.0000 1.0000 21.3000
v  2.0000 1.0000 21.3000
v  4.0000 1.0000 15.9750
v  2.0000 1.0000 15.9750
v  4.0000 1.0000 10.6500
v  2.0000 1.0000 10.6500
v  4.0000 1.0000 5.3250
v  2.0000 1.0000 -26.6250
v  4.0000 1.0000 -26.6250
v  2.0000 1.0000 -21.3000
v  4.0000 1.0000 -21.3000
v  2.0000 1.0000 -15.9750
v  4.0000 1.0000 -15.9750
v  2.0000 1.0000 -10.6500
v  4.0000 1.0000 -10.6500
v  -4.0000 0.0000 -26.6667
v  -4.0000 0.0000 -21.3333
v  -4.0000 0.0000 -16.0000
v  -4.0000 0.0000 -10.6667
v  -4.0000 0.0000 -5.3333
v  -4.0000 0.0000 26.6667
v  -4.0000 0.0000 21.3333
v  -4.0000 0.0000 16.0000
v  -4.0000 0.0000 10.6667
v  -2.0000 0.0000 -26.6667
v  -2.0000 0.0000 -21.3333
v  -2.0000 0.0000 -16.0000
v  -2.0000 0.0000 -10.6667
v  4.0000 0.0000 26.6667
v  4.0000 0.0000 21.3333
v  4.0000 0.0000 16.0000
v  4.0000 0.0000 10.6667
v  4.0000 0.0000 5.3333
v  4.0000 0.0000 -26.6667
v  4.0000 0.0000 -21.3333
v  4.0000 0.0000 -16.0000
v  4.0000 0.0000 -10.6667
v  2.0000 0.0000 26.6667
v  2.0000 0.0000 21.3333
v  2.0000 0.0000 16.0000
v  2.0000 0.0000 10.6667
# 117 vertices

vn 0.0000 1.0000 -0.0000
vn -1.0000 0.0000 -0.0000
vn 0.0000 0.0499 0.9987
vn 1.0000 0.0000 -0.0000
vn 0.0000 0.0499 -0.9987
# 5 vertex normals

vt 0.1135 0.5003 0.0000
vt 0.0782 0.5003 0.0000
vt 0.0783 0.4170 0.0000
vt 0.1136 0.4170 0.0000
vt 0.1319 0.5000 0.0000
vt 0.1319 0.4167 0.0000
vt 0.1318 0.4166 0.0000
vt 0.1318 0.4999 0.0000
vt 0.0785 0.0004 0.0000
vt 0.1138 0.0004 0.0000
vt 0.1135 0.5836 0.0000
vt 0.1133 1.0001 0.0000
vt 0.0780 1.0002 0.0000
vt 0.0780 0.9168 0.0000
vt 0.1133 0.9168 0.0000
vt 0.0781 0.8335 0.0000
vt 0.1134 0.8335 0.0000
vt 0.0781 0.7502 0.0000
vt 0.1134 0.7502 0.0000
vt 0.0781 0.6669 0.0000
vt 0.1135 0.6669 0.0000
vt 0.0782 0.5836 0.0000
vt 0.1137 0.0837 0.0000
vt 0.0784 0.0837 0.0000
vt 0.1137 0.1670 0.0000
vt 0.0784 0.1670 0.0000
vt 0.1137 0.2503 0.0000
vt 0.0784 0.2504 0.0000
vt 0.1136 0.3337 0.0000
vt 0.0783 0.3337 0.0000
vt 0.1318 0.9999 0.0000
vt 0.1318 0.9166 0.0000
vt 0.1316 0.9165 0.0000
vt 0.1316 0.9998 0.0000
vt 0.1318 0.8333 0.0000
vt 0.1316 0.8332 0.0000
vt 0.1318 0.7500 0.0000
vt 0.1317 0.7499 0.0000
vt 0.1319 0.6666 0.0000
vt 0.1317 0.6666 0.0000
vt 0.1319 0.5833 0.0000
vt 0.1317 0.5833 0.0000
vt 0.1320 0.0001 0.0000
vt 0.1320 0.0834 0.0000
vt 0.1320 0.1667 0.0000
vt 0.1319 0.2500 0.0000
vt 0.1320 0.2501 0.0000
vt 0.1319 0.3334 0.0000
vt 0.1320 0.3334 0.0000
vt 0.1320 0.4167 0.0000
vt 0.1320 0.5000 0.0000
vt 0.1320 1.0000 0.0000
vt 0.1320 0.9167 0.0000
vt 0.1320 0.8333 0.0000
vt 0.1320 0.7500 0.0000
vt 0.1320 0.6667 0.0000
vt 0.1320 0.5834 0.0000
vt 0.1319 0.1667 0.0000
vt 0.1319 0.3333 0.0000
# 59 texture coords

g Plane005
s 1
f 1/1/1 2/2/1 3/3/1 
f 3/3/1 4/4/1 1/1/1 
f 5/5/1 6/6/1 7/7/1 
f 7/7/1 8/8/1 5/5/1 
f 9/1/1 10/2/1 11/3/1 
f 11/3/1 12/4/1 9/1/1 
f 2/2/2 13/2/2 14/3/2 
f 14/3/2 3/3/2 2/2/2 
f 15/9/3 16/10/3 17/10/3 
f 17/10/3 18/9/3 15/9/3 
f 1/1/4 19/1/4 20/11/4 
f 20/11/4 21/11/4 1/1/4 
f 22/12/5 23/13/5 24/13/5 
f 24/13/5 25/12/5 22/12/5 
f 10/2/4 26/2/4 27/3/4 
f 27/3/4 11/3/4 10/2/4 
f 28/9/5 29/10/5 30/10/5 
f 30/10/5 31/9/5 28/9/5 
f 9/1/2 8/1/2 7/11/2 
f 7/11/2 32/11/2 9/1/2 
f 33/12/3 34/13/3 35/13/3 
f 35/13/3 36/12/3 33/12/3 
f 25/12/1 24/13/1 37/14/1 
f 37/14/1 38/15/1 25/12/1 
f 38/15/1 37/14/1 39/16/1 
f 39/16/1 40/17/1 38/15/1 
f 40/17/1 39/16/1 41/18/1 
f 41/18/1 42/19/1 40/17/1 
f 42/19/1 41/18/1 43/20/1 
f 43/20/1 44/21/1 42/19/1 
f 44/21/1 43/20/1 45/22/1 
f 45/22/1 21/11/1 44/21/1 
f 21/11/1 45/22/1 2/2/1 
f 2/2/1 1/1/1 21/11/1 
f 18/9/1 17/10/1 46/23/1 
f 46/23/1 47/24/1 18/9/1 
f 47/24/1 46/23/1 48/25/1 
f 48/25/1 49/26/1 47/24/1 
f 49/26/1 48/25/1 50/27/1 
f 50/27/1 51/28/1 49/26/1 
f 51/28/1 50/27/1 52/29/1 
f 52/29/1 53/30/1 51/28/1 
f 53/30/1 52/29/1 4/4/1 
f 4/4/1 3/3/1 53/30/1 
f 54/31/1 55/32/1 56/33/1 
f 56/33/1 29/34/1 54/31/1 
f 55/32/1 57/35/1 58/36/1 
f 58/36/1 56/33/1 55/32/1 
f 57/35/1 59/37/1 60/38/1 
f 60/38/1 58/36/1 57/35/1 
f 59/37/1 61/39/1 62/40/1 
f 62/40/1 60/38/1 59/37/1 
f 61/39/1 63/41/1 64/42/1 
f 64/42/1 62/40/1 61/39/1 
f 63/41/1 5/5/1 8/8/1 
f 8/8/1 64/42/1 63/41/1 
f 65/43/1 66/44/1 67/44/1 
f 67/44/1 16/43/1 65/43/1 
f 66/44/1 68/45/1 69/45/1 
f 69/45/1 67/44/1 66/44/1 
f 68/45/1 70/46/1 71/47/1 
f 71/47/1 69/45/1 68/45/1 
f 70/46/1 72/48/1 73/49/1 
f 73/49/1 71/47/1 70/46/1 
f 72/48/1 6/6/1 74/50/1 
f 74/50/1 73/49/1 72/48/1 
f 36/12/1 35/13/1 75/14/1 
f 75/14/1 76/15/1 36/12/1 
f 76/15/1 75/14/1 77/16/1 
f 77/16/1 78/17/1 76/15/1 
f 78/17/1 77/16/1 79/18/1 
f 79/18/1 80/19/1 78/17/1 
f 80/19/1 79/18/1 81/20/1 
f 81/20/1 82/21/1 80/19/1 
f 82/21/1 81/20/1 83/22/1 
f 83/22/1 32/11/1 82/21/1 
f 32/11/1 83/22/1 10/2/1 
f 10/2/1 9/1/1 32/11/1 
f 31/9/1 30/10/1 84/23/1 
f 84/23/1 85/24/1 31/9/1 
f 85/24/1 84/23/1 86/25/1 
f 86/25/1 87/26/1 85/24/1 
f 87/26/1 86/25/1 88/27/1 
f 88/27/1 89/28/1 87/26/1 
f 89/28/1 88/27/1 90/29/1 
f 90/29/1 91/30/1 89/28/1 
f 91/30/1 90/29/1 12/4/1 
f 12/4/1 11/3/1 91/30/1 
f 24/13/2 23/13/2 92/14/2 
f 92/14/2 37/14/2 24/13/2 
f 37/14/2 92/14/2 93/16/2 
f 93/16/2 39/16/2 37/14/2 
f 39/16/2 93/16/2 94/18/2 
f 94/18/2 41/18/2 39/16/2 
f 41/18/2 94/18/2 95/20/2 
f 95/20/2 43/20/2 41/18/2 
f 43/20/2 95/20/2 96/22/2 
f 96/22/2 45/22/2 43/20/2 
f 45/22/2 96/22/2 13/2/2 
f 13/2/2 2/2/2 45/22/2 
f 97/24/2 15/9/2 18/9/2 
f 18/9/2 47/24/2 97/24/2 
f 98/26/2 97/24/2 47/24/2 
f 47/24/2 49/26/2 98/26/2 
f 99/28/2 98/26/2 49/26/2 
f 49/26/2 51/28/2 99/28/2 
f 100/30/2 99/28/2 51/28/2 
f 51/28/2 53/30/2 100/30/2 
f 100/30/2 53/30/2 3/3/2 
f 3/3/2 14/3/2 100/30/2 
f 17/10/4 16/10/4 67/23/4 
f 67/23/4 46/23/4 17/10/4 
f 46/23/4 67/23/4 69/25/4 
f 69/25/4 48/25/4 46/23/4 
f 48/25/4 69/25/4 71/27/4 
f 71/27/4 50/27/4 48/25/4 
f 50/27/4 71/27/4 73/29/4 
f 73/29/4 52/29/4 50/27/4 
f 52/29/4 73/29/4 74/4/4 
f 74/4/4 4/4/4 52/29/4 
f 4/4/4 74/4/4 19/1/4 
f 19/1/4 1/1/4 4/4/4 
f 101/15/4 22/12/4 25/12/4 
f 25/12/4 38/15/4 101/15/4 
f 102/17/4 101/15/4 38/15/4 
f 38/15/4 40/17/4 102/17/4 
f 103/19/4 102/17/4 40/17/4 
f 40/17/4 42/19/4 103/19/4 
f 104/21/4 103/19/4 42/19/4 
f 42/19/4 44/21/4 104/21/4 
f 104/21/4 44/21/4 21/11/4 
f 21/11/4 20/11/4 104/21/4 
f 35/13/4 34/13/4 105/14/4 
f 105/14/4 75/14/4 35/13/4 
f 75/14/4 105/14/4 106/16/4 
f 106/16/4 77/16/4 75/14/4 
f 77/16/4 106/16/4 107/18/4 
f 107/18/4 79/18/4 77/16/4 
f 79/18/4 107/18/4 108/20/4 
f 108/20/4 81/20/4 79/18/4 
f 81/20/4 108/20/4 109/22/4 
f 109/22/4 83/22/4 81/20/4 
f 83/22/4 109/22/4 26/2/4 
f 26/2/4 10/2/4 83/22/4 
f 110/24/4 28/9/4 31/9/4 
f 31/9/4 85/24/4 110/24/4 
f 111/26/4 110/24/4 85/24/4 
f 85/24/4 87/26/4 111/26/4 
f 112/28/4 111/26/4 87/26/4 
f 87/26/4 89/28/4 112/28/4 
f 113/30/4 112/28/4 89/28/4 
f 89/28/4 91/30/4 113/30/4 
f 113/30/4 91/30/4 11/3/4 
f 11/3/4 27/3/4 113/30/4 
f 30/10/2 29/10/2 56/23/2 
f 56/23/2 84/23/2 30/10/2 
f 84/23/2 56/23/2 58/25/2 
f 58/25/2 86/25/2 84/23/2 
f 86/25/2 58/25/2 60/27/2 
f 60/27/2 88/27/2 86/25/2 
f 88/27/2 60/27/2 62/29/2 
f 62/29/2 90/29/2 88/27/2 
f 90/29/2 62/29/2 64/4/2 
f 64/4/2 12/4/2 90/29/2 
f 12/4/2 64/4/2 8/1/2 
f 8/1/2 9/1/2 12/4/2 
f 114/15/2 33/12/2 36/12/2 
f 36/12/2 76/15/2 114/15/2 
f 115/17/2 114/15/2 76/15/2 
f 76/15/2 78/17/2 115/17/2 
f 116/19/2 115/17/2 78/17/2 
f 78/17/2 80/19/2 116/19/2 
f 117/21/2 116/19/2 80/19/2 
f 80/19/2 82/21/2 117/21/2 
f 117/21/2 82/21/2 32/11/2 
f 32/11/2 7/11/2 117/21/2 
f 19/51/1 74/50/1 6/6/1 
f 6/6/1 5/5/1 19/51/1 
f 22/52/1 101/53/1 55/32/1 
f 55/32/1 54/31/1 22/52/1 
f 101/53/1 102/54/1 57/35/1 
f 57/35/1 55/32/1 101/53/1 
f 102/54/1 103/55/1 59/37/1 
f 59/37/1 57/35/1 102/54/1 
f 103/55/1 104/56/1 61/39/1 
f 61/39/1 59/37/1 103/55/1 
f 104/56/1 20/57/1 63/41/1 
f 63/41/1 61/39/1 104/56/1 
f 20/57/1 19/51/1 5/5/1 
f 5/5/1 63/41/1 20/57/1 
f 33/43/1 114/44/1 66/44/1 
f 66/44/1 65/43/1 33/43/1 
f 114/44/1 115/58/1 68/45/1 
f 68/45/1 66/44/1 114/44/1 
f 115/58/1 116/46/1 70/46/1 
f 70/46/1 68/45/1 115/58/1 
f 116/46/1 117/59/1 72/48/1 
f 72/48/1 70/46/1 116/46/1 
f 117/59/1 7/7/1 6/6/1 
f 6/6/1 72/48/1 117/59/1 
# 200 faces

