# 3ds Max Wavefront OBJ Exporter v0.97b - (c)2007 guruware
# File Created: 07.02.2018 20:46:44

#
# object Object005
#

v  -2.5994 -0.0000 0.0000
v  2.5999 -0.0000 -0.0000
v  2.4513 -0.0000 -5.3333
v  -2.4507 -0.0000 -5.3333
v  -2.5994 -0.2950 0.0000
v  -2.4508 -0.2950 -5.3333
v  2.5999 -0.2950 -0.0000
v  2.7485 -0.0000 5.3333
v  2.7485 -0.2950 5.3333
v  -3.2000 0.0000 32.0000
v  3.2000 0.0000 32.0000
v  3.1764 -0.0000 26.6667
v  -3.1763 -0.0000 26.6667
v  3.1110 -0.0000 21.3333
v  -3.1110 -0.0000 21.3333
v  3.0124 -0.0000 16.0000
v  -3.0123 -0.0000 16.0000
v  2.8888 -0.0000 10.6667
v  -2.8885 -0.0000 10.6667
v  -2.7480 -0.0000 5.3333
v  2.0000 -0.0000 -32.0000
v  -2.0000 -0.0000 -32.0000
v  -2.0234 -0.0000 -26.6667
v  2.0236 -0.0000 -26.6667
v  -2.0885 -0.0000 -21.3333
v  2.0889 -0.0000 -21.3333
v  -2.1869 -0.0000 -16.0000
v  2.1875 -0.0000 -16.0000
v  -2.3104 -0.0000 -10.6667
v  2.3111 -0.0000 -10.6667
v  -3.2000 -0.2950 32.0000
v  -3.1764 -0.2950 26.6667
v  -3.1110 -0.2950 21.3333
v  -3.0123 -0.2950 16.0000
v  -2.8886 -0.2950 10.6667
v  -2.7481 -0.2950 5.3333
v  -2.0000 -0.2950 -32.0000
v  -2.0235 -0.2950 -26.6667
v  -2.0885 -0.2950 -21.3333
v  -2.1869 -0.2950 -16.0000
v  -2.3105 -0.2950 -10.6667
v  2.0000 -0.2950 -32.0000
v  2.0236 -0.2950 -26.6667
v  2.0889 -0.2950 -21.3333
v  2.1875 -0.2950 -16.0000
v  2.3111 -0.2950 -10.6667
v  2.4513 -0.2950 -5.3333
v  3.2000 -0.2950 32.0000
v  3.1763 -0.2950 26.6667
v  3.1110 -0.2950 21.3333
v  3.0124 -0.2950 16.0000
v  2.8888 -0.2950 10.6667
v  2.7799 -0.2950 -0.0000
v  2.9285 -0.2950 5.3333
v  2.1800 -0.2950 -32.0000
v  2.2036 -0.2950 -26.6667
v  2.2689 -0.2950 -21.3333
v  2.3675 -0.2950 -16.0000
v  2.4911 -0.2950 -10.6667
v  2.6313 -0.2950 -5.3333
v  3.3563 -0.2950 26.6667
v  3.3800 -0.2950 32.0000
v  3.2910 -0.2950 21.3333
v  3.1923 -0.2950 16.0000
v  3.0687 -0.2950 10.6667
v  -2.7795 -0.2950 0.0000
v  -2.6309 -0.2950 -5.3333
v  -3.3802 -0.2950 32.0000
v  -3.3565 -0.2950 26.6667
v  -3.2912 -0.2950 21.3333
v  -3.1925 -0.2950 16.0000
v  -3.0687 -0.2950 10.6667
v  -2.9282 -0.2950 5.3333
v  -2.2038 -0.2950 -26.6667
v  -2.1804 -0.2950 -32.0000
v  -2.2688 -0.2950 -21.3333
v  -2.3671 -0.2950 -16.0000
v  -2.4906 -0.2950 -10.6667
v  6.5137 -0.2950 32.0001
v  6.5497 -0.2950 26.5826
v  6.3698 -0.2950 26.5828
v  6.3337 -0.2950 32.0001
v  6.6482 -0.2950 21.1309
v  6.4683 -0.2950 21.1312
v  6.7962 -0.2950 15.7258
v  6.6165 -0.2950 15.7262
v  6.9815 -0.2950 10.3676
v  6.8018 -0.2950 10.3680
v  7.1916 -0.2950 5.0500
v  7.0118 -0.2950 5.0504
v  7.4140 -0.2950 -0.2377
v  7.2342 -0.2950 -0.2373
v  7.6364 -0.2950 -5.5091
v  7.4566 -0.2950 -5.5088
v  7.8463 -0.2950 -10.7782
v  7.6665 -0.2950 -10.7780
v  8.0314 -0.2950 -16.0569
v  7.8515 -0.2950 -16.0567
v  8.1791 -0.2950 -21.3533
v  7.9991 -0.2950 -21.3532
v  8.2769 -0.2950 -26.6696
v  8.0969 -0.2950 -26.6696
v  8.3123 -0.2950 -32.0000
v  8.1323 -0.2950 -32.0000
v  -8.1318 -0.2950 -32.0000
v  -8.3118 -0.2950 -32.0000
v  -8.2757 -0.2950 -26.5827
v  -8.0958 -0.2950 -26.5824
v  -8.1772 -0.2950 -21.1311
v  -7.9974 -0.2950 -21.1307
v  -8.0291 -0.2950 -15.7260
v  -7.8493 -0.2950 -15.7256
v  -7.8438 -0.2950 -10.3679
v  -7.6640 -0.2950 -10.3675
v  -7.6337 -0.2950 -5.0502
v  -7.4540 -0.2950 -5.0499
v  -7.4113 -0.2950 0.2375
v  -7.2316 -0.2950 0.2378
v  -7.1890 -0.2950 5.5090
v  -7.0092 -0.2950 5.5093
v  -6.9790 -0.2950 10.7781
v  -6.7992 -0.2950 10.7784
v  -6.7941 -0.2950 16.0569
v  -6.6142 -0.2950 16.0571
v  -6.6464 -0.2950 21.3534
v  -6.4664 -0.2950 21.3534
v  -6.5487 -0.2950 26.6697
v  -6.3687 -0.2950 26.6697
v  -6.5133 -0.2950 32.0001
v  -6.3333 -0.2950 32.0001
# 130 vertices

vn 0.0000 1.0000 -0.0000
vn -1.0000 0.0000 -0.0000
vn 1.0000 0.0000 -0.0000
vn 0.0000 0.0000 -1.0000
vn 0.0000 0.0000 1.0000
# 5 vertex normals

vt 0.4004 0.5000 0.0000
vt 0.6046 0.5000 0.0000
vt 0.6046 0.5833 0.0000
vt 0.4004 0.5833 0.0000
vt 0.6046 0.4167 0.0000
vt 0.4004 0.0000 0.0000
vt 0.6046 0.0000 0.0000
vt 0.6046 0.0833 0.0000
vt 0.4004 0.0833 0.0000
vt 0.6046 0.1667 0.0000
vt 0.4004 0.1667 0.0000
vt 0.6046 0.2500 0.0000
vt 0.4004 0.2500 0.0000
vt 0.6046 0.3333 0.0000
vt 0.4004 0.3333 0.0000
vt 0.4004 0.4167 0.0000
vt 0.6046 1.0000 0.0000
vt 0.4004 1.0000 0.0000
vt 0.4004 0.9167 0.0000
vt 0.6046 0.9167 0.0000
vt 0.4004 0.8333 0.0000
vt 0.6046 0.8333 0.0000
vt 0.4004 0.7500 0.0000
vt 0.6046 0.7500 0.0000
vt 0.4004 0.6667 0.0000
vt 0.6046 0.6667 0.0000
vt 0.0398 1.0000 0.0000
vt 0.2440 1.0000 0.0000
vt 0.2440 0.0000 0.0000
vt 0.0398 0.0000 0.0000
vt 0.1123 0.5000 0.0000
vt 0.1191 0.5000 0.0000
vt 0.1191 0.5834 0.0000
vt 0.1123 0.5834 0.0000
vt 0.1123 0.0000 0.0000
vt 0.1191 0.0000 0.0000
vt 0.1191 0.0834 0.0000
vt 0.1123 0.0834 0.0000
vt 0.1191 0.1667 0.0000
vt 0.1123 0.1667 0.0000
vt 0.1191 0.2500 0.0000
vt 0.1123 0.2500 0.0000
vt 0.1191 0.3334 0.0000
vt 0.1123 0.3334 0.0000
vt 0.1191 0.4167 0.0000
vt 0.1123 0.4167 0.0000
vt 0.1123 0.9167 0.0000
vt 0.1191 0.9167 0.0000
vt 0.1191 1.0000 0.0000
vt 0.1123 1.0000 0.0000
vt 0.1123 0.8333 0.0000
vt 0.1191 0.8333 0.0000
vt 0.1123 0.7500 0.0000
vt 0.1191 0.7500 0.0000
vt 0.1123 0.6667 0.0000
vt 0.1191 0.6667 0.0000
vt 0.1635 0.0000 0.0000
vt 0.1635 0.0833 0.0000
vt 0.1589 0.0833 0.0000
vt 0.1589 0.0000 0.0000
vt 0.1635 0.1667 0.0000
vt 0.1589 0.1667 0.0000
vt 0.1635 0.2500 0.0000
vt 0.1589 0.2500 0.0000
vt 0.1635 0.3333 0.0000
vt 0.1589 0.3333 0.0000
vt 0.1635 0.4167 0.0000
vt 0.1589 0.4167 0.0000
vt 0.1635 0.5000 0.0000
vt 0.1589 0.5000 0.0000
vt 0.1635 0.5833 0.0000
vt 0.1589 0.5833 0.0000
vt 0.1635 0.6667 0.0000
vt 0.1589 0.6667 0.0000
vt 0.1635 0.7500 0.0000
vt 0.1589 0.7500 0.0000
vt 0.1635 0.8333 0.0000
vt 0.1589 0.8333 0.0000
vt 0.1635 0.9167 0.0000
vt 0.1589 0.9167 0.0000
vt 0.1635 1.0000 0.0000
vt 0.1589 1.0000 0.0000
# 82 texture coords

g Object005
s off
f 1/1/1 2/2/1 3/3/1 
f 3/3/1 4/4/1 1/1/1 
f 5/1/2 1/1/2 4/4/2 
f 4/4/2 6/4/2 5/1/2 
f 7/2/3 2/2/3 8/5/3 
f 8/5/3 9/5/3 7/2/3 
f 10/6/1 11/7/1 12/8/1 
f 12/8/1 13/9/1 10/6/1 
f 13/9/1 12/8/1 14/10/1 
f 14/10/1 15/11/1 13/9/1 
f 15/11/1 14/10/1 16/12/1 
f 16/12/1 17/13/1 15/11/1 
f 17/13/1 16/12/1 18/14/1 
f 18/14/1 19/15/1 17/13/1 
f 19/15/1 18/14/1 8/5/1 
f 8/5/1 20/16/1 19/15/1 
f 20/16/1 8/5/1 2/2/1 
f 2/2/1 1/1/1 20/16/1 
f 21/17/1 22/18/1 23/19/1 
f 23/19/1 24/20/1 21/17/1 
f 24/20/1 23/19/1 25/21/1 
f 25/21/1 26/22/1 24/20/1 
f 26/22/1 25/21/1 27/23/1 
f 27/23/1 28/24/1 26/22/1 
f 28/24/1 27/23/1 29/25/1 
f 29/25/1 30/26/1 28/24/1 
f 30/26/1 29/25/1 4/4/1 
f 4/4/1 3/3/1 30/26/1 
f 31/6/2 10/6/2 13/9/2 
f 13/9/2 32/9/2 31/6/2 
f 32/9/2 13/9/2 15/11/2 
f 15/11/2 33/11/2 32/9/2 
f 33/11/2 15/11/2 17/13/2 
f 17/13/2 34/13/2 33/11/2 
f 34/13/2 17/13/2 19/15/2 
f 19/15/2 35/15/2 34/13/2 
f 35/15/2 19/15/2 20/16/2 
f 20/16/2 36/16/2 35/15/2 
f 36/16/2 20/16/2 1/1/2 
f 1/1/2 5/1/2 36/16/2 
f 22/18/2 37/18/2 38/19/2 
f 38/19/2 23/19/2 22/18/2 
f 23/19/2 38/19/2 39/21/2 
f 39/21/2 25/21/2 23/19/2 
f 25/21/2 39/21/2 40/23/2 
f 40/23/2 27/23/2 25/21/2 
f 27/23/2 40/23/2 41/25/2 
f 41/25/2 29/25/2 27/23/2 
f 29/25/2 41/25/2 6/4/2 
f 6/4/2 4/4/2 29/25/2 
f 42/17/3 21/17/3 24/20/3 
f 24/20/3 43/20/3 42/17/3 
f 43/20/3 24/20/3 26/22/3 
f 26/22/3 44/22/3 43/20/3 
f 44/22/3 26/22/3 28/24/3 
f 28/24/3 45/24/3 44/22/3 
f 45/24/3 28/24/3 30/26/3 
f 30/26/3 46/26/3 45/24/3 
f 46/26/3 30/26/3 3/3/3 
f 3/3/3 47/3/3 46/26/3 
f 47/3/3 3/3/3 2/2/3 
f 2/2/3 7/2/3 47/3/3 
f 11/7/3 48/7/3 49/8/3 
f 49/8/3 12/8/3 11/7/3 
f 12/8/3 49/8/3 50/10/3 
f 50/10/3 14/10/3 12/8/3 
f 14/10/3 50/10/3 51/12/3 
f 51/12/3 16/12/3 14/10/3 
f 16/12/3 51/12/3 52/14/3 
f 52/14/3 18/14/3 16/12/3 
f 18/14/3 52/14/3 9/5/3 
f 9/5/3 8/5/3 18/14/3 
f 37/27/4 21/28/4 42/28/4 
f 37/27/4 22/27/4 21/28/4 
f 48/29/5 11/29/5 10/30/5 
f 10/30/5 31/30/5 48/29/5 
f 53/31/1 7/32/1 9/33/1 54/34/1 
f 55/35/1 42/36/1 43/37/1 56/38/1 
f 56/38/1 43/37/1 44/39/1 57/40/1 
f 57/40/1 44/39/1 45/41/1 58/42/1 
f 58/42/1 45/41/1 46/43/1 59/44/1 
f 59/44/1 46/43/1 47/45/1 60/46/1 
f 60/46/1 47/45/1 7/32/1 53/31/1 
f 61/47/1 49/48/1 48/49/1 62/50/1 
f 63/51/1 50/52/1 49/48/1 61/47/1 
f 64/53/1 51/54/1 50/52/1 63/51/1 
f 65/55/1 52/56/1 51/54/1 64/53/1 
f 54/34/1 9/33/1 52/56/1 65/55/1 
f 66/31/1 5/32/1 6/33/1 67/34/1 
f 68/35/1 31/36/1 32/37/1 69/38/1 
f 69/38/1 32/37/1 33/39/1 70/40/1 
f 70/40/1 33/39/1 34/41/1 71/42/1 
f 71/42/1 34/41/1 35/43/1 72/44/1 
f 72/44/1 35/43/1 36/45/1 73/46/1 
f 73/46/1 36/45/1 5/32/1 66/31/1 
f 74/47/1 38/48/1 37/49/1 75/50/1 
f 76/51/1 39/52/1 38/48/1 74/47/1 
f 77/53/1 40/54/1 39/52/1 76/51/1 
f 78/55/1 41/56/1 40/54/1 77/53/1 
f 67/34/1 6/33/1 41/56/1 78/55/1 
s 1
f 79/57/1 80/58/1 81/59/1 82/60/1 
f 80/58/1 83/61/1 84/62/1 81/59/1 
f 83/61/1 85/63/1 86/64/1 84/62/1 
f 85/63/1 87/65/1 88/66/1 86/64/1 
f 87/65/1 89/67/1 90/68/1 88/66/1 
f 89/67/1 91/69/1 92/70/1 90/68/1 
f 91/69/1 93/71/1 94/72/1 92/70/1 
f 93/71/1 95/73/1 96/74/1 94/72/1 
f 95/73/1 97/75/1 98/76/1 96/74/1 
f 97/75/1 99/77/1 100/78/1 98/76/1 
f 99/77/1 101/79/1 102/80/1 100/78/1 
f 101/79/1 103/81/1 104/82/1 102/80/1 
f 105/57/1 106/60/1 107/59/1 108/58/1 
f 108/58/1 107/59/1 109/62/1 110/61/1 
f 110/61/1 109/62/1 111/64/1 112/63/1 
f 112/63/1 111/64/1 113/66/1 114/65/1 
f 114/65/1 113/66/1 115/68/1 116/67/1 
f 116/67/1 115/68/1 117/70/1 118/69/1 
f 118/69/1 117/70/1 119/72/1 120/71/1 
f 120/71/1 119/72/1 121/74/1 122/73/1 
f 122/73/1 121/74/1 123/76/1 124/75/1 
f 124/75/1 123/76/1 125/78/1 126/77/1 
f 126/77/1 125/78/1 127/80/1 128/79/1 
f 128/79/1 127/80/1 129/82/1 130/81/1 
# 48 polygons - 76 triangles

