# 3ds Max Wavefront OBJ Exporter v0.97b - (c)2007 guruware
# File Created: 22.03.2016 07:01:31

#
# object Plane005
#

v  7.0000 -3.1400 -0.0000
v  3.9844 0.0250 -0.0000
v  3.9870 0.0208 5.3333
v  7.0000 -3.1442 5.3333
v  -7.0000 -3.1400 -0.0000
v  -3.9843 0.0250 -0.0000
v  -3.9817 0.0292 -5.3333
v  -7.0000 -3.1358 -5.3333
v  -2.0000 0.0250 -0.0000
v  -2.0000 0.0292 -5.3333
v  0.0078 -0.1250 -0.0000
v  -2.0000 -0.1250 -0.0000
v  -2.0000 -0.1542 5.3333
v  0.0065 -0.1542 5.3333
v  2.0000 0.0250 -0.0000
v  2.0000 0.0208 5.3333
v  2.0000 -0.1250 -0.0000
v  2.0000 -0.1542 5.3333
v  -2.0000 0.0208 5.3333
v  7.0000 -3.1150 -32.0000
v  3.9688 0.0500 -32.0000
v  3.9714 0.0458 -26.6667
v  7.0000 -3.1192 -26.6667
v  3.9740 0.0417 -21.3333
v  7.0000 -3.1233 -21.3333
v  3.9766 0.0375 -16.0000
v  7.0000 -3.1275 -16.0000
v  3.9792 0.0333 -10.6667
v  7.0000 -3.1317 -10.6667
v  3.9818 0.0292 -5.3333
v  7.0000 -3.1358 -5.3333
v  4.0000 0.0000 32.0000
v  7.0000 -3.1650 32.0000
v  7.0000 -3.1608 26.6667
v  3.9974 0.0042 26.6667
v  7.0000 -3.1567 21.3333
v  3.9948 0.0083 21.3333
v  7.0000 -3.1525 16.0000
v  3.9922 0.0125 16.0000
v  7.0000 -3.1483 10.6667
v  3.9896 0.0167 10.6667
v  -7.0000 -3.1650 32.0000
v  -4.0000 0.0000 32.0000
v  -3.9974 0.0042 26.6667
v  -7.0000 -3.1608 26.6667
v  -3.9948 0.0083 21.3333
v  -7.0000 -3.1567 21.3333
v  -3.9922 0.0125 16.0000
v  -7.0000 -3.1525 16.0000
v  -3.9896 0.0167 10.6667
v  -7.0000 -3.1483 10.6667
v  -3.9870 0.0208 5.3333
v  -7.0000 -3.1442 5.3333
v  -3.9687 0.0500 -32.0000
v  -7.0000 -3.1150 -32.0000
v  -7.0000 -3.1192 -26.6667
v  -3.9713 0.0458 -26.6667
v  -7.0000 -3.1233 -21.3333
v  -3.9739 0.0417 -21.3333
v  -7.0000 -3.1275 -16.0000
v  -3.9765 0.0375 -16.0000
v  -7.0000 -3.1317 -10.6667
v  -3.9791 0.0333 -10.6667
v  -2.0000 0.0000 32.0000
v  -2.0000 0.0042 26.6667
v  -2.0000 0.0083 21.3333
v  -2.0000 0.0125 16.0000
v  -2.0000 0.0167 10.6667
v  -2.0000 0.0500 -32.0000
v  -2.0000 0.0458 -26.6667
v  -2.0000 0.0417 -21.3333
v  -2.0000 0.0375 -16.0000
v  -2.0000 0.0333 -10.6667
v  0.0155 0.0500 -32.0000
v  -2.0000 0.0208 -26.6667
v  0.0142 0.0208 -26.6667
v  -2.0000 -0.0083 -21.3333
v  0.0129 -0.0083 -21.3333
v  -2.0000 -0.0375 -16.0000
v  0.0116 -0.0375 -16.0000
v  -2.0000 -0.0667 -10.6667
v  0.0103 -0.0667 -10.6667
v  -2.0000 -0.0958 -5.3333
v  0.0090 -0.0958 -5.3333
v  -2.0000 -0.3000 32.0000
v  0.0000 -0.3000 32.0000
v  0.0013 -0.2708 26.6667
v  -2.0000 -0.2708 26.6667
v  0.0026 -0.2417 21.3333
v  -2.0000 -0.2417 21.3333
v  0.0039 -0.2125 16.0000
v  -2.0000 -0.2125 16.0000
v  0.0052 -0.1833 10.6667
v  -2.0000 -0.1833 10.6667
v  2.0000 0.0500 -32.0000
v  2.0000 0.0458 -26.6667
v  2.0000 0.0417 -21.3333
v  2.0000 0.0375 -16.0000
v  2.0000 0.0333 -10.6667
v  2.0000 0.0292 -5.3333
v  2.0000 0.0000 32.0000
v  2.0000 0.0042 26.6667
v  2.0000 0.0083 21.3333
v  2.0000 0.0125 16.0000
v  2.0000 0.0167 10.6667
v  2.0000 0.0208 -26.6667
v  2.0000 -0.0083 -21.3333
v  2.0000 -0.0375 -16.0000
v  2.0000 -0.0667 -10.6667
v  2.0000 -0.0958 -5.3333
v  2.0000 -0.3000 32.0000
v  2.0000 -0.2708 26.6667
v  2.0000 -0.2417 21.3333
v  2.0000 -0.2125 16.0000
v  2.0000 -0.1833 10.6667
# 115 vertices

vn 0.7240 0.6898 0.0004
vn 0.3938 0.9192 0.0006
vn 0.3940 0.9191 0.0006
vn 0.7243 0.6895 0.0004
vn -0.7240 0.6898 0.0004
vn -0.3938 0.9192 0.0006
vn -0.3936 0.9193 0.0006
vn -0.7237 0.6901 0.0004
vn 0.0000 1.0000 0.0008
vn 0.0000 1.0000 0.0055
vn -1.0000 0.0000 -0.0000
vn 1.0000 0.0000 -0.0000
vn 0.7224 0.6915 0.0004
vn 0.3926 0.9197 0.0006
vn 0.3928 0.9196 0.0006
vn 0.7225 0.6914 0.0004
vn 0.3930 0.9195 0.0006
vn 0.7228 0.6911 0.0004
vn 0.3932 0.9194 0.0006
vn 0.7231 0.6908 0.0004
vn 0.3934 0.9194 0.0006
vn 0.7234 0.6904 0.0004
vn 0.3936 0.9193 0.0006
vn 0.7237 0.6901 0.0004
vn 0.3951 0.9186 0.0006
vn 0.7256 0.6881 0.0004
vn 0.7255 0.6882 0.0004
vn 0.3948 0.9188 0.0006
vn 0.7252 0.6886 0.0004
vn 0.3946 0.9188 0.0006
vn 0.7249 0.6889 0.0004
vn 0.3944 0.9189 0.0006
vn 0.7246 0.6892 0.0004
vn 0.3942 0.9190 0.0006
vn -0.7256 0.6881 0.0004
vn -0.3951 0.9186 0.0006
vn -0.3948 0.9188 0.0006
vn -0.7255 0.6883 0.0004
vn -0.3946 0.9188 0.0006
vn -0.7252 0.6886 0.0004
vn -0.3944 0.9189 0.0006
vn -0.7249 0.6889 0.0004
vn -0.3942 0.9190 0.0006
vn -0.7246 0.6892 0.0004
vn -0.3940 0.9191 0.0006
vn -0.7243 0.6895 0.0004
vn -0.3926 0.9197 0.0006
vn -0.7223 0.6915 0.0004
vn -0.7225 0.6914 0.0004
vn -0.3928 0.9196 0.0006
vn -0.7228 0.6911 0.0004
vn -0.3930 0.9195 0.0006
vn -0.7231 0.6908 0.0004
vn -0.3932 0.9194 0.0006
vn -0.7234 0.6904 0.0004
vn -0.3934 0.9194 0.0006
vn 0.0000 1.0000 0.0031
# 57 vertex normals

vt 0.0175 0.5000 0.0000
vt 0.0175 0.5833 0.0000
vt 0.0359 0.5000 0.0000
vt 0.0359 0.4167 0.0000
vt 0.6255 0.5000 0.0000
vt 0.5982 0.5000 0.0000
vt 0.5982 0.4167 0.0000
vt 0.6255 0.4167 0.0000
vt 0.5009 0.5000 0.0000
vt 0.5632 0.5000 0.0000
vt 0.5632 0.5833 0.0000
vt 0.5009 0.5833 0.0000
vt 0.3764 0.5000 0.0000
vt 0.4040 0.5000 0.0000
vt 0.4040 0.5833 0.0000
vt 0.3764 0.5833 0.0000
vt 0.4387 0.5000 0.0000
vt 0.4387 0.5833 0.0000
vt 0.5982 0.5833 0.0000
vt 0.0175 0.0000 0.0000
vt 0.0175 0.0833 0.0000
vt 0.0175 0.1667 0.0000
vt 0.0175 0.2500 0.0000
vt 0.0175 0.3333 0.0000
vt 0.0175 0.4167 0.0000
vt 0.0175 1.0000 0.0000
vt 0.0175 0.9167 0.0000
vt 0.0175 0.8333 0.0000
vt 0.0175 0.7500 0.0000
vt 0.0175 0.6667 0.0000
vt 0.0359 1.0000 0.0000
vt 0.0359 0.9167 0.0000
vt 0.0359 0.8333 0.0000
vt 0.0359 0.7500 0.0000
vt 0.0359 0.6667 0.0000
vt 0.0359 0.5833 0.0000
vt 0.0359 0.0000 0.0000
vt 0.0359 0.0833 0.0000
vt 0.0359 0.1667 0.0000
vt 0.0359 0.2500 0.0000
vt 0.0359 0.3333 0.0000
vt 0.6255 1.0000 0.0000
vt 0.5982 1.0000 0.0000
vt 0.5982 0.9167 0.0000
vt 0.6255 0.9167 0.0000
vt 0.5982 0.8333 0.0000
vt 0.6255 0.8333 0.0000
vt 0.5982 0.7500 0.0000
vt 0.6255 0.7500 0.0000
vt 0.5982 0.6667 0.0000
vt 0.6255 0.6667 0.0000
vt 0.6255 0.5833 0.0000
vt 0.5982 0.0000 0.0000
vt 0.6255 0.0000 0.0000
vt 0.6255 0.0833 0.0000
vt 0.5982 0.0833 0.0000
vt 0.6255 0.1667 0.0000
vt 0.5982 0.1667 0.0000
vt 0.6255 0.2500 0.0000
vt 0.5982 0.2500 0.0000
vt 0.6255 0.3333 0.0000
vt 0.5982 0.3333 0.0000
vt 0.5009 0.0000 0.0000
vt 0.5632 0.0000 0.0000
vt 0.5632 0.0833 0.0000
vt 0.5009 0.0833 0.0000
vt 0.5632 0.1667 0.0000
vt 0.5009 0.1667 0.0000
vt 0.5632 0.2500 0.0000
vt 0.5009 0.2500 0.0000
vt 0.5632 0.3333 0.0000
vt 0.5009 0.3333 0.0000
vt 0.5632 0.4167 0.0000
vt 0.5009 0.4167 0.0000
vt 0.5632 1.0000 0.0000
vt 0.5009 1.0000 0.0000
vt 0.5009 0.9167 0.0000
vt 0.5632 0.9167 0.0000
vt 0.5009 0.8333 0.0000
vt 0.5632 0.8333 0.0000
vt 0.5009 0.7500 0.0000
vt 0.5632 0.7500 0.0000
vt 0.5009 0.6667 0.0000
vt 0.5632 0.6667 0.0000
vt 0.3764 0.0000 0.0000
vt 0.4040 0.0000 0.0000
vt 0.4040 0.0833 0.0000
vt 0.3764 0.0833 0.0000
vt 0.4040 0.1667 0.0000
vt 0.3764 0.1667 0.0000
vt 0.4040 0.2500 0.0000
vt 0.3764 0.2500 0.0000
vt 0.4040 0.3333 0.0000
vt 0.3764 0.3333 0.0000
vt 0.4040 0.4167 0.0000
vt 0.3764 0.4167 0.0000
vt 0.4040 1.0000 0.0000
vt 0.3764 1.0000 0.0000
vt 0.3764 0.9167 0.0000
vt 0.4040 0.9167 0.0000
vt 0.3764 0.8333 0.0000
vt 0.4040 0.8333 0.0000
vt 0.3764 0.7500 0.0000
vt 0.4040 0.7500 0.0000
vt 0.3764 0.6667 0.0000
vt 0.4040 0.6667 0.0000
vt 0.4387 0.0000 0.0000
vt 0.4387 0.0833 0.0000
vt 0.4387 0.1667 0.0000
vt 0.4387 0.2500 0.0000
vt 0.4387 0.3333 0.0000
vt 0.4387 0.4167 0.0000
vt 0.4387 1.0000 0.0000
vt 0.4387 0.9167 0.0000
vt 0.4387 0.8333 0.0000
vt 0.4387 0.7500 0.0000
vt 0.4387 0.6667 0.0000
# 117 texture coords

g Plane005
s 1
f 1/1/1 2/1/2 3/2/3 
f 3/2/3 4/2/4 1/1/1 
f 5/3/5 6/3/6 7/4/7 
f 7/4/7 8/4/8 5/3/5 
f 6/5/6 9/6/9 10/7/9 
f 10/7/9 7/8/7 6/5/6 
f 11/9/10 12/10/10 13/11/10 
f 13/11/10 14/12/10 11/9/10 
f 2/13/2 15/14/9 16/15/9 
f 16/15/9 3/16/3 2/13/2 
f 17/17/10 11/9/10 14/12/10 
f 14/12/10 18/18/10 17/17/10 
s off
f 15/14/11 17/14/11 18/15/11 
f 18/15/11 16/15/11 15/14/11 
f 12/6/12 9/6/12 19/19/12 
f 19/19/12 13/19/12 12/6/12 
s 1
f 20/20/13 21/20/14 22/21/15 
f 22/21/15 23/21/16 20/20/13 
f 23/21/16 22/21/15 24/22/17 
f 24/22/17 25/22/18 23/21/16 
f 25/22/18 24/22/17 26/23/19 
f 26/23/19 27/23/20 25/22/18 
f 27/23/20 26/23/19 28/24/21 
f 28/24/21 29/24/22 27/23/20 
f 29/24/22 28/24/21 30/25/23 
f 30/25/23 31/25/24 29/24/22 
f 31/25/24 30/25/23 2/1/2 
f 2/1/2 1/1/1 31/25/24 
f 32/26/25 33/26/26 34/27/27 
f 34/27/27 35/27/28 32/26/25 
f 35/27/28 34/27/27 36/28/29 
f 36/28/29 37/28/30 35/27/28 
f 37/28/30 36/28/29 38/29/31 
f 38/29/31 39/29/32 37/28/30 
f 39/29/32 38/29/31 40/30/33 
f 40/30/33 41/30/34 39/29/32 
f 41/30/34 40/30/33 4/2/4 
f 4/2/4 3/2/3 41/30/34 
f 42/31/35 43/31/36 44/32/37 
f 44/32/37 45/32/38 42/31/35 
f 45/32/38 44/32/37 46/33/39 
f 46/33/39 47/33/40 45/32/38 
f 47/33/40 46/33/39 48/34/41 
f 48/34/41 49/34/42 47/33/40 
f 49/34/42 48/34/41 50/35/43 
f 50/35/43 51/35/44 49/34/42 
f 51/35/44 50/35/43 52/36/45 
f 52/36/45 53/36/46 51/35/44 
f 53/36/46 52/36/45 6/3/6 
f 6/3/6 5/3/5 53/36/46 
f 54/37/47 55/37/48 56/38/49 
f 56/38/49 57/38/50 54/37/47 
f 57/38/50 56/38/49 58/39/51 
f 58/39/51 59/39/52 57/38/50 
f 59/39/52 58/39/51 60/40/53 
f 60/40/53 61/40/54 59/39/52 
f 61/40/54 60/40/53 62/41/55 
f 62/41/55 63/41/56 61/40/54 
f 63/41/56 62/41/55 8/4/8 
f 8/4/8 7/4/7 63/41/56 
f 43/42/36 64/43/9 65/44/9 
f 65/44/9 44/45/37 43/42/36 
f 44/45/37 65/44/9 66/46/9 
f 66/46/9 46/47/39 44/45/37 
f 46/47/39 66/46/9 67/48/9 
f 67/48/9 48/49/41 46/47/39 
f 48/49/41 67/48/9 68/50/9 
f 68/50/9 50/51/43 48/49/41 
f 50/51/43 68/50/9 19/19/9 
f 19/19/9 52/52/45 50/51/43 
f 52/52/45 19/19/9 9/6/9 
f 9/6/9 6/5/6 52/52/45 
f 69/53/57 54/54/47 57/55/50 
f 57/55/50 70/56/9 69/53/57 
f 70/56/9 57/55/50 59/57/52 
f 59/57/52 71/58/9 70/56/9 
f 71/58/9 59/57/52 61/59/54 
f 61/59/54 72/60/9 71/58/9 
f 72/60/9 61/59/54 63/61/56 
f 63/61/56 73/62/9 72/60/9 
f 73/62/9 63/61/56 7/8/7 
f 7/8/7 10/7/9 73/62/9 
f 74/63/10 69/64/57 75/65/10 
f 75/65/10 76/66/10 74/63/10 
f 76/66/10 75/65/10 77/67/10 
f 77/67/10 78/68/10 76/66/10 
f 78/68/10 77/67/10 79/69/10 
f 79/69/10 80/70/10 78/68/10 
f 80/70/10 79/69/10 81/71/10 
f 81/71/10 82/72/10 80/70/10 
f 82/72/10 81/71/10 83/73/10 
f 83/73/10 84/74/10 82/72/10 
f 84/74/10 83/73/10 12/10/10 
f 12/10/10 11/9/10 84/74/10 
f 85/75/10 86/76/10 87/77/10 
f 87/77/10 88/78/10 85/75/10 
f 88/78/10 87/77/10 89/79/10 
f 89/79/10 90/80/10 88/78/10 
f 90/80/10 89/79/10 91/81/10 
f 91/81/10 92/82/10 90/80/10 
f 92/82/10 91/81/10 93/83/10 
f 93/83/10 94/84/10 92/82/10 
f 94/84/10 93/83/10 14/12/10 
f 14/12/10 13/11/10 94/84/10 
f 21/85/14 95/86/57 96/87/9 
f 96/87/9 22/88/15 21/85/14 
f 22/88/15 96/87/9 97/89/9 
f 97/89/9 24/90/17 22/88/15 
f 24/90/17 97/89/9 98/91/9 
f 98/91/9 26/92/19 24/90/17 
f 26/92/19 98/91/9 99/93/9 
f 99/93/9 28/94/21 26/92/19 
f 28/94/21 99/93/9 100/95/9 
f 100/95/9 30/96/23 28/94/21 
f 30/96/23 100/95/9 15/14/9 
f 15/14/9 2/13/2 30/96/23 
f 101/97/9 32/98/25 35/99/28 
f 35/99/28 102/100/9 101/97/9 
f 102/100/9 35/99/28 37/101/30 
f 37/101/30 103/102/9 102/100/9 
f 103/102/9 37/101/30 39/103/32 
f 39/103/32 104/104/9 103/102/9 
f 104/104/9 39/103/32 41/105/34 
f 41/105/34 105/106/9 104/104/9 
f 105/106/9 41/105/34 3/16/3 
f 3/16/3 16/15/9 105/106/9 
f 95/107/57 74/63/10 76/66/10 
f 76/66/10 106/108/10 95/107/57 
f 106/108/10 76/66/10 78/68/10 
f 78/68/10 107/109/10 106/108/10 
f 107/109/10 78/68/10 80/70/10 
f 80/70/10 108/110/10 107/109/10 
f 108/110/10 80/70/10 82/72/10 
f 82/72/10 109/111/10 108/110/10 
f 109/111/10 82/72/10 84/74/10 
f 84/74/10 110/112/10 109/111/10 
f 110/112/10 84/74/10 11/9/10 
f 11/9/10 17/17/10 110/112/10 
f 86/76/10 111/113/10 112/114/10 
f 112/114/10 87/77/10 86/76/10 
f 87/77/10 112/114/10 113/115/10 
f 113/115/10 89/79/10 87/77/10 
f 89/79/10 113/115/10 114/116/10 
f 114/116/10 91/81/10 89/79/10 
f 91/81/10 114/116/10 115/117/10 
f 115/117/10 93/83/10 91/81/10 
f 93/83/10 115/117/10 18/18/10 
f 18/18/10 14/12/10 93/83/10 
s off
f 96/87/11 95/86/11 106/87/11 
f 96/87/11 106/87/11 107/89/11 
f 107/89/11 97/89/11 96/87/11 
f 97/89/11 107/89/11 108/91/11 
f 108/91/11 98/91/11 97/89/11 
f 98/91/11 108/91/11 109/93/11 
f 109/93/11 99/93/11 98/91/11 
f 99/93/11 109/93/11 110/95/11 
f 110/95/11 100/95/11 99/93/11 
f 100/95/11 110/95/11 17/14/11 
f 17/14/11 15/14/11 100/95/11 
f 111/97/11 101/97/11 102/100/11 
f 102/100/11 112/100/11 111/97/11 
f 112/100/11 102/100/11 103/102/11 
f 103/102/11 113/102/11 112/100/11 
f 113/102/11 103/102/11 104/104/11 
f 104/104/11 114/104/11 113/102/11 
f 114/104/11 104/104/11 105/106/11 
f 105/106/11 115/106/11 114/104/11 
f 115/106/11 105/106/11 16/15/11 
f 16/15/11 18/15/11 115/106/11 
f 75/56/12 69/53/12 70/56/12 
f 75/56/12 70/56/12 71/58/12 
f 71/58/12 77/58/12 75/56/12 
f 77/58/12 71/58/12 72/60/12 
f 72/60/12 79/60/12 77/58/12 
f 79/60/12 72/60/12 73/62/12 
f 73/62/12 81/62/12 79/60/12 
f 81/62/12 73/62/12 10/7/12 
f 10/7/12 83/7/12 81/62/12 
f 83/7/12 10/7/12 9/6/12 
f 9/6/12 12/6/12 83/7/12 
f 64/43/12 85/43/12 88/44/12 
f 88/44/12 65/44/12 64/43/12 
f 65/44/12 88/44/12 90/46/12 
f 90/46/12 66/46/12 65/44/12 
f 66/46/12 90/46/12 92/48/12 
f 92/48/12 67/48/12 66/46/12 
f 67/48/12 92/48/12 94/50/12 
f 94/50/12 68/50/12 67/48/12 
f 68/50/12 94/50/12 13/19/12 
f 13/19/12 19/19/12 68/50/12 
# 190 faces

