# 3ds Max Wavefront OBJ Exporter v0.97b - (c)2007 guruware
# File Created: 25.02.2016 18:48:11

#
# object Plane005
#

v  -7.0000 -3.1150 -0.0000
v  -4.0000 0.0500 -0.0000
v  -4.0000 0.0500 -5.3333
v  -7.0000 -3.1150 -5.3333
v  7.0000 -3.1150 -0.0000
v  4.0000 0.0500 -0.0000
v  4.0000 0.0500 5.3333
v  7.0000 -3.1150 5.3333
v  2.0000 0.0500 -0.0000
v  2.0000 0.0500 5.3333
v  0.0000 0.0500 -0.0000
v  2.0000 0.0500 -5.3333
v  0.0000 0.0500 -5.3333
v  -2.0000 0.0500 -0.0000
v  -2.0000 0.0500 -5.3333
v  -7.0000 -3.1150 32.0000
v  -4.0000 0.0500 32.0000
v  -4.0000 0.0500 26.6667
v  -7.0000 -3.1150 26.6667
v  -4.0000 0.0500 21.3333
v  -7.0000 -3.1150 21.3333
v  -4.0000 0.0500 16.0000
v  -7.0000 -3.1150 16.0000
v  -4.0000 0.0500 10.6667
v  -7.0000 -3.1150 10.6667
v  -4.0000 0.0500 5.3333
v  -7.0000 -3.1150 5.3333
v  -4.0000 0.0500 -32.0000
v  -7.0000 -3.1150 -32.0000
v  -7.0000 -3.1150 -26.6667
v  -4.0000 0.0500 -26.6667
v  -7.0000 -3.1150 -21.3333
v  -4.0000 0.0500 -21.3333
v  -7.0000 -3.1150 -16.0000
v  -4.0000 0.0500 -16.0000
v  -7.0000 -3.1150 -10.6667
v  -4.0000 0.0500 -10.6667
v  7.0000 -3.1150 -32.0000
v  4.0000 0.0500 -32.0000
v  4.0000 0.0500 -26.6667
v  7.0000 -3.1150 -26.6667
v  4.0000 0.0500 -21.3333
v  7.0000 -3.1150 -21.3333
v  4.0000 0.0500 -16.0000
v  7.0000 -3.1150 -16.0000
v  4.0000 0.0500 -10.6667
v  7.0000 -3.1150 -10.6667
v  4.0000 0.0500 -5.3333
v  7.0000 -3.1150 -5.3333
v  4.0000 0.0500 32.0000
v  7.0000 -3.1150 32.0000
v  7.0000 -3.1150 26.6667
v  4.0000 0.0500 26.6667
v  7.0000 -3.1150 21.3333
v  4.0000 0.0500 21.3333
v  7.0000 -3.1150 16.0000
v  4.0000 0.0500 16.0000
v  7.0000 -3.1150 10.6667
v  4.0000 0.0500 10.6667
v  2.0000 0.0500 -32.0000
v  2.0000 0.0500 -26.6667
v  2.0000 0.0500 -21.3333
v  2.0000 0.0500 -16.0000
v  2.0000 0.0500 -10.6667
v  2.0000 0.0500 32.0000
v  2.0000 0.0500 26.6667
v  2.0000 0.0500 21.3333
v  2.0000 0.0500 16.0000
v  2.0000 0.0500 10.6667
v  0.0000 0.0500 32.0000
v  0.0000 0.0500 26.6667
v  0.0000 0.0500 21.3333
v  0.0000 0.0500 16.0000
v  0.0000 0.0500 10.6667
v  0.0000 0.0500 5.3333
v  0.0000 0.0500 -32.0000
v  0.0000 0.0500 -26.6667
v  0.0000 0.0500 -21.3333
v  0.0000 0.0500 -16.0000
v  0.0000 0.0500 -10.6667
v  -2.0000 0.0500 32.0000
v  -2.0000 0.0500 26.6667
v  -2.0000 0.0500 21.3333
v  -2.0000 0.0500 16.0000
v  -2.0000 0.0500 10.6667
v  -2.0000 0.0500 5.3333
v  -2.0000 0.0500 -32.0000
v  -2.0000 0.0500 -26.6667
v  -2.0000 0.0500 -21.3333
v  -2.0000 0.0500 -16.0000
v  -2.0000 0.0500 -10.6667
# 91 vertices

vn -0.7258 0.6879 0.0000
vn -0.3950 0.9187 0.0000
vn 0.7258 0.6879 0.0000
vn 0.3950 0.9187 0.0000
vn -0.0000 1.0000 0.0000
# 5 vertex normals

vt 0.0359 1.0000 0.0000
vt 0.0359 0.0000 0.0000
vt 0.0175 1.0000 0.0000
vt 0.0175 0.0000 0.0000
vt 0.0175 1.0000 0.0000
vt 0.0175 0.0000 0.0000
vt 0.0359 0.0000 0.0000
vt 0.0359 1.0000 0.0000
vt 0.6255 0.0000 0.0000
vt 0.6255 1.0000 0.0000
vt 0.3764 1.0000 0.0000
vt 0.3764 0.0000 0.0000
vt 0.5632 1.0000 0.0000
vt 0.5632 0.0000 0.0000
vt 0.4387 0.0000 0.0000
vt 0.4387 1.0000 0.0000
vt 0.5009 1.0000 0.0000
vt 0.5009 0.0000 0.0000
vt 0.3764 0.9167 0.0000
vt 0.3764 0.8333 0.0000
vt 0.3764 0.7500 0.0000
vt 0.3764 0.6667 0.0000
vt 0.3764 0.5833 0.0000
vt 0.3764 0.5000 0.0000
vt 0.3764 0.4167 0.0000
vt 0.3764 0.3333 0.0000
vt 0.3764 0.2500 0.0000
vt 0.3764 0.1667 0.0000
vt 0.3764 0.0833 0.0000
vt 0.0175 0.9167 0.0000
vt 0.0175 0.8333 0.0000
vt 0.0175 0.7500 0.0000
vt 0.0175 0.6667 0.0000
vt 0.0175 0.5833 0.0000
vt 0.0175 0.5000 0.0000
vt 0.0175 0.4167 0.0000
vt 0.0175 0.3333 0.0000
vt 0.0175 0.2500 0.0000
vt 0.0175 0.1667 0.0000
vt 0.0175 0.0833 0.0000
vt 0.6255 0.0833 0.0000
vt 0.6255 0.1667 0.0000
vt 0.6255 0.2500 0.0000
vt 0.6255 0.3333 0.0000
vt 0.6255 0.4167 0.0000
vt 0.6255 0.5000 0.0000
vt 0.6255 0.5833 0.0000
vt 0.6255 0.6667 0.0000
vt 0.6255 0.7500 0.0000
vt 0.6255 0.8333 0.0000
vt 0.6255 0.9167 0.0000
vt 0.0359 0.0833 0.0000
vt 0.0359 0.1667 0.0000
vt 0.0359 0.2500 0.0000
vt 0.0359 0.3333 0.0000
vt 0.0359 0.4167 0.0000
vt 0.0359 0.5000 0.0000
vt 0.0359 0.5833 0.0000
vt 0.0359 0.6667 0.0000
vt 0.0359 0.7500 0.0000
vt 0.0359 0.8333 0.0000
vt 0.0359 0.9167 0.0000
vt 0.0175 0.9167 0.0000
vt 0.0175 0.8333 0.0000
vt 0.0175 0.7500 0.0000
vt 0.0175 0.6667 0.0000
vt 0.0175 0.5833 0.0000
vt 0.0175 0.5000 0.0000
vt 0.0175 0.4167 0.0000
vt 0.0175 0.3333 0.0000
vt 0.0175 0.2500 0.0000
vt 0.0175 0.1667 0.0000
vt 0.0175 0.0833 0.0000
vt 0.0359 0.0833 0.0000
vt 0.0359 0.1667 0.0000
vt 0.0359 0.2500 0.0000
vt 0.0359 0.3333 0.0000
vt 0.0359 0.4167 0.0000
vt 0.0359 0.5000 0.0000
vt 0.0359 0.5833 0.0000
vt 0.0359 0.6667 0.0000
vt 0.0359 0.7500 0.0000
vt 0.0359 0.8333 0.0000
vt 0.0359 0.9167 0.0000
vt 0.5632 0.9167 0.0000
vt 0.5632 0.8333 0.0000
vt 0.5632 0.7500 0.0000
vt 0.5632 0.6667 0.0000
vt 0.5632 0.5833 0.0000
vt 0.5632 0.5000 0.0000
vt 0.5632 0.4167 0.0000
vt 0.5632 0.3333 0.0000
vt 0.5632 0.2500 0.0000
vt 0.5632 0.1667 0.0000
vt 0.5632 0.0833 0.0000
vt 0.4387 0.9167 0.0000
vt 0.4387 0.8333 0.0000
vt 0.4387 0.7500 0.0000
vt 0.4387 0.6667 0.0000
vt 0.4387 0.5833 0.0000
vt 0.4387 0.5000 0.0000
vt 0.4387 0.4167 0.0000
vt 0.4387 0.3333 0.0000
vt 0.4387 0.2500 0.0000
vt 0.4387 0.1667 0.0000
vt 0.4387 0.0833 0.0000
vt 0.5009 0.9167 0.0000
vt 0.5009 0.8333 0.0000
vt 0.5009 0.7500 0.0000
vt 0.5009 0.6667 0.0000
vt 0.5009 0.5833 0.0000
vt 0.5009 0.5000 0.0000
vt 0.5009 0.4167 0.0000
vt 0.5009 0.3333 0.0000
vt 0.5009 0.2500 0.0000
vt 0.5009 0.1667 0.0000
vt 0.5009 0.0833 0.0000
# 117 texture coords

g Plane005
s 1
f 1/68/1 2/35/2 3/34/2 
f 3/34/2 4/67/1 1/68/1 
f 5/79/3 6/57/4 7/56/4 
f 7/56/4 8/78/3 5/79/3 
f 6/46/4 9/90/5 10/91/5 
f 10/91/5 7/45/4 6/46/4 
f 11/112/5 9/90/5 12/89/5 
f 12/89/5 13/111/5 11/112/5 
f 2/24/2 14/101/5 15/100/5 
f 15/100/5 3/23/2 2/24/2 
f 14/101/5 11/112/5 13/111/5 
f 13/111/5 15/100/5 14/101/5 
f 16/6/1 17/4/2 18/40/2 
f 18/40/2 19/73/1 16/6/1 
f 19/73/1 18/40/2 20/39/2 
f 20/39/2 21/72/1 19/73/1 
f 21/72/1 20/39/2 22/38/2 
f 22/38/2 23/71/1 21/72/1 
f 23/71/1 22/38/2 24/37/2 
f 24/37/2 25/70/1 23/71/1 
f 25/70/1 24/37/2 26/36/2 
f 26/36/2 27/69/1 25/70/1 
f 27/69/1 26/36/2 2/35/2 
f 2/35/2 1/68/1 27/69/1 
f 28/3/2 29/5/1 30/63/1 
f 30/63/1 31/30/2 28/3/2 
f 31/30/2 30/63/1 32/64/1 
f 32/64/1 33/31/2 31/30/2 
f 33/31/2 32/64/1 34/65/1 
f 34/65/1 35/32/2 33/31/2 
f 35/32/2 34/65/1 36/66/1 
f 36/66/1 37/33/2 35/32/2 
f 37/33/2 36/66/1 4/67/1 
f 4/67/1 3/34/2 37/33/2 
f 38/8/3 39/1/4 40/62/4 
f 40/62/4 41/84/3 38/8/3 
f 41/84/3 40/62/4 42/61/4 
f 42/61/4 43/83/3 41/84/3 
f 43/83/3 42/61/4 44/60/4 
f 44/60/4 45/82/3 43/83/3 
f 45/82/3 44/60/4 46/59/4 
f 46/59/4 47/81/3 45/82/3 
f 47/81/3 46/59/4 48/58/4 
f 48/58/4 49/80/3 47/81/3 
f 49/80/3 48/58/4 6/57/4 
f 6/57/4 5/79/3 49/80/3 
f 50/2/4 51/7/3 52/74/3 
f 52/74/3 53/52/4 50/2/4 
f 53/52/4 52/74/3 54/75/3 
f 54/75/3 55/53/4 53/52/4 
f 55/53/4 54/75/3 56/76/3 
f 56/76/3 57/54/4 55/53/4 
f 57/54/4 56/76/3 58/77/3 
f 58/77/3 59/55/4 57/54/4 
f 59/55/4 58/77/3 8/78/3 
f 8/78/3 7/56/4 59/55/4 
f 39/10/4 60/13/5 61/85/5 
f 61/85/5 40/51/4 39/10/4 
f 40/51/4 61/85/5 62/86/5 
f 62/86/5 42/50/4 40/51/4 
f 42/50/4 62/86/5 63/87/5 
f 63/87/5 44/49/4 42/50/4 
f 44/49/4 63/87/5 64/88/5 
f 64/88/5 46/48/4 44/49/4 
f 46/48/4 64/88/5 12/89/5 
f 12/89/5 48/47/4 46/48/4 
f 48/47/4 12/89/5 9/90/5 
f 9/90/5 6/46/4 48/47/4 
f 65/14/5 50/9/4 53/41/4 
f 53/41/4 66/95/5 65/14/5 
f 66/95/5 53/41/4 55/42/4 
f 55/42/4 67/94/5 66/95/5 
f 67/94/5 55/42/4 57/43/4 
f 57/43/4 68/93/5 67/94/5 
f 68/93/5 57/43/4 59/44/4 
f 59/44/4 69/92/5 68/93/5 
f 69/92/5 59/44/4 7/45/4 
f 7/45/4 10/91/5 69/92/5 
f 70/18/5 65/14/5 66/95/5 
f 66/95/5 71/117/5 70/18/5 
f 71/117/5 66/95/5 67/94/5 
f 67/94/5 72/116/5 71/117/5 
f 72/116/5 67/94/5 68/93/5 
f 68/93/5 73/115/5 72/116/5 
f 73/115/5 68/93/5 69/92/5 
f 69/92/5 74/114/5 73/115/5 
f 74/114/5 69/92/5 10/91/5 
f 10/91/5 75/113/5 74/114/5 
f 75/113/5 10/91/5 9/90/5 
f 9/90/5 11/112/5 75/113/5 
f 60/13/5 76/17/5 77/107/5 
f 77/107/5 61/85/5 60/13/5 
f 61/85/5 77/107/5 78/108/5 
f 78/108/5 62/86/5 61/85/5 
f 62/86/5 78/108/5 79/109/5 
f 79/109/5 63/87/5 62/86/5 
f 63/87/5 79/109/5 80/110/5 
f 80/110/5 64/88/5 63/87/5 
f 64/88/5 80/110/5 13/111/5 
f 13/111/5 12/89/5 64/88/5 
f 17/12/2 81/15/5 82/106/5 
f 82/106/5 18/29/2 17/12/2 
f 18/29/2 82/106/5 83/105/5 
f 83/105/5 20/28/2 18/29/2 
f 20/28/2 83/105/5 84/104/5 
f 84/104/5 22/27/2 20/28/2 
f 22/27/2 84/104/5 85/103/5 
f 85/103/5 24/26/2 22/27/2 
f 24/26/2 85/103/5 86/102/5 
f 86/102/5 26/25/2 24/26/2 
f 26/25/2 86/102/5 14/101/5 
f 14/101/5 2/24/2 26/25/2 
f 87/16/5 28/11/2 31/19/2 
f 31/19/2 88/96/5 87/16/5 
f 88/96/5 31/19/2 33/20/2 
f 33/20/2 89/97/5 88/96/5 
f 89/97/5 33/20/2 35/21/2 
f 35/21/2 90/98/5 89/97/5 
f 90/98/5 35/21/2 37/22/2 
f 37/22/2 91/99/5 90/98/5 
f 91/99/5 37/22/2 3/23/2 
f 3/23/2 15/100/5 91/99/5 
f 81/15/5 70/18/5 71/117/5 
f 71/117/5 82/106/5 81/15/5 
f 82/106/5 71/117/5 72/116/5 
f 72/116/5 83/105/5 82/106/5 
f 83/105/5 72/116/5 73/115/5 
f 73/115/5 84/104/5 83/105/5 
f 84/104/5 73/115/5 74/114/5 
f 74/114/5 85/103/5 84/104/5 
f 85/103/5 74/114/5 75/113/5 
f 75/113/5 86/102/5 85/103/5 
f 86/102/5 75/113/5 11/112/5 
f 11/112/5 14/101/5 86/102/5 
f 76/17/5 87/16/5 88/96/5 
f 88/96/5 77/107/5 76/17/5 
f 77/107/5 88/96/5 89/97/5 
f 89/97/5 78/108/5 77/107/5 
f 78/108/5 89/97/5 90/98/5 
f 90/98/5 79/109/5 78/108/5 
f 79/109/5 90/98/5 91/99/5 
f 91/99/5 80/110/5 79/109/5 
f 80/110/5 91/99/5 15/100/5 
f 15/100/5 13/111/5 80/110/5 
# 144 faces

