# Blender v2.75 (sub 0) OBJ File: ''
# www.blender.org
o Plane01_0
v 0.000000 -0.000000 0.000000
v 16.000010 0.000005 -32.000000
v -16.000000 0.000005 -32.000000
v -11.000000 -0.000000 0.000000
v 11.000000 -0.000000 0.000001
v 16.000000 -0.000000 0.000000
v -16.000000 -0.000000 0.000000
v 11.000000 -0.299905 32.000000
v 15.939699 -0.310319 31.897976
v -0.000005 -0.300005 32.000000
v -11.000000 -0.300005 32.000000
v -16.000010 -0.300005 32.000000
vt 0.500000 0.500000
vt 0.000000 1.000000
vt 1.000000 1.000000
vt 0.843750 0.500000
vt 0.156250 0.500000
vt 0.000000 0.500000
vt 1.000000 0.500000
vt 0.156250 0.000000
vt 0.000000 0.000000
vt 0.500000 0.000000
vt 0.843750 0.000000
vt 1.000000 0.000000
vn -0.000000 1.000000 0.004700
vn -0.000000 1.000000 0.000000
vn 0.000100 1.000000 0.004700
vn 0.001000 1.000000 0.009500
vn 0.002300 0.999900 0.009700
vn -0.000000 1.000000 0.009400
s 1
f 1/1/1 2/2/2 3/3/2
f 3/3/2 4/4/1 1/1/1
f 1/1/1 5/5/1 2/2/2
f 2/2/2 5/5/1 6/6/3
f 7/7/1 4/4/1 3/3/2
f 5/5/1 8/8/4 6/6/3
f 6/6/3 8/8/4 9/9/5
f 10/10/6 8/8/4 5/5/1
f 10/10/6 5/5/1 1/1/1
f 1/1/1 11/11/6 10/10/6
f 4/4/1 11/11/6 1/1/1
f 12/12/6 11/11/6 4/4/1
f 12/12/6 4/4/1 7/7/1
