# 3ds Max Wavefront OBJ Exporter v0.97b - (c)2007 guruware
# File Created: 12.09.2015 14:21:03

#
# object Plane01_0
#

v  0.00000 0.00000 0.00000
v  16.00001 0.00000 -32.00000
v  -16.00000 0.00000 -32.00000
v  -12.00000 0.00000 -0.00000
v  12.00000 0.00000 0.00000
v  16.00000 0.00000 0.00000
v  -16.00000 0.00000 0.00000
v  12.00000 0.00000 32.00000
v  16.00000 0.00000 32.00000
v  -0.00000 0.00000 32.00000
v  -12.00000 0.00000 32.00000
v  -16.00001 0.00000 32.00000
# 12 vertices

vn 0.00000 1.00000 -0.00000
# 1 vertex normals

vt 0.50000 0.50000 0.00000
vt 0.00000 1.00000 0.00000
vt 1.00000 1.00000 0.00000
vt 0.84375 0.50000 0.00000
vt 0.15625 0.50000 0.00000
vt 0.00000 0.50000 0.00000
vt 1.00000 0.50000 0.00000
vt 0.15625 0.00000 0.00000
vt 0.00000 0.00000 0.00000
vt 0.50000 0.00000 0.00000
vt 0.84375 0.00000 0.00000
vt 1.00000 0.00000 0.00000
# 12 texture coords

g Plane01_0
f 1/1/1 2/2/1 3/3/1 
f 3/3/1 4/4/1 1/1/1 
f 1/1/1 5/5/1 2/2/1 
f 2/2/1 5/5/1 6/6/1 
f 7/7/1 4/4/1 3/3/1 
f 5/5/1 8/8/1 6/6/1 
f 6/6/1 8/8/1 9/9/1 
f 10/10/1 8/8/1 5/5/1 
f 10/10/1 5/5/1 1/1/1 
f 1/1/1 11/11/1 10/10/1 
f 4/4/1 11/11/1 1/1/1 
f 12/12/1 11/11/1 4/4/1 
f 12/12/1 4/4/1 7/7/1 
# 13 faces

