# File exported by Unity3D version 5.1.1p2
v -16.00000000 0.00000000 32.00000000
v 16.00000000 0.00000000 32.00000000
v -16.00000000 0.00000000 -32.00000000
v 16.00000000 0.00000000 -32.00000000
v 10.99986000 0.00000000 -32.00000000
v 11.00000000 0.00000000 32.00000000
v -11.00000000 0.00000000 32.00000000
v -11.00000000 0.00000000 -32.00000000
v 0.00000000 0.00000000 -32.00000000
v 0.00000000 0.00000000 32.00000000
v -17.00000000 -1.05500000 -32.00000000
v -17.00000000 -1.05500000 32.00000000
v 17.00000000 -1.05500000 32.00000000
v 17.00000000 -1.05500000 -32.00000000
v -11.00000000 0.00000000 29.21739000
v -11.00000000 0.00000000 26.43478000
v -11.00000000 0.00000000 23.65217000
v -11.00000000 0.00000000 20.86957000
v -11.00000000 0.00000000 18.08696000
v -11.00000000 0.00000000 15.30435000
v -11.00000000 0.00000000 12.52174000
v -11.00000000 0.00000000 9.73913000
v -11.00000000 0.00000000 6.95652000
v -11.00000000 0.00000000 4.17391000
v -11.00000000 0.00000000 1.39130000
v -11.00000000 0.00000000 -1.39130000
v -11.00000000 0.00000000 -4.17391000
v -11.00000000 0.00000000 -6.95652000
v -11.00000000 0.00000000 -9.73913000
v -11.00000000 0.00000000 -12.52174000
v -11.00000000 0.00000000 -15.30435000
v -11.00000000 0.00000000 -18.08696000
v -11.00000000 0.00000000 -20.86956000
v -11.00000000 0.00000000 -23.65218000
v -11.00000000 0.00000000 -26.43478000
v -11.00000000 0.00000000 -29.21739000
v -16.00000000 0.00000000 -29.21739000
v -16.00000000 0.00000000 -26.43478000
v -16.00000000 0.00000000 -23.65217000
v -16.00000000 0.00000000 -20.86957000
v -16.00000000 0.00000000 -18.08696000
v -16.00000000 0.00000000 -15.30435000
v -16.00000000 0.00000000 -12.52174000
v -16.00000000 0.00000000 -9.73913000
v -16.00000000 0.00000000 -6.95652000
v -16.00000000 0.00000000 -4.17391000
v -16.00000000 0.00000000 -1.39130000
v -16.00000000 0.00000000 1.39130000
v -16.00000000 0.00000000 4.17391000
v -16.00000000 0.00000000 6.95652000
v -16.00000000 0.00000000 9.73913000
v -16.00000000 0.00000000 12.52174000
v -16.00000000 0.00000000 15.30435000
v -16.00000000 0.00000000 18.08696000
v -16.00000000 0.00000000 20.86956000
v -16.00000000 0.00000000 23.65218000
v -16.00000000 0.00000000 26.43478000
v -16.00000000 0.00000000 29.21739000
v 16.00000000 0.00000000 29.21739000
v 16.00000000 0.00000000 26.43478000
v 16.00000000 0.00000000 23.65217000
v 16.00000000 0.00000000 20.86957000
v 16.00000000 0.00000000 18.08696000
v 16.00000000 0.00000000 15.30435000
v 16.00000000 0.00000000 12.52174000
v 16.00000000 0.00000000 9.73913000
v 16.00000000 0.00000000 6.95652000
v 16.00000000 0.00000000 4.17391000
v 16.00000000 0.00000000 1.39130000
v 16.00000000 0.00000000 -1.39130000
v 16.00000000 0.00000000 -4.17391000
v 16.00000000 0.00000000 -6.95652000
v 16.00000000 0.00000000 -9.73913000
v 16.00000000 0.00000000 -12.52174000
v 16.00000000 0.00000000 -15.30435000
v 16.00000000 0.00000000 -18.08696000
v 16.00000000 0.00000000 -20.86956000
v 16.00000000 0.00000000 -23.65218000
v 16.00000000 0.00000000 -26.43478000
v 16.00000000 0.00000000 -29.21739000
v 10.99986000 0.00000000 -29.21739000
v 10.99987000 0.00000000 -26.43478000
v 10.99988000 0.00000000 -23.65217000
v 10.99988000 0.00000000 -20.86957000
v 10.99989000 0.00000000 -18.08696000
v 10.99990000 0.00000000 -15.30435000
v 10.99990000 0.00000000 -12.52174000
v 10.99991000 0.00000000 -9.73913000
v 10.99991000 0.00000000 -6.95652000
v 10.99992000 0.00000000 -4.17391000
v 10.99993000 0.00000000 -1.39130000
v 10.99993000 0.00000000 1.39130000
v 10.99994000 0.00000000 4.17391000
v 10.99994000 0.00000000 6.95652000
v 10.99995000 0.00000000 9.73913000
v 10.99996000 0.00000000 12.52174000
v 10.99996000 0.00000000 15.30435000
v 10.99997000 0.00000000 18.08696000
v 10.99998000 0.00000000 20.86956000
v 10.99998000 0.00000000 23.65218000
v 10.99999000 0.00000000 26.43478000
v 10.99999000 0.00000000 29.21739000
v 0.00000000 0.00000000 -29.21739000
v 0.00000000 0.00000000 -26.43478000
v 0.00000000 0.00000000 -23.65217000
v 0.00000000 0.00000000 -20.86957000
v 0.00000000 0.00000000 -18.08696000
v 0.00000000 0.00000000 -15.30435000
v 0.00000000 0.00000000 -12.52174000
v 0.00000000 0.00000000 -9.73913000
v 0.00000000 0.00000000 -6.95652000
v 0.00000000 0.00000000 -4.17391000
v 0.00000000 0.00000000 -1.39130000
v 0.00000000 0.00000000 1.39130000
v 0.00000000 0.00000000 4.17391000
v 0.00000000 0.00000000 6.95652000
v 0.00000000 0.00000000 9.73913000
v 0.00000000 0.00000000 12.52174000
v 0.00000000 0.00000000 15.30435000
v 0.00000000 0.00000000 18.08696000
v 0.00000000 0.00000000 20.86956000
v 0.00000000 0.00000000 23.65218000
v 0.00000000 0.00000000 26.43478000
v 0.00000000 0.00000000 29.21739000
v -17.00000000 -1.05500000 -29.21739000
v -17.00000000 -1.05500000 -26.43478000
v -17.00000000 -1.05500000 -23.65217000
v -17.00000000 -1.05500000 -20.86957000
v -17.00000000 -1.05500000 -18.08696000
v -17.00000000 -1.05500000 -15.30435000
v -17.00000000 -1.05500000 -12.52174000
v -17.00000000 -1.05500000 -9.73913000
v -17.00000000 -1.05500000 -6.95652000
v -17.00000000 -1.05500000 -4.17391000
v -17.00000000 -1.05500000 -1.39130000
v -17.00000000 -1.05500000 1.39130000
v -17.00000000 -1.05500000 4.17391000
v -17.00000000 -1.05500000 6.95652000
v -17.00000000 -1.05500000 9.73913000
v -17.00000000 -1.05500000 12.52174000
v -17.00000000 -1.05500000 15.30435000
v -17.00000000 -1.05500000 18.08696000
v -17.00000000 -1.05500000 20.86956000
v -17.00000000 -1.05500000 23.65218000
v -17.00000000 -1.05500000 26.43478000
v -17.00000000 -1.05500000 29.21739000
v 17.00000000 -1.05500000 29.21739000
v 17.00000000 -1.05500000 26.43478000
v 17.00000000 -1.05500000 23.65217000
v 17.00000000 -1.05500000 20.86957000
v 17.00000000 -1.05500000 18.08696000
v 17.00000000 -1.05500000 15.30435000
v 17.00000000 -1.05500000 12.52174000
v 17.00000000 -1.05500000 9.73913000
v 17.00000000 -1.05500000 6.95652000
v 17.00000000 -1.05500000 4.17391000
v 17.00000000 -1.05500000 1.39130000
v 17.00000000 -1.05500000 -1.39130000
v 17.00000000 -1.05500000 -4.17391000
v 17.00000000 -1.05500000 -6.95652000
v 17.00000000 -1.05500000 -9.73913000
v 17.00000000 -1.05500000 -12.52174000
v 17.00000000 -1.05500000 -15.30435000
v 17.00000000 -1.05500000 -18.08696000
v 17.00000000 -1.05500000 -20.86956000
v 17.00000000 -1.05500000 -23.65218000
v 17.00000000 -1.05500000 -26.43478000
v 17.00000000 -1.05500000 -29.21739000
vt 0.02940 1.00000
vt 0.97060 1.00000
vt 0.02940 0.00000
vt 0.97060 0.00000
vt 0.82350 0.00000
vt 0.82350 1.00000
vt 0.17650 1.00000
vt 0.17650 0.00000
vt 0.50000 0.00000
vt 0.50000 1.00000
vt 0.00000 0.00000
vt 0.00000 1.00000
vt 1.00000 1.00000
vt 1.00000 0.00000
vt 0.17650 0.95650
vt 0.17650 0.91300
vt 0.17650 0.86960
vt 0.17650 0.82610
vt 0.17650 0.78260
vt 0.17650 0.73910
vt 0.17650 0.69570
vt 0.17650 0.65220
vt 0.17650 0.60870
vt 0.17650 0.56520
vt 0.17650 0.52170
vt 0.17650 0.47830
vt 0.17650 0.43480
vt 0.17650 0.39130
vt 0.17650 0.34780
vt 0.17650 0.30430
vt 0.17650 0.26090
vt 0.17650 0.21740
vt 0.17650 0.17390
vt 0.17650 0.13040
vt 0.17650 0.08700
vt 0.17650 0.04350
vt 0.02940 0.04350
vt 0.02940 0.08700
vt 0.02940 0.13040
vt 0.02940 0.17390
vt 0.02940 0.21740
vt 0.02940 0.26090
vt 0.02940 0.30430
vt 0.02940 0.34780
vt 0.02940 0.39130
vt 0.02940 0.43480
vt 0.02940 0.47830
vt 0.02940 0.52170
vt 0.02940 0.56520
vt 0.02940 0.60870
vt 0.02940 0.65220
vt 0.02940 0.69570
vt 0.02940 0.73910
vt 0.02940 0.78260
vt 0.02940 0.82610
vt 0.02940 0.86960
vt 0.02940 0.91300
vt 0.02940 0.95650
vt 0.97060 0.95650
vt 0.97060 0.91300
vt 0.97060 0.86960
vt 0.97060 0.82610
vt 0.97060 0.78260
vt 0.97060 0.73910
vt 0.97060 0.69570
vt 0.97060 0.65220
vt 0.97060 0.60870
vt 0.97060 0.56520
vt 0.97060 0.52170
vt 0.97060 0.47830
vt 0.97060 0.43480
vt 0.97060 0.39130
vt 0.97060 0.34780
vt 0.97060 0.30430
vt 0.97060 0.26090
vt 0.97060 0.21740
vt 0.97060 0.17390
vt 0.97060 0.13040
vt 0.97060 0.08700
vt 0.97060 0.04350
vt 0.82350 0.04350
vt 0.82350 0.08700
vt 0.82350 0.13040
vt 0.82350 0.17390
vt 0.82350 0.21740
vt 0.82350 0.26090
vt 0.82350 0.30430
vt 0.82350 0.34780
vt 0.82350 0.39130
vt 0.82350 0.43480
vt 0.82350 0.47830
vt 0.82350 0.52170
vt 0.82350 0.56520
vt 0.82350 0.60870
vt 0.82350 0.65220
vt 0.82350 0.69570
vt 0.82350 0.73910
vt 0.82350 0.78260
vt 0.82350 0.82610
vt 0.82350 0.86960
vt 0.82350 0.91300
vt 0.82350 0.95650
vt 0.50000 0.04350
vt 0.50000 0.08700
vt 0.50000 0.13040
vt 0.50000 0.17390
vt 0.50000 0.21740
vt 0.50000 0.26090
vt 0.50000 0.30430
vt 0.50000 0.34780
vt 0.50000 0.39130
vt 0.50000 0.43480
vt 0.50000 0.47830
vt 0.50000 0.52170
vt 0.50000 0.56520
vt 0.50000 0.60870
vt 0.50000 0.65220
vt 0.50000 0.69570
vt 0.50000 0.73910
vt 0.50000 0.78260
vt 0.50000 0.82610
vt 0.50000 0.86960
vt 0.50000 0.91300
vt 0.50000 0.95650
vt 0.00000 0.04350
vt 0.00000 0.08700
vt 0.00000 0.13040
vt 0.00000 0.17390
vt 0.00000 0.21740
vt 0.00000 0.26090
vt 0.00000 0.30430
vt 0.00000 0.34780
vt 0.00000 0.39130
vt 0.00000 0.43480
vt 0.00000 0.47830
vt 0.00000 0.52170
vt 0.00000 0.56520
vt 0.00000 0.60870
vt 0.00000 0.65220
vt 0.00000 0.69570
vt 0.00000 0.73910
vt 0.00000 0.78260
vt 0.00000 0.82610
vt 0.00000 0.86960
vt 0.00000 0.91300
vt 0.00000 0.95650
vt 1.00000 0.95650
vt 1.00000 0.91300
vt 1.00000 0.86960
vt 1.00000 0.82610
vt 1.00000 0.78260
vt 1.00000 0.73910
vt 1.00000 0.69570
vt 1.00000 0.65220
vt 1.00000 0.60870
vt 1.00000 0.56520
vt 1.00000 0.52170
vt 1.00000 0.47830
vt 1.00000 0.43480
vt 1.00000 0.39130
vt 1.00000 0.34780
vt 1.00000 0.30430
vt 1.00000 0.26090
vt 1.00000 0.21740
vt 1.00000 0.17390
vt 1.00000 0.13040
vt 1.00000 0.08700
vt 1.00000 0.04350
vn -0.09547099 0.99543220 0.00000000
vn 0.28860250 0.95744900 0.00000000
vn -0.28860250 0.95744900 0.00000000
vn 0.09546859 0.99543240 0.00000000
vn 0.00000000 1.00000000 0.00000000
vn 0.00000000 0.99999990 0.00000000
vn 0.00000000 1.00000000 0.00000000
vn 0.00000000 1.00000000 0.00000000
vn 0.00000000 1.00000000 0.00000000
vn 0.00000000 1.00000000 0.00000000
vn -0.72577180 0.68793540 0.00000000
vn -0.72577180 0.68793540 0.00000000
vn 0.72577180 0.68793540 0.00000000
vn 0.72577180 0.68793540 0.00000000
vn 0.00000000 1.00000000 0.00000000
vn 0.00000000 1.00000000 0.00000000
vn 0.00000000 1.00000000 0.00000000
vn 0.00000000 1.00000000 0.00000000
vn 0.00000000 1.00000000 0.00000000
vn 0.00000000 1.00000000 0.00000000
vn 0.00000000 1.00000000 0.00000000
vn 0.00000000 1.00000000 0.00000000
vn 0.00000000 1.00000000 0.00000000
vn 0.00000000 1.00000000 0.00000000
vn 0.00000000 1.00000000 0.00000000
vn 0.00000000 1.00000000 0.00000000
vn 0.00000000 1.00000000 0.00000000
vn 0.00000000 1.00000000 0.00000000
vn 0.00000000 1.00000000 0.00000000
vn 0.00000000 1.00000000 0.00000000
vn 0.00000000 1.00000000 0.00000000
vn 0.00000000 1.00000000 0.00000000
vn 0.00000000 1.00000000 0.00000000
vn 0.00000000 1.00000000 0.00000000
vn 0.00000000 1.00000000 0.00000000
vn 0.00000000 1.00000000 0.00000000
vn -0.17317660 0.98489080 0.00000000
vn -0.17317660 0.98489080 0.00000000
vn -0.17317660 0.98489080 0.00000000
vn -0.17317650 0.98489090 0.00000000
vn -0.17317680 0.98489080 0.00000000
vn -0.17317660 0.98489080 0.00000000
vn -0.17317660 0.98489080 0.00000000
vn -0.17317660 0.98489080 0.00000000
vn -0.17317660 0.98489080 0.00000000
vn -0.17317660 0.98489080 0.00000000
vn -0.17317640 0.98489080 0.00000000
vn -0.17317680 0.98489080 0.00000000
vn -0.17317660 0.98489070 0.00000000
vn -0.17317660 0.98489080 0.00000000
vn -0.17317660 0.98489080 0.00000000
vn -0.17317660 0.98489080 0.00000000
vn -0.17317660 0.98489080 0.00000000
vn -0.17317650 0.98489080 0.00000000
vn -0.17317680 0.98489080 0.00000000
vn -0.17317660 0.98489080 0.00000000
vn -0.17317660 0.98489080 0.00000000
vn -0.17317660 0.98489080 0.00000000
vn 0.17317650 0.98489080 0.00000000
vn 0.17317640 0.98489080 0.00000000
vn 0.17317620 0.98489090 0.00000000
vn 0.17317590 0.98489090 0.00000000
vn 0.17317610 0.98489090 0.00000000
vn 0.17317560 0.98489090 0.00000000
vn 0.17317550 0.98489100 0.00000000
vn 0.17317530 0.98489100 0.00000000
vn 0.17317510 0.98489110 0.00000000
vn 0.17317490 0.98489110 0.00000000
vn 0.17317460 0.98489110 0.00000000
vn 0.17317480 0.98489110 0.00000000
vn 0.17317450 0.98489120 0.00000000
vn 0.17317420 0.98489120 0.00000000
vn 0.17317410 0.98489120 0.00000000
vn 0.17317390 0.98489120 0.00000000
vn 0.17317390 0.98489130 0.00000000
vn 0.17317350 0.98489140 0.00000000
vn 0.17317350 0.98489130 0.00000000
vn 0.17317320 0.98489140 0.00000000
vn 0.17317310 0.98489140 0.00000000
vn 0.17317280 0.98489140 0.00000000
vn 0.00000000 1.00000000 0.00000000
vn 0.00000000 1.00000000 0.00000000
vn 0.00000000 1.00000000 0.00000000
vn 0.00000000 1.00000000 0.00000000
vn 0.00000000 1.00000000 0.00000000
vn 0.00000000 1.00000000 0.00000000
vn 0.00000000 1.00000000 0.00000000
vn 0.00000000 1.00000000 0.00000000
vn 0.00000000 1.00000000 0.00000000
vn 0.00000000 1.00000000 0.00000000
vn 0.00000000 1.00000000 0.00000000
vn 0.00000000 1.00000000 0.00000000
vn 0.00000000 1.00000000 0.00000000
vn 0.00000000 1.00000000 0.00000000
vn 0.00000000 1.00000000 0.00000000
vn 0.00000000 1.00000000 0.00000000
vn 0.00000000 1.00000000 0.00000000
vn 0.00000000 1.00000000 0.00000000
vn 0.00000000 1.00000000 0.00000000
vn 0.00000000 1.00000000 0.00000000
vn 0.00000000 1.00000000 0.00000000
vn 0.00000000 1.00000000 0.00000000
vn 0.00000000 1.00000000 0.00000000
vn 0.00000000 1.00000000 0.00000000
vn 0.00000000 1.00000000 0.00000000
vn 0.00000000 1.00000000 0.00000000
vn 0.00000000 0.99999990 0.00000000
vn 0.00000000 1.00000000 0.00000000
vn 0.00000000 1.00000000 0.00000000
vn 0.00000000 1.00000000 0.00000000
vn 0.00000000 1.00000000 0.00000000
vn 0.00000000 1.00000000 0.00000000
vn 0.00000000 0.99999990 0.00000000
vn 0.00000000 0.99999990 0.00000000
vn 0.00000000 1.00000000 0.00000000
vn 0.00000000 1.00000000 0.00000000
vn 0.00000000 1.00000000 0.00000000
vn 0.00000000 0.99999990 0.00000000
vn 0.00000000 1.00000000 0.00000000
vn 0.00000000 1.00000000 0.00000000
vn 0.00000000 0.99999990 0.00000000
vn 0.00000000 1.00000000 0.00000000
vn 0.00000000 0.99999990 0.00000000
vn 0.00000000 1.00000000 0.00000000
vn -0.72577180 0.68793550 0.00000000
vn -0.72577180 0.68793550 0.00000000
vn -0.72577180 0.68793550 0.00000000
vn -0.72577180 0.68793540 0.00000000
vn -0.72577180 0.68793550 0.00000000
vn -0.72577180 0.68793550 0.00000000
vn -0.72577180 0.68793550 0.00000000
vn -0.72577180 0.68793550 0.00000000
vn -0.72577180 0.68793550 0.00000000
vn -0.72577190 0.68793540 0.00000000
vn -0.72577180 0.68793550 0.00000000
vn -0.72577180 0.68793540 0.00000000
vn -0.72577190 0.68793540 0.00000000
vn -0.72577180 0.68793550 0.00000000
vn -0.72577180 0.68793550 0.00000000
vn -0.72577180 0.68793550 0.00000000
vn -0.72577180 0.68793550 0.00000000
vn -0.72577200 0.68793550 0.00000000
vn -0.72577180 0.68793550 0.00000000
vn -0.72577180 0.68793550 0.00000000
vn -0.72577180 0.68793540 0.00000000
vn -0.72577180 0.68793550 0.00000000
vn 0.72577180 0.68793550 0.00000000
vn 0.72577180 0.68793550 0.00000000
vn 0.72577180 0.68793550 0.00000000
vn 0.72577180 0.68793540 0.00000000
vn 0.72577180 0.68793550 0.00000000
vn 0.72577180 0.68793550 0.00000000
vn 0.72577180 0.68793550 0.00000000
vn 0.72577180 0.68793550 0.00000000
vn 0.72577180 0.68793550 0.00000000
vn 0.72577190 0.68793540 0.00000000
vn 0.72577180 0.68793550 0.00000000
vn 0.72577180 0.68793540 0.00000000
vn 0.72577190 0.68793540 0.00000000
vn 0.72577180 0.68793550 0.00000000
vn 0.72577180 0.68793550 0.00000000
vn 0.72577180 0.68793550 0.00000000
vn 0.72577180 0.68793550 0.00000000
vn 0.72577200 0.68793550 0.00000000
vn 0.72577180 0.68793550 0.00000000
vn 0.72577180 0.68793550 0.00000000
vn 0.72577180 0.68793540 0.00000000
vn 0.72577180 0.68793550 0.00000000
g HIGHWAY_6L_GROUND_0
f 26/26/26 47/47/47 48/48/48
f 48/48/48 25/25/25 26/26/26
f 70/70/70 91/91/91 92/92/92
f 92/92/92 69/69/69 70/70/70
f 91/91/91 113/113/113 114/114/114
f 114/114/114 92/92/92 91/91/91
f 113/113/113 26/26/26 25/25/25
f 25/25/25 114/114/114 113/113/113
f 47/47/47 135/135/135 136/136/136
f 136/136/136 48/48/48 47/47/47
f 69/69/69 157/157/157 158/158/158
f 158/158/158 70/70/70 69/69/69
f 8/8/8 3/3/3 37/37/37
f 37/37/37 36/36/36 8/8/8
f 36/36/36 37/37/37 38/38/38
f 38/38/38 35/35/35 36/36/36
f 35/35/35 38/38/38 39/39/39
f 39/39/39 34/34/34 35/35/35
f 34/34/34 39/39/39 40/40/40
f 40/40/40 33/33/33 34/34/34
f 33/33/33 40/40/40 41/41/41
f 41/41/41 32/32/32 33/33/33
f 32/32/32 41/41/41 42/42/42
f 42/42/42 31/31/31 32/32/32
f 31/31/31 42/42/42 43/43/43
f 43/43/43 30/30/30 31/31/31
f 30/30/30 43/43/43 44/44/44
f 44/44/44 29/29/29 30/30/30
f 29/29/29 44/44/44 45/45/45
f 45/45/45 28/28/28 29/29/29
f 28/28/28 45/45/45 46/46/46
f 46/46/46 27/27/27 28/28/28
f 27/27/27 46/46/46 47/47/47
f 47/47/47 26/26/26 27/27/27
f 1/1/1 7/7/7 15/15/15
f 15/15/15 58/58/58 1/1/1
f 58/58/58 15/15/15 16/16/16
f 16/16/16 57/57/57 58/58/58
f 57/57/57 16/16/16 17/17/17
f 17/17/17 56/56/56 57/57/57
f 56/56/56 17/17/17 18/18/18
f 18/18/18 55/55/55 56/56/56
f 55/55/55 18/18/18 19/19/19
f 19/19/19 54/54/54 55/55/55
f 54/54/54 19/19/19 20/20/20
f 20/20/20 53/53/53 54/54/54
f 53/53/53 20/20/20 21/21/21
f 21/21/21 52/52/52 53/53/53
f 52/52/52 21/21/21 22/22/22
f 22/22/22 51/51/51 52/52/52
f 51/51/51 22/22/22 23/23/23
f 23/23/23 50/50/50 51/51/51
f 50/50/50 23/23/23 24/24/24
f 24/24/24 49/49/49 50/50/50
f 49/49/49 24/24/24 25/25/25
f 25/25/25 48/48/48 49/49/49
f 4/4/4 5/5/5 81/81/81
f 81/81/81 80/80/80 4/4/4
f 80/80/80 81/81/81 82/82/82
f 82/82/82 79/79/79 80/80/80
f 79/79/79 82/82/82 83/83/83
f 83/83/83 78/78/78 79/79/79
f 78/78/78 83/83/83 84/84/84
f 84/84/84 77/77/77 78/78/78
f 77/77/77 84/84/84 85/85/85
f 85/85/85 76/76/76 77/77/77
f 76/76/76 85/85/85 86/86/86
f 86/86/86 75/75/75 76/76/76
f 75/75/75 86/86/86 87/87/87
f 87/87/87 74/74/74 75/75/75
f 74/74/74 87/87/87 88/88/88
f 88/88/88 73/73/73 74/74/74
f 73/73/73 88/88/88 89/89/89
f 89/89/89 72/72/72 73/73/73
f 72/72/72 89/89/89 90/90/90
f 90/90/90 71/71/71 72/72/72
f 71/71/71 90/90/90 91/91/91
f 91/91/91 70/70/70 71/71/71
f 6/6/6 2/2/2 59/59/59
f 59/59/59 102/102/102 6/6/6
f 102/102/102 59/59/59 60/60/60
f 60/60/60 101/101/101 102/102/102
f 101/101/101 60/60/60 61/61/61
f 61/61/61 100/100/100 101/101/101
f 100/100/100 61/61/61 62/62/62
f 62/62/62 99/99/99 100/100/100
f 99/99/99 62/62/62 63/63/63
f 63/63/63 98/98/98 99/99/99
f 98/98/98 63/63/63 64/64/64
f 64/64/64 97/97/97 98/98/98
f 97/97/97 64/64/64 65/65/65
f 65/65/65 96/96/96 97/97/97
f 96/96/96 65/65/65 66/66/66
f 66/66/66 95/95/95 96/96/96
f 95/95/95 66/66/66 67/67/67
f 67/67/67 94/94/94 95/95/95
f 94/94/94 67/67/67 68/68/68
f 68/68/68 93/93/93 94/94/94
f 93/93/93 68/68/68 69/69/69
f 69/69/69 92/92/92 93/93/93
f 5/5/5 9/9/9 103/103/103
f 103/103/103 81/81/81 5/5/5
f 81/81/81 103/103/103 104/104/104
f 104/104/104 82/82/82 81/81/81
f 82/82/82 104/104/104 105/105/105
f 105/105/105 83/83/83 82/82/82
f 83/83/83 105/105/105 106/106/106
f 106/106/106 84/84/84 83/83/83
f 84/84/84 106/106/106 107/107/107
f 107/107/107 85/85/85 84/84/84
f 85/85/85 107/107/107 108/108/108
f 108/108/108 86/86/86 85/85/85
f 86/86/86 108/108/108 109/109/109
f 109/109/109 87/87/87 86/86/86
f 87/87/87 109/109/109 110/110/110
f 110/110/110 88/88/88 87/87/87
f 88/88/88 110/110/110 111/111/111
f 111/111/111 89/89/89 88/88/88
f 89/89/89 111/111/111 112/112/112
f 112/112/112 90/90/90 89/89/89
f 90/90/90 112/112/112 113/113/113
f 113/113/113 91/91/91 90/90/90
f 10/10/10 6/6/6 102/102/102
f 102/102/102 124/124/124 10/10/10
f 124/124/124 102/102/102 101/101/101
f 101/101/101 123/123/123 124/124/124
f 123/123/123 101/101/101 100/100/100
f 100/100/100 122/122/122 123/123/123
f 122/122/122 100/100/100 99/99/99
f 99/99/99 121/121/121 122/122/122
f 121/121/121 99/99/99 98/98/98
f 98/98/98 120/120/120 121/121/121
f 120/120/120 98/98/98 97/97/97
f 97/97/97 119/119/119 120/120/120
f 119/119/119 97/97/97 96/96/96
f 96/96/96 118/118/118 119/119/119
f 118/118/118 96/96/96 95/95/95
f 95/95/95 117/117/117 118/118/118
f 117/117/117 95/95/95 94/94/94
f 94/94/94 116/116/116 117/117/117
f 116/116/116 94/94/94 93/93/93
f 93/93/93 115/115/115 116/116/116
f 115/115/115 93/93/93 92/92/92
f 92/92/92 114/114/114 115/115/115
f 9/9/9 8/8/8 36/36/36
f 36/36/36 103/103/103 9/9/9
f 103/103/103 36/36/36 35/35/35
f 35/35/35 104/104/104 103/103/103
f 104/104/104 35/35/35 34/34/34
f 34/34/34 105/105/105 104/104/104
f 105/105/105 34/34/34 33/33/33
f 33/33/33 106/106/106 105/105/105
f 106/106/106 33/33/33 32/32/32
f 32/32/32 107/107/107 106/106/106
f 107/107/107 32/32/32 31/31/31
f 31/31/31 108/108/108 107/107/107
f 108/108/108 31/31/31 30/30/30
f 30/30/30 109/109/109 108/108/108
f 109/109/109 30/30/30 29/29/29
f 29/29/29 110/110/110 109/109/109
f 110/110/110 29/29/29 28/28/28
f 28/28/28 111/111/111 110/110/110
f 111/111/111 28/28/28 27/27/27
f 27/27/27 112/112/112 111/111/111
f 112/112/112 27/27/27 26/26/26
f 26/26/26 113/113/113 112/112/112
f 7/7/7 10/10/10 124/124/124
f 124/124/124 15/15/15 7/7/7
f 15/15/15 124/124/124 123/123/123
f 123/123/123 16/16/16 15/15/15
f 16/16/16 123/123/123 122/122/122
f 122/122/122 17/17/17 16/16/16
f 17/17/17 122/122/122 121/121/121
f 121/121/121 18/18/18 17/17/17
f 18/18/18 121/121/121 120/120/120
f 120/120/120 19/19/19 18/18/18
f 19/19/19 120/120/120 119/119/119
f 119/119/119 20/20/20 19/19/19
f 20/20/20 119/119/119 118/118/118
f 118/118/118 21/21/21 20/20/20
f 21/21/21 118/118/118 117/117/117
f 117/117/117 22/22/22 21/21/21
f 22/22/22 117/117/117 116/116/116
f 116/116/116 23/23/23 22/22/22
f 23/23/23 116/116/116 115/115/115
f 115/115/115 24/24/24 23/23/23
f 24/24/24 115/115/115 114/114/114
f 114/114/114 25/25/25 24/24/24
f 3/3/3 11/11/11 125/125/125
f 125/125/125 37/37/37 3/3/3
f 37/37/37 125/125/125 126/126/126
f 126/126/126 38/38/38 37/37/37
f 38/38/38 126/126/126 127/127/127
f 127/127/127 39/39/39 38/38/38
f 39/39/39 127/127/127 128/128/128
f 128/128/128 40/40/40 39/39/39
f 40/40/40 128/128/128 129/129/129
f 129/129/129 41/41/41 40/40/40
f 41/41/41 129/129/129 130/130/130
f 130/130/130 42/42/42 41/41/41
f 42/42/42 130/130/130 131/131/131
f 131/131/131 43/43/43 42/42/42
f 43/43/43 131/131/131 132/132/132
f 132/132/132 44/44/44 43/43/43
f 44/44/44 132/132/132 133/133/133
f 133/133/133 45/45/45 44/44/44
f 45/45/45 133/133/133 134/134/134
f 134/134/134 46/46/46 45/45/45
f 46/46/46 134/134/134 135/135/135
f 135/135/135 47/47/47 46/46/46
f 12/12/12 1/1/1 58/58/58
f 58/58/58 146/146/146 12/12/12
f 146/146/146 58/58/58 57/57/57
f 57/57/57 145/145/145 146/146/146
f 145/145/145 57/57/57 56/56/56
f 56/56/56 144/144/144 145/145/145
f 144/144/144 56/56/56 55/55/55
f 55/55/55 143/143/143 144/144/144
f 143/143/143 55/55/55 54/54/54
f 54/54/54 142/142/142 143/143/143
f 142/142/142 54/54/54 53/53/53
f 53/53/53 141/141/141 142/142/142
f 141/141/141 53/53/53 52/52/52
f 52/52/52 140/140/140 141/141/141
f 140/140/140 52/52/52 51/51/51
f 51/51/51 139/139/139 140/140/140
f 139/139/139 51/51/51 50/50/50
f 50/50/50 138/138/138 139/139/139
f 138/138/138 50/50/50 49/49/49
f 49/49/49 137/137/137 138/138/138
f 137/137/137 49/49/49 48/48/48
f 48/48/48 136/136/136 137/137/137
f 2/2/2 13/13/13 147/147/147
f 147/147/147 59/59/59 2/2/2
f 59/59/59 147/147/147 148/148/148
f 148/148/148 60/60/60 59/59/59
f 60/60/60 148/148/148 149/149/149
f 149/149/149 61/61/61 60/60/60
f 61/61/61 149/149/149 150/150/150
f 150/150/150 62/62/62 61/61/61
f 62/62/62 150/150/150 151/151/151
f 151/151/151 63/63/63 62/62/62
f 63/63/63 151/151/151 152/152/152
f 152/152/152 64/64/64 63/63/63
f 64/64/64 152/152/152 153/153/153
f 153/153/153 65/65/65 64/64/64
f 65/65/65 153/153/153 154/154/154
f 154/154/154 66/66/66 65/65/65
f 66/66/66 154/154/154 155/155/155
f 155/155/155 67/67/67 66/66/66
f 67/67/67 155/155/155 156/156/156
f 156/156/156 68/68/68 67/67/67
f 68/68/68 156/156/156 157/157/157
f 157/157/157 69/69/69 68/68/68
f 14/14/14 4/4/4 80/80/80
f 80/80/80 168/168/168 14/14/14
f 168/168/168 80/80/80 79/79/79
f 79/79/79 167/167/167 168/168/168
f 167/167/167 79/79/79 78/78/78
f 78/78/78 166/166/166 167/167/167
f 166/166/166 78/78/78 77/77/77
f 77/77/77 165/165/165 166/166/166
f 165/165/165 77/77/77 76/76/76
f 76/76/76 164/164/164 165/165/165
f 164/164/164 76/76/76 75/75/75
f 75/75/75 163/163/163 164/164/164
f 163/163/163 75/75/75 74/74/74
f 74/74/74 162/162/162 163/163/163
f 162/162/162 74/74/74 73/73/73
f 73/73/73 161/161/161 162/162/162
f 161/161/161 73/73/73 72/72/72
f 72/72/72 160/160/160 161/161/161
f 160/160/160 72/72/72 71/71/71
f 71/71/71 159/159/159 160/160/160
f 159/159/159 71/71/71 70/70/70
f 70/70/70 158/158/158 159/159/159
