# 3ds Max Wavefront OBJ Exporter v0.97b - (c)2007 guruware
# File Created: 12.09.2015 14:18:59

#
# object default
#

v  0.00000 0.00000 -0.00000
v  16.00001 0.00000 -32.00000
v  -16.00000 0.00000 -32.00000
v  -12.00000 0.00000 -0.00000
v  12.00000 0.00000 0.00000
v  16.00000 0.00000 -0.00000
v  -16.00000 0.00000 -0.00000
v  12.00000 -0.29991 32.00000
v  16.00000 -0.30000 32.00000
v  -0.00000 -0.30000 32.00000
v  -12.00000 -0.30000 32.00000
v  -16.00001 -0.30000 32.00000
# 12 vertices

vn 0.00000 1.00000 0.00470
vn 0.00000 1.00000 -0.00000
vn 0.00010 1.00000 0.00470
vn 0.00100 1.00000 0.00950
vn 0.00230 0.99990 0.00970
vn 0.00000 1.00000 0.00940
# 6 vertex normals

vt 0.50000 0.50000 0.00000
vt 0.00000 1.00000 0.00000
vt 1.00000 1.00000 0.00000
vt 0.84375 0.50000 0.00000
vt 0.15625 0.50000 0.00000
vt 0.00000 0.50000 0.00000
vt 1.00000 0.50000 0.00000
vt 0.15625 0.00000 0.00000
vt 0.00000 0.00000 0.00000
vt 0.50000 0.00000 0.00000
vt 0.84375 0.00000 0.00000
vt 1.00000 0.00000 0.00000
# 12 texture coords

g default
f 1/1/1 2/2/2 3/3/2 
f 3/3/2 4/4/1 1/1/1 
f 1/1/1 5/5/1 2/2/2 
f 2/2/2 5/5/1 6/6/3 
f 7/7/1 4/4/1 3/3/2 
f 5/5/1 8/8/4 6/6/3 
f 6/6/3 8/8/4 9/9/5 
f 10/10/6 8/8/4 5/5/1 
f 10/10/6 5/5/1 1/1/1 
f 1/1/1 11/11/6 10/10/6 
f 4/4/1 11/11/6 1/1/1 
f 12/12/6 11/11/6 4/4/1 
f 12/12/6 4/4/1 7/7/1 
# 13 faces

