# 3ds Max Wavefront OBJ Exporter v0.97b - (c)2007 guruware
# File Created: 25.09.2015 22:25:23

#
# object Plane005
#

v  -14.15000 1.00000 -0.00000
v  -15.85000 1.00000 -0.00000
v  -15.85000 1.00000 2.66250
v  -14.15000 1.00000 2.66250
v  14.15000 -0.00000 -0.00000
v  -0.00000 -0.00000 -0.00000
v  -0.00000 -0.00000 2.66666
v  14.15000 -0.00000 2.66666
v  14.15000 1.00000 -0.00000
v  15.85000 1.00000 -0.00000
v  15.85000 1.00000 -2.66250
v  14.15000 1.00000 -2.66250
v  -14.15000 -0.00000 -0.00000
v  -0.00000 -0.00000 -2.66667
v  -14.15000 -0.00000 -2.66666
v  -15.85000 -0.00000 -0.00000
v  -15.85000 -0.00000 2.66666
v  -15.85000 -0.00000 32.00000
v  -14.15000 -0.00000 32.00000
v  -14.15000 1.00000 31.95000
v  -15.85000 1.00000 31.95000
v  -14.15000 1.00000 -2.66250
v  -14.15000 -0.00000 -32.00000
v  -15.85000 0.00000 -32.00000
v  -15.85000 1.00000 -31.95000
v  -14.15000 1.00000 -31.95000
v  15.85000 -0.00000 -0.00000
v  15.85000 -0.00000 -2.66666
v  15.85000 0.00000 -32.00000
v  14.15000 -0.00000 -32.00000
v  14.15000 1.00000 -31.95000
v  15.85000 1.00000 -31.95000
v  14.15000 1.00000 2.66250
v  14.15000 -0.00000 32.00000
v  15.85000 -0.00000 32.00000
v  15.85000 1.00000 31.95000
v  14.15000 1.00000 31.95000
v  -15.85000 1.00000 -29.28750
v  -14.15000 1.00000 -29.28750
v  -15.85000 1.00000 -26.62500
v  -14.15000 1.00000 -26.62500
v  -15.85000 1.00000 -23.96250
v  -14.15000 1.00000 -23.96250
v  -15.85000 1.00000 -21.30000
v  -14.15000 1.00000 -21.30000
v  -15.85000 1.00000 -18.63750
v  -14.15000 1.00000 -18.63750
v  -15.85000 1.00000 -15.97500
v  -14.15000 1.00000 -15.97500
v  -15.85000 1.00000 -13.31250
v  -14.15000 1.00000 -13.31250
v  -15.85000 1.00000 -10.65000
v  -14.15000 1.00000 -10.65000
v  -15.85000 1.00000 -7.98750
v  -14.15000 1.00000 -7.98750
v  -15.85000 1.00000 -5.32500
v  -14.15000 1.00000 -5.32500
v  -15.85000 1.00000 -2.66250
v  -14.15000 1.00000 29.28750
v  -15.85000 1.00000 29.28750
v  -14.15000 1.00000 26.62500
v  -15.85000 1.00000 26.62500
v  -14.15000 1.00000 23.96250
v  -15.85000 1.00000 23.96250
v  -14.15000 1.00000 21.30000
v  -15.85000 1.00000 21.30000
v  -14.15000 1.00000 18.63750
v  -15.85000 1.00000 18.63750
v  -14.15000 1.00000 15.97500
v  -15.85000 1.00000 15.97500
v  -14.15000 1.00000 13.31250
v  -15.85000 1.00000 13.31250
v  -14.15000 1.00000 10.65000
v  -15.85000 1.00000 10.65000
v  -14.15000 1.00000 7.98750
v  -15.85000 1.00000 7.98750
v  -14.15000 1.00000 5.32500
v  -15.85000 1.00000 5.32500
v  0.00000 0.00000 -32.00000
v  -0.00000 -0.00000 -29.33333
v  14.15000 -0.00000 -29.33333
v  -0.00000 -0.00000 -26.66667
v  14.15000 -0.00000 -26.66667
v  -0.00000 -0.00000 -24.00000
v  14.15000 -0.00000 -24.00000
v  -0.00000 -0.00000 -21.33333
v  14.15000 -0.00000 -21.33333
v  -0.00000 -0.00000 -18.66667
v  14.15000 -0.00000 -18.66667
v  -0.00000 -0.00000 -16.00000
v  14.15000 -0.00000 -16.00000
v  -0.00000 -0.00000 -13.33333
v  14.15000 -0.00000 -13.33333
v  -0.00000 -0.00000 -10.66667
v  14.15000 -0.00000 -10.66667
v  -0.00000 -0.00000 -8.00000
v  14.15000 -0.00000 -8.00000
v  -0.00000 -0.00000 -5.33333
v  14.15000 -0.00000 -5.33333
v  14.15000 -0.00000 -2.66667
v  -0.00000 -0.00000 32.00000
v  14.15000 -0.00000 29.33334
v  -0.00000 -0.00000 29.33334
v  14.15000 -0.00000 26.66666
v  -0.00000 -0.00000 26.66666
v  14.15000 -0.00000 24.00000
v  -0.00000 -0.00000 24.00000
v  14.15000 -0.00000 21.33334
v  -0.00000 -0.00000 21.33334
v  14.15000 -0.00000 18.66666
v  -0.00000 -0.00000 18.66666
v  14.15000 -0.00000 16.00000
v  -0.00000 -0.00000 16.00000
v  14.15000 -0.00000 13.33334
v  -0.00000 -0.00000 13.33334
v  14.15000 -0.00000 10.66666
v  -0.00000 -0.00000 10.66666
v  14.15000 -0.00000 8.00000
v  -0.00000 -0.00000 8.00000
v  14.15000 -0.00000 5.33334
v  -0.00000 -0.00000 5.33334
v  15.85000 1.00000 29.28750
v  14.15000 1.00000 29.28750
v  15.85000 1.00000 26.62500
v  14.15000 1.00000 26.62500
v  15.85000 1.00000 23.96250
v  14.15000 1.00000 23.96250
v  15.85000 1.00000 21.30000
v  14.15000 1.00000 21.30000
v  15.85000 1.00000 18.63750
v  14.15000 1.00000 18.63750
v  15.85000 1.00000 15.97500
v  14.15000 1.00000 15.97500
v  15.85000 1.00000 13.31250
v  14.15000 1.00000 13.31250
v  15.85000 1.00000 10.65000
v  14.15000 1.00000 10.65000
v  15.85000 1.00000 7.98750
v  14.15000 1.00000 7.98750
v  15.85000 1.00000 5.32500
v  14.15000 1.00000 5.32500
v  15.85000 1.00000 2.66250
v  14.15000 1.00000 -29.28750
v  15.85000 1.00000 -29.28750
v  14.15000 1.00000 -26.62500
v  15.85000 1.00000 -26.62500
v  14.15000 1.00000 -23.96250
v  15.85000 1.00000 -23.96250
v  14.15000 1.00000 -21.30000
v  15.85000 1.00000 -21.30000
v  14.15000 1.00000 -18.63750
v  15.85000 1.00000 -18.63750
v  14.15000 1.00000 -15.97500
v  15.85000 1.00000 -15.97500
v  14.15000 1.00000 -13.31250
v  15.85000 1.00000 -13.31250
v  14.15000 1.00000 -10.65000
v  15.85000 1.00000 -10.65000
v  14.15000 1.00000 -7.98750
v  15.85000 1.00000 -7.98750
v  14.15000 1.00000 -5.32500
v  15.85000 1.00000 -5.32500
v  -14.15000 -0.00000 29.33333
v  -14.15000 -0.00000 26.66667
v  -14.15000 -0.00000 24.00000
v  -14.15000 -0.00000 21.33333
v  -14.15000 -0.00000 18.66667
v  -14.15000 -0.00000 16.00000
v  -14.15000 -0.00000 13.33333
v  -14.15000 -0.00000 10.66667
v  -14.15000 -0.00000 8.00000
v  -14.15000 -0.00000 5.33333
v  -14.15000 -0.00000 2.66667
v  -14.15000 -0.00000 -29.33334
v  -14.15000 -0.00000 -26.66666
v  -14.15000 -0.00000 -24.00000
v  -14.15000 -0.00000 -21.33334
v  -14.15000 -0.00000 -18.66666
v  -14.15000 -0.00000 -16.00000
v  -14.15000 -0.00000 -13.33334
v  -14.15000 -0.00000 -10.66666
v  -14.15000 -0.00000 -8.00000
v  -14.15000 -0.00000 -5.33334
v  -15.85000 -0.00000 -29.33333
v  -15.85000 -0.00000 -26.66667
v  -15.85000 -0.00000 -24.00000
v  -15.85000 -0.00000 -21.33333
v  -15.85000 -0.00000 -18.66667
v  -15.85000 -0.00000 -16.00000
v  -15.85000 -0.00000 -13.33333
v  -15.85000 -0.00000 -10.66667
v  -15.85000 -0.00000 -8.00000
v  -15.85000 -0.00000 -5.33333
v  -15.85000 -0.00000 -2.66667
v  -15.85000 -0.00000 29.33334
v  -15.85000 -0.00000 26.66666
v  -15.85000 -0.00000 24.00000
v  -15.85000 -0.00000 21.33334
v  -15.85000 -0.00000 18.66666
v  -15.85000 -0.00000 16.00000
v  -15.85000 -0.00000 13.33334
v  -15.85000 -0.00000 10.66666
v  -15.85000 -0.00000 8.00000
v  -15.85000 -0.00000 5.33334
v  15.85000 -0.00000 29.33333
v  15.85000 -0.00000 26.66667
v  15.85000 -0.00000 24.00000
v  15.85000 -0.00000 21.33333
v  15.85000 -0.00000 18.66667
v  15.85000 -0.00000 16.00000
v  15.85000 -0.00000 13.33333
v  15.85000 -0.00000 10.66667
v  15.85000 -0.00000 8.00000
v  15.85000 -0.00000 5.33333
v  15.85000 -0.00000 2.66667
v  15.85000 0.00000 -29.33334
v  15.85000 -0.00000 -26.66666
v  15.85000 -0.00000 -24.00000
v  15.85000 -0.00000 -21.33334
v  15.85000 -0.00000 -18.66666
v  15.85000 -0.00000 -16.00000
v  15.85000 -0.00000 -13.33334
v  15.85000 -0.00000 -10.66666
v  15.85000 -0.00000 -8.00000
v  15.85000 -0.00000 -5.33334
# 225 vertices

vn -0.00000 1.00000 0.00000
vn 0.00000 1.00000 0.00000
vn -1.00000 0.00000 -0.00000
vn -0.00000 0.04994 0.99875
vn 0.00000 0.04994 0.99875
vn 1.00000 0.00000 -0.00000
vn 0.00000 0.04994 -0.99875
vn -0.00000 0.04994 -0.99875
vn 0.00000 1.00000 -0.00000
vn -0.00000 1.00000 -0.00000
# 10 vertex normals

vt 0.11354 0.50028 0.00000
vt 0.07823 0.50029 0.00000
vt 0.07825 0.45863 0.00000
vt 0.11356 0.45863 0.00000
vt 0.13178 0.49995 0.00000
vt 0.37932 0.50004 0.00000
vt 0.37933 0.45838 0.00000
vt 0.13180 0.45830 0.00000
vt 0.13200 0.50003 0.00000
vt 0.37932 0.54169 0.00000
vt 0.13201 0.54169 0.00000
vt 0.07847 0.00042 0.00000
vt 0.11378 0.00042 0.00000
vt 0.11352 0.54194 0.00000
vt 0.11331 1.00015 0.00000
vt 0.07800 1.00016 0.00000
vt 0.07802 0.95850 0.00000
vt 0.11333 0.95850 0.00000
vt 0.07804 0.91685 0.00000
vt 0.11335 0.91684 0.00000
vt 0.07806 0.87519 0.00000
vt 0.11337 0.87519 0.00000
vt 0.07808 0.83353 0.00000
vt 0.11339 0.83353 0.00000
vt 0.07809 0.79188 0.00000
vt 0.11341 0.79187 0.00000
vt 0.07811 0.75022 0.00000
vt 0.11343 0.75022 0.00000
vt 0.07813 0.70857 0.00000
vt 0.11345 0.70856 0.00000
vt 0.07815 0.66691 0.00000
vt 0.11347 0.66691 0.00000
vt 0.07817 0.62526 0.00000
vt 0.11349 0.62525 0.00000
vt 0.07819 0.58360 0.00000
vt 0.11351 0.58360 0.00000
vt 0.07821 0.54195 0.00000
vt 0.11376 0.04207 0.00000
vt 0.07845 0.04208 0.00000
vt 0.11374 0.08373 0.00000
vt 0.07843 0.08373 0.00000
vt 0.11372 0.12538 0.00000
vt 0.07841 0.12539 0.00000
vt 0.11370 0.16704 0.00000
vt 0.07839 0.16704 0.00000
vt 0.11368 0.20869 0.00000
vt 0.07837 0.20870 0.00000
vt 0.11366 0.25035 0.00000
vt 0.07835 0.25036 0.00000
vt 0.11364 0.29201 0.00000
vt 0.07833 0.29201 0.00000
vt 0.11362 0.33366 0.00000
vt 0.07831 0.33367 0.00000
vt 0.11360 0.37532 0.00000
vt 0.07829 0.37532 0.00000
vt 0.11358 0.41697 0.00000
vt 0.07827 0.41698 0.00000
vt 0.13156 0.99983 0.00000
vt 0.37923 0.99995 0.00000
vt 0.37924 0.95829 0.00000
vt 0.13158 0.95817 0.00000
vt 0.37924 0.91663 0.00000
vt 0.13160 0.91651 0.00000
vt 0.37925 0.87497 0.00000
vt 0.13162 0.87486 0.00000
vt 0.37926 0.83331 0.00000
vt 0.13163 0.83320 0.00000
vt 0.37927 0.79165 0.00000
vt 0.13165 0.79154 0.00000
vt 0.37928 0.74999 0.00000
vt 0.13167 0.74989 0.00000
vt 0.37928 0.70833 0.00000
vt 0.13169 0.70823 0.00000
vt 0.37929 0.66667 0.00000
vt 0.13171 0.66658 0.00000
vt 0.37930 0.62501 0.00000
vt 0.13172 0.62492 0.00000
vt 0.37931 0.58335 0.00000
vt 0.13174 0.58326 0.00000
vt 0.13176 0.54161 0.00000
vt 0.37942 0.00012 0.00000
vt 0.13200 0.00008 0.00000
vt 0.13198 0.04173 0.00000
vt 0.37941 0.04178 0.00000
vt 0.13196 0.08339 0.00000
vt 0.37940 0.08344 0.00000
vt 0.13194 0.12505 0.00000
vt 0.37939 0.12510 0.00000
vt 0.13192 0.16670 0.00000
vt 0.37939 0.16676 0.00000
vt 0.13191 0.20836 0.00000
vt 0.37938 0.20842 0.00000
vt 0.13189 0.25001 0.00000
vt 0.37937 0.25008 0.00000
vt 0.13187 0.29167 0.00000
vt 0.37936 0.29174 0.00000
vt 0.13185 0.33333 0.00000
vt 0.37935 0.33340 0.00000
vt 0.13183 0.37498 0.00000
vt 0.37935 0.37506 0.00000
vt 0.13182 0.41664 0.00000
vt 0.37934 0.41672 0.00000
vt 0.13198 0.00007 0.00000
vt 0.13198 0.08340 0.00000
vt 0.13198 0.12506 0.00000
vt 0.13199 0.16672 0.00000
vt 0.13199 0.20839 0.00000
vt 0.13199 0.25005 0.00000
vt 0.13199 0.29171 0.00000
vt 0.13199 0.33338 0.00000
vt 0.13200 0.37504 0.00000
vt 0.13200 0.41670 0.00000
vt 0.13200 0.45837 0.00000
vt 0.13203 0.99999 0.00000
vt 0.13203 0.95833 0.00000
vt 0.13203 0.91666 0.00000
vt 0.13202 0.87500 0.00000
vt 0.13202 0.83334 0.00000
vt 0.13202 0.79167 0.00000
vt 0.13202 0.75001 0.00000
vt 0.13201 0.70835 0.00000
vt 0.13201 0.66668 0.00000
vt 0.13201 0.62502 0.00000
vt 0.13201 0.58336 0.00000
# 124 texture coords

g Plane005
f 1/1/1 2/2/1 3/3/1 
f 3/3/1 4/4/1 1/1/1 
f 5/5/2 6/6/2 7/7/2 
f 7/7/2 8/8/2 5/5/2 
f 9/1/1 10/2/1 11/3/1 
f 11/3/1 12/4/1 9/1/1 
f 13/9/1 6/6/2 14/10/2 
f 14/10/2 15/11/1 13/9/1 
f 2/2/3 16/2/3 17/3/3 
f 17/3/3 3/3/3 2/2/3 
f 18/12/4 19/13/4 20/13/4 
f 20/13/5 21/12/5 18/12/5 
f 1/1/6 13/1/6 15/14/6 
f 15/14/6 22/14/6 1/1/6 
f 23/15/7 24/16/7 25/16/7 
f 25/16/7 26/15/7 23/15/7 
f 10/2/6 27/2/6 28/3/6 
f 28/3/6 11/3/6 10/2/6 
f 29/12/8 30/13/8 31/13/8 
f 31/13/8 32/12/8 29/12/8 
f 9/1/3 5/1/3 8/14/3 
f 8/14/3 33/14/3 9/1/3 
f 34/15/5 35/16/5 36/16/5 
f 36/16/4 37/15/4 34/15/4 
f 26/15/2 25/16/2 38/17/2 
f 38/17/2 39/18/1 26/15/2 
f 39/18/1 38/17/2 40/19/1 
f 40/19/1 41/20/2 39/18/1 
f 41/20/2 40/19/1 42/21/2 
f 42/21/2 43/22/2 41/20/2 
f 43/22/2 42/21/2 44/23/2 
f 44/23/2 45/24/1 43/22/2 
f 45/24/1 44/23/2 46/25/1 
f 46/25/1 47/26/1 45/24/1 
f 47/26/1 46/25/1 48/27/1 
f 48/27/1 49/28/2 47/26/1 
f 49/28/2 48/27/1 50/29/2 
f 50/29/2 51/30/2 49/28/2 
f 51/30/2 50/29/2 52/31/2 
f 52/31/2 53/32/1 51/30/2 
f 53/32/1 52/31/2 54/33/1 
f 54/33/1 55/34/1 53/32/1 
f 55/34/1 54/33/1 56/35/1 
f 56/35/1 57/36/1 55/34/1 
f 57/36/1 56/35/1 58/37/1 
f 58/37/1 22/14/1 57/36/1 
f 22/14/1 58/37/1 2/2/1 
f 2/2/1 1/1/1 22/14/1 
f 21/12/2 20/13/2 59/38/2 
f 59/38/2 60/39/1 21/12/2 
f 60/39/1 59/38/2 61/40/1 
f 61/40/1 62/41/2 60/39/1 
f 62/41/2 61/40/1 63/42/2 
f 63/42/2 64/43/2 62/41/2 
f 64/43/2 63/42/2 65/44/2 
f 65/44/2 66/45/1 64/43/2 
f 66/45/1 65/44/2 67/46/1 
f 67/46/1 68/47/1 66/45/1 
f 68/47/1 67/46/1 69/48/1 
f 69/48/1 70/49/2 68/47/1 
f 70/49/2 69/48/1 71/50/2 
f 71/50/2 72/51/2 70/49/2 
f 72/51/2 71/50/2 73/52/2 
f 73/52/2 74/53/1 72/51/2 
f 74/53/1 73/52/2 75/54/1 
f 75/54/1 76/55/1 74/53/1 
f 76/55/1 75/54/1 77/56/1 
f 77/56/1 78/57/1 76/55/1 
f 78/57/1 77/56/1 4/4/1 
f 4/4/1 3/3/1 78/57/1 
f 30/58/2 79/59/2 80/60/2 
f 80/60/2 81/61/2 30/58/2 
f 81/61/2 80/60/2 82/62/2 
f 82/62/2 83/63/2 81/61/2 
f 83/63/2 82/62/2 84/64/2 
f 84/64/2 85/65/2 83/63/2 
f 85/65/2 84/64/2 86/66/2 
f 86/66/2 87/67/2 85/65/2 
f 87/67/2 86/66/2 88/68/2 
f 88/68/2 89/69/2 87/67/2 
f 89/69/2 88/68/2 90/70/2 
f 90/70/2 91/71/2 89/69/2 
f 91/71/2 90/70/2 92/72/2 
f 92/72/2 93/73/2 91/71/2 
f 93/73/2 92/72/2 94/74/2 
f 94/74/2 95/75/2 93/73/2 
f 95/75/2 94/74/2 96/76/2 
f 96/76/2 97/77/2 95/75/2 
f 97/77/2 96/76/2 98/78/2 
f 98/78/2 99/79/2 97/77/2 
f 99/79/2 98/78/2 14/10/2 
f 14/10/2 100/80/2 99/79/2 
f 100/80/2 14/10/2 6/6/2 
f 6/6/2 5/5/2 100/80/2 
f 101/81/2 34/82/9 102/83/2 
f 102/83/2 103/84/2 101/81/2 
f 103/84/2 102/83/2 104/85/2 
f 104/85/2 105/86/2 103/84/2 
f 105/86/2 104/85/2 106/87/2 
f 106/87/2 107/88/2 105/86/2 
f 107/88/2 106/87/2 108/89/2 
f 108/89/2 109/90/2 107/88/2 
f 109/90/2 108/89/2 110/91/2 
f 110/91/2 111/92/2 109/90/2 
f 111/92/2 110/91/2 112/93/2 
f 112/93/2 113/94/2 111/92/2 
f 113/94/2 112/93/2 114/95/2 
f 114/95/2 115/96/2 113/94/2 
f 115/96/2 114/95/2 116/97/2 
f 116/97/2 117/98/2 115/96/2 
f 117/98/2 116/97/2 118/99/2 
f 118/99/2 119/100/2 117/98/2 
f 119/100/2 118/99/2 120/101/2 
f 120/101/2 121/102/2 119/100/2 
f 121/102/2 120/101/2 8/8/2 
f 8/8/2 7/7/2 121/102/2 
f 37/15/1 36/16/1 122/17/1 
f 122/17/1 123/18/1 37/15/1 
f 123/18/1 122/17/1 124/19/1 
f 124/19/1 125/20/1 123/18/1 
f 125/20/1 124/19/1 126/21/1 
f 126/21/1 127/22/1 125/20/1 
f 127/22/1 126/21/1 128/23/1 
f 128/23/1 129/24/1 127/22/1 
f 129/24/1 128/23/1 130/25/1 
f 130/25/1 131/26/1 129/24/1 
f 131/26/1 130/25/1 132/27/1 
f 132/27/1 133/28/1 131/26/1 
f 133/28/1 132/27/1 134/29/1 
f 134/29/1 135/30/1 133/28/1 
f 135/30/1 134/29/1 136/31/1 
f 136/31/1 137/32/1 135/30/1 
f 137/32/1 136/31/1 138/33/1 
f 138/33/1 139/34/1 137/32/1 
f 139/34/1 138/33/1 140/35/1 
f 140/35/1 141/36/1 139/34/1 
f 141/36/1 140/35/1 142/37/1 
f 142/37/1 33/14/1 141/36/1 
f 33/14/1 142/37/1 10/2/1 
f 10/2/1 9/1/1 33/14/1 
f 32/12/1 31/13/1 143/38/1 
f 143/38/1 144/39/1 32/12/1 
f 144/39/1 143/38/1 145/40/1 
f 145/40/1 146/41/1 144/39/1 
f 146/41/1 145/40/1 147/42/1 
f 147/42/1 148/43/1 146/41/1 
f 148/43/1 147/42/1 149/44/1 
f 149/44/1 150/45/1 148/43/1 
f 150/45/1 149/44/1 151/46/1 
f 151/46/1 152/47/1 150/45/1 
f 152/47/1 151/46/1 153/48/1 
f 153/48/1 154/49/1 152/47/1 
f 154/49/1 153/48/1 155/50/1 
f 155/50/1 156/51/1 154/49/1 
f 156/51/1 155/50/1 157/52/1 
f 157/52/1 158/53/1 156/51/1 
f 158/53/1 157/52/1 159/54/1 
f 159/54/1 160/55/1 158/53/1 
f 160/55/1 159/54/1 161/56/1 
f 161/56/1 162/57/1 160/55/1 
f 162/57/1 161/56/1 12/4/1 
f 12/4/1 11/3/1 162/57/1 
f 19/103/1 101/81/2 103/84/2 
f 103/84/2 163/83/1 19/103/1 
f 163/83/1 103/84/2 105/86/2 
f 105/86/2 164/104/1 163/83/1 
f 164/104/1 105/86/2 107/88/2 
f 107/88/2 165/105/1 164/104/1 
f 165/105/1 107/88/2 109/90/2 
f 109/90/2 166/106/1 165/105/1 
f 166/106/1 109/90/2 111/92/2 
f 111/92/2 167/107/1 166/106/1 
f 167/107/1 111/92/2 113/94/2 
f 113/94/2 168/108/1 167/107/1 
f 168/108/1 113/94/2 115/96/2 
f 115/96/2 169/109/1 168/108/1 
f 169/109/1 115/96/2 117/98/2 
f 117/98/2 170/110/1 169/109/1 
f 170/110/1 117/98/2 119/100/2 
f 119/100/2 171/111/1 170/110/1 
f 171/111/1 119/100/2 121/102/2 
f 121/102/2 172/112/1 171/111/1 
f 172/112/1 121/102/2 7/7/2 
f 7/7/2 173/113/1 172/112/1 
f 173/113/1 7/7/2 6/6/2 
f 6/6/2 13/9/1 173/113/1 
f 79/59/2 23/114/10 174/115/1 
f 174/115/1 80/60/2 79/59/2 
f 80/60/2 174/115/1 175/116/1 
f 175/116/1 82/62/2 80/60/2 
f 82/62/2 175/116/1 176/117/1 
f 176/117/1 84/64/2 82/62/2 
f 84/64/2 176/117/1 177/118/1 
f 177/118/1 86/66/2 84/64/2 
f 86/66/2 177/118/1 178/119/1 
f 178/119/1 88/68/2 86/66/2 
f 88/68/2 178/119/1 179/120/1 
f 179/120/1 90/70/2 88/68/2 
f 90/70/2 179/120/1 180/121/1 
f 180/121/1 92/72/2 90/70/2 
f 92/72/2 180/121/1 181/122/1 
f 181/122/1 94/74/2 92/72/2 
f 94/74/2 181/122/1 182/123/1 
f 182/123/1 96/76/2 94/74/2 
f 96/76/2 182/123/1 183/124/1 
f 183/124/1 98/78/2 96/76/2 
f 98/78/2 183/124/1 15/11/1 
f 15/11/1 14/10/2 98/78/2 
f 25/16/3 24/16/3 184/17/3 
f 184/17/3 38/17/3 25/16/3 
f 38/17/3 184/17/3 185/19/3 
f 185/19/3 40/19/3 38/17/3 
f 40/19/3 185/19/3 186/21/3 
f 186/21/3 42/21/3 40/19/3 
f 42/21/3 186/21/3 187/23/3 
f 187/23/3 44/23/3 42/21/3 
f 44/23/3 187/23/3 188/25/3 
f 188/25/3 46/25/3 44/23/3 
f 46/25/3 188/25/3 189/27/3 
f 189/27/3 48/27/3 46/25/3 
f 48/27/3 189/27/3 190/29/3 
f 190/29/3 50/29/3 48/27/3 
f 50/29/3 190/29/3 191/31/3 
f 191/31/3 52/31/3 50/29/3 
f 52/31/3 191/31/3 192/33/3 
f 192/33/3 54/33/3 52/31/3 
f 54/33/3 192/33/3 193/35/3 
f 193/35/3 56/35/3 54/33/3 
f 56/35/3 193/35/3 194/37/3 
f 194/37/3 58/37/3 56/35/3 
f 58/37/3 194/37/3 16/2/3 
f 16/2/3 2/2/3 58/37/3 
f 195/39/3 18/12/3 21/12/3 
f 21/12/3 60/39/3 195/39/3 
f 196/41/3 195/39/3 60/39/3 
f 60/39/3 62/41/3 196/41/3 
f 197/43/3 196/41/3 62/41/3 
f 62/41/3 64/43/3 197/43/3 
f 198/45/3 197/43/3 64/43/3 
f 64/43/3 66/45/3 198/45/3 
f 199/47/3 198/45/3 66/45/3 
f 66/45/3 68/47/3 199/47/3 
f 200/49/3 199/47/3 68/47/3 
f 68/47/3 70/49/3 200/49/3 
f 201/51/3 200/49/3 70/49/3 
f 70/49/3 72/51/3 201/51/3 
f 202/53/3 201/51/3 72/51/3 
f 72/51/3 74/53/3 202/53/3 
f 203/55/3 202/53/3 74/53/3 
f 74/53/3 76/55/3 203/55/3 
f 204/57/3 203/55/3 76/55/3 
f 76/55/3 78/57/3 204/57/3 
f 204/57/3 78/57/3 3/3/3 
f 3/3/3 17/3/3 204/57/3 
f 20/13/6 19/13/6 163/38/6 
f 163/38/6 59/38/6 20/13/6 
f 59/38/6 163/38/6 164/40/6 
f 164/40/6 61/40/6 59/38/6 
f 61/40/6 164/40/6 165/42/6 
f 165/42/6 63/42/6 61/40/6 
f 63/42/6 165/42/6 166/44/6 
f 166/44/6 65/44/6 63/42/6 
f 65/44/6 166/44/6 167/46/6 
f 167/46/6 67/46/6 65/44/6 
f 67/46/6 167/46/6 168/48/6 
f 168/48/6 69/48/6 67/46/6 
f 69/48/6 168/48/6 169/50/6 
f 169/50/6 71/50/6 69/48/6 
f 71/50/6 169/50/6 170/52/6 
f 170/52/6 73/52/6 71/50/6 
f 73/52/6 170/52/6 171/54/6 
f 171/54/6 75/54/6 73/52/6 
f 75/54/6 171/54/6 172/56/6 
f 172/56/6 77/56/6 75/54/6 
f 77/56/6 172/56/6 173/4/6 
f 173/4/6 4/4/6 77/56/6 
f 4/4/6 173/4/6 13/1/6 
f 13/1/6 1/1/6 4/4/6 
f 174/18/6 23/15/6 26/15/6 
f 26/15/6 39/18/6 174/18/6 
f 175/20/6 174/18/6 39/18/6 
f 39/18/6 41/20/6 175/20/6 
f 176/22/6 175/20/6 41/20/6 
f 41/20/6 43/22/6 176/22/6 
f 177/24/6 176/22/6 43/22/6 
f 43/22/6 45/24/6 177/24/6 
f 178/26/6 177/24/6 45/24/6 
f 45/24/6 47/26/6 178/26/6 
f 179/28/6 178/26/6 47/26/6 
f 47/26/6 49/28/6 179/28/6 
f 180/30/6 179/28/6 49/28/6 
f 49/28/6 51/30/6 180/30/6 
f 181/32/6 180/30/6 51/30/6 
f 51/30/6 53/32/6 181/32/6 
f 182/34/6 181/32/6 53/32/6 
f 53/32/6 55/34/6 182/34/6 
f 183/36/6 182/34/6 55/34/6 
f 55/34/6 57/36/6 183/36/6 
f 183/36/6 57/36/6 22/14/6 
f 22/14/6 15/14/6 183/36/6 
f 36/16/6 35/16/6 205/17/6 
f 205/17/6 122/17/6 36/16/6 
f 122/17/6 205/17/6 206/19/6 
f 206/19/6 124/19/6 122/17/6 
f 124/19/6 206/19/6 207/21/6 
f 207/21/6 126/21/6 124/19/6 
f 126/21/6 207/21/6 208/23/6 
f 208/23/6 128/23/6 126/21/6 
f 128/23/6 208/23/6 209/25/6 
f 209/25/6 130/25/6 128/23/6 
f 130/25/6 209/25/6 210/27/6 
f 210/27/6 132/27/6 130/25/6 
f 132/27/6 210/27/6 211/29/6 
f 211/29/6 134/29/6 132/27/6 
f 134/29/6 211/29/6 212/31/6 
f 212/31/6 136/31/6 134/29/6 
f 136/31/6 212/31/6 213/33/6 
f 213/33/6 138/33/6 136/31/6 
f 138/33/6 213/33/6 214/35/6 
f 214/35/6 140/35/6 138/33/6 
f 140/35/6 214/35/6 215/37/6 
f 215/37/6 142/37/6 140/35/6 
f 142/37/6 215/37/6 27/2/6 
f 27/2/6 10/2/6 142/37/6 
f 216/39/6 29/12/6 32/12/6 
f 32/12/6 144/39/6 216/39/6 
f 217/41/6 216/39/6 144/39/6 
f 144/39/6 146/41/6 217/41/6 
f 218/43/6 217/41/6 146/41/6 
f 146/41/6 148/43/6 218/43/6 
f 219/45/6 218/43/6 148/43/6 
f 148/43/6 150/45/6 219/45/6 
f 220/47/6 219/45/6 150/45/6 
f 150/45/6 152/47/6 220/47/6 
f 221/49/6 220/47/6 152/47/6 
f 152/47/6 154/49/6 221/49/6 
f 222/51/6 221/49/6 154/49/6 
f 154/49/6 156/51/6 222/51/6 
f 223/53/6 222/51/6 156/51/6 
f 156/51/6 158/53/6 223/53/6 
f 224/55/6 223/53/6 158/53/6 
f 158/53/6 160/55/6 224/55/6 
f 225/57/6 224/55/6 160/55/6 
f 160/55/6 162/57/6 225/57/6 
f 225/57/6 162/57/6 11/3/6 
f 11/3/6 28/3/6 225/57/6 
f 31/13/3 30/13/3 81/38/3 
f 81/38/3 143/38/3 31/13/3 
f 143/38/3 81/38/3 83/40/3 
f 83/40/3 145/40/3 143/38/3 
f 145/40/3 83/40/3 85/42/3 
f 85/42/3 147/42/3 145/40/3 
f 147/42/3 85/42/3 87/44/3 
f 87/44/3 149/44/3 147/42/3 
f 149/44/3 87/44/3 89/46/3 
f 89/46/3 151/46/3 149/44/3 
f 151/46/3 89/46/3 91/48/3 
f 91/48/3 153/48/3 151/46/3 
f 153/48/3 91/48/3 93/50/3 
f 93/50/3 155/50/3 153/48/3 
f 155/50/3 93/50/3 95/52/3 
f 95/52/3 157/52/3 155/50/3 
f 157/52/3 95/52/3 97/54/3 
f 97/54/3 159/54/3 157/52/3 
f 159/54/3 97/54/3 99/56/3 
f 99/56/3 161/56/3 159/54/3 
f 161/56/3 99/56/3 100/4/3 
f 100/4/3 12/4/3 161/56/3 
f 12/4/3 100/4/3 5/1/3 
f 5/1/3 9/1/3 12/4/3 
f 102/18/3 34/15/3 37/15/3 
f 37/15/3 123/18/3 102/18/3 
f 104/20/3 102/18/3 123/18/3 
f 123/18/3 125/20/3 104/20/3 
f 106/22/3 104/20/3 125/20/3 
f 125/20/3 127/22/3 106/22/3 
f 108/24/3 106/22/3 127/22/3 
f 127/22/3 129/24/3 108/24/3 
f 110/26/3 108/24/3 129/24/3 
f 129/24/3 131/26/3 110/26/3 
f 112/28/3 110/26/3 131/26/3 
f 131/26/3 133/28/3 112/28/3 
f 114/30/3 112/28/3 133/28/3 
f 133/28/3 135/30/3 114/30/3 
f 116/32/3 114/30/3 135/30/3 
f 135/30/3 137/32/3 116/32/3 
f 118/34/3 116/32/3 137/32/3 
f 137/32/3 139/34/3 118/34/3 
f 120/36/3 118/34/3 139/34/3 
f 139/34/3 141/36/3 120/36/3 
f 120/36/3 141/36/3 33/14/3 
f 33/14/3 8/14/3 120/36/3 
# 392 faces

