# 3ds Max Wavefront OBJ Exporter v0.97b - (c)2007 guruware
# File Created: 21.09.2015 22:17:53

#
# object Plane005
#

v  -15.92500 1.00000 -0.00000
v  -14.07500 1.00000 -0.00000
v  -14.08125 1.00000 -2.66250
v  -15.91875 1.00000 -2.66250
v  -0.00000 -0.10000 -0.00000
v  14.07500 -0.10000 -0.00000
v  14.08125 -0.08333 -2.66667
v  -0.00000 -0.08333 -2.66667
v  15.92500 1.00000 -0.00000
v  14.07500 1.00000 -0.00000
v  14.06875 1.00000 2.66250
v  15.93125 1.00000 2.66250
v  -14.07500 -0.10000 -0.00000
v  -14.06875 -0.11667 2.66667
v  -0.00000 -0.11667 2.66666
v  -15.92500 -0.15000 -0.00000
v  -15.91875 -0.13750 -2.66667
v  -16.00000 -0.30000 32.00000
v  -14.00000 -0.30000 32.00000
v  -14.00000 1.00000 31.95000
v  -16.00000 1.00000 31.95000
v  -14.06875 1.00000 2.66250
v  -14.15000 0.10000 -32.00000
v  -15.85000 0.00000 -32.00000
v  -15.85000 1.00000 -31.95000
v  -14.15000 1.00000 -31.95000
v  15.92500 -0.15000 -0.00000
v  15.93125 -0.16250 2.66667
v  15.85000 0.00000 -32.00000
v  14.15000 0.10000 -32.00000
v  14.15000 1.00000 -31.95000
v  15.85000 1.00000 -31.95000
v  14.08125 1.00000 -2.66250
v  14.00000 -0.30000 32.00000
v  16.00000 -0.30000 32.00000
v  16.00000 1.00000 31.95000
v  14.00000 1.00000 31.95000
v  -14.00625 1.00000 29.28750
v  -15.99375 1.00000 29.28750
v  -14.01250 1.00000 26.62500
v  -15.98750 1.00000 26.62500
v  -14.01875 1.00000 23.96250
v  -15.98125 1.00000 23.96250
v  -14.02500 1.00000 21.30000
v  -15.97500 1.00000 21.30000
v  -14.03125 1.00000 18.63750
v  -15.96875 1.00000 18.63750
v  -14.03750 1.00000 15.97500
v  -15.96250 1.00000 15.97500
v  -14.04375 1.00000 13.31250
v  -15.95625 1.00000 13.31250
v  -14.05000 1.00000 10.65000
v  -15.95000 1.00000 10.65000
v  -14.05625 1.00000 7.98750
v  -15.94375 1.00000 7.98750
v  -14.06250 1.00000 5.32500
v  -15.93750 1.00000 5.32500
v  -15.93125 1.00000 2.66250
v  -15.85625 1.00000 -29.28750
v  -14.14375 1.00000 -29.28750
v  -15.86250 1.00000 -26.62500
v  -14.13750 1.00000 -26.62500
v  -15.86875 1.00000 -23.96250
v  -14.13125 1.00000 -23.96250
v  -15.87500 1.00000 -21.30000
v  -14.12500 1.00000 -21.30000
v  -15.88125 1.00000 -18.63750
v  -14.11875 1.00000 -18.63750
v  -15.88750 1.00000 -15.97500
v  -14.11250 1.00000 -15.97500
v  -15.89375 1.00000 -13.31250
v  -14.10625 1.00000 -13.31250
v  -15.90000 1.00000 -10.65000
v  -14.10000 1.00000 -10.65000
v  -15.90625 1.00000 -7.98750
v  -14.09375 1.00000 -7.98750
v  -15.91250 1.00000 -5.32500
v  -14.08750 1.00000 -5.32500
v  -0.00000 -0.30000 32.00000
v  14.00625 -0.28333 29.33334
v  -0.00000 -0.28333 29.33334
v  14.01250 -0.26667 26.66666
v  -0.00000 -0.26667 26.66667
v  14.01875 -0.25000 24.00000
v  -0.00000 -0.25000 24.00000
v  14.02500 -0.23333 21.33333
v  -0.00000 -0.23333 21.33333
v  14.03125 -0.21667 18.66666
v  -0.00000 -0.21667 18.66666
v  14.03750 -0.20000 16.00000
v  -0.00000 -0.20000 16.00000
v  14.04375 -0.18333 13.33333
v  -0.00000 -0.18333 13.33334
v  14.05000 -0.16667 10.66667
v  -0.00000 -0.16667 10.66667
v  14.05625 -0.15000 8.00000
v  -0.00000 -0.15000 8.00000
v  14.06250 -0.13333 5.33333
v  -0.00000 -0.13333 5.33333
v  14.06875 -0.11667 2.66666
v  0.00000 0.10000 -32.00000
v  -0.00000 0.08333 -29.33333
v  14.14375 0.08333 -29.33333
v  -0.00000 0.06667 -26.66667
v  14.13750 0.06667 -26.66667
v  -0.00000 0.05000 -24.00000
v  14.13125 0.05000 -24.00000
v  -0.00000 0.03333 -21.33333
v  14.12500 0.03333 -21.33333
v  -0.00000 0.01667 -18.66667
v  14.11875 0.01667 -18.66667
v  -0.00000 0.00000 -16.00000
v  14.11250 -0.00000 -16.00000
v  -0.00000 -0.01667 -13.33333
v  14.10625 -0.01667 -13.33333
v  -0.00000 -0.03333 -10.66667
v  14.10000 -0.03333 -10.66667
v  -0.00000 -0.05000 -8.00000
v  14.09375 -0.05000 -8.00000
v  -0.00000 -0.06667 -5.33333
v  14.08750 -0.06667 -5.33334
v  14.14375 1.00000 -29.28750
v  15.85625 1.00000 -29.28750
v  14.13750 1.00000 -26.62500
v  15.86250 1.00000 -26.62500
v  14.13125 1.00000 -23.96250
v  15.86875 1.00000 -23.96250
v  14.12500 1.00000 -21.30000
v  15.87500 1.00000 -21.30000
v  14.11875 1.00000 -18.63750
v  15.88125 1.00000 -18.63750
v  14.11250 1.00000 -15.97500
v  15.88750 1.00000 -15.97500
v  14.10625 1.00000 -13.31250
v  15.89375 1.00000 -13.31250
v  14.10000 1.00000 -10.65000
v  15.90000 1.00000 -10.65000
v  14.09375 1.00000 -7.98750
v  15.90625 1.00000 -7.98750
v  14.08750 1.00000 -5.32500
v  15.91250 1.00000 -5.32500
v  15.91875 1.00000 -2.66250
v  15.99375 1.00000 29.28750
v  14.00625 1.00000 29.28750
v  15.98750 1.00000 26.62500
v  14.01250 1.00000 26.62500
v  15.98125 1.00000 23.96250
v  14.01875 1.00000 23.96250
v  15.97500 1.00000 21.30000
v  14.02500 1.00000 21.30000
v  15.96875 1.00000 18.63750
v  14.03125 1.00000 18.63750
v  15.96250 1.00000 15.97500
v  14.03750 1.00000 15.97500
v  15.95625 1.00000 13.31250
v  14.04375 1.00000 13.31250
v  15.95000 1.00000 10.65000
v  14.05000 1.00000 10.65000
v  15.94375 1.00000 7.98750
v  14.05625 1.00000 7.98750
v  15.93750 1.00000 5.32500
v  14.06250 1.00000 5.32500
v  -14.14375 0.08333 -29.33334
v  -14.13750 0.06667 -26.66666
v  -14.13125 0.05000 -24.00000
v  -14.12500 0.03333 -21.33333
v  -14.11875 0.01667 -18.66666
v  -14.11250 0.00000 -16.00000
v  -14.10625 -0.01667 -13.33333
v  -14.10000 -0.03333 -10.66667
v  -14.09375 -0.05000 -8.00000
v  -14.08750 -0.06667 -5.33333
v  -14.08125 -0.08333 -2.66666
v  -14.00625 -0.28333 29.33333
v  -14.01250 -0.26667 26.66667
v  -14.01875 -0.25000 24.00000
v  -14.02500 -0.23333 21.33333
v  -14.03125 -0.21667 18.66667
v  -14.03750 -0.20000 16.00000
v  -14.04375 -0.18333 13.33333
v  -14.05000 -0.16667 10.66667
v  -14.05625 -0.15000 8.00000
v  -14.06250 -0.13333 5.33334
v  -15.99375 -0.28750 29.33334
v  -15.98750 -0.27500 26.66666
v  -15.98125 -0.26250 24.00000
v  -15.97500 -0.25000 21.33333
v  -15.96875 -0.23750 18.66666
v  -15.96250 -0.22500 16.00000
v  -15.95625 -0.21250 13.33333
v  -15.95000 -0.20000 10.66667
v  -15.94375 -0.18750 8.00000
v  -15.93750 -0.17500 5.33333
v  -15.93125 -0.16250 2.66666
v  -15.85625 -0.01250 -29.33333
v  -15.86250 -0.02500 -26.66667
v  -15.86875 -0.03750 -24.00000
v  -15.87500 -0.05000 -21.33333
v  -15.88125 -0.06250 -18.66667
v  -15.88750 -0.07500 -16.00000
v  -15.89375 -0.08750 -13.33333
v  -15.90000 -0.10000 -10.66667
v  -15.90625 -0.11250 -8.00000
v  -15.91250 -0.12500 -5.33334
v  15.85625 -0.01250 -29.33334
v  15.86250 -0.02500 -26.66666
v  15.86875 -0.03750 -24.00000
v  15.87500 -0.05000 -21.33333
v  15.88125 -0.06250 -18.66666
v  15.88750 -0.07500 -16.00000
v  15.89375 -0.08750 -13.33333
v  15.90000 -0.10000 -10.66667
v  15.90625 -0.11250 -8.00000
v  15.91250 -0.12500 -5.33333
v  15.91875 -0.13750 -2.66666
v  15.99375 -0.28750 29.33333
v  15.98750 -0.27500 26.66667
v  15.98125 -0.26250 24.00000
v  15.97500 -0.25000 21.33333
v  15.96875 -0.23750 18.66667
v  15.96250 -0.22500 16.00000
v  15.95625 -0.21250 13.33333
v  15.95000 -0.20000 10.66667
v  15.94375 -0.18750 8.00000
v  15.93750 -0.17500 5.33334
# 225 vertices

vn -0.00000 1.00000 0.00000
vn 0.00000 0.99998 0.00625
vn -1.00000 0.00000 -0.00235
vn -1.00000 0.00001 -0.00234
vn -0.00000 0.03843 0.99926
vn 0.00000 0.03843 0.99926
vn 1.00000 0.00000 -0.00235
vn 1.00000 -0.00001 -0.00234
vn -0.00294 0.04994 -0.99875
vn 0.00000 0.05547 -0.99846
vn 0.00326 0.05547 -0.99846
vn -0.00000 0.04994 -0.99875
vn 0.00000 1.00000 0.00000
vn -0.00000 0.99998 0.00625
vn -1.00000 -0.00009 -0.00234
vn -1.00000 -0.00008 -0.00235
vn -1.00000 -0.00008 -0.00234
vn -1.00000 -0.00007 -0.00235
vn -1.00000 -0.00007 -0.00234
vn -1.00000 -0.00006 -0.00235
vn -1.00000 -0.00006 -0.00234
vn -1.00000 -0.00005 -0.00235
vn -1.00000 -0.00005 -0.00234
vn -1.00000 -0.00004 -0.00235
vn -1.00000 -0.00004 -0.00234
vn -1.00000 -0.00003 -0.00235
vn -1.00000 -0.00003 -0.00234
vn -1.00000 -0.00002 -0.00235
vn -1.00000 -0.00002 -0.00234
vn -1.00000 -0.00001 -0.00235
vn -1.00000 0.00000 -0.00234
vn -1.00000 0.00012 -0.00234
vn -1.00000 0.00011 -0.00235
vn -1.00000 0.00011 -0.00234
vn -1.00000 0.00010 -0.00235
vn -1.00000 0.00010 -0.00234
vn -1.00000 0.00008 -0.00235
vn -1.00000 0.00008 -0.00234
vn -1.00000 0.00007 -0.00235
vn -1.00000 0.00007 -0.00234
vn -1.00000 0.00006 -0.00235
vn -1.00000 0.00006 -0.00234
vn -1.00000 0.00005 -0.00235
vn -1.00000 0.00005 -0.00234
vn -1.00000 0.00004 -0.00235
vn -1.00000 0.00004 -0.00234
vn -1.00000 0.00003 -0.00235
vn -1.00000 0.00003 -0.00234
vn -1.00000 0.00002 -0.00235
vn -1.00000 0.00002 -0.00234
vn -1.00000 0.00001 -0.00235
vn 1.00000 0.00013 -0.00234
vn 1.00000 0.00012 -0.00235
vn 1.00000 0.00012 -0.00234
vn 1.00000 0.00010 -0.00235
vn 1.00000 0.00010 -0.00234
vn 1.00000 0.00009 -0.00235
vn 1.00000 0.00009 -0.00234
vn 1.00000 0.00008 -0.00235
vn 1.00000 0.00008 -0.00234
vn 1.00000 0.00007 -0.00235
vn 1.00000 0.00007 -0.00234
vn 1.00000 0.00006 -0.00235
vn 1.00000 0.00006 -0.00234
vn 1.00000 0.00005 -0.00235
vn 1.00000 0.00005 -0.00234
vn 1.00000 0.00004 -0.00235
vn 1.00000 0.00004 -0.00234
vn 1.00000 0.00003 -0.00235
vn 1.00000 0.00002 -0.00234
vn 1.00000 0.00002 -0.00235
vn 1.00000 0.00001 -0.00234
vn 1.00000 0.00001 -0.00235
vn 1.00000 0.00000 -0.00234
vn 1.00000 -0.00009 -0.00234
vn 1.00000 -0.00008 -0.00235
vn 1.00000 -0.00008 -0.00234
vn 1.00000 -0.00007 -0.00235
vn 1.00000 -0.00007 -0.00234
vn 1.00000 -0.00006 -0.00235
vn 1.00000 -0.00006 -0.00234
vn 1.00000 -0.00005 -0.00235
vn 1.00000 -0.00005 -0.00234
vn 1.00000 -0.00004 -0.00235
vn 1.00000 -0.00004 -0.00234
vn 1.00000 -0.00003 -0.00235
vn 1.00000 -0.00003 -0.00234
vn 1.00000 -0.00002 -0.00235
vn 1.00000 -0.00002 -0.00234
vn 1.00000 -0.00001 -0.00235
vn 1.00000 0.00011 -0.00235
vn 1.00000 0.00011 -0.00234
vn -1.00000 0.00013 -0.00234
vn -1.00000 0.00012 -0.00235
vn -1.00000 0.00009 -0.00235
vn -1.00000 0.00009 -0.00234
# 96 vertex normals

vt 0.07823 0.50029 0.00000
vt 0.11354 0.50028 0.00000
vt 0.11352 0.54194 0.00000
vt 0.07821 0.54195 0.00000
vt 0.37932 0.50004 0.00000
vt 0.13176 0.49994 0.00000
vt 0.13174 0.54160 0.00000
vt 0.37932 0.54169 0.00000
vt 0.13200 0.50003 0.00000
vt 0.13200 0.45837 0.00000
vt 0.37933 0.45838 0.00000
vt 0.07847 0.00042 0.00000
vt 0.11378 0.00042 0.00000
vt 0.11356 0.45863 0.00000
vt 0.11331 1.00015 0.00000
vt 0.07800 1.00016 0.00000
vt 0.11376 0.04207 0.00000
vt 0.07845 0.04208 0.00000
vt 0.11374 0.08373 0.00000
vt 0.07843 0.08373 0.00000
vt 0.11372 0.12538 0.00000
vt 0.07841 0.12539 0.00000
vt 0.11370 0.16704 0.00000
vt 0.07839 0.16704 0.00000
vt 0.11368 0.20869 0.00000
vt 0.07837 0.20870 0.00000
vt 0.11366 0.25035 0.00000
vt 0.07835 0.25036 0.00000
vt 0.11364 0.29201 0.00000
vt 0.07833 0.29201 0.00000
vt 0.11362 0.33366 0.00000
vt 0.07831 0.33367 0.00000
vt 0.11360 0.37532 0.00000
vt 0.07829 0.37532 0.00000
vt 0.11358 0.41697 0.00000
vt 0.07827 0.41698 0.00000
vt 0.07825 0.45863 0.00000
vt 0.07802 0.95850 0.00000
vt 0.11333 0.95850 0.00000
vt 0.07804 0.91685 0.00000
vt 0.11335 0.91684 0.00000
vt 0.07806 0.87519 0.00000
vt 0.11337 0.87519 0.00000
vt 0.07808 0.83353 0.00000
vt 0.11339 0.83353 0.00000
vt 0.07809 0.79188 0.00000
vt 0.11341 0.79187 0.00000
vt 0.07811 0.75022 0.00000
vt 0.11343 0.75022 0.00000
vt 0.07813 0.70857 0.00000
vt 0.11345 0.70856 0.00000
vt 0.07815 0.66691 0.00000
vt 0.11347 0.66691 0.00000
vt 0.07817 0.62526 0.00000
vt 0.11349 0.62525 0.00000
vt 0.07819 0.58360 0.00000
vt 0.11351 0.58360 0.00000
vt 0.37942 0.00012 0.00000
vt 0.13198 0.00007 0.00000
vt 0.13196 0.04173 0.00000
vt 0.37941 0.04178 0.00000
vt 0.13194 0.08338 0.00000
vt 0.37940 0.08344 0.00000
vt 0.13192 0.12504 0.00000
vt 0.37939 0.12510 0.00000
vt 0.13190 0.16670 0.00000
vt 0.37939 0.16676 0.00000
vt 0.13189 0.20835 0.00000
vt 0.37938 0.20842 0.00000
vt 0.13187 0.25001 0.00000
vt 0.37937 0.25008 0.00000
vt 0.13185 0.29166 0.00000
vt 0.37936 0.29174 0.00000
vt 0.13183 0.33332 0.00000
vt 0.37935 0.33340 0.00000
vt 0.13181 0.37498 0.00000
vt 0.37935 0.37506 0.00000
vt 0.13180 0.41663 0.00000
vt 0.37934 0.41672 0.00000
vt 0.13178 0.45829 0.00000
vt 0.13154 0.99982 0.00000
vt 0.37923 0.99995 0.00000
vt 0.37924 0.95829 0.00000
vt 0.13156 0.95816 0.00000
vt 0.37924 0.91663 0.00000
vt 0.13158 0.91651 0.00000
vt 0.37925 0.87497 0.00000
vt 0.13160 0.87485 0.00000
vt 0.37926 0.83331 0.00000
vt 0.13161 0.83319 0.00000
vt 0.37927 0.79165 0.00000
vt 0.13163 0.79154 0.00000
vt 0.37928 0.74999 0.00000
vt 0.13165 0.74988 0.00000
vt 0.37928 0.70833 0.00000
vt 0.13167 0.70823 0.00000
vt 0.37929 0.66667 0.00000
vt 0.13169 0.66657 0.00000
vt 0.37930 0.62501 0.00000
vt 0.13170 0.62491 0.00000
vt 0.37931 0.58335 0.00000
vt 0.13172 0.58326 0.00000
vt 0.13203 0.99999 0.00000
vt 0.13203 0.95833 0.00000
vt 0.13203 0.91666 0.00000
vt 0.13202 0.87500 0.00000
vt 0.13202 0.83334 0.00000
vt 0.13202 0.79167 0.00000
vt 0.13202 0.75001 0.00000
vt 0.13201 0.70835 0.00000
vt 0.13201 0.66668 0.00000
vt 0.13201 0.62502 0.00000
vt 0.13201 0.58336 0.00000
vt 0.13201 0.54169 0.00000
vt 0.13198 0.04173 0.00000
vt 0.13198 0.08340 0.00000
vt 0.13198 0.12506 0.00000
vt 0.13199 0.16672 0.00000
vt 0.13199 0.20839 0.00000
vt 0.13199 0.25005 0.00000
vt 0.13199 0.29171 0.00000
vt 0.13199 0.33338 0.00000
vt 0.13200 0.37504 0.00000
vt 0.13200 0.41670 0.00000
# 124 texture coords

g Plane005
f 1/1/1 2/2/1 3/3/1 
f 3/3/1 4/4/1 1/1/1 
f 5/5/2 6/6/2 7/7/2 
f 7/7/2 8/8/2 5/5/2 
f 9/1/1 10/2/1 11/3/1 
f 11/3/1 12/4/1 9/1/1 
f 5/5/2 13/9/2 14/10/2 
f 14/10/2 15/11/2 5/5/2 
f 16/1/3 1/1/3 4/4/3 
f 4/4/4 17/4/4 16/1/4 
f 18/12/5 19/13/5 20/13/5 
f 20/13/6 21/12/6 18/12/6 
f 13/2/7 2/2/7 22/14/7 
f 22/14/8 14/14/8 13/2/8 
f 23/15/9 24/16/9 25/16/9 
f 25/16/10 26/15/10 23/15/10 
f 27/1/7 9/1/7 12/4/7 
f 12/4/8 28/4/8 27/1/8 
f 29/12/11 30/13/11 31/13/11 
f 31/13/12 32/12/12 29/12/12 
f 6/2/3 10/2/3 33/14/3 
f 33/14/4 7/14/4 6/2/4 
f 34/15/5 35/16/5 36/16/5 
f 36/16/6 37/15/6 34/15/6 
f 21/12/1 20/13/13 38/17/1 
f 38/17/1 39/18/1 21/12/1 
f 39/18/1 38/17/1 40/19/1 
f 40/19/1 41/20/13 39/18/1 
f 41/20/13 40/19/1 42/21/1 
f 42/21/1 43/22/1 41/20/13 
f 43/22/1 42/21/1 44/23/1 
f 44/23/1 45/24/13 43/22/1 
f 45/24/13 44/23/1 46/25/13 
f 46/25/13 47/26/13 45/24/13 
f 47/26/13 46/25/13 48/27/13 
f 48/27/13 49/28/13 47/26/13 
f 49/28/13 48/27/13 50/29/13 
f 50/29/13 51/30/13 49/28/13 
f 51/30/13 50/29/13 52/31/13 
f 52/31/13 53/32/13 51/30/13 
f 53/32/13 52/31/13 54/33/13 
f 54/33/13 55/34/13 53/32/13 
f 55/34/13 54/33/13 56/35/13 
f 56/35/13 57/36/1 55/34/13 
f 57/36/1 56/35/13 22/14/1 
f 22/14/1 58/37/1 57/36/1 
f 58/37/1 22/14/1 2/2/1 
f 2/2/1 1/1/1 58/37/1 
f 26/15/1 25/16/13 59/38/1 
f 59/38/1 60/39/1 26/15/1 
f 60/39/1 59/38/1 61/40/1 
f 61/40/1 62/41/13 60/39/1 
f 62/41/13 61/40/1 63/42/1 
f 63/42/1 64/43/1 62/41/13 
f 64/43/1 63/42/1 65/44/1 
f 65/44/1 66/45/13 64/43/1 
f 66/45/13 65/44/1 67/46/13 
f 67/46/13 68/47/13 66/45/13 
f 68/47/13 67/46/13 69/48/13 
f 69/48/13 70/49/13 68/47/13 
f 70/49/13 69/48/13 71/50/13 
f 71/50/13 72/51/13 70/49/13 
f 72/51/13 71/50/13 73/52/13 
f 73/52/13 74/53/13 72/51/13 
f 74/53/13 73/52/13 75/54/13 
f 75/54/13 76/55/13 74/53/13 
f 76/55/13 75/54/13 77/56/13 
f 77/56/13 78/57/1 76/55/13 
f 78/57/1 77/56/13 4/4/1 
f 4/4/1 3/3/1 78/57/1 
f 79/58/2 34/59/2 80/60/2 
f 80/60/2 81/61/2 79/58/2 
f 81/61/2 80/60/2 82/62/2 
f 82/62/2 83/63/2 81/61/2 
f 83/63/2 82/62/2 84/64/2 
f 84/64/2 85/65/2 83/63/2 
f 85/65/2 84/64/2 86/66/2 
f 86/66/2 87/67/2 85/65/2 
f 87/67/2 86/66/2 88/68/2 
f 88/68/2 89/69/2 87/67/2 
f 89/69/2 88/68/2 90/70/2 
f 90/70/2 91/71/2 89/69/2 
f 91/71/2 90/70/2 92/72/2 
f 92/72/2 93/73/2 91/71/2 
f 93/73/2 92/72/2 94/74/2 
f 94/74/2 95/75/2 93/73/2 
f 95/75/2 94/74/2 96/76/2 
f 96/76/2 97/77/2 95/75/2 
f 97/77/2 96/76/2 98/78/2 
f 98/78/2 99/79/2 97/77/2 
f 99/79/2 98/78/2 100/80/2 
f 100/80/2 15/11/2 99/79/2 
f 15/11/2 100/80/2 6/6/2 
f 6/6/2 5/5/2 15/11/2 
f 30/81/2 101/82/14 102/83/2 
f 102/83/2 103/84/2 30/81/2 
f 103/84/2 102/83/2 104/85/2 
f 104/85/2 105/86/2 103/84/2 
f 105/86/2 104/85/2 106/87/2 
f 106/87/2 107/88/2 105/86/2 
f 107/88/2 106/87/2 108/89/2 
f 108/89/2 109/90/2 107/88/2 
f 109/90/2 108/89/2 110/91/2 
f 110/91/2 111/92/2 109/90/2 
f 111/92/2 110/91/2 112/93/2 
f 112/93/2 113/94/2 111/92/2 
f 113/94/2 112/93/2 114/95/2 
f 114/95/2 115/96/2 113/94/2 
f 115/96/2 114/95/2 116/97/2 
f 116/97/2 117/98/2 115/96/2 
f 117/98/2 116/97/2 118/99/2 
f 118/99/2 119/100/2 117/98/2 
f 119/100/2 118/99/2 120/101/2 
f 120/101/2 121/102/2 119/100/2 
f 121/102/2 120/101/2 8/8/2 
f 8/8/2 7/7/2 121/102/2 
f 32/12/1 31/13/1 122/17/1 
f 122/17/1 123/18/1 32/12/1 
f 123/18/1 122/17/1 124/19/1 
f 124/19/1 125/20/1 123/18/1 
f 125/20/1 124/19/1 126/21/1 
f 126/21/1 127/22/1 125/20/1 
f 127/22/1 126/21/1 128/23/1 
f 128/23/1 129/24/1 127/22/1 
f 129/24/1 128/23/1 130/25/1 
f 130/25/1 131/26/1 129/24/1 
f 131/26/1 130/25/1 132/27/1 
f 132/27/1 133/28/1 131/26/1 
f 133/28/1 132/27/1 134/29/1 
f 134/29/1 135/30/1 133/28/1 
f 135/30/1 134/29/1 136/31/1 
f 136/31/1 137/32/1 135/30/1 
f 137/32/1 136/31/1 138/33/1 
f 138/33/1 139/34/1 137/32/1 
f 139/34/1 138/33/1 140/35/1 
f 140/35/1 141/36/1 139/34/1 
f 141/36/1 140/35/1 33/14/1 
f 33/14/1 142/37/1 141/36/1 
f 142/37/1 33/14/1 10/2/1 
f 10/2/1 9/1/1 142/37/1 
f 37/15/13 36/16/13 143/38/13 
f 143/38/13 144/39/13 37/15/13 
f 144/39/13 143/38/13 145/40/13 
f 145/40/13 146/41/13 144/39/13 
f 146/41/13 145/40/13 147/42/1 
f 147/42/1 148/43/1 146/41/13 
f 148/43/1 147/42/1 149/44/1 
f 149/44/1 150/45/1 148/43/1 
f 150/45/1 149/44/1 151/46/1 
f 151/46/1 152/47/13 150/45/1 
f 152/47/13 151/46/1 153/48/13 
f 153/48/13 154/49/1 152/47/13 
f 154/49/1 153/48/13 155/50/1 
f 155/50/1 156/51/1 154/49/1 
f 156/51/1 155/50/1 157/52/1 
f 157/52/1 158/53/1 156/51/1 
f 158/53/1 157/52/1 159/54/1 
f 159/54/1 160/55/1 158/53/1 
f 160/55/1 159/54/1 161/56/1 
f 161/56/1 162/57/1 160/55/1 
f 162/57/1 161/56/1 12/4/1 
f 12/4/1 11/3/1 162/57/1 
f 101/82/14 23/103/14 163/104/14 
f 163/104/14 102/83/2 101/82/14 
f 102/83/2 163/104/14 164/105/14 
f 164/105/14 104/85/2 102/83/2 
f 104/85/2 164/105/14 165/106/2 
f 165/106/2 106/87/2 104/85/2 
f 106/87/2 165/106/2 166/107/2 
f 166/107/2 108/89/2 106/87/2 
f 108/89/2 166/107/2 167/108/14 
f 167/108/14 110/91/2 108/89/2 
f 110/91/2 167/108/14 168/109/2 
f 168/109/2 112/93/2 110/91/2 
f 112/93/2 168/109/2 169/110/2 
f 169/110/2 114/95/2 112/93/2 
f 114/95/2 169/110/2 170/111/2 
f 170/111/2 116/97/2 114/95/2 
f 116/97/2 170/111/2 171/112/2 
f 171/112/2 118/99/2 116/97/2 
f 118/99/2 171/112/2 172/113/2 
f 172/113/2 120/101/2 118/99/2 
f 120/101/2 172/113/2 173/114/2 
f 173/114/2 8/8/2 120/101/2 
f 8/8/2 173/114/2 13/9/2 
f 13/9/2 5/5/2 8/8/2 
f 19/59/2 79/58/2 81/61/2 
f 81/61/2 174/115/2 19/59/2 
f 174/115/2 81/61/2 83/63/2 
f 83/63/2 175/116/2 174/115/2 
f 175/116/2 83/63/2 85/65/2 
f 85/65/2 176/117/2 175/116/2 
f 176/117/2 85/65/2 87/67/2 
f 87/67/2 177/118/2 176/117/2 
f 177/118/2 87/67/2 89/69/2 
f 89/69/2 178/119/2 177/118/2 
f 178/119/2 89/69/2 91/71/2 
f 91/71/2 179/120/2 178/119/2 
f 179/120/2 91/71/2 93/73/2 
f 93/73/2 180/121/2 179/120/2 
f 180/121/2 93/73/2 95/75/2 
f 95/75/2 181/122/2 180/121/2 
f 181/122/2 95/75/2 97/77/2 
f 97/77/2 182/123/2 181/122/2 
f 182/123/2 97/77/2 99/79/2 
f 99/79/2 183/124/2 182/123/2 
f 183/124/2 99/79/2 15/11/2 
f 15/11/2 14/10/2 183/124/2 
f 184/18/15 18/12/15 21/12/15 
f 21/12/16 39/18/16 184/18/16 
f 185/20/17 184/18/17 39/18/17 
f 39/18/16 41/20/16 185/20/16 
f 186/22/17 185/20/17 41/20/17 
f 41/20/18 43/22/18 186/22/18 
f 187/24/19 186/22/19 43/22/19 
f 43/22/20 45/24/20 187/24/20 
f 188/26/21 187/24/21 45/24/21 
f 45/24/20 47/26/20 188/26/20 
f 189/28/21 188/26/21 47/26/21 
f 47/26/22 49/28/22 189/28/22 
f 190/30/23 189/28/23 49/28/23 
f 49/28/24 51/30/24 190/30/24 
f 191/32/25 190/30/25 51/30/25 
f 51/30/26 53/32/26 191/32/26 
f 192/34/27 191/32/27 53/32/27 
f 53/32/28 55/34/28 192/34/28 
f 193/36/29 192/34/29 55/34/29 
f 55/34/28 57/36/28 193/36/28 
f 194/37/29 193/36/29 57/36/29 
f 57/36/30 58/37/30 194/37/30 
f 194/37/30 58/37/30 1/1/30 
f 1/1/31 16/1/31 194/37/31 
f 25/16/32 24/16/32 195/38/32 
f 195/38/33 59/38/33 25/16/33 
f 59/38/34 195/38/34 196/40/34 
f 196/40/35 61/40/35 59/38/35 
f 61/40/36 196/40/36 197/42/36 
f 197/42/37 63/42/37 61/40/37 
f 63/42/38 197/42/38 198/44/38 
f 198/44/39 65/44/39 63/42/39 
f 65/44/40 198/44/40 199/46/40 
f 199/46/41 67/46/41 65/44/41 
f 67/46/42 199/46/42 200/48/42 
f 200/48/43 69/48/43 67/46/43 
f 69/48/44 200/48/44 201/50/44 
f 201/50/45 71/50/45 69/48/45 
f 71/50/46 201/50/46 202/52/46 
f 202/52/45 73/52/45 71/50/45 
f 73/52/46 202/52/46 203/54/46 
f 203/54/47 75/54/47 73/52/47 
f 75/54/48 203/54/48 204/56/48 
f 204/56/49 77/56/49 75/54/49 
f 77/56/50 204/56/50 17/4/50 
f 17/4/51 4/4/51 77/56/51 
f 163/39/52 23/15/52 26/15/52 
f 26/15/53 60/39/53 163/39/53 
f 164/41/54 163/39/54 60/39/54 
f 60/39/55 62/41/55 164/41/55 
f 165/43/56 164/41/56 62/41/56 
f 62/41/57 64/43/57 165/43/57 
f 166/45/58 165/43/58 64/43/58 
f 64/43/59 66/45/59 166/45/59 
f 167/47/60 166/45/60 66/45/60 
f 66/45/61 68/47/61 167/47/61 
f 168/49/62 167/47/62 68/47/62 
f 68/47/63 70/49/63 168/49/63 
f 169/51/64 168/49/64 70/49/64 
f 70/49/65 72/51/65 169/51/65 
f 170/53/66 169/51/66 72/51/66 
f 72/51/67 74/53/67 170/53/67 
f 171/55/68 170/53/68 74/53/68 
f 74/53/69 76/55/69 171/55/69 
f 171/55/69 76/55/69 78/57/69 
f 78/57/70 172/57/70 171/55/70 
f 172/57/71 78/57/71 3/3/71 
f 3/3/72 173/3/72 172/57/72 
f 173/3/73 3/3/73 2/2/73 
f 2/2/74 13/2/74 173/3/74 
f 20/13/75 19/13/75 174/17/75 
f 174/17/76 38/17/76 20/13/76 
f 38/17/77 174/17/77 175/19/77 
f 175/19/76 40/19/76 38/17/76 
f 40/19/77 175/19/77 176/21/77 
f 176/21/78 42/21/78 40/19/78 
f 42/21/79 176/21/79 177/23/79 
f 177/23/80 44/23/80 42/21/80 
f 44/23/81 177/23/81 178/25/81 
f 178/25/80 46/25/80 44/23/80 
f 46/25/81 178/25/81 179/27/81 
f 179/27/82 48/27/82 46/25/82 
f 48/27/83 179/27/83 180/29/83 
f 180/29/84 50/29/84 48/27/84 
f 50/29/85 180/29/85 181/31/85 
f 181/31/86 52/31/86 50/29/86 
f 52/31/87 181/31/87 182/33/87 
f 182/33/86 54/33/86 52/31/86 
f 54/33/87 182/33/87 183/35/87 
f 183/35/88 56/35/88 54/33/88 
f 56/35/89 183/35/89 14/14/89 
f 14/14/90 22/14/90 56/35/90 
f 205/18/54 29/12/54 32/12/54 
f 32/12/91 123/18/91 205/18/91 
f 206/20/92 205/18/92 123/18/92 
f 123/18/55 125/20/55 206/20/55 
f 207/22/56 206/20/56 125/20/56 
f 125/20/59 127/22/59 207/22/59 
f 208/24/60 207/22/60 127/22/60 
f 127/22/61 129/24/61 208/24/61 
f 209/26/62 208/24/62 129/24/62 
f 129/24/63 131/26/63 209/26/63 
f 210/28/64 209/26/64 131/26/64 
f 131/26/65 133/28/65 210/28/65 
f 211/30/66 210/28/66 133/28/66 
f 133/28/67 135/30/67 211/30/67 
f 212/32/68 211/30/68 135/30/68 
f 135/30/67 137/32/67 212/32/67 
f 213/34/68 212/32/68 137/32/68 
f 137/32/69 139/34/69 213/34/69 
f 213/34/69 139/34/69 141/36/69 
f 141/36/70 214/36/70 213/34/70 
f 214/36/71 141/36/71 142/37/71 
f 142/37/72 215/37/72 214/36/72 
f 215/37/73 142/37/73 9/1/73 
f 9/1/74 27/1/74 215/37/74 
f 36/16/75 35/16/75 216/38/75 
f 216/38/76 143/38/76 36/16/76 
f 143/38/77 216/38/77 217/40/77 
f 217/40/76 145/40/76 143/38/76 
f 145/40/77 217/40/77 218/42/77 
f 218/42/78 147/42/78 145/40/78 
f 147/42/79 218/42/79 219/44/79 
f 219/44/80 149/44/80 147/42/80 
f 149/44/81 219/44/81 220/46/81 
f 220/46/80 151/46/80 149/44/80 
f 151/46/81 220/46/81 221/48/81 
f 221/48/82 153/48/82 151/46/82 
f 153/48/83 221/48/83 222/50/83 
f 222/50/84 155/50/84 153/48/84 
f 155/50/85 222/50/85 223/52/85 
f 223/52/86 157/52/86 155/50/86 
f 157/52/87 223/52/87 224/54/87 
f 224/54/88 159/54/88 157/52/88 
f 159/54/89 224/54/89 225/56/89 
f 225/56/88 161/56/88 159/54/88 
f 161/56/89 225/56/89 28/4/89 
f 28/4/90 12/4/90 161/56/90 
f 80/39/15 34/15/15 37/15/15 
f 37/15/16 144/39/16 80/39/16 
f 82/41/17 80/39/17 144/39/17 
f 144/39/16 146/41/16 82/41/16 
f 84/43/17 82/41/17 146/41/17 
f 146/41/18 148/43/18 84/43/18 
f 86/45/19 84/43/19 148/43/19 
f 148/43/20 150/45/20 86/45/20 
f 88/47/21 86/45/21 150/45/21 
f 150/45/20 152/47/20 88/47/20 
f 90/49/21 88/47/21 152/47/21 
f 152/47/22 154/49/22 90/49/22 
f 92/51/23 90/49/23 154/49/23 
f 154/49/24 156/51/24 92/51/24 
f 94/53/25 92/51/25 156/51/25 
f 156/51/26 158/53/26 94/53/26 
f 96/55/27 94/53/27 158/53/27 
f 158/53/26 160/55/26 96/55/26 
f 98/57/27 96/55/27 160/55/27 
f 160/55/28 162/57/28 98/57/28 
f 100/3/29 98/57/29 162/57/29 
f 162/57/30 11/3/30 100/3/30 
f 100/3/30 11/3/30 10/2/30 
f 10/2/31 6/2/31 100/3/31 
f 31/13/93 30/13/93 103/17/93 
f 103/17/94 122/17/94 31/13/94 
f 122/17/32 103/17/32 105/19/32 
f 105/19/35 124/19/35 122/17/35 
f 124/19/36 105/19/36 107/21/36 
f 107/21/95 126/21/95 124/19/95 
f 126/21/96 107/21/96 109/23/96 
f 109/23/37 128/23/37 126/21/37 
f 128/23/38 109/23/38 111/25/38 
f 111/25/39 130/25/39 128/23/39 
f 130/25/40 111/25/40 113/27/40 
f 113/27/41 132/27/41 130/25/41 
f 132/27/42 113/27/42 115/29/42 
f 115/29/43 134/29/43 132/27/43 
f 134/29/44 115/29/44 117/31/44 
f 117/31/45 136/31/45 134/29/45 
f 136/31/46 117/31/46 119/33/46 
f 119/33/47 138/33/47 136/31/47 
f 138/33/48 119/33/48 121/35/48 
f 121/35/49 140/35/49 138/33/49 
f 140/35/50 121/35/50 7/14/50 
f 7/14/51 33/14/51 140/35/51 
# 392 faces

