# 3ds Max Wavefront OBJ Exporter v0.97b - (c)2007 guruware
# File Created: 05.02.2018 22:14:38

#
# object Plane004
#

v  1.5205 -0.2953 -32.0000
v  1.4870 -0.2953 -26.6667
v  1.8470 -0.2953 -26.6667
v  1.8805 -0.2953 -32.0000
v  1.3945 -0.2953 -21.3333
v  1.7545 -0.2953 -21.3333
v  1.2548 -0.2953 -16.0000
v  1.6148 -0.2953 -16.0000
v  1.0796 -0.2953 -10.6667
v  1.4396 -0.2953 -10.6667
v  0.8808 -0.2953 -5.3333
v  1.2408 -0.2953 -5.3333
v  0.6702 -0.2953 -0.0000
v  1.0302 -0.2953 -0.0000
v  0.4596 -0.2953 5.3333
v  0.8197 -0.2953 5.3333
v  0.2608 -0.2953 10.6667
v  0.6208 -0.2953 10.6667
v  0.0856 -0.2953 16.0000
v  0.4457 -0.2953 16.0000
v  -0.0541 -0.2953 21.3333
v  0.3059 -0.2953 21.3333
v  -0.1466 -0.2953 26.6667
v  0.2135 -0.2953 26.6667
v  -0.1800 -0.2953 32.0000
v  0.1800 -0.2953 32.0000
# 26 vertices

vn 0.0000 1.0000 -0.0000
# 1 vertex normals

vt 0.1015 0.0000 0.0000
vt 0.1015 0.0833 0.0000
vt 0.1192 0.0833 0.0000
vt 0.1192 0.0000 0.0000
vt 0.1015 0.1667 0.0000
vt 0.1192 0.1667 0.0000
vt 0.1015 0.2500 0.0000
vt 0.1192 0.2500 0.0000
vt 0.1015 0.3333 0.0000
vt 0.1192 0.3333 0.0000
vt 0.1015 0.4167 0.0000
vt 0.1192 0.4167 0.0000
vt 0.1015 0.5000 0.0000
vt 0.1192 0.5000 0.0000
vt 0.1015 0.5833 0.0000
vt 0.1192 0.5833 0.0000
vt 0.1015 0.6667 0.0000
vt 0.1192 0.6667 0.0000
vt 0.1015 0.7500 0.0000
vt 0.1192 0.7500 0.0000
vt 0.1015 0.8333 0.0000
vt 0.1192 0.8333 0.0000
vt 0.1015 0.9167 0.0000
vt 0.1192 0.9167 0.0000
vt 0.1015 1.0000 0.0000
vt 0.1192 1.0000 0.0000
# 26 texture coords

g Plane004
s 1
f 1/1/1 2/2/1 3/3/1 4/4/1 
f 2/2/1 5/5/1 6/6/1 3/3/1 
f 5/5/1 7/7/1 8/8/1 6/6/1 
f 7/7/1 9/9/1 10/10/1 8/8/1 
f 9/9/1 11/11/1 12/12/1 10/10/1 
f 11/11/1 13/13/1 14/14/1 12/12/1 
f 13/13/1 15/15/1 16/16/1 14/14/1 
f 15/15/1 17/17/1 18/18/1 16/16/1 
f 17/17/1 19/19/1 20/20/1 18/18/1 
f 19/19/1 21/21/1 22/22/1 20/20/1 
f 21/21/1 23/23/1 24/24/1 22/22/1 
f 23/23/1 25/25/1 26/26/1 24/24/1 
# 12 polygons

