# 3ds Max Wavefront OBJ Exporter v0.97b - (c)2007 guruware
# File Created: 04.02.2018 23:04:01

#
# object Plane004
#

v  1.7500 -0.2953 -32.0000
v  1.5047 -0.2953 -16.0000
v  1.1447 -0.2953 -16.0000
v  1.3900 -0.2953 -32.0000
v  0.9650 -0.2953 -0.0000
v  0.6050 -0.2953 -0.0000
v  0.4253 -0.2953 16.0000
v  0.0653 -0.2953 16.0000
v  0.1800 -0.2953 32.0000
v  -0.1800 -0.2953 32.0000
# 10 vertices

vn 0.0000 1.0000 -0.0000
# 1 vertex normals

vt 0.1192 0.0000 0.0000
vt 0.1192 0.2500 0.0000
vt 0.1015 0.2500 0.0000
vt 0.1015 0.0000 0.0000
vt 0.1192 0.5000 0.0000
vt 0.1015 0.5000 0.0000
vt 0.1192 0.7500 0.0000
vt 0.1015 0.7500 0.0000
vt 0.1192 1.0000 0.0000
vt 0.1015 1.0000 0.0000
# 10 texture coords

g Plane004
s 1
f 4/4/1 3/3/1 2/2/1 1/1/1 
f 3/3/1 6/6/1 5/5/1 2/2/1 
f 8/8/1 7/7/1 5/5/1 6/6/1 
f 10/10/1 9/9/1 7/7/1 8/8/1 
# 4 polygons

