# 3ds Max Wavefront OBJ Exporter v0.97b - (c)2007 guruware
# File Created: 04.02.2018 23:12:53

#
# object Plane005
#

v  2.8632 -0.2955 -32.0000
v  3.2232 -0.2955 -32.0000
v  3.1942 -0.2955 -26.6667
v  2.8342 -0.2955 -26.6667
v  3.1141 -0.2955 -21.3333
v  2.7541 -0.2955 -21.3333
v  2.9930 -0.2955 -16.0000
v  2.6330 -0.2955 -16.0000
v  2.8413 -0.2954 -10.6667
v  2.4813 -0.2954 -10.6667
v  2.6690 -0.2954 -5.3333
v  2.3090 -0.2954 -5.3333
v  2.4866 -0.2954 0.0000
v  2.1266 -0.2954 0.0000
v  2.3042 -0.2954 5.3333
v  1.9442 -0.2954 5.3333
v  2.1319 -0.2954 10.6667
v  1.7719 -0.2954 10.6667
v  1.9802 -0.2953 16.0000
v  1.6202 -0.2953 16.0000
v  1.8591 -0.2953 21.3333
v  1.4991 -0.2953 21.3333
v  1.7790 -0.2953 26.6667
v  1.4190 -0.2953 26.6667
v  1.7500 -0.2953 32.0000
v  1.3900 -0.2953 32.0000
# 26 vertices

vn 0.0000 1.0000 -0.0000
# 1 vertex normals

vt 0.1015 0.0000 0.0000
vt 0.1192 0.0000 0.0000
vt 0.1192 0.0833 0.0000
vt 0.1015 0.0833 0.0000
vt 0.1192 0.1667 0.0000
vt 0.1015 0.1667 0.0000
vt 0.1192 0.2500 0.0000
vt 0.1015 0.2500 0.0000
vt 0.1192 0.3333 0.0000
vt 0.1015 0.3333 0.0000
vt 0.1192 0.4167 0.0000
vt 0.1015 0.4167 0.0000
vt 0.1192 0.5000 0.0000
vt 0.1015 0.5000 0.0000
vt 0.1192 0.5833 0.0000
vt 0.1015 0.5833 0.0000
vt 0.1192 0.6667 0.0000
vt 0.1015 0.6667 0.0000
vt 0.1192 0.7500 0.0000
vt 0.1015 0.7500 0.0000
vt 0.1192 0.8333 0.0000
vt 0.1015 0.8333 0.0000
vt 0.1192 0.9167 0.0000
vt 0.1015 0.9167 0.0000
vt 0.1192 1.0000 0.0000
vt 0.1015 1.0000 0.0000
# 26 texture coords

g Plane005
s 1
f 4/4/1 3/3/1 2/2/1 1/1/1 
f 6/6/1 5/5/1 3/3/1 4/4/1 
f 8/8/1 7/7/1 5/5/1 6/6/1 
f 10/10/1 9/9/1 7/7/1 8/8/1 
f 12/12/1 11/11/1 9/9/1 10/10/1 
f 14/14/1 13/13/1 11/11/1 12/12/1 
f 16/16/1 15/15/1 13/13/1 14/14/1 
f 18/18/1 17/17/1 15/15/1 16/16/1 
f 20/20/1 19/19/1 17/17/1 18/18/1 
f 22/22/1 21/21/1 19/19/1 20/20/1 
f 24/24/1 23/23/1 21/21/1 22/22/1 
f 26/26/1 25/25/1 23/23/1 24/24/1 
# 12 polygons

