# 3ds Max Wavefront OBJ Exporter v0.97b - (c)2007 guruware
# File Created: 07.02.2018 15:24:53

#
# object Object001
#

v  1.5155 -0.2950 -26.6667
v  1.8936 -0.2950 -26.6667
v  1.8457 -0.2950 -32.0000
v  1.5095 -0.2950 -32.0000
v  1.5323 -0.2950 -21.3333
v  2.0223 -0.2950 -21.3333
v  1.5577 -0.2950 -16.0000
v  2.2153 -0.2950 -16.0000
v  1.5897 -0.2950 -10.6667
v  2.4558 -0.2950 -10.6667
v  1.6263 -0.2950 -5.3333
v  2.7283 -0.2950 -5.3333
v  1.6650 -0.2950 0.0000
v  3.0164 -0.2950 0.0000
v  1.7037 -0.2950 5.3333
v  3.3047 -0.2950 5.3333
v  1.7401 -0.2950 10.6667
v  3.5767 -0.2950 10.6667
v  1.7720 -0.2950 16.0000
v  3.8164 -0.2950 16.0000
v  1.7974 -0.2950 21.3333
v  4.0079 -0.2950 21.3333
v  1.8141 -0.2950 26.6667
v  4.1345 -0.2950 26.6667
v  1.8200 -0.2950 32.0000
v  4.1800 -0.2950 32.0000
v  -3.8556 -0.2950 32.0000
v  -3.8117 -0.2950 26.6687
v  -3.9918 -0.2950 26.6687
v  -4.0356 -0.2950 32.0000
v  -3.6888 -0.2950 21.3471
v  -3.8690 -0.2950 21.3471
v  -3.5028 -0.2950 16.0394
v  -3.6831 -0.2950 16.0394
v  -3.2698 -0.2950 10.7441
v  -3.4501 -0.2950 10.7441
v  -3.0053 -0.2950 5.4556
v  -3.1856 -0.2950 5.4556
v  -2.7249 -0.2950 0.1658
v  -2.9052 -0.2950 0.1658
v  -2.4441 -0.2950 -5.1352
v  -2.6244 -0.2950 -5.1352
v  -2.1785 -0.2950 -10.4566
v  -2.3587 -0.2950 -10.4566
v  -1.9433 -0.2950 -15.8061
v  -2.1235 -0.2950 -15.8061
v  -1.7545 -0.2950 -21.1881
v  -1.9345 -0.2950 -21.1881
v  -1.6278 -0.2950 -26.6024
v  -1.8078 -0.2950 -26.6024
v  -1.5794 -0.2950 -32.0000
v  -1.7594 -0.2950 -32.0000
# 52 vertices

vn 0.0000 1.0000 -0.0000
vn 0.0000 1.0000 0.0001
vn 0.0000 1.0000 -0.0031
vn 0.0000 1.0000 -0.0058
vn 0.0000 1.0000 -0.0057
vn 0.0000 0.9999 -0.0107
vn 0.0000 0.9999 -0.0106
vn 0.0000 0.9999 -0.0145
vn 0.0000 0.9999 -0.0144
vn 0.0000 0.9999 -0.0173
vn 0.0000 0.9999 -0.0172
vn 0.0000 0.9998 -0.0189
vn 0.0000 0.9998 -0.0188
vn 0.0000 0.9998 -0.0194
vn 0.0000 0.9999 -0.0170
vn 0.0000 0.9999 -0.0171
vn 0.0000 0.9999 -0.0142
vn 0.0000 0.9999 -0.0143
vn 0.0000 0.9999 -0.0104
vn 0.0000 0.9999 -0.0105
vn 0.0000 1.0000 -0.0056
vn 0.0000 1.0000 -0.0029
# 22 vertex normals

vt 0.7906 0.9149 0.0000
vt 0.8270 0.9148 0.0000
vt 0.8177 0.9977 0.0000
vt 0.7983 0.9979 0.0000
vt 0.7829 0.8319 0.0000
vt 0.8350 0.8318 0.0000
vt 0.7752 0.7489 0.0000
vt 0.8429 0.7489 0.0000
vt 0.7675 0.6660 0.0000
vt 0.8508 0.6659 0.0000
vt 0.7598 0.5830 0.0000
vt 0.8587 0.5830 0.0000
vt 0.7520 0.5000 0.0000
vt 0.8666 0.5000 0.0000
vt 0.7443 0.4170 0.0000
vt 0.8745 0.4170 0.0000
vt 0.7366 0.3340 0.0000
vt 0.8824 0.3341 0.0000
vt 0.7289 0.2511 0.0000
vt 0.8903 0.2511 0.0000
vt 0.7212 0.1681 0.0000
vt 0.8982 0.1682 0.0000
vt 0.7135 0.0851 0.0000
vt 0.9061 0.0852 0.0000
vt 0.7058 0.0021 0.0000
vt 0.9140 0.0023 0.0000
vt 0.1635 0.0000 0.0000
vt 0.1635 0.0833 0.0000
vt 0.1589 0.0833 0.0000
vt 0.1589 0.0000 0.0000
vt 0.1635 0.1667 0.0000
vt 0.1589 0.1667 0.0000
vt 0.1635 0.2500 0.0000
vt 0.1589 0.2500 0.0000
vt 0.1635 0.3333 0.0000
vt 0.1589 0.3333 0.0000
vt 0.1635 0.4167 0.0000
vt 0.1589 0.4167 0.0000
vt 0.1635 0.5000 0.0000
vt 0.1589 0.5000 0.0000
vt 0.1635 0.5833 0.0000
vt 0.1589 0.5833 0.0000
vt 0.1635 0.6667 0.0000
vt 0.1589 0.6667 0.0000
vt 0.1635 0.7500 0.0000
vt 0.1589 0.7500 0.0000
vt 0.1635 0.8333 0.0000
vt 0.1589 0.8333 0.0000
vt 0.1635 0.9167 0.0000
vt 0.1589 0.9167 0.0000
vt 0.1635 1.0000 0.0000
vt 0.1589 1.0000 0.0000
# 52 texture coords

g Object001
s 1
f 1/1/1 2/2/1 3/3/1 4/4/1 
f 1/1/1 5/5/2 6/6/2 2/2/1 
f 7/7/2 8/8/2 6/6/2 5/5/2 
f 9/9/2 10/10/2 8/8/2 7/7/2 
f 11/11/2 12/12/2 10/10/2 9/9/2 
f 13/13/2 14/14/2 12/12/2 11/11/2 
f 15/15/2 16/16/2 14/14/2 13/13/2 
f 17/17/2 18/18/2 16/16/2 15/15/2 
f 19/19/2 20/20/2 18/18/2 17/17/2 
f 21/21/2 22/22/2 20/20/2 19/19/2 
f 23/23/1 24/24/1 22/22/2 21/21/2 
f 23/23/1 25/25/1 26/26/1 24/24/1 
f 27/27/3 28/28/4 29/29/5 30/30/3 
f 28/28/4 31/31/6 32/32/7 29/29/5 
f 31/31/6 33/33/8 34/34/9 32/32/7 
f 33/33/8 35/35/10 36/36/11 34/34/9 
f 35/35/10 37/37/12 38/38/13 36/36/11 
f 37/37/12 39/39/14 40/40/14 38/38/13 
f 39/39/14 41/41/13 42/42/13 40/40/14 
f 41/41/13 43/43/15 44/44/16 42/42/13 
f 43/43/15 45/45/17 46/46/18 44/44/16 
f 45/45/17 47/47/19 48/48/20 46/46/18 
f 47/47/19 49/49/21 50/50/21 48/48/20 
f 49/49/21 51/51/22 52/52/22 50/50/21 
# 24 polygons

