# 3ds Max Wavefront OBJ Exporter v0.97b - (c)2007 guruware
# File Created: 06.02.2018 17:37:39

#
# object Object001
#

v  1.5858 -0.2962 16.0000
v  1.5095 -0.2955 32.0000
v  1.8457 -0.2955 32.0000
v  2.1873 -0.2962 16.0000
v  1.7550 -0.2978 -0.0000
v  2.9265 -0.2978 -0.0000
v  3.6645 -0.2993 -16.0000
v  1.9239 -0.2993 -16.0000
v  4.0000 -0.3000 -32.0000
v  2.0000 -0.3000 -32.0000
v  -4.0356 0.5322 -32.0000
v  -3.6831 0.4028 -16.0394
v  -3.5028 0.4028 -16.0394
v  -3.8556 0.5322 -32.0000
v  -2.9052 0.1179 -0.1658
v  -2.7249 0.1179 -0.1658
v  -2.1235 -0.1666 15.8061
v  -1.9433 -0.1666 15.8061
v  -1.7594 -0.2950 32.0000
v  -1.5794 -0.2950 32.0000
# 20 vertices

vn -0.0000 1.0000 -0.0001
vn 0.0000 1.0000 -0.0000
vn -0.0000 1.0000 -0.0000
vn 0.0000 1.0000 0.0081
vn 0.0000 0.9999 0.0129
vn 0.0000 0.9999 0.0131
vn 0.0000 0.9998 0.0179
vn -0.0000 0.9999 0.0130
vn -0.0000 0.9999 0.0128
vn 0.0000 1.0000 0.0079
vn -0.0000 1.0000 0.0079
# 11 vertex normals

vt 0.7752 0.7489 0.0000
vt 0.7983 0.9979 0.0000
vt 0.8177 0.9977 0.0000
vt 0.8429 0.7489 0.0000
vt 0.7520 0.5000 0.0000
vt 0.8666 0.5000 0.0000
vt 0.8903 0.2511 0.0000
vt 0.7289 0.2511 0.0000
vt 0.9140 0.0023 0.0000
vt 0.7058 0.0021 0.0000
vt 0.1589 0.0000 0.0000
vt 0.1589 0.2500 0.0000
vt 0.1635 0.2500 0.0000
vt 0.1635 0.0000 0.0000
vt 0.1589 0.5000 0.0000
vt 0.1635 0.5000 0.0000
vt 0.1589 0.7500 0.0000
vt 0.1635 0.7500 0.0000
vt 0.1589 1.0000 0.0000
vt 0.1635 1.0000 0.0000
# 20 texture coords

g Object001
s 1
f 1/1/1 2/2/2 3/3/3 4/4/1 
f 5/5/1 1/1/1 4/4/1 6/6/1 
f 7/7/1 8/8/1 5/5/1 6/6/1 
f 9/9/3 10/10/3 8/8/1 7/7/1 
f 11/11/4 12/12/5 13/13/6 14/14/4 
f 12/12/5 15/15/7 16/16/7 13/13/6 
f 16/16/7 15/15/7 17/17/8 18/18/9 
f 17/17/8 19/19/10 20/20/11 18/18/9 
# 8 polygons

