# 3ds Max Wavefront OBJ Exporter v0.97b - (c)2007 guruware
# File Created: 06.02.2018 08:21:49

#
# object Object001
#

v  2.0312 -0.2962 16.0000
v  1.2740 -0.2962 16.0000
v  1.5095 -0.2955 32.0000
v  1.8457 -0.2955 32.0000
v  2.4267 -0.2978 -0.0000
v  0.7555 -0.2978 -0.0000
v  0.2365 -0.2993 -16.0000
v  2.8207 -0.2993 -16.0000
v  0.0000 -0.3000 -32.0000
v  3.0000 -0.3000 -32.0000
v  -6.4740 -0.2950 -32.0000
v  -5.7396 -0.2950 -16.0000
v  -5.5593 -0.2950 -16.0000
v  -6.2940 -0.2950 -32.0000
v  -4.1186 -0.2950 -0.0000
v  -3.9383 -0.2950 -0.0000
v  -2.4968 -0.2950 16.0000
v  -2.3167 -0.2950 16.0000
v  -1.7594 -0.2950 32.0000
v  -1.5794 -0.2950 32.0000
# 20 vertices

vn 0.0000 1.0000 -0.0001
vn 0.0000 1.0000 -0.0000
# 2 vertex normals

vt 0.8429 0.7489 0.0000
vt 0.7752 0.7489 0.0000
vt 0.7983 0.9979 0.0000
vt 0.8177 0.9977 0.0000
vt 0.8666 0.5000 0.0000
vt 0.7520 0.5000 0.0000
vt 0.7289 0.2511 0.0000
vt 0.8903 0.2511 0.0000
vt 0.7058 0.0021 0.0000
vt 0.9140 0.0023 0.0000
vt 0.1589 0.0000 0.0000
vt 0.1589 0.2500 0.0000
vt 0.1635 0.2500 0.0000
vt 0.1635 0.0000 0.0000
vt 0.1589 0.5000 0.0000
vt 0.1635 0.5000 0.0000
vt 0.1589 0.7500 0.0000
vt 0.1635 0.7500 0.0000
vt 0.1589 1.0000 0.0000
vt 0.1635 1.0000 0.0000
# 20 texture coords

g Object001
s 1
f 1/1/1 2/2/1 3/3/2 4/4/2 
f 5/5/1 6/6/1 2/2/1 1/1/1 
f 7/7/1 6/6/1 5/5/1 8/8/1 
f 9/9/2 7/7/1 8/8/1 10/10/2 
f 11/11/2 12/12/2 13/13/2 14/14/2 
f 12/12/2 15/15/2 16/16/2 13/13/2 
f 16/16/2 15/15/2 17/17/2 18/18/2 
f 18/18/2 17/17/2 19/19/2 20/20/2 
# 8 polygons

