# 3ds Max Wavefront OBJ Exporter v0.97b - (c)2007 guruware
# File Created: 07.02.2018 15:06:51

#
# object Object001
#

v  1.5095 -0.2950 32.0000
v  1.4764 -0.2950 26.6667
v  1.8740 -0.2950 26.6667
v  1.8457 -0.2950 32.0000
v  1.3847 -0.2950 21.3333
v  1.9484 -0.2950 21.3333
v  1.2459 -0.2950 16.0000
v  2.0593 -0.2950 16.0000
v  1.0720 -0.2950 10.6667
v  2.1968 -0.2950 10.6667
v  0.8746 -0.2950 5.3333
v  2.3524 -0.2950 5.3333
v  0.6655 -0.2950 -0.0000
v  2.5167 -0.2950 -0.0000
v  0.4563 -0.2950 -5.3333
v  2.6810 -0.2950 -5.3333
v  0.2588 -0.2950 -10.6667
v  2.8360 -0.2950 -10.6667
v  0.0846 -0.2950 -16.0000
v  2.9725 -0.2950 -16.0000
v  -0.0545 -0.2950 -21.3333
v  3.0818 -0.2950 -21.3333
v  -0.1465 -0.2950 -26.6667
v  3.1540 -0.2950 -26.6667
v  -0.1800 -0.2950 -32.0000
v  3.1800 -0.2950 -32.0000
v  -6.4740 -0.2950 -32.0000
v  -6.2940 -0.2950 -32.0000
v  -6.2021 -0.2950 -26.6667
v  -6.3822 -0.2950 -26.6667
v  -5.9463 -0.2950 -21.3333
v  -6.1265 -0.2950 -21.3333
v  -5.5593 -0.2950 -16.0000
v  -5.7396 -0.2950 -16.0000
v  -5.2541 -0.2950 -10.6667
v  -5.0738 -0.2950 -10.6667
v  -4.7029 -0.2950 -5.3333
v  -4.5225 -0.2950 -5.3333
v  -4.1186 -0.2950 -0.0000
v  -3.9383 -0.2950 -0.0000
v  -3.5344 -0.2950 5.3333
v  -3.3541 -0.2950 5.3333
v  -2.9829 -0.2950 10.6667
v  -2.8027 -0.2950 10.6667
v  -2.4968 -0.2950 16.0000
v  -2.3167 -0.2950 16.0000
v  -1.9290 -0.2950 21.3333
v  -2.1091 -0.2950 21.3333
v  -1.6724 -0.2950 26.6667
v  -1.8524 -0.2950 26.6667
v  -1.5794 -0.2950 32.0000
v  -1.7594 -0.2950 32.0000
# 52 vertices

vn 0.0000 1.0000 -0.0000
vn 0.0000 1.0000 -0.0001
# 2 vertex normals

vt 0.7983 0.9979 0.0000
vt 0.7906 0.9149 0.0000
vt 0.8270 0.9148 0.0000
vt 0.8177 0.9977 0.0000
vt 0.7829 0.8319 0.0000
vt 0.8350 0.8318 0.0000
vt 0.7752 0.7489 0.0000
vt 0.8429 0.7489 0.0000
vt 0.7675 0.6660 0.0000
vt 0.8508 0.6659 0.0000
vt 0.7598 0.5830 0.0000
vt 0.8587 0.5830 0.0000
vt 0.7520 0.5000 0.0000
vt 0.8666 0.5000 0.0000
vt 0.7443 0.4170 0.0000
vt 0.8745 0.4170 0.0000
vt 0.7366 0.3340 0.0000
vt 0.8824 0.3341 0.0000
vt 0.7289 0.2511 0.0000
vt 0.8903 0.2511 0.0000
vt 0.7212 0.1681 0.0000
vt 0.8982 0.1682 0.0000
vt 0.7135 0.0851 0.0000
vt 0.9061 0.0852 0.0000
vt 0.7058 0.0021 0.0000
vt 0.9140 0.0023 0.0000
vt 0.1589 0.0000 0.0000
vt 0.1635 0.0000 0.0000
vt 0.1635 0.0833 0.0000
vt 0.1589 0.0833 0.0000
vt 0.1635 0.1667 0.0000
vt 0.1589 0.1667 0.0000
vt 0.1635 0.2500 0.0000
vt 0.1589 0.2500 0.0000
vt 0.1589 0.3333 0.0000
vt 0.1635 0.3333 0.0000
vt 0.1589 0.4167 0.0000
vt 0.1635 0.4167 0.0000
vt 0.1589 0.5000 0.0000
vt 0.1635 0.5000 0.0000
vt 0.1589 0.5833 0.0000
vt 0.1635 0.5833 0.0000
vt 0.1589 0.6667 0.0000
vt 0.1635 0.6667 0.0000
vt 0.1589 0.7500 0.0000
vt 0.1635 0.7500 0.0000
vt 0.1635 0.8333 0.0000
vt 0.1589 0.8333 0.0000
vt 0.1635 0.9167 0.0000
vt 0.1589 0.9167 0.0000
vt 0.1635 1.0000 0.0000
vt 0.1589 1.0000 0.0000
# 52 texture coords

g Object001
s 1
f 4/4/1 3/3/1 2/2/1 1/1/1 
f 6/6/2 5/5/2 2/2/1 3/3/1 
f 6/6/2 8/8/2 7/7/2 5/5/2 
f 8/8/2 10/10/2 9/9/2 7/7/2 
f 10/10/2 12/12/2 11/11/2 9/9/2 
f 12/12/2 14/14/2 13/13/2 11/11/2 
f 14/14/2 16/16/2 15/15/2 13/13/2 
f 16/16/2 18/18/2 17/17/2 15/15/2 
f 18/18/2 20/20/2 19/19/2 17/17/2 
f 20/20/2 22/22/2 21/21/2 19/19/2 
f 22/22/2 24/24/1 23/23/1 21/21/2 
f 26/26/1 25/25/1 23/23/1 24/24/1 
f 30/30/1 29/29/1 28/28/1 27/27/1 
f 32/32/1 31/31/1 29/29/1 30/30/1 
f 34/34/1 33/33/1 31/31/1 32/32/1 
f 36/36/1 33/33/1 34/34/1 35/35/1 
f 38/38/1 36/36/1 35/35/1 37/37/1 
f 40/40/1 38/38/1 37/37/1 39/39/1 
f 42/42/1 40/40/1 39/39/1 41/41/1 
f 44/44/1 42/42/1 41/41/1 43/43/1 
f 46/46/1 44/44/1 43/43/1 45/45/1 
f 48/48/1 47/47/1 46/46/1 45/45/1 
f 50/50/1 49/49/1 47/47/1 48/48/1 
f 52/52/1 51/51/1 49/49/1 50/50/1 
# 24 polygons

