# 3ds Max Wavefront OBJ Exporter v0.97b - (c)2007 guruware
# File Created: 07.02.2018 12:34:33

#
# object Object001
#

v  1.5095 -0.2964 32.0000
v  0.7751 -0.2964 16.0000
v  2.0624 -0.2964 16.0000
v  1.8457 -0.2964 32.0000
v  -0.8437 -0.2964 -0.0000
v  2.5267 -0.2964 -0.0000
v  2.9894 -0.2964 -16.0000
v  -2.4634 -0.2964 -16.0000
v  3.2000 -0.2964 -32.0000
v  -3.2000 -0.2964 -32.0000
v  -6.4740 -0.2964 -32.0000
v  -6.2940 -0.2964 -32.0000
v  -5.5593 -0.2964 -16.0000
v  -5.7396 -0.2964 -16.0000
v  -3.9383 -0.2964 -0.0000
v  -4.1186 -0.2964 -0.0000
v  -2.3167 -0.2964 16.0000
v  -2.4968 -0.2964 16.0000
v  -1.5794 -0.2964 32.0000
v  -1.7594 -0.2964 32.0000
# 20 vertices

vn 0.0000 1.0000 -0.0000
vn 0.0000 1.0000 -0.0001
# 2 vertex normals

vt 0.7983 0.9979 0.0000
vt 0.7752 0.7489 0.0000
vt 0.8429 0.7489 0.0000
vt 0.8177 0.9977 0.0000
vt 0.7520 0.5000 0.0000
vt 0.8666 0.5000 0.0000
vt 0.8903 0.2511 0.0000
vt 0.7289 0.2511 0.0000
vt 0.9140 0.0023 0.0000
vt 0.7058 0.0021 0.0000
vt 0.1589 0.0000 0.0000
vt 0.1635 0.0000 0.0000
vt 0.1635 0.2500 0.0000
vt 0.1589 0.2500 0.0000
vt 0.1635 0.5000 0.0000
vt 0.1589 0.5000 0.0000
vt 0.1635 0.7500 0.0000
vt 0.1589 0.7500 0.0000
vt 0.1635 1.0000 0.0000
vt 0.1589 1.0000 0.0000
# 20 texture coords

g Object001
s 1
f 4/4/2 3/3/2 2/2/1 1/1/1 
f 2/2/2 3/3/2 6/6/2 5/5/2 
f 8/8/2 5/5/2 6/6/2 7/7/2 
f 10/10/1 8/8/1 7/7/1 9/9/1 
f 14/14/1 13/13/1 12/12/1 11/11/1 
f 16/16/1 15/15/1 13/13/1 14/14/1 
f 16/16/1 18/18/1 17/17/1 15/15/1 
f 18/18/1 20/20/1 19/19/1 17/17/1 
# 8 polygons

