# 3ds Max Wavefront OBJ Exporter v0.97b - (c)2007 guruware
# File Created: 12.02.2018 22:25:11

#
# object Plane003
#

v  0.1864 -0.2950 32.0000
v  1.9265 -0.2950 14.5454
v  -0.1500 -0.2950 14.5454
v  -0.1500 -0.2950 32.0000
v  3.2500 -0.2950 -0.0000
v  -0.1500 -0.2950 -0.0000
v  3.2500 -0.2950 -14.5455
v  1.1436 -0.2950 -14.5455
v  3.2500 -0.2950 -32.0000
v  2.8444 -0.2950 -32.0000
# 10 vertices

vn 0.0000 1.0000 -0.0000
# 1 vertex normals

vt 0.7994 0.9999 0.0000
vt 0.7487 0.4547 0.0000
vt 0.8706 0.4546 0.0000
vt 0.8211 1.0001 0.0000
vt 0.7065 0.0003 0.0000
vt 0.9118 0.0001 0.0000
# 6 texture coords

g Plane003
s 1
f 1/1/1 2/2/1 3/3/1 4/4/1 
f 2/2/1 5/5/1 6/6/1 3/3/1 
f 6/5/1 5/6/1 7/3/1 8/2/1 
f 8/2/1 7/3/1 9/4/1 10/1/1 
# 4 polygons

