# 3ds Max Wavefront OBJ Exporter v0.97b - (c)2007 guruware
# File Created: 14.02.2018 01:54:14

#
# object Plane006
#

v  0.6280 -0.2950 -0.0000
v  1.7190 -0.2950 -0.0000
v  2.0985 -0.2950 5.3333
v  1.1006 -0.2950 5.3333
v  2.4566 -0.2950 10.6667
v  1.5979 -0.2950 10.6667
v  2.7722 -0.2950 16.0000
v  2.0706 -0.2950 16.0000
v  3.0238 -0.2950 21.3333
v  2.4692 -0.2950 21.3333
v  3.1903 -0.2950 26.6667
v  2.7446 -0.2950 26.6667
v  3.2504 -0.2950 32.0000
v  2.8474 -0.2950 32.0000
v  0.2293 -0.2950 -5.3333
v  1.3395 -0.2950 -5.3333
v  -0.0461 -0.2950 -10.6667
v  0.9813 -0.2950 -10.6667
v  -0.1488 -0.2950 -16.0000
v  0.6657 -0.2950 -16.0000
v  -0.1488 -0.2950 -21.3333
v  0.4139 -0.2950 -21.3333
v  -0.1488 -0.2950 -26.6667
v  0.2472 -0.2950 -26.6667
v  -0.1488 -0.2950 -32.0000
v  0.1870 -0.2950 -32.0000
# 26 vertices

vn 0.0000 1.0000 -0.0000
# 1 vertex normals

vt 0.7529 0.5000 0.0000
vt 0.8662 0.5000 0.0000
vt 0.8588 0.5833 0.0000
vt 0.7607 0.5833 0.0000
vt 0.8513 0.6667 0.0000
vt 0.7685 0.6667 0.0000
vt 0.8439 0.7500 0.0000
vt 0.7763 0.7500 0.0000
vt 0.8364 0.8333 0.0000
vt 0.7841 0.8333 0.0000
vt 0.8289 0.9167 0.0000
vt 0.7920 0.9167 0.0000
vt 0.8215 1.0000 0.0000
vt 0.7998 1.0000 0.0000
vt 0.8438 0.7500 0.0000
vt 0.8363 0.8333 0.0000
vt 0.7919 0.9167 0.0000
vt 0.8214 1.0000 0.0000
vt 0.7997 1.0000 0.0000
# 19 texture coords

g Plane006
s 1
f 4/4/1 3/3/1 2/2/1 1/1/1 
f 4/4/1 6/6/1 5/5/1 3/3/1 
f 6/6/1 8/8/1 7/7/1 5/5/1 
f 8/8/1 10/10/1 9/9/1 7/7/1 
f 10/10/1 12/12/1 11/11/1 9/9/1 
f 12/12/1 14/14/1 13/13/1 11/11/1 
f 2/1/1 16/4/1 15/3/1 1/2/1 
f 16/4/1 18/6/1 17/5/1 15/3/1 
f 18/6/1 20/8/1 19/15/1 17/5/1 
f 20/8/1 22/10/1 21/16/1 19/15/1 
f 22/10/1 24/17/1 23/11/1 21/16/1 
f 24/17/1 26/19/1 25/18/1 23/11/1 
# 12 polygons

