# 3ds Max Wavefront OBJ Exporter v0.97b - (c)2007 guruware
# File Created: 07.02.2018 23:17:17

#
# object Box001
#

v  2.0000 0.0000 -32.0000
v  4.0000 0.0000 -32.0000
v  3.7500 0.0000 -16.0000
v  1.5000 0.0000 -16.0000
v  3.5000 0.0000 -0.0000
v  1.0000 0.0000 -0.0000
v  3.2500 0.0000 16.0000
v  0.5000 0.0000 16.0000
v  3.0000 0.0000 32.0000
v  0.0000 0.0000 32.0000
# 10 vertices

vn 0.0000 1.0000 -0.0000
# 1 vertex normals

vt 0.0000 0.0000 0.0000
vt 1.0000 0.0000 0.0000
vt 1.0000 0.2500 0.0000
vt 0.0000 0.2500 0.0000
vt 1.0000 0.5000 0.0000
vt 0.0000 0.5000 0.0000
vt 1.0000 0.7500 0.0000
vt 0.0000 0.7500 0.0000
vt 1.0000 1.0000 0.0000
vt 0.0000 1.0000 0.0000
# 10 texture coords

g Box001
s 4
f 4/4/1 3/3/1 2/2/1 1/1/1 
f 6/6/1 5/5/1 3/3/1 4/4/1 
f 8/8/1 7/7/1 5/5/1 6/6/1 
f 10/10/1 9/9/1 7/7/1 8/8/1 
# 4 polygons

