# 3ds Max Wavefront OBJ Exporter v0.97b - (c)2007 guruware
# File Created: 07.02.2018 23:35:23

#
# object MedCon_OnePlusThreeS_Start002
#

v  -0.1682 -0.2964 31.9999
v  0.1680 -0.2964 31.9999
v  0.6210 -0.2964 15.9999
v  -0.1921 -0.2964 15.9999
v  1.6177 -0.2964 -0.0001
v  -0.2316 -0.2964 -0.0001
v  2.6265 -0.2968 -16.0001
v  -0.2709 -0.2964 -16.0001
v  3.1800 -0.3000 -32.0000
v  -0.2911 -0.2964 -32.0001
v  -3.0267 -0.2950 15.7356
v  -3.2066 -0.2950 15.7358
v  -3.1918 -0.2950 32.0000
v  -3.0118 -0.2950 32.0000
v  -3.2324 -0.2950 -0.1345
v  -3.0533 -0.2950 -0.1352
v  -3.2447 -0.2950 -15.9194
v  -3.0654 -0.2950 -15.9200
v  -3.2480 -0.2950 -32.0000
v  -3.0680 -0.2950 -32.0000
v  -6.2630 -0.2950 15.7353
v  -6.4429 -0.2950 15.7355
v  -6.4280 -0.2950 31.9997
v  -6.2480 -0.2950 31.9997
v  -6.4686 -0.2950 -0.1349
v  -6.2895 -0.2950 -0.1356
v  -6.4809 -0.2950 -15.9198
v  -6.3016 -0.2950 -15.9203
v  -6.4843 -0.2950 -32.0003
v  -6.3043 -0.2950 -32.0003
v  6.0421 -0.2950 15.5272
v  5.9967 -0.2950 32.0000
v  6.1767 -0.2950 32.0000
v  6.2220 -0.2950 15.5270
v  6.1466 -0.2950 -0.2470
v  6.3257 -0.2950 -0.2477
v  6.4474 -0.2950 -15.8869
v  6.2681 -0.2950 -15.8863
v  6.5154 -0.2950 -32.0000
v  6.3354 -0.2950 -32.0000
# 40 vertices

vn 0.0000 1.0000 -0.0000
# 1 vertex normals

vt 0.8177 0.9977 0.0000
vt 0.7983 0.9979 0.0000
vt 0.7752 0.7489 0.0000
vt 0.8429 0.7489 0.0000
vt 0.7520 0.5000 0.0000
vt 0.8666 0.5000 0.0000
vt 0.7289 0.2511 0.0000
vt 0.8903 0.2511 0.0000
vt 0.7058 0.0021 0.0000
vt 0.9140 0.0023 0.0000
vt 0.1635 0.2500 0.0000
vt 0.1590 0.2500 0.0000
vt 0.1590 0.0000 0.0000
vt 0.1635 0.0000 0.0000
vt 0.1590 0.5000 0.0000
vt 0.1635 0.5000 0.0000
vt 0.1590 0.7500 0.0000
vt 0.1635 0.7500 0.0000
vt 0.1590 1.0000 0.0000
vt 0.1635 1.0000 0.0000
# 20 texture coords

g MedCon_OnePlusThreeS_Start002
s 1
f 1/1/1 2/2/1 3/3/1 4/4/1 
f 4/4/1 3/3/1 5/5/1 6/6/1 
f 5/5/1 7/7/1 8/8/1 6/6/1 
f 7/7/1 9/9/1 10/10/1 8/8/1 
f 11/11/1 12/12/1 13/13/1 14/14/1 
f 15/15/1 12/12/1 11/11/1 16/16/1 
f 17/17/1 15/15/1 16/16/1 18/18/1 
f 19/19/1 17/17/1 18/18/1 20/20/1 
f 21/11/1 22/12/1 23/13/1 24/14/1 
f 25/15/1 22/12/1 21/11/1 26/16/1 
f 27/17/1 25/15/1 26/16/1 28/18/1 
f 29/19/1 27/17/1 28/18/1 30/20/1 
f 31/12/1 32/13/1 33/14/1 34/11/1 
f 35/15/1 31/12/1 34/11/1 36/16/1 
f 37/18/1 38/17/1 35/15/1 36/16/1 
f 39/20/1 40/19/1 38/17/1 37/18/1 
# 16 polygons

