# 3ds Max Wavefront OBJ Exporter v0.97b - (c)2007 guruware
# File Created: 08.02.2018 00:00:18

#
# object Object004
#

v  0.9998 0.0000 -0.0000
v  3.5000 0.0000 -0.0000
v  3.3762 0.0000 5.3333
v  0.7519 0.0000 5.3333
v  0.9998 -0.2950 -0.0000
v  0.7519 -0.2950 5.3333
v  3.5000 -0.2950 -0.0000
v  3.6238 0.0000 -5.3333
v  3.6238 -0.2950 -5.3333
v  2.0000 0.0000 -32.0000
v  4.0000 0.0000 -32.0000
v  3.9803 0.0000 -26.6667
v  1.9609 0.0000 -26.6667
v  3.9259 0.0000 -21.3333
v  1.8523 0.0000 -21.3333
v  3.8438 0.0000 -16.0000
v  1.6879 0.0000 -16.0000
v  3.7407 0.0000 -10.6667
v  1.4818 0.0000 -10.6667
v  1.2478 0.0000 -5.3333
v  3.0000 0.0000 32.0000
v  0.0000 0.0000 32.0000
v  0.0389 0.0000 26.6667
v  3.0197 0.0000 26.6667
v  0.1474 0.0000 21.3333
v  3.0741 0.0000 21.3333
v  0.3117 0.0000 16.0000
v  3.1563 0.0000 16.0000
v  0.5178 0.0000 10.6667
v  3.2593 0.0000 10.6667
v  2.0000 -0.2950 -32.0000
v  1.9609 -0.2950 -26.6667
v  1.8523 -0.2950 -21.3333
v  1.6879 -0.2950 -16.0000
v  1.4818 -0.2950 -10.6667
v  1.2478 -0.2950 -5.3333
v  0.0000 -0.2950 32.0000
v  0.0389 -0.2950 26.6667
v  0.1474 -0.2950 21.3333
v  0.3117 -0.2950 16.0000
v  0.5178 -0.2950 10.6667
v  3.0000 -0.2950 32.0000
v  3.0197 -0.2950 26.6667
v  3.0741 -0.2950 21.3333
v  3.1563 -0.2950 16.0000
v  3.2593 -0.2950 10.6667
v  3.3762 -0.2950 5.3333
v  4.0000 -0.2950 -32.0000
v  3.9803 -0.2950 -26.6667
v  3.9259 -0.2950 -21.3333
v  3.8438 -0.2950 -16.0000
v  3.7407 -0.2950 -10.6667
v  7.0640 -0.2950 -26.5929
v  6.8840 -0.2950 -26.5957
v  6.8952 -0.2950 -32.0014
v  7.0752 -0.2950 -31.9986
v  7.0335 -0.2950 -21.1685
v  6.8535 -0.2950 -21.1713
v  6.9877 -0.2950 -15.7807
v  6.8077 -0.2950 -15.7835
v  6.9302 -0.2950 -10.4294
v  6.7502 -0.2950 -10.4322
v  6.8652 -0.2950 -5.1095
v  6.6852 -0.2950 -5.1123
v  6.7964 -0.2950 0.1874
v  6.6164 -0.2950 0.1846
v  6.7277 -0.2950 5.4719
v  6.5477 -0.2950 5.4691
v  6.6627 -0.2950 10.7550
v  6.4827 -0.2950 10.7522
v  6.6055 -0.2950 16.0456
v  6.4255 -0.2950 16.0428
v  6.5598 -0.2950 21.3502
v  6.3798 -0.2950 21.3474
v  6.5296 -0.2950 26.6704
v  6.3496 -0.2950 26.6676
v  6.5186 -0.2950 32.0014
v  6.3386 -0.2950 31.9986
v  -3.8413 -0.2950 -26.5936
v  -4.0213 -0.2950 -26.5936
v  -4.0366 -0.2950 -32.0005
v  -3.8566 -0.2950 -32.0005
v  -3.7989 -0.2950 -21.1673
v  -3.9789 -0.2950 -21.1673
v  -3.7348 -0.2950 -15.7782
v  -3.9148 -0.2950 -15.7782
v  -3.6547 -0.2950 -10.4263
v  -3.8347 -0.2950 -10.4263
v  -3.5637 -0.2950 -5.1066
v  -3.7437 -0.2950 -5.1067
v  -3.4674 -0.2950 0.1896
v  -3.6474 -0.2950 0.1895
v  -6.8663 -0.2950 -26.5936
v  -7.0463 -0.2950 -26.5936
v  -7.0614 -0.2950 -32.0005
v  -6.8814 -0.2950 -32.0005
v  -6.8298 -0.2950 -21.1674
v  -7.0098 -0.2950 -21.1674
v  -6.7786 -0.2950 -15.7783
v  -6.9586 -0.2950 -15.7784
v  -6.7169 -0.2950 -10.4264
v  -6.8969 -0.2950 -10.4265
v  -6.6484 -0.2950 -5.1067
v  -6.8284 -0.2950 -5.1068
v  -6.5771 -0.2950 0.1895
v  -6.7571 -0.2950 0.1894
v  -6.5063 -0.2950 5.4733
v  -6.6863 -0.2950 5.4732
v  -6.4399 -0.2950 10.7552
v  -6.6199 -0.2950 10.7552
v  -6.3813 -0.2950 16.0450
v  -6.5613 -0.2950 16.0450
v  -6.3346 -0.2950 21.3492
v  -6.5147 -0.2950 21.3492
v  -6.3037 -0.2950 26.6690
v  -6.4837 -0.2950 26.6690
v  -6.2929 -0.2950 32.0000
v  -6.4729 -0.2950 32.0000
v  -3.3711 -0.2950 5.4733
v  -3.5511 -0.2950 5.4733
v  -3.2804 -0.2950 10.7553
v  -3.4604 -0.2950 10.7552
v  -3.2006 -0.2950 16.0451
v  -3.3806 -0.2950 16.0451
v  -3.1371 -0.2950 21.3492
v  -3.3171 -0.2950 21.3492
v  -3.0953 -0.2950 26.6690
v  -3.2753 -0.2950 26.6690
v  -3.0807 -0.2950 32.0000
v  -3.2607 -0.2950 32.0000
v  0.8198 -0.2950 -0.0000
v  0.5719 -0.2950 5.3333
v  1.8200 -0.2950 -32.0000
v  1.7809 -0.2950 -26.6667
v  1.6723 -0.2950 -21.3333
v  1.5079 -0.2950 -16.0000
v  1.3018 -0.2950 -10.6667
v  1.0678 -0.2950 -5.3333
v  -0.1411 -0.2950 26.6667
v  -0.1800 -0.2950 32.0000
v  -0.0326 -0.2950 21.3333
v  0.1317 -0.2950 16.0000
v  0.3378 -0.2950 10.6667
v  3.6800 -0.2950 -0.0000
v  3.8038 -0.2950 -5.3333
v  3.1800 -0.2950 32.0000
v  3.1997 -0.2950 26.6667
v  3.2541 -0.2950 21.3333
v  3.3363 -0.2950 16.0000
v  3.4393 -0.2950 10.6667
v  3.5562 -0.2950 5.3333
v  4.1603 -0.2950 -26.6667
v  4.1800 -0.2950 -32.0000
v  4.1059 -0.2950 -21.3333
v  4.0238 -0.2950 -16.0000
v  3.9207 -0.2950 -10.6667
# 156 vertices

vn 0.0000 1.0000 -0.0000
vn -1.0000 0.0000 -0.0000
vn 1.0000 0.0000 -0.0000
vn 0.0000 0.0000 1.0000
vn 0.0000 0.0000 -1.0000
# 5 vertex normals

vt 0.4004 0.5000 0.0000
vt 0.6046 0.5000 0.0000
vt 0.6046 0.5833 0.0000
vt 0.4004 0.5833 0.0000
vt 0.6046 0.4167 0.0000
vt 0.4004 0.0000 0.0000
vt 0.6046 0.0000 0.0000
vt 0.6046 0.0833 0.0000
vt 0.4004 0.0833 0.0000
vt 0.6046 0.1667 0.0000
vt 0.4004 0.1667 0.0000
vt 0.6046 0.2500 0.0000
vt 0.4004 0.2500 0.0000
vt 0.6046 0.3333 0.0000
vt 0.4004 0.3333 0.0000
vt 0.4004 0.4167 0.0000
vt 0.6046 1.0000 0.0000
vt 0.4004 1.0000 0.0000
vt 0.4004 0.9167 0.0000
vt 0.6046 0.9167 0.0000
vt 0.4004 0.8333 0.0000
vt 0.6046 0.8333 0.0000
vt 0.4004 0.7500 0.0000
vt 0.6046 0.7500 0.0000
vt 0.4004 0.6667 0.0000
vt 0.6046 0.6667 0.0000
vt 0.0398 1.0000 0.0000
vt 0.2440 1.0000 0.0000
vt 0.2440 0.0000 0.0000
vt 0.0398 0.0000 0.0000
vt 0.1643 0.0834 0.0000
vt 0.1583 0.0834 0.0000
vt 0.1583 0.0001 0.0000
vt 0.1643 0.0001 0.0000
vt 0.1643 0.1668 0.0000
vt 0.1583 0.1667 0.0000
vt 0.1643 0.2501 0.0000
vt 0.1583 0.2500 0.0000
vt 0.1643 0.3334 0.0000
vt 0.1583 0.3334 0.0000
vt 0.1643 0.4167 0.0000
vt 0.1583 0.4167 0.0000
vt 0.1643 0.5001 0.0000
vt 0.1583 0.5000 0.0000
vt 0.1643 0.5834 0.0000
vt 0.1583 0.5833 0.0000
vt 0.1643 0.6667 0.0000
vt 0.1583 0.6667 0.0000
vt 0.1643 0.7500 0.0000
vt 0.1583 0.7500 0.0000
vt 0.1643 0.8334 0.0000
vt 0.1583 0.8333 0.0000
vt 0.1643 0.9167 0.0000
vt 0.1583 0.9166 0.0000
vt 0.1643 1.0000 0.0000
vt 0.1583 1.0000 0.0000
vt 0.1631 0.0833 0.0000
vt 0.1592 0.0833 0.0000
vt 0.1592 0.0000 0.0000
vt 0.1631 0.0000 0.0000
vt 0.1631 0.1667 0.0000
vt 0.1592 0.1667 0.0000
vt 0.1631 0.2500 0.0000
vt 0.1592 0.2500 0.0000
vt 0.1631 0.3333 0.0000
vt 0.1592 0.3333 0.0000
vt 0.1631 0.4167 0.0000
vt 0.1592 0.4167 0.0000
vt 0.1631 0.5000 0.0000
vt 0.1592 0.5000 0.0000
vt 0.1631 0.5833 0.0000
vt 0.1592 0.5833 0.0000
vt 0.1631 0.6667 0.0000
vt 0.1592 0.6667 0.0000
vt 0.1631 0.7500 0.0000
vt 0.1592 0.7500 0.0000
vt 0.1631 0.8333 0.0000
vt 0.1592 0.8333 0.0000
vt 0.1631 0.9167 0.0000
vt 0.1592 0.9167 0.0000
vt 0.1631 1.0000 0.0000
vt 0.1592 1.0000 0.0000
vt 0.1819 0.5000 0.0000
vt 0.1880 0.5000 0.0000
vt 0.1880 0.5833 0.0000
vt 0.1819 0.5833 0.0000
vt 0.1819 0.0000 0.0000
vt 0.1880 0.0000 0.0000
vt 0.1880 0.0833 0.0000
vt 0.1819 0.0833 0.0000
vt 0.1880 0.1667 0.0000
vt 0.1819 0.1667 0.0000
vt 0.1880 0.2500 0.0000
vt 0.1819 0.2500 0.0000
vt 0.1880 0.3333 0.0000
vt 0.1819 0.3333 0.0000
vt 0.1880 0.4167 0.0000
vt 0.1819 0.4167 0.0000
vt 0.1819 0.9167 0.0000
vt 0.1880 0.9167 0.0000
vt 0.1880 1.0000 0.0000
vt 0.1819 1.0000 0.0000
vt 0.1819 0.8333 0.0000
vt 0.1880 0.8333 0.0000
vt 0.1819 0.7500 0.0000
vt 0.1880 0.7500 0.0000
vt 0.1819 0.6667 0.0000
vt 0.1880 0.6667 0.0000
# 108 texture coords

g Object004
s off
f 3/3/1 2/2/1 1/1/1 
f 1/1/1 4/4/1 3/3/1 
f 4/4/2 1/1/2 5/1/2 
f 5/1/2 6/4/2 4/4/2 
f 8/5/3 2/2/3 7/2/3 
f 7/2/3 9/5/3 8/5/3 
f 12/8/1 11/7/1 10/6/1 
f 10/6/1 13/9/1 12/8/1 
f 14/10/1 12/8/1 13/9/1 
f 13/9/1 15/11/1 14/10/1 
f 16/12/1 14/10/1 15/11/1 
f 15/11/1 17/13/1 16/12/1 
f 18/14/1 16/12/1 17/13/1 
f 17/13/1 19/15/1 18/14/1 
f 8/5/1 18/14/1 19/15/1 
f 19/15/1 20/16/1 8/5/1 
f 2/2/1 8/5/1 20/16/1 
f 20/16/1 1/1/1 2/2/1 
f 23/19/1 22/18/1 21/17/1 
f 21/17/1 24/20/1 23/19/1 
f 25/21/1 23/19/1 24/20/1 
f 24/20/1 26/22/1 25/21/1 
f 27/23/1 25/21/1 26/22/1 
f 26/22/1 28/24/1 27/23/1 
f 29/25/1 27/23/1 28/24/1 
f 28/24/1 30/26/1 29/25/1 
f 4/4/1 29/25/1 30/26/1 
f 30/26/1 3/3/1 4/4/1 
f 13/9/2 10/6/2 31/6/2 
f 31/6/2 32/9/2 13/9/2 
f 15/11/2 13/9/2 32/9/2 
f 32/9/2 33/11/2 15/11/2 
f 17/13/2 15/11/2 33/11/2 
f 33/11/2 34/13/2 17/13/2 
f 19/15/2 17/13/2 34/13/2 
f 34/13/2 35/15/2 19/15/2 
f 20/16/2 19/15/2 35/15/2 
f 35/15/2 36/16/2 20/16/2 
f 1/1/2 20/16/2 36/16/2 
f 36/16/2 5/1/2 1/1/2 
f 38/19/2 37/18/2 22/18/2 
f 22/18/2 23/19/2 38/19/2 
f 39/21/2 38/19/2 23/19/2 
f 23/19/2 25/21/2 39/21/2 
f 40/23/2 39/21/2 25/21/2 
f 25/21/2 27/23/2 40/23/2 
f 41/25/2 40/23/2 27/23/2 
f 27/23/2 29/25/2 41/25/2 
f 6/4/2 41/25/2 29/25/2 
f 29/25/2 4/4/2 6/4/2 
f 24/20/3 21/17/3 42/17/3 
f 42/17/3 43/20/3 24/20/3 
f 26/22/3 24/20/3 43/20/3 
f 43/20/3 44/22/3 26/22/3 
f 28/24/3 26/22/3 44/22/3 
f 44/22/3 45/24/3 28/24/3 
f 30/26/3 28/24/3 45/24/3 
f 45/24/3 46/26/3 30/26/3 
f 3/3/3 30/26/3 46/26/3 
f 46/26/3 47/3/3 3/3/3 
f 2/2/3 3/3/3 47/3/3 
f 47/3/3 7/2/3 2/2/3 
f 49/8/3 48/7/3 11/7/3 
f 11/7/3 12/8/3 49/8/3 
f 50/10/3 49/8/3 12/8/3 
f 12/8/3 14/10/3 50/10/3 
f 51/12/3 50/10/3 14/10/3 
f 14/10/3 16/12/3 51/12/3 
f 52/14/3 51/12/3 16/12/3 
f 16/12/3 18/14/3 52/14/3 
f 9/5/3 52/14/3 18/14/3 
f 18/14/3 8/5/3 9/5/3 
f 42/28/4 21/28/4 37/27/4 
f 21/28/4 22/27/4 37/27/4 
f 10/30/5 11/29/5 48/29/5 
f 48/29/5 31/30/5 10/30/5 
f 56/34/1 55/33/1 54/32/1 53/31/1 
f 53/31/1 54/32/1 58/36/1 57/35/1 
f 57/35/1 58/36/1 60/38/1 59/37/1 
f 59/37/1 60/38/1 62/40/1 61/39/1 
f 61/39/1 62/40/1 64/42/1 63/41/1 
f 63/41/1 64/42/1 66/44/1 65/43/1 
f 65/43/1 66/44/1 68/46/1 67/45/1 
f 67/45/1 68/46/1 70/48/1 69/47/1 
f 69/47/1 70/48/1 72/50/1 71/49/1 
f 71/49/1 72/50/1 74/52/1 73/51/1 
f 73/51/1 74/52/1 76/54/1 75/53/1 
f 75/53/1 76/54/1 78/56/1 77/55/1 
s 1
f 82/60/1 81/59/1 80/58/1 79/57/1 
f 79/57/1 80/58/1 84/62/1 83/61/1 
f 83/61/1 84/62/1 86/64/1 85/63/1 
f 85/63/1 86/64/1 88/66/1 87/65/1 
f 87/65/1 88/66/1 90/68/1 89/67/1 
f 89/67/1 90/68/1 92/70/1 91/69/1 
f 96/60/1 95/59/1 94/58/1 93/57/1 
f 93/57/1 94/58/1 98/62/1 97/61/1 
f 97/61/1 98/62/1 100/64/1 99/63/1 
f 99/63/1 100/64/1 102/66/1 101/65/1 
f 101/65/1 102/66/1 104/68/1 103/67/1 
f 103/67/1 104/68/1 106/70/1 105/69/1 
f 105/69/1 106/70/1 108/72/1 107/71/1 
f 107/71/1 108/72/1 110/74/1 109/73/1 
f 109/73/1 110/74/1 112/76/1 111/75/1 
f 111/75/1 112/76/1 114/78/1 113/77/1 
f 113/77/1 114/78/1 116/80/1 115/79/1 
f 115/79/1 116/80/1 118/82/1 117/81/1 
f 91/69/1 92/70/1 120/72/1 119/71/1 
f 119/71/1 120/72/1 122/74/1 121/73/1 
f 121/73/1 122/74/1 124/76/1 123/75/1 
f 123/75/1 124/76/1 126/78/1 125/77/1 
f 125/77/1 126/78/1 128/80/1 127/79/1 
f 127/79/1 128/80/1 130/82/1 129/81/1 
s off
f 132/86/1 6/85/1 5/84/1 131/83/1 
f 134/90/1 32/89/1 31/88/1 133/87/1 
f 135/92/1 33/91/1 32/89/1 134/90/1 
f 136/94/1 34/93/1 33/91/1 135/92/1 
f 137/96/1 35/95/1 34/93/1 136/94/1 
f 138/98/1 36/97/1 35/95/1 137/96/1 
f 131/83/1 5/84/1 36/97/1 138/98/1 
f 140/102/1 37/101/1 38/100/1 139/99/1 
f 139/99/1 38/100/1 39/104/1 141/103/1 
f 141/103/1 39/104/1 40/106/1 142/105/1 
f 142/105/1 40/106/1 41/108/1 143/107/1 
f 143/107/1 41/108/1 6/85/1 132/86/1 
f 145/86/1 9/85/1 7/84/1 144/83/1 
f 147/90/1 43/89/1 42/88/1 146/87/1 
f 148/92/1 44/91/1 43/89/1 147/90/1 
f 149/94/1 45/93/1 44/91/1 148/92/1 
f 150/96/1 46/95/1 45/93/1 149/94/1 
f 151/98/1 47/97/1 46/95/1 150/96/1 
f 144/83/1 7/84/1 47/97/1 151/98/1 
f 153/102/1 48/101/1 49/100/1 152/99/1 
f 152/99/1 49/100/1 50/104/1 154/103/1 
f 154/103/1 50/104/1 51/106/1 155/105/1 
f 155/105/1 51/106/1 52/108/1 156/107/1 
f 156/107/1 52/108/1 9/85/1 145/86/1 
# 60 polygons - 76 triangles

