# 3ds Max Wavefront OBJ Exporter v0.97b - (c)2007 guruware
# File Created: 31.01.2018 17:42:40

#
# object Plane001
#

v  3.0805 0.0000 32.0000
v  -3.1195 0.0000 32.0000
v  -2.6195 0.0000 16.0000
v  3.0805 0.0000 16.0000
v  -1.5195 0.0000 0.0000
v  3.0805 0.0000 0.0000
v  -0.4195 0.0000 -16.0000
v  3.0805 0.0000 -16.0000
v  0.0805 0.0000 -32.0000
v  3.0805 0.0000 -32.0000
# 10 vertices

vn 0.0000 1.0000 -0.0000
# 1 vertex normals

vt 0.4038 0.0000 0.0000
vt 0.6067 0.0000 0.0000
vt 0.6067 0.2500 0.0000
vt 0.4038 0.2500 0.0000
vt 0.6067 0.5000 0.0000
vt 0.4038 0.5000 0.0000
vt 0.6067 0.7500 0.0000
vt 0.4038 0.7500 0.0000
vt 0.6067 1.0000 0.0000
vt 0.4038 1.0000 0.0000
# 10 texture coords

g Plane001
s 1
f 4/4/1 3/3/1 2/2/1 1/1/1 
f 6/6/1 5/5/1 3/3/1 4/4/1 
f 8/8/1 7/7/1 5/5/1 6/6/1 
f 10/10/1 9/9/1 7/7/1 8/8/1 
# 4 polygons

