# 3ds Max Wavefront OBJ Exporter v0.97b - (c)2007 guruware
# File Created: 31.01.2018 08:06:01

#
# object Ground
#

v  0.0000 -0.3000 32.0000
v  0.0000 0.0000 32.0000
v  -3.0000 0.0000 32.0000
v  -3.0000 -0.3000 32.0000
v  -3.0000 -0.3000 -32.0000
v  -3.0000 0.0000 -32.0000
v  0.0000 0.0000 -32.0000
v  0.0000 -0.3000 -32.0000
v  -11.2000 -0.3000 1.5238
v  -3.0000 -0.3000 1.5238
v  -3.0000 -0.3000 -1.5238
v  -11.2000 -0.3000 -1.5238
v  0.0000 -0.3000 1.5238
v  11.2000 -0.3000 1.5238
v  11.2000 -0.3000 -1.5238
v  0.0000 -0.3000 -1.5238
v  -3.0000 0.0000 1.5238
v  0.0000 0.0000 1.5238
v  0.0000 0.0000 -1.5238
v  -3.0000 0.0000 -1.5238
v  -18.3200 -2.0000 1.5238
v  -16.0000 0.0000 1.5238
v  -16.0000 0.0000 -1.5238
v  -18.3200 -2.0000 -1.5238
v  16.0000 0.0000 -1.5238
v  12.2000 0.0000 -1.5238
v  12.2000 0.0000 1.5238
v  16.0000 0.0000 1.5238
v  18.3200 -2.0000 1.5238
v  18.3200 -2.0000 -1.5238
v  -12.2000 0.0000 1.5238
v  -12.2000 0.0000 -1.5238
v  -11.2000 -0.3000 -28.9524
v  -3.0000 -0.3000 -28.9524
v  -11.2000 -0.3000 -32.0000
v  -11.2000 -0.3000 -25.9048
v  -3.0000 -0.3000 -25.9048
v  -11.2000 -0.3000 -22.8571
v  -3.0000 -0.3000 -22.8571
v  -11.2000 -0.3000 -19.8095
v  -3.0000 -0.3000 -19.8095
v  -11.2000 -0.3000 -16.7619
v  -3.0000 -0.3000 -16.7619
v  -11.2000 -0.3000 -13.7143
v  -3.0000 -0.3000 -13.7143
v  -11.2000 -0.3000 -10.6667
v  -3.0000 -0.3000 -10.6667
v  -11.2000 -0.3000 -7.6190
v  -3.0000 -0.3000 -7.6190
v  -11.2000 -0.3000 -4.5714
v  -3.0000 -0.3000 -4.5714
v  -3.0000 -0.3000 28.9524
v  -11.2000 -0.3000 28.9524
v  -11.2000 -0.3000 32.0000
v  -3.0000 -0.3000 25.9048
v  -11.2000 -0.3000 25.9048
v  -3.0000 -0.3000 22.8571
v  -11.2000 -0.3000 22.8571
v  -3.0000 -0.3000 19.8095
v  -11.2000 -0.3000 19.8095
v  -3.0000 -0.3000 16.7619
v  -11.2000 -0.3000 16.7619
v  -3.0000 -0.3000 13.7143
v  -11.2000 -0.3000 13.7143
v  -3.0000 -0.3000 10.6667
v  -11.2000 -0.3000 10.6667
v  -3.0000 -0.3000 7.6190
v  -11.2000 -0.3000 7.6190
v  -3.0000 -0.3000 4.5714
v  -11.2000 -0.3000 4.5714
v  0.0000 -0.3000 -28.9524
v  11.2000 -0.3000 -28.9524
v  11.2000 -0.3000 -32.0000
v  0.0000 -0.3000 -25.9048
v  11.2000 -0.3000 -25.9048
v  0.0000 -0.3000 -22.8571
v  11.2000 -0.3000 -22.8571
v  0.0000 -0.3000 -19.8095
v  11.2000 -0.3000 -19.8095
v  0.0000 -0.3000 -16.7619
v  11.2000 -0.3000 -16.7619
v  0.0000 -0.3000 -13.7143
v  11.2000 -0.3000 -13.7143
v  0.0000 -0.3000 -10.6667
v  11.2000 -0.3000 -10.6667
v  0.0000 -0.3000 -7.6190
v  11.2000 -0.3000 -7.6190
v  0.0000 -0.3000 -4.5714
v  11.2000 -0.3000 -4.5714
v  11.2000 -0.3000 28.9524
v  0.0000 -0.3000 28.9524
v  11.2000 -0.3000 32.0000
v  11.2000 -0.3000 25.9048
v  0.0000 -0.3000 25.9048
v  11.2000 -0.3000 22.8571
v  0.0000 -0.3000 22.8571
v  11.2000 -0.3000 19.8095
v  0.0000 -0.3000 19.8095
v  11.2000 -0.3000 16.7619
v  0.0000 -0.3000 16.7619
v  11.2000 -0.3000 13.7143
v  0.0000 -0.3000 13.7143
v  11.2000 -0.3000 10.6667
v  0.0000 -0.3000 10.6667
v  11.2000 -0.3000 7.6190
v  0.0000 -0.3000 7.6190
v  11.2000 -0.3000 4.5714
v  0.0000 -0.3000 4.5714
v  -3.0000 0.0000 -28.9524
v  0.0000 0.0000 -28.9524
v  -3.0000 0.0000 -25.9048
v  0.0000 0.0000 -25.9048
v  -3.0000 0.0000 -22.8571
v  0.0000 0.0000 -22.8571
v  -3.0000 0.0000 -19.8095
v  0.0000 0.0000 -19.8095
v  -3.0000 0.0000 -16.7619
v  0.0000 0.0000 -16.7619
v  -3.0000 0.0000 -13.7143
v  0.0000 0.0000 -13.7143
v  -3.0000 0.0000 -10.6667
v  0.0000 0.0000 -10.6667
v  -3.0000 0.0000 -7.6190
v  0.0000 0.0000 -7.6190
v  -3.0000 0.0000 -4.5714
v  0.0000 0.0000 -4.5714
v  0.0000 0.0000 28.9524
v  -3.0000 0.0000 28.9524
v  0.0000 0.0000 25.9048
v  -3.0000 0.0000 25.9048
v  0.0000 0.0000 22.8571
v  -3.0000 0.0000 22.8571
v  0.0000 0.0000 19.8095
v  -3.0000 0.0000 19.8095
v  0.0000 0.0000 16.7619
v  -3.0000 0.0000 16.7619
v  0.0000 0.0000 13.7143
v  -3.0000 0.0000 13.7143
v  0.0000 0.0000 10.6667
v  -3.0000 0.0000 10.6667
v  0.0000 0.0000 7.6190
v  -3.0000 0.0000 7.6190
v  0.0000 0.0000 4.5714
v  -3.0000 0.0000 4.5714
v  -18.3200 -2.0000 -28.9524
v  -16.0000 0.0000 -28.9524
v  -16.0000 0.0000 -32.0000
v  -18.3200 -2.0000 -32.0000
v  -18.3200 -2.0000 -25.9048
v  -16.0000 0.0000 -25.9048
v  -18.3200 -2.0000 -22.8571
v  -16.0000 0.0000 -22.8571
v  -18.3200 -2.0000 -19.8095
v  -16.0000 0.0000 -19.8095
v  -18.3200 -2.0000 -16.7619
v  -16.0000 0.0000 -16.7619
v  -18.3200 -2.0000 -13.7143
v  -16.0000 0.0000 -13.7143
v  -18.3200 -2.0000 -10.6667
v  -16.0000 0.0000 -10.6667
v  -18.3200 -2.0000 -7.6190
v  -16.0000 0.0000 -7.6190
v  -18.3200 -2.0000 -4.5714
v  -16.0000 0.0000 -4.5714
v  -16.0000 0.0000 28.9524
v  -18.3200 -2.0000 28.9524
v  -18.3200 -2.0000 32.0000
v  -16.0000 0.0000 32.0000
v  -16.0000 0.0000 25.9048
v  -18.3200 -2.0000 25.9048
v  -16.0000 0.0000 22.8571
v  -18.3200 -2.0000 22.8571
v  -16.0000 0.0000 19.8095
v  -18.3200 -2.0000 19.8095
v  -16.0000 0.0000 16.7619
v  -18.3200 -2.0000 16.7619
v  -16.0000 0.0000 13.7143
v  -18.3200 -2.0000 13.7143
v  -16.0000 0.0000 10.6667
v  -18.3200 -2.0000 10.6667
v  -16.0000 0.0000 7.6190
v  -18.3200 -2.0000 7.6190
v  -16.0000 0.0000 4.5714
v  -18.3200 -2.0000 4.5714
v  16.0000 0.0000 28.9524
v  12.2000 0.0000 28.9524
v  12.2000 0.0000 32.0000
v  16.0000 0.0000 32.0000
v  16.0000 0.0000 25.9048
v  12.2000 0.0000 25.9048
v  16.0000 0.0000 22.8571
v  12.2000 0.0000 22.8571
v  16.0000 0.0000 19.8095
v  12.2000 0.0000 19.8095
v  16.0000 0.0000 16.7619
v  12.2000 0.0000 16.7619
v  16.0000 0.0000 13.7143
v  12.2000 0.0000 13.7143
v  16.0000 0.0000 10.6667
v  12.2000 0.0000 10.6667
v  16.0000 0.0000 7.6190
v  12.2000 0.0000 7.6190
v  16.0000 0.0000 4.5714
v  12.2000 0.0000 4.5714
v  12.2000 0.0000 -28.9524
v  16.0000 0.0000 -28.9524
v  16.0000 0.0000 -32.0000
v  12.2000 0.0000 -32.0000
v  12.2000 0.0000 -25.9048
v  16.0000 0.0000 -25.9048
v  12.2000 0.0000 -22.8571
v  16.0000 0.0000 -22.8571
v  12.2000 0.0000 -19.8095
v  16.0000 0.0000 -19.8095
v  12.2000 0.0000 -16.7619
v  16.0000 0.0000 -16.7619
v  12.2000 0.0000 -13.7143
v  16.0000 0.0000 -13.7143
v  12.2000 0.0000 -10.6667
v  16.0000 0.0000 -10.6667
v  12.2000 0.0000 -7.6190
v  16.0000 0.0000 -7.6190
v  12.2000 0.0000 -4.5714
v  16.0000 0.0000 -4.5714
v  18.3200 -2.0000 -28.9524
v  18.3200 -2.0000 -32.0000
v  18.3200 -2.0000 -25.9048
v  18.3200 -2.0000 -22.8571
v  18.3200 -2.0000 -19.8095
v  18.3200 -2.0000 -16.7619
v  18.3200 -2.0000 -13.7143
v  18.3200 -2.0000 -10.6667
v  18.3200 -2.0000 -7.6190
v  18.3200 -2.0000 -4.5714
v  18.3200 -2.0000 28.9524
v  18.3200 -2.0000 32.0000
v  18.3200 -2.0000 25.9048
v  18.3200 -2.0000 22.8571
v  18.3200 -2.0000 19.8095
v  18.3200 -2.0000 16.7619
v  18.3200 -2.0000 13.7143
v  18.3200 -2.0000 10.6667
v  18.3200 -2.0000 7.6190
v  18.3200 -2.0000 4.5714
v  -12.2000 0.0000 -28.9524
v  -12.2000 0.0000 -32.0000
v  -12.2000 0.0000 -25.9048
v  -12.2000 0.0000 -22.8571
v  -12.2000 0.0000 -19.8095
v  -12.2000 0.0000 -16.7619
v  -12.2000 0.0000 -13.7143
v  -12.2000 0.0000 -10.6667
v  -12.2000 0.0000 -7.6190
v  -12.2000 0.0000 -4.5714
v  -12.2000 0.0000 28.9524
v  -12.2000 0.0000 32.0000
v  -12.2000 0.0000 25.9048
v  -12.2000 0.0000 22.8571
v  -12.2000 0.0000 19.8095
v  -12.2000 0.0000 16.7619
v  -12.2000 0.0000 13.7143
v  -12.2000 0.0000 10.6667
v  -12.2000 0.0000 7.6190
v  -12.2000 0.0000 4.5714
# 264 vertices

vn 0.0000 0.0000 1.0000
vn 0.0000 0.0000 -1.0000
vn 0.0000 1.0000 -0.0000
vn -0.6529 0.7574 -0.0000
vn 0.6529 0.7574 -0.0000
vn 1.0000 0.0000 -0.0000
vn -1.0000 0.0000 -0.0000
# 7 vertex normals

vt 0.5000 -0.0001 0.0000
vt 0.4063 -0.0001 0.0000
vt 0.4063 0.9998 0.0000
vt 0.5000 0.9998 0.0000
vt 0.1872 0.4761 0.0000
vt 0.4063 0.4761 0.0000
vt 0.4063 0.5237 0.0000
vt 0.1872 0.5237 0.0000
vt 0.5000 0.4761 0.0000
vt 0.8255 0.4761 0.0000
vt 0.8255 0.5237 0.0000
vt 0.5000 0.5237 0.0000
vt 0.1282 0.4762 0.0000
vt 0.0000 0.4762 0.0000
vt 0.0000 0.5238 0.0000
vt 0.1282 0.5238 0.0000
vt 0.1872 0.9522 0.0000
vt 0.4063 0.9522 0.0000
vt 0.1872 0.9998 0.0000
vt 0.1872 0.9046 0.0000
vt 0.4063 0.9046 0.0000
vt 0.1872 0.8569 0.0000
vt 0.4063 0.8569 0.0000
vt 0.1872 0.8093 0.0000
vt 0.4063 0.8093 0.0000
vt 0.1872 0.7617 0.0000
vt 0.4063 0.7617 0.0000
vt 0.1872 0.7141 0.0000
vt 0.4063 0.7141 0.0000
vt 0.1872 0.6666 0.0000
vt 0.4063 0.6666 0.0000
vt 0.1872 0.6189 0.0000
vt 0.4063 0.6189 0.0000
vt 0.1872 0.5713 0.0000
vt 0.4063 0.5713 0.0000
vt 0.4063 0.0475 0.0000
vt 0.1872 0.0475 0.0000
vt 0.1872 -0.0001 0.0000
vt 0.4063 0.0951 0.0000
vt 0.1872 0.0951 0.0000
vt 0.4063 0.1428 0.0000
vt 0.1872 0.1428 0.0000
vt 0.4063 0.1904 0.0000
vt 0.1872 0.1904 0.0000
vt 0.4063 0.2380 0.0000
vt 0.1872 0.2380 0.0000
vt 0.4063 0.2856 0.0000
vt 0.1872 0.2856 0.0000
vt 0.4063 0.3332 0.0000
vt 0.1872 0.3332 0.0000
vt 0.4063 0.3809 0.0000
vt 0.1872 0.3809 0.0000
vt 0.4063 0.4285 0.0000
vt 0.1872 0.4285 0.0000
vt 0.5000 0.9522 0.0000
vt 0.8255 0.9522 0.0000
vt 0.8255 0.9998 0.0000
vt 0.5000 0.9046 0.0000
vt 0.8255 0.9046 0.0000
vt 0.5000 0.8569 0.0000
vt 0.8255 0.8569 0.0000
vt 0.5000 0.8093 0.0000
vt 0.8255 0.8093 0.0000
vt 0.5000 0.7617 0.0000
vt 0.8255 0.7617 0.0000
vt 0.5000 0.7141 0.0000
vt 0.8255 0.7141 0.0000
vt 0.5000 0.6666 0.0000
vt 0.8255 0.6666 0.0000
vt 0.5000 0.6189 0.0000
vt 0.8255 0.6189 0.0000
vt 0.5000 0.5713 0.0000
vt 0.8255 0.5713 0.0000
vt 0.8255 0.0475 0.0000
vt 0.5000 0.0475 0.0000
vt 0.8255 -0.0001 0.0000
vt 0.8255 0.0951 0.0000
vt 0.5000 0.0951 0.0000
vt 0.8255 0.1428 0.0000
vt 0.5000 0.1428 0.0000
vt 0.8255 0.1904 0.0000
vt 0.5000 0.1904 0.0000
vt 0.8255 0.2380 0.0000
vt 0.5000 0.2380 0.0000
vt 0.8255 0.2856 0.0000
vt 0.5000 0.2856 0.0000
vt 0.8255 0.3332 0.0000
vt 0.5000 0.3332 0.0000
vt 0.8255 0.3809 0.0000
vt 0.5000 0.3809 0.0000
vt 0.8255 0.4285 0.0000
vt 0.5000 0.4285 0.0000
vt 0.1282 0.9524 0.0000
vt 0.0000 0.9524 0.0000
vt 0.0000 1.0000 0.0000
vt 0.1282 1.0000 0.0000
vt 0.1282 0.9048 0.0000
vt 0.0000 0.9048 0.0000
vt 0.1282 0.8571 0.0000
vt 0.0000 0.8571 0.0000
vt 0.1282 0.8095 0.0000
vt 0.0000 0.8095 0.0000
vt 0.1282 0.7619 0.0000
vt 0.0000 0.7619 0.0000
vt 0.1282 0.7143 0.0000
vt 0.0000 0.7143 0.0000
vt 0.1282 0.6667 0.0000
vt 0.0000 0.6667 0.0000
vt 0.1282 0.6190 0.0000
vt 0.0000 0.6190 0.0000
vt 0.1282 0.5714 0.0000
vt 0.0000 0.5714 0.0000
vt 0.0000 0.0476 0.0000
vt 0.1282 0.0476 0.0000
vt 0.1282 0.0000 0.0000
vt 0.0000 0.0000 0.0000
vt 0.0000 0.0952 0.0000
vt 0.1282 0.0952 0.0000
vt 0.0000 0.1429 0.0000
vt 0.1282 0.1429 0.0000
vt 0.0000 0.1905 0.0000
vt 0.1282 0.1905 0.0000
vt 0.0000 0.2381 0.0000
vt 0.1282 0.2381 0.0000
vt 0.0000 0.2857 0.0000
vt 0.1282 0.2857 0.0000
vt 0.0000 0.3333 0.0000
vt 0.1282 0.3333 0.0000
vt 0.0000 0.3810 0.0000
vt 0.1282 0.3810 0.0000
vt 0.0000 0.4286 0.0000
vt 0.1282 0.4286 0.0000
vt 0.1282 -0.0000 0.0000
vt 0.0000 -0.0000 0.0000
# 134 texture coords

g Ground
s off
f 1/1/1 2/1/1 3/2/1 4/2/1 
f 5/3/2 6/3/2 7/4/2 8/4/2 
f 9/5/3 10/6/3 11/7/3 12/8/3 
f 13/9/3 14/10/3 15/11/3 16/12/3 
f 17/6/3 18/9/3 19/12/3 20/7/3 
f 21/13/4 22/14/4 23/15/4 24/16/4 
f 25/15/3 26/16/3 27/13/3 28/14/3 
f 28/14/5 29/13/5 30/16/5 25/15/5 
f 18/9/6 13/9/6 16/12/6 19/12/6 
f 20/7/7 11/7/7 10/6/7 17/6/7 
f 22/14/3 31/13/3 32/16/3 23/15/3 
f 33/17/3 34/18/3 5/3/3 35/19/3 
f 36/20/3 37/21/3 34/18/3 33/17/3 
f 38/22/3 39/23/3 37/21/3 36/20/3 
f 40/24/3 41/25/3 39/23/3 38/22/3 
f 42/26/3 43/27/3 41/25/3 40/24/3 
f 44/28/3 45/29/3 43/27/3 42/26/3 
f 46/30/3 47/31/3 45/29/3 44/28/3 
f 48/32/3 49/33/3 47/31/3 46/30/3 
f 50/34/3 51/35/3 49/33/3 48/32/3 
f 12/8/3 11/7/3 51/35/3 50/34/3 
f 52/36/3 53/37/3 54/38/3 4/2/3 
f 55/39/3 56/40/3 53/37/3 52/36/3 
f 57/41/3 58/42/3 56/40/3 55/39/3 
f 59/43/3 60/44/3 58/42/3 57/41/3 
f 61/45/3 62/46/3 60/44/3 59/43/3 
f 63/47/3 64/48/3 62/46/3 61/45/3 
f 65/49/3 66/50/3 64/48/3 63/47/3 
f 67/51/3 68/52/3 66/50/3 65/49/3 
f 69/53/3 70/54/3 68/52/3 67/51/3 
f 10/6/3 9/5/3 70/54/3 69/53/3 
f 71/55/3 72/56/3 73/57/3 8/4/3 
f 74/58/3 75/59/3 72/56/3 71/55/3 
f 76/60/3 77/61/3 75/59/3 74/58/3 
f 78/62/3 79/63/3 77/61/3 76/60/3 
f 80/64/3 81/65/3 79/63/3 78/62/3 
f 82/66/3 83/67/3 81/65/3 80/64/3 
f 84/68/3 85/69/3 83/67/3 82/66/3 
f 86/70/3 87/71/3 85/69/3 84/68/3 
f 88/72/3 89/73/3 87/71/3 86/70/3 
f 16/12/3 15/11/3 89/73/3 88/72/3 
f 90/74/3 91/75/3 1/1/3 92/76/3 
f 93/77/3 94/78/3 91/75/3 90/74/3 
f 95/79/3 96/80/3 94/78/3 93/77/3 
f 97/81/3 98/82/3 96/80/3 95/79/3 
f 99/83/3 100/84/3 98/82/3 97/81/3 
f 101/85/3 102/86/3 100/84/3 99/83/3 
f 103/87/3 104/88/3 102/86/3 101/85/3 
f 105/89/3 106/90/3 104/88/3 103/87/3 
f 107/91/3 108/92/3 106/90/3 105/89/3 
f 14/10/3 13/9/3 108/92/3 107/91/3 
f 109/18/3 110/55/3 7/4/3 6/3/3 
f 111/21/3 112/58/3 110/55/3 109/18/3 
f 113/23/3 114/60/3 112/58/3 111/21/3 
f 115/25/3 116/62/3 114/60/3 113/23/3 
f 117/27/3 118/64/3 116/62/3 115/25/3 
f 119/29/3 120/66/3 118/64/3 117/27/3 
f 121/31/3 122/68/3 120/66/3 119/29/3 
f 123/33/3 124/70/3 122/68/3 121/31/3 
f 125/35/3 126/72/3 124/70/3 123/33/3 
f 20/7/3 19/12/3 126/72/3 125/35/3 
f 127/75/3 128/36/3 3/2/3 2/1/3 
f 129/78/3 130/39/3 128/36/3 127/75/3 
f 131/80/3 132/41/3 130/39/3 129/78/3 
f 133/82/3 134/43/3 132/41/3 131/80/3 
f 135/84/3 136/45/3 134/43/3 133/82/3 
f 137/86/3 138/47/3 136/45/3 135/84/3 
f 139/88/3 140/49/3 138/47/3 137/86/3 
f 141/90/3 142/51/3 140/49/3 139/88/3 
f 143/92/3 144/53/3 142/51/3 141/90/3 
f 18/9/3 17/6/3 144/53/3 143/92/3 
f 145/93/4 146/94/4 147/95/4 148/96/4 
f 149/97/4 150/98/4 146/94/4 145/93/4 
f 151/99/4 152/100/4 150/98/4 149/97/4 
f 153/101/4 154/102/4 152/100/4 151/99/4 
f 155/103/4 156/104/4 154/102/4 153/101/4 
f 157/105/4 158/106/4 156/104/4 155/103/4 
f 159/107/4 160/108/4 158/106/4 157/105/4 
f 161/109/4 162/110/4 160/108/4 159/107/4 
f 163/111/4 164/112/4 162/110/4 161/109/4 
f 24/16/4 23/15/4 164/112/4 163/111/4 
f 165/113/4 166/114/4 167/115/4 168/116/4 
f 169/117/4 170/118/4 166/114/4 165/113/4 
f 171/119/4 172/120/4 170/118/4 169/117/4 
f 173/121/4 174/122/4 172/120/4 171/119/4 
f 175/123/4 176/124/4 174/122/4 173/121/4 
f 177/125/4 178/126/4 176/124/4 175/123/4 
f 179/127/4 180/128/4 178/126/4 177/125/4 
f 181/129/4 182/130/4 180/128/4 179/127/4 
f 183/131/4 184/132/4 182/130/4 181/129/4 
f 22/14/4 21/13/4 184/132/4 183/131/4 
f 185/113/3 186/114/3 187/133/3 188/134/3 
f 189/117/3 190/118/3 186/114/3 185/113/3 
f 191/119/3 192/120/3 190/118/3 189/117/3 
f 193/121/3 194/122/3 192/120/3 191/119/3 
f 195/123/3 196/124/3 194/122/3 193/121/3 
f 197/125/3 198/126/3 196/124/3 195/123/3 
f 199/127/3 200/128/3 198/126/3 197/125/3 
f 201/129/3 202/130/3 200/128/3 199/127/3 
f 203/131/3 204/132/3 202/130/3 201/129/3 
f 28/14/3 27/13/3 204/132/3 203/131/3 
f 205/93/3 206/94/3 207/95/3 208/96/3 
f 209/97/3 210/98/3 206/94/3 205/93/3 
f 211/99/3 212/100/3 210/98/3 209/97/3 
f 213/101/3 214/102/3 212/100/3 211/99/3 
f 215/103/3 216/104/3 214/102/3 213/101/3 
f 217/105/3 218/106/3 216/104/3 215/103/3 
f 219/107/3 220/108/3 218/106/3 217/105/3 
f 221/109/3 222/110/3 220/108/3 219/107/3 
f 223/111/3 224/112/3 222/110/3 221/109/3 
f 26/16/3 25/15/3 224/112/3 223/111/3 
f 206/94/5 225/93/5 226/96/5 207/95/5 
f 210/98/5 227/97/5 225/93/5 206/94/5 
f 212/100/5 228/99/5 227/97/5 210/98/5 
f 214/102/5 229/101/5 228/99/5 212/100/5 
f 216/104/5 230/103/5 229/101/5 214/102/5 
f 218/106/5 231/105/5 230/103/5 216/104/5 
f 220/108/5 232/107/5 231/105/5 218/106/5 
f 222/110/5 233/109/5 232/107/5 220/108/5 
f 224/112/5 234/111/5 233/109/5 222/110/5 
f 25/15/5 30/16/5 234/111/5 224/112/5 
f 235/114/5 185/113/5 188/134/5 236/133/5 
f 237/118/5 189/117/5 185/113/5 235/114/5 
f 238/120/5 191/119/5 189/117/5 237/118/5 
f 239/122/5 193/121/5 191/119/5 238/120/5 
f 240/124/5 195/123/5 193/121/5 239/122/5 
f 241/126/5 197/125/5 195/123/5 240/124/5 
f 242/128/5 199/127/5 197/125/5 241/126/5 
f 243/130/5 201/129/5 199/127/5 242/128/5 
f 244/132/5 203/131/5 201/129/5 243/130/5 
f 29/13/5 28/14/5 203/131/5 244/132/5 
f 110/55/6 71/55/6 8/4/6 7/4/6 
f 112/58/6 74/58/6 71/55/6 110/55/6 
f 114/60/6 76/60/6 74/58/6 112/58/6 
f 116/62/6 78/62/6 76/60/6 114/60/6 
f 118/64/6 80/64/6 78/62/6 116/62/6 
f 120/66/6 82/66/6 80/64/6 118/64/6 
f 122/68/6 84/68/6 82/66/6 120/66/6 
f 124/70/6 86/70/6 84/68/6 122/68/6 
f 126/72/6 88/72/6 86/70/6 124/70/6 
f 19/12/6 16/12/6 88/72/6 126/72/6 
f 91/75/6 127/75/6 2/1/6 1/1/6 
f 94/78/6 129/78/6 127/75/6 91/75/6 
f 96/80/6 131/80/6 129/78/6 94/78/6 
f 98/82/6 133/82/6 131/80/6 96/80/6 
f 100/84/6 135/84/6 133/82/6 98/82/6 
f 102/86/6 137/86/6 135/84/6 100/84/6 
f 104/88/6 139/88/6 137/86/6 102/86/6 
f 106/90/6 141/90/6 139/88/6 104/88/6 
f 108/92/6 143/92/6 141/90/6 106/90/6 
f 13/9/6 18/9/6 143/92/6 108/92/6 
f 128/36/7 52/36/7 4/2/7 3/2/7 
f 130/39/7 55/39/7 52/36/7 128/36/7 
f 132/41/7 57/41/7 55/39/7 130/39/7 
f 134/43/7 59/43/7 57/41/7 132/41/7 
f 136/45/7 61/45/7 59/43/7 134/43/7 
f 138/47/7 63/47/7 61/45/7 136/45/7 
f 140/49/7 65/49/7 63/47/7 138/47/7 
f 142/51/7 67/51/7 65/49/7 140/49/7 
f 144/53/7 69/53/7 67/51/7 142/51/7 
f 17/6/7 10/6/7 69/53/7 144/53/7 
f 34/18/7 109/18/7 6/3/7 5/3/7 
f 37/21/7 111/21/7 109/18/7 34/18/7 
f 39/23/7 113/23/7 111/21/7 37/21/7 
f 41/25/7 115/25/7 113/23/7 39/23/7 
f 43/27/7 117/27/7 115/25/7 41/25/7 
f 45/29/7 119/29/7 117/27/7 43/27/7 
f 47/31/7 121/31/7 119/29/7 45/29/7 
f 49/33/7 123/33/7 121/31/7 47/31/7 
f 51/35/7 125/35/7 123/33/7 49/33/7 
f 11/7/7 20/7/7 125/35/7 51/35/7 
f 146/94/3 245/93/3 246/96/3 147/95/3 
f 150/98/3 247/97/3 245/93/3 146/94/3 
f 152/100/3 248/99/3 247/97/3 150/98/3 
f 154/102/3 249/101/3 248/99/3 152/100/3 
f 156/104/3 250/103/3 249/101/3 154/102/3 
f 158/106/3 251/105/3 250/103/3 156/104/3 
f 160/108/3 252/107/3 251/105/3 158/106/3 
f 162/110/3 253/109/3 252/107/3 160/108/3 
f 164/112/3 254/111/3 253/109/3 162/110/3 
f 23/15/3 32/16/3 254/111/3 164/112/3 
f 255/114/3 165/113/3 168/116/3 256/115/3 
f 257/118/3 169/117/3 165/113/3 255/114/3 
f 258/120/3 171/119/3 169/117/3 257/118/3 
f 259/122/3 173/121/3 171/119/3 258/120/3 
f 260/124/3 175/123/3 173/121/3 259/122/3 
f 261/126/3 177/125/3 175/123/3 260/124/3 
f 262/128/3 179/127/3 177/125/3 261/126/3 
f 263/130/3 181/129/3 179/127/3 262/128/3 
f 264/132/3 183/131/3 181/129/3 263/130/3 
f 31/13/3 22/14/3 183/131/3 264/132/3 
# 191 polygons

