# 3ds Max Wavefront OBJ Exporter v0.97b - (c)2007 guruware
# File Created: 02.06.2016 22:03:11

#
# object Plane001
#

v  -16.0000 0.0000 -0.0000
v  -11.0000 0.0000 -0.0000
v  -11.0000 0.0000 -5.3333
v  -16.0000 0.0000 -5.3333
v  -11.0000 -0.3000 -0.0000
v  -3.0000 -0.3000 -0.0000
v  -3.0000 -0.3000 -5.3333
v  -11.0000 -0.3000 -5.3333
v  -3.0000 0.0000 -0.0000
v  0.0000 0.0000 -0.0000
v  0.0000 0.0000 -5.3333
v  -3.0000 0.0000 -5.3333
v  0.0000 -0.3000 -0.0000
v  11.0000 -0.3000 -0.0000
v  11.0000 -0.3000 -5.3333
v  0.0000 -0.3000 -5.3333
v  11.0000 0.0000 -0.0000
v  16.0000 0.0000 -0.0000
v  16.0000 0.0000 -5.3333
v  11.0000 0.0000 -5.3333
v  -3.0000 -0.3000 5.3333
v  -3.0000 0.0000 5.3333
v  11.0000 -0.3000 5.3333
v  11.0000 0.0000 5.3333
v  0.0000 0.0000 32.0000
v  -3.0000 0.0000 32.0000
v  -3.0000 -0.3000 32.0000
v  0.0000 -0.3000 32.0000
v  -3.0000 0.0000 -32.0000
v  0.0000 0.0000 -32.0000
v  0.0000 -0.3000 -32.0000
v  -3.0000 -0.3000 -32.0000
v  -16.0000 0.0000 32.0000
v  -11.0000 0.0000 32.0000
v  -11.0000 0.0000 26.6667
v  -16.0000 0.0000 26.6667
v  -11.0000 0.0000 21.3333
v  -16.0000 0.0000 21.3333
v  -11.0000 0.0000 16.0000
v  -16.0000 0.0000 16.0000
v  -11.0000 0.0000 10.6667
v  -16.0000 0.0000 10.6667
v  -11.0000 0.0000 5.3333
v  -16.0000 0.0000 5.3333
v  -11.0000 0.0000 -32.0000
v  -16.0000 0.0000 -32.0000
v  -16.0000 0.0000 -26.6667
v  -11.0000 0.0000 -26.6667
v  -16.0000 0.0000 -21.3333
v  -11.0000 0.0000 -21.3333
v  -16.0000 0.0000 -16.0000
v  -11.0000 0.0000 -16.0000
v  -16.0000 0.0000 -10.6667
v  -11.0000 0.0000 -10.6667
v  -11.0000 -0.3000 32.0000
v  -3.0000 -0.3000 26.6667
v  -11.0000 -0.3000 26.6667
v  -3.0000 -0.3000 21.3333
v  -11.0000 -0.3000 21.3333
v  -3.0000 -0.3000 16.0000
v  -11.0000 -0.3000 16.0000
v  -3.0000 -0.3000 10.6667
v  -11.0000 -0.3000 10.6667
v  -11.0000 -0.3000 5.3333
v  -11.0000 -0.3000 -32.0000
v  -11.0000 -0.3000 -26.6667
v  -3.0000 -0.3000 -26.6667
v  -11.0000 -0.3000 -21.3333
v  -3.0000 -0.3000 -21.3333
v  -11.0000 -0.3000 -16.0000
v  -3.0000 -0.3000 -16.0000
v  -11.0000 -0.3000 -10.6667
v  -3.0000 -0.3000 -10.6667
v  0.0000 0.0000 26.6667
v  -3.0000 0.0000 26.6667
v  0.0000 0.0000 21.3333
v  -3.0000 0.0000 21.3333
v  0.0000 0.0000 16.0000
v  -3.0000 0.0000 16.0000
v  0.0000 0.0000 10.6667
v  -3.0000 0.0000 10.6667
v  0.0000 0.0000 5.3333
v  -3.0000 0.0000 -26.6667
v  0.0000 0.0000 -26.6667
v  -3.0000 0.0000 -21.3333
v  0.0000 0.0000 -21.3333
v  -3.0000 0.0000 -16.0000
v  0.0000 0.0000 -16.0000
v  -3.0000 0.0000 -10.6667
v  0.0000 0.0000 -10.6667
v  11.0000 -0.3000 32.0000
v  11.0000 -0.3000 26.6667
v  0.0000 -0.3000 26.6667
v  11.0000 -0.3000 21.3333
v  0.0000 -0.3000 21.3333
v  11.0000 -0.3000 16.0000
v  0.0000 -0.3000 16.0000
v  11.0000 -0.3000 10.6667
v  0.0000 -0.3000 10.6667
v  0.0000 -0.3000 5.3333
v  11.0000 -0.3000 -32.0000
v  0.0000 -0.3000 -26.6667
v  11.0000 -0.3000 -26.6667
v  0.0000 -0.3000 -21.3333
v  11.0000 -0.3000 -21.3333
v  0.0000 -0.3000 -16.0000
v  11.0000 -0.3000 -16.0000
v  0.0000 -0.3000 -10.6667
v  11.0000 -0.3000 -10.6667
v  11.0000 0.0000 32.0000
v  16.0000 0.0000 32.0000
v  16.0000 0.0000 26.6667
v  11.0000 0.0000 26.6667
v  16.0000 0.0000 21.3333
v  11.0000 0.0000 21.3333
v  16.0000 0.0000 16.0000
v  11.0000 0.0000 16.0000
v  16.0000 0.0000 10.6667
v  11.0000 0.0000 10.6667
v  16.0000 0.0000 5.3333
v  16.0000 0.0000 -32.0000
v  11.0000 0.0000 -32.0000
v  11.0000 0.0000 -26.6667
v  16.0000 0.0000 -26.6667
v  11.0000 0.0000 -21.3333
v  16.0000 0.0000 -21.3333
v  11.0000 0.0000 -16.0000
v  16.0000 0.0000 -16.0000
v  11.0000 0.0000 -10.6667
v  16.0000 0.0000 -10.6667
# 130 vertices

vn 0.0000 1.0000 -0.0000
vn 1.0000 0.0000 -0.0000
vn -1.0000 0.0000 -0.0000
vn 0.0000 0.0000 1.0000
vn 0.0000 0.0000 -1.0000
# 5 vertex normals

vt 0.0000 0.5000 0.0000
vt 0.1565 0.5000 0.0000
vt 0.1565 0.5833 0.0000
vt 0.0000 0.5833 0.0000
vt 0.4066 0.5000 0.0000
vt 0.4066 0.5833 0.0000
vt 0.5001 0.5000 0.0000
vt 0.5001 0.5833 0.0000
vt 0.8450 0.5000 0.0000
vt 0.8450 0.5833 0.0000
vt 1.0000 0.5000 0.0000
vt 1.0000 0.5833 0.0000
vt 0.4617 1.0000 0.0000
vt 0.4617 0.0000 0.0000
vt 0.4596 0.0000 0.0000
vt 0.4596 1.0000 0.0000
vt 0.4638 0.0000 0.0000
vt 0.4638 1.0000 0.0000
vt 0.4617 -0.0000 0.0000
vt 0.4638 -0.0000 0.0000
vt 0.4951 1.0000 0.0000
vt 0.4142 1.0000 0.0000
vt 0.4142 0.0000 0.0000
vt 0.4951 0.0000 0.0000
vt 0.4951 -0.0000 0.0000
vt 0.4142 -0.0000 0.0000
vt 0.0000 0.0000 0.0000
vt 0.1565 0.0000 0.0000
vt 0.1565 0.0833 0.0000
vt 0.0000 0.0833 0.0000
vt 0.1565 0.1667 0.0000
vt 0.0000 0.1667 0.0000
vt 0.1565 0.2500 0.0000
vt 0.0000 0.2500 0.0000
vt 0.1565 0.3333 0.0000
vt 0.0000 0.3333 0.0000
vt 0.1565 0.4167 0.0000
vt 0.0000 0.4167 0.0000
vt 0.1565 1.0000 0.0000
vt 0.0000 1.0000 0.0000
vt 0.0000 0.9167 0.0000
vt 0.1565 0.9167 0.0000
vt 0.0000 0.8333 0.0000
vt 0.1565 0.8333 0.0000
vt 0.0000 0.7500 0.0000
vt 0.1565 0.7500 0.0000
vt 0.0000 0.6667 0.0000
vt 0.1565 0.6667 0.0000
vt 0.4066 0.0000 0.0000
vt 0.4066 0.0833 0.0000
vt 0.4066 0.1667 0.0000
vt 0.4066 0.2500 0.0000
vt 0.4066 0.3333 0.0000
vt 0.4066 0.4167 0.0000
vt 0.4066 1.0000 0.0000
vt 0.4066 0.9167 0.0000
vt 0.4066 0.8333 0.0000
vt 0.4066 0.7500 0.0000
vt 0.4066 0.6667 0.0000
vt 0.5001 0.0000 0.0000
vt 0.5001 0.0833 0.0000
vt 0.5001 0.1667 0.0000
vt 0.5001 0.2500 0.0000
vt 0.5001 0.3333 0.0000
vt 0.5001 0.4167 0.0000
vt 0.5001 1.0000 0.0000
vt 0.5001 0.9167 0.0000
vt 0.5001 0.8333 0.0000
vt 0.5001 0.7500 0.0000
vt 0.5001 0.6667 0.0000
vt 0.8450 0.0000 0.0000
vt 0.8450 0.0833 0.0000
vt 0.8450 0.1667 0.0000
vt 0.8450 0.2500 0.0000
vt 0.8450 0.3333 0.0000
vt 0.8450 0.4167 0.0000
vt 0.8450 1.0000 0.0000
vt 0.8450 0.9167 0.0000
vt 0.8450 0.8333 0.0000
vt 0.8450 0.7500 0.0000
vt 0.8450 0.6667 0.0000
vt 1.0000 0.0000 0.0000
vt 1.0000 0.0833 0.0000
vt 1.0000 0.1667 0.0000
vt 1.0000 0.2500 0.0000
vt 1.0000 0.3333 0.0000
vt 1.0000 0.4167 0.0000
vt 1.0000 1.0000 0.0000
vt 1.0000 0.9167 0.0000
vt 1.0000 0.8333 0.0000
vt 1.0000 0.7500 0.0000
vt 1.0000 0.6667 0.0000
vt 0.4741 1.0000 0.0000
vt 0.4741 0.0000 0.0000
vt 0.4720 0.0000 0.0000
vt 0.4720 1.0000 0.0000
vt 0.4700 0.0000 0.0000
vt 0.4700 1.0000 0.0000
vt 0.4679 0.0000 0.0000
vt 0.4679 1.0000 0.0000
vt 0.4658 0.0000 0.0000
vt 0.4658 1.0000 0.0000
vt 0.4493 0.0000 0.0000
vt 0.4493 1.0000 0.0000
vt 0.4513 1.0000 0.0000
vt 0.4513 0.0000 0.0000
vt 0.4534 1.0000 0.0000
vt 0.4534 0.0000 0.0000
vt 0.4555 1.0000 0.0000
vt 0.4555 0.0000 0.0000
vt 0.4576 1.0000 0.0000
vt 0.4576 0.0000 0.0000
vt 0.4493 -0.0000 0.0000
vt 0.4513 -0.0000 0.0000
vt 0.4534 -0.0000 0.0000
vt 0.4555 -0.0000 0.0000
vt 0.4576 -0.0000 0.0000
vt 0.4596 -0.0000 0.0000
vt 0.4741 -0.0000 0.0000
vt 0.4720 -0.0000 0.0000
vt 0.4700 -0.0000 0.0000
vt 0.4679 -0.0000 0.0000
vt 0.4658 -0.0000 0.0000
# 123 texture coords

g Plane001
s 1
f 1/1/1 2/2/1 3/3/1 
f 3/3/1 4/4/1 1/1/1 
f 5/2/1 6/5/1 7/6/1 
f 7/6/1 8/3/1 5/2/1 
f 9/5/1 10/7/1 11/8/1 
f 11/8/1 12/6/1 9/5/1 
f 13/7/1 14/9/1 15/10/1 
f 15/10/1 16/8/1 13/7/1 
f 17/9/1 18/11/1 19/12/1 
f 19/12/1 20/10/1 17/9/1 
s off
f 2/13/2 5/14/2 8/15/2 
f 8/15/2 3/16/2 2/13/2 
f 9/13/3 6/14/3 21/17/3 
f 21/17/3 22/18/3 9/13/3 
f 10/13/2 13/14/2 16/15/2 
f 16/15/2 11/16/2 10/13/2 
f 17/13/3 14/19/3 23/20/3 
f 23/20/3 24/18/3 17/13/3 
f 25/21/4 26/22/4 27/23/4 
f 27/23/4 28/24/4 25/21/4 
f 29/22/5 30/21/5 31/25/5 
f 31/25/5 32/26/5 29/22/5 
s 1
f 33/27/1 34/28/1 35/29/1 
f 35/29/1 36/30/1 33/27/1 
f 36/30/1 35/29/1 37/31/1 
f 37/31/1 38/32/1 36/30/1 
f 38/32/1 37/31/1 39/33/1 
f 39/33/1 40/34/1 38/32/1 
f 40/34/1 39/33/1 41/35/1 
f 41/35/1 42/36/1 40/34/1 
f 42/36/1 41/35/1 43/37/1 
f 43/37/1 44/38/1 42/36/1 
f 44/38/1 43/37/1 2/2/1 
f 2/2/1 1/1/1 44/38/1 
f 45/39/1 46/40/1 47/41/1 
f 47/41/1 48/42/1 45/39/1 
f 48/42/1 47/41/1 49/43/1 
f 49/43/1 50/44/1 48/42/1 
f 50/44/1 49/43/1 51/45/1 
f 51/45/1 52/46/1 50/44/1 
f 52/46/1 51/45/1 53/47/1 
f 53/47/1 54/48/1 52/46/1 
f 54/48/1 53/47/1 4/4/1 
f 4/4/1 3/3/1 54/48/1 
f 55/28/1 27/49/1 56/50/1 
f 56/50/1 57/29/1 55/28/1 
f 57/29/1 56/50/1 58/51/1 
f 58/51/1 59/31/1 57/29/1 
f 59/31/1 58/51/1 60/52/1 
f 60/52/1 61/33/1 59/31/1 
f 61/33/1 60/52/1 62/53/1 
f 62/53/1 63/35/1 61/33/1 
f 63/35/1 62/53/1 21/54/1 
f 21/54/1 64/37/1 63/35/1 
f 64/37/1 21/54/1 6/5/1 
f 6/5/1 5/2/1 64/37/1 
f 32/55/1 65/39/1 66/42/1 
f 66/42/1 67/56/1 32/55/1 
f 67/56/1 66/42/1 68/44/1 
f 68/44/1 69/57/1 67/56/1 
f 69/57/1 68/44/1 70/46/1 
f 70/46/1 71/58/1 69/57/1 
f 71/58/1 70/46/1 72/48/1 
f 72/48/1 73/59/1 71/58/1 
f 73/59/1 72/48/1 8/3/1 
f 8/3/1 7/6/1 73/59/1 
f 26/49/1 25/60/1 74/61/1 
f 74/61/1 75/50/1 26/49/1 
f 75/50/1 74/61/1 76/62/1 
f 76/62/1 77/51/1 75/50/1 
f 77/51/1 76/62/1 78/63/1 
f 78/63/1 79/52/1 77/51/1 
f 79/52/1 78/63/1 80/64/1 
f 80/64/1 81/53/1 79/52/1 
f 81/53/1 80/64/1 82/65/1 
f 82/65/1 22/54/1 81/53/1 
f 22/54/1 82/65/1 10/7/1 
f 10/7/1 9/5/1 22/54/1 
f 30/66/1 29/55/1 83/56/1 
f 83/56/1 84/67/1 30/66/1 
f 84/67/1 83/56/1 85/57/1 
f 85/57/1 86/68/1 84/67/1 
f 86/68/1 85/57/1 87/58/1 
f 87/58/1 88/69/1 86/68/1 
f 88/69/1 87/58/1 89/59/1 
f 89/59/1 90/70/1 88/69/1 
f 90/70/1 89/59/1 12/6/1 
f 12/6/1 11/8/1 90/70/1 
f 28/60/1 91/71/1 92/72/1 
f 92/72/1 93/61/1 28/60/1 
f 93/61/1 92/72/1 94/73/1 
f 94/73/1 95/62/1 93/61/1 
f 95/62/1 94/73/1 96/74/1 
f 96/74/1 97/63/1 95/62/1 
f 97/63/1 96/74/1 98/75/1 
f 98/75/1 99/64/1 97/63/1 
f 99/64/1 98/75/1 23/76/1 
f 23/76/1 100/65/1 99/64/1 
f 100/65/1 23/76/1 14/9/1 
f 14/9/1 13/7/1 100/65/1 
f 101/77/1 31/66/1 102/67/1 
f 102/67/1 103/78/1 101/77/1 
f 103/78/1 102/67/1 104/68/1 
f 104/68/1 105/79/1 103/78/1 
f 105/79/1 104/68/1 106/69/1 
f 106/69/1 107/80/1 105/79/1 
f 107/80/1 106/69/1 108/70/1 
f 108/70/1 109/81/1 107/80/1 
f 109/81/1 108/70/1 16/8/1 
f 16/8/1 15/10/1 109/81/1 
f 110/71/1 111/82/1 112/83/1 
f 112/83/1 113/72/1 110/71/1 
f 113/72/1 112/83/1 114/84/1 
f 114/84/1 115/73/1 113/72/1 
f 115/73/1 114/84/1 116/85/1 
f 116/85/1 117/74/1 115/73/1 
f 117/74/1 116/85/1 118/86/1 
f 118/86/1 119/75/1 117/74/1 
f 119/75/1 118/86/1 120/87/1 
f 120/87/1 24/76/1 119/75/1 
f 24/76/1 120/87/1 18/11/1 
f 18/11/1 17/9/1 24/76/1 
f 121/88/1 122/77/1 123/78/1 
f 123/78/1 124/89/1 121/88/1 
f 124/89/1 123/78/1 125/79/1 
f 125/79/1 126/90/1 124/89/1 
f 126/90/1 125/79/1 127/80/1 
f 127/80/1 128/91/1 126/90/1 
f 128/91/1 127/80/1 129/81/1 
f 129/81/1 130/92/1 128/91/1 
f 130/92/1 129/81/1 20/10/1 
f 20/10/1 19/12/1 130/92/1 
s off
f 34/93/2 55/94/2 57/95/2 
f 57/95/2 35/96/2 34/93/2 
f 35/96/2 57/95/2 59/97/2 
f 59/97/2 37/98/2 35/96/2 
f 37/98/2 59/97/2 61/99/2 
f 61/99/2 39/100/2 37/98/2 
f 39/100/2 61/99/2 63/101/2 
f 63/101/2 41/102/2 39/100/2 
f 41/102/2 63/101/2 64/17/2 
f 64/17/2 43/18/2 41/102/2 
f 43/18/2 64/17/2 5/14/2 
f 5/14/2 2/13/2 43/18/2 
f 65/103/2 45/104/2 48/105/2 
f 48/105/2 66/106/2 65/103/2 
f 66/106/2 48/105/2 50/107/2 
f 50/107/2 68/108/2 66/106/2 
f 68/108/2 50/107/2 52/109/2 
f 52/109/2 70/110/2 68/108/2 
f 70/110/2 52/109/2 54/111/2 
f 54/111/2 72/112/2 70/110/2 
f 72/112/2 54/111/2 3/16/2 
f 3/16/2 8/15/2 72/112/2 
f 29/104/3 32/103/3 67/106/3 
f 67/106/3 83/105/3 29/104/3 
f 83/105/3 67/106/3 69/108/3 
f 69/108/3 85/107/3 83/105/3 
f 85/107/3 69/108/3 71/110/3 
f 71/110/3 87/109/3 85/107/3 
f 87/109/3 71/110/3 73/112/3 
f 73/112/3 89/111/3 87/109/3 
f 89/111/3 73/112/3 7/15/3 
f 7/15/3 12/16/3 89/111/3 
f 12/16/3 7/15/3 6/14/3 
f 6/14/3 9/13/3 12/16/3 
f 27/94/3 26/93/3 75/96/3 
f 75/96/3 56/95/3 27/94/3 
f 56/95/3 75/96/3 77/98/3 
f 77/98/3 58/97/3 56/95/3 
f 58/97/3 77/98/3 79/100/3 
f 79/100/3 60/99/3 58/97/3 
f 60/99/3 79/100/3 81/102/3 
f 81/102/3 62/101/3 60/99/3 
f 62/101/3 81/102/3 22/18/3 
f 22/18/3 21/17/3 62/101/3 
f 25/93/2 28/94/2 93/95/2 
f 93/95/2 74/96/2 25/93/2 
f 74/96/2 93/95/2 95/97/2 
f 95/97/2 76/98/2 74/96/2 
f 76/98/2 95/97/2 97/99/2 
f 97/99/2 78/100/2 76/98/2 
f 78/100/2 97/99/2 99/101/2 
f 99/101/2 80/102/2 78/100/2 
f 80/102/2 99/101/2 100/17/2 
f 100/17/2 82/18/2 80/102/2 
f 82/18/2 100/17/2 13/14/2 
f 13/14/2 10/13/2 82/18/2 
f 31/103/2 30/104/2 84/105/2 
f 84/105/2 102/106/2 31/103/2 
f 102/106/2 84/105/2 86/107/2 
f 86/107/2 104/108/2 102/106/2 
f 104/108/2 86/107/2 88/109/2 
f 88/109/2 106/110/2 104/108/2 
f 106/110/2 88/109/2 90/111/2 
f 90/111/2 108/112/2 106/110/2 
f 108/112/2 90/111/2 11/16/2 
f 11/16/2 16/15/2 108/112/2 
f 122/104/3 101/113/3 103/114/3 
f 103/114/3 123/105/3 122/104/3 
f 123/105/3 103/114/3 105/115/3 
f 105/115/3 125/107/3 123/105/3 
f 125/107/3 105/115/3 107/116/3 
f 107/116/3 127/109/3 125/107/3 
f 127/109/3 107/116/3 109/117/3 
f 109/117/3 129/111/3 127/109/3 
f 129/111/3 109/117/3 15/118/3 
f 15/118/3 20/16/3 129/111/3 
f 20/16/3 15/118/3 14/19/3 
f 14/19/3 17/13/3 20/16/3 
f 91/119/3 110/93/3 113/96/3 
f 113/96/3 92/120/3 91/119/3 
f 92/120/3 113/96/3 115/98/3 
f 115/98/3 94/121/3 92/120/3 
f 94/121/3 115/98/3 117/100/3 
f 117/100/3 96/122/3 94/121/3 
f 96/122/3 117/100/3 119/102/3 
f 119/102/3 98/123/3 96/122/3 
f 98/123/3 119/102/3 24/18/3 
f 24/18/3 23/20/3 98/123/3 
# 220 faces

