# 3ds Max Wavefront OBJ Exporter v0.97b - (c)2007 guruware
# File Created: 04.06.2016 20:21:57

#
# object Plane005
#

v  -14.3184 0.0000 -10.5251
v  -9.1934 0.0000 -10.5251
v  -9.1934 0.0000 -15.8584
v  -14.2976 0.0000 -15.8584
v  -14.3392 0.0000 -5.1918
v  -14.3184 6.5000 -10.5251
v  -14.3392 6.5833 -5.1918
v  13.9316 0.0000 -10.5251
v  13.9316 6.5000 -10.5251
v  13.9108 6.4167 -15.8584
v  13.9108 0.0000 -15.8584
v  -0.1934 6.5000 -10.5251
v  -0.1934 6.4167 -15.8584
v  -16.1934 7.5000 -10.5251
v  -16.1934 -0.5000 -10.5251
v  -16.1934 -0.5000 -5.1918
v  -16.1934 7.5000 -5.1918
v  15.8066 7.5000 -10.5251
v  15.8066 -0.5000 -10.5251
v  15.8066 -0.5000 -15.8584
v  15.8066 7.5000 -15.8584
v  -0.1934 7.5000 -10.5251
v  -0.1934 7.5000 -5.1918
v  15.8066 7.5000 -5.1918
v  8.8066 0.0000 -10.5251
v  8.8066 0.0000 -5.1918
v  13.9524 0.0000 -5.1918
v  -0.1934 -0.3000 -10.5251
v  -9.1934 -0.3000 -10.5251
v  -9.1934 -0.3000 -5.1918
v  -0.1934 -0.3000 -5.1918
v  -9.1934 -0.3000 -15.8584
v  8.8066 -0.3000 -10.5251
v  8.8066 -0.3000 -5.1918
v  -0.1934 6.5833 -5.1918
v  -0.1934 7.5000 -15.8584
v  -16.1934 7.5000 -15.8584
v  -14.4434 0.0000 21.4749
v  -9.1934 0.0000 21.4749
v  -9.1934 0.0000 16.1416
v  -14.4226 0.0000 16.1416
v  -9.1934 0.0000 10.8082
v  -14.4017 0.0000 10.8082
v  -9.1934 0.0000 5.4749
v  -14.3809 0.0000 5.4749
v  -9.1934 0.0000 0.1416
v  -14.3601 0.0000 0.1416
v  -9.1934 0.0000 -5.1918
v  -9.1934 0.0000 -42.5251
v  -14.1934 0.0000 -42.5251
v  -14.2142 0.0000 -37.1918
v  -9.1934 0.0000 -37.1918
v  -14.2351 0.0000 -31.8584
v  -9.1934 0.0000 -31.8584
v  -14.2559 0.0000 -26.5251
v  -9.1934 0.0000 -26.5251
v  -14.2767 0.0000 -21.1918
v  -9.1934 0.0000 -21.1918
v  -14.1934 6.0000 -42.5251
v  -14.2142 6.0833 -37.1918
v  -14.2351 6.1667 -31.8584
v  -14.2559 6.2500 -26.5251
v  -14.2767 6.3333 -21.1918
v  -14.2976 6.4167 -15.8584
v  -14.4226 6.9167 16.1416
v  -14.4434 7.0000 21.4749
v  -14.4017 6.8333 10.8082
v  -14.3809 6.7500 5.4749
v  -14.3601 6.6667 0.1416
v  14.0566 0.0000 21.4749
v  14.0566 7.0000 21.4749
v  14.0358 6.9167 16.1416
v  14.0358 0.0000 16.1416
v  14.0149 6.8333 10.8082
v  14.0149 0.0000 10.8082
v  13.9941 6.7500 5.4749
v  13.9941 0.0000 5.4749
v  13.9733 6.6667 0.1416
v  13.9733 0.0000 0.1416
v  13.9524 6.5833 -5.1918
v  13.8066 6.0000 -42.5251
v  13.8066 0.0000 -42.5251
v  13.8274 0.0000 -37.1918
v  13.8274 6.0833 -37.1918
v  13.8483 0.0000 -31.8584
v  13.8483 6.1667 -31.8584
v  13.8691 0.0000 -26.5251
v  13.8691 6.2500 -26.5251
v  13.8899 0.0000 -21.1918
v  13.8899 6.3333 -21.1918
v  -0.1934 7.0000 21.4749
v  -0.1934 6.9167 16.1416
v  -0.1934 6.8333 10.8082
v  -0.1934 6.7500 5.4749
v  -0.1934 6.6667 0.1416
v  -0.1934 6.0000 -42.5251
v  -0.1934 6.0833 -37.1918
v  -0.1934 6.1667 -31.8584
v  -0.1934 6.2500 -26.5251
v  -0.1934 6.3333 -21.1918
v  -16.1934 7.5000 -42.5251
v  -16.1934 -0.5000 -42.5251
v  -16.1934 -0.5000 -37.1918
v  -16.1934 7.5000 -37.1918
v  -16.1934 -0.5000 -31.8584
v  -16.1934 7.5000 -31.8584
v  -16.1934 -0.5000 -26.5251
v  -16.1934 7.5000 -26.5251
v  -16.1934 -0.5000 -21.1918
v  -16.1934 7.5000 -21.1918
v  -16.1934 -0.5000 -15.8584
v  -16.1934 -0.5000 21.4749
v  -16.1934 7.5000 21.4749
v  -16.1934 7.5000 16.1416
v  -16.1934 -0.5000 16.1416
v  -16.1934 7.5000 10.8082
v  -16.1934 -0.5000 10.8082
v  -16.1934 7.5000 5.4749
v  -16.1934 -0.5000 5.4749
v  -16.1934 7.5000 0.1416
v  -16.1934 -0.5000 0.1416
v  15.8066 7.5000 21.4749
v  15.8066 -0.5000 21.4749
v  15.8066 -0.5000 16.1416
v  15.8066 7.5000 16.1416
v  15.8066 -0.5000 10.8082
v  15.8066 7.5000 10.8082
v  15.8066 -0.5000 5.4749
v  15.8066 7.5000 5.4749
v  15.8066 -0.5000 0.1416
v  15.8066 7.5000 0.1416
v  15.8066 -0.5000 -5.1918
v  15.8066 -0.5000 -42.5251
v  15.8066 7.5000 -42.5251
v  15.8066 7.5000 -37.1918
v  15.8066 -0.5000 -37.1918
v  15.8066 7.5000 -31.8584
v  15.8066 -0.5000 -31.8584
v  15.8066 7.5000 -26.5251
v  15.8066 -0.5000 -26.5251
v  15.8066 7.5000 -21.1918
v  15.8066 -0.5000 -21.1918
v  -0.1934 7.5000 -42.5251
v  -0.1934 7.5000 -37.1918
v  -0.1934 7.5000 -31.8584
v  -0.1934 7.5000 -26.5251
v  -0.1934 7.5000 -21.1918
v  -0.1934 7.5000 21.4749
v  -0.1934 7.5000 16.1416
v  -0.1934 7.5000 10.8082
v  -0.1934 7.5000 5.4749
v  -0.1934 7.5000 0.1416
v  8.8066 0.0000 -42.5251
v  8.8066 0.0000 -37.1918
v  8.8066 0.0000 -31.8584
v  8.8066 0.0000 -26.5251
v  8.8066 0.0000 -21.1918
v  8.8066 0.0000 -15.8584
v  8.8066 0.0000 21.4749
v  8.8066 0.0000 16.1416
v  8.8066 0.0000 10.8082
v  8.8066 0.0000 5.4749
v  8.8066 0.0000 0.1416
v  -0.1934 -0.3000 -42.5251
v  -9.1934 -0.3000 -42.5251
v  -9.1934 -0.3000 -37.1918
v  -0.1934 -0.3000 -37.1918
v  -9.1934 -0.3000 -31.8584
v  -0.1934 -0.3000 -31.8584
v  -9.1934 -0.3000 -26.5251
v  -0.1934 -0.3000 -26.5251
v  -9.1934 -0.3000 -21.1918
v  -0.1934 -0.3000 -21.1918
v  -0.1934 -0.3000 -15.8584
v  -9.1934 -0.3000 21.4749
v  -0.1934 -0.3000 21.4749
v  -0.1934 -0.3000 16.1416
v  -9.1934 -0.3000 16.1416
v  -0.1934 -0.3000 10.8082
v  -9.1934 -0.3000 10.8082
v  -0.1934 -0.3000 5.4749
v  -9.1934 -0.3000 5.4749
v  -0.1934 -0.3000 0.1416
v  -9.1934 -0.3000 0.1416
v  8.8066 -0.3000 -42.5251
v  8.8066 -0.3000 -37.1918
v  8.8066 -0.3000 -31.8584
v  8.8066 -0.3000 -26.5251
v  8.8066 -0.3000 -21.1918
v  8.8066 -0.3000 -15.8584
v  8.8066 -0.3000 21.4749
v  8.8066 -0.3000 16.1416
v  8.8066 -0.3000 10.8082
v  8.8066 -0.3000 5.4749
v  8.8066 -0.3000 0.1416
# 195 vertices

vn 0.0000 1.0000 -0.0000
vn 1.0000 0.0000 0.0039
vn -1.0000 0.0000 0.0039
vn 0.0000 -0.9999 0.0156
vn -1.0000 0.0000 -0.0000
vn 1.0000 0.0000 -0.0000
# 6 vertex normals

vt 0.0013 0.5000 0.0000
vt 0.1553 0.5001 0.0000
vt 0.1553 0.5834 0.0000
vt 0.0013 0.5833 0.0000
vt 0.0149 0.4167 0.0000
vt 0.0149 0.5000 0.0000
vt 0.0871 0.5000 0.0000
vt 0.0871 0.4167 0.0000
vt 0.0871 0.5833 0.0000
vt 0.0149 0.5833 0.0000
vt 0.9936 0.5000 0.0000
vt 0.9238 0.5000 0.0000
vt 0.9238 0.5833 0.0000
vt 0.9936 0.5833 0.0000
vt 0.9466 0.5000 0.0000
vt 0.9466 0.4167 0.0000
vt 0.9906 0.5000 0.0000
vt 0.9906 0.5833 0.0000
vt 0.9686 0.5000 0.0000
vt 0.9686 0.4167 0.0000
vt 0.9906 0.4167 0.0000
vt 0.9987 0.5003 0.0000
vt 0.8458 0.5002 0.0000
vt 0.8458 0.4169 0.0000
vt 0.9987 0.4169 0.0000
vt 0.4818 0.5001 0.0000
vt 0.3423 0.5001 0.0000
vt 0.3423 0.4167 0.0000
vt 0.4818 0.4168 0.0000
vt 0.1083 0.5001 0.0000
vt 0.1109 0.5001 0.0000
vt 0.1109 0.5834 0.0000
vt 0.1083 0.5834 0.0000
vt 0.1436 0.5002 0.0000
vt 0.1392 0.5002 0.0000
vt 0.1392 0.4169 0.0000
vt 0.1436 0.4169 0.0000
vt 0.8484 0.5000 0.0000
vt 0.9238 0.4167 0.0000
vt 0.8484 0.4167 0.0000
vt 0.9686 0.5833 0.0000
vt 0.9466 0.5833 0.0000
vt 0.6212 0.5002 0.0000
vt 0.6212 0.4169 0.0000
vt 0.0013 0.0000 0.0000
vt 0.1553 0.0001 0.0000
vt 0.1553 0.0834 0.0000
vt 0.0013 0.0833 0.0000
vt 0.1553 0.1667 0.0000
vt 0.0013 0.1667 0.0000
vt 0.1553 0.2501 0.0000
vt 0.0013 0.2500 0.0000
vt 0.1553 0.3334 0.0000
vt 0.0013 0.3333 0.0000
vt 0.1553 0.4167 0.0000
vt 0.0013 0.4167 0.0000
vt 0.1553 1.0001 0.0000
vt 0.0013 1.0000 0.0000
vt 0.0013 0.9167 0.0000
vt 0.1553 0.9167 0.0000
vt 0.0013 0.8333 0.0000
vt 0.1553 0.8334 0.0000
vt 0.0013 0.7500 0.0000
vt 0.1553 0.7501 0.0000
vt 0.0013 0.6667 0.0000
vt 0.1553 0.6667 0.0000
vt 0.0149 0.9167 0.0000
vt 0.0149 1.0000 0.0000
vt 0.0871 1.0000 0.0000
vt 0.0871 0.9167 0.0000
vt 0.0149 0.8333 0.0000
vt 0.0871 0.8333 0.0000
vt 0.0149 0.7500 0.0000
vt 0.0871 0.7500 0.0000
vt 0.0149 0.6667 0.0000
vt 0.0871 0.6667 0.0000
vt 0.0871 0.0833 0.0000
vt 0.0871 0.0000 0.0000
vt 0.0149 0.0000 0.0000
vt 0.0149 0.0833 0.0000
vt 0.0871 0.1667 0.0000
vt 0.0149 0.1667 0.0000
vt 0.0871 0.2500 0.0000
vt 0.0149 0.2500 0.0000
vt 0.0871 0.3333 0.0000
vt 0.0149 0.3333 0.0000
vt 0.9936 0.0000 0.0000
vt 0.9238 0.0000 0.0000
vt 0.9238 0.0833 0.0000
vt 0.9936 0.0833 0.0000
vt 0.9238 0.1667 0.0000
vt 0.9936 0.1667 0.0000
vt 0.9238 0.2500 0.0000
vt 0.9936 0.2500 0.0000
vt 0.9238 0.3333 0.0000
vt 0.9936 0.3333 0.0000
vt 0.9936 0.4167 0.0000
vt 0.9238 1.0000 0.0000
vt 0.9936 1.0000 0.0000
vt 0.9936 0.9167 0.0000
vt 0.9238 0.9167 0.0000
vt 0.9936 0.8333 0.0000
vt 0.9238 0.8333 0.0000
vt 0.9936 0.7500 0.0000
vt 0.9238 0.7500 0.0000
vt 0.9936 0.6667 0.0000
vt 0.9238 0.6667 0.0000
vt 0.9466 1.0000 0.0000
vt 0.9466 0.9167 0.0000
vt 0.9466 0.8333 0.0000
vt 0.9466 0.7500 0.0000
vt 0.9466 0.6667 0.0000
vt 0.9466 0.0000 0.0000
vt 0.9466 0.0833 0.0000
vt 0.9466 0.1667 0.0000
vt 0.9466 0.2500 0.0000
vt 0.9466 0.3333 0.0000
vt 0.9906 0.0000 0.0000
vt 0.9906 0.0833 0.0000
vt 0.9906 0.1667 0.0000
vt 0.9906 0.2500 0.0000
vt 0.9906 0.3333 0.0000
vt 0.9906 1.0000 0.0000
vt 0.9906 0.9167 0.0000
vt 0.9906 0.8333 0.0000
vt 0.9906 0.7500 0.0000
vt 0.9906 0.6667 0.0000
vt 0.9686 1.0000 0.0000
vt 0.9686 0.9167 0.0000
vt 0.9686 0.8333 0.0000
vt 0.9686 0.7500 0.0000
vt 0.9686 0.6667 0.0000
vt 0.9686 0.0000 0.0000
vt 0.9686 0.0833 0.0000
vt 0.9686 0.1667 0.0000
vt 0.9686 0.2500 0.0000
vt 0.9686 0.3333 0.0000
vt 0.9987 1.0003 0.0000
vt 0.8458 1.0002 0.0000
vt 0.8458 0.9169 0.0000
vt 0.9987 0.9169 0.0000
vt 0.8458 0.8335 0.0000
vt 0.9987 0.8336 0.0000
vt 0.8458 0.7502 0.0000
vt 0.9987 0.7503 0.0000
vt 0.8458 0.6669 0.0000
vt 0.9987 0.6669 0.0000
vt 0.8458 0.5835 0.0000
vt 0.9987 0.5836 0.0000
vt 0.8458 0.0002 0.0000
vt 0.9987 0.0003 0.0000
vt 0.9987 0.0836 0.0000
vt 0.8458 0.0835 0.0000
vt 0.9987 0.1669 0.0000
vt 0.8458 0.1669 0.0000
vt 0.9987 0.2503 0.0000
vt 0.8458 0.2502 0.0000
vt 0.9987 0.3336 0.0000
vt 0.8458 0.3335 0.0000
vt 0.4818 1.0001 0.0000
vt 0.3423 1.0001 0.0000
vt 0.3423 0.9167 0.0000
vt 0.4818 0.9168 0.0000
vt 0.3423 0.8334 0.0000
vt 0.4818 0.8335 0.0000
vt 0.3423 0.7501 0.0000
vt 0.4818 0.7501 0.0000
vt 0.3423 0.6667 0.0000
vt 0.4818 0.6668 0.0000
vt 0.3423 0.5834 0.0000
vt 0.4818 0.5835 0.0000
vt 0.3423 0.0001 0.0000
vt 0.4818 0.0001 0.0000
vt 0.4818 0.0835 0.0000
vt 0.3423 0.0834 0.0000
vt 0.4818 0.1668 0.0000
vt 0.3423 0.1667 0.0000
vt 0.4818 0.2501 0.0000
vt 0.3423 0.2501 0.0000
vt 0.4818 0.3335 0.0000
vt 0.3423 0.3334 0.0000
vt 0.1083 0.0001 0.0000
vt 0.1109 0.0001 0.0000
vt 0.1109 0.0834 0.0000
vt 0.1083 0.0834 0.0000
vt 0.1109 0.1667 0.0000
vt 0.1083 0.1667 0.0000
vt 0.1109 0.2501 0.0000
vt 0.1083 0.2501 0.0000
vt 0.1109 0.3334 0.0000
vt 0.1083 0.3334 0.0000
vt 0.1109 0.4167 0.0000
vt 0.1083 0.4167 0.0000
vt 0.1109 1.0001 0.0000
vt 0.1083 1.0001 0.0000
vt 0.1083 0.9167 0.0000
vt 0.1109 0.9167 0.0000
vt 0.1083 0.8334 0.0000
vt 0.1109 0.8334 0.0000
vt 0.1083 0.7501 0.0000
vt 0.1109 0.7501 0.0000
vt 0.1083 0.6667 0.0000
vt 0.1109 0.6667 0.0000
vt 0.1436 1.0002 0.0000
vt 0.1392 1.0002 0.0000
vt 0.1392 0.9169 0.0000
vt 0.1436 0.9169 0.0000
vt 0.1392 0.8335 0.0000
vt 0.1436 0.8335 0.0000
vt 0.1392 0.7502 0.0000
vt 0.1436 0.7502 0.0000
vt 0.1392 0.6669 0.0000
vt 0.1436 0.6669 0.0000
vt 0.1392 0.5835 0.0000
vt 0.1436 0.5835 0.0000
vt 0.1392 0.0002 0.0000
vt 0.1436 0.0002 0.0000
vt 0.1436 0.0835 0.0000
vt 0.1392 0.0835 0.0000
vt 0.1436 0.1669 0.0000
vt 0.1392 0.1669 0.0000
vt 0.1436 0.2502 0.0000
vt 0.1392 0.2502 0.0000
vt 0.1436 0.3335 0.0000
vt 0.1392 0.3335 0.0000
vt 0.8484 1.0000 0.0000
vt 0.8484 0.9167 0.0000
vt 0.8484 0.8333 0.0000
vt 0.8484 0.7500 0.0000
vt 0.8484 0.6667 0.0000
vt 0.8484 0.5833 0.0000
vt 0.8484 0.0000 0.0000
vt 0.8484 0.0833 0.0000
vt 0.8484 0.1667 0.0000
vt 0.8484 0.2500 0.0000
vt 0.8484 0.3333 0.0000
vt 0.6212 1.0002 0.0000
vt 0.6212 0.9169 0.0000
vt 0.6212 0.8335 0.0000
vt 0.6212 0.7502 0.0000
vt 0.6212 0.6669 0.0000
vt 0.6212 0.5835 0.0000
vt 0.6212 0.0002 0.0000
vt 0.6212 0.0835 0.0000
vt 0.6212 0.1669 0.0000
vt 0.6212 0.2502 0.0000
vt 0.6212 0.3335 0.0000
# 247 texture coords

g Plane005
s 1
f 1/1/1 2/2/1 3/3/1 
f 3/3/1 4/4/1 1/1/1 
s off
f 5/5/2 1/6/2 6/7/2 
f 6/7/2 7/8/2 5/5/2 
f 8/6/3 9/7/3 10/9/3 
f 10/9/3 11/10/3 8/6/3 
f 9/11/4 12/12/4 13/13/4 
f 13/13/4 10/14/4 9/11/4 
f 14/15/5 15/15/5 16/16/5 
f 16/16/5 17/16/5 14/15/5 
f 18/17/6 19/17/6 20/18/6 
f 20/18/6 21/18/6 18/17/6 
f 18/17/1 22/19/1 23/20/1 
f 23/20/1 24/21/1 18/17/1 
s 1
f 8/22/1 25/23/1 26/24/1 
f 26/24/1 27/25/1 8/22/1 
f 28/26/1 29/27/1 30/28/1 
f 30/28/1 31/29/1 28/26/1 
s off
f 2/30/6 29/31/6 32/32/6 
f 32/32/6 3/33/6 2/30/6 
f 25/34/5 33/35/5 34/36/5 
f 34/36/5 26/37/5 25/34/5 
f 6/38/4 12/12/4 35/39/4 
f 35/39/4 7/40/4 6/38/4 
f 14/15/1 22/19/1 36/41/1 
f 36/41/1 37/42/1 14/15/1 
s 1
f 33/43/1 28/26/1 31/29/1 
f 31/29/1 34/44/1 33/43/1 
f 38/45/1 39/46/1 40/47/1 
f 40/47/1 41/48/1 38/45/1 
f 41/48/1 40/47/1 42/49/1 
f 42/49/1 43/50/1 41/48/1 
f 43/50/1 42/49/1 44/51/1 
f 44/51/1 45/52/1 43/50/1 
f 45/52/1 44/51/1 46/53/1 
f 46/53/1 47/54/1 45/52/1 
f 47/54/1 46/53/1 48/55/1 
f 48/55/1 5/56/1 47/54/1 
f 5/56/1 48/55/1 2/2/1 
f 2/2/1 1/1/1 5/56/1 
f 49/57/1 50/58/1 51/59/1 
f 51/59/1 52/60/1 49/57/1 
f 52/60/1 51/59/1 53/61/1 
f 53/61/1 54/62/1 52/60/1 
f 54/62/1 53/61/1 55/63/1 
f 55/63/1 56/64/1 54/62/1 
f 56/64/1 55/63/1 57/65/1 
f 57/65/1 58/66/1 56/64/1 
f 58/66/1 57/65/1 4/4/1 
f 4/4/1 3/3/1 58/66/1 
s off
f 51/67/2 50/68/2 59/69/2 
f 59/69/2 60/70/2 51/67/2 
f 53/71/2 51/67/2 60/70/2 
f 60/70/2 61/72/2 53/71/2 
f 55/73/2 53/71/2 61/72/2 
f 61/72/2 62/74/2 55/73/2 
f 57/75/2 55/73/2 62/74/2 
f 62/74/2 63/76/2 57/75/2 
f 4/10/2 57/75/2 63/76/2 
f 63/76/2 64/9/2 4/10/2 
f 1/6/2 4/10/2 64/9/2 
f 64/9/2 6/7/2 1/6/2 
f 65/77/2 66/78/2 38/79/2 
f 38/79/2 41/80/2 65/77/2 
f 67/81/2 65/77/2 41/80/2 
f 41/80/2 43/82/2 67/81/2 
f 68/83/2 67/81/2 43/82/2 
f 43/82/2 45/84/2 68/83/2 
f 69/85/2 68/83/2 45/84/2 
f 45/84/2 47/86/2 69/85/2 
f 7/8/2 69/85/2 47/86/2 
f 47/86/2 5/5/2 7/8/2 
f 70/79/3 71/78/3 72/77/3 
f 72/77/3 73/80/3 70/79/3 
f 73/80/3 72/77/3 74/81/3 
f 74/81/3 75/82/3 73/80/3 
f 75/82/3 74/81/3 76/83/3 
f 76/83/3 77/84/3 75/82/3 
f 77/84/3 76/83/3 78/85/3 
f 78/85/3 79/86/3 77/84/3 
f 79/86/3 78/85/3 80/8/3 
f 80/8/3 27/5/3 79/86/3 
f 27/5/3 80/8/3 9/7/3 
f 9/7/3 8/6/3 27/5/3 
f 81/69/3 82/68/3 83/67/3 
f 83/67/3 84/70/3 81/69/3 
f 84/70/3 83/67/3 85/71/3 
f 85/71/3 86/72/3 84/70/3 
f 86/72/3 85/71/3 87/73/3 
f 87/73/3 88/74/3 86/72/3 
f 88/74/3 87/73/3 89/75/3 
f 89/75/3 90/76/3 88/74/3 
f 90/76/3 89/75/3 11/10/3 
f 11/10/3 10/9/3 90/76/3 
f 71/87/4 91/88/4 92/89/4 
f 92/89/4 72/90/4 71/87/4 
f 72/90/4 92/89/4 93/91/4 
f 93/91/4 74/92/4 72/90/4 
f 74/92/4 93/91/4 94/93/4 
f 94/93/4 76/94/4 74/92/4 
f 76/94/4 94/93/4 95/95/4 
f 95/95/4 78/96/4 76/94/4 
f 78/96/4 95/95/4 35/39/4 
f 35/39/4 80/97/4 78/96/4 
f 80/97/4 35/39/4 12/12/4 
f 12/12/4 9/11/4 80/97/4 
f 96/98/4 81/99/4 84/100/4 
f 84/100/4 97/101/4 96/98/4 
f 97/101/4 84/100/4 86/102/4 
f 86/102/4 98/103/4 97/101/4 
f 98/103/4 86/102/4 88/104/4 
f 88/104/4 99/105/4 98/103/4 
f 99/105/4 88/104/4 90/106/4 
f 90/106/4 100/107/4 99/105/4 
f 100/107/4 90/106/4 10/14/4 
f 10/14/4 13/13/4 100/107/4 
f 101/108/5 102/108/5 103/109/5 
f 103/109/5 104/109/5 101/108/5 
f 104/109/5 103/109/5 105/110/5 
f 105/110/5 106/110/5 104/109/5 
f 106/110/5 105/110/5 107/111/5 
f 107/111/5 108/111/5 106/110/5 
f 108/111/5 107/111/5 109/112/5 
f 109/112/5 110/112/5 108/111/5 
f 110/112/5 109/112/5 111/42/5 
f 111/42/5 37/42/5 110/112/5 
f 37/42/5 111/42/5 15/15/5 
f 15/15/5 14/15/5 37/42/5 
f 112/113/5 113/113/5 114/114/5 
f 114/114/5 115/114/5 112/113/5 
f 115/114/5 114/114/5 116/115/5 
f 116/115/5 117/115/5 115/114/5 
f 117/115/5 116/115/5 118/116/5 
f 118/116/5 119/116/5 117/115/5 
f 119/116/5 118/116/5 120/117/5 
f 120/117/5 121/117/5 119/116/5 
f 121/117/5 120/117/5 17/16/5 
f 17/16/5 16/16/5 121/117/5 
f 122/118/6 123/118/6 124/119/6 
f 124/119/6 125/119/6 122/118/6 
f 125/119/6 124/119/6 126/120/6 
f 126/120/6 127/120/6 125/119/6 
f 127/120/6 126/120/6 128/121/6 
f 128/121/6 129/121/6 127/120/6 
f 129/121/6 128/121/6 130/122/6 
f 130/122/6 131/122/6 129/121/6 
f 131/122/6 130/122/6 132/21/6 
f 132/21/6 24/21/6 131/122/6 
f 24/21/6 132/21/6 19/17/6 
f 19/17/6 18/17/6 24/21/6 
f 133/123/6 134/123/6 135/124/6 
f 135/124/6 136/124/6 133/123/6 
f 136/124/6 135/124/6 137/125/6 
f 137/125/6 138/125/6 136/124/6 
f 138/125/6 137/125/6 139/126/6 
f 139/126/6 140/126/6 138/125/6 
f 140/126/6 139/126/6 141/127/6 
f 141/127/6 142/127/6 140/126/6 
f 142/127/6 141/127/6 21/18/6 
f 21/18/6 20/18/6 142/127/6 
f 134/123/1 143/128/1 144/129/1 
f 144/129/1 135/124/1 134/123/1 
f 135/124/1 144/129/1 145/130/1 
f 145/130/1 137/125/1 135/124/1 
f 137/125/1 145/130/1 146/131/1 
f 146/131/1 139/126/1 137/125/1 
f 139/126/1 146/131/1 147/132/1 
f 147/132/1 141/127/1 139/126/1 
f 141/127/1 147/132/1 36/41/1 
f 36/41/1 21/18/1 141/127/1 
f 21/18/1 36/41/1 22/19/1 
f 22/19/1 18/17/1 21/18/1 
f 148/133/1 122/118/1 125/119/1 
f 125/119/1 149/134/1 148/133/1 
f 149/134/1 125/119/1 127/120/1 
f 127/120/1 150/135/1 149/134/1 
f 150/135/1 127/120/1 129/121/1 
f 129/121/1 151/136/1 150/135/1 
f 151/136/1 129/121/1 131/122/1 
f 131/122/1 152/137/1 151/136/1 
f 152/137/1 131/122/1 24/21/1 
f 24/21/1 23/20/1 152/137/1 
s 1
f 82/138/1 153/139/1 154/140/1 
f 154/140/1 83/141/1 82/138/1 
f 83/141/1 154/140/1 155/142/1 
f 155/142/1 85/143/1 83/141/1 
f 85/143/1 155/142/1 156/144/1 
f 156/144/1 87/145/1 85/143/1 
f 87/145/1 156/144/1 157/146/1 
f 157/146/1 89/147/1 87/145/1 
f 89/147/1 157/146/1 158/148/1 
f 158/148/1 11/149/1 89/147/1 
f 11/149/1 158/148/1 25/23/1 
f 25/23/1 8/22/1 11/149/1 
f 159/150/1 70/151/1 73/152/1 
f 73/152/1 160/153/1 159/150/1 
f 160/153/1 73/152/1 75/154/1 
f 75/154/1 161/155/1 160/153/1 
f 161/155/1 75/154/1 77/156/1 
f 77/156/1 162/157/1 161/155/1 
f 162/157/1 77/156/1 79/158/1 
f 79/158/1 163/159/1 162/157/1 
f 163/159/1 79/158/1 27/25/1 
f 27/25/1 26/24/1 163/159/1 
f 164/160/1 165/161/1 166/162/1 
f 166/162/1 167/163/1 164/160/1 
f 167/163/1 166/162/1 168/164/1 
f 168/164/1 169/165/1 167/163/1 
f 169/165/1 168/164/1 170/166/1 
f 170/166/1 171/167/1 169/165/1 
f 171/167/1 170/166/1 172/168/1 
f 172/168/1 173/169/1 171/167/1 
f 173/169/1 172/168/1 32/170/1 
f 32/170/1 174/171/1 173/169/1 
f 174/171/1 32/170/1 29/27/1 
f 29/27/1 28/26/1 174/171/1 
f 175/172/1 176/173/1 177/174/1 
f 177/174/1 178/175/1 175/172/1 
f 178/175/1 177/174/1 179/176/1 
f 179/176/1 180/177/1 178/175/1 
f 180/177/1 179/176/1 181/178/1 
f 181/178/1 182/179/1 180/177/1 
f 182/179/1 181/178/1 183/180/1 
f 183/180/1 184/181/1 182/179/1 
f 184/181/1 183/180/1 31/29/1 
f 31/29/1 30/28/1 184/181/1 
s off
f 39/182/6 175/183/6 178/184/6 
f 178/184/6 40/185/6 39/182/6 
f 40/185/6 178/184/6 180/186/6 
f 180/186/6 42/187/6 40/185/6 
f 42/187/6 180/186/6 182/188/6 
f 182/188/6 44/189/6 42/187/6 
f 44/189/6 182/188/6 184/190/6 
f 184/190/6 46/191/6 44/189/6 
f 46/191/6 184/190/6 30/192/6 
f 30/192/6 48/193/6 46/191/6 
f 48/193/6 30/192/6 29/31/6 
f 29/31/6 2/30/6 48/193/6 
f 165/194/6 49/195/6 52/196/6 
f 52/196/6 166/197/6 165/194/6 
f 166/197/6 52/196/6 54/198/6 
f 54/198/6 168/199/6 166/197/6 
f 168/199/6 54/198/6 56/200/6 
f 56/200/6 170/201/6 168/199/6 
f 170/201/6 56/200/6 58/202/6 
f 58/202/6 172/203/6 170/201/6 
f 172/203/6 58/202/6 3/33/6 
f 3/33/6 32/32/6 172/203/6 
f 153/204/5 185/205/5 186/206/5 
f 186/206/5 154/207/5 153/204/5 
f 154/207/5 186/206/5 187/208/5 
f 187/208/5 155/209/5 154/207/5 
f 155/209/5 187/208/5 188/210/5 
f 188/210/5 156/211/5 155/209/5 
f 156/211/5 188/210/5 189/212/5 
f 189/212/5 157/213/5 156/211/5 
f 157/213/5 189/212/5 190/214/5 
f 190/214/5 158/215/5 157/213/5 
f 158/215/5 190/214/5 33/35/5 
f 33/35/5 25/34/5 158/215/5 
f 191/216/5 159/217/5 160/218/5 
f 160/218/5 192/219/5 191/216/5 
f 192/219/5 160/218/5 161/220/5 
f 161/220/5 193/221/5 192/219/5 
f 193/221/5 161/220/5 162/222/5 
f 162/222/5 194/223/5 193/221/5 
f 194/223/5 162/222/5 163/224/5 
f 163/224/5 195/225/5 194/223/5 
f 195/225/5 163/224/5 26/37/5 
f 26/37/5 34/36/5 195/225/5 
f 59/226/4 96/98/4 97/101/4 
f 97/101/4 60/227/4 59/226/4 
f 60/227/4 97/101/4 98/103/4 
f 98/103/4 61/228/4 60/227/4 
f 61/228/4 98/103/4 99/105/4 
f 99/105/4 62/229/4 61/228/4 
f 62/229/4 99/105/4 100/107/4 
f 100/107/4 63/230/4 62/229/4 
f 63/230/4 100/107/4 13/13/4 
f 13/13/4 64/231/4 63/230/4 
f 64/231/4 13/13/4 12/12/4 
f 12/12/4 6/38/4 64/231/4 
f 91/88/4 66/232/4 65/233/4 
f 65/233/4 92/89/4 91/88/4 
f 92/89/4 65/233/4 67/234/4 
f 67/234/4 93/91/4 92/89/4 
f 93/91/4 67/234/4 68/235/4 
f 68/235/4 94/93/4 93/91/4 
f 94/93/4 68/235/4 69/236/4 
f 69/236/4 95/95/4 94/93/4 
f 95/95/4 69/236/4 7/40/4 
f 7/40/4 35/39/4 95/95/4 
f 113/113/1 148/133/1 149/134/1 
f 149/134/1 114/114/1 113/113/1 
f 114/114/1 149/134/1 150/135/1 
f 150/135/1 116/115/1 114/114/1 
f 116/115/1 150/135/1 151/136/1 
f 151/136/1 118/116/1 116/115/1 
f 118/116/1 151/136/1 152/137/1 
f 152/137/1 120/117/1 118/116/1 
f 120/117/1 152/137/1 23/20/1 
f 23/20/1 17/16/1 120/117/1 
f 17/16/1 23/20/1 22/19/1 
f 22/19/1 14/15/1 17/16/1 
f 143/128/1 101/108/1 104/109/1 
f 104/109/1 144/129/1 143/128/1 
f 144/129/1 104/109/1 106/110/1 
f 106/110/1 145/130/1 144/129/1 
f 145/130/1 106/110/1 108/111/1 
f 108/111/1 146/131/1 145/130/1 
f 146/131/1 108/111/1 110/112/1 
f 110/112/1 147/132/1 146/131/1 
f 147/132/1 110/112/1 37/42/1 
f 37/42/1 36/41/1 147/132/1 
s 1
f 185/237/1 164/160/1 167/163/1 
f 167/163/1 186/238/1 185/237/1 
f 186/238/1 167/163/1 169/165/1 
f 169/165/1 187/239/1 186/238/1 
f 187/239/1 169/165/1 171/167/1 
f 171/167/1 188/240/1 187/239/1 
f 188/240/1 171/167/1 173/169/1 
f 173/169/1 189/241/1 188/240/1 
f 189/241/1 173/169/1 174/171/1 
f 174/171/1 190/242/1 189/241/1 
f 190/242/1 174/171/1 28/26/1 
f 28/26/1 33/43/1 190/242/1 
f 176/173/1 191/243/1 192/244/1 
f 192/244/1 177/174/1 176/173/1 
f 177/174/1 192/244/1 193/245/1 
f 193/245/1 179/176/1 177/174/1 
f 179/176/1 193/245/1 194/246/1 
f 194/246/1 181/178/1 179/176/1 
f 181/178/1 194/246/1 195/247/1 
f 195/247/1 183/180/1 181/178/1 
f 183/180/1 195/247/1 34/44/1 
f 34/44/1 31/29/1 183/180/1 
# 336 faces

