# 3ds Max Wavefront OBJ Exporter v0.97b - (c)2007 guruware
# File Created: 17.10.2015 23:23:29

#
# object Plane005
#

v  -15.00000 -3.16500 -0.00000
v  -12.00000 -0.00000 -0.00000
v  -12.00000 -0.00000 -5.33333
v  -15.00000 -3.16500 -5.33333
v  15.00000 -3.16500 -0.00000
v  12.00000 -0.00000 -0.00000
v  12.00000 -0.00000 5.33333
v  15.00000 -3.16500 5.33333
v  10.00000 -0.00000 -0.00000
v  10.00000 -0.00000 5.33333
v  -10.00000 -0.15000 -0.00000
v  -0.00000 -0.15000 -0.00000
v  -0.00000 -0.12500 -5.33333
v  -10.00000 -0.12500 -5.33333
v  10.00000 -0.15000 -0.00000
v  10.00000 -0.12500 -5.33334
v  -10.00000 -0.00000 -0.00000
v  -10.00000 -0.00000 -5.33333
v  10.00000 -0.17500 5.33333
v  -15.00000 -3.16500 32.00000
v  -12.00000 -0.00000 32.00000
v  -12.00000 -0.00000 26.66667
v  -15.00000 -3.16500 26.66667
v  -12.00000 -0.00000 21.33333
v  -15.00000 -3.16500 21.33333
v  -12.00000 -0.00000 16.00000
v  -15.00000 -3.16500 16.00000
v  -12.00000 -0.00000 10.66667
v  -15.00000 -3.16500 10.66667
v  -12.00000 -0.00000 5.33333
v  -15.00000 -3.16500 5.33333
v  -12.00000 0.00000 -32.00000
v  -15.00000 -3.16500 -32.00000
v  -15.00000 -3.16500 -26.66667
v  -12.00000 -0.00000 -26.66667
v  -15.00000 -3.16500 -21.33333
v  -12.00000 -0.00000 -21.33333
v  -15.00000 -3.16500 -16.00000
v  -12.00000 -0.00000 -16.00000
v  -15.00000 -3.16500 -10.66667
v  -12.00000 -0.00000 -10.66667
v  15.00000 -3.16500 -32.00000
v  12.00000 0.00000 -32.00000
v  12.00000 -0.00000 -26.66667
v  15.00000 -3.16500 -26.66667
v  12.00000 -0.00000 -21.33333
v  15.00000 -3.16500 -21.33333
v  12.00000 -0.00000 -16.00000
v  15.00000 -3.16500 -16.00000
v  12.00000 -0.00000 -10.66667
v  15.00000 -3.16500 -10.66667
v  12.00000 -0.00000 -5.33333
v  15.00000 -3.16500 -5.33333
v  12.00000 -0.00000 32.00000
v  15.00000 -3.16500 32.00000
v  15.00000 -3.16500 26.66667
v  12.00000 -0.00000 26.66667
v  15.00000 -3.16500 21.33333
v  12.00000 -0.00000 21.33333
v  15.00000 -3.16500 16.00000
v  12.00000 -0.00000 16.00000
v  15.00000 -3.16500 10.66667
v  12.00000 -0.00000 10.66667
v  10.00000 -0.00000 -32.00000
v  10.00000 -0.00000 -26.66667
v  10.00000 -0.00000 -21.33333
v  10.00000 -0.00000 -16.00000
v  10.00000 -0.00000 -10.66667
v  10.00000 -0.00000 -5.33333
v  10.00000 -0.00000 32.00000
v  10.00000 -0.00000 26.66667
v  10.00000 -0.00000 21.33333
v  10.00000 -0.00000 16.00000
v  10.00000 -0.00000 10.66667
v  -10.00000 -0.30000 32.00000
v  0.00000 -0.30000 32.00000
v  -0.00000 -0.27500 26.66666
v  -10.00000 -0.27500 26.66666
v  -0.00000 -0.25000 21.33334
v  -10.00000 -0.25000 21.33334
v  -0.00000 -0.22500 16.00000
v  -10.00000 -0.22500 16.00000
v  -0.00000 -0.20000 10.66666
v  -10.00000 -0.20000 10.66666
v  -0.00000 -0.17500 5.33334
v  -10.00000 -0.17500 5.33334
v  -0.00000 -0.00000 -32.00000
v  -10.00000 -0.00000 -32.00000
v  -10.00000 -0.02500 -26.66667
v  -0.00000 -0.02500 -26.66667
v  -10.00000 -0.05000 -21.33333
v  -0.00000 -0.05000 -21.33333
v  -10.00000 -0.07500 -16.00000
v  -0.00000 -0.07500 -16.00000
v  -10.00000 -0.10000 -10.66667
v  -0.00000 -0.10000 -10.66667
v  10.00000 -0.30000 32.00000
v  10.00000 -0.27500 26.66667
v  10.00000 -0.25000 21.33333
v  10.00000 -0.22500 16.00000
v  10.00000 -0.20000 10.66667
v  10.00000 -0.02500 -26.66666
v  10.00000 -0.05000 -21.33334
v  10.00000 -0.07500 -16.00000
v  10.00000 -0.10000 -10.66666
v  -10.00000 -0.00000 32.00000
v  -10.00000 -0.00000 26.66667
v  -10.00000 -0.00000 21.33333
v  -10.00000 -0.00000 16.00000
v  -10.00000 -0.00000 10.66667
v  -10.00000 -0.00000 5.33333
v  -10.00000 -0.00000 -26.66667
v  -10.00000 -0.00000 -21.33333
v  -10.00000 -0.00000 -16.00000
v  -10.00000 -0.00000 -10.66667
# 115 vertices

vn -0.72577 0.68794 0.00000
vn -0.39501 0.91868 0.00000
vn 0.72577 0.68794 0.00000
vn 0.39501 0.91868 0.00000
vn -0.00000 1.00000 0.00000
vn -0.00000 0.99999 0.00469
vn 0.00000 1.00000 0.00000
vn 1.00000 0.00000 -0.00000
vn -1.00000 0.00000 -0.00000
vn -0.00000 1.00000 0.00234
vn 0.00000 1.00000 0.00234
# 11 vertex normals

vt 0.01750 0.50000 0.00000
vt 0.01750 0.58333 0.00000
vt 0.03590 0.50000 0.00000
vt 0.03590 0.41667 0.00000
vt 0.00959 0.50003 0.00000
vt 0.04450 0.50003 0.00000
vt 0.04450 0.58337 0.00000
vt 0.00959 0.58337 0.00000
vt 0.06263 0.50003 0.00000
vt 0.25263 0.50000 0.00000
vt 0.25263 0.58333 0.00000
vt 0.06263 0.58336 0.00000
vt 0.43801 0.50000 0.00000
vt 0.43801 0.58333 0.00000
vt 0.06968 0.50000 0.00000
vt 0.06968 0.58333 0.00000
vt 0.09005 0.50453 0.00000
vt 0.09005 0.42119 0.00000
vt 0.01750 0.00000 0.00000
vt 0.01750 0.08333 0.00000
vt 0.01750 0.16667 0.00000
vt 0.01750 0.25000 0.00000
vt 0.01750 0.33333 0.00000
vt 0.01750 0.41667 0.00000
vt 0.01750 1.00000 0.00000
vt 0.01750 0.91667 0.00000
vt 0.01750 0.83333 0.00000
vt 0.01750 0.75000 0.00000
vt 0.01750 0.66667 0.00000
vt 0.03590 1.00000 0.00000
vt 0.03590 0.91667 0.00000
vt 0.03590 0.83333 0.00000
vt 0.03590 0.75000 0.00000
vt 0.03590 0.66667 0.00000
vt 0.03590 0.58333 0.00000
vt 0.03590 0.00000 0.00000
vt 0.03590 0.08333 0.00000
vt 0.03590 0.16667 0.00000
vt 0.03590 0.25000 0.00000
vt 0.03590 0.33333 0.00000
vt 0.00959 0.00003 0.00000
vt 0.04450 0.00003 0.00000
vt 0.04450 0.08337 0.00000
vt 0.00959 0.08337 0.00000
vt 0.04450 0.16670 0.00000
vt 0.00959 0.16670 0.00000
vt 0.04450 0.25003 0.00000
vt 0.00959 0.25003 0.00000
vt 0.04450 0.33337 0.00000
vt 0.00959 0.33337 0.00000
vt 0.04450 0.41670 0.00000
vt 0.00959 0.41670 0.00000
vt 0.04450 1.00003 0.00000
vt 0.00959 1.00003 0.00000
vt 0.00959 0.91670 0.00000
vt 0.04450 0.91670 0.00000
vt 0.00959 0.83337 0.00000
vt 0.04450 0.83337 0.00000
vt 0.00959 0.75003 0.00000
vt 0.04450 0.75003 0.00000
vt 0.00959 0.66670 0.00000
vt 0.04450 0.66670 0.00000
vt 0.06263 0.00003 0.00000
vt 0.25263 0.00000 0.00000
vt 0.25263 0.08333 0.00000
vt 0.06263 0.08336 0.00000
vt 0.25263 0.16667 0.00000
vt 0.06263 0.16670 0.00000
vt 0.25263 0.25000 0.00000
vt 0.06263 0.25003 0.00000
vt 0.25263 0.33333 0.00000
vt 0.06263 0.33336 0.00000
vt 0.25263 0.41667 0.00000
vt 0.06263 0.41670 0.00000
vt 0.25263 1.00000 0.00000
vt 0.06263 1.00003 0.00000
vt 0.06263 0.91670 0.00000
vt 0.25263 0.91667 0.00000
vt 0.06263 0.83336 0.00000
vt 0.25263 0.83333 0.00000
vt 0.06263 0.75003 0.00000
vt 0.25263 0.75000 0.00000
vt 0.06263 0.66670 0.00000
vt 0.25263 0.66667 0.00000
vt 0.43801 0.00000 0.00000
vt 0.43801 0.08333 0.00000
vt 0.43801 0.16667 0.00000
vt 0.43801 0.25000 0.00000
vt 0.43801 0.33333 0.00000
vt 0.43801 0.41667 0.00000
vt 0.43801 1.00000 0.00000
vt 0.43801 0.91667 0.00000
vt 0.43801 0.83333 0.00000
vt 0.43801 0.75000 0.00000
vt 0.43801 0.66667 0.00000
vt 0.06968 0.00000 0.00000
vt 0.06968 0.08333 0.00000
vt 0.06968 0.16667 0.00000
vt 0.06968 0.25000 0.00000
vt 0.06968 0.33333 0.00000
vt 0.06968 0.41667 0.00000
vt 0.06968 0.91667 0.00000
vt 0.06968 1.00000 0.00000
vt 0.06968 0.83333 0.00000
vt 0.06968 0.75000 0.00000
vt 0.06968 0.66667 0.00000
vt 0.09005 0.92119 0.00000
vt 0.09005 1.00453 0.00000
vt 0.09005 0.83786 0.00000
vt 0.09005 0.75453 0.00000
vt 0.09005 0.67119 0.00000
vt 0.09005 0.58786 0.00000
vt 0.09005 0.00453 0.00000
vt 0.09005 0.08786 0.00000
vt 0.09005 0.17119 0.00000
vt 0.09005 0.25453 0.00000
vt 0.09005 0.33786 0.00000
# 117 texture coords

g Plane005
f 1/1/1 2/1/2 3/2/2 
f 3/2/2 4/2/1 1/1/1 
f 5/3/3 6/3/4 7/4/4 
f 7/4/4 8/4/3 5/3/3 
f 6/5/4 9/6/5 10/7/5 
f 10/7/5 7/8/4 6/5/4 
f 11/9/6 12/10/6 13/11/6 
f 13/11/6 14/12/6 11/9/6 
f 12/10/6 15/13/6 16/14/6 
f 16/14/6 13/11/6 12/10/6 
f 2/5/2 17/6/7 18/7/7 
f 18/7/7 3/8/2 2/5/2 
f 17/15/8 11/15/8 14/16/8 
f 14/16/8 18/16/8 17/15/8 
f 9/17/9 15/17/9 19/18/9 
f 19/18/9 10/18/9 9/17/9 
f 20/19/1 21/19/2 22/20/2 
f 22/20/2 23/20/1 20/19/1 
f 23/20/1 22/20/2 24/21/2 
f 24/21/2 25/21/1 23/20/1 
f 25/21/1 24/21/2 26/22/2 
f 26/22/2 27/22/1 25/21/1 
f 27/22/1 26/22/2 28/23/2 
f 28/23/2 29/23/1 27/22/1 
f 29/23/1 28/23/2 30/24/2 
f 30/24/2 31/24/1 29/23/1 
f 31/24/1 30/24/2 2/1/2 
f 2/1/2 1/1/1 31/24/1 
f 32/25/2 33/25/1 34/26/1 
f 34/26/1 35/26/2 32/25/2 
f 35/26/2 34/26/1 36/27/1 
f 36/27/1 37/27/2 35/26/2 
f 37/27/2 36/27/1 38/28/1 
f 38/28/1 39/28/2 37/27/2 
f 39/28/2 38/28/1 40/29/1 
f 40/29/1 41/29/2 39/28/2 
f 41/29/2 40/29/1 4/2/1 
f 4/2/1 3/2/2 41/29/2 
f 42/30/3 43/30/4 44/31/4 
f 44/31/4 45/31/3 42/30/3 
f 45/31/3 44/31/4 46/32/4 
f 46/32/4 47/32/3 45/31/3 
f 47/32/3 46/32/4 48/33/4 
f 48/33/4 49/33/3 47/32/3 
f 49/33/3 48/33/4 50/34/4 
f 50/34/4 51/34/3 49/33/3 
f 51/34/3 50/34/4 52/35/4 
f 52/35/4 53/35/3 51/34/3 
f 53/35/3 52/35/4 6/3/4 
f 6/3/4 5/3/3 53/35/3 
f 54/36/4 55/36/3 56/37/3 
f 56/37/3 57/37/4 54/36/4 
f 57/37/4 56/37/3 58/38/3 
f 58/38/3 59/38/4 57/37/4 
f 59/38/4 58/38/3 60/39/3 
f 60/39/3 61/39/4 59/38/4 
f 61/39/4 60/39/3 62/40/3 
f 62/40/3 63/40/4 61/39/4 
f 63/40/4 62/40/3 8/4/3 
f 8/4/3 7/4/4 63/40/4 
f 43/41/4 64/42/10 65/43/5 
f 65/43/5 44/44/4 43/41/4 
f 44/44/4 65/43/5 66/45/5 
f 66/45/5 46/46/4 44/44/4 
f 46/46/4 66/45/5 67/47/5 
f 67/47/5 48/48/4 46/46/4 
f 48/48/4 67/47/5 68/49/5 
f 68/49/5 50/50/4 48/48/4 
f 50/50/4 68/49/5 69/51/5 
f 69/51/5 52/52/4 50/50/4 
f 52/52/4 69/51/5 9/6/5 
f 9/6/5 6/5/4 52/52/4 
f 70/53/5 54/54/4 57/55/4 
f 57/55/4 71/56/5 70/53/5 
f 71/56/5 57/55/4 59/57/4 
f 59/57/4 72/58/5 71/56/5 
f 72/58/5 59/57/4 61/59/4 
f 61/59/4 73/60/5 72/58/5 
f 73/60/5 61/59/4 63/61/4 
f 63/61/4 74/62/5 73/60/5 
f 74/62/5 63/61/4 7/8/4 
f 7/8/4 10/7/5 74/62/5 
f 75/63/6 76/64/6 77/65/6 
f 77/65/6 78/66/6 75/63/6 
f 78/66/6 77/65/6 79/67/6 
f 79/67/6 80/68/6 78/66/6 
f 80/68/6 79/67/6 81/69/6 
f 81/69/6 82/70/6 80/68/6 
f 82/70/6 81/69/6 83/71/6 
f 83/71/6 84/72/6 82/70/6 
f 84/72/6 83/71/6 85/73/6 
f 85/73/6 86/74/6 84/72/6 
f 86/74/6 85/73/6 12/10/6 
f 12/10/6 11/9/6 86/74/6 
f 87/75/6 88/76/11 89/77/6 
f 89/77/6 90/78/6 87/75/6 
f 90/78/6 89/77/6 91/79/6 
f 91/79/6 92/80/6 90/78/6 
f 92/80/6 91/79/6 93/81/6 
f 93/81/6 94/82/6 92/80/6 
f 94/82/6 93/81/6 95/83/6 
f 95/83/6 96/84/6 94/82/6 
f 96/84/6 95/83/6 14/12/6 
f 14/12/6 13/11/6 96/84/6 
f 76/64/6 97/85/6 98/86/6 
f 98/86/6 77/65/6 76/64/6 
f 77/65/6 98/86/6 99/87/6 
f 99/87/6 79/67/6 77/65/6 
f 79/67/6 99/87/6 100/88/6 
f 100/88/6 81/69/6 79/67/6 
f 81/69/6 100/88/6 101/89/6 
f 101/89/6 83/71/6 81/69/6 
f 83/71/6 101/89/6 19/90/6 
f 19/90/6 85/73/6 83/71/6 
f 85/73/6 19/90/6 15/13/6 
f 15/13/6 12/10/6 85/73/6 
f 64/91/10 87/75/6 90/78/6 
f 90/78/6 102/92/6 64/91/10 
f 102/92/6 90/78/6 92/80/6 
f 92/80/6 103/93/6 102/92/6 
f 103/93/6 92/80/6 94/82/6 
f 94/82/6 104/94/6 103/93/6 
f 104/94/6 94/82/6 96/84/6 
f 96/84/6 105/95/6 104/94/6 
f 105/95/6 96/84/6 13/11/6 
f 13/11/6 16/14/6 105/95/6 
f 21/41/2 106/42/7 107/43/7 
f 107/43/7 22/44/2 21/41/2 
f 22/44/2 107/43/7 108/45/7 
f 108/45/7 24/46/2 22/44/2 
f 24/46/2 108/45/7 109/47/7 
f 109/47/7 26/48/2 24/46/2 
f 26/48/2 109/47/7 110/49/7 
f 110/49/7 28/50/2 26/48/2 
f 28/50/2 110/49/7 111/51/7 
f 111/51/7 30/52/2 28/50/2 
f 30/52/2 111/51/7 17/6/7 
f 17/6/7 2/5/2 30/52/2 
f 88/53/11 32/54/2 35/55/2 
f 35/55/2 112/56/7 88/53/11 
f 112/56/7 35/55/2 37/57/2 
f 37/57/2 113/58/7 112/56/7 
f 113/58/7 37/57/2 39/59/2 
f 39/59/2 114/60/7 113/58/7 
f 114/60/7 39/59/2 41/61/2 
f 41/61/2 115/62/7 114/60/7 
f 115/62/7 41/61/2 3/8/2 
f 3/8/2 18/7/7 115/62/7 
f 106/96/8 75/96/8 78/97/8 
f 78/97/8 107/97/8 106/96/8 
f 107/97/8 78/97/8 80/98/8 
f 80/98/8 108/98/8 107/97/8 
f 108/98/8 80/98/8 82/99/8 
f 82/99/8 109/99/8 108/98/8 
f 109/99/8 82/99/8 84/100/8 
f 84/100/8 110/100/8 109/99/8 
f 110/100/8 84/100/8 86/101/8 
f 86/101/8 111/101/8 110/100/8 
f 111/101/8 86/101/8 11/15/8 
f 11/15/8 17/15/8 111/101/8 
f 89/102/8 88/103/8 112/102/8 
f 89/102/8 112/102/8 113/104/8 
f 113/104/8 91/104/8 89/102/8 
f 91/104/8 113/104/8 114/105/8 
f 114/105/8 93/105/8 91/104/8 
f 93/105/8 114/105/8 115/106/8 
f 115/106/8 95/106/8 93/105/8 
f 95/106/8 115/106/8 18/16/8 
f 18/16/8 14/16/8 95/106/8 
f 65/107/9 64/108/9 102/107/9 
f 65/107/9 102/107/9 103/109/9 
f 103/109/9 66/109/9 65/107/9 
f 66/109/9 103/109/9 104/110/9 
f 104/110/9 67/110/9 66/109/9 
f 67/110/9 104/110/9 105/111/9 
f 105/111/9 68/111/9 67/110/9 
f 68/111/9 105/111/9 16/112/9 
f 16/112/9 69/112/9 68/111/9 
f 69/112/9 16/112/9 15/17/9 
f 15/17/9 9/17/9 69/112/9 
f 97/113/9 70/113/9 71/114/9 
f 71/114/9 98/114/9 97/113/9 
f 98/114/9 71/114/9 72/115/9 
f 72/115/9 99/115/9 98/114/9 
f 99/115/9 72/115/9 73/116/9 
f 73/116/9 100/116/9 99/115/9 
f 100/116/9 73/116/9 74/117/9 
f 74/117/9 101/117/9 100/116/9 
f 101/117/9 74/117/9 10/18/9 
f 10/18/9 19/18/9 101/117/9 
# 190 faces

