# 3ds Max Wavefront OBJ Exporter v0.97b - (c)2007 guruware
# File Created: 24.10.2015 21:42:46

#
# object Plane005
#

v  -10.00000 1.00000 -0.00000
v  -12.00000 1.00000 -0.00000
v  -12.00000 1.00000 5.32500
v  -10.00000 1.00000 5.32500
v  10.00000 -0.15000 -0.00000
v  0.00000 -0.15000 -0.00000
v  0.00000 -0.17500 5.33334
v  10.00000 -0.17500 5.33333
v  10.00000 1.00000 -0.00000
v  12.00000 1.00000 -0.00000
v  12.00000 1.00000 -5.32500
v  10.00000 1.00000 -5.32500
v  -12.00000 -0.00000 -0.00000
v  -12.00000 -0.00000 5.33333
v  -12.00000 -0.00000 32.00000
v  -10.00000 0.00000 32.00000
v  -10.00000 1.00000 31.95000
v  -12.00000 1.00000 31.95000
v  -10.00000 -0.00000 -0.00000
v  -10.00000 -0.00000 -5.33333
v  -10.00000 1.00000 -5.32500
v  -10.00000 -0.00000 -32.00000
v  -12.00000 0.00000 -32.00000
v  -12.00000 1.00000 -31.95000
v  -10.00000 1.00000 -31.95000
v  12.00000 -0.00000 -0.00000
v  12.00000 -0.00000 -5.33333
v  12.00000 0.00000 -32.00000
v  10.00000 -0.00000 -32.00000
v  10.00000 1.00000 -31.95000
v  12.00000 1.00000 -31.95000
v  10.00000 -0.00000 -0.00000
v  10.00000 -0.00000 5.33333
v  10.00000 1.00000 5.32500
v  10.00000 0.00000 32.00000
v  12.00000 -0.00000 32.00000
v  12.00000 1.00000 31.95000
v  10.00000 1.00000 31.95000
v  -10.00000 -0.15000 -0.00000
v  0.00000 -0.12500 -5.33333
v  -10.00000 -0.12500 -5.33333
v  -12.00000 1.00000 -26.62500
v  -10.00000 1.00000 -26.62500
v  -12.00000 1.00000 -21.30000
v  -10.00000 1.00000 -21.30000
v  -12.00000 1.00000 -15.97500
v  -10.00000 1.00000 -15.97500
v  -12.00000 1.00000 -10.65000
v  -10.00000 1.00000 -10.65000
v  -12.00000 1.00000 -5.32500
v  -10.00000 1.00000 26.62500
v  -12.00000 1.00000 26.62500
v  -10.00000 1.00000 21.30000
v  -12.00000 1.00000 21.30000
v  -10.00000 1.00000 15.97500
v  -12.00000 1.00000 15.97500
v  -10.00000 1.00000 10.65000
v  -12.00000 1.00000 10.65000
v  0.00000 -0.00000 -32.00000
v  0.00000 -0.02500 -26.66667
v  10.00000 -0.02500 -26.66666
v  0.00000 -0.05000 -21.33333
v  10.00000 -0.05000 -21.33334
v  0.00000 -0.07500 -16.00000
v  10.00000 -0.07500 -16.00000
v  0.00000 -0.10000 -10.66667
v  10.00000 -0.10000 -10.66666
v  10.00000 -0.12500 -5.33334
v  0.00000 -0.30000 32.00000
v  10.00000 -0.30000 32.00000
v  10.00000 -0.27500 26.66667
v  0.00000 -0.27500 26.66666
v  10.00000 -0.25000 21.33333
v  0.00000 -0.25000 21.33334
v  10.00000 -0.22500 16.00000
v  0.00000 -0.22500 16.00000
v  10.00000 -0.20000 10.66667
v  0.00000 -0.20000 10.66666
v  12.00000 1.00000 26.62500
v  10.00000 1.00000 26.62500
v  12.00000 1.00000 21.30000
v  10.00000 1.00000 21.30000
v  12.00000 1.00000 15.97500
v  10.00000 1.00000 15.97500
v  12.00000 1.00000 10.65000
v  10.00000 1.00000 10.65000
v  12.00000 1.00000 5.32500
v  10.00000 1.00000 -26.62500
v  12.00000 1.00000 -26.62500
v  10.00000 1.00000 -21.30000
v  12.00000 1.00000 -21.30000
v  10.00000 1.00000 -15.97500
v  12.00000 1.00000 -15.97500
v  10.00000 1.00000 -10.65000
v  12.00000 1.00000 -10.65000
v  -12.00000 -0.00000 -26.66667
v  -12.00000 -0.00000 -21.33333
v  -12.00000 -0.00000 -16.00000
v  -12.00000 -0.00000 -10.66667
v  -12.00000 -0.00000 -5.33333
v  -12.00000 -0.00000 26.66667
v  -12.00000 -0.00000 21.33333
v  -12.00000 -0.00000 16.00000
v  -12.00000 -0.00000 10.66667
v  -10.00000 -0.00000 26.66667
v  -10.00000 -0.00000 21.33333
v  -10.00000 -0.00000 16.00000
v  -10.00000 -0.00000 10.66667
v  -10.00000 -0.00000 5.33333
v  -10.00000 -0.00000 -26.66667
v  -10.00000 -0.00000 -21.33333
v  -10.00000 -0.00000 -16.00000
v  -10.00000 -0.00000 -10.66667
v  12.00000 -0.00000 26.66667
v  12.00000 -0.00000 21.33333
v  12.00000 -0.00000 16.00000
v  12.00000 -0.00000 10.66667
v  12.00000 -0.00000 5.33333
v  12.00000 -0.00000 -26.66667
v  12.00000 -0.00000 -21.33333
v  12.00000 -0.00000 -16.00000
v  12.00000 -0.00000 -10.66667
v  10.00000 -0.00000 -26.66667
v  10.00000 -0.00000 -21.33333
v  10.00000 -0.00000 -16.00000
v  10.00000 -0.00000 -10.66667
v  10.00000 -0.00000 -5.33333
v  10.00000 -0.00000 26.66667
v  10.00000 -0.00000 21.33333
v  10.00000 -0.00000 16.00000
v  10.00000 -0.00000 10.66667
v  -10.00000 -0.30000 32.00000
v  -10.00000 -0.27500 26.66666
v  -10.00000 -0.25000 21.33334
v  -10.00000 -0.22500 16.00000
v  -10.00000 -0.20000 10.66666
v  -10.00000 -0.17500 5.33334
v  -10.00000 -0.02500 -26.66667
v  -10.00000 -0.05000 -21.33333
v  -10.00000 -0.07500 -16.00000
v  -10.00000 -0.10000 -10.66667
# 141 vertices

vn 0.00000 1.00000 0.00000
vn -0.00000 1.00000 0.00000
vn 0.00000 0.99999 0.00469
vn -1.00000 0.00000 -0.00000
vn -0.00000 0.04994 0.99875
vn 0.00000 0.04994 0.99875
vn 1.00000 0.00000 -0.00000
vn 0.00000 0.04994 -0.99875
vn -0.00000 0.04994 -0.99875
# 9 vertex normals

vt 0.11354 0.50028 0.00000
vt 0.07823 0.50029 0.00000
vt 0.07827 0.41698 0.00000
vt 0.11358 0.41697 0.00000
vt 0.13178 0.49995 0.00000
vt 0.13189 0.49999 0.00000
vt 0.13191 0.41667 0.00000
vt 0.13182 0.41664 0.00000
vt 0.07847 0.00042 0.00000
vt 0.11378 0.00042 0.00000
vt 0.11351 0.58360 0.00000
vt 0.11331 1.00015 0.00000
vt 0.07800 1.00016 0.00000
vt 0.13200 0.50003 0.00000
vt 0.13188 0.58331 0.00000
vt 0.13201 0.58336 0.00000
vt 0.07804 0.91685 0.00000
vt 0.11335 0.91684 0.00000
vt 0.07808 0.83353 0.00000
vt 0.11339 0.83353 0.00000
vt 0.07811 0.75022 0.00000
vt 0.11343 0.75022 0.00000
vt 0.07815 0.66691 0.00000
vt 0.11347 0.66691 0.00000
vt 0.07819 0.58360 0.00000
vt 0.11374 0.08373 0.00000
vt 0.07843 0.08373 0.00000
vt 0.11370 0.16704 0.00000
vt 0.07839 0.16704 0.00000
vt 0.11366 0.25035 0.00000
vt 0.07835 0.25036 0.00000
vt 0.11362 0.33366 0.00000
vt 0.07831 0.33367 0.00000
vt 0.13156 0.99983 0.00000
vt 0.13180 0.99991 0.00000
vt 0.13181 0.91659 0.00000
vt 0.13160 0.91651 0.00000
vt 0.13183 0.83327 0.00000
vt 0.13163 0.83320 0.00000
vt 0.13184 0.74995 0.00000
vt 0.13167 0.74989 0.00000
vt 0.13186 0.66663 0.00000
vt 0.13171 0.66658 0.00000
vt 0.13174 0.58326 0.00000
vt 0.13199 0.00007 0.00000
vt 0.13200 0.00008 0.00000
vt 0.13196 0.08339 0.00000
vt 0.13197 0.08339 0.00000
vt 0.13192 0.16670 0.00000
vt 0.13195 0.16671 0.00000
vt 0.13189 0.25001 0.00000
vt 0.13194 0.25003 0.00000
vt 0.13185 0.33333 0.00000
vt 0.13192 0.33335 0.00000
vt 0.13198 0.00007 0.00000
vt 0.13198 0.08340 0.00000
vt 0.13199 0.16672 0.00000
vt 0.13199 0.25005 0.00000
vt 0.13199 0.33338 0.00000
vt 0.13200 0.41670 0.00000
vt 0.13203 0.99999 0.00000
vt 0.13203 0.91666 0.00000
vt 0.13202 0.83334 0.00000
vt 0.13202 0.75001 0.00000
vt 0.13201 0.66668 0.00000
# 65 texture coords

g Plane005
f 1/1/1 2/2/1 3/3/1 
f 3/3/1 4/4/2 1/1/1 
f 5/5/3 6/6/3 7/7/3 
f 7/7/3 8/8/3 5/5/3 
f 9/1/2 10/2/2 11/3/2 
f 11/3/2 12/4/2 9/1/2 
f 2/2/4 13/2/4 14/3/4 
f 14/3/4 3/3/4 2/2/4 
f 15/9/5 16/10/5 17/10/5 
f 17/10/6 18/9/6 15/9/6 
f 1/1/7 19/1/7 20/11/7 
f 20/11/7 21/11/7 1/1/7 
f 22/12/8 23/13/8 24/13/8 
f 24/13/8 25/12/8 22/12/8 
f 10/2/7 26/2/7 27/3/7 
f 27/3/7 11/3/7 10/2/7 
f 28/9/9 29/10/9 30/10/9 
f 30/10/9 31/9/9 28/9/9 
f 9/1/4 32/1/4 33/11/4 
f 33/11/4 34/11/4 9/1/4 
f 35/12/6 36/13/6 37/13/6 
f 37/13/5 38/12/5 35/12/5 
f 39/14/3 6/6/3 40/15/3 
f 40/15/3 41/16/3 39/14/3 
f 19/14/7 39/14/7 41/16/7 
f 41/16/7 20/16/7 19/14/7 
f 32/5/4 5/5/4 8/8/4 
f 8/8/4 33/8/4 32/5/4 
f 25/12/1 24/13/1 42/17/1 
f 42/17/1 43/18/1 25/12/1 
f 43/18/1 42/17/1 44/19/2 
f 44/19/2 45/20/2 43/18/1 
f 45/20/2 44/19/2 46/21/1 
f 46/21/1 47/22/1 45/20/2 
f 47/22/1 46/21/1 48/23/2 
f 48/23/2 49/24/2 47/22/1 
f 49/24/2 48/23/2 50/25/2 
f 50/25/2 21/11/1 49/24/2 
f 21/11/1 50/25/2 2/2/1 
f 2/2/1 1/1/1 21/11/1 
f 18/9/1 17/10/1 51/26/1 
f 51/26/1 52/27/1 18/9/1 
f 52/27/1 51/26/1 53/28/2 
f 53/28/2 54/29/2 52/27/1 
f 54/29/2 53/28/2 55/30/1 
f 55/30/1 56/31/1 54/29/2 
f 56/31/1 55/30/1 57/32/2 
f 57/32/2 58/33/2 56/31/1 
f 58/33/2 57/32/2 4/4/2 
f 4/4/2 3/3/1 58/33/2 
f 29/34/3 59/35/3 60/36/3 
f 60/36/3 61/37/3 29/34/3 
f 61/37/3 60/36/3 62/38/3 
f 62/38/3 63/39/3 61/37/3 
f 63/39/3 62/38/3 64/40/3 
f 64/40/3 65/41/3 63/39/3 
f 65/41/3 64/40/3 66/42/3 
f 66/42/3 67/43/3 65/41/3 
f 67/43/3 66/42/3 40/15/3 
f 40/15/3 68/44/3 67/43/3 
f 68/44/3 40/15/3 6/6/3 
f 6/6/3 5/5/3 68/44/3 
f 69/45/3 70/46/3 71/47/3 
f 71/47/3 72/48/3 69/45/3 
f 72/48/3 71/47/3 73/49/3 
f 73/49/3 74/50/3 72/48/3 
f 74/50/3 73/49/3 75/51/3 
f 75/51/3 76/52/3 74/50/3 
f 76/52/3 75/51/3 77/53/3 
f 77/53/3 78/54/3 76/52/3 
f 78/54/3 77/53/3 8/8/3 
f 8/8/3 7/7/3 78/54/3 
f 38/12/2 37/13/2 79/17/2 
f 79/17/2 80/18/2 38/12/2 
f 80/18/2 79/17/2 81/19/2 
f 81/19/2 82/20/2 80/18/2 
f 82/20/2 81/19/2 83/21/2 
f 83/21/2 84/22/2 82/20/2 
f 84/22/2 83/21/2 85/23/2 
f 85/23/2 86/24/2 84/22/2 
f 86/24/2 85/23/2 87/25/2 
f 87/25/2 34/11/2 86/24/2 
f 34/11/2 87/25/2 10/2/2 
f 10/2/2 9/1/2 34/11/2 
f 31/9/2 30/10/2 88/26/2 
f 88/26/2 89/27/2 31/9/2 
f 89/27/2 88/26/2 90/28/2 
f 90/28/2 91/29/2 89/27/2 
f 91/29/2 90/28/2 92/30/2 
f 92/30/2 93/31/2 91/29/2 
f 93/31/2 92/30/2 94/32/2 
f 94/32/2 95/33/2 93/31/2 
f 95/33/2 94/32/2 12/4/2 
f 12/4/2 11/3/2 95/33/2 
f 24/13/4 23/13/4 96/17/4 
f 96/17/4 42/17/4 24/13/4 
f 42/17/4 96/17/4 97/19/4 
f 97/19/4 44/19/4 42/17/4 
f 44/19/4 97/19/4 98/21/4 
f 98/21/4 46/21/4 44/19/4 
f 46/21/4 98/21/4 99/23/4 
f 99/23/4 48/23/4 46/21/4 
f 48/23/4 99/23/4 100/25/4 
f 100/25/4 50/25/4 48/23/4 
f 50/25/4 100/25/4 13/2/4 
f 13/2/4 2/2/4 50/25/4 
f 101/27/4 15/9/4 18/9/4 
f 18/9/4 52/27/4 101/27/4 
f 102/29/4 101/27/4 52/27/4 
f 52/27/4 54/29/4 102/29/4 
f 103/31/4 102/29/4 54/29/4 
f 54/29/4 56/31/4 103/31/4 
f 104/33/4 103/31/4 56/31/4 
f 56/31/4 58/33/4 104/33/4 
f 104/33/4 58/33/4 3/3/4 
f 3/3/4 14/3/4 104/33/4 
f 17/10/7 16/10/7 105/26/7 
f 105/26/7 51/26/7 17/10/7 
f 51/26/7 105/26/7 106/28/7 
f 106/28/7 53/28/7 51/26/7 
f 53/28/7 106/28/7 107/30/7 
f 107/30/7 55/30/7 53/28/7 
f 55/30/7 107/30/7 108/32/7 
f 108/32/7 57/32/7 55/30/7 
f 57/32/7 108/32/7 109/4/7 
f 109/4/7 4/4/7 57/32/7 
f 4/4/7 109/4/7 19/1/7 
f 19/1/7 1/1/7 4/4/7 
f 110/18/7 22/12/7 25/12/7 
f 25/12/7 43/18/7 110/18/7 
f 111/20/7 110/18/7 43/18/7 
f 43/18/7 45/20/7 111/20/7 
f 112/22/7 111/20/7 45/20/7 
f 45/20/7 47/22/7 112/22/7 
f 113/24/7 112/22/7 47/22/7 
f 47/22/7 49/24/7 113/24/7 
f 113/24/7 49/24/7 21/11/7 
f 21/11/7 20/11/7 113/24/7 
f 37/13/7 36/13/7 114/17/7 
f 114/17/7 79/17/7 37/13/7 
f 79/17/7 114/17/7 115/19/7 
f 115/19/7 81/19/7 79/17/7 
f 81/19/7 115/19/7 116/21/7 
f 116/21/7 83/21/7 81/19/7 
f 83/21/7 116/21/7 117/23/7 
f 117/23/7 85/23/7 83/21/7 
f 85/23/7 117/23/7 118/25/7 
f 118/25/7 87/25/7 85/23/7 
f 87/25/7 118/25/7 26/2/7 
f 26/2/7 10/2/7 87/25/7 
f 119/27/7 28/9/7 31/9/7 
f 31/9/7 89/27/7 119/27/7 
f 120/29/7 119/27/7 89/27/7 
f 89/27/7 91/29/7 120/29/7 
f 121/31/7 120/29/7 91/29/7 
f 91/29/7 93/31/7 121/31/7 
f 122/33/7 121/31/7 93/31/7 
f 93/31/7 95/33/7 122/33/7 
f 122/33/7 95/33/7 11/3/7 
f 11/3/7 27/3/7 122/33/7 
f 30/10/4 29/10/4 123/26/4 
f 123/26/4 88/26/4 30/10/4 
f 88/26/4 123/26/4 124/28/4 
f 124/28/4 90/28/4 88/26/4 
f 90/28/4 124/28/4 125/30/4 
f 125/30/4 92/30/4 90/28/4 
f 92/30/4 125/30/4 126/32/4 
f 126/32/4 94/32/4 92/30/4 
f 94/32/4 126/32/4 127/4/4 
f 127/4/4 12/4/4 94/32/4 
f 12/4/4 127/4/4 32/1/4 
f 32/1/4 9/1/4 12/4/4 
f 128/18/4 35/12/4 38/12/4 
f 38/12/4 80/18/4 128/18/4 
f 129/20/4 128/18/4 80/18/4 
f 80/18/4 82/20/4 129/20/4 
f 130/22/4 129/20/4 82/20/4 
f 82/20/4 84/22/4 130/22/4 
f 131/24/4 130/22/4 84/22/4 
f 84/22/4 86/24/4 131/24/4 
f 131/24/4 86/24/4 34/11/4 
f 34/11/4 33/11/4 131/24/4 
f 132/55/3 69/45/3 72/48/3 
f 72/48/3 133/56/3 132/55/3 
f 133/56/3 72/48/3 74/50/3 
f 74/50/3 134/57/3 133/56/3 
f 134/57/3 74/50/3 76/52/3 
f 76/52/3 135/58/3 134/57/3 
f 135/58/3 76/52/3 78/54/3 
f 78/54/3 136/59/3 135/58/3 
f 136/59/3 78/54/3 7/7/3 
f 7/7/3 137/60/3 136/59/3 
f 137/60/3 7/7/3 6/6/3 
f 6/6/3 39/14/3 137/60/3 
f 59/35/3 22/61/3 138/62/3 
f 138/62/3 60/36/3 59/35/3 
f 60/36/3 138/62/3 139/63/3 
f 139/63/3 62/38/3 60/36/3 
f 62/38/3 139/63/3 140/64/3 
f 140/64/3 64/40/3 62/38/3 
f 64/40/3 140/64/3 141/65/3 
f 141/65/3 66/42/3 64/40/3 
f 66/42/3 141/65/3 41/16/3 
f 41/16/3 40/15/3 66/42/3 
f 16/55/7 132/55/7 133/56/7 
f 133/56/7 105/56/7 16/55/7 
f 105/56/7 133/56/7 134/57/7 
f 134/57/7 106/57/7 105/56/7 
f 106/57/7 134/57/7 135/58/7 
f 135/58/7 107/58/7 106/57/7 
f 107/58/7 135/58/7 136/59/7 
f 136/59/7 108/59/7 107/58/7 
f 108/59/7 136/59/7 137/60/7 
f 137/60/7 109/60/7 108/59/7 
f 109/60/7 137/60/7 39/14/7 
f 39/14/7 19/14/7 109/60/7 
f 138/62/7 22/61/7 110/62/7 
f 138/62/7 110/62/7 111/63/7 
f 111/63/7 139/63/7 138/62/7 
f 139/63/7 111/63/7 112/64/7 
f 112/64/7 140/64/7 139/63/7 
f 140/64/7 112/64/7 113/65/7 
f 113/65/7 141/65/7 140/64/7 
f 141/65/7 113/65/7 20/16/7 
f 20/16/7 41/16/7 141/65/7 
f 123/37/4 29/34/4 61/37/4 
f 123/37/4 61/37/4 63/39/4 
f 63/39/4 124/39/4 123/37/4 
f 124/39/4 63/39/4 65/41/4 
f 65/41/4 125/41/4 124/39/4 
f 125/41/4 65/41/4 67/43/4 
f 67/43/4 126/43/4 125/41/4 
f 126/43/4 67/43/4 68/44/4 
f 68/44/4 127/44/4 126/43/4 
f 127/44/4 68/44/4 5/5/4 
f 5/5/4 32/5/4 127/44/4 
f 70/46/4 35/46/4 128/47/4 
f 128/47/4 71/47/4 70/46/4 
f 71/47/4 128/47/4 129/49/4 
f 129/49/4 73/49/4 71/47/4 
f 73/49/4 129/49/4 130/51/4 
f 130/51/4 75/51/4 73/49/4 
f 75/51/4 130/51/4 131/53/4 
f 131/53/4 77/53/4 75/51/4 
f 77/53/4 131/53/4 33/8/4 
f 33/8/4 8/8/4 77/53/4 
# 246 faces

