# 3ds Max Wavefront OBJ Exporter v0.97b - (c)2007 guruware
# File Created: 19.01.2017 19:22:20

#
# object Ground
#

v  -12.0000 -0.3000 -28.6432
v  -4.0000 -0.3000 -28.6389
v  -4.0000 -0.3000 -32.0000
v  -12.0000 -0.3000 -32.0000
v  -4.0000 0.0000 -28.5179
v  -2.0000 0.0000 -28.5163
v  -2.0000 0.0000 -32.0000
v  -4.0000 0.0000 -32.0000
v  -2.0000 -0.3000 -28.6374
v  12.0000 -0.3000 -28.6316
v  12.0000 -0.3000 -32.0000
v  -2.0000 -0.3000 -32.0000
v  -4.0000 0.0000 28.7600
v  -4.0000 -0.3000 28.6389
v  -4.0000 -0.3000 32.0000
v  -4.0000 0.0000 32.0000
v  -2.0000 0.0000 32.0000
v  -2.0000 -0.3000 32.0000
v  -12.0000 -0.3000 32.0000
v  -12.0000 -0.3000 28.6432
v  -2.0000 0.0000 28.7584
v  12.0000 -0.3000 32.0000
v  12.0000 -0.3000 28.6316
v  -2.0000 -0.3000 28.6374
v  -4.0000 0.0000 25.7847
v  -4.0000 -0.3000 25.8250
v  -12.0000 -0.3000 -25.8250
v  -4.0000 -0.3000 -25.8250
v  -4.0000 0.0000 -25.7979
v  -2.0000 0.0000 -25.7979
v  -2.0000 -0.3000 -25.8250
v  12.0000 -0.3000 -25.8250
v  -4.0000 0.0000 22.4163
v  -4.0000 -0.3000 22.4566
v  -12.0000 -0.3000 25.8250
v  -2.0000 0.0000 25.7847
v  12.0000 -0.3000 25.8250
v  -2.0000 -0.3000 25.8250
v  -12.0000 -0.3000 22.4566
v  -2.0000 0.0000 22.4163
v  12.0000 -0.3000 22.4566
v  -2.0000 -0.3000 22.4566
v  -4.0000 0.0000 19.0479
v  -4.0000 -0.3000 19.0882
v  -12.0000 -0.3000 19.0882
v  -2.0000 0.0000 19.0479
v  12.0000 -0.3000 19.0882
v  -2.0000 -0.3000 19.0882
v  -4.0000 0.0000 15.5858
v  -4.0000 -0.3000 15.6261
v  -12.0000 -0.3000 15.6261
v  -2.0000 0.0000 15.5858
v  12.0000 -0.3000 15.6261
v  -2.0000 -0.3000 15.6261
v  -4.0000 0.0000 12.1238
v  -4.0000 -0.3000 12.1640
v  -12.0000 -0.3000 12.1640
v  -2.0000 0.0000 12.1238
v  12.0000 -0.3000 12.1640
v  -2.0000 -0.3000 12.1640
v  -4.0000 0.0000 8.6617
v  -4.0000 -0.3000 8.7020
v  -12.0000 -0.3000 8.7020
v  -2.0000 0.0000 8.6617
v  12.0000 -0.3000 8.7020
v  -2.0000 -0.3000 8.7020
v  -4.0000 0.0000 5.1997
v  -4.0000 -0.3000 5.2399
v  -12.0000 -0.3000 5.2399
v  -2.0000 0.0000 5.1997
v  12.0000 -0.3000 5.2399
v  -2.0000 -0.3000 5.2399
v  -4.0000 0.0000 1.7376
v  -4.0000 -0.3000 1.7779
v  -12.0000 -0.3000 1.7779
v  -2.0000 0.0000 1.7376
v  12.0000 -0.3000 1.7779
v  -2.0000 -0.3000 1.7779
v  -4.0000 0.0000 -1.7245
v  -4.0000 -0.3000 -1.6842
v  -12.0000 -0.3000 -1.6842
v  -2.0000 0.0000 -1.7245
v  12.0000 -0.3000 -1.6842
v  -2.0000 -0.3000 -1.6842
v  -4.0000 0.0000 -5.1192
v  -4.0000 -0.3000 -5.1463
v  -12.0000 -0.3000 -5.1463
v  -2.0000 0.0000 -5.1192
v  12.0000 -0.3000 -5.1463
v  -2.0000 -0.3000 -5.1463
v  -4.0000 0.0000 -8.5813
v  -4.0000 -0.3000 -8.6083
v  -12.0000 -0.3000 -8.6083
v  -2.0000 0.0000 -8.5813
v  12.0000 -0.3000 -8.6083
v  -2.0000 -0.3000 -8.6083
v  -4.0000 0.0000 -12.0433
v  -4.0000 -0.3000 -12.0704
v  -12.0000 -0.3000 -12.0704
v  -2.0000 0.0000 -12.0433
v  12.0000 -0.3000 -12.0704
v  -2.0000 -0.3000 -12.0704
v  -4.0000 0.0000 -15.5054
v  -4.0000 -0.3000 -15.5325
v  -12.0000 -0.3000 -15.5325
v  -2.0000 0.0000 -15.5054
v  12.0000 -0.3000 -15.5325
v  -2.0000 -0.3000 -15.5325
v  -4.0000 0.0000 -18.9674
v  -4.0000 -0.3000 -18.9945
v  -12.0000 -0.3000 -18.9945
v  -2.0000 0.0000 -18.9674
v  12.0000 -0.3000 -18.9945
v  -2.0000 -0.3000 -18.9945
v  -4.0000 0.0000 -22.4396
v  -4.0000 -0.3000 -22.4663
v  -12.0000 -0.3000 -22.4566
v  -2.0000 0.0000 -22.4432
v  12.0000 -0.3000 -22.4833
v  -2.0000 -0.3000 -22.4699
v  12.0000 0.0000 -0.0000
v  16.0000 0.0000 -0.0000
v  16.0000 0.0000 -5.3333
v  12.0000 0.0000 -5.3333
v  12.0000 -0.3000 -0.0000
v  12.0000 -0.3000 5.3333
v  12.0000 0.0000 5.3333
v  19.0000 -3.1650 -0.0000
v  16.0000 0.0000 5.3333
v  19.0000 -3.1650 5.3333
v  12.0000 0.0000 32.0000
v  16.0000 0.0000 32.0000
v  16.0000 0.0000 26.6667
v  12.0000 0.0000 26.6667
v  16.0000 0.0000 21.3333
v  12.0000 0.0000 21.3333
v  16.0000 0.0000 16.0000
v  12.0000 0.0000 16.0000
v  16.0000 0.0000 10.6667
v  12.0000 0.0000 10.6667
v  16.0000 0.0000 -32.0000
v  12.0000 0.0000 -32.0000
v  12.0000 0.0000 -26.6667
v  16.0000 0.0000 -26.6667
v  12.0000 0.0000 -21.3333
v  16.0000 0.0000 -21.3333
v  12.0000 0.0000 -16.0000
v  16.0000 0.0000 -16.0000
v  12.0000 0.0000 -10.6667
v  16.0000 0.0000 -10.6667
v  12.0000 -0.3000 -26.6667
v  12.0000 -0.3000 -21.3333
v  12.0000 -0.3000 -16.0000
v  12.0000 -0.3000 -10.6667
v  12.0000 -0.3000 -5.3333
v  12.0000 -0.3000 26.6667
v  12.0000 -0.3000 21.3333
v  12.0000 -0.3000 16.0000
v  12.0000 -0.3000 10.6667
v  19.0000 -3.1650 -32.0000
v  19.0000 -3.1650 -26.6667
v  19.0000 -3.1650 -21.3333
v  19.0000 -3.1650 -16.0000
v  19.0000 -3.1650 -10.6667
v  19.0000 -3.1650 -5.3333
v  19.0000 -3.1650 32.0000
v  19.0000 -3.1650 26.6667
v  19.0000 -3.1650 21.3333
v  19.0000 -3.1650 16.0000
v  19.0000 -3.1650 10.6667
v  -16.0000 0.0000 -0.0000
v  -12.0000 0.0000 -0.0000
v  -12.0000 0.0000 -5.3333
v  -16.0000 0.0000 -5.3333
v  -12.0000 -0.3000 -0.0000
v  -12.0000 -0.3000 -5.3333
v  -19.0000 -3.1650 -0.0000
v  -19.0000 -3.1650 5.3333
v  -16.0000 0.0000 5.3333
v  -16.0000 0.0000 32.0000
v  -12.0000 0.0000 32.0000
v  -12.0000 0.0000 26.6667
v  -16.0000 0.0000 26.6667
v  -12.0000 0.0000 21.3333
v  -16.0000 0.0000 21.3333
v  -12.0000 0.0000 16.0000
v  -16.0000 0.0000 16.0000
v  -12.0000 0.0000 10.6667
v  -16.0000 0.0000 10.6667
v  -12.0000 0.0000 5.3333
v  -12.0000 0.0000 -32.0000
v  -16.0000 0.0000 -32.0000
v  -16.0000 0.0000 -26.6667
v  -12.0000 0.0000 -26.6667
v  -16.0000 0.0000 -21.3333
v  -12.0000 0.0000 -21.3333
v  -16.0000 0.0000 -16.0000
v  -12.0000 0.0000 -16.0000
v  -16.0000 0.0000 -10.6667
v  -12.0000 0.0000 -10.6667
v  -12.0000 -0.3000 26.6667
v  -12.0000 -0.3000 21.3333
v  -12.0000 -0.3000 16.0000
v  -12.0000 -0.3000 10.6667
v  -12.0000 -0.3000 5.3333
v  -12.0000 -0.3000 -26.6667
v  -12.0000 -0.3000 -21.3333
v  -12.0000 -0.3000 -16.0000
v  -12.0000 -0.3000 -10.6667
v  -19.0000 -3.1650 -32.0000
v  -19.0000 -3.1650 -26.6667
v  -19.0000 -3.1650 -21.3333
v  -19.0000 -3.1650 -16.0000
v  -19.0000 -3.1650 -10.6667
v  -19.0000 -3.1650 -5.3333
v  -19.0000 -3.1650 32.0000
v  -19.0000 -3.1650 26.6667
v  -19.0000 -3.1650 21.3333
v  -19.0000 -3.1650 16.0000
v  -19.0000 -3.1650 10.6667
# 220 vertices

vn 0.0000 1.0000 -0.0000
vn -1.0000 0.0000 -0.0000
vn 1.0000 0.0000 -0.0000
vn 0.0000 0.0000 1.0000
vn 0.0000 0.0000 -1.0000
vn 0.7258 0.6879 -0.0000
vn -0.7258 0.6879 -0.0000
# 7 vertex normals

vt 0.8757 0.0525 0.0000
vt 0.6278 0.0525 0.0000
vt 0.6278 -0.0000 0.0000
vt 0.8757 0.0000 0.0000
vt 0.6278 0.0544 0.0000
vt 0.5639 0.0544 0.0000
vt 0.5639 -0.0000 0.0000
vt 0.5639 0.0525 0.0000
vt 0.1287 0.0526 0.0000
vt 0.1287 -0.0000 0.0000
vt 0.5825 -0.0000 0.0000
vt 0.5825 1.0000 0.0000
vt 0.5817 1.0000 0.0000
vt 0.5817 -0.0000 0.0000
vt 0.5986 -0.0000 0.0000
vt 0.5977 -0.0000 0.0000
vt 0.5977 1.0000 0.0000
vt 0.5986 1.0000 0.0000
vt 0.5673 -0.0000 0.0000
vt 0.6226 -0.0000 0.0000
vt 0.6226 1.0000 0.0000
vt 0.5673 1.0000 0.0000
vt 0.8757 1.0000 0.0000
vt 0.6278 1.0000 0.0000
vt 0.6278 0.9475 0.0000
vt 0.8757 0.9475 0.0000
vt 0.5639 1.0000 0.0000
vt 0.5639 0.9494 0.0000
vt 0.6278 0.9494 0.0000
vt 0.1287 1.0000 0.0000
vt 0.1287 0.9474 0.0000
vt 0.5639 0.9475 0.0000
vt 0.5833 -0.0000 0.0000
vt 0.5833 1.0000 0.0000
vt 0.8757 0.0965 0.0000
vt 0.6278 0.0965 0.0000
vt 0.6278 0.0969 0.0000
vt 0.5639 0.0969 0.0000
vt 0.5639 0.0965 0.0000
vt 0.1287 0.0965 0.0000
vt 0.5970 -0.0000 0.0000
vt 0.5970 1.0000 0.0000
vt 0.5842 -0.0000 0.0000
vt 0.5842 1.0000 0.0000
vt 0.6278 0.9035 0.0000
vt 0.8757 0.9035 0.0000
vt 0.5639 0.9029 0.0000
vt 0.6278 0.9029 0.0000
vt 0.1287 0.9035 0.0000
vt 0.5639 0.9035 0.0000
vt 0.6278 0.8509 0.0000
vt 0.8757 0.8509 0.0000
vt 0.5639 0.8503 0.0000
vt 0.6278 0.8503 0.0000
vt 0.1287 0.8509 0.0000
vt 0.5639 0.8509 0.0000
vt 0.5851 -0.0000 0.0000
vt 0.5851 1.0000 0.0000
vt 0.6278 0.7983 0.0000
vt 0.8757 0.7983 0.0000
vt 0.5639 0.7976 0.0000
vt 0.6278 0.7976 0.0000
vt 0.1287 0.7983 0.0000
vt 0.5639 0.7983 0.0000
vt 0.5860 -0.0000 0.0000
vt 0.5860 1.0000 0.0000
vt 0.6278 0.7442 0.0000
vt 0.8757 0.7442 0.0000
vt 0.5639 0.7435 0.0000
vt 0.6278 0.7435 0.0000
vt 0.1287 0.7442 0.0000
vt 0.5639 0.7442 0.0000
vt 0.5869 -0.0000 0.0000
vt 0.5869 1.0000 0.0000
vt 0.6278 0.6901 0.0000
vt 0.8757 0.6901 0.0000
vt 0.5639 0.6894 0.0000
vt 0.6278 0.6894 0.0000
vt 0.1287 0.6901 0.0000
vt 0.5639 0.6901 0.0000
vt 0.5878 -0.0000 0.0000
vt 0.5878 1.0000 0.0000
vt 0.6278 0.6360 0.0000
vt 0.8757 0.6360 0.0000
vt 0.5639 0.6353 0.0000
vt 0.6278 0.6353 0.0000
vt 0.1287 0.6360 0.0000
vt 0.5639 0.6360 0.0000
vt 0.5888 -0.0000 0.0000
vt 0.5888 1.0000 0.0000
vt 0.6278 0.5819 0.0000
vt 0.8757 0.5819 0.0000
vt 0.5639 0.5812 0.0000
vt 0.6278 0.5812 0.0000
vt 0.1287 0.5819 0.0000
vt 0.5639 0.5819 0.0000
vt 0.5897 -0.0000 0.0000
vt 0.5897 1.0000 0.0000
vt 0.6278 0.5278 0.0000
vt 0.8757 0.5278 0.0000
vt 0.5639 0.5271 0.0000
vt 0.6278 0.5271 0.0000
vt 0.1287 0.5278 0.0000
vt 0.5639 0.5278 0.0000
vt 0.5906 -0.0000 0.0000
vt 0.5906 1.0000 0.0000
vt 0.6278 0.4737 0.0000
vt 0.8757 0.4737 0.0000
vt 0.5639 0.4731 0.0000
vt 0.6278 0.4731 0.0000
vt 0.1287 0.4737 0.0000
vt 0.5639 0.4737 0.0000
vt 0.5915 -0.0000 0.0000
vt 0.5915 1.0000 0.0000
vt 0.6278 0.4196 0.0000
vt 0.8757 0.4196 0.0000
vt 0.5639 0.4200 0.0000
vt 0.6278 0.4200 0.0000
vt 0.1287 0.4196 0.0000
vt 0.5639 0.4196 0.0000
vt 0.5924 -0.0000 0.0000
vt 0.5925 1.0000 0.0000
vt 0.6278 0.3655 0.0000
vt 0.8757 0.3655 0.0000
vt 0.5639 0.3659 0.0000
vt 0.6278 0.3659 0.0000
vt 0.1287 0.3655 0.0000
vt 0.5639 0.3655 0.0000
vt 0.5933 -0.0000 0.0000
vt 0.5933 1.0000 0.0000
vt 0.6278 0.3114 0.0000
vt 0.8757 0.3114 0.0000
vt 0.5639 0.3118 0.0000
vt 0.6278 0.3118 0.0000
vt 0.1287 0.3114 0.0000
vt 0.5639 0.3114 0.0000
vt 0.5942 -0.0000 0.0000
vt 0.5942 1.0000 0.0000
vt 0.6278 0.2573 0.0000
vt 0.8757 0.2573 0.0000
vt 0.5639 0.2577 0.0000
vt 0.6278 0.2577 0.0000
vt 0.1287 0.2573 0.0000
vt 0.5639 0.2573 0.0000
vt 0.5952 -0.0000 0.0000
vt 0.5952 1.0000 0.0000
vt 0.6278 0.2032 0.0000
vt 0.8757 0.2032 0.0000
vt 0.5639 0.2036 0.0000
vt 0.6278 0.2036 0.0000
vt 0.1287 0.2032 0.0000
vt 0.5639 0.2032 0.0000
vt 0.5961 -0.0000 0.0000
vt 0.5961 1.0000 0.0000
vt 0.6278 0.1490 0.0000
vt 0.8757 0.1491 0.0000
vt 0.5639 0.1493 0.0000
vt 0.6278 0.1494 0.0000
vt 0.1287 0.1487 0.0000
vt 0.5639 0.1489 0.0000
vt 0.8755 0.5000 0.0000
vt 1.0000 0.5000 0.0000
vt 1.0000 0.5833 0.0000
vt 0.8755 0.5833 0.0000
vt 0.5902 1.0000 0.0000
vt 0.5902 0.0000 0.0000
vt 0.5888 0.0000 0.0000
vt 0.0298 -0.0000 0.0000
vt 0.0298 1.0000 0.0000
vt 0.0348 1.0000 0.0000
vt 0.0348 -0.0000 0.0000
vt 0.8755 0.0000 0.0000
vt 1.0000 0.0000 0.0000
vt 1.0000 0.0833 0.0000
vt 0.8755 0.0833 0.0000
vt 1.0000 0.1667 0.0000
vt 0.8755 0.1667 0.0000
vt 1.0000 0.2500 0.0000
vt 0.8755 0.2500 0.0000
vt 1.0000 0.3333 0.0000
vt 0.8755 0.3333 0.0000
vt 1.0000 0.4167 0.0000
vt 0.8755 0.4167 0.0000
vt 1.0000 1.0000 0.0000
vt 0.8755 1.0000 0.0000
vt 0.8755 0.9167 0.0000
vt 1.0000 0.9167 0.0000
vt 0.8755 0.8333 0.0000
vt 1.0000 0.8333 0.0000
vt 0.8755 0.7500 0.0000
vt 1.0000 0.7500 0.0000
vt 0.8755 0.6667 0.0000
vt 1.0000 0.6667 0.0000
vt 0.5987 1.0000 0.0000
vt 0.5987 0.0000 0.0000
vt 0.5973 0.0000 0.0000
vt 0.5973 1.0000 0.0000
vt 0.5959 0.0000 0.0000
vt 0.5959 1.0000 0.0000
vt 0.5945 0.0000 0.0000
vt 0.5945 1.0000 0.0000
vt 0.5930 0.0000 0.0000
vt 0.5930 1.0000 0.0000
vt 0.5917 0.0000 0.0000
vt 0.5917 1.0000 0.0000
vt 0.5818 0.0000 0.0000
vt 0.5818 1.0000 0.0000
vt 0.5832 1.0000 0.0000
vt 0.5832 0.0000 0.0000
vt 0.5846 1.0000 0.0000
vt 0.5846 0.0000 0.0000
vt 0.5860 0.0000 0.0000
vt 0.5874 1.0000 0.0000
vt 0.5874 0.0000 0.0000
vt 0.0000 -0.0000 0.0000
vt 0.0000 1.0000 0.0000
vt 0.0050 1.0000 0.0000
vt 0.0050 -0.0000 0.0000
vt 0.0099 1.0000 0.0000
vt 0.0099 -0.0000 0.0000
vt 0.0149 1.0000 0.0000
vt 0.0149 -0.0000 0.0000
vt 0.0199 1.0000 0.0000
vt 0.0199 -0.0000 0.0000
vt 0.0249 1.0000 0.0000
vt 0.0249 -0.0000 0.0000
vt 0.0597 1.0000 0.0000
vt 0.0597 -0.0000 0.0000
vt 0.0547 -0.0000 0.0000
vt 0.0547 1.0000 0.0000
vt 0.0497 -0.0000 0.0000
vt 0.0497 1.0000 0.0000
vt 0.0447 -0.0000 0.0000
vt 0.0447 1.0000 0.0000
vt 0.0398 -0.0000 0.0000
vt 0.0398 1.0000 0.0000
vt 0.0000 0.5000 0.0000
vt 0.1261 0.5000 0.0000
vt 0.1261 0.5833 0.0000
vt 0.0000 0.5833 0.0000
vt 0.0298 0.0000 0.0000
vt 0.0348 0.0000 0.0000
vt 0.0000 0.0000 0.0000
vt 0.1261 0.0000 0.0000
vt 0.1261 0.0833 0.0000
vt 0.0000 0.0833 0.0000
vt 0.1261 0.1667 0.0000
vt 0.0000 0.1667 0.0000
vt 0.1261 0.2500 0.0000
vt 0.0000 0.2500 0.0000
vt 0.1261 0.3333 0.0000
vt 0.0000 0.3333 0.0000
vt 0.1261 0.4167 0.0000
vt 0.0000 0.4167 0.0000
vt 0.1261 1.0000 0.0000
vt 0.0000 0.9167 0.0000
vt 0.1261 0.9167 0.0000
vt 0.0000 0.8333 0.0000
vt 0.1261 0.8333 0.0000
vt 0.0000 0.7500 0.0000
vt 0.1261 0.7500 0.0000
vt 0.0000 0.6667 0.0000
vt 0.1261 0.6667 0.0000
vt 0.0050 0.0000 0.0000
vt 0.0099 0.0000 0.0000
vt 0.0149 0.0000 0.0000
vt 0.0199 0.0000 0.0000
vt 0.0249 0.0000 0.0000
vt 0.0597 0.0000 0.0000
vt 0.0547 0.0000 0.0000
vt 0.0497 0.0000 0.0000
vt 0.0447 0.0000 0.0000
vt 0.0398 0.0000 0.0000
# 273 texture coords

g Ground
s 1
f 1/1/1 2/2/1 3/3/1 
f 3/3/1 4/4/1 1/1/1 
f 5/5/1 6/6/1 7/7/1 
f 7/7/1 8/3/1 5/5/1 
f 9/8/1 10/9/1 11/10/1 
f 11/10/1 12/7/1 9/8/1 
s off
f 13/11/2 14/12/2 15/13/2 
f 15/13/2 16/14/2 13/11/2 
f 7/15/3 6/16/3 9/17/3 
f 9/17/3 12/18/3 7/15/3 
f 17/19/4 16/20/4 15/21/4 
f 15/21/4 18/22/4 17/19/4 
f 8/20/5 7/19/5 12/22/5 
f 12/22/5 3/21/5 8/20/5 
s 1
f 19/23/1 15/24/1 14/25/1 
f 14/25/1 20/26/1 19/23/1 
f 16/24/1 17/27/1 21/28/1 
f 21/28/1 13/29/1 16/24/1 
f 18/27/1 22/30/1 23/31/1 
f 23/31/1 24/32/1 18/27/1 
s off
f 25/33/2 26/34/2 14/12/2 
f 14/12/2 13/11/2 25/33/2 
f 21/11/3 17/14/3 18/13/3 
f 18/13/3 24/12/3 21/11/3 
s 1
f 27/35/1 28/36/1 2/2/1 
f 2/2/1 1/1/1 27/35/1 
f 29/37/1 30/38/1 6/6/1 
f 6/6/1 5/5/1 29/37/1 
f 31/39/1 32/40/1 10/9/1 
f 10/9/1 9/8/1 31/39/1 
s off
f 6/16/3 30/41/3 31/42/3 
f 31/42/3 9/17/3 6/16/3 
f 8/15/2 3/18/2 2/17/2 
f 2/17/2 5/16/2 8/15/2 
f 25/33/2 33/43/2 34/44/2 
f 34/44/2 26/34/2 25/33/2 
s 1
f 20/26/1 14/25/1 26/45/1 
f 26/45/1 35/46/1 20/26/1 
f 13/29/1 21/28/1 36/47/1 
f 36/47/1 25/48/1 13/29/1 
f 24/32/1 23/31/1 37/49/1 
f 37/49/1 38/50/1 24/32/1 
s off
f 36/33/3 21/11/3 24/12/3 
f 24/12/3 38/34/3 36/33/3 
s 1
f 35/46/1 26/45/1 34/51/1 
f 34/51/1 39/52/1 35/46/1 
f 25/48/1 36/47/1 40/53/1 
f 40/53/1 33/54/1 25/48/1 
f 38/50/1 37/49/1 41/55/1 
f 41/55/1 42/56/1 38/50/1 
s off
f 36/33/3 38/34/3 42/44/3 
f 42/44/3 40/43/3 36/33/3 
f 33/43/2 43/57/2 44/58/2 
f 44/58/2 34/44/2 33/43/2 
s 1
f 39/52/1 34/51/1 44/59/1 
f 44/59/1 45/60/1 39/52/1 
f 33/54/1 40/53/1 46/61/1 
f 46/61/1 43/62/1 33/54/1 
f 42/56/1 41/55/1 47/63/1 
f 47/63/1 48/64/1 42/56/1 
s off
f 40/43/3 42/44/3 48/58/3 
f 48/58/3 46/57/3 40/43/3 
f 43/57/2 49/65/2 50/66/2 
f 50/66/2 44/58/2 43/57/2 
s 1
f 45/60/1 44/59/1 50/67/1 
f 50/67/1 51/68/1 45/60/1 
f 43/62/1 46/61/1 52/69/1 
f 52/69/1 49/70/1 43/62/1 
f 48/64/1 47/63/1 53/71/1 
f 53/71/1 54/72/1 48/64/1 
s off
f 46/57/3 48/58/3 54/66/3 
f 54/66/3 52/65/3 46/57/3 
f 49/65/2 55/73/2 56/74/2 
f 56/74/2 50/66/2 49/65/2 
s 1
f 51/68/1 50/67/1 56/75/1 
f 56/75/1 57/76/1 51/68/1 
f 49/70/1 52/69/1 58/77/1 
f 58/77/1 55/78/1 49/70/1 
f 54/72/1 53/71/1 59/79/1 
f 59/79/1 60/80/1 54/72/1 
s off
f 52/65/3 54/66/3 60/74/3 
f 60/74/3 58/73/3 52/65/3 
f 55/73/2 61/81/2 62/82/2 
f 62/82/2 56/74/2 55/73/2 
s 1
f 57/76/1 56/75/1 62/83/1 
f 62/83/1 63/84/1 57/76/1 
f 55/78/1 58/77/1 64/85/1 
f 64/85/1 61/86/1 55/78/1 
f 60/80/1 59/79/1 65/87/1 
f 65/87/1 66/88/1 60/80/1 
s off
f 58/73/3 60/74/3 66/82/3 
f 66/82/3 64/81/3 58/73/3 
f 61/81/2 67/89/2 68/90/2 
f 68/90/2 62/82/2 61/81/2 
s 1
f 63/84/1 62/83/1 68/91/1 
f 68/91/1 69/92/1 63/84/1 
f 61/86/1 64/85/1 70/93/1 
f 70/93/1 67/94/1 61/86/1 
f 66/88/1 65/87/1 71/95/1 
f 71/95/1 72/96/1 66/88/1 
s off
f 64/81/3 66/82/3 72/90/3 
f 72/90/3 70/89/3 64/81/3 
f 67/89/2 73/97/2 74/98/2 
f 74/98/2 68/90/2 67/89/2 
s 1
f 69/92/1 68/91/1 74/99/1 
f 74/99/1 75/100/1 69/92/1 
f 67/94/1 70/93/1 76/101/1 
f 76/101/1 73/102/1 67/94/1 
f 72/96/1 71/95/1 77/103/1 
f 77/103/1 78/104/1 72/96/1 
s off
f 70/89/3 72/90/3 78/98/3 
f 78/98/3 76/97/3 70/89/3 
f 73/97/2 79/105/2 80/106/2 
f 80/106/2 74/98/2 73/97/2 
s 1
f 75/100/1 74/99/1 80/107/1 
f 80/107/1 81/108/1 75/100/1 
f 73/102/1 76/101/1 82/109/1 
f 82/109/1 79/110/1 73/102/1 
f 78/104/1 77/103/1 83/111/1 
f 83/111/1 84/112/1 78/104/1 
s off
f 76/97/3 78/98/3 84/106/3 
f 84/106/3 82/105/3 76/97/3 
f 85/113/2 86/114/2 80/106/2 
f 80/106/2 79/105/2 85/113/2 
s 1
f 81/108/1 80/107/1 86/115/1 
f 86/115/1 87/116/1 81/108/1 
f 79/110/1 82/109/1 88/117/1 
f 88/117/1 85/118/1 79/110/1 
f 84/112/1 83/111/1 89/119/1 
f 89/119/1 90/120/1 84/112/1 
s off
f 82/105/3 84/106/3 90/114/3 
f 90/114/3 88/113/3 82/105/3 
f 91/121/2 92/122/2 86/114/2 
f 86/114/2 85/113/2 91/121/2 
s 1
f 87/116/1 86/115/1 92/123/1 
f 92/123/1 93/124/1 87/116/1 
f 85/118/1 88/117/1 94/125/1 
f 94/125/1 91/126/1 85/118/1 
f 90/120/1 89/119/1 95/127/1 
f 95/127/1 96/128/1 90/120/1 
s off
f 94/121/3 88/113/3 90/114/3 
f 90/114/3 96/122/3 94/121/3 
f 97/129/2 98/130/2 92/122/2 
f 92/122/2 91/121/2 97/129/2 
s 1
f 93/124/1 92/123/1 98/131/1 
f 98/131/1 99/132/1 93/124/1 
f 91/126/1 94/125/1 100/133/1 
f 100/133/1 97/134/1 91/126/1 
f 96/128/1 95/127/1 101/135/1 
f 101/135/1 102/136/1 96/128/1 
s off
f 100/129/3 94/121/3 96/122/3 
f 96/122/3 102/130/3 100/129/3 
f 103/137/2 104/138/2 98/130/2 
f 98/130/2 97/129/2 103/137/2 
s 1
f 99/132/1 98/131/1 104/139/1 
f 104/139/1 105/140/1 99/132/1 
f 97/134/1 100/133/1 106/141/1 
f 106/141/1 103/142/1 97/134/1 
f 102/136/1 101/135/1 107/143/1 
f 107/143/1 108/144/1 102/136/1 
s off
f 106/137/3 100/129/3 102/130/3 
f 102/130/3 108/138/3 106/137/3 
f 109/145/2 110/146/2 104/138/2 
f 104/138/2 103/137/2 109/145/2 
s 1
f 105/140/1 104/139/1 110/147/1 
f 110/147/1 111/148/1 105/140/1 
f 103/142/1 106/141/1 112/149/1 
f 112/149/1 109/150/1 103/142/1 
f 108/144/1 107/143/1 113/151/1 
f 113/151/1 114/152/1 108/144/1 
s off
f 112/145/3 106/137/3 108/138/3 
f 108/138/3 114/146/3 112/145/3 
f 115/153/2 116/154/2 110/146/2 
f 110/146/2 109/145/2 115/153/2 
s 1
f 111/148/1 110/147/1 116/155/1 
f 116/155/1 117/156/1 111/148/1 
f 109/150/1 112/149/1 118/157/1 
f 118/157/1 115/158/1 109/150/1 
f 114/152/1 113/151/1 119/159/1 
f 119/159/1 120/160/1 114/152/1 
s off
f 118/153/3 112/145/3 114/146/3 
f 114/146/3 120/154/3 118/153/3 
f 29/41/2 28/42/2 116/154/2 
f 116/154/2 115/153/2 29/41/2 
s 1
f 117/156/1 116/155/1 28/36/1 
f 28/36/1 27/35/1 117/156/1 
f 115/158/1 118/157/1 30/38/1 
f 30/38/1 29/37/1 115/158/1 
f 120/160/1 119/159/1 32/40/1 
f 32/40/1 31/39/1 120/160/1 
s off
f 30/41/3 118/153/3 120/154/3 
f 120/154/3 31/42/3 30/41/3 
f 5/16/2 2/17/2 28/42/2 
f 28/42/2 29/41/2 5/16/2 
s 1
f 121/161/1 122/162/1 123/163/1 
f 123/163/1 124/164/1 121/161/1 
s off
f 121/165/2 125/166/2 126/167/2 
f 126/167/2 127/90/2 121/165/2 
f 128/168/6 122/169/6 129/170/6 
f 129/170/6 130/171/6 128/168/6 
s 1
f 131/172/1 132/173/1 133/174/1 
f 133/174/1 134/175/1 131/172/1 
f 134/175/1 133/174/1 135/176/1 
f 135/176/1 136/177/1 134/175/1 
f 136/177/1 135/176/1 137/178/1 
f 137/178/1 138/179/1 136/177/1 
f 138/179/1 137/178/1 139/180/1 
f 139/180/1 140/181/1 138/179/1 
f 140/181/1 139/180/1 129/182/1 
f 129/182/1 127/183/1 140/181/1 
f 127/183/1 129/182/1 122/162/1 
f 122/162/1 121/161/1 127/183/1 
f 141/184/1 142/185/1 143/186/1 
f 143/186/1 144/187/1 141/184/1 
f 144/187/1 143/186/1 145/188/1 
f 145/188/1 146/189/1 144/187/1 
f 146/189/1 145/188/1 147/190/1 
f 147/190/1 148/191/1 146/189/1 
f 148/191/1 147/190/1 149/192/1 
f 149/192/1 150/193/1 148/191/1 
f 150/193/1 149/192/1 124/164/1 
f 124/164/1 123/163/1 150/193/1 
s off
f 142/194/2 11/195/2 151/196/2 
f 151/196/2 143/197/2 142/194/2 
f 143/197/2 151/196/2 152/198/2 
f 152/198/2 145/199/2 143/197/2 
f 145/199/2 152/198/2 153/200/2 
f 153/200/2 147/201/2 145/199/2 
f 147/201/2 153/200/2 154/202/2 
f 154/202/2 149/203/2 147/201/2 
f 149/203/2 154/202/2 155/204/2 
f 155/204/2 124/205/2 149/203/2 
f 124/205/2 155/204/2 125/166/2 
f 125/166/2 121/165/2 124/205/2 
f 22/206/2 131/207/2 134/208/2 
f 134/208/2 156/209/2 22/206/2 
f 156/209/2 134/208/2 136/210/2 
f 136/210/2 157/211/2 156/209/2 
f 157/211/2 136/210/2 138/66/2 
f 138/66/2 158/212/2 157/211/2 
f 158/212/2 138/66/2 140/213/2 
f 140/213/2 159/214/2 158/212/2 
f 159/214/2 140/213/2 127/90/2 
f 127/90/2 126/167/2 159/214/2 
f 160/215/6 141/216/6 144/217/6 
f 144/217/6 161/218/6 160/215/6 
f 161/218/6 144/217/6 146/219/6 
f 146/219/6 162/220/6 161/218/6 
f 162/220/6 146/219/6 148/221/6 
f 148/221/6 163/222/6 162/220/6 
f 163/222/6 148/221/6 150/223/6 
f 150/223/6 164/224/6 163/222/6 
f 164/224/6 150/223/6 123/225/6 
f 123/225/6 165/226/6 164/224/6 
f 165/226/6 123/225/6 122/169/6 
f 122/169/6 128/168/6 165/226/6 
f 132/227/6 166/228/6 167/229/6 
f 167/229/6 133/230/6 132/227/6 
f 133/230/6 167/229/6 168/231/6 
f 168/231/6 135/232/6 133/230/6 
f 135/232/6 168/231/6 169/233/6 
f 169/233/6 137/234/6 135/232/6 
f 137/234/6 169/233/6 170/235/6 
f 170/235/6 139/236/6 137/234/6 
f 139/236/6 170/235/6 130/171/6 
f 130/171/6 129/170/6 139/236/6 
s 1
f 171/237/1 172/238/1 173/239/1 
f 173/239/1 174/240/1 171/237/1 
s off
f 172/165/3 175/166/3 176/204/3 
f 176/204/3 173/205/3 172/165/3 
f 171/169/7 177/241/7 178/242/7 
f 178/242/7 179/170/7 171/169/7 
s 1
f 180/243/1 181/244/1 182/245/1 
f 182/245/1 183/246/1 180/243/1 
f 183/246/1 182/245/1 184/247/1 
f 184/247/1 185/248/1 183/246/1 
f 185/248/1 184/247/1 186/249/1 
f 186/249/1 187/250/1 185/248/1 
f 187/250/1 186/249/1 188/251/1 
f 188/251/1 189/252/1 187/250/1 
f 189/252/1 188/251/1 190/253/1 
f 190/253/1 179/254/1 189/252/1 
f 179/254/1 190/253/1 172/238/1 
f 172/238/1 171/237/1 179/254/1 
f 191/255/1 192/216/1 193/256/1 
f 193/256/1 194/257/1 191/255/1 
f 194/257/1 193/256/1 195/258/1 
f 195/258/1 196/259/1 194/257/1 
f 196/259/1 195/258/1 197/260/1 
f 197/260/1 198/261/1 196/259/1 
f 198/261/1 197/260/1 199/262/1 
f 199/262/1 200/263/1 198/261/1 
f 200/263/1 199/262/1 174/240/1 
f 174/240/1 173/239/1 200/263/1 
s off
f 181/207/3 19/206/3 201/209/3 
f 201/209/3 182/208/3 181/207/3 
f 182/208/3 201/209/3 202/211/3 
f 202/211/3 184/210/3 182/208/3 
f 184/210/3 202/211/3 203/212/3 
f 203/212/3 186/66/3 184/210/3 
f 186/66/3 203/212/3 204/214/3 
f 204/214/3 188/213/3 186/66/3 
f 188/213/3 204/214/3 205/167/3 
f 205/167/3 190/90/3 188/213/3 
f 190/90/3 205/167/3 175/166/3 
f 175/166/3 172/165/3 190/90/3 
f 4/195/3 191/194/3 194/197/3 
f 194/197/3 206/196/3 4/195/3 
f 206/196/3 194/197/3 196/199/3 
f 196/199/3 207/198/3 206/196/3 
f 207/198/3 196/199/3 198/201/3 
f 198/201/3 208/200/3 207/198/3 
f 208/200/3 198/201/3 200/203/3 
f 200/203/3 209/202/3 208/200/3 
f 209/202/3 200/203/3 173/205/3 
f 173/205/3 176/204/3 209/202/3 
f 192/216/7 210/243/7 211/264/7 
f 211/264/7 193/217/7 192/216/7 
f 193/217/7 211/264/7 212/265/7 
f 212/265/7 195/219/7 193/217/7 
f 195/219/7 212/265/7 213/266/7 
f 213/266/7 197/221/7 195/219/7 
f 197/221/7 213/266/7 214/267/7 
f 214/267/7 199/223/7 197/221/7 
f 199/223/7 214/267/7 215/268/7 
f 215/268/7 174/225/7 199/223/7 
f 174/225/7 215/268/7 177/241/7 
f 177/241/7 171/169/7 174/225/7 
f 216/269/7 180/227/7 183/230/7 
f 183/230/7 217/270/7 216/269/7 
f 217/270/7 183/230/7 185/232/7 
f 185/232/7 218/271/7 217/270/7 
f 218/271/7 185/232/7 187/234/7 
f 187/234/7 219/272/7 218/271/7 
f 219/272/7 187/234/7 189/236/7 
f 189/236/7 220/273/7 219/272/7 
f 220/273/7 189/236/7 179/170/7 
f 179/170/7 178/242/7 220/273/7 
# 338 faces

