# 3ds Max Wavefront OBJ Exporter v0.97b - (c)2007 guruware
# File Created: 19.01.2017 19:22:20

#
# object Slope
#

v  -16.0000 0.0000 -0.0000
v  -10.0000 0.0000 -0.0000
v  -10.0000 0.0000 -5.3333
v  -16.0000 0.0000 -5.3333
v  -4.0000 0.0000 -0.0000
v  -2.0000 0.0000 -0.0000
v  -2.0000 0.0000 -5.3333
v  -4.0000 0.0000 -5.3333
v  -2.0000 -0.3000 -0.0000
v  10.0000 -0.3000 -0.0000
v  10.0000 -0.3000 -5.3333
v  -2.0000 -0.3000 -5.3333
v  10.0000 0.0000 -0.0000
v  16.0000 0.0000 -0.0000
v  16.0000 0.0000 -5.3333
v  10.0000 0.0000 -5.3333
v  -10.0000 -0.3000 -0.0000
v  -10.0000 -0.3000 -5.3333
v  -4.0000 -0.3000 -0.0000
v  -4.0000 -0.3000 5.3333
v  -4.0000 0.0000 5.3333
v  10.0000 -0.3000 5.3333
v  10.0000 0.0000 5.3333
v  -2.0000 0.0000 32.0000
v  -4.0000 0.0000 32.0000
v  -4.0000 -0.3000 32.0000
v  -2.0000 -0.3000 32.0000
v  -4.0000 0.0000 -32.0000
v  -2.0000 0.0000 -32.0000
v  -2.0000 -0.3000 -32.0000
v  -4.0000 -0.3000 -32.0000
v  -10.0000 -0.3000 5.3333
v  -16.0000 0.0000 32.0000
v  -10.0000 0.0000 32.0000
v  -10.0000 0.0000 26.6667
v  -16.0000 0.0000 26.6667
v  -10.0000 0.0000 21.3333
v  -16.0000 0.0000 21.3333
v  -10.0000 0.0000 16.0000
v  -16.0000 0.0000 16.0000
v  -10.0000 0.0000 10.6667
v  -16.0000 0.0000 10.6667
v  -10.0000 0.0000 5.3333
v  -16.0000 0.0000 5.3333
v  -10.0000 0.0000 -32.0000
v  -16.0000 0.0000 -32.0000
v  -16.0000 0.0000 -26.6667
v  -10.0000 0.0000 -26.6667
v  -16.0000 0.0000 -21.3333
v  -10.0000 0.0000 -21.3333
v  -16.0000 0.0000 -16.0000
v  -10.0000 0.0000 -16.0000
v  -16.0000 0.0000 -10.6667
v  -10.0000 0.0000 -10.6667
v  -2.0000 0.0000 26.6667
v  -4.0000 0.0000 26.6667
v  -2.0000 0.0000 21.3333
v  -4.0000 0.0000 21.3333
v  -2.0000 0.0000 16.0000
v  -4.0000 0.0000 16.0000
v  -2.0000 0.0000 10.6667
v  -4.0000 0.0000 10.6667
v  -2.0000 0.0000 5.3333
v  -4.0000 0.0000 -26.6667
v  -2.0000 0.0000 -26.6667
v  -4.0000 0.0000 -21.3333
v  -2.0000 0.0000 -21.3333
v  -4.0000 0.0000 -16.0000
v  -2.0000 0.0000 -16.0000
v  -4.0000 0.0000 -10.6667
v  -2.0000 0.0000 -10.6667
v  10.0000 -0.3000 32.0000
v  10.0000 -0.3000 26.6667
v  -2.0000 -0.3000 26.6667
v  10.0000 -0.3000 21.3333
v  -2.0000 -0.3000 21.3333
v  10.0000 -0.3000 16.0000
v  -2.0000 -0.3000 16.0000
v  10.0000 -0.3000 10.6667
v  -2.0000 -0.3000 10.6667
v  -2.0000 -0.3000 5.3333
v  10.0000 -0.3000 -32.0000
v  -2.0000 -0.3000 -26.6667
v  10.0000 -0.3000 -26.6667
v  -2.0000 -0.3000 -21.3333
v  10.0000 -0.3000 -21.3333
v  -2.0000 -0.3000 -16.0000
v  10.0000 -0.3000 -16.0000
v  -2.0000 -0.3000 -10.6667
v  10.0000 -0.3000 -10.6667
v  10.0000 0.0000 32.0000
v  16.0000 0.0000 32.0000
v  16.0000 0.0000 26.6667
v  10.0000 0.0000 26.6667
v  16.0000 0.0000 21.3333
v  10.0000 0.0000 21.3333
v  16.0000 0.0000 16.0000
v  10.0000 0.0000 16.0000
v  16.0000 0.0000 10.6667
v  10.0000 0.0000 10.6667
v  16.0000 0.0000 5.3333
v  16.0000 0.0000 -32.0000
v  10.0000 0.0000 -32.0000
v  10.0000 0.0000 -26.6667
v  16.0000 0.0000 -26.6667
v  10.0000 0.0000 -21.3333
v  16.0000 0.0000 -21.3333
v  10.0000 0.0000 -16.0000
v  16.0000 0.0000 -16.0000
v  10.0000 0.0000 -10.6667
v  16.0000 0.0000 -10.6667
v  -10.0000 -0.3000 32.0000
v  -10.0000 -0.3000 26.6667
v  -10.0000 -0.3000 21.3333
v  -10.0000 -0.3000 16.0000
v  -10.0000 -0.3000 10.6667
v  -10.0000 -0.3000 -32.0000
v  -10.0000 -0.3000 -26.6667
v  -10.0000 -0.3000 -21.3333
v  -10.0000 -0.3000 -16.0000
v  -10.0000 -0.3000 -10.6667
v  -4.0000 -0.3000 -26.6667
v  -4.0000 -0.3000 -21.3333
v  -4.0000 -0.3000 -16.0000
v  -4.0000 -0.3000 -10.6667
v  -4.0000 -0.3000 -5.3333
v  -4.0000 -0.3000 26.6667
v  -4.0000 -0.3000 21.3333
v  -4.0000 -0.3000 16.0000
v  -4.0000 -0.3000 10.6667
v  -2.8667 1.0000 -0.0000
v  -3.1333 1.0000 -0.0000
v  -3.1333 1.0000 5.3333
v  -2.8667 1.0000 5.3333
v  -2.7667 0.0000 -0.0000
v  -2.7667 0.0000 5.3333
v  -3.2333 0.0000 -0.0000
v  -3.1333 1.0000 -5.3333
v  -3.2333 0.0000 -5.3333
v  -3.1333 1.0000 32.0000
v  -3.2333 0.0000 32.0000
v  -2.7667 0.0000 32.0000
v  -2.8667 1.0000 32.0000
v  -2.8667 1.0000 -32.0000
v  -3.1333 1.0000 -32.0000
v  -3.1333 1.0000 -26.6667
v  -2.8667 1.0000 -26.6667
v  -3.1333 1.0000 -21.3333
v  -2.8667 1.0000 -21.3333
v  -3.1333 1.0000 -16.0000
v  -2.8667 1.0000 -16.0000
v  -3.1333 1.0000 -10.6667
v  -2.8667 1.0000 -10.6667
v  -2.8667 1.0000 -5.3333
v  -2.8667 1.0000 26.6667
v  -3.1333 1.0000 26.6667
v  -2.8667 1.0000 21.3333
v  -3.1333 1.0000 21.3333
v  -2.8667 1.0000 16.0000
v  -3.1333 1.0000 16.0000
v  -2.8667 1.0000 10.6667
v  -3.1333 1.0000 10.6667
v  -2.7667 0.0000 -32.0000
v  -2.7667 0.0000 -26.6667
v  -2.7667 0.0000 -21.3333
v  -2.7667 0.0000 -16.0000
v  -2.7667 0.0000 -10.6667
v  -2.7667 0.0000 -5.3333
v  -2.7667 0.0000 26.6667
v  -2.7667 0.0000 21.3333
v  -2.7667 0.0000 16.0000
v  -2.7667 0.0000 10.6667
v  -3.2333 0.0000 26.6667
v  -3.2333 0.0000 21.3333
v  -3.2333 0.0000 16.0000
v  -3.2333 0.0000 10.6667
v  -3.2333 0.0000 5.3333
v  -3.2333 0.0000 -32.0000
v  -3.2333 0.0000 -26.6667
v  -3.2333 0.0000 -21.3333
v  -3.2333 0.0000 -16.0000
v  -3.2333 0.0000 -10.6667
# 182 vertices

vn 0.0000 1.0000 -0.0000
vn 1.0000 0.0000 -0.0000
vn -1.0000 0.0000 -0.0000
vn 0.0000 0.0000 1.0000
vn 0.0000 0.0000 -1.0000
vn 0.9950 0.0995 -0.0000
vn -0.9950 0.0995 -0.0000
# 7 vertex normals

vt 0.0000 0.5000 0.0000
vt 0.1253 0.5000 0.0000
vt 0.1253 0.5833 0.0000
vt 0.0000 0.5833 0.0000
vt 0.6273 0.5000 0.0000
vt 0.5635 0.5000 0.0000
vt 0.5635 0.5833 0.0000
vt 0.6273 0.5833 0.0000
vt 0.1961 0.5000 0.0000
vt 0.1961 0.5833 0.0000
vt 0.8770 0.5000 0.0000
vt 1.0000 0.5000 0.0000
vt 1.0000 0.5833 0.0000
vt 0.8770 0.5833 0.0000
vt 0.5897 1.0000 0.0000
vt 0.5897 0.0000 0.0000
vt 0.5911 0.0000 0.0000
vt 0.5911 1.0000 0.0000
vt 0.5882 0.0000 0.0000
vt 0.5882 1.0000 0.0000
vt 0.5669 1.0000 0.0000
vt 0.6221 1.0000 0.0000
vt 0.6221 0.0000 0.0000
vt 0.5669 0.0000 0.0000
vt 0.8135 0.5000 0.0000
vt 0.8135 0.4167 0.0000
vt 0.6273 0.4167 0.0000
vt 0.0000 0.0000 0.0000
vt 0.1253 0.0000 0.0000
vt 0.1253 0.0833 0.0000
vt 0.0000 0.0833 0.0000
vt 0.1253 0.1667 0.0000
vt 0.0000 0.1667 0.0000
vt 0.1253 0.2500 0.0000
vt 0.0000 0.2500 0.0000
vt 0.1253 0.3333 0.0000
vt 0.0000 0.3333 0.0000
vt 0.1253 0.4167 0.0000
vt 0.0000 0.4167 0.0000
vt 0.1253 1.0000 0.0000
vt 0.0000 1.0000 0.0000
vt 0.0000 0.9167 0.0000
vt 0.1253 0.9167 0.0000
vt 0.0000 0.8333 0.0000
vt 0.1253 0.8333 0.0000
vt 0.0000 0.7500 0.0000
vt 0.1253 0.7500 0.0000
vt 0.0000 0.6667 0.0000
vt 0.1253 0.6667 0.0000
vt 0.6273 0.0000 0.0000
vt 0.5635 0.0000 0.0000
vt 0.5635 0.0833 0.0000
vt 0.6273 0.0833 0.0000
vt 0.5635 0.1667 0.0000
vt 0.6273 0.1667 0.0000
vt 0.5635 0.2500 0.0000
vt 0.6273 0.2500 0.0000
vt 0.5635 0.3333 0.0000
vt 0.6273 0.3333 0.0000
vt 0.5635 0.4167 0.0000
vt 0.5635 1.0000 0.0000
vt 0.6273 1.0000 0.0000
vt 0.6273 0.9167 0.0000
vt 0.5635 0.9167 0.0000
vt 0.6273 0.8333 0.0000
vt 0.5635 0.8333 0.0000
vt 0.6273 0.7500 0.0000
vt 0.5635 0.7500 0.0000
vt 0.6273 0.6667 0.0000
vt 0.5635 0.6667 0.0000
vt 0.1961 0.0000 0.0000
vt 0.1961 0.0833 0.0000
vt 0.1961 0.1667 0.0000
vt 0.1961 0.2500 0.0000
vt 0.1961 0.3333 0.0000
vt 0.1961 0.4167 0.0000
vt 0.1961 1.0000 0.0000
vt 0.1961 0.9167 0.0000
vt 0.1961 0.8333 0.0000
vt 0.1961 0.7500 0.0000
vt 0.1961 0.6667 0.0000
vt 0.8770 0.0000 0.0000
vt 1.0000 0.0000 0.0000
vt 1.0000 0.0833 0.0000
vt 0.8770 0.0833 0.0000
vt 1.0000 0.1667 0.0000
vt 0.8770 0.1667 0.0000
vt 1.0000 0.2500 0.0000
vt 0.8770 0.2500 0.0000
vt 1.0000 0.3333 0.0000
vt 0.8770 0.3333 0.0000
vt 1.0000 0.4167 0.0000
vt 0.8770 0.4167 0.0000
vt 1.0000 1.0000 0.0000
vt 0.8770 1.0000 0.0000
vt 0.8770 0.9167 0.0000
vt 1.0000 0.9167 0.0000
vt 0.8770 0.8333 0.0000
vt 1.0000 0.8333 0.0000
vt 0.8770 0.7500 0.0000
vt 1.0000 0.7500 0.0000
vt 0.8770 0.6667 0.0000
vt 1.0000 0.6667 0.0000
vt 0.5812 1.0000 0.0000
vt 0.5812 0.0000 0.0000
vt 0.5826 0.0000 0.0000
vt 0.5826 1.0000 0.0000
vt 0.5840 0.0000 0.0000
vt 0.5840 1.0000 0.0000
vt 0.5854 0.0000 0.0000
vt 0.5854 1.0000 0.0000
vt 0.5869 0.0000 0.0000
vt 0.5869 1.0000 0.0000
vt 0.5981 0.0000 0.0000
vt 0.5981 1.0000 0.0000
vt 0.5968 1.0000 0.0000
vt 0.5968 0.0000 0.0000
vt 0.5953 1.0000 0.0000
vt 0.5953 0.0000 0.0000
vt 0.5939 1.0000 0.0000
vt 0.5939 0.0000 0.0000
vt 0.5925 1.0000 0.0000
vt 0.5925 0.0000 0.0000
vt 0.8135 1.0000 0.0000
vt 0.8135 0.9167 0.0000
vt 0.8135 0.8333 0.0000
vt 0.8135 0.7500 0.0000
vt 0.8135 0.6667 0.0000
vt 0.8135 0.5833 0.0000
vt 0.8135 0.0000 0.0000
vt 0.8135 0.0833 0.0000
vt 0.8135 0.1667 0.0000
vt 0.8135 0.2500 0.0000
vt 0.8135 0.3333 0.0000
vt 0.5796 0.5000 0.0000
vt 0.6079 0.5000 0.0000
vt 0.6079 0.4167 0.0000
vt 0.5796 0.4167 0.0000
vt 0.0047 0.5000 0.0000
vt 0.0804 0.4998 0.0000
vt 0.0804 0.5830 0.0000
vt 0.0048 0.5833 0.0000
vt 0.0810 0.5043 0.0000
vt 0.0019 0.5213 0.0000
vt 0.0019 0.4422 0.0000
vt 0.0810 0.4591 0.0000
vt 0.5796 1.0000 0.0000
vt 0.6079 1.0000 0.0000
vt 0.6079 0.9167 0.0000
vt 0.5796 0.9167 0.0000
vt 0.6079 0.8333 0.0000
vt 0.5796 0.8333 0.0000
vt 0.6079 0.7500 0.0000
vt 0.5796 0.7500 0.0000
vt 0.6079 0.6667 0.0000
vt 0.5796 0.6667 0.0000
vt 0.6079 0.5833 0.0000
vt 0.5796 0.5833 0.0000
vt 0.6079 0.0000 0.0000
vt 0.5796 0.0000 0.0000
vt 0.5796 0.0833 0.0000
vt 0.6079 0.0833 0.0000
vt 0.5796 0.1667 0.0000
vt 0.6079 0.1667 0.0000
vt 0.5796 0.2500 0.0000
vt 0.6079 0.2500 0.0000
vt 0.5796 0.3333 0.0000
vt 0.6079 0.3333 0.0000
vt 0.0037 0.0004 0.0000
vt 0.0804 0.0005 0.0000
vt 0.0804 0.0837 0.0000
vt 0.0039 0.0836 0.0000
vt 0.0804 0.1669 0.0000
vt 0.0040 0.1669 0.0000
vt 0.0804 0.2501 0.0000
vt 0.0042 0.2502 0.0000
vt 0.0804 0.3333 0.0000
vt 0.0043 0.3335 0.0000
vt 0.0804 0.4166 0.0000
vt 0.0045 0.4167 0.0000
vt 0.0803 0.9990 0.0000
vt 0.0056 0.9996 0.0000
vt 0.0054 0.9163 0.0000
vt 0.0803 0.9158 0.0000
vt 0.0053 0.8331 0.0000
vt 0.0803 0.8326 0.0000
vt 0.0051 0.7498 0.0000
vt 0.0804 0.7494 0.0000
vt 0.0050 0.6665 0.0000
vt 0.0804 0.6662 0.0000
# 190 texture coords

g Slope
s 1
f 1/1/1 2/2/1 3/3/1 
f 3/3/1 4/4/1 1/1/1 
f 5/5/1 6/6/1 7/7/1 
f 7/7/1 8/8/1 5/5/1 
f 9/6/1 10/9/1 11/10/1 
f 11/10/1 12/7/1 9/6/1 
f 13/11/1 14/12/1 15/13/1 
f 15/13/1 16/14/1 13/11/1 
s off
f 2/15/2 17/16/2 18/17/2 
f 18/17/2 3/18/2 2/15/2 
f 5/15/3 19/16/3 20/19/3 
f 20/19/3 21/20/3 5/15/3 
f 6/15/2 9/16/2 12/17/2 
f 12/17/2 7/18/2 6/15/2 
f 13/15/3 10/16/3 22/19/3 
f 22/19/3 23/20/3 13/15/3 
f 24/21/4 25/22/4 26/23/4 
f 26/23/4 27/24/4 24/21/4 
f 28/22/5 29/21/5 30/24/5 
f 30/24/5 31/23/5 28/22/5 
s 1
f 19/5/1 17/25/1 32/26/1 
f 32/26/1 20/27/1 19/5/1 
f 33/28/1 34/29/1 35/30/1 
f 35/30/1 36/31/1 33/28/1 
f 36/31/1 35/30/1 37/32/1 
f 37/32/1 38/33/1 36/31/1 
f 38/33/1 37/32/1 39/34/1 
f 39/34/1 40/35/1 38/33/1 
f 40/35/1 39/34/1 41/36/1 
f 41/36/1 42/37/1 40/35/1 
f 42/37/1 41/36/1 43/38/1 
f 43/38/1 44/39/1 42/37/1 
f 44/39/1 43/38/1 2/2/1 
f 2/2/1 1/1/1 44/39/1 
f 45/40/1 46/41/1 47/42/1 
f 47/42/1 48/43/1 45/40/1 
f 48/43/1 47/42/1 49/44/1 
f 49/44/1 50/45/1 48/43/1 
f 50/45/1 49/44/1 51/46/1 
f 51/46/1 52/47/1 50/45/1 
f 52/47/1 51/46/1 53/48/1 
f 53/48/1 54/49/1 52/47/1 
f 54/49/1 53/48/1 4/4/1 
f 4/4/1 3/3/1 54/49/1 
f 25/50/1 24/51/1 55/52/1 
f 55/52/1 56/53/1 25/50/1 
f 56/53/1 55/52/1 57/54/1 
f 57/54/1 58/55/1 56/53/1 
f 58/55/1 57/54/1 59/56/1 
f 59/56/1 60/57/1 58/55/1 
f 60/57/1 59/56/1 61/58/1 
f 61/58/1 62/59/1 60/57/1 
f 62/59/1 61/58/1 63/60/1 
f 63/60/1 21/27/1 62/59/1 
f 21/27/1 63/60/1 6/6/1 
f 6/6/1 5/5/1 21/27/1 
f 29/61/1 28/62/1 64/63/1 
f 64/63/1 65/64/1 29/61/1 
f 65/64/1 64/63/1 66/65/1 
f 66/65/1 67/66/1 65/64/1 
f 67/66/1 66/65/1 68/67/1 
f 68/67/1 69/68/1 67/66/1 
f 69/68/1 68/67/1 70/69/1 
f 70/69/1 71/70/1 69/68/1 
f 71/70/1 70/69/1 8/8/1 
f 8/8/1 7/7/1 71/70/1 
f 27/51/1 72/71/1 73/72/1 
f 73/72/1 74/52/1 27/51/1 
f 74/52/1 73/72/1 75/73/1 
f 75/73/1 76/54/1 74/52/1 
f 76/54/1 75/73/1 77/74/1 
f 77/74/1 78/56/1 76/54/1 
f 78/56/1 77/74/1 79/75/1 
f 79/75/1 80/58/1 78/56/1 
f 80/58/1 79/75/1 22/76/1 
f 22/76/1 81/60/1 80/58/1 
f 81/60/1 22/76/1 10/9/1 
f 10/9/1 9/6/1 81/60/1 
f 82/77/1 30/61/1 83/64/1 
f 83/64/1 84/78/1 82/77/1 
f 84/78/1 83/64/1 85/66/1 
f 85/66/1 86/79/1 84/78/1 
f 86/79/1 85/66/1 87/68/1 
f 87/68/1 88/80/1 86/79/1 
f 88/80/1 87/68/1 89/70/1 
f 89/70/1 90/81/1 88/80/1 
f 90/81/1 89/70/1 12/7/1 
f 12/7/1 11/10/1 90/81/1 
f 91/82/1 92/83/1 93/84/1 
f 93/84/1 94/85/1 91/82/1 
f 94/85/1 93/84/1 95/86/1 
f 95/86/1 96/87/1 94/85/1 
f 96/87/1 95/86/1 97/88/1 
f 97/88/1 98/89/1 96/87/1 
f 98/89/1 97/88/1 99/90/1 
f 99/90/1 100/91/1 98/89/1 
f 100/91/1 99/90/1 101/92/1 
f 101/92/1 23/93/1 100/91/1 
f 23/93/1 101/92/1 14/12/1 
f 14/12/1 13/11/1 23/93/1 
f 102/94/1 103/95/1 104/96/1 
f 104/96/1 105/97/1 102/94/1 
f 105/97/1 104/96/1 106/98/1 
f 106/98/1 107/99/1 105/97/1 
f 107/99/1 106/98/1 108/100/1 
f 108/100/1 109/101/1 107/99/1 
f 109/101/1 108/100/1 110/102/1 
f 110/102/1 111/103/1 109/101/1 
f 111/103/1 110/102/1 16/14/1 
f 16/14/1 15/13/1 111/103/1 
s off
f 34/104/2 112/105/2 113/106/2 
f 113/106/2 35/107/2 34/104/2 
f 35/107/2 113/106/2 114/108/2 
f 114/108/2 37/109/2 35/107/2 
f 37/109/2 114/108/2 115/110/2 
f 115/110/2 39/111/2 37/109/2 
f 39/111/2 115/110/2 116/112/2 
f 116/112/2 41/113/2 39/111/2 
f 41/113/2 116/112/2 32/19/2 
f 32/19/2 43/20/2 41/113/2 
f 43/20/2 32/19/2 17/16/2 
f 17/16/2 2/15/2 43/20/2 
f 117/114/2 45/115/2 48/116/2 
f 48/116/2 118/117/2 117/114/2 
f 118/117/2 48/116/2 50/118/2 
f 50/118/2 119/119/2 118/117/2 
f 119/119/2 50/118/2 52/120/2 
f 52/120/2 120/121/2 119/119/2 
f 120/121/2 52/120/2 54/122/2 
f 54/122/2 121/123/2 120/121/2 
f 121/123/2 54/122/2 3/18/2 
f 3/18/2 18/17/2 121/123/2 
f 28/115/3 31/114/3 122/117/3 
f 122/117/3 64/116/3 28/115/3 
f 64/116/3 122/117/3 123/119/3 
f 123/119/3 66/118/3 64/116/3 
f 66/118/3 123/119/3 124/121/3 
f 124/121/3 68/120/3 66/118/3 
f 68/120/3 124/121/3 125/123/3 
f 125/123/3 70/122/3 68/120/3 
f 70/122/3 125/123/3 126/17/3 
f 126/17/3 8/18/3 70/122/3 
f 8/18/3 126/17/3 19/16/3 
f 19/16/3 5/15/3 8/18/3 
f 26/105/3 25/104/3 56/107/3 
f 56/107/3 127/106/3 26/105/3 
f 127/106/3 56/107/3 58/109/3 
f 58/109/3 128/108/3 127/106/3 
f 128/108/3 58/109/3 60/111/3 
f 60/111/3 129/110/3 128/108/3 
f 129/110/3 60/111/3 62/113/3 
f 62/113/3 130/112/3 129/110/3 
f 130/112/3 62/113/3 21/20/3 
f 21/20/3 20/19/3 130/112/3 
f 24/104/2 27/105/2 74/106/2 
f 74/106/2 55/107/2 24/104/2 
f 55/107/2 74/106/2 76/108/2 
f 76/108/2 57/109/2 55/107/2 
f 57/109/2 76/108/2 78/110/2 
f 78/110/2 59/111/2 57/109/2 
f 59/111/2 78/110/2 80/112/2 
f 80/112/2 61/113/2 59/111/2 
f 61/113/2 80/112/2 81/19/2 
f 81/19/2 63/20/2 61/113/2 
f 63/20/2 81/19/2 9/16/2 
f 9/16/2 6/15/2 63/20/2 
f 30/114/2 29/115/2 65/116/2 
f 65/116/2 83/117/2 30/114/2 
f 83/117/2 65/116/2 67/118/2 
f 67/118/2 85/119/2 83/117/2 
f 85/119/2 67/118/2 69/120/2 
f 69/120/2 87/121/2 85/119/2 
f 87/121/2 69/120/2 71/122/2 
f 71/122/2 89/123/2 87/121/2 
f 89/123/2 71/122/2 7/18/2 
f 7/18/2 12/17/2 89/123/2 
f 103/115/3 82/114/3 84/117/3 
f 84/117/3 104/116/3 103/115/3 
f 104/116/3 84/117/3 86/119/3 
f 86/119/3 106/118/3 104/116/3 
f 106/118/3 86/119/3 88/121/3 
f 88/121/3 108/120/3 106/118/3 
f 108/120/3 88/121/3 90/123/3 
f 90/123/3 110/122/3 108/120/3 
f 110/122/3 90/123/3 11/17/3 
f 11/17/3 16/18/3 110/122/3 
f 16/18/3 11/17/3 10/16/3 
f 10/16/3 13/15/3 16/18/3 
f 72/105/3 91/104/3 94/107/3 
f 94/107/3 73/106/3 72/105/3 
f 73/106/3 94/107/3 96/109/3 
f 96/109/3 75/108/3 73/106/3 
f 75/108/3 96/109/3 98/111/3 
f 98/111/3 77/110/3 75/108/3 
f 77/110/3 98/111/3 100/113/3 
f 100/113/3 79/112/3 77/110/3 
f 79/112/3 100/113/3 23/20/3 
f 23/20/3 22/19/3 79/112/3 
s 1
f 31/62/1 117/124/1 118/125/1 
f 118/125/1 122/63/1 31/62/1 
f 122/63/1 118/125/1 119/126/1 
f 119/126/1 123/65/1 122/63/1 
f 123/65/1 119/126/1 120/127/1 
f 120/127/1 124/67/1 123/65/1 
f 124/67/1 120/127/1 121/128/1 
f 121/128/1 125/69/1 124/67/1 
f 125/69/1 121/128/1 18/129/1 
f 18/129/1 126/8/1 125/69/1 
f 126/8/1 18/129/1 17/25/1 
f 17/25/1 19/5/1 126/8/1 
f 112/130/1 26/50/1 127/53/1 
f 127/53/1 113/131/1 112/130/1 
f 113/131/1 127/53/1 128/55/1 
f 128/55/1 114/132/1 113/131/1 
f 114/132/1 128/55/1 129/57/1 
f 129/57/1 115/133/1 114/132/1 
f 115/133/1 129/57/1 130/59/1 
f 130/59/1 116/134/1 115/133/1 
f 116/134/1 130/59/1 20/27/1 
f 20/27/1 32/26/1 116/134/1 
s 4
f 131/135/1 132/136/1 133/137/1 
f 133/137/1 134/138/1 131/135/1 
s 16
f 135/139/6 131/140/6 134/141/6 
f 134/141/6 136/142/6 135/139/6 
s 64
f 137/139/7 132/140/7 138/141/7 
f 138/141/7 139/142/7 137/139/7 
s off
f 140/143/4 141/144/4 142/145/4 
f 142/145/4 143/146/4 140/143/4 
s 4
f 144/147/1 145/148/1 146/149/1 
f 146/149/1 147/150/1 144/147/1 
f 147/150/1 146/149/1 148/151/1 
f 148/151/1 149/152/1 147/150/1 
f 149/152/1 148/151/1 150/153/1 
f 150/153/1 151/154/1 149/152/1 
f 151/154/1 150/153/1 152/155/1 
f 152/155/1 153/156/1 151/154/1 
f 153/156/1 152/155/1 138/157/1 
f 138/157/1 154/158/1 153/156/1 
f 154/158/1 138/157/1 132/136/1 
f 132/136/1 131/135/1 154/158/1 
f 140/159/1 143/160/1 155/161/1 
f 155/161/1 156/162/1 140/159/1 
f 156/162/1 155/161/1 157/163/1 
f 157/163/1 158/164/1 156/162/1 
f 158/164/1 157/163/1 159/165/1 
f 159/165/1 160/166/1 158/164/1 
f 160/166/1 159/165/1 161/167/1 
f 161/167/1 162/168/1 160/166/1 
f 162/168/1 161/167/1 134/138/1 
f 134/138/1 133/137/1 162/168/1 
s 16
f 163/169/6 144/170/6 147/171/6 
f 147/171/6 164/172/6 163/169/6 
f 164/172/6 147/171/6 149/173/6 
f 149/173/6 165/174/6 164/172/6 
f 165/174/6 149/173/6 151/175/6 
f 151/175/6 166/176/6 165/174/6 
f 166/176/6 151/175/6 153/177/6 
f 153/177/6 167/178/6 166/176/6 
f 167/178/6 153/177/6 154/179/6 
f 154/179/6 168/180/6 167/178/6 
f 168/180/6 154/179/6 131/140/6 
f 131/140/6 135/139/6 168/180/6 
f 143/181/6 142/182/6 169/183/6 
f 169/183/6 155/184/6 143/181/6 
f 155/184/6 169/183/6 170/185/6 
f 170/185/6 157/186/6 155/184/6 
f 157/186/6 170/185/6 171/187/6 
f 171/187/6 159/188/6 157/186/6 
f 159/188/6 171/187/6 172/189/6 
f 172/189/6 161/190/6 159/188/6 
f 161/190/6 172/189/6 136/142/6 
f 136/142/6 134/141/6 161/190/6 
s 64
f 141/169/7 140/170/7 156/171/7 
f 156/171/7 173/172/7 141/169/7 
f 173/172/7 156/171/7 158/173/7 
f 158/173/7 174/174/7 173/172/7 
f 174/174/7 158/173/7 160/175/7 
f 160/175/7 175/176/7 174/174/7 
f 175/176/7 160/175/7 162/177/7 
f 162/177/7 176/178/7 175/176/7 
f 176/178/7 162/177/7 133/179/7 
f 133/179/7 177/180/7 176/178/7 
f 177/180/7 133/179/7 132/140/7 
f 132/140/7 137/139/7 177/180/7 
f 145/181/7 178/182/7 179/183/7 
f 179/183/7 146/184/7 145/181/7 
f 146/184/7 179/183/7 180/185/7 
f 180/185/7 148/186/7 146/184/7 
f 148/186/7 180/185/7 181/187/7 
f 181/187/7 150/188/7 148/186/7 
f 150/188/7 181/187/7 182/189/7 
f 182/189/7 152/190/7 150/188/7 
f 152/190/7 182/189/7 139/142/7 
f 139/142/7 138/141/7 152/190/7 
s off
f 145/143/5 144/146/5 163/145/5 
f 163/145/5 178/144/5 145/143/5 
# 296 faces

