# 3ds Max Wavefront OBJ Exporter v0.97b - (c)2007 guruware
# File Created: 07.02.2018 23:14:05

#
# object Object004
#

v  -0.9993 -0.2458 -0.0000
v  -1.1793 -0.2458 0.0000
v  2.1563 -0.2458 -16.0000
v  -1.6870 -0.2458 -16.0000
v  -1.8670 -0.2458 -16.0000
v  2.5002 -0.2458 0.0000
v  2.6802 -0.2458 0.0000
v  2.3363 -0.2458 -16.0000
v  -0.4921 -0.2458 16.0000
v  -0.3121 -0.2458 16.0000
v  2.8441 -0.2458 16.0000
v  3.0241 -0.2458 16.0000
v  0.0000 -0.2458 32.0000
v  3.0000 -0.2458 32.0000
v  -2.0000 -0.2458 -32.0000
v  2.0000 -0.2458 -32.0000
v  7.9802 -0.2458 -16.0151
v  7.8002 -0.2458 -16.0179
v  8.0715 -0.2458 -32.0024
v  8.2515 -0.2458 -31.9996
v  7.3831 -0.2458 -0.0656
v  7.2031 -0.2458 -0.0684
v  6.6061 -0.2458 15.9179
v  6.7861 -0.2458 15.9207
v  6.3348 -0.2458 31.9986
v  6.5148 -0.2458 32.0014
v  -4.9697 -0.2458 -16.0145
v  -5.2874 -0.2458 -31.9995
v  -5.1074 -0.2458 -31.9995
v  -4.7897 -0.2458 -16.0145
v  -4.2711 -0.2458 -0.0630
v  -4.0911 -0.2458 -0.0630
v  -8.0311 -0.2458 -16.0145
v  -8.3189 -0.2458 -31.9995
v  -8.1389 -0.2458 -31.9995
v  -7.8511 -0.2458 -16.0145
v  -7.3994 -0.2458 -0.0628
v  -7.2194 -0.2458 -0.0628
v  -6.5855 -0.2458 15.9237
v  -6.7655 -0.2458 15.9237
v  -6.2925 -0.2458 32.0000
v  -6.4725 -0.2458 32.0000
v  -3.3932 -0.2458 15.9235
v  -3.5732 -0.2458 15.9235
v  -3.0777 -0.2458 32.0000
v  -3.2577 -0.2458 32.0000
v  -2.1800 -0.2458 -32.0000
v  2.1800 -0.2458 -32.0000
v  -0.1800 -0.2458 32.0000
v  3.1800 -0.2458 32.0000
# 50 vertices

vn -1.0000 0.0000 -0.0000
vn 0.0000 1.0000 0.0000
vn 0.0000 0.0000 1.0000
vn 0.0000 0.0000 -1.0000
vn 0.0000 1.0000 -0.0000
# 5 vertex normals

vt 0.4107 0.5000 0.0000
vt 0.5918 0.7500 0.0000
vt 0.4107 0.7500 0.0000
vt 0.5918 0.5000 0.0000
vt 0.4107 0.2500 0.0000
vt 0.5918 0.2500 0.0000
vt 0.0398 1.0000 0.0000
vt 0.2440 1.0000 0.0000
vt 0.0398 0.0000 0.0000
vt 0.2440 0.0000 0.0000
vt 0.1643 0.2501 0.0000
vt 0.1583 0.2500 0.0000
vt 0.1583 0.0001 0.0000
vt 0.1643 0.0001 0.0000
vt 0.1643 0.5001 0.0000
vt 0.1583 0.5000 0.0000
vt 0.1583 0.7500 0.0000
vt 0.1643 0.7500 0.0000
vt 0.1583 1.0000 0.0000
vt 0.1643 1.0000 0.0000
vt 0.1592 0.2500 0.0000
vt 0.1592 0.0000 0.0000
vt 0.1631 0.0000 0.0000
vt 0.1631 0.2500 0.0000
vt 0.1592 0.5000 0.0000
vt 0.1631 0.5000 0.0000
vt 0.1631 0.7500 0.0000
vt 0.1592 0.7500 0.0000
vt 0.1631 1.0000 0.0000
vt 0.1592 1.0000 0.0000
vt 0.5918 1.0000 0.0000
vt 0.4107 1.0000 0.0000
vt 0.4107 0.0000 0.0000
vt 0.5918 0.0000 0.0000
# 34 texture coords

g Object004
s off
f 3/2/2 2/1/2 1/1/2 1/1/1 
f 5/3/2 2/1/2 3/2/2 4/3/2 
f 4/3/2 4/3/2 3/2/2 3/2/2 
f 6/4/1 3/2/2 1/1/1 6/4/1 
f 8/2/2 3/2/2 6/4/1 7/4/1 
f 6/4/2 6/4/1 1/1/1 1/1/1 
f 10/5/2 6/4/2 1/1/1 9/5/2 
f 11/6/2 6/4/2 10/5/2 11/6/2 
f 7/4/2 6/4/2 11/6/2 12/6/2 
f 9/5/2 10/5/2 10/5/2 
f 9/5/2 1/1/1 2/1/1 
f 14/8/3 14/8/3 13/7/3 13/7/3 
f 16/10/4 16/10/4 15/9/4 15/9/4 
f 20/14/5 19/13/5 18/12/5 17/11/5 
f 17/11/5 18/12/5 22/16/5 21/15/5 
f 24/18/5 21/15/5 22/16/5 23/17/5 
f 26/20/5 24/18/5 23/17/5 25/19/5 
s 1
f 30/24/5 29/23/5 28/22/5 27/21/5 
f 32/26/5 30/24/5 27/21/5 31/25/5 
f 36/24/5 35/23/5 34/22/5 33/21/5 
f 38/26/5 36/24/5 33/21/5 37/25/5 
f 38/26/5 37/25/5 40/28/5 39/27/5 
f 39/27/5 40/28/5 42/30/5 41/29/5 
f 32/26/5 31/25/5 44/28/5 43/27/5 
f 43/27/5 44/28/5 46/30/5 45/29/5 
s off
f 16/31/5 5/3/5 4/3/5 4/3/5 
f 47/32/5 5/3/5 16/31/5 15/32/5 
f 3/2/5 16/31/5 4/3/5 3/2/5 
f 48/31/5 16/31/5 3/2/5 8/2/5 
f 16/31/5 16/31/5 15/32/5 15/32/5 
f 11/6/5 11/6/5 10/5/5 10/5/5 
f 13/33/5 11/6/5 10/5/5 49/33/5 
f 14/34/5 11/6/5 13/33/5 14/34/5 
f 12/6/5 11/6/5 14/34/5 50/34/5 
f 49/33/5 13/33/5 13/33/5 
f 49/33/5 10/5/5 9/5/5 
# 32 polygons - 4 triangles

