# 3ds Max Wavefront OBJ Exporter v0.97b - (c)2007 guruware
# File Created: 29.04.2016 07:18:44

#
# object Plane001
#

v  -3.0000 0.0500 -0.0000
v  3.0000 0.0500 -0.0000
v  3.0000 0.0500 -5.3333
v  -3.0000 0.0500 -5.3333
v  6.0000 -3.1150 -0.0000
v  3.0000 0.0500 5.3333
v  6.0000 -3.1150 5.3333
v  -6.0000 -3.1150 -0.0000
v  -6.0000 -3.1150 5.3333
v  -3.0000 0.0500 5.3333
v  -3.0000 0.0500 32.0000
v  3.0000 0.0500 32.0000
v  3.0000 0.0500 26.6667
v  -3.0000 0.0500 26.6667
v  3.0000 0.0500 21.3333
v  -3.0000 0.0500 21.3333
v  3.0000 0.0500 16.0000
v  -3.0000 0.0500 16.0000
v  3.0000 0.0500 10.6667
v  -3.0000 0.0500 10.6667
v  3.0000 0.0500 -32.0000
v  -3.0000 0.0500 -32.0000
v  -3.0000 0.0500 -26.6667
v  3.0000 0.0500 -26.6667
v  -3.0000 0.0500 -21.3333
v  3.0000 0.0500 -21.3333
v  -3.0000 0.0500 -16.0000
v  3.0000 0.0500 -16.0000
v  -3.0000 0.0500 -10.6667
v  3.0000 0.0500 -10.6667
v  6.0000 -3.1150 -32.0000
v  6.0000 -3.1150 -26.6667
v  6.0000 -3.1150 -21.3333
v  6.0000 -3.1150 -16.0000
v  6.0000 -3.1150 -10.6667
v  6.0000 -3.1150 -5.3333
v  6.0000 -3.1150 32.0000
v  6.0000 -3.1150 26.6667
v  6.0000 -3.1150 21.3333
v  6.0000 -3.1150 16.0000
v  6.0000 -3.1150 10.6667
v  -6.0000 -3.1150 -32.0000
v  -6.0000 -3.1150 -26.6667
v  -6.0000 -3.1150 -21.3333
v  -6.0000 -3.1150 -16.0000
v  -6.0000 -3.1150 -10.6667
v  -6.0000 -3.1150 -5.3333
v  -6.0000 -3.1150 32.0000
v  -6.0000 -3.1150 26.6667
v  -6.0000 -3.1150 21.3333
v  -6.0000 -3.1150 16.0000
v  -6.0000 -3.1150 10.6667
# 52 vertices

vn 0.0000 1.0000 -0.0000
vn 0.7258 0.6879 -0.0000
vn -0.7258 0.6879 -0.0000
vn 0.7258 0.6879 0.0000
vn -0.7258 0.6879 0.0000
# 5 vertex normals

vt 0.0000 0.5000 0.0000
vt 1.0000 0.5000 0.0000
vt 1.0000 0.5833 0.0000
vt 0.0000 0.5833 0.0000
vt 0.1572 1.0000 1.0000
vt 0.1572 0.5000 0.0000
vt 0.1572 0.4167 0.0000
vt 0.0000 0.4167 0.0000
vt 0.0000 0.0000 0.0000
vt 1.0000 0.0000 0.0000
vt 1.0000 0.0833 0.0000
vt 0.0000 0.0833 0.0000
vt 1.0000 0.1667 0.0000
vt 0.0000 0.1667 0.0000
vt 1.0000 0.2500 0.0000
vt 0.0000 0.2500 0.0000
vt 1.0000 0.3333 0.0000
vt 0.0000 0.3333 0.0000
vt 1.0000 0.4167 0.0000
vt 1.0000 1.0000 0.0000
vt 0.0000 1.0000 0.0000
vt 0.0000 0.9167 0.0000
vt 1.0000 0.9167 0.0000
vt 0.0000 0.8333 0.0000
vt 1.0000 0.8333 0.0000
vt 0.0000 0.7500 0.0000
vt 1.0000 0.7500 0.0000
vt 0.0000 0.6667 0.0000
vt 1.0000 0.6667 0.0000
vt 0.1572 1.0000 0.0000
vt 0.1572 0.9167 0.0000
vt 0.1572 0.8333 0.0000
vt 0.1572 0.7500 0.0000
vt 0.1572 0.6667 0.0000
vt 0.1572 0.5833 0.0000
vt 0.1572 0.0000 0.0000
vt 0.1572 0.0833 0.0000
vt 0.1572 0.1667 0.0000
vt 0.1572 0.2500 0.0000
vt 0.1572 0.3333 0.0000
# 40 texture coords

g Plane001
s 1
f 1/1/1 2/2/1 3/3/1 
f 3/3/1 4/4/1 1/1/1 
s off
f 5/5/2 2/6/2 6/7/2 
f 6/7/2 7/5/2 5/5/2 
f 1/1/3 8/5/3 9/5/3 
f 9/5/3 10/8/3 1/1/3 
s 1
f 11/9/1 12/10/1 13/11/1 
f 13/11/1 14/12/1 11/9/1 
f 14/12/1 13/11/1 15/13/1 
f 15/13/1 16/14/1 14/12/1 
f 16/14/1 15/13/1 17/15/1 
f 17/15/1 18/16/1 16/14/1 
f 18/16/1 17/15/1 19/17/1 
f 19/17/1 20/18/1 18/16/1 
f 20/18/1 19/17/1 6/19/1 
f 6/19/1 10/8/1 20/18/1 
f 10/8/1 6/19/1 2/2/1 
f 2/2/1 1/1/1 10/8/1 
f 21/20/1 22/21/1 23/22/1 
f 23/22/1 24/23/1 21/20/1 
f 24/23/1 23/22/1 25/24/1 
f 25/24/1 26/25/1 24/23/1 
f 26/25/1 25/24/1 27/26/1 
f 27/26/1 28/27/1 26/25/1 
f 28/27/1 27/26/1 29/28/1 
f 29/28/1 30/29/1 28/27/1 
f 30/29/1 29/28/1 4/4/1 
f 4/4/1 3/3/1 30/29/1 
s off
f 31/5/2 21/30/2 24/31/2 
f 24/31/2 32/5/2 31/5/2 
f 32/5/2 24/31/2 26/32/2 
f 26/32/4 33/5/4 32/5/4 
f 33/5/2 26/32/2 28/33/2 
f 28/33/2 34/5/2 33/5/2 
f 34/5/2 28/33/2 30/34/2 
f 30/34/4 35/5/4 34/5/4 
f 35/5/2 30/34/2 3/35/2 
f 3/35/2 36/5/2 35/5/2 
f 36/5/2 3/35/2 2/6/2 
f 2/6/4 5/5/4 36/5/4 
f 12/36/2 37/5/2 38/5/2 
f 38/5/2 13/37/2 12/36/2 
f 13/37/4 38/5/4 39/5/4 
f 39/5/2 15/38/2 13/37/2 
f 15/38/2 39/5/2 40/5/2 
f 40/5/2 17/39/2 15/38/2 
f 17/39/4 40/5/4 41/5/4 
f 41/5/2 19/40/2 17/39/2 
f 19/40/2 41/5/2 7/5/2 
f 7/5/2 6/7/2 19/40/2 
f 22/21/5 42/5/5 43/5/5 
f 43/5/3 23/22/3 22/21/3 
f 23/22/5 43/5/5 44/5/5 
f 44/5/3 25/24/3 23/22/3 
f 25/24/5 44/5/5 45/5/5 
f 45/5/3 27/26/3 25/24/3 
f 27/26/3 45/5/3 46/5/3 
f 46/5/3 29/28/3 27/26/3 
f 29/28/5 46/5/5 47/5/5 
f 47/5/3 4/4/3 29/28/3 
f 4/4/5 47/5/5 8/5/5 
f 8/5/3 1/1/3 4/4/3 
f 48/5/3 11/9/3 14/12/3 
f 14/12/5 49/5/5 48/5/5 
f 49/5/3 14/12/3 16/14/3 
f 16/14/5 50/5/5 49/5/5 
f 50/5/3 16/14/3 18/16/3 
f 18/16/5 51/5/5 50/5/5 
f 51/5/3 18/16/3 20/18/3 
f 20/18/3 52/5/3 51/5/3 
f 52/5/3 20/18/3 10/8/3 
f 10/8/5 9/5/5 52/5/5 
# 72 faces

