# 3ds Max Wavefront OBJ Exporter v0.97b - (c)2007 guruware
# File Created: 15.06.2016 19:13:40

#
# object Object004
#

v  2.0000 4.0999 32.0000
v  0.0190 4.0999 -0.0000
v  0.0190 6.0999 -0.0000
v  2.0000 6.0999 32.0000
v  2.0000 4.8199 32.0000
v  0.0190 4.8199 -0.0000
v  0.0190 6.8199 -0.0000
v  2.0000 6.8199 32.0000
v  -1.9620 4.0999 -32.0000
v  -1.9810 4.0999 -0.0000
v  -1.9810 6.0999 -0.0000
v  -1.9620 6.0999 -32.0000
v  -1.9620 4.8199 -32.0000
v  -1.9810 4.8199 -0.0000
v  -1.9810 6.8199 -0.0000
v  -1.9620 6.8199 -32.0000
v  -2.0000 4.0999 32.0000
v  -2.0000 6.0999 32.0000
v  -2.0000 4.8199 32.0000
v  -2.0000 6.8199 32.0000
# 20 vertices

vn 0.9981 0.0000 -0.0618
vn -0.0306 0.0000 -0.9995
vn -1.0000 0.0000 -0.0006
vn -0.9980 0.0000 -0.0627
# 4 vertex normals

vt -1.0000 -1.0000 0.0000
vt 0.0000 -1.0000 0.0000
vt 0.0000 1.0000 0.0000
vt -1.0000 1.0000 0.0000
vt 1.0000 -1.0000 0.0000
vt 1.0000 1.0000 0.0000
# 6 texture coords

g Object004
s 1
f 1/1/1 2/2/1 3/3/1 
f 3/3/1 4/4/1 1/1/1 
f 5/1/1 6/2/1 7/3/1 
f 7/3/1 8/4/1 5/1/1 
f 9/1/2 10/2/3 11/3/3 
f 11/3/3 12/4/2 9/1/2 
f 13/1/3 14/2/3 15/3/3 
f 15/3/3 16/4/3 13/1/3 
f 9/5/2 12/6/2 3/3/1 
f 3/3/1 2/2/1 9/5/2 
f 13/5/4 16/6/4 7/3/1 
f 7/3/1 6/2/4 13/5/4 
f 17/5/4 18/6/4 11/3/3 
f 11/3/3 10/2/4 17/5/4 
f 19/5/4 20/6/4 15/3/3 
f 15/3/3 14/2/4 19/5/4 
# 16 faces

