# 3ds Max Wavefront OBJ Exporter v0.97b - (c)2007 guruware
# File Created: 08.06.2016 18:21:35

#
# object Loft006
#

v  -0.9923 0.2407 26.6651
v  -0.8827 -0.0649 26.6651
v  -0.8827 -0.0649 31.9984
v  -0.9923 0.2407 31.9984
v  -1.1923 0.3049 26.6651
v  -1.1923 0.3049 31.9984
v  -1.3163 -0.0649 26.6651
v  -1.3163 -0.0649 31.9984
v  -2.7332 0.3049 26.6651
v  -2.6084 -0.0649 26.6651
v  -2.6084 -0.0649 31.9984
v  -2.7332 0.3049 31.9984
v  -2.9323 0.2407 26.6651
v  -2.9323 0.2407 31.9984
v  -3.0423 -0.0649 26.6651
v  -3.0423 -0.0649 31.9984
v  -0.9923 0.2408 21.3318
v  -0.8827 -0.0648 21.3318
v  -1.1923 0.3050 21.3318
v  -1.3163 -0.0648 21.3318
v  -2.7332 0.3050 21.3318
v  -2.6084 -0.0648 21.3318
v  -2.9323 0.2408 21.3318
v  -3.0423 -0.0648 21.3318
v  -0.9923 0.2408 15.9984
v  -0.8827 -0.0648 15.9984
v  -1.1923 0.3050 15.9984
v  -1.3163 -0.0648 15.9984
v  -2.7332 0.3050 15.9984
v  -2.6084 -0.0648 15.9984
v  -2.9323 0.2408 15.9984
v  -3.0423 -0.0648 15.9984
v  -0.9923 0.2408 10.6651
v  -0.8827 -0.0648 10.6651
v  -1.1923 0.3050 10.6651
v  -1.3163 -0.0648 10.6651
v  -2.7332 0.3050 10.6651
v  -2.6084 -0.0648 10.6651
v  -2.9323 0.2408 10.6651
v  -3.0423 -0.0648 10.6651
v  -0.9923 0.2408 5.3318
v  -0.8827 -0.0648 5.3318
v  -1.1923 0.3050 5.3318
v  -1.3163 -0.0648 5.3318
v  -2.7332 0.3050 5.3318
v  -2.6084 -0.0648 5.3318
v  -2.9323 0.2408 5.3318
v  -3.0423 -0.0648 5.3318
v  -0.9923 0.2409 -0.0016
v  -0.8827 -0.0647 -0.0016
v  -1.1923 0.3051 -0.0016
v  -1.3163 -0.0647 -0.0016
v  -2.7332 0.3051 -0.0016
v  -2.6084 -0.0647 -0.0016
v  -2.9323 0.2409 -0.0016
v  -3.0423 -0.0647 -0.0016
v  -0.9923 0.2409 -5.3349
v  -0.8827 -0.0647 -5.3349
v  -1.1923 0.3051 -5.3349
v  -1.3163 -0.0647 -5.3349
v  -2.7332 0.3051 -5.3349
v  -2.6084 -0.0647 -5.3349
v  -2.9323 0.2409 -5.3349
v  -3.0423 -0.0647 -5.3349
v  -0.9923 0.2409 -10.6682
v  -0.8827 -0.0647 -10.6682
v  -1.1923 0.3051 -10.6682
v  -1.3163 -0.0647 -10.6682
v  -2.7332 0.3051 -10.6682
v  -2.6084 -0.0647 -10.6682
v  -2.9323 0.2409 -10.6682
v  -3.0423 -0.0647 -10.6682
v  -0.9923 0.2409 -16.0016
v  -0.8827 -0.0647 -16.0016
v  -1.1923 0.3051 -16.0016
v  -1.3163 -0.0647 -16.0016
v  -2.7332 0.3051 -16.0016
v  -2.6084 -0.0647 -16.0016
v  -2.9323 0.2409 -16.0016
v  -3.0423 -0.0647 -16.0016
v  -0.9923 0.2410 -21.3349
v  -0.8827 -0.0646 -21.3349
v  -1.1923 0.3052 -21.3349
v  -1.3163 -0.0646 -21.3349
v  -2.7332 0.3052 -21.3349
v  -2.6084 -0.0646 -21.3349
v  -2.9323 0.2410 -21.3349
v  -3.0423 -0.0646 -21.3349
v  -0.9923 0.2410 -26.6682
v  -0.8827 -0.0646 -26.6682
v  -1.1923 0.3052 -26.6682
v  -1.3163 -0.0646 -26.6682
v  -2.7332 0.3052 -26.6682
v  -2.6084 -0.0646 -26.6682
v  -2.9323 0.2410 -26.6682
v  -3.0423 -0.0646 -26.6682
v  -0.9924 0.2410 -32.0016
v  -0.8828 -0.0646 -32.0016
v  -1.1924 0.3052 -32.0016
v  -1.3164 -0.0646 -32.0016
v  -2.7333 0.3052 -32.0016
v  -2.6085 -0.0646 -32.0016
v  -2.9324 0.2410 -32.0016
v  -3.0424 -0.0646 -32.0016
v  -0.9405 0.2407 27.5187
v  -0.8309 -0.0649 27.5206
v  -0.8827 -0.0649 32.0098
v  -0.9923 0.2407 32.0091
v  -1.1405 0.3049 27.5153
v  -1.1923 0.3049 32.0080
v  -1.2645 -0.0649 27.5132
v  -1.3163 -0.0649 32.0072
v  -2.6812 0.3049 27.4890
v  -2.5564 -0.0649 27.4912
v  -2.6084 -0.0649 31.9997
v  -2.7332 0.3049 31.9990
v  -2.8802 0.2407 27.4856
v  -2.9323 0.2407 31.9978
v  -2.9902 -0.0649 27.4838
v  -3.0423 -0.0649 31.9972
v  -0.8368 0.2407 22.8907
v  -0.7273 -0.0649 22.8942
v  -1.0368 0.3049 22.8844
v  -1.1607 -0.0649 22.8805
v  -2.5769 0.3049 22.8358
v  -2.4522 -0.0649 22.8398
v  -2.7760 0.2407 22.8295
v  -2.8859 -0.0649 22.8261
v  -0.6397 0.2407 17.9952
v  -0.5303 -0.0649 18.0011
v  -0.8395 0.3049 17.9846
v  -0.9633 -0.0649 17.9781
v  -2.3783 0.3049 17.9030
v  -2.2537 -0.0649 17.9096
v  -2.5771 0.2407 17.8924
v  -2.6870 -0.0649 17.8866
v  -0.2950 0.2407 12.6859
v  -0.1857 -0.0649 12.6945
v  -0.4944 0.3049 12.6701
v  -0.6180 -0.0649 12.6603
v  -2.0306 0.3049 12.5486
v  -1.9062 -0.0649 12.5584
v  -2.2291 0.2407 12.5329
v  -2.3388 -0.0649 12.5242
v  0.2464 0.2407 6.7937
v  0.3555 -0.0649 6.8041
v  0.0473 0.3049 6.7746
v  -0.0762 -0.0649 6.7628
v  -1.4866 0.3049 6.6279
v  -1.3624 -0.0649 6.6398
v  -1.6848 0.2407 6.6090
v  -1.7943 -0.0649 6.5985
v  0.9001 0.2407 0.1871
v  1.0091 -0.0649 0.1988
v  0.7012 0.3049 0.1656
v  0.5780 -0.0649 0.1523
v  -0.8308 0.3049 0.0005
v  -0.7067 -0.0649 0.0139
v  -1.0288 0.2407 -0.0209
v  -1.1382 -0.0649 -0.0327
v  1.6728 0.2407 -6.4468
v  1.7818 -0.0649 -6.4353
v  1.4739 0.3049 -6.4676
v  1.3506 -0.0649 -6.4806
v  -0.0587 0.3049 -6.6285
v  0.0654 -0.0649 -6.6155
v  -0.2567 0.2407 -6.6493
v  -0.3661 -0.0649 -6.6608
v  2.2211 0.2406 -12.4158
v  2.3303 -0.0650 -12.4072
v  2.0217 0.3048 -12.4316
v  1.8980 -0.0650 -12.4414
v  0.4854 0.3048 -12.5530
v  0.6099 -0.0650 -12.5432
v  0.2869 0.2406 -12.5687
v  0.1773 -0.0650 -12.5774
v  2.5722 0.2406 -17.8198
v  2.6817 -0.0650 -17.8139
v  2.3725 0.3048 -17.8304
v  2.2486 -0.0650 -17.8370
v  0.8336 0.3048 -17.9124
v  0.9583 -0.0650 -17.9058
v  0.6348 0.2406 -17.9230
v  0.5250 -0.0650 -17.9288
v  2.7744 0.2405 -22.7925
v  2.8839 -0.0651 -22.7890
v  2.5745 0.3047 -22.7988
v  2.4505 -0.0651 -22.8027
v  1.0343 0.3047 -22.8475
v  1.1590 -0.0651 -22.8435
v  0.8353 0.2405 -22.8538
v  0.7253 -0.0651 -22.8572
v  2.8776 0.2405 -27.4691
v  2.9872 -0.0651 -27.4672
v  2.6776 0.3047 -27.4726
v  2.5536 -0.0651 -27.4747
v  1.1369 0.3047 -27.4991
v  1.2617 -0.0651 -27.4970
v  0.9379 0.2405 -27.5026
v  0.8279 -0.0651 -27.5045
v  2.9333 0.2404 -31.9883
v  3.0429 -0.0652 -31.9875
v  2.7333 0.3046 -31.9898
v  2.6093 -0.0652 -31.9907
v  1.1924 0.3046 -32.0009
v  1.3172 -0.0652 -32.0000
v  0.9933 0.2404 -32.0023
v  0.8833 -0.0652 -32.0031
# 208 vertices

vn 0.6951 0.7189 0.0000
vn 0.9413 0.3376 0.0000
vn -0.4514 0.8923 0.0000
vn -0.9481 0.3179 0.0000
vn 0.4499 0.8931 0.0000
vn 0.9475 0.3198 0.0000
vn -0.6951 0.7189 0.0000
vn -0.9409 0.3387 0.0000
vn 0.0000 0.0000 1.0000
vn 0.0000 -0.0000 1.0000
vn 0.0000 0.0000 -1.0000
vn 0.6942 0.7197 0.0118
vn 0.9412 0.3376 0.0160
vn 0.9412 0.3376 0.0109
vn 0.6942 0.7197 0.0080
vn -0.4533 0.8913 -0.0077
vn -0.4534 0.8913 -0.0052
vn -0.9480 0.3179 -0.0161
vn -0.9481 0.3179 -0.0109
vn 0.4479 0.8940 0.0076
vn 0.9474 0.3198 0.0161
vn 0.9474 0.3198 0.0109
vn 0.4479 0.8941 0.0052
vn -0.6958 0.7181 -0.0118
vn -0.6959 0.7181 -0.0080
vn -0.9408 0.3387 -0.0160
vn -0.9408 0.3387 -0.0108
vn 0.6934 0.7202 0.0217
vn 0.9408 0.3376 0.0295
vn -0.4543 0.8907 -0.0142
vn -0.9476 0.3179 -0.0297
vn 0.4465 0.8947 0.0140
vn 0.9470 0.3198 0.0297
vn -0.6961 0.7176 -0.0218
vn -0.9404 0.3387 -0.0295
vn 0.6923 0.7207 0.0364
vn 0.9400 0.3376 0.0494
vn -0.4551 0.8901 -0.0239
vn -0.9468 0.3179 -0.0498
vn 0.4449 0.8953 0.0234
vn 0.9462 0.3198 0.0498
vn -0.6959 0.7172 -0.0366
vn -0.9396 0.3387 -0.0494
vn 0.6910 0.7208 0.0542
vn 0.9384 0.3376 0.0736
vn -0.4547 0.8899 -0.0356
vn -0.9452 0.3179 -0.0741
vn 0.4438 0.8955 0.0348
vn 0.9446 0.3198 0.0740
vn -0.6949 0.7170 -0.0545
vn -0.9380 0.3387 -0.0735
vn 0.6914 0.7194 0.0660
vn 0.9370 0.3376 0.0894
vn -0.4506 0.8917 -0.0430
vn -0.9438 0.3179 -0.0901
vn 0.4467 0.8937 0.0426
vn 0.9432 0.3198 0.0900
vn -0.6925 0.7184 -0.0661
vn -0.9366 0.3387 -0.0894
vn 0.6898 0.7202 0.0743
vn 0.9359 0.3376 0.1008
vn -0.4519 0.8908 -0.0487
vn -0.9427 0.3179 -0.1015
vn 0.4443 0.8946 0.0478
vn 0.9420 0.3198 0.1015
vn -0.6924 0.7177 -0.0746
vn -0.9355 0.3387 -0.1008
vn 0.6931 0.7172 0.0722
vn 0.9362 0.3376 0.0975
vn -0.4446 0.8945 -0.0463
vn -0.9430 0.3179 -0.0982
vn 0.4518 0.8909 0.0470
vn 0.9424 0.3198 0.0981
vn -0.6896 0.7206 -0.0718
vn -0.9358 0.3387 -0.0975
vn 0.6949 0.7171 0.0545
vn -0.4452 0.8947 -0.0349
vn 0.4533 0.8907 0.0355
vn 0.9446 0.3198 0.0741
vn -0.6910 0.7208 -0.0542
vn 0.6958 0.7172 0.0367
vn 0.9400 0.3376 0.0496
vn -0.4464 0.8945 -0.0236
vn -0.9468 0.3179 -0.0500
vn 0.4536 0.8909 0.0239
vn 0.9462 0.3198 0.0500
vn -0.6924 0.7206 -0.0366
vn -0.9396 0.3387 -0.0496
vn 0.6961 0.7176 0.0218
vn -0.4479 0.8940 -0.0141
vn 0.4530 0.8914 0.0142
vn -0.6934 0.7202 -0.0218
vn 0.6957 0.7183 0.0120
vn 0.9412 0.3376 0.0162
vn -0.4496 0.8932 -0.0077
vn -0.9480 0.3179 -0.0163
vn 0.4516 0.8922 0.0078
vn 0.9474 0.3198 0.0163
vn -0.6943 0.7196 -0.0119
vn -0.9408 0.3387 -0.0162
vn 0.6958 0.7182 0.0086
vn 0.9412 0.3376 0.0116
vn -0.4495 0.8932 -0.0056
vn -0.9480 0.3179 -0.0117
vn 0.4517 0.8921 0.0056
vn 0.9474 0.3198 0.0117
vn -0.6943 0.7196 -0.0086
vn -0.9408 0.3387 -0.0116
vn -0.0058 0.0000 1.0000
vn 0.0072 -0.0000 -1.0000
vn 0.0072 0.0000 -1.0000
# 111 vertex normals

vt 0.2700 0.1575 0.7825
vt 0.2520 0.1575 -0.0426
vt 0.2519 0.0741 -0.0427
vt 0.2700 0.0741 0.7824
vt 0.3028 0.1575 0.9558
vt 0.3028 0.0741 0.9557
vt 0.3232 0.1575 -0.0426
vt 0.3232 0.0741 -0.0427
vt 0.5560 0.1575 0.9558
vt 0.5355 0.1575 -0.0426
vt 0.5355 0.0741 -0.0427
vt 0.5560 0.0741 0.9557
vt 0.5888 0.1575 0.7825
vt 0.5888 0.0741 0.7824
vt 0.6068 0.1575 -0.0426
vt 0.6068 0.0741 -0.0427
vt 0.2700 0.2408 0.7825
vt 0.2520 0.2408 -0.0425
vt 0.3028 0.2408 0.9559
vt 0.3232 0.2408 -0.0425
vt 0.5560 0.2408 0.9559
vt 0.5355 0.2408 -0.0425
vt 0.5888 0.2408 0.7825
vt 0.6068 0.2408 -0.0425
vt 0.2700 0.3241 0.7826
vt 0.2520 0.3241 -0.0425
vt 0.3028 0.3241 0.9559
vt 0.3232 0.3241 -0.0425
vt 0.5560 0.3241 0.9559
vt 0.5355 0.3241 -0.0425
vt 0.5888 0.3241 0.7826
vt 0.6068 0.3241 -0.0425
vt 0.2700 0.4074 0.7827
vt 0.2520 0.4074 -0.0424
vt 0.3028 0.4074 0.9560
vt 0.3232 0.4074 -0.0424
vt 0.5560 0.4074 0.9560
vt 0.5355 0.4074 -0.0424
vt 0.5888 0.4074 0.7827
vt 0.6068 0.4074 -0.0424
vt 0.2700 0.4907 0.7827
vt 0.2520 0.4907 -0.0423
vt 0.3028 0.4907 0.9561
vt 0.3232 0.4907 -0.0423
vt 0.5561 0.4907 0.9561
vt 0.5355 0.4907 -0.0423
vt 0.5888 0.4907 0.7827
vt 0.6068 0.4907 -0.0423
vt 0.2700 0.5740 0.7828
vt 0.2520 0.5740 -0.0423
vt 0.3028 0.5740 0.9561
vt 0.3232 0.5740 -0.0423
vt 0.5561 0.5740 0.9561
vt 0.5355 0.5740 -0.0423
vt 0.5888 0.5740 0.7828
vt 0.6068 0.5740 -0.0423
vt 0.2700 0.6574 0.7829
vt 0.2520 0.6574 -0.0422
vt 0.3028 0.6574 0.9562
vt 0.3232 0.6574 -0.0422
vt 0.5561 0.6574 0.9562
vt 0.5355 0.6574 -0.0422
vt 0.5888 0.6574 0.7829
vt 0.6068 0.6574 -0.0422
vt 0.2700 0.7407 0.7829
vt 0.2520 0.7407 -0.0421
vt 0.3028 0.7407 0.9563
vt 0.3232 0.7407 -0.0421
vt 0.5561 0.7407 0.9563
vt 0.5355 0.7407 -0.0421
vt 0.5888 0.7407 0.7829
vt 0.6068 0.7407 -0.0421
vt 0.2700 0.8240 0.7830
vt 0.2520 0.8240 -0.0420
vt 0.3028 0.8240 0.9563
vt 0.3232 0.8240 -0.0420
vt 0.5561 0.8240 0.9563
vt 0.5355 0.8240 -0.0420
vt 0.5888 0.8240 0.7830
vt 0.6068 0.8240 -0.0420
vt 0.2700 0.9073 0.7831
vt 0.2520 0.9073 -0.0420
vt 0.3028 0.9073 0.9564
vt 0.3232 0.9073 -0.0420
vt 0.5561 0.9073 0.9564
vt 0.5355 0.9073 -0.0420
vt 0.5888 0.9073 0.7831
vt 0.6069 0.9073 -0.0420
vt 0.2700 0.9906 0.7831
vt 0.2520 0.9906 -0.0419
vt 0.3028 0.9906 0.9565
vt 0.3232 0.9906 -0.0419
vt 0.5561 0.9906 0.9565
vt 0.5355 0.9906 -0.0419
vt 0.5888 0.9906 0.7831
vt 0.6069 0.9906 -0.0419
vt 0.2700 1.0739 0.7832
vt 0.2520 1.0739 -0.0418
vt 0.3028 1.0739 0.9565
vt 0.3232 1.0739 -0.0418
vt 0.5561 1.0739 0.9565
vt 0.5355 1.0739 -0.0418
vt 0.5888 1.0739 0.7832
vt 0.6069 1.0739 -0.0418
vt 0.2614 0.1441 0.7824
vt 0.2434 0.1441 -0.0427
vt 0.2520 0.0740 -0.0427
vt 0.2700 0.0740 0.7824
vt 0.2943 0.1442 0.9557
vt 0.3028 0.0740 0.9557
vt 0.3147 0.1442 -0.0427
vt 0.3232 0.0740 -0.0427
vt 0.5475 0.1446 0.9557
vt 0.5270 0.1445 -0.0427
vt 0.5802 0.1446 0.7824
vt 0.5983 0.1447 -0.0427
vt 0.6068 0.0742 -0.0427
vt 0.2444 0.2164 0.7824
vt 0.2264 0.2164 -0.0427
vt 0.2773 0.2165 0.9557
vt 0.2976 0.2166 -0.0427
vt 0.5304 0.2173 0.9557
vt 0.5099 0.2172 -0.0427
vt 0.5631 0.2174 0.7824
vt 0.5811 0.2174 -0.0427
vt 0.2120 0.2929 0.7824
vt 0.1940 0.2928 -0.0427
vt 0.2448 0.2931 0.9557
vt 0.2652 0.2932 -0.0427
vt 0.4977 0.2943 0.9557
vt 0.4772 0.2942 -0.0427
vt 0.5304 0.2945 0.7824
vt 0.5485 0.2946 -0.0427
vt 0.1554 0.3758 0.7824
vt 0.1374 0.3757 -0.0427
vt 0.1881 0.3761 0.9557
vt 0.2085 0.3762 -0.0427
vt 0.4406 0.3780 0.9557
vt 0.4201 0.3778 -0.0427
vt 0.4732 0.3782 0.7824
vt 0.4912 0.3784 -0.0427
vt 0.0664 0.4679 0.7824
vt 0.0485 0.4677 -0.0427
vt 0.0991 0.4682 0.9557
vt 0.1194 0.4684 -0.0427
vt 0.3512 0.4705 0.9557
vt 0.3308 0.4703 -0.0427
vt 0.3838 0.4708 0.7824
vt 0.4018 0.4709 -0.0427
vt -0.0410 0.5711 0.7823
vt -0.0589 0.5709 -0.0428
vt -0.0083 0.5714 0.9556
vt 0.0119 0.5716 -0.0428
vt 0.2434 0.5740 0.9556
vt 0.2230 0.5738 -0.0428
vt 0.2760 0.5743 0.7823
vt 0.2939 0.5745 -0.0428
vt -0.1680 0.6747 0.7823
vt -0.1859 0.6745 -0.0428
vt -0.1353 0.6750 0.9556
vt -0.1150 0.6753 -0.0428
vt 0.1165 0.6776 0.9556
vt 0.0961 0.6774 -0.0428
vt 0.1491 0.6779 0.7823
vt 0.1671 0.6781 -0.0428
vt -0.2581 0.7680 0.7821
vt -0.2761 0.7678 -0.0429
vt -0.2253 0.7682 0.9555
vt -0.2050 0.7684 -0.0429
vt 0.0271 0.7701 0.9555
vt 0.0067 0.7700 -0.0429
vt 0.0597 0.7704 0.7821
vt 0.0778 0.7705 -0.0429
vt -0.3158 0.8524 0.7820
vt -0.3338 0.8523 -0.0431
vt -0.2830 0.8526 0.9553
vt -0.2626 0.8527 -0.0431
vt -0.0301 0.8538 0.9553
vt -0.0506 0.8537 -0.0431
vt 0.0026 0.8540 0.7820
vt 0.0206 0.8541 -0.0431
vt -0.3490 0.9301 0.7819
vt -0.3670 0.9300 -0.0432
vt -0.3162 0.9302 0.9552
vt -0.2958 0.9302 -0.0432
vt -0.0631 0.9309 0.9552
vt -0.0836 0.9309 -0.0432
vt -0.0304 0.9310 0.7819
vt -0.0123 0.9311 -0.0432
vt -0.3660 1.0031 0.7817
vt -0.3840 1.0031 -0.0433
vt -0.3331 1.0032 0.9551
vt -0.3127 1.0032 -0.0433
vt -0.0799 1.0036 0.9551
vt -0.1004 1.0036 -0.0433
vt -0.0472 1.0037 0.7817
vt -0.0292 1.0037 -0.0433
vt -0.3751 1.0737 0.7816
vt -0.3931 1.0737 -0.0435
vt -0.3423 1.0738 0.9549
vt -0.3219 1.0738 -0.0435
vt -0.0891 1.0739 0.9549
vt -0.1096 1.0739 -0.0435
vt -0.0563 1.0739 0.7816
vt -0.0383 1.0740 -0.0435
# 205 texture coords

g Loft006
s 1
f 3/3/2 2/2/2 1/1/1 
f 1/1/1 4/4/1 3/3/2 
f 4/4/1 1/1/1 5/5/3 
f 5/5/3 6/6/3 4/4/1 
f 6/6/3 5/5/3 7/7/4 
f 7/7/4 8/8/4 6/6/3 
f 11/11/6 10/10/6 9/9/5 
f 9/9/5 12/12/5 11/11/6 
f 12/12/5 9/9/5 13/13/7 
f 13/13/7 14/14/7 12/12/5 
f 14/14/7 13/13/7 15/15/8 
f 15/15/8 16/16/8 14/14/7 
f 2/2/2 18/18/2 17/17/1 
f 17/17/1 1/1/1 2/2/2 
f 1/1/1 17/17/1 19/19/3 
f 19/19/3 5/5/3 1/1/1 
f 5/5/3 19/19/3 20/20/4 
f 20/20/4 7/7/4 5/5/3 
f 10/10/6 22/22/6 21/21/5 
f 21/21/5 9/9/5 10/10/6 
f 9/9/5 21/21/5 23/23/7 
f 23/23/7 13/13/7 9/9/5 
f 13/13/7 23/23/7 24/24/8 
f 24/24/8 15/15/8 13/13/7 
f 18/18/2 26/26/2 25/25/1 
f 25/25/1 17/17/1 18/18/2 
f 17/17/1 25/25/1 27/27/3 
f 27/27/3 19/19/3 17/17/1 
f 19/19/3 27/27/3 28/28/4 
f 28/28/4 20/20/4 19/19/3 
f 22/22/6 30/30/6 29/29/5 
f 29/29/5 21/21/5 22/22/6 
f 21/21/5 29/29/5 31/31/7 
f 31/31/7 23/23/7 21/21/5 
f 23/23/7 31/31/7 32/32/8 
f 32/32/8 24/24/8 23/23/7 
f 26/26/2 34/34/2 33/33/1 
f 33/33/1 25/25/1 26/26/2 
f 25/25/1 33/33/1 35/35/3 
f 35/35/3 27/27/3 25/25/1 
f 27/27/3 35/35/3 36/36/4 
f 36/36/4 28/28/4 27/27/3 
f 30/30/6 38/38/6 37/37/5 
f 37/37/5 29/29/5 30/30/6 
f 29/29/5 37/37/5 39/39/7 
f 39/39/7 31/31/7 29/29/5 
f 31/31/7 39/39/7 40/40/8 
f 40/40/8 32/32/8 31/31/7 
f 34/34/2 42/42/2 41/41/1 
f 41/41/1 33/33/1 34/34/2 
f 33/33/1 41/41/1 43/43/3 
f 43/43/3 35/35/3 33/33/1 
f 35/35/3 43/43/3 44/44/4 
f 44/44/4 36/36/4 35/35/3 
f 38/38/6 46/46/6 45/45/5 
f 45/45/5 37/37/5 38/38/6 
f 37/37/5 45/45/5 47/47/7 
f 47/47/7 39/39/7 37/37/5 
f 39/39/7 47/47/7 48/48/8 
f 48/48/8 40/40/8 39/39/7 
f 42/42/2 50/50/2 49/49/1 
f 49/49/1 41/41/1 42/42/2 
f 41/41/1 49/49/1 51/51/3 
f 51/51/3 43/43/3 41/41/1 
f 43/43/3 51/51/3 52/52/4 
f 52/52/4 44/44/4 43/43/3 
f 46/46/6 54/54/6 53/53/5 
f 53/53/5 45/45/5 46/46/6 
f 45/45/5 53/53/5 55/55/7 
f 55/55/7 47/47/7 45/45/5 
f 47/47/7 55/55/7 56/56/8 
f 56/56/8 48/48/8 47/47/7 
f 50/50/2 58/58/2 57/57/1 
f 57/57/1 49/49/1 50/50/2 
f 49/49/1 57/57/1 59/59/3 
f 59/59/3 51/51/3 49/49/1 
f 51/51/3 59/59/3 60/60/4 
f 60/60/4 52/52/4 51/51/3 
f 54/54/6 62/62/6 61/61/5 
f 61/61/5 53/53/5 54/54/6 
f 53/53/5 61/61/5 63/63/7 
f 63/63/7 55/55/7 53/53/5 
f 55/55/7 63/63/7 64/64/8 
f 64/64/8 56/56/8 55/55/7 
f 58/58/2 66/66/2 65/65/1 
f 65/65/1 57/57/1 58/58/2 
f 57/57/1 65/65/1 67/67/3 
f 67/67/3 59/59/3 57/57/1 
f 59/59/3 67/67/3 68/68/4 
f 68/68/4 60/60/4 59/59/3 
f 62/62/6 70/70/6 69/69/5 
f 69/69/5 61/61/5 62/62/6 
f 61/61/5 69/69/5 71/71/7 
f 71/71/7 63/63/7 61/61/5 
f 63/63/7 71/71/7 72/72/8 
f 72/72/8 64/64/8 63/63/7 
f 66/66/2 74/74/2 73/73/1 
f 73/73/1 65/65/1 66/66/2 
f 65/65/1 73/73/1 75/75/3 
f 75/75/3 67/67/3 65/65/1 
f 67/67/3 75/75/3 76/76/4 
f 76/76/4 68/68/4 67/67/3 
f 70/70/6 78/78/6 77/77/5 
f 77/77/5 69/69/5 70/70/6 
f 69/69/5 77/77/5 79/79/7 
f 79/79/7 71/71/7 69/69/5 
f 71/71/7 79/79/7 80/80/8 
f 80/80/8 72/72/8 71/71/7 
f 74/74/2 82/82/2 81/81/1 
f 81/81/1 73/73/1 74/74/2 
f 73/73/1 81/81/1 83/83/3 
f 83/83/3 75/75/3 73/73/1 
f 75/75/3 83/83/3 84/84/4 
f 84/84/4 76/76/4 75/75/3 
f 78/78/6 86/86/6 85/85/5 
f 85/85/5 77/77/5 78/78/6 
f 77/77/5 85/85/5 87/87/7 
f 87/87/7 79/79/7 77/77/5 
f 79/79/7 87/87/7 88/88/8 
f 88/88/8 80/80/8 79/79/7 
f 82/82/2 90/90/2 89/89/1 
f 89/89/1 81/81/1 82/82/2 
f 81/81/1 89/89/1 91/91/3 
f 91/91/3 83/83/3 81/81/1 
f 83/83/3 91/91/3 92/92/4 
f 92/92/4 84/84/4 83/83/3 
f 86/86/6 94/94/6 93/93/5 
f 93/93/5 85/85/5 86/86/6 
f 85/85/5 93/93/5 95/95/7 
f 95/95/7 87/87/7 85/85/5 
f 87/87/7 95/95/7 96/96/8 
f 96/96/8 88/88/8 87/87/7 
f 90/90/2 98/98/2 97/97/1 
f 97/97/1 89/89/1 90/90/2 
f 89/89/1 97/97/1 99/99/3 
f 99/99/3 91/91/3 89/89/1 
f 91/91/3 99/99/3 100/100/4 
f 100/100/4 92/92/4 91/91/3 
f 94/94/6 102/102/6 101/101/5 
f 101/101/5 93/93/5 94/94/6 
f 93/93/5 101/101/5 103/103/7 
f 103/103/7 95/95/7 93/93/5 
f 95/95/7 103/103/7 104/104/8 
f 104/104/8 96/96/8 95/95/7 
s off
f 4/4/9 6/6/9 8/8/9 
f 8/8/10 3/3/10 4/4/10 
f 12/12/9 14/14/9 16/16/9 
f 16/16/10 11/11/10 12/12/10 
f 100/100/11 99/99/11 97/97/11 
f 97/97/11 98/98/11 100/100/11 
f 104/104/11 103/103/11 101/101/11 
f 101/101/11 102/102/11 104/104/11 
s 1
f 107/107/14 106/106/13 105/105/12 
f 105/105/12 108/108/15 107/107/14 
f 108/108/15 105/105/12 109/109/16 
f 109/109/16 110/110/17 108/108/15 
f 110/110/17 109/109/16 111/111/18 
f 111/111/18 112/112/19 110/110/17 
f 115/11/22 114/114/21 113/113/20 
f 113/113/20 116/12/23 115/11/22 
f 116/12/23 113/113/20 117/115/24 
f 117/115/24 118/14/25 116/12/23 
f 118/14/25 117/115/24 119/116/26 
f 119/116/26 120/117/27 118/14/25 
f 106/106/13 122/119/29 121/118/28 
f 121/118/28 105/105/12 106/106/13 
f 105/105/12 121/118/28 123/120/30 
f 123/120/30 109/109/16 105/105/12 
f 109/109/16 123/120/30 124/121/31 
f 124/121/31 111/111/18 109/109/16 
f 114/114/21 126/123/33 125/122/32 
f 125/122/32 113/113/20 114/114/21 
f 113/113/20 125/122/32 127/124/34 
f 127/124/34 117/115/24 113/113/20 
f 117/115/24 127/124/34 128/125/35 
f 128/125/35 119/116/26 117/115/24 
f 122/119/29 130/127/37 129/126/36 
f 129/126/36 121/118/28 122/119/29 
f 121/118/28 129/126/36 131/128/38 
f 131/128/38 123/120/30 121/118/28 
f 123/120/30 131/128/38 132/129/39 
f 132/129/39 124/121/31 123/120/30 
f 126/123/33 134/131/41 133/130/40 
f 133/130/40 125/122/32 126/123/33 
f 125/122/32 133/130/40 135/132/42 
f 135/132/42 127/124/34 125/122/32 
f 127/124/34 135/132/42 136/133/43 
f 136/133/43 128/125/35 127/124/34 
f 130/127/37 138/135/45 137/134/44 
f 137/134/44 129/126/36 130/127/37 
f 129/126/36 137/134/44 139/136/46 
f 139/136/46 131/128/38 129/126/36 
f 131/128/38 139/136/46 140/137/47 
f 140/137/47 132/129/39 131/128/38 
f 134/131/41 142/139/49 141/138/48 
f 141/138/48 133/130/40 134/131/41 
f 133/130/40 141/138/48 143/140/50 
f 143/140/50 135/132/42 133/130/40 
f 135/132/42 143/140/50 144/141/51 
f 144/141/51 136/133/43 135/132/42 
f 138/135/45 146/143/53 145/142/52 
f 145/142/52 137/134/44 138/135/45 
f 137/134/44 145/142/52 147/144/54 
f 147/144/54 139/136/46 137/134/44 
f 139/136/46 147/144/54 148/145/55 
f 148/145/55 140/137/47 139/136/46 
f 142/139/49 150/147/57 149/146/56 
f 149/146/56 141/138/48 142/139/49 
f 141/138/48 149/146/56 151/148/58 
f 151/148/58 143/140/50 141/138/48 
f 143/140/50 151/148/58 152/149/59 
f 152/149/59 144/141/51 143/140/50 
f 146/143/53 154/151/61 153/150/60 
f 153/150/60 145/142/52 146/143/53 
f 145/142/52 153/150/60 155/152/62 
f 155/152/62 147/144/54 145/142/52 
f 147/144/54 155/152/62 156/153/63 
f 156/153/63 148/145/55 147/144/54 
f 150/147/57 158/155/65 157/154/64 
f 157/154/64 149/146/56 150/147/57 
f 149/146/56 157/154/64 159/156/66 
f 159/156/66 151/148/58 149/146/56 
f 151/148/58 159/156/66 160/157/67 
f 160/157/67 152/149/59 151/148/58 
f 154/151/61 162/159/69 161/158/68 
f 161/158/68 153/150/60 154/151/61 
f 153/150/60 161/158/68 163/160/70 
f 163/160/70 155/152/62 153/150/60 
f 155/152/62 163/160/70 164/161/71 
f 164/161/71 156/153/63 155/152/62 
f 158/155/65 166/163/73 165/162/72 
f 165/162/72 157/154/64 158/155/65 
f 157/154/64 165/162/72 167/164/74 
f 167/164/74 159/156/66 157/154/64 
f 159/156/66 167/164/74 168/165/75 
f 168/165/75 160/157/67 159/156/66 
f 162/159/69 170/167/45 169/166/76 
f 169/166/76 161/158/68 162/159/69 
f 161/158/68 169/166/76 171/168/77 
f 171/168/77 163/160/70 161/158/68 
f 163/160/70 171/168/77 172/169/47 
f 172/169/47 164/161/71 163/160/70 
f 166/163/73 174/171/79 173/170/78 
f 173/170/78 165/162/72 166/163/73 
f 165/162/72 173/170/78 175/172/80 
f 175/172/80 167/164/74 165/162/72 
f 167/164/74 175/172/80 176/173/51 
f 176/173/51 168/165/75 167/164/74 
f 170/167/45 178/175/82 177/174/81 
f 177/174/81 169/166/76 170/167/45 
f 169/166/76 177/174/81 179/176/83 
f 179/176/83 171/168/77 169/166/76 
f 171/168/77 179/176/83 180/177/84 
f 180/177/84 172/169/47 171/168/77 
f 174/171/79 182/179/86 181/178/85 
f 181/178/85 173/170/78 174/171/79 
f 173/170/78 181/178/85 183/180/87 
f 183/180/87 175/172/80 173/170/78 
f 175/172/80 183/180/87 184/181/88 
f 184/181/88 176/173/51 175/172/80 
f 178/175/82 186/183/29 185/182/89 
f 185/182/89 177/174/81 178/175/82 
f 177/174/81 185/182/89 187/184/90 
f 187/184/90 179/176/83 177/174/81 
f 179/176/83 187/184/90 188/185/31 
f 188/185/31 180/177/84 179/176/83 
f 182/179/86 190/187/33 189/186/91 
f 189/186/91 181/178/85 182/179/86 
f 181/178/85 189/186/91 191/188/92 
f 191/188/92 183/180/87 181/178/85 
f 183/180/87 191/188/92 192/189/35 
f 192/189/35 184/181/88 183/180/87 
f 186/183/29 194/191/94 193/190/93 
f 193/190/93 185/182/89 186/183/29 
f 185/182/89 193/190/93 195/192/95 
f 195/192/95 187/184/90 185/182/89 
f 187/184/90 195/192/95 196/193/96 
f 196/193/96 188/185/31 187/184/90 
f 190/187/33 198/195/98 197/194/97 
f 197/194/97 189/186/91 190/187/33 
f 189/186/91 197/194/97 199/196/99 
f 199/196/99 191/188/92 189/186/91 
f 191/188/92 199/196/99 200/197/100 
f 200/197/100 192/189/35 191/188/92 
f 194/191/94 202/199/102 201/198/101 
f 201/198/101 193/190/93 194/191/94 
f 193/190/93 201/198/101 203/200/103 
f 203/200/103 195/192/95 193/190/93 
f 195/192/95 203/200/103 204/201/104 
f 204/201/104 196/193/96 195/192/95 
f 198/195/98 206/203/106 205/202/105 
f 205/202/105 197/194/97 198/195/98 
f 197/194/97 205/202/105 207/204/107 
f 207/204/107 199/196/99 197/194/97 
f 199/196/99 207/204/107 208/205/108 
f 208/205/108 200/197/100 199/196/99 
s off
f 108/108/109 110/110/109 112/112/109 
f 112/112/109 107/107/109 108/108/109 
f 116/12/109 118/14/109 120/117/109 
f 120/117/109 115/11/109 116/12/109 
f 204/201/110 203/200/110 201/198/110 
f 201/198/110 202/199/110 204/201/110 
f 208/205/111 207/204/111 205/202/111 
f 205/202/110 206/203/110 208/205/110 
# 304 faces

