# 3ds Max Wavefront OBJ Exporter v0.97b - (c)2007 guruware
# File Created: 06.01.2016 00:30:37

#
# object ok
#

v  15.7975 -0.3000 0.0000
v  -15.7975 -0.3000 0.0000
v  15.7975 -0.3000 16.0000
v  -15.7975 -0.3000 -16.0000
v  -15.7975 -0.3000 16.0000
v  15.7975 -0.3000 32.0000
v  -15.7975 -0.3000 32.0000
v  15.7975 -0.3000 -16.0000
v  -15.7975 -0.3000 -32.0000
v  15.7975 -0.3000 -32.0000
v  15.9000 1.1159 0.0000
v  15.9000 1.1159 16.0000
v  15.9000 1.1159 32.0000
v  15.9000 1.1159 -16.0000
v  15.9000 1.1159 -32.0000
v  16.4918 -2.0000 0.0000
v  16.4918 -2.0000 16.0000
v  16.4918 -2.0000 32.0000
v  16.4918 -2.0000 -16.0000
v  16.4918 -2.0000 -32.0000
v  15.0697 -4.5000 0.0000
v  15.0697 -4.5000 16.0000
v  15.0697 -4.5000 32.0000
v  15.0697 -4.5000 -16.0000
v  15.0697 -4.5000 -32.0000
v  -15.0697 -4.5000 0.0000
v  -15.0697 -4.5000 -16.0000
v  -15.0697 -4.5000 16.0000
v  -15.0697 -4.5000 32.0000
v  -15.0697 -4.5000 -32.0000
v  -16.4918 -2.0000 0.0000
v  -16.4918 -2.0000 -16.0000
v  -16.4918 -2.0000 16.0000
v  -16.4918 -2.0000 32.0000
v  -16.4918 -2.0000 -32.0000
v  -15.9000 1.1000 0.0000
v  -15.9000 1.1000 -16.0000
v  -15.9000 1.1000 16.0000
v  -15.9000 1.1000 32.0000
v  -15.9000 1.1000 -32.0000
v  -15.7972 -0.3000 0.0000
v  -15.7972 -0.3000 -16.0000
v  -15.7972 -0.3000 16.0000
v  -15.7972 -0.3000 32.0000
v  -15.7972 -0.3000 -32.0000
# 45 vertices

vn 0.0000 1.0000 -0.0000
vn -0.9974 0.0722 -0.0000
vn 0.9824 0.1866 -0.0000
vn 0.8692 -0.4944 -0.0000
vn 0.0000 -1.0000 -0.0000
vn -0.8692 -0.4944 -0.0000
vn -0.9823 0.1875 -0.0000
vn 0.9973 0.0732 -0.0000
# 8 vertex normals

vt 0.2363 0.5000 0.0000
vt 0.5895 0.5000 0.0000
vt 0.2363 0.2500 0.0000
vt 0.5895 0.7500 0.0000
vt 0.5895 0.2500 0.0000
vt 0.2363 0.0000 0.0000
vt 0.5895 0.0000 0.0000
vt 0.2363 0.7500 0.0000
vt 0.5895 1.0000 0.0000
vt 0.2363 1.0000 0.0000
vt 0.1848 0.5000 0.0000
vt 0.2363 0.5000 0.0000
vt 0.1848 0.2500 0.0000
vt 0.2363 0.7500 0.0000
vt 0.2363 0.2500 0.0000
vt 0.1848 0.0000 0.0000
vt 0.2363 0.0000 0.0000
vt 0.1848 0.7500 0.0000
vt 0.2363 1.0000 0.0000
vt 0.1848 1.0000 0.0000
vt 0.0762 0.5000 0.0000
vt 0.1848 0.5000 0.0000
vt 0.0762 0.2500 0.0000
vt 0.1848 0.7500 0.0000
vt 0.1848 0.2500 0.0000
vt 0.0762 0.0000 0.0000
vt 0.1848 0.0000 0.0000
vt 0.0762 0.7500 0.0000
vt 0.1848 1.0000 0.0000
vt 0.0762 1.0000 0.0000
vt 0.0000 0.5000 0.0000
vt 0.0762 0.5000 0.0000
vt 0.0000 0.2500 0.0000
vt 0.0762 0.7500 0.0000
vt 0.0762 0.2500 0.0000
vt 0.0000 0.0000 0.0000
vt 0.0762 0.0000 0.0000
vt 0.0000 0.7500 0.0000
vt 0.0762 1.0000 0.0000
vt 0.0000 1.0000 0.0000
vt 0.8231 0.5000 0.0000
vt 0.8231 0.2500 0.0000
vt 1.0000 0.5000 0.0000
vt 1.0000 0.7500 0.0000
vt 1.0000 0.2500 0.0000
vt 0.8231 0.0000 0.0000
vt 1.0000 0.0000 0.0000
vt 0.8231 0.7500 0.0000
vt 1.0000 1.0000 0.0000
vt 0.8231 1.0000 0.0000
vt 0.7505 0.5000 0.0000
vt 0.7505 0.2500 0.0000
vt 0.8231 0.5000 0.0000
vt 0.8231 0.7500 0.0000
vt 0.8231 0.2500 0.0000
vt 0.7505 0.0000 0.0000
vt 0.8231 0.0000 0.0000
vt 0.7505 0.7500 0.0000
vt 0.8231 1.0000 0.0000
vt 0.7505 1.0000 0.0000
vt 0.6383 0.5000 0.0000
vt 0.6383 0.2500 0.0000
vt 0.7505 0.5000 0.0000
vt 0.7505 0.7500 0.0000
vt 0.7505 0.2500 0.0000
vt 0.6383 0.0000 0.0000
vt 0.7505 0.0000 0.0000
vt 0.6383 0.7500 0.0000
vt 0.7505 1.0000 0.0000
vt 0.6383 1.0000 0.0000
vt 0.5895 0.5000 0.0000
vt 0.5895 0.2500 0.0000
vt 0.6383 0.5000 0.0000
vt 0.6383 0.7500 0.0000
vt 0.6383 0.2500 0.0000
vt 0.5895 0.0000 0.0000
vt 0.6383 0.0000 0.0000
vt 0.5895 0.7500 0.0000
vt 0.6383 1.0000 0.0000
vt 0.5895 1.0000 0.0000
# 80 texture coords

g ok
s 1
f 1/1/1 2/2/1 3/3/1 
f 2/2/1 1/1/1 4/4/1 
f 3/3/1 2/2/1 5/5/1 
f 3/3/1 5/5/1 6/6/1 
f 7/7/1 6/6/1 5/5/1 
f 8/8/1 4/4/1 1/1/1 
f 8/8/1 9/9/1 4/4/1 
f 10/10/1 9/9/1 8/8/1 
f 11/11/2 1/12/2 12/13/2 
f 1/12/2 11/11/2 8/14/2 
f 12/13/2 1/12/2 3/15/2 
f 12/13/2 3/15/2 13/16/2 
f 6/17/2 13/16/2 3/15/2 
f 14/18/2 8/14/2 11/11/2 
f 14/18/2 10/19/2 8/14/2 
f 15/20/2 10/19/2 14/18/2 
f 16/21/3 11/22/3 17/23/3 
f 11/22/3 16/21/3 14/24/3 
f 17/23/3 11/22/3 12/25/3 
f 17/23/3 12/25/3 18/26/3 
f 13/27/3 18/26/3 12/25/3 
f 19/28/3 14/24/3 16/21/3 
f 19/28/3 15/29/3 14/24/3 
f 20/30/3 15/29/3 19/28/3 
f 21/31/4 16/32/4 22/33/4 
f 16/32/4 21/31/4 19/34/4 
f 22/33/4 16/32/4 17/35/4 
f 22/33/4 17/35/4 23/36/4 
f 18/37/4 23/36/4 17/35/4 
f 24/38/4 19/34/4 21/31/4 
f 24/38/4 20/39/4 19/34/4 
f 25/40/4 20/39/4 24/38/4 
f 21/41/5 22/42/5 26/43/5 
f 26/43/5 27/44/5 21/41/5 
f 22/42/5 28/45/5 26/43/5 
f 22/42/5 23/46/5 28/45/5 
f 29/47/5 28/45/5 23/46/5 
f 24/48/5 21/41/5 27/44/5 
f 24/48/5 27/44/5 30/49/5 
f 25/50/5 24/48/5 30/49/5 
f 26/51/6 28/52/6 31/53/6 
f 31/53/6 32/54/6 26/51/6 
f 28/52/6 33/55/6 31/53/6 
f 28/52/6 29/56/6 33/55/6 
f 34/57/6 33/55/6 29/56/6 
f 27/58/6 26/51/6 32/54/6 
f 27/58/6 32/54/6 35/59/6 
f 30/60/6 27/58/6 35/59/6 
f 31/61/7 33/62/7 36/63/7 
f 36/63/7 37/64/7 31/61/7 
f 33/62/7 38/65/7 36/63/7 
f 33/62/7 34/66/7 38/65/7 
f 39/67/7 38/65/7 34/66/7 
f 32/68/7 31/61/7 37/64/7 
f 32/68/7 37/64/7 40/69/7 
f 35/70/7 32/68/7 40/69/7 
f 36/71/8 38/72/8 41/73/8 
f 41/73/8 42/74/8 36/71/8 
f 38/72/8 43/75/8 41/73/8 
f 38/72/8 39/76/8 43/75/8 
f 44/77/8 43/75/8 39/76/8 
f 37/78/8 36/71/8 42/74/8 
f 37/78/8 42/74/8 45/79/8 
f 40/80/8 37/78/8 45/79/8 
# 64 faces

