# 3ds Max Wavefront OBJ Exporter v0.97b - (c)2007 guruware
# File Created: 06.01.2016 00:29:59

#
# object ok1
#

v  15.9000 1.1159 -32.0000
v  15.7975 -0.3000 -32.0000
v  15.9000 1.1159 -0.0000
v  15.7975 -0.3000 0.0000
v  15.9000 1.1159 32.0000
v  15.7975 -0.3000 32.0000
v  16.4918 -2.0000 -32.0000
v  16.4918 -2.0000 -0.0000
v  15.9000 1.1159 0.0000
v  16.4918 -2.0000 32.0000
v  15.0697 -4.5000 -32.0000
v  15.0697 -4.5000 -0.0000
v  16.4918 -2.0000 0.0000
v  15.0697 -4.5000 32.0000
v  15.0697 -4.5000 0.0000
v  -15.0697 -4.5000 -32.0000
v  -15.0697 -4.5000 0.0000
v  -15.0697 -4.5000 32.0000
v  -15.0697 -4.5000 -0.0000
v  -16.4918 -2.0000 -32.0000
v  -16.4918 -2.0000 0.0000
v  -16.4918 -2.0000 32.0000
v  -16.4918 -2.0000 -0.0000
v  -15.9000 1.1159 -32.0000
v  -15.9000 1.1159 0.0000
v  -15.9000 1.1159 32.0000
v  -15.9000 1.1159 -0.0000
v  -15.7975 -0.3000 -32.0000
v  -15.7975 -0.3000 0.0000
v  -15.7975 -0.3000 32.0000
v  0.0000 -0.3000 0.0000
v  -8.2000 -0.3000 0.0000
v  8.2000 -0.3000 0.0000
v  15.7975 -0.3000 -0.0000
v  8.2000 -0.3000 32.0000
v  -0.0000 -0.3000 32.0000
v  -8.2000 -0.3000 32.0000
# 37 vertices

vn -0.9974 0.0722 -0.0000
vn 0.9824 0.1866 -0.0000
vn 0.8692 -0.4944 -0.0000
vn 0.0000 -1.0000 -0.0000
vn -0.8692 -0.4944 -0.0000
vn -0.9824 0.1866 -0.0000
vn 0.9974 0.0722 -0.0000
vn 0.0000 1.0000 -0.0000
# 8 vertex normals

vt 0.1848 1.0000 0.0000
vt 0.2363 1.0000 0.0000
vt 0.1848 0.5000 0.0000
vt 0.2363 0.5000 0.0000
vt 0.1848 0.0000 0.0000
vt 0.2363 0.0000 0.0000
vt 0.0762 1.0000 0.0000
vt 0.1848 1.0000 0.0000
vt 0.0762 0.5000 0.0000
vt 0.1848 0.5000 0.0000
vt 0.0762 0.0000 0.0000
vt 0.1848 0.0000 0.0000
vt 0.0000 1.0000 0.0000
vt 0.0762 1.0000 0.0000
vt 0.0000 0.5000 0.0000
vt 0.0762 0.5000 0.0000
vt 0.0000 0.0000 0.0000
vt 0.0762 0.0000 0.0000
vt 0.8231 1.0000 0.0000
vt 0.8231 0.5000 0.0000
vt 1.0000 1.0000 0.0000
vt 1.0000 0.5000 0.0000
vt 0.8231 0.0000 0.0000
vt 1.0000 0.0000 0.0000
vt 0.7505 1.0000 0.0000
vt 0.7505 0.5000 0.0000
vt 0.8231 1.0000 0.0000
vt 0.8231 0.5000 0.0000
vt 0.7505 0.0000 0.0000
vt 0.8231 0.0000 0.0000
vt 0.6383 1.0000 0.0000
vt 0.6383 0.5000 0.0000
vt 0.7505 1.0000 0.0000
vt 0.7505 0.5000 0.0000
vt 0.6383 0.0000 0.0000
vt 0.7505 0.0000 0.0000
vt 0.5895 1.0000 0.0000
vt 0.5895 0.5000 0.0000
vt 0.6383 1.0000 0.0000
vt 0.6383 0.5000 0.0000
vt 0.5895 0.0000 0.0000
vt 0.6383 0.0000 0.0000
vt 0.4143 0.5000 0.0000
vt 0.2363 1.0000 0.0000
vt 0.5895 1.0000 0.0000
vt 0.5155 0.5000 0.0000
vt 0.3145 0.5000 0.0000
vt 0.2363 0.5000 0.0000
vt 0.5895 0.5000 0.0000
vt 0.3145 0.0000 0.0000
vt 0.2363 0.0000 0.0000
vt 0.4142 0.0000 0.0000
vt 0.5155 0.0000 0.0000
vt 0.5895 0.0000 0.0000
# 54 texture coords

g ok1
s 1
f 1/1/1 2/2/1 3/3/1 
f 3/3/1 2/2/1 4/4/1 
f 3/3/1 4/4/1 5/5/1 
f 6/6/1 5/5/1 4/4/1 
f 7/7/2 1/8/2 8/9/2 
f 8/9/2 1/8/2 9/10/2 
f 8/9/2 9/10/2 10/11/2 
f 5/12/2 10/11/2 9/10/2 
f 11/13/3 7/14/3 12/15/3 
f 12/15/3 7/14/3 13/16/3 
f 12/15/3 13/16/3 14/17/3 
f 10/18/3 14/17/3 13/16/3 
f 11/19/4 15/20/4 16/21/4 
f 15/20/4 17/22/4 16/21/4 
f 15/20/4 14/23/4 17/22/4 
f 18/24/4 17/22/4 14/23/4 
f 16/25/5 19/26/5 20/27/5 
f 19/26/5 21/28/5 20/27/5 
f 19/26/5 18/29/5 21/28/5 
f 22/30/5 21/28/5 18/29/5 
f 20/31/6 23/32/6 24/33/6 
f 23/32/6 25/34/6 24/33/6 
f 23/32/6 22/35/6 25/34/6 
f 26/36/6 25/34/6 22/35/6 
f 24/37/7 27/38/7 28/39/7 
f 27/38/7 29/40/7 28/39/7 
f 27/38/7 26/41/7 29/40/7 
f 30/42/7 29/40/7 26/41/7 
f 31/43/8 2/44/8 28/45/8 
f 28/45/8 32/46/8 31/43/8 
f 31/43/8 33/47/8 2/44/8 
f 2/44/8 33/47/8 34/48/8 
f 29/49/8 32/46/8 28/45/8 
f 33/47/8 35/50/8 34/48/8 
f 34/48/8 35/50/8 6/51/8 
f 36/52/8 35/50/8 33/47/8 
f 36/52/8 33/47/8 31/43/8 
f 31/43/8 37/53/8 36/52/8 
f 32/46/8 37/53/8 31/43/8 
f 30/54/8 37/53/8 32/46/8 
f 30/54/8 32/46/8 29/49/8 
# 41 faces

