# 3ds Max Wavefront OBJ Exporter v0.97b - (c)2007 guruware
# File Created: 01.01.2016 11:18:26

#
# object Plane001
#

v  16.0000 -0.3000 -0.0000
v  13.0000 -0.3000 -0.0000
v  13.0000 -0.3000 16.0000
v  16.0000 -0.3000 16.0000
v  16.0000 -0.3000 -32.0000
v  13.0000 -0.3000 -32.0000
v  13.0000 -0.3000 -16.0000
v  16.0000 -0.3000 -16.0000
v  -16.0000 -0.3000 32.0000
v  -13.0000 -0.3000 32.0000
v  -13.0000 -0.3000 16.0000
v  -16.0000 -0.3000 16.0000
v  -13.0000 -0.3000 -0.0000
v  0.0000 -0.3000 16.0000
v  0.0000 -0.3000 -0.0000
v  -13.0000 -0.3000 -32.0000
v  -13.0000 -0.3000 -16.0000
v  0.0000 -0.3000 -16.0000
v  0.0000 -0.3000 -32.0000
v  13.0000 -0.3000 32.0000
v  0.0000 -0.3000 32.0000
v  16.0000 -0.3000 32.0000
v  -16.0000 -0.3000 -0.0000
v  -16.0000 -0.3000 -32.0000
v  -16.0000 -0.3000 -16.0000
# 25 vertices

vn 0.0000 1.0000 -0.0000
# 1 vertex normals

vt 0.9110 0.5000 0.0000
vt 0.8079 0.5000 0.0000
vt 0.8079 0.2500 0.0000
vt 0.9110 0.2500 0.0000
vt 0.9110 1.0000 0.0000
vt 0.8079 1.0000 0.0000
vt 0.8079 0.7500 0.0000
vt 0.9110 0.7500 0.0000
vt 0.0860 0.0000 0.0000
vt 0.1891 0.0000 0.0000
vt 0.1891 0.2500 0.0000
vt 0.0860 0.2500 0.0000
vt 0.1891 0.5000 0.0000
vt 0.4985 0.2500 0.0000
vt 0.4985 0.5000 0.0000
vt 0.1891 1.0000 0.0000
vt 0.1891 0.7500 0.0000
vt 0.4985 0.7500 0.0000
vt 0.4985 1.0000 0.0000
vt 0.8079 0.0000 0.0000
vt 0.4985 0.0000 0.0000
vt 0.9110 0.0000 0.0000
vt 0.0860 0.5000 0.0000
vt 0.0860 1.0000 0.0000
vt 0.0860 0.7500 0.0000
# 25 texture coords

g Plane001
s 1
f 1/1/1 2/2/1 3/3/1 
f 3/3/1 4/4/1 1/1/1 
f 5/5/1 6/6/1 7/7/1 
f 7/7/1 8/8/1 5/5/1 
f 8/8/1 7/7/1 2/2/1 
f 2/2/1 1/1/1 8/8/1 
f 9/9/1 10/10/1 11/11/1 
f 11/11/1 12/12/1 9/9/1 
f 13/13/1 11/11/1 14/14/1 
f 14/14/1 15/15/1 13/13/1 
f 16/16/1 17/17/1 18/18/1 
f 18/18/1 19/19/1 16/16/1 
f 17/17/1 13/13/1 15/15/1 
f 15/15/1 18/18/1 17/17/1 
f 20/20/1 3/3/1 14/14/1 
f 14/14/1 21/21/1 20/20/1 
f 15/15/1 14/14/1 3/3/1 
f 3/3/1 2/2/1 15/15/1 
f 19/19/1 18/18/1 7/7/1 
f 7/7/1 6/6/1 19/19/1 
f 18/18/1 15/15/1 2/2/1 
f 2/2/1 7/7/1 18/18/1 
f 22/22/1 4/4/1 3/3/1 
f 3/3/1 20/20/1 22/22/1 
f 21/21/1 14/14/1 11/11/1 
f 11/11/1 10/10/1 21/21/1 
f 23/23/1 12/12/1 11/11/1 
f 11/11/1 13/13/1 23/23/1 
f 24/24/1 25/25/1 17/17/1 
f 17/17/1 16/16/1 24/24/1 
f 25/25/1 23/23/1 13/13/1 
f 13/13/1 17/17/1 25/25/1 
# 32 faces

