# 3ds Max Wavefront OBJ Exporter v0.97b - (c)2007 guruware
# File Created: 09.01.2016 13:10:54

#
# object Plane005
#

v  -14.5000 -0.3000 -0.0000
v  -12.0000 -0.3000 -0.0000
v  -12.0000 -0.3000 -16.0000
v  -14.2500 -0.3000 -16.0000
v  -14.2500 6.2500 -16.0000
v  -14.5000 6.5000 0.0000
v  14.5000 6.5000 -0.0000
v  14.5000 -0.3000 -0.0000
v  14.7500 -0.3000 16.0000
v  14.7500 6.7500 16.0000
v  14.2500 6.2500 -16.0000
v  -0.0000 6.5000 -0.0000
v  0.0000 6.2500 -16.0000
v  16.0000 -1.1250 16.0000
v  16.0000 -1.7500 -0.0000
v  16.0000 7.5000 -0.0000
v  16.0000 7.5000 16.0000
v  -16.0000 -1.7500 -0.0000
v  -16.0000 7.5000 -0.0000
v  -16.0000 7.5000 -16.0000
v  -16.0000 -2.3750 -16.0000
v  -0.0000 7.5000 -0.0000
v  -0.0000 7.5000 -16.0000
v  12.0000 -0.3000 -0.0000
v  14.2500 -0.3000 -16.0000
v  12.0000 -0.3000 -16.0000
v  -0.0000 7.5000 16.0000
v  -0.0000 6.7500 16.0000
v  -14.7500 6.7500 16.0000
v  -0.0000 -0.3000 -0.0000
v  -0.0000 -0.3000 -16.0000
v  -0.0000 -0.3000 16.0000
v  12.0000 -0.3000 16.0000
v  -1.0000 -0.3000 -27.1670
v  -1.0000 6.1003 -27.1670
v  -1.0000 6.0000 -32.0000
v  -1.0000 -0.3000 -32.0000
v  1.0000 -0.3000 -27.1670
v  1.0000 -0.3000 -32.0000
v  1.0000 6.0000 -32.0000
v  1.0000 6.1003 -27.1670
v  -15.0000 -0.3000 32.0000
v  -12.0000 -0.3000 32.0000
v  -12.0000 -0.3000 16.0000
v  -14.7500 -0.3000 16.0000
v  -12.0000 -0.3000 -32.0000
v  -14.0000 -0.3000 -32.0000
v  -15.0000 7.0000 32.0000
v  -14.0000 6.0000 -32.0000
v  14.0000 6.0000 -32.0000
v  14.0000 -0.3000 -32.0000
v  15.0000 -0.3000 32.0000
v  15.0000 7.0000 32.0000
v  -0.0000 7.0000 32.0000
v  0.0000 6.0000 -32.0000
v  16.0000 -2.3750 -16.0000
v  16.0000 -3.0000 -32.0000
v  16.0000 7.5000 -32.0000
v  16.0000 7.5000 -16.0000
v  16.0000 7.5000 32.0000
v  16.0000 -0.5000 32.0000
v  -16.0000 -0.5000 32.0000
v  -16.0000 7.5000 32.0000
v  -16.0000 7.5000 16.0000
v  -16.0000 -1.1250 16.0000
v  -16.0000 7.5000 -32.0000
v  -16.0000 -3.0000 -32.0000
v  -0.0000 7.5000 32.0000
v  -0.0000 7.5000 -32.0000
v  12.0000 -0.3000 32.0000
v  12.0000 -0.3000 -32.0000
v  -0.0000 -0.3000 32.0000
v  -0.0000 -0.3000 -32.0000
# 73 vertices

vn -0.0000 1.0000 -0.0000
vn 0.0000 1.0000 -0.0000
vn 0.9999 0.0000 0.0156
vn 0.9999 -0.0000 0.0156
vn -0.9999 0.0000 0.0156
vn -0.9999 -0.0000 0.0156
vn 0.0000 -0.9999 0.0156
vn 1.0000 -0.0000 -0.0000
vn 1.0000 0.0000 -0.0000
vn -1.0000 -0.0000 -0.0000
vn -0.0000 1.0000 0.0000
vn -1.0000 0.0000 0.0000
vn 1.0000 0.0000 0.0000
vn 0.0000 0.0000 1.0000
vn -1.0000 0.0000 -0.0000
# 15 vertex normals

vt 0.6970 0.0000 0.0000
vt 0.6970 1.0000 0.0000
vt 0.7443 1.0000 0.0000
vt 0.7443 0.0000 0.0000
vt 0.6970 1.0000 0.0000
vt 0.6970 0.0000 0.0000
vt 0.7443 0.0000 0.0000
vt 0.7443 1.0000 0.0000
vt 0.7327 1.0000 0.0000
vt 0.7327 1.0000 0.0000
vt 0.7327 0.0000 0.0000
vt 0.7327 0.0000 0.0000
vt 0.7660 1.0000 0.0000
vt 0.7660 0.0000 0.0000
vt 1.0000 1.0000 1.0000
vt 1.0000 1.0000 1.0000
vt 1.0000 1.0000 1.0000
vt 1.0000 1.0000 1.0000
vt 1.0000 1.0000 1.0000
vt 1.0000 1.0000 1.0000
vt 1.0000 1.0000 1.0000
vt 1.0000 1.0000 1.0000
vt 1.0000 1.0000 1.0000
vt 1.0000 1.0000 1.0000
vt 0.2301 0.0001 0.0000
vt 0.1513 0.0002 0.0000
vt 0.1513 0.9999 0.0000
vt 0.2111 0.9166 0.0000
vt 0.1513 1.0000 0.0000
vt 0.1513 0.0001 0.0000
vt -0.0001 0.9999 0.0000
vt -0.0001 0.0002 0.0000
vt -0.0001 0.0001 0.0000
vt -0.0001 1.0000 0.0000
vt 0.0625 0.9999 0.0000
vt 0.0625 0.0001 0.0000
vt 0.0625 0.0002 0.0000
vt 0.0625 1.0000 0.0000
vt 0.7781 0.1261 0.0000
vt 0.8213 0.1261 0.0000
vt 0.8213 0.1261 0.0000
vt 0.7781 0.1261 0.0000
vt 0.8213 0.7089 0.0000
vt 0.7781 0.6993 0.0000
vt 0.7781 0.6993 0.0000
vt 0.8213 0.7089 0.0000
vt 1.0000 1.0000 1.0000
vt 1.0000 1.0000 1.0000
vt 1.0000 1.0000 1.0000
vt 1.0000 1.0000 1.0000
vt 1.0000 1.0000 1.0000
vt 1.0000 1.0000 1.0000
vt 0.6970 0.7500 0.0000
vt 0.6970 0.5000 0.0000
vt 0.6970 0.2500 0.0000
vt -0.0001 0.7500 0.0000
vt -0.0001 0.5000 0.0000
vt -0.0001 0.2501 0.0000
vt 0.6970 0.2500 0.0000
vt 0.6970 0.5000 0.0000
vt 0.6970 0.7500 0.0000
vt -0.0001 0.2501 0.0000
vt -0.0001 0.5000 0.0000
vt -0.0001 0.7500 0.0000
vt 0.7443 0.7500 0.0000
vt 0.7443 0.5000 0.0000
vt 0.7443 0.2500 0.0000
vt 0.7327 0.7500 0.0000
vt 0.7327 0.5000 0.0000
vt 0.7327 0.2500 0.0000
vt 0.7443 0.2500 0.0000
vt 0.7443 0.5000 0.0000
vt 0.7443 0.7500 0.0000
vt 0.7327 0.2500 0.0000
vt 0.7327 0.5000 0.0000
vt 0.7327 0.7500 0.0000
vt 0.7660 0.7500 0.0000
vt 0.7660 0.5000 0.0000
vt 0.7660 0.2500 0.0000
vt 1.0000 1.0000 1.0000
vt 1.0000 1.0000 1.0000
vt 1.0000 1.0000 1.0000
vt 1.0000 1.0000 1.0000
vt 1.0000 1.0000 1.0000
vt 1.0000 1.0000 1.0000
vt 1.0000 1.0000 1.0000
vt 1.0000 1.0000 1.0000
vt 1.0000 1.0000 1.0000
vt 0.1513 0.2501 0.0000
vt 0.1513 0.5000 0.0000
vt 0.1513 0.7500 0.0000
vt 0.0625 0.2501 0.0000
vt 0.0625 0.5000 0.0000
vt 0.0625 0.7500 0.0000
vt 0.1513 0.7500 0.0000
vt 0.1513 0.5000 0.0000
vt 0.1513 0.2501 0.0000
vt 0.0625 0.7500 0.0000
vt 0.0625 0.5000 0.0000
vt 0.0625 0.2501 0.0000
vt 0.2254 0.2292 0.0000
vt 0.2206 0.4584 0.0000
vt 0.2158 0.6875 0.0000
# 103 texture coords

g Plane005
s 1
f 1/63/1 2/99/2 3/98/2 
f 3/98/2 4/64/1 1/63/1 
s 2
f 5/65/3 6/66/3 1/60/3 
f 1/60/3 4/61/4 5/65/3 
s 1
f 7/72/5 8/54/5 9/55/5 
f 9/55/5 10/71/6 7/72/5 
s 4
f 11/76/7 7/75/7 12/78/7 
f 12/78/7 13/77/7 11/76/7 
s 1
f 14/47/8 15/48/8 16/81/8 
f 16/81/8 17/80/9 14/47/8 
f 18/51/10 19/84/10 20/83/10 
f 20/83/10 21/50/10 18/51/10 
s 2
f 19/84/2 22/87/1 23/86/1 
f 23/86/1 20/83/2 19/84/2 
f 24/93/11 8/57/11 25/56/11 
f 25/56/11 26/94/11 24/93/11 
f 16/81/1 22/87/1 27/88/1 
f 27/88/1 17/80/1 16/81/1 
s 4
f 6/69/7 12/78/7 28/79/7 
f 28/79/7 29/70/7 6/69/7 
s 1
f 2/96/2 30/102/1 31/103/1 
f 31/103/1 3/95/2 2/96/2 
f 24/90/1 30/102/1 32/101/1 
f 32/101/1 33/89/1 24/90/1 
s 16
f 34/41/12 35/43/12 36/44/12 
f 36/44/12 37/42/12 34/41/12 
f 38/40/13 39/39/13 40/45/13 
f 40/45/13 41/46/13 38/40/13 
s off
f 35/43/14 34/41/14 38/40/14 
f 38/40/14 41/46/14 35/43/14 
s 1
f 42/33/1 43/36/1 44/100/1 
f 44/100/1 45/62/1 42/33/1 
f 45/62/1 44/100/1 2/99/2 
f 2/99/2 1/63/1 45/62/1 
f 46/38/2 47/34/1 4/64/1 
f 4/64/1 3/98/2 46/38/2 
s 2
f 29/67/4 48/4/3 42/1/4 
f 42/1/4 45/59/3 29/67/4 
f 6/66/3 29/67/4 45/59/3 
f 45/59/3 1/60/3 6/66/3 
f 4/61/4 47/2/3 49/3/3 
f 49/3/3 5/65/3 4/61/4 
s 1
f 50/8/5 51/5/5 25/53/5 
f 25/53/5 11/73/5 50/8/5 
f 11/73/5 25/53/5 8/54/5 
f 8/54/5 7/72/5 11/73/5 
f 52/6/6 53/7/6 10/71/6 
f 10/71/6 9/55/5 52/6/6 
s 4
f 10/74/7 53/11/7 54/14/7 
f 54/14/7 28/79/7 10/74/7 
f 7/75/7 10/74/7 28/79/7 
f 28/79/7 12/78/7 7/75/7 
f 13/77/7 55/13/7 50/10/7 
f 50/10/7 11/76/7 13/77/7 
s 1
f 56/49/9 57/16/9 58/20/9 
f 58/20/9 59/82/8 56/49/9 
f 15/48/8 56/49/9 59/82/8 
f 59/82/8 16/81/8 15/48/8 
f 17/80/9 60/19/9 61/15/9 
f 61/15/9 14/47/8 17/80/9 
f 62/18/15 63/22/15 64/85/15 
f 64/85/15 65/52/15 62/18/15 
f 65/52/15 64/85/15 19/84/10 
f 19/84/10 18/51/10 65/52/15 
f 66/21/15 67/17/15 21/50/10 
f 21/50/10 20/83/10 66/21/15 
s 2
f 63/22/2 68/24/1 27/88/1 
f 27/88/1 64/85/2 63/22/2 
f 64/85/2 27/88/1 22/87/1 
f 22/87/1 19/84/2 64/85/2 
f 69/23/2 66/21/2 20/83/2 
f 20/83/2 23/86/1 69/23/2 
f 70/37/11 52/32/11 9/58/11 
f 9/58/11 33/92/11 70/37/11 
f 33/92/11 9/58/11 8/57/11 
f 8/57/11 24/93/11 33/92/11 
f 51/31/11 71/35/1 26/94/11 
f 26/94/11 25/56/11 51/31/11 
f 58/20/1 69/23/2 23/86/1 
f 23/86/1 59/82/1 58/20/1 
f 59/82/1 23/86/1 22/87/1 
f 22/87/1 16/81/1 59/82/1 
f 68/24/1 60/19/2 17/80/1 
f 17/80/1 27/88/1 68/24/1 
s 4
f 49/9/7 55/13/7 13/77/7 
f 13/77/7 5/68/7 49/9/7 
f 5/68/7 13/77/7 12/78/7 
f 12/78/7 6/69/7 5/68/7 
f 54/14/7 48/12/7 29/70/7 
f 29/70/7 28/79/7 54/14/7 
s 1
f 43/30/1 72/25/1 32/101/1 
f 32/101/1 44/97/1 43/30/1 
f 44/97/1 32/101/1 30/102/1 
f 30/102/1 2/96/2 44/97/1 
f 73/28/1 46/29/2 3/95/2 
f 3/95/2 31/103/1 73/28/1 
f 71/27/1 73/28/1 31/103/1 
f 31/103/1 26/91/1 71/27/1 
f 26/91/1 31/103/1 30/102/1 
f 30/102/1 24/90/1 26/91/1 
f 72/25/1 70/26/1 33/89/1 
f 33/89/1 32/101/1 72/25/1 
# 102 faces

