# 3ds Max Wavefront OBJ Exporter v0.97b - (c)2007 guruware
# File Created: 09.01.2016 22:00:15

#
# object Plane001
#

v  -16.0000 0.0500 -16.0000
v  -16.0000 0.0500 -0.0000
v  16.0000 0.0500 -0.0000
v  16.0000 0.0500 -16.0000
v  -16.0000 0.0500 16.0000
v  -16.0000 0.0500 32.0000
v  16.0000 0.0500 32.0000
v  16.0000 0.0500 16.0000
v  16.0000 0.0500 -32.0000
v  -16.0000 0.0500 -32.0000
# 10 vertices

vn 0.0000 1.0000 -0.0000
# 1 vertex normals

vt -0.0011 1.0000 0.0000
vt -0.0011 0.0000 0.0000
vt 0.5069 0.0000 0.0000
vt 0.5069 1.0000 0.0000
vt -0.0011 0.7500 0.0000
vt -0.0011 0.5000 0.0000
vt -0.0011 0.2500 0.0000
vt 0.5069 0.2500 0.0000
vt 0.5069 0.5000 0.0000
vt 0.5069 0.7500 0.0000
# 10 texture coords

g Plane001
s 1
f 1/5/1 2/6/1 3/9/1 
f 3/9/1 4/10/1 1/5/1 
f 5/7/1 6/2/1 7/3/1 
f 7/3/1 8/8/1 5/7/1 
f 5/7/1 8/8/1 3/9/1 
f 3/9/1 2/6/1 5/7/1 
f 4/10/1 9/4/1 10/1/1 
f 10/1/1 1/5/1 4/10/1 
# 8 faces

