# 3ds Max Wavefront OBJ Exporter v0.97b - (c)2007 guruware
# File Created: 30.12.2015 19:31:49

#
# object Plane001
#

v  16.0000 0.0000 -0.0002
v  12.0000 0.0000 -0.0002
v  12.0000 0.0000 5.3332
v  16.0000 0.0000 5.3332
v  -12.0000 0.0000 -0.0002
v  -16.0000 0.0000 -0.0002
v  -16.0000 0.0000 5.3332
v  -12.0000 0.0000 5.3332
v  12.0000 -0.3000 -0.0002
v  12.0000 -0.3000 5.3332
v  1.0000 0.0000 -26.6670
v  1.0000 -0.3000 -26.6670
v  1.0000 -0.3000 -32.0000
v  1.0000 0.0000 -32.0000
v  -12.0000 0.0000 -26.6670
v  -12.0000 -0.3000 -26.6670
v  -12.0000 -0.3000 -32.0000
v  -12.0000 0.0000 -32.0000
v  16.0000 0.0000 -26.6670
v  19.0000 -3.1650 -26.6670
v  19.0000 -3.1650 -32.0000
v  16.0000 0.0000 -32.0000
v  -19.0000 -3.1650 -26.6670
v  -16.0000 0.0000 -26.6670
v  -16.0000 0.0000 -32.0000
v  -19.0000 -3.1650 -32.0000
v  12.0000 0.0000 -32.0000
v  12.0000 0.0000 -26.6670
v  12.0000 -0.3000 -32.0000
v  12.0000 -0.3000 -26.6670
v  -1.0000 0.0000 -32.0000
v  -1.0000 0.0000 -26.6670
v  -1.0000 -0.3000 -32.0000
v  -1.0000 -0.3000 -26.6670
v  -12.0000 -0.3000 5.3332
v  -12.0000 -0.3000 -0.0002
v  19.0000 -3.1650 5.3332
v  19.0000 -3.1650 -0.0002
v  -19.0000 -3.1650 5.3332
v  -19.0000 -3.1650 -0.0002
v  -0.0000 -0.3000 -26.6670
v  0.0000 -0.3000 5.3332
v  -0.0000 -0.3000 -0.0002
v  12.0000 0.0000 -21.3336
v  16.0000 0.0000 -21.3336
v  12.0000 0.0000 -16.0003
v  16.0000 0.0000 -16.0003
v  12.0000 0.0000 -10.6669
v  16.0000 0.0000 -10.6669
v  12.0000 0.0000 -5.3336
v  16.0000 0.0000 -5.3336
v  12.0000 0.0000 32.0000
v  16.0000 0.0000 32.0000
v  16.0000 0.0000 26.6666
v  12.0000 0.0000 26.6666
v  16.0000 0.0000 21.3333
v  12.0000 0.0000 21.3333
v  16.0000 0.0000 15.9999
v  12.0000 0.0000 15.9999
v  16.0000 0.0000 10.6665
v  12.0000 0.0000 10.6665
v  -16.0000 0.0000 -21.3336
v  -12.0000 0.0000 -21.3336
v  -16.0000 0.0000 -16.0003
v  -12.0000 0.0000 -16.0003
v  -16.0000 0.0000 -10.6669
v  -12.0000 0.0000 -10.6669
v  -16.0000 0.0000 -5.3335
v  -12.0000 0.0000 -5.3335
v  -16.0000 0.0000 32.0000
v  -12.0000 0.0000 32.0000
v  -12.0000 0.0000 26.6666
v  -16.0000 0.0000 26.6666
v  -12.0000 0.0000 21.3333
v  -16.0000 0.0000 21.3333
v  -12.0000 0.0000 15.9999
v  -16.0000 0.0000 15.9999
v  -12.0000 0.0000 10.6666
v  -16.0000 0.0000 10.6666
v  12.0000 -0.3000 -21.3336
v  12.0000 -0.3000 -16.0003
v  12.0000 -0.3000 -10.6669
v  12.0000 -0.3000 -5.3335
v  12.0000 -0.3000 32.0000
v  12.0000 -0.3000 26.6666
v  12.0000 -0.3000 21.3333
v  12.0000 -0.3000 15.9999
v  12.0000 -0.3000 10.6665
v  -12.0000 -0.3000 32.0000
v  -12.0000 -0.3000 26.6666
v  -12.0000 -0.3000 21.3333
v  -12.0000 -0.3000 15.9999
v  -12.0000 -0.3000 10.6665
v  -12.0000 -0.3000 -21.3336
v  -12.0000 -0.3000 -16.0003
v  -12.0000 -0.3000 -10.6669
v  -12.0000 -0.3000 -5.3335
v  19.0000 -3.1650 32.0000
v  19.0000 -3.1650 26.6666
v  19.0000 -3.1650 21.3333
v  19.0000 -3.1650 15.9999
v  19.0000 -3.1650 10.6665
v  19.0000 -3.1650 -21.3336
v  19.0000 -3.1650 -16.0003
v  19.0000 -3.1650 -10.6669
v  19.0000 -3.1650 -5.3336
v  -19.0000 -3.1650 32.0000
v  -19.0000 -3.1650 26.6666
v  -19.0000 -3.1650 21.3333
v  -19.0000 -3.1650 15.9999
v  -19.0000 -3.1650 10.6666
v  -19.0000 -3.1650 -21.3336
v  -19.0000 -3.1650 -16.0003
v  -19.0000 -3.1650 -10.6669
v  -19.0000 -3.1650 -5.3335
v  0.0000 -0.3000 32.0000
v  0.0000 -0.3000 26.6666
v  0.0000 -0.3000 21.3333
v  0.0000 -0.3000 15.9999
v  0.0000 -0.3000 10.6665
v  -0.0000 -0.3000 -21.3336
v  -0.0000 -0.3000 -16.0003
v  -0.0000 -0.3000 -10.6669
v  -0.0000 -0.3000 -5.3335
# 124 vertices

vn 0.0000 1.0000 -0.0000
vn -1.0000 0.0000 0.0000
vn 1.0000 0.0000 -0.0000
vn 0.7258 0.6879 -0.0000
vn -0.7258 0.6879 0.0000
vn 0.0000 0.0000 1.0000
# 6 vertex normals

vt 0.4998 0.5455 0.0000
vt 0.4378 0.5455 0.0000
vt 0.4378 0.4546 0.0000
vt 0.4998 0.4546 0.0000
vt 0.0625 0.5000 0.0000
vt -0.0000 0.5000 0.0000
vt -0.0000 0.4167 0.0000
vt 0.0625 0.4167 0.0000
vt 0.4378 0.5000 0.0000
vt 0.4378 0.4167 0.0000
vt 0.2637 0.9167 0.0000
vt 0.2637 1.0000 0.0000
vt 0.0625 0.9167 0.0000
vt 0.0625 1.0000 0.0000
vt 0.4389 0.9167 0.0000
vt 0.5005 0.9167 0.0000
vt 0.5005 1.0000 0.0000
vt 0.4389 1.0000 0.0000
vt 0.0000 0.9167 0.0000
vt 0.0000 1.0000 0.0000
vt 0.5004 1.0000 0.0000
vt 0.4378 1.0000 0.0000
vt 0.4378 0.9167 0.0000
vt 0.5004 0.9167 0.0000
vt 0.4166 1.0000 0.0000
vt 0.3914 1.0000 0.0000
vt 0.3914 0.9167 0.0000
vt 0.4166 0.9167 0.0000
vt 0.2373 1.0000 0.0000
vt 0.2373 0.9167 0.0000
vt 0.3868 1.0000 0.0000
vt 0.3615 1.0000 0.0000
vt 0.3615 0.9167 0.0000
vt 0.3868 0.9167 0.0000
vt -0.0000 1.0000 0.0000
vt -0.0000 0.9167 0.0000
vt 0.4389 0.4546 0.0000
vt 0.4999 0.4546 0.0000
vt 0.4999 0.5455 0.0000
vt 0.4389 0.5455 0.0000
vt 0.0000 0.4167 0.0000
vt 0.0000 0.5000 0.0000
vt 0.2636 0.9167 0.0000
vt 0.3891 0.4167 0.0000
vt 0.4166 0.4167 0.0000
vt 0.4166 0.5000 0.0000
vt 0.3891 0.5000 0.0000
vt 0.3615 0.4167 0.0000
vt 0.3615 0.5000 0.0000
vt 0.4998 1.0002 0.0000
vt 0.4378 1.0002 0.0000
vt 0.4378 0.9092 0.0000
vt 0.4998 0.9092 0.0000
vt 0.4378 0.8183 0.0000
vt 0.4998 0.8183 0.0000
vt 0.4378 0.7274 0.0000
vt 0.4998 0.7274 0.0000
vt 0.4378 0.6365 0.0000
vt 0.4998 0.6365 0.0000
vt 0.4378 0.0000 0.0000
vt 0.4998 0.0000 0.0000
vt 0.4998 0.0909 0.0000
vt 0.4378 0.0909 0.0000
vt 0.4998 0.1818 0.0000
vt 0.4378 0.1818 0.0000
vt 0.4998 0.2728 0.0000
vt 0.4378 0.2728 0.0000
vt 0.4998 0.3637 0.0000
vt 0.4378 0.3637 0.0000
vt -0.0000 0.8333 0.0000
vt 0.0625 0.8333 0.0000
vt -0.0000 0.7500 0.0000
vt 0.0625 0.7500 0.0000
vt -0.0000 0.6667 0.0000
vt 0.0625 0.6667 0.0000
vt -0.0000 0.5833 0.0000
vt 0.0625 0.5833 0.0000
vt -0.0000 0.0000 0.0000
vt 0.0625 0.0000 0.0000
vt 0.0625 0.0833 0.0000
vt -0.0000 0.0833 0.0000
vt 0.0625 0.1667 0.0000
vt -0.0000 0.1667 0.0000
vt 0.0625 0.2500 0.0000
vt -0.0000 0.2500 0.0000
vt 0.0625 0.3333 0.0000
vt -0.0000 0.3333 0.0000
vt 0.4378 0.8333 0.0000
vt 0.4378 0.7500 0.0000
vt 0.4378 0.6667 0.0000
vt 0.4378 0.5833 0.0000
vt 0.4378 0.0833 0.0000
vt 0.4378 0.1667 0.0000
vt 0.4378 0.2500 0.0000
vt 0.4378 0.3333 0.0000
vt 0.4389 0.0000 0.0000
vt 0.4999 0.0000 0.0000
vt 0.4999 0.0909 0.0000
vt 0.4389 0.0909 0.0000
vt 0.4999 0.1818 0.0000
vt 0.4389 0.1818 0.0000
vt 0.4999 0.2728 0.0000
vt 0.4389 0.2728 0.0000
vt 0.4999 0.3637 0.0000
vt 0.4389 0.3637 0.0000
vt 0.4999 1.0002 0.0000
vt 0.4389 1.0002 0.0000
vt 0.4389 0.9092 0.0000
vt 0.4999 0.9092 0.0000
vt 0.4389 0.8183 0.0000
vt 0.4999 0.8183 0.0000
vt 0.4389 0.7274 0.0000
vt 0.4999 0.7274 0.0000
vt 0.4389 0.6365 0.0000
vt 0.4999 0.6365 0.0000
vt 0.0000 0.0000 0.0000
vt 0.0000 0.0833 0.0000
vt 0.0000 0.1667 0.0000
vt 0.0000 0.2500 0.0000
vt 0.0000 0.3333 0.0000
vt 0.0000 0.8333 0.0000
vt 0.0000 0.7500 0.0000
vt 0.0000 0.6667 0.0000
vt 0.0000 0.5833 0.0000
vt 0.3891 0.0000 0.0000
vt 0.4166 0.0000 0.0000
vt 0.4166 0.0833 0.0000
vt 0.3891 0.0833 0.0000
vt 0.4166 0.1667 0.0000
vt 0.3891 0.1667 0.0000
vt 0.4166 0.2500 0.0000
vt 0.3891 0.2500 0.0000
vt 0.4166 0.3333 0.0000
vt 0.3891 0.3333 0.0000
vt 0.3891 0.9167 0.0000
vt 0.3891 0.8333 0.0000
vt 0.4166 0.8333 0.0000
vt 0.3891 0.7500 0.0000
vt 0.4166 0.7500 0.0000
vt 0.3891 0.6667 0.0000
vt 0.4166 0.6667 0.0000
vt 0.3891 0.5833 0.0000
vt 0.4166 0.5833 0.0000
vt 0.3615 0.0000 0.0000
vt 0.3615 0.0833 0.0000
vt 0.3615 0.1667 0.0000
vt 0.3615 0.2500 0.0000
vt 0.3615 0.3333 0.0000
vt 0.3615 0.8333 0.0000
vt 0.3615 0.7500 0.0000
vt 0.3615 0.6667 0.0000
vt 0.3615 0.5833 0.0000
# 152 texture coords

g Plane001
s 1
f 1/1/1 2/2/1 3/3/1 
f 3/3/1 4/4/1 1/1/1 
f 5/5/1 6/6/1 7/7/1 
f 7/7/1 8/8/1 5/5/1 
s off
f 2/9/2 9/9/2 10/10/2 
f 10/10/2 3/10/2 2/9/2 
f 11/11/3 12/11/3 13/12/3 
f 13/12/3 14/12/3 11/11/3 
f 15/13/3 16/13/3 17/14/3 
f 17/14/3 18/14/3 15/13/3 
f 19/15/4 20/16/4 21/17/4 
f 21/17/4 22/18/4 19/15/4 
f 23/19/5 24/13/5 25/14/5 
f 25/14/5 26/20/5 23/19/5 
s 1
f 22/21/1 27/22/1 28/23/1 
f 28/23/1 19/24/1 22/21/1 
f 29/25/1 13/26/1 12/27/1 
f 12/27/1 30/28/1 29/25/1 
f 14/12/1 31/29/1 32/30/1 
f 32/30/1 11/11/1 14/12/1 
f 33/31/1 17/32/1 16/33/1 
f 16/33/1 34/34/1 33/31/1 
f 18/14/1 25/35/1 24/36/1 
f 24/36/1 15/13/1 18/14/1 
s off
f 27/22/2 29/22/2 30/23/2 
f 30/23/2 28/23/2 27/22/2 
f 31/29/2 33/29/2 34/30/2 
f 34/30/2 32/30/2 31/29/2 
f 8/8/3 35/8/3 36/5/3 
f 36/5/3 5/5/3 8/8/3 
f 4/37/4 37/38/4 38/39/4 
f 38/39/4 1/40/4 4/37/4 
f 39/41/5 7/8/5 6/5/5 
f 6/5/5 40/42/5 39/41/5 
f 12/11/6 11/11/6 41/43/6 
f 41/43/6 32/30/6 34/30/6 
f 41/43/6 11/11/6 32/30/6 
f 42/44/1 10/45/1 9/46/1 
f 9/46/1 43/47/1 42/44/1 
f 35/48/1 42/44/1 43/47/1 
f 43/47/1 36/49/1 35/48/1 
s 1
f 19/50/1 28/51/1 44/52/1 
f 44/52/1 45/53/1 19/50/1 
f 45/53/1 44/52/1 46/54/1 
f 46/54/1 47/55/1 45/53/1 
f 47/55/1 46/54/1 48/56/1 
f 48/56/1 49/57/1 47/55/1 
f 49/57/1 48/56/1 50/58/1 
f 50/58/1 51/59/1 49/57/1 
f 51/59/1 50/58/1 2/2/1 
f 2/2/1 1/1/1 51/59/1 
f 52/60/1 53/61/1 54/62/1 
f 54/62/1 55/63/1 52/60/1 
f 55/63/1 54/62/1 56/64/1 
f 56/64/1 57/65/1 55/63/1 
f 57/65/1 56/64/1 58/66/1 
f 58/66/1 59/67/1 57/65/1 
f 59/67/1 58/66/1 60/68/1 
f 60/68/1 61/69/1 59/67/1 
f 61/69/1 60/68/1 4/4/1 
f 4/4/1 3/3/1 61/69/1 
f 15/13/1 24/36/1 62/70/1 
f 62/70/1 63/71/1 15/13/1 
f 63/71/1 62/70/1 64/72/1 
f 64/72/1 65/73/1 63/71/1 
f 65/73/1 64/72/1 66/74/1 
f 66/74/1 67/75/1 65/73/1 
f 67/75/1 66/74/1 68/76/1 
f 68/76/1 69/77/1 67/75/1 
f 69/77/1 68/76/1 6/6/1 
f 6/6/1 5/5/1 69/77/1 
f 70/78/1 71/79/1 72/80/1 
f 72/80/1 73/81/1 70/78/1 
f 73/81/1 72/80/1 74/82/1 
f 74/82/1 75/83/1 73/81/1 
f 75/83/1 74/82/1 76/84/1 
f 76/84/1 77/85/1 75/83/1 
f 77/85/1 76/84/1 78/86/1 
f 78/86/1 79/87/1 77/85/1 
f 79/87/1 78/86/1 8/8/1 
f 8/8/1 7/7/1 79/87/1 
s off
f 28/23/2 30/23/2 80/88/2 
f 80/88/2 44/88/2 28/23/2 
f 44/88/2 80/88/2 81/89/2 
f 81/89/2 46/89/2 44/88/2 
f 46/89/2 81/89/2 82/90/2 
f 82/90/2 48/90/2 46/89/2 
f 48/90/2 82/90/2 83/91/2 
f 83/91/2 50/91/2 48/90/2 
f 50/91/2 83/91/2 9/9/2 
f 9/9/2 2/9/2 50/91/2 
f 84/60/2 52/60/2 55/92/2 
f 55/92/2 85/92/2 84/60/2 
f 85/92/2 55/92/2 57/93/2 
f 57/93/2 86/93/2 85/92/2 
f 86/93/2 57/93/2 59/94/2 
f 59/94/2 87/94/2 86/93/2 
f 87/94/2 59/94/2 61/95/2 
f 61/95/2 88/95/2 87/94/2 
f 88/95/2 61/95/2 3/10/2 
f 3/10/2 10/10/2 88/95/2 
f 71/79/3 89/79/3 90/80/3 
f 90/80/3 72/80/3 71/79/3 
f 72/80/3 90/80/3 91/82/3 
f 91/82/3 74/82/3 72/80/3 
f 74/82/3 91/82/3 92/84/3 
f 92/84/3 76/84/3 74/82/3 
f 76/84/3 92/84/3 93/86/3 
f 93/86/3 78/86/3 76/84/3 
f 78/86/3 93/86/3 35/8/3 
f 35/8/3 8/8/3 78/86/3 
f 16/13/3 15/13/3 63/71/3 
f 63/71/3 94/71/3 16/13/3 
f 94/71/3 63/71/3 65/73/3 
f 65/73/3 95/73/3 94/71/3 
f 95/73/3 65/73/3 67/75/3 
f 67/75/3 96/75/3 95/73/3 
f 96/75/3 67/75/3 69/77/3 
f 69/77/3 97/77/3 96/75/3 
f 97/77/3 69/77/3 5/5/3 
f 5/5/3 36/5/3 97/77/3 
f 53/96/4 98/97/4 99/98/4 
f 99/98/4 54/99/4 53/96/4 
f 54/99/4 99/98/4 100/100/4 
f 100/100/4 56/101/4 54/99/4 
f 56/101/4 100/100/4 101/102/4 
f 101/102/4 58/103/4 56/101/4 
f 58/103/4 101/102/4 102/104/4 
f 102/104/4 60/105/4 58/103/4 
f 60/105/4 102/104/4 37/38/4 
f 37/38/4 4/37/4 60/105/4 
f 20/106/4 19/107/4 45/108/4 
f 45/108/4 103/109/4 20/106/4 
f 103/109/4 45/108/4 47/110/4 
f 47/110/4 104/111/4 103/109/4 
f 104/111/4 47/110/4 49/112/4 
f 49/112/4 105/113/4 104/111/4 
f 105/113/4 49/112/4 51/114/4 
f 51/114/4 106/115/4 105/113/4 
f 106/115/4 51/114/4 1/40/4 
f 1/40/4 38/39/4 106/115/4 
f 107/116/5 70/79/5 73/80/5 
f 73/80/5 108/117/5 107/116/5 
f 108/117/5 73/80/5 75/82/5 
f 75/82/5 109/118/5 108/117/5 
f 109/118/5 75/82/5 77/84/5 
f 77/84/5 110/119/5 109/118/5 
f 110/119/5 77/84/5 79/86/5 
f 79/86/5 111/120/5 110/119/5 
f 111/120/5 79/86/5 7/8/5 
f 7/8/5 39/41/5 111/120/5 
f 24/13/5 23/19/5 112/121/5 
f 112/121/5 62/71/5 24/13/5 
f 62/71/5 112/121/5 113/122/5 
f 113/122/5 64/73/5 62/71/5 
f 64/73/5 113/122/5 114/123/5 
f 114/123/5 66/75/5 64/73/5 
f 66/75/5 114/123/5 115/124/5 
f 115/124/5 68/77/5 66/75/5 
f 68/77/5 115/124/5 40/42/5 
f 40/42/5 6/5/5 68/77/5 
f 116/125/1 84/126/1 85/127/1 
f 85/127/1 117/128/1 116/125/1 
f 117/128/1 85/127/1 86/129/1 
f 86/129/1 118/130/1 117/128/1 
f 118/130/1 86/129/1 87/131/1 
f 87/131/1 119/132/1 118/130/1 
f 119/132/1 87/131/1 88/133/1 
f 88/133/1 120/134/1 119/132/1 
f 120/134/1 88/133/1 10/45/1 
f 10/45/1 42/44/1 120/134/1 
f 30/28/1 41/135/1 121/136/1 
f 121/136/1 80/137/1 30/28/1 
f 80/137/1 121/136/1 122/138/1 
f 122/138/1 81/139/1 80/137/1 
f 81/139/1 122/138/1 123/140/1 
f 123/140/1 82/141/1 81/139/1 
f 82/141/1 123/140/1 124/142/1 
f 124/142/1 83/143/1 82/141/1 
f 83/143/1 124/142/1 43/47/1 
f 43/47/1 9/46/1 83/143/1 
f 89/144/1 116/125/1 117/128/1 
f 117/128/1 90/145/1 89/144/1 
f 90/145/1 117/128/1 118/130/1 
f 118/130/1 91/146/1 90/145/1 
f 91/146/1 118/130/1 119/132/1 
f 119/132/1 92/147/1 91/146/1 
f 92/147/1 119/132/1 120/134/1 
f 120/134/1 93/148/1 92/147/1 
f 93/148/1 120/134/1 42/44/1 
f 42/44/1 35/48/1 93/148/1 
f 41/135/1 16/33/1 94/149/1 
f 94/149/1 121/136/1 41/135/1 
f 121/136/1 94/149/1 95/150/1 
f 95/150/1 122/138/1 121/136/1 
f 122/138/1 95/150/1 96/151/1 
f 96/151/1 123/140/1 122/138/1 
f 123/140/1 96/151/1 97/152/1 
f 97/152/1 124/142/1 123/140/1 
f 124/142/1 97/152/1 36/49/1 
f 36/49/1 43/47/1 124/142/1 
# 201 faces

