# 3ds Max Wavefront OBJ Exporter v0.97b - (c)2007 guruware
# File Created: 30.12.2015 23:20:32

#
# object Plane001
#

v  -16.0000 0.0000 -26.6670
v  -12.0000 0.0000 -26.6670
v  -12.0000 0.0000 -32.0000
v  -16.0000 0.0000 -32.0000
v  -12.0000 -0.3000 -26.6670
v  -1.0000 -0.3000 -26.6670
v  -1.0000 -0.3000 -32.0000
v  -12.0000 -0.3000 -32.0000
v  -1.0000 0.0000 -26.6670
v  1.0000 0.0000 -26.6670
v  1.0000 0.0000 -32.0000
v  -1.0000 0.0000 -32.0000
v  1.0000 -0.3000 -26.6670
v  12.0000 -0.3000 -26.6670
v  12.0000 -0.3000 -32.0000
v  1.0000 -0.3000 -32.0000
v  12.0000 0.0000 -26.6670
v  16.0000 0.0000 -26.6670
v  16.0000 0.0000 -32.0000
v  12.0000 0.0000 -32.0000
v  12.0000 0.0000 -0.0002
v  12.0000 -0.3000 -0.0002
v  12.0000 -0.3000 5.3332
v  12.0000 0.0000 5.3332
v  -16.0000 0.0000 5.3332
v  -12.0000 0.0000 5.3332
v  -12.0000 0.0000 -0.0002
v  -16.0000 0.0000 -0.0002
v  16.0000 0.0000 5.3332
v  16.0000 0.0000 -0.0002
v  -12.0000 -0.3000 5.3332
v  -12.0000 -0.3000 -0.0002
v  0.0000 -0.3000 -26.6670
v  0.0000 -0.3000 5.3332
v  0.0000 -0.3000 -0.0002
v  12.0000 -0.3000 -21.3336
v  12.0000 0.0000 -21.3336
v  12.0000 -0.3000 -16.0003
v  12.0000 0.0000 -16.0003
v  12.0000 -0.3000 -10.6669
v  12.0000 0.0000 -10.6669
v  12.0000 -0.3000 -5.3335
v  12.0000 0.0000 -5.3335
v  12.0000 -0.3000 32.0000
v  12.0000 0.0000 32.0000
v  12.0000 0.0000 26.6666
v  12.0000 -0.3000 26.6666
v  12.0000 0.0000 21.3333
v  12.0000 -0.3000 21.3333
v  12.0000 0.0000 15.9999
v  12.0000 -0.3000 15.9999
v  12.0000 0.0000 10.6665
v  12.0000 -0.3000 10.6665
v  -16.0000 0.0000 32.0000
v  -12.0000 0.0000 32.0000
v  -12.0000 0.0000 26.6666
v  -16.0000 0.0000 26.6666
v  -12.0000 0.0000 21.3333
v  -16.0000 0.0000 21.3333
v  -12.0000 0.0000 15.9999
v  -16.0000 0.0000 15.9999
v  -12.0000 0.0000 10.6665
v  -16.0000 0.0000 10.6665
v  -16.0000 0.0000 -21.3336
v  -12.0000 0.0000 -21.3336
v  -16.0000 0.0000 -16.0003
v  -12.0000 0.0000 -16.0003
v  -16.0000 0.0000 -10.6669
v  -12.0000 0.0000 -10.6669
v  -16.0000 0.0000 -5.3335
v  -12.0000 0.0000 -5.3335
v  16.0000 0.0000 32.0000
v  16.0000 0.0000 26.6666
v  16.0000 0.0000 21.3333
v  16.0000 0.0000 15.9999
v  16.0000 0.0000 10.6665
v  16.0000 0.0000 -21.3336
v  16.0000 0.0000 -16.0003
v  16.0000 0.0000 -10.6669
v  16.0000 0.0000 -5.3335
v  -12.0000 -0.3000 32.0000
v  -12.0000 -0.3000 26.6666
v  -12.0000 -0.3000 21.3333
v  -12.0000 -0.3000 15.9999
v  -12.0000 -0.3000 10.6665
v  -12.0000 -0.3000 -21.3336
v  -12.0000 -0.3000 -16.0003
v  -12.0000 -0.3000 -10.6669
v  -12.0000 -0.3000 -5.3335
v  0.0000 -0.3000 32.0000
v  0.0000 -0.3000 26.6666
v  0.0000 -0.3000 21.3333
v  0.0000 -0.3000 15.9999
v  0.0000 -0.3000 10.6665
v  0.0000 -0.3000 -21.3336
v  0.0000 -0.3000 -16.0003
v  0.0000 -0.3000 -10.6669
v  0.0000 -0.3000 -5.3335
# 98 vertices

vn 0.0000 1.0000 -0.0000
vn 1.0000 0.0000 -0.0000
vn -1.0000 0.0000 -0.0000
vn 0.0000 0.0000 1.0000
# 4 vertex normals

vt 0.0000 0.9167 0.0000
vt 0.2000 0.9167 0.0000
vt 0.2000 1.0000 0.0000
vt 0.0000 1.0000 0.0000
vt 0.4000 0.9167 0.0000
vt 0.4000 1.0000 0.0000
vt 0.6000 0.9167 0.0000
vt 0.6000 1.0000 0.0000
vt 0.8000 0.9167 0.0000
vt 0.8000 1.0000 0.0000
vt 1.0000 0.9167 0.0000
vt 1.0000 1.0000 0.0000
vt 0.8000 0.5000 0.0000
vt 0.8000 0.4167 0.0000
vt 0.0000 0.4167 0.0000
vt 0.2000 0.4167 0.0000
vt 0.2000 0.5000 0.0000
vt 0.0000 0.5000 0.0000
vt 1.0000 0.4167 0.0000
vt 1.0000 0.5000 0.0000
vt 1.0000 1.0000 1.0000
vt 0.8000 0.8333 0.0000
vt 0.8000 0.7500 0.0000
vt 0.8000 0.6667 0.0000
vt 0.8000 0.5833 0.0000
vt 0.8000 0.0000 0.0000
vt 0.8000 0.0833 0.0000
vt 0.8000 0.1667 0.0000
vt 0.8000 0.2500 0.0000
vt 0.8000 0.3333 0.0000
vt 0.0000 0.0000 0.0000
vt 0.2000 0.0000 0.0000
vt 0.2000 0.0833 0.0000
vt 0.0000 0.0833 0.0000
vt 0.2000 0.1667 0.0000
vt 0.0000 0.1667 0.0000
vt 0.2000 0.2500 0.0000
vt 0.0000 0.2500 0.0000
vt 0.2000 0.3333 0.0000
vt 0.0000 0.3333 0.0000
vt 0.0000 0.8333 0.0000
vt 0.2000 0.8333 0.0000
vt 0.0000 0.7500 0.0000
vt 0.2000 0.7500 0.0000
vt 0.0000 0.6667 0.0000
vt 0.2000 0.6667 0.0000
vt 0.0000 0.5833 0.0000
vt 0.2000 0.5833 0.0000
vt 1.0000 0.0000 0.0000
vt 1.0000 0.0833 0.0000
vt 1.0000 0.1667 0.0000
vt 1.0000 0.2500 0.0000
vt 1.0000 0.3333 0.0000
vt 1.0000 0.8333 0.0000
vt 1.0000 0.7500 0.0000
vt 1.0000 0.6667 0.0000
vt 1.0000 0.5833 0.0000
# 57 texture coords

g Plane001
s 1
f 1/1/1 2/2/1 3/3/1 
f 3/3/1 4/4/1 1/1/1 
f 5/2/1 6/5/1 7/6/1 
f 7/6/1 8/3/1 5/2/1 
f 9/5/1 10/7/1 11/8/1 
f 11/8/1 12/6/1 9/5/1 
f 13/7/1 14/9/1 15/10/1 
f 15/10/1 16/8/1 13/7/1 
f 17/9/1 18/11/1 19/12/1 
f 19/12/1 20/10/1 17/9/1 
s off
f 2/2/2 5/2/2 8/3/2 
f 8/3/2 3/3/2 2/2/2 
f 10/7/2 13/7/2 16/8/2 
f 16/8/2 11/8/2 10/7/2 
f 21/13/3 22/13/3 23/14/3 
f 23/14/3 24/14/3 21/13/3 
s 1
f 25/15/1 26/16/1 27/17/1 
f 27/17/1 28/18/1 25/15/1 
f 24/14/1 29/19/1 30/20/1 
f 30/20/1 21/13/1 24/14/1 
s off
f 26/16/2 31/16/2 32/17/2 
f 32/17/2 27/17/2 26/16/2 
f 12/6/3 7/6/3 6/5/3 
f 6/5/3 9/5/3 12/6/3 
f 20/10/3 15/10/3 14/9/3 
f 14/9/3 17/9/3 20/10/3 
f 9/5/4 33/21/4 10/7/4 
f 6/5/4 33/21/4 9/5/4 
f 33/21/4 13/7/4 10/7/4 
f 34/21/1 23/14/1 22/13/1 
f 22/13/1 35/21/1 34/21/1 
f 31/16/1 34/21/1 35/21/1 
f 35/21/1 32/17/1 31/16/1 
f 17/9/3 14/9/3 36/22/3 
f 36/22/3 37/22/3 17/9/3 
f 37/22/3 36/22/3 38/23/3 
f 38/23/3 39/23/3 37/22/3 
f 39/23/3 38/23/3 40/24/3 
f 40/24/3 41/24/3 39/23/3 
f 41/24/3 40/24/3 42/25/3 
f 42/25/3 43/25/3 41/24/3 
f 43/25/3 42/25/3 22/13/3 
f 22/13/3 21/13/3 43/25/3 
f 44/26/3 45/26/3 46/27/3 
f 46/27/3 47/27/3 44/26/3 
f 47/27/3 46/27/3 48/28/3 
f 48/28/3 49/28/3 47/27/3 
f 49/28/3 48/28/3 50/29/3 
f 50/29/3 51/29/3 49/28/3 
f 51/29/3 50/29/3 52/30/3 
f 52/30/3 53/30/3 51/29/3 
f 53/30/3 52/30/3 24/14/3 
f 24/14/3 23/14/3 53/30/3 
s 1
f 54/31/1 55/32/1 56/33/1 
f 56/33/1 57/34/1 54/31/1 
f 57/34/1 56/33/1 58/35/1 
f 58/35/1 59/36/1 57/34/1 
f 59/36/1 58/35/1 60/37/1 
f 60/37/1 61/38/1 59/36/1 
f 61/38/1 60/37/1 62/39/1 
f 62/39/1 63/40/1 61/38/1 
f 63/40/1 62/39/1 26/16/1 
f 26/16/1 25/15/1 63/40/1 
f 2/2/1 1/1/1 64/41/1 
f 64/41/1 65/42/1 2/2/1 
f 65/42/1 64/41/1 66/43/1 
f 66/43/1 67/44/1 65/42/1 
f 67/44/1 66/43/1 68/45/1 
f 68/45/1 69/46/1 67/44/1 
f 69/46/1 68/45/1 70/47/1 
f 70/47/1 71/48/1 69/46/1 
f 71/48/1 70/47/1 28/18/1 
f 28/18/1 27/17/1 71/48/1 
f 45/26/1 72/49/1 73/50/1 
f 73/50/1 46/27/1 45/26/1 
f 46/27/1 73/50/1 74/51/1 
f 74/51/1 48/28/1 46/27/1 
f 48/28/1 74/51/1 75/52/1 
f 75/52/1 50/29/1 48/28/1 
f 50/29/1 75/52/1 76/53/1 
f 76/53/1 52/30/1 50/29/1 
f 52/30/1 76/53/1 29/19/1 
f 29/19/1 24/14/1 52/30/1 
f 18/11/1 17/9/1 37/22/1 
f 37/22/1 77/54/1 18/11/1 
f 77/54/1 37/22/1 39/23/1 
f 39/23/1 78/55/1 77/54/1 
f 78/55/1 39/23/1 41/24/1 
f 41/24/1 79/56/1 78/55/1 
f 79/56/1 41/24/1 43/25/1 
f 43/25/1 80/57/1 79/56/1 
f 80/57/1 43/25/1 21/13/1 
f 21/13/1 30/20/1 80/57/1 
s off
f 55/32/2 81/32/2 82/33/2 
f 82/33/2 56/33/2 55/32/2 
f 56/33/2 82/33/2 83/35/2 
f 83/35/2 58/35/2 56/33/2 
f 58/35/2 83/35/2 84/37/2 
f 84/37/2 60/37/2 58/35/2 
f 60/37/2 84/37/2 85/39/2 
f 85/39/2 62/39/2 60/37/2 
f 62/39/2 85/39/2 31/16/2 
f 31/16/2 26/16/2 62/39/2 
f 5/2/2 2/2/2 65/42/2 
f 65/42/2 86/42/2 5/2/2 
f 86/42/2 65/42/2 67/44/2 
f 67/44/2 87/44/2 86/42/2 
f 87/44/2 67/44/2 69/46/2 
f 69/46/2 88/46/2 87/44/2 
f 88/46/2 69/46/2 71/48/2 
f 71/48/2 89/48/2 88/46/2 
f 89/48/2 71/48/2 27/17/2 
f 27/17/2 32/17/2 89/48/2 
f 90/21/1 44/26/1 47/27/1 
f 47/27/1 91/21/1 90/21/1 
f 91/21/1 47/27/1 49/28/1 
f 49/28/1 92/21/1 91/21/1 
f 92/21/1 49/28/1 51/29/1 
f 51/29/1 93/21/1 92/21/1 
f 93/21/1 51/29/1 53/30/1 
f 53/30/1 94/21/1 93/21/1 
f 94/21/1 53/30/1 23/14/1 
f 23/14/1 34/21/1 94/21/1 
f 14/9/1 33/21/1 95/21/1 
f 95/21/1 36/22/1 14/9/1 
f 36/22/1 95/21/1 96/21/1 
f 96/21/1 38/23/1 36/22/1 
f 38/23/1 96/21/1 97/21/1 
f 97/21/1 40/24/1 38/23/1 
f 40/24/1 97/21/1 98/21/1 
f 98/21/1 42/25/1 40/24/1 
f 42/25/1 98/21/1 35/21/1 
f 35/21/1 22/13/1 42/25/1 
f 81/32/1 90/21/1 91/21/1 
f 91/21/1 82/33/1 81/32/1 
f 82/33/1 91/21/1 92/21/1 
f 92/21/1 83/35/1 82/33/1 
f 83/35/1 92/21/1 93/21/1 
f 93/21/1 84/37/1 83/35/1 
f 84/37/1 93/21/1 94/21/1 
f 94/21/1 85/39/1 84/37/1 
f 85/39/1 94/21/1 34/21/1 
f 34/21/1 31/16/1 85/39/1 
f 33/21/1 5/2/1 86/42/1 
f 86/42/1 95/21/1 33/21/1 
f 95/21/1 86/42/1 87/44/1 
f 87/44/1 96/21/1 95/21/1 
f 96/21/1 87/44/1 88/46/1 
f 88/46/1 97/21/1 96/21/1 
f 97/21/1 88/46/1 89/48/1 
f 89/48/1 98/21/1 97/21/1 
f 98/21/1 89/48/1 32/17/1 
f 32/17/1 35/21/1 98/21/1 
# 153 faces

