# 3ds Max Wavefront OBJ Exporter v0.97b - (c)2007 guruware
# File Created: 30.12.2015 20:04:49

#
# object Plane005
#

v  12.5000 -0.3000 -0.0002
v  0.0000 -0.3000 -0.0002
v  -0.0000 -0.3000 5.3332
v  12.5833 -0.3000 5.3332
v  -14.0000 0.0000 -32.0000
v  -14.1583 0.0000 -26.6670
v  -12.0833 0.0000 -26.6670
v  -12.0000 0.0000 -32.0000
v  -14.0000 6.0000 -32.0000
v  -14.1583 6.0833 -26.6670
v  14.9500 6.5000 -0.0002
v  14.9500 0.0000 -0.0002
v  15.1083 0.0000 5.3332
v  15.1083 6.5833 5.3332
v  14.0000 6.0000 -32.0000
v  14.1583 6.0833 -26.6670
v  0.0000 6.0833 -26.6670
v  0.0000 6.0000 -32.0000
v  16.0000 -1.5417 5.3332
v  16.0000 -1.7500 -0.0002
v  16.0000 7.5000 -0.0002
v  16.0000 7.5000 5.3332
v  -16.0000 7.5000 -32.0000
v  -16.0000 -3.0000 -32.0000
v  -16.0000 -2.7917 -26.6670
v  -16.0000 7.5000 -26.6670
v  -0.0000 7.5000 -26.6670
v  -0.0000 7.5000 -32.0000
v  14.0000 0.0000 -32.0000
v  12.0000 0.0000 -32.0000
v  12.0833 0.0000 -26.6670
v  14.1583 0.0000 -26.6670
v  -0.0000 7.5000 -0.0002
v  -0.0000 7.5000 5.3332
v  -14.9500 6.5000 -0.0002
v  -0.0000 6.5000 -0.0002
v  -0.0000 6.5833 5.3332
v  -15.1083 6.5833 5.3332
v  12.0000 -0.3000 -32.0000
v  1.0000 -0.3000 -32.0000
v  1.0000 -0.3000 -26.6670
v  12.0833 -0.3000 -26.6670
v  -14.9500 0.0000 -0.0002
v  -15.1083 0.0000 5.3332
v  -12.5833 0.0000 5.3332
v  -12.5000 0.0000 -0.0002
v  16.0000 -2.7917 -26.6670
v  16.0000 -3.0000 -32.0000
v  16.0000 7.5000 -32.0000
v  16.0000 7.5000 -26.6670
v  -16.0000 -1.5417 5.3332
v  -16.0000 7.5000 5.3332
v  -16.0000 7.5000 -0.0002
v  -16.0000 -1.7500 -0.0002
v  12.5833 0.0000 5.3332
v  12.5000 0.0000 -0.0002
v  -12.5000 -0.3000 -0.0002
v  -12.5833 -0.3000 5.3332
v  -12.0000 -0.3000 -32.0000
v  -12.0833 -0.3000 -26.6670
v  -1.0000 -0.3000 -26.6670
v  -1.0000 -0.3000 -32.0000
v  1.0000 0.0000 -32.0000
v  1.0000 0.0000 -27.1670
v  0.5000 0.0000 -26.6670
v  0.0000 0.0000 -26.6670
v  0.0000 -0.3000 -26.6670
v  -0.5000 0.0000 -26.6670
v  -1.0000 0.0000 -27.1670
v  -1.0000 0.0000 -32.0000
v  -1.0000 6.1003 -27.1670
v  -1.0000 6.0000 -32.0000
v  0.0000 6.1003 -26.6670
v  -0.5000 6.1003 -26.6670
v  0.5000 6.1003 -26.6670
v  1.0000 6.0000 -32.0000
v  1.0000 6.1003 -27.1670
v  12.1667 -0.3000 -21.3336
v  0.0000 -0.3000 -21.3336
v  0.0000 -0.3000 -16.0003
v  12.2500 -0.3000 -16.0003
v  0.0000 -0.3000 -10.6669
v  12.3333 -0.3000 -10.6669
v  0.0000 -0.3000 -5.3335
v  12.4167 -0.3000 -5.3335
v  -0.0000 -0.3000 32.0000
v  13.0000 -0.3000 32.0000
v  12.9167 -0.3000 26.6666
v  -0.0000 -0.3000 26.6666
v  12.8333 -0.3000 21.3333
v  -0.0000 -0.3000 21.3333
v  12.7500 -0.3000 15.9999
v  -0.0000 -0.3000 15.9999
v  12.6667 -0.3000 10.6665
v  -0.0000 -0.3000 10.6665
v  14.3167 0.0000 -21.3336
v  14.3167 6.1667 -21.3336
v  14.4750 0.0000 -16.0003
v  14.4750 6.2500 -16.0003
v  14.6333 0.0000 -10.6669
v  14.6333 6.3333 -10.6669
v  14.7917 0.0000 -5.3335
v  14.7917 6.4167 -5.3335
v  15.9000 0.0000 32.0000
v  15.9000 7.0000 32.0000
v  15.7417 6.9167 26.6666
v  15.7417 0.0000 26.6666
v  15.5833 6.8333 21.3333
v  15.5833 0.0000 21.3333
v  15.4250 6.7500 15.9999
v  15.4250 0.0000 15.9999
v  15.2667 6.6667 10.6665
v  15.2667 0.0000 10.6665
v  16.0000 -2.5834 -21.3336
v  16.0000 7.5000 -21.3336
v  16.0000 -2.3750 -16.0003
v  16.0000 7.5000 -16.0003
v  16.0000 -2.1667 -10.6669
v  16.0000 7.5000 -10.6669
v  16.0000 -1.9583 -5.3335
v  16.0000 7.5000 -5.3335
v  16.0000 7.5000 26.6666
v  16.0000 7.5000 32.0000
v  16.0000 -0.5000 32.0000
v  16.0000 -0.7083 26.6666
v  16.0000 7.5000 21.3333
v  16.0000 -0.9167 21.3333
v  16.0000 7.5000 15.9999
v  16.0000 -1.1250 15.9999
v  16.0000 7.5000 10.6665
v  16.0000 -1.3333 10.6665
v  -0.0000 7.5000 -21.3336
v  -0.0000 7.5000 -16.0003
v  -0.0000 7.5000 -10.6669
v  -0.0000 7.5000 -5.3335
v  -0.0000 7.5000 32.0000
v  -0.0000 7.5000 26.6666
v  -0.0000 7.5000 21.3333
v  -0.0000 7.5000 15.9999
v  -0.0000 7.5000 10.6665
v  0.0000 6.1667 -21.3336
v  -14.3167 6.1667 -21.3336
v  0.0000 6.2500 -16.0003
v  -14.4750 6.2500 -16.0003
v  0.0000 6.3333 -10.6669
v  -14.6333 6.3333 -10.6669
v  0.0000 6.4167 -5.3335
v  -14.7917 6.4167 -5.3335
v  -0.0000 7.0000 32.0000
v  -15.9000 7.0000 32.0000
v  -15.7417 6.9167 26.6666
v  -0.0000 6.9167 26.6666
v  -15.5833 6.8333 21.3333
v  -0.0000 6.8333 21.3333
v  -15.4250 6.7500 15.9999
v  -0.0000 6.7500 15.9999
v  -15.2667 6.6667 10.6665
v  -0.0000 6.6667 10.6665
v  -15.7417 0.0000 26.6666
v  -15.9000 0.0000 32.0000
v  -13.0000 0.0000 32.0000
v  -12.9167 0.0000 26.6666
v  -15.5833 0.0000 21.3333
v  -12.8333 0.0000 21.3333
v  -15.4250 0.0000 15.9999
v  -12.7500 0.0000 15.9999
v  -15.2667 0.0000 10.6665
v  -12.6667 0.0000 10.6665
v  -12.1667 0.0000 -21.3336
v  -14.3167 0.0000 -21.3336
v  -12.2500 0.0000 -16.0003
v  -14.4750 0.0000 -16.0003
v  -12.3333 0.0000 -10.6669
v  -14.6333 0.0000 -10.6669
v  -12.4167 0.0000 -5.3335
v  -14.7917 0.0000 -5.3335
v  -16.0000 -0.5000 32.0000
v  -16.0000 7.5000 32.0000
v  -16.0000 7.5000 26.6666
v  -16.0000 -0.7083 26.6666
v  -16.0000 7.5000 21.3333
v  -16.0000 -0.9167 21.3333
v  -16.0000 7.5000 15.9999
v  -16.0000 -1.1250 15.9999
v  -16.0000 7.5000 10.6665
v  -16.0000 -1.3333 10.6665
v  -16.0000 -2.5834 -21.3336
v  -16.0000 7.5000 -21.3336
v  -16.0000 -2.3750 -16.0003
v  -16.0000 7.5000 -16.0003
v  -16.0000 -2.1667 -10.6669
v  -16.0000 7.5000 -10.6669
v  -16.0000 -1.9583 -5.3335
v  -16.0000 7.5000 -5.3335
v  13.0000 0.0000 32.0000
v  12.9167 0.0000 26.6666
v  12.8333 0.0000 21.3333
v  12.7500 0.0000 15.9999
v  12.6667 0.0000 10.6665
v  12.1667 0.0000 -21.3336
v  12.2500 0.0000 -16.0003
v  12.3333 0.0000 -10.6669
v  12.4167 0.0000 -5.3335
v  -12.9167 -0.3000 26.6666
v  -13.0000 -0.3000 32.0000
v  -12.8333 -0.3000 21.3333
v  -12.7500 -0.3000 15.9999
v  -12.6667 -0.3000 10.6665
v  -12.1667 -0.3000 -21.3336
v  -12.2500 -0.3000 -16.0003
v  -12.3333 -0.3000 -10.6669
v  -12.4167 -0.3000 -5.3335
# 212 vertices

vn 0.0000 1.0000 -0.0000
vn 0.9996 0.0000 0.0297
vn -0.9996 0.0000 0.0297
vn 0.0000 -0.9999 0.0156
vn 1.0000 0.0000 0.0000
vn 1.0000 0.0000 -0.0000
vn -1.0000 -0.0000 0.0000
vn -1.0000 -0.0000 -0.0000
vn -0.0000 1.0000 -0.0000
vn 0.9996 -0.0000 0.0297
vn -0.9999 0.0000 0.0156
vn 0.0000 0.0000 1.0000
vn -1.0000 0.0000 0.0000
vn 0.9999 0.0000 0.0156
vn -0.9239 0.0000 0.3827
vn -0.9228 0.0000 0.3852
vn -0.3827 -0.0000 0.9239
vn -0.3827 0.0000 0.9239
vn 0.3827 0.0000 0.9239
vn 0.9239 0.0000 0.3827
vn 0.9228 0.0000 0.3852
vn 0.4575 0.7625 0.4575
vn -0.4575 0.7625 0.4575
vn -0.9996 -0.0000 0.0297
vn -0.0000 -0.9999 0.0156
# 25 vertex normals

vt 0.1513 0.5000 0.0000
vt 0.2300 0.5000 0.0000
vt 0.2300 0.4167 0.0000
vt 0.1513 0.4167 0.0000
vt -0.0001 1.0000 0.0000
vt -0.0001 0.9167 0.0000
vt 0.0625 0.9167 0.0000
vt 0.0625 1.0000 0.0000
vt 0.7443 1.0000 0.0000
vt 0.7443 0.9167 0.0000
vt 0.6970 0.9167 0.0000
vt 0.6970 1.0000 0.0000
vt 0.7443 0.5000 0.0000
vt 0.6970 0.5000 0.0000
vt 0.6970 0.4167 0.0000
vt 0.7443 0.4167 0.0000
vt 0.7327 1.0000 0.0000
vt 0.7327 0.9167 0.0000
vt 0.7660 0.9167 0.0000
vt 0.7660 1.0000 0.0000
vt 1.0000 1.0000 1.0000
vt -0.0001 0.9999 0.0000
vt 0.0625 0.9999 0.0000
vt 0.0625 0.9166 0.0000
vt -0.0001 0.9166 0.0000
vt 0.7327 0.5000 0.0000
vt 0.7660 0.5000 0.0000
vt 0.7660 0.4167 0.0000
vt 0.7327 0.4167 0.0000
vt 0.1513 0.9999 0.0000
vt 0.2109 0.9999 0.0000
vt 0.2111 0.9166 0.0000
vt 0.1513 0.9166 0.0000
vt -0.0001 0.5000 0.0000
vt -0.0001 0.4167 0.0000
vt 0.0625 0.4167 0.0000
vt 0.0625 0.5000 0.0000
vt 0.1513 1.0000 0.0000
vt 0.1513 0.9167 0.0000
vt 0.2109 1.0000 0.0000
vt 0.7781 0.1261 0.0000
vt 0.8213 0.1261 0.0000
vt 0.8257 0.0974 0.0000
vt 0.7781 0.0974 0.0000
vt 0.8087 0.1120 0.0000
vt 0.7972 0.1120 0.0000
vt 0.7972 0.0824 0.0000
vt 0.8201 0.0824 0.0000
vt 0.7857 0.1120 0.0000
vt 0.7742 0.0824 0.0000
vt 0.8213 0.7089 0.0000
vt 0.7781 0.6993 0.0000
vt 0.7972 0.7131 0.0000
vt 0.7857 0.7131 0.0000
vt 0.8087 0.7131 0.0000
vt 0.8201 0.1120 0.0000
vt 0.8201 0.7131 0.0000
vt 0.7742 0.1120 0.0000
vt 0.7742 0.7131 0.0000
vt 0.1513 0.8333 0.0000
vt 0.2299 0.9166 0.0000
vt 0.2300 0.8333 0.0000
vt 0.2300 0.7500 0.0000
vt 0.1513 0.7500 0.0000
vt 0.2300 0.6667 0.0000
vt 0.1513 0.6667 0.0000
vt 0.2300 0.5834 0.0000
vt 0.1513 0.5834 0.0000
vt 0.2301 0.0001 0.0000
vt 0.1513 0.0002 0.0000
vt 0.1513 0.0835 0.0000
vt 0.2301 0.0834 0.0000
vt 0.1513 0.1668 0.0000
vt 0.2301 0.1668 0.0000
vt 0.1513 0.2501 0.0000
vt 0.2301 0.2501 0.0000
vt 0.1513 0.3334 0.0000
vt 0.2301 0.3334 0.0000
vt 0.6970 0.8333 0.0000
vt 0.7443 0.8333 0.0000
vt 0.6970 0.7500 0.0000
vt 0.7443 0.7500 0.0000
vt 0.6970 0.6667 0.0000
vt 0.7443 0.6667 0.0000
vt 0.6970 0.5833 0.0000
vt 0.7443 0.5833 0.0000
vt 0.6970 0.0000 0.0000
vt 0.7443 0.0000 0.0000
vt 0.7443 0.0833 0.0000
vt 0.6970 0.0833 0.0000
vt 0.7443 0.1667 0.0000
vt 0.6970 0.1667 0.0000
vt 0.7443 0.2500 0.0000
vt 0.6970 0.2500 0.0000
vt 0.7443 0.3333 0.0000
vt 0.6970 0.3333 0.0000
vt 0.7660 0.8333 0.0000
vt 0.7327 0.8333 0.0000
vt 0.7660 0.7500 0.0000
vt 0.7327 0.7500 0.0000
vt 0.7660 0.6667 0.0000
vt 0.7327 0.6667 0.0000
vt 0.7660 0.5833 0.0000
vt 0.7327 0.5833 0.0000
vt 0.7660 0.0000 0.0000
vt 0.7327 0.0000 0.0000
vt 0.7327 0.0833 0.0000
vt 0.7660 0.0833 0.0000
vt 0.7327 0.1667 0.0000
vt 0.7660 0.1667 0.0000
vt 0.7327 0.2500 0.0000
vt 0.7660 0.2500 0.0000
vt 0.7327 0.3333 0.0000
vt 0.7660 0.3333 0.0000
vt -0.0001 0.0834 0.0000
vt -0.0001 0.0001 0.0000
vt 0.0625 0.0001 0.0000
vt 0.0625 0.0834 0.0000
vt -0.0001 0.1667 0.0000
vt 0.0625 0.1667 0.0000
vt -0.0001 0.2501 0.0000
vt 0.0625 0.2501 0.0000
vt -0.0001 0.3334 0.0000
vt 0.0625 0.3334 0.0000
vt 0.0625 0.8333 0.0000
vt -0.0001 0.8333 0.0000
vt 0.0625 0.7500 0.0000
vt -0.0001 0.7500 0.0000
vt 0.0625 0.6667 0.0000
vt -0.0001 0.6667 0.0000
vt 0.0625 0.5834 0.0000
vt -0.0001 0.5834 0.0000
vt 0.0625 0.0002 0.0000
vt -0.0001 0.0002 0.0000
vt -0.0001 0.0835 0.0000
vt 0.0625 0.0835 0.0000
vt -0.0001 0.1668 0.0000
vt 0.0625 0.1668 0.0000
vt 0.1513 0.0834 0.0000
vt 0.1513 0.0001 0.0000
vt 0.1513 0.1667 0.0000
# 141 texture coords

g Plane005
s 1
f 1/1/1 2/2/1 3/3/1 
f 3/3/1 4/4/1 1/1/1 
f 5/5/1 6/6/1 7/7/1 
f 7/7/1 8/8/1 5/5/1 
s 2
f 9/9/2 10/10/2 6/11/2 
f 6/11/2 5/12/2 9/9/2 
s 1
f 11/13/3 12/14/3 13/15/3 
f 13/15/3 14/16/3 11/13/3 
s 4
f 15/17/4 16/18/4 17/19/4 
f 17/19/4 18/20/4 15/17/4 
s 1
f 19/21/5 20/21/6 21/21/6 
f 21/21/6 22/21/6 19/21/5 
f 23/21/7 24/21/8 25/21/7 
f 25/21/7 26/21/7 23/21/7 
s 2
f 23/21/1 26/21/1 27/21/1 
f 27/21/1 28/21/1 23/21/1 
f 29/22/1 30/23/1 31/24/1 
f 31/24/1 32/25/1 29/22/1 
f 21/21/9 33/21/9 34/21/9 
f 34/21/9 22/21/9 21/21/9 
s 4
f 35/26/4 36/27/4 37/28/4 
f 37/28/4 38/29/4 35/26/4 
s 1
f 39/30/1 40/31/1 41/32/1 
f 41/32/1 42/33/1 39/30/1 
f 43/34/1 44/35/1 45/36/1 
f 45/36/1 46/37/1 43/34/1 
s 2
f 35/13/10 38/16/10 44/15/10 
f 44/15/10 43/14/10 35/13/10 
s 1
f 15/9/3 29/12/3 32/11/3 
f 32/11/3 16/10/3 15/9/3 
s 4
f 11/26/4 14/29/4 37/28/4 
f 37/28/4 36/27/4 11/26/4 
s 1
f 47/21/6 48/21/6 49/21/6 
f 49/21/6 50/21/6 47/21/6 
f 51/21/8 52/21/7 53/21/7 
f 53/21/7 54/21/8 51/21/8 
s 2
f 52/21/1 34/21/9 33/21/9 
f 33/21/9 53/21/1 52/21/1 
f 55/36/1 13/35/1 12/34/1 
f 12/34/1 56/37/1 55/36/1 
f 49/21/1 28/21/1 27/21/1 
f 27/21/1 50/21/1 49/21/1 
s 1
f 57/1/1 58/4/1 3/3/1 
f 3/3/1 2/2/1 57/1/1 
s 4
f 9/17/4 18/20/4 17/19/4 
f 17/19/4 10/18/4 9/17/4 
s 1
f 59/38/1 60/39/1 61/32/1 
f 61/32/1 62/40/1 59/38/1 
s 4
f 56/37/11 1/37/11 4/36/11 
f 4/36/11 55/36/11 56/37/11 
f 31/24/11 30/23/11 39/23/11 
f 39/23/11 42/24/11 31/24/11 
s 2
f 63/41/5 64/42/5 41/43/5 
f 63/41/5 41/43/5 41/43/5 
f 63/41/5 41/43/5 40/44/5 
s 4
f 65/45/12 66/46/12 67/47/12 
f 65/45/12 67/47/12 41/48/12 
f 41/48/6 65/45/12 41/48/12 
f 66/46/12 68/49/12 61/50/12 
f 66/46/12 61/50/12 61/50/12 
f 66/46/12 61/50/12 67/47/12 
s 2
f 69/42/7 70/41/13 62/44/7 
f 69/42/7 62/44/7 61/43/7 
f 61/43/6 69/42/7 61/43/7 
f 8/8/14 7/7/14 60/7/14 
f 60/7/14 59/8/14 8/8/14 
f 45/36/14 58/36/14 57/37/14 
f 57/37/14 46/37/14 45/36/14 
s 16
f 70/41/13 69/42/15 71/51/16 
f 71/51/16 72/52/13 70/41/13 
f 68/49/17 66/46/12 73/53/12 
f 73/53/12 74/54/18 68/49/17 
f 66/46/12 65/45/19 75/55/19 
f 75/55/19 73/53/12 66/46/12 
f 64/42/20 63/41/5 76/52/5 
f 76/52/5 77/51/21 64/42/20 
s 1
f 65/45/22 41/48/22 64/56/22 
s 16
f 65/45/19 64/56/20 77/57/21 
f 77/57/21 75/55/19 65/45/19 
s 1
f 68/49/23 69/58/23 61/50/23 
s 16
f 69/58/15 68/49/17 74/54/18 
f 74/54/18 71/59/16 69/58/15 
s 1
f 78/60/1 42/33/1 41/32/1 
f 78/60/1 41/32/1 67/61/1 
f 78/60/1 67/61/1 79/62/1 
f 78/60/1 79/62/1 80/63/1 
f 80/63/1 81/64/1 78/60/1 
f 81/64/1 80/63/1 82/65/1 
f 82/65/1 83/66/1 81/64/1 
f 83/66/1 82/65/1 84/67/1 
f 84/67/1 85/68/1 83/66/1 
f 85/68/1 84/67/1 2/2/1 
f 2/2/1 1/1/1 85/68/1 
f 86/69/1 87/70/1 88/71/1 
f 88/71/1 89/72/1 86/69/1 
f 89/72/1 88/71/1 90/73/1 
f 90/73/1 91/74/1 89/72/1 
f 91/74/1 90/73/1 92/75/1 
f 92/75/1 93/76/1 91/74/1 
f 93/76/1 92/75/1 94/77/1 
f 94/77/1 95/78/1 93/76/1 
f 95/78/1 94/77/1 4/4/1 
f 4/4/1 3/3/1 95/78/1 
f 16/10/3 32/11/3 96/79/3 
f 96/79/3 97/80/3 16/10/3 
f 97/80/3 96/79/3 98/81/3 
f 98/81/3 99/82/3 97/80/3 
f 99/82/3 98/81/3 100/83/3 
f 100/83/3 101/84/3 99/82/3 
f 101/84/3 100/83/3 102/85/3 
f 102/85/3 103/86/24 101/84/3 
f 103/86/24 102/85/3 12/14/3 
f 12/14/3 11/13/3 103/86/24 
f 104/87/3 105/88/3 106/89/3 
f 106/89/3 107/90/3 104/87/3 
f 107/90/3 106/89/3 108/91/3 
f 108/91/3 109/92/3 107/90/3 
f 109/92/3 108/91/3 110/93/3 
f 110/93/3 111/94/24 109/92/3 
f 111/94/24 110/93/3 112/95/3 
f 112/95/3 113/96/3 111/94/24 
f 113/96/3 112/95/3 14/16/3 
f 14/16/3 13/15/3 113/96/3 
f 114/21/6 47/21/6 50/21/6 
f 50/21/6 115/21/6 114/21/6 
f 116/21/6 114/21/6 115/21/6 
f 115/21/6 117/21/6 116/21/6 
f 118/21/6 116/21/6 117/21/6 
f 117/21/6 119/21/6 118/21/6 
f 120/21/5 118/21/6 119/21/6 
f 119/21/6 121/21/6 120/21/5 
f 20/21/6 120/21/5 121/21/6 
f 121/21/6 21/21/6 20/21/6 
f 122/21/6 123/21/6 124/21/5 
f 124/21/5 125/21/5 122/21/6 
f 126/21/6 122/21/6 125/21/5 
f 125/21/5 127/21/5 126/21/6 
f 128/21/6 126/21/6 127/21/5 
f 127/21/5 129/21/5 128/21/6 
f 130/21/6 128/21/6 129/21/5 
f 129/21/5 131/21/6 130/21/6 
f 22/21/6 130/21/6 131/21/6 
f 131/21/6 19/21/5 22/21/6 
s 2
f 50/21/1 27/21/1 132/21/1 
f 132/21/1 115/21/9 50/21/1 
f 115/21/9 132/21/1 133/21/9 
f 133/21/9 117/21/9 115/21/9 
f 117/21/9 133/21/9 134/21/9 
f 134/21/9 119/21/9 117/21/9 
f 119/21/9 134/21/9 135/21/9 
f 135/21/9 121/21/9 119/21/9 
f 121/21/9 135/21/9 33/21/9 
f 33/21/9 21/21/9 121/21/9 
f 136/21/1 123/21/1 122/21/1 
f 122/21/1 137/21/9 136/21/1 
f 137/21/9 122/21/1 126/21/9 
f 126/21/9 138/21/9 137/21/9 
f 138/21/9 126/21/9 128/21/9 
f 128/21/9 139/21/9 138/21/9 
f 139/21/9 128/21/9 130/21/9 
f 130/21/9 140/21/9 139/21/9 
f 140/21/9 130/21/9 22/21/9 
f 22/21/9 34/21/9 140/21/9 
s 4
f 10/18/4 17/19/4 141/97/4 
f 141/97/4 142/98/4 10/18/4 
f 142/98/4 141/97/4 143/99/4 
f 143/99/4 144/100/25 142/98/4 
f 144/100/25 143/99/4 145/101/25 
f 145/101/25 146/102/25 144/100/25 
f 146/102/25 145/101/25 147/103/4 
f 147/103/4 148/104/4 146/102/25 
f 148/104/4 147/103/4 36/27/4 
f 36/27/4 35/26/4 148/104/4 
f 149/105/4 150/106/4 151/107/4 
f 151/107/4 152/108/4 149/105/4 
f 152/108/4 151/107/4 153/109/4 
f 153/109/4 154/110/4 152/108/4 
f 154/110/4 153/109/4 155/111/4 
f 155/111/4 156/112/4 154/110/4 
f 156/112/4 155/111/4 157/113/4 
f 157/113/4 158/114/4 156/112/4 
f 158/114/4 157/113/4 38/29/4 
f 38/29/4 37/28/4 158/114/4 
s 1
f 159/115/1 160/116/1 161/117/1 
f 161/117/1 162/118/1 159/115/1 
f 163/119/1 159/115/1 162/118/1 
f 162/118/1 164/120/1 163/119/1 
f 165/121/1 163/119/1 164/120/1 
f 164/120/1 166/122/1 165/121/1 
f 167/123/1 165/121/1 166/122/1 
f 166/122/1 168/124/1 167/123/1 
f 44/35/1 167/123/1 168/124/1 
f 168/124/1 45/36/1 44/35/1 
f 169/125/1 7/7/1 6/6/1 
f 6/6/1 170/126/1 169/125/1 
f 171/127/1 169/125/1 170/126/1 
f 170/126/1 172/128/1 171/127/1 
f 173/129/1 171/127/1 172/128/1 
f 172/128/1 174/130/1 173/129/1 
f 175/131/1 173/129/1 174/130/1 
f 174/130/1 176/132/1 175/131/1 
f 46/37/1 175/131/1 176/132/1 
f 176/132/1 43/34/1 46/37/1 
s 2
f 151/89/10 150/88/2 160/87/10 
f 160/87/10 159/90/10 151/89/10 
f 153/91/10 151/89/10 159/90/10 
f 159/90/10 163/92/2 153/91/10 
f 155/93/2 153/91/10 163/92/2 
f 163/92/2 165/94/2 155/93/2 
f 157/95/2 155/93/2 165/94/2 
f 165/94/2 167/96/2 157/95/2 
f 38/16/10 157/95/2 167/96/2 
f 167/96/2 44/15/10 38/16/10 
f 170/79/2 6/11/2 10/10/2 
f 10/10/2 142/80/10 170/79/2 
f 172/81/10 170/79/2 142/80/10 
f 142/80/10 144/82/10 172/81/10 
f 174/83/10 172/81/10 144/82/10 
f 144/82/10 146/84/2 174/83/10 
f 176/85/10 174/83/10 146/84/2 
f 146/84/2 148/86/10 176/85/10 
f 43/14/10 176/85/10 148/86/10 
f 148/86/10 35/13/10 43/14/10 
s 4
f 106/107/4 105/106/4 149/105/4 
f 149/105/4 152/108/4 106/107/4 
f 108/109/4 106/107/4 152/108/4 
f 152/108/4 154/110/4 108/109/4 
f 110/111/4 108/109/4 154/110/4 
f 154/110/4 156/112/4 110/111/4 
f 112/113/4 110/111/4 156/112/4 
f 156/112/4 158/114/4 112/113/4 
f 14/29/4 112/113/4 158/114/4 
f 158/114/4 37/28/4 14/29/4 
f 141/97/4 17/19/4 16/18/4 
f 16/18/4 97/98/4 141/97/4 
f 143/99/4 141/97/4 97/98/4 
f 97/98/4 99/100/25 143/99/4 
f 145/101/25 143/99/4 99/100/25 
f 99/100/25 101/102/4 145/101/25 
f 147/103/4 145/101/25 101/102/4 
f 101/102/4 103/104/4 147/103/4 
f 36/27/4 147/103/4 103/104/4 
f 103/104/4 11/26/4 36/27/4 
s 1
f 177/21/7 178/21/7 179/21/7 
f 179/21/7 180/21/8 177/21/7 
f 180/21/8 179/21/7 181/21/7 
f 181/21/7 182/21/8 180/21/8 
f 182/21/8 181/21/7 183/21/7 
f 183/21/7 184/21/8 182/21/8 
f 184/21/8 183/21/7 185/21/7 
f 185/21/7 186/21/8 184/21/8 
f 186/21/8 185/21/7 52/21/7 
f 52/21/7 51/21/8 186/21/8 
f 26/21/7 25/21/7 187/21/8 
f 187/21/8 188/21/7 26/21/7 
f 188/21/7 187/21/8 189/21/8 
f 189/21/8 190/21/7 188/21/7 
f 190/21/7 189/21/8 191/21/7 
f 191/21/7 192/21/7 190/21/7 
f 192/21/7 191/21/7 193/21/7 
f 193/21/7 194/21/7 192/21/7 
f 194/21/7 193/21/7 54/21/8 
f 54/21/8 53/21/7 194/21/7 
s 2
f 178/21/1 136/21/1 137/21/9 
f 137/21/9 179/21/1 178/21/1 
f 179/21/1 137/21/9 138/21/9 
f 138/21/9 181/21/1 179/21/1 
f 181/21/1 138/21/9 139/21/9 
f 139/21/9 183/21/1 181/21/1 
f 183/21/1 139/21/9 140/21/9 
f 140/21/9 185/21/1 183/21/1 
f 185/21/1 140/21/9 34/21/9 
f 34/21/9 52/21/1 185/21/1 
f 27/21/1 26/21/1 188/21/1 
f 188/21/1 132/21/1 27/21/1 
f 132/21/1 188/21/1 190/21/1 
f 190/21/1 133/21/9 132/21/1 
f 133/21/9 190/21/1 192/21/1 
f 192/21/1 134/21/9 133/21/9 
f 134/21/9 192/21/1 194/21/1 
f 194/21/1 135/21/9 134/21/9 
f 135/21/9 194/21/1 53/21/1 
f 53/21/1 33/21/9 135/21/9 
f 195/133/1 104/134/1 107/135/1 
f 107/135/1 196/136/1 195/133/1 
f 196/136/1 107/135/1 109/137/1 
f 109/137/1 197/138/1 196/136/1 
f 197/138/1 109/137/1 111/121/1 
f 111/121/1 198/122/1 197/138/1 
f 198/122/1 111/121/1 113/123/1 
f 113/123/1 199/124/1 198/122/1 
f 199/124/1 113/123/1 13/35/1 
f 13/35/1 55/36/1 199/124/1 
f 32/25/1 31/24/1 200/125/1 
f 200/125/1 96/126/1 32/25/1 
f 96/126/1 200/125/1 201/127/1 
f 201/127/1 98/128/1 96/126/1 
f 98/128/1 201/127/1 202/129/1 
f 202/129/1 100/130/1 98/128/1 
f 100/130/1 202/129/1 203/131/1 
f 203/131/1 102/132/1 100/130/1 
f 102/132/1 203/131/1 56/37/1 
f 56/37/1 12/34/1 102/132/1 
s 1
f 204/139/1 205/140/1 86/69/1 
f 86/69/1 89/72/1 204/139/1 
f 206/141/1 204/139/1 89/72/1 
f 89/72/1 91/74/1 206/141/1 
f 207/75/1 206/141/1 91/74/1 
f 91/74/1 93/76/1 207/75/1 
f 208/77/1 207/75/1 93/76/1 
f 93/76/1 95/78/1 208/77/1 
f 58/4/1 208/77/1 95/78/1 
f 95/78/1 3/3/1 58/4/1 
f 79/62/1 67/61/1 61/32/1 
f 79/62/1 61/32/1 60/39/1 
f 79/62/1 60/39/1 209/60/1 
f 80/63/1 79/62/1 209/60/1 
f 209/60/1 210/64/1 80/63/1 
f 82/65/1 80/63/1 210/64/1 
f 210/64/1 211/66/1 82/65/1 
f 84/67/1 82/65/1 211/66/1 
f 211/66/1 212/68/1 84/67/1 
f 2/2/1 84/67/1 212/68/1 
f 212/68/1 57/1/1 2/2/1 
s 4
f 31/24/11 42/24/11 78/125/11 
f 78/125/11 200/125/11 31/24/11 
f 200/125/11 78/125/11 81/127/11 
f 81/127/11 201/127/11 200/125/11 
f 201/127/11 81/127/11 83/129/11 
f 83/129/11 202/129/11 201/127/11 
f 202/129/11 83/129/11 85/131/11 
f 85/131/11 203/131/11 202/129/11 
f 203/131/11 85/131/11 1/37/11 
f 1/37/11 56/37/11 203/131/11 
f 87/133/11 195/133/11 196/136/11 
f 196/136/11 88/136/11 87/133/11 
f 88/136/11 196/136/11 197/138/11 
f 197/138/11 90/138/11 88/136/11 
f 90/138/11 197/138/11 198/122/11 
f 198/122/11 92/122/11 90/138/11 
f 92/122/11 198/122/11 199/124/11 
f 199/124/11 94/124/11 92/122/11 
f 94/124/11 199/124/11 55/36/11 
f 55/36/11 4/36/11 94/124/11 
s 2
f 161/117/14 205/117/14 204/118/14 
f 204/118/14 162/118/14 161/117/14 
f 162/118/14 204/118/14 206/120/14 
f 206/120/14 164/120/14 162/118/14 
f 164/120/14 206/120/14 207/122/14 
f 207/122/14 166/122/14 164/120/14 
f 166/122/14 207/122/14 208/124/14 
f 208/124/14 168/124/14 166/122/14 
f 168/124/14 208/124/14 58/36/14 
f 58/36/14 45/36/14 168/124/14 
f 60/7/14 7/7/14 169/125/14 
f 169/125/14 209/125/14 60/7/14 
f 209/125/14 169/125/14 171/127/14 
f 171/127/14 210/127/14 209/125/14 
f 210/127/14 171/127/14 173/129/14 
f 173/129/14 211/129/14 210/127/14 
f 211/129/14 173/129/14 175/131/14 
f 175/131/14 212/131/14 211/129/14 
f 212/131/14 175/131/14 46/37/14 
f 46/37/14 57/37/14 212/131/14 
# 364 faces

