# 3ds Max Wavefront OBJ Exporter v0.97b - (c)2007 guruware
# File Created: 09.01.2016 16:08:23

#
# object Plane005
#

v  -16.0000 -0.3000 -0.0000
v  -13.0000 -0.3000 -0.0000
v  -13.0000 -0.3000 -16.0000
v  -16.0000 -0.3000 -16.0000
v  -16.0000 7.0000 -0.0000
v  -16.0000 7.0000 -16.0000
v  16.0000 7.0000 -0.0000
v  16.0000 -0.3000 -0.0000
v  16.0000 -0.3000 16.0000
v  16.0000 7.0000 16.0000
v  -0.0000 7.0000 -0.0000
v  0.0000 7.0000 -16.0000
v  16.0000 7.0000 -16.0000
v  17.0000 -0.5000 -0.0000
v  17.0000 7.5000 -0.0000
v  17.0000 7.5000 16.0000
v  17.0000 -0.5000 16.0000
v  -17.0000 -0.5000 -0.0000
v  -17.0000 7.5000 -0.0000
v  -17.0000 7.5000 -16.0000
v  -17.0000 -0.5000 -16.0000
v  -0.0000 7.5000 -0.0000
v  -0.0000 7.5000 -16.0000
v  13.0000 -0.3000 -0.0000
v  16.0000 -0.3000 -16.0000
v  13.0000 -0.3000 -16.0000
v  -0.0000 7.5000 16.0000
v  -0.0000 7.0000 16.0000
v  -16.0000 7.0000 16.0000
v  13.0000 -0.3000 16.0000
v  -1.0000 -0.3000 -32.0000
v  -1.0000 -0.3000 -28.3938
v  -0.6000 7.0000 -29.1102
v  -0.6000 7.0000 -32.0000
v  1.0000 -0.3000 -32.0000
v  0.6000 7.0000 -32.0000
v  0.6000 7.0000 -29.1102
v  1.0000 -0.3000 -28.3938
v  -0.0000 -0.3000 -0.0000
v  -0.0000 -0.3000 16.0000
v  -0.0000 -0.3000 -16.0000
v  -16.0000 -0.3000 32.0000
v  -13.0000 -0.3000 32.0000
v  -13.0000 -0.3000 16.0000
v  -16.0000 -0.3000 16.0000
v  -13.0000 -0.3000 -32.0000
v  -16.0000 -0.3000 -32.0000
v  -16.0000 7.0000 32.0000
v  -16.0000 7.0000 -32.0000
v  16.0000 7.0000 -32.0000
v  16.0000 -0.3000 -32.0000
v  16.0000 -0.3000 32.0000
v  16.0000 7.0000 32.0000
v  -0.0000 7.0000 32.0000
v  0.0000 7.0000 -32.0000
v  17.0000 -0.5000 -32.0000
v  17.0000 7.5000 -32.0000
v  17.0000 7.5000 -16.0000
v  17.0000 -0.5000 -16.0000
v  17.0000 7.5000 32.0000
v  17.0000 -0.5000 32.0000
v  -17.0000 -0.5000 32.0000
v  -17.0000 7.5000 32.0000
v  -17.0000 7.5000 16.0000
v  -17.0000 -0.5000 16.0000
v  -17.0000 7.5000 -32.0000
v  -17.0000 -0.5000 -32.0000
v  -0.0000 7.5000 32.0000
v  -0.0000 7.5000 -32.0000
v  13.0000 -0.3000 32.0000
v  13.0000 -0.3000 -32.0000
v  -0.0000 -0.3000 -32.0000
v  -0.0000 -0.3000 32.0000
# 73 vertices

vn 0.0000 1.0000 -0.0000
vn 1.0000 0.0000 0.0000
vn -1.0000 0.0000 -0.0000
vn 0.0000 -1.0000 -0.0000
vn 1.0000 0.0000 -0.0000
vn -1.0000 -0.0000 0.0000
vn -1.0000 -0.0000 -0.0000
vn -0.0000 1.0000 -0.0000
vn -0.9985 0.0547 -0.0000
vn 0.9985 0.0547 0.0000
vn 0.0000 0.0977 0.9952
# 11 vertex normals

vt 1.0000 1.0000 1.0000
vt 1.0000 1.0000 1.0000
vt 1.0000 1.0000 1.0000
vt 1.0000 1.0000 1.0000
vt 1.0000 1.0000 1.0000
vt 1.0000 1.0000 1.0000
vt 1.0000 1.0000 1.0000
vt 1.0000 1.0000 1.0000
vt 1.0000 1.0000 1.0000
vt 1.0000 1.0000 1.0000
vt 0.0001 0.9999 0.0000
vt 0.0001 0.0002 0.0000
vt 0.0001 0.0001 0.0000
vt 0.0001 1.0000 0.0000
vt 0.0625 0.0002 0.0000
vt 0.0624 0.9999 0.0000
vt 0.0624 1.0000 0.0000
vt 0.0625 0.0001 0.0000
vt 0.0625 0.0002 0.0000
vt 0.0624 0.9999 0.0000
vt 0.0624 1.0000 0.0000
vt 0.0625 0.0001 0.0000
vt 0.5087 0.0000 0.0000
vt 0.5087 1.0000 0.0000
vt 0.3400 1.0000 0.0000
vt 0.3400 0.0000 0.0000
vt 0.2724 1.0000 0.0000
vt 0.1082 1.0000 0.0000
vt 0.1082 0.0000 0.0000
vt 0.2724 0.0000 0.0000
vt 0.7128 0.0000 0.0000
vt 0.7128 1.0000 0.0000
vt 0.8115 1.0000 0.0000
vt 0.8115 0.0000 0.0000
vt 0.7128 1.0000 0.0000
vt 0.7128 0.0000 0.0000
vt 0.8115 0.0000 0.0000
vt 0.8115 1.0000 0.0000
vt 0.9994 0.0011 0.0000
vt 0.9991 0.0009 0.0000
vt 0.7950 0.0010 0.0000
vt 0.7970 0.9999 0.0000
vt 0.9994 0.9999 0.0000
vt 0.9991 0.9999 0.0000
vt 0.7970 0.9999 0.0000
vt 0.5527 0.0000 0.0000
vt 0.6087 0.0000 0.0000
vt 0.6078 1.0000 0.0000
vt 0.5527 1.0000 0.0000
vt 0.6087 0.0000 0.0000
vt 0.5527 0.0000 0.0000
vt 0.5527 1.0000 0.0000
vt 0.6078 1.0000 0.0000
vt 1.0000 1.0000 1.0000
vt 1.0000 1.0000 1.0000
vt 1.0000 1.0000 1.0000
vt 1.0000 1.0000 1.0000
vt 1.0000 1.0000 1.0000
vt 1.0000 1.0000 1.0000
vt 0.7128 0.7500 0.0000
vt 0.7128 0.5000 0.0000
vt 0.7128 0.2500 0.0000
vt 0.0001 0.7500 0.0000
vt 0.0001 0.5000 0.0000
vt 0.0001 0.2501 0.0000
vt 0.7128 0.2500 0.0000
vt 0.7128 0.5000 0.0000
vt 0.7128 0.7500 0.0000
vt 0.0001 0.2501 0.0000
vt 0.0001 0.5000 0.0000
vt 0.0001 0.7500 0.0000
vt 0.8115 0.7500 0.0000
vt 0.8115 0.5000 0.0000
vt 0.8115 0.2500 0.0000
vt 0.9991 0.7502 0.0000
vt 0.9991 0.5004 0.0000
vt 0.9991 0.2507 0.0000
vt 0.8115 0.2500 0.0000
vt 0.8115 0.5000 0.0000
vt 0.8115 0.7500 0.0000
vt 0.9994 0.2508 0.0000
vt 0.9994 0.5005 0.0000
vt 0.9994 0.7502 0.0000
vt 0.7965 0.7501 0.0000
vt 0.7960 0.5004 0.0000
vt 0.7955 0.2507 0.0000
vt 0.7965 0.7501 0.0000
vt 0.7960 0.5004 0.0000
vt 0.7955 0.2507 0.0000
vt 1.0000 1.0000 1.0000
vt 1.0000 1.0000 1.0000
vt 1.0000 1.0000 1.0000
vt 1.0000 1.0000 1.0000
vt 1.0000 1.0000 1.0000
vt 1.0000 1.0000 1.0000
vt 1.0000 1.0000 1.0000
vt 1.0000 1.0000 1.0000
vt 1.0000 1.0000 1.0000
vt 0.0625 0.2501 0.0000
vt 0.0625 0.5000 0.0000
vt 0.0624 0.7500 0.0000
vt 0.0624 0.7500 0.0000
vt 0.0625 0.5000 0.0000
vt 0.0625 0.2501 0.0000
vt 0.0624 0.7500 0.0000
vt 0.0625 0.5000 0.0000
vt 0.0625 0.2501 0.0000
vt 0.5087 0.7500 0.0000
vt 0.5087 0.5000 0.0000
vt 0.5087 0.2500 0.0000
vt 0.0625 0.2501 0.0000
vt 0.0625 0.5000 0.0000
vt 0.0624 0.7500 0.0000
vt 0.1082 0.2500 0.0000
vt 0.1082 0.5000 0.0000
vt 0.1082 0.7500 0.0000
vt 0.3400 0.7500 0.0000
vt 0.3400 0.5000 0.0000
vt 0.3400 0.2500 0.0000
vt 0.2724 0.7500 0.0000
vt 0.2724 0.5000 0.0000
vt 0.2724 0.2500 0.0000
# 122 texture coords

g Plane005
s 1
f 1/70/1 2/103/1 3/102/1 
f 3/102/1 4/71/1 1/70/1 
s 2
f 5/73/2 1/67/2 4/68/2 
f 4/68/2 6/72/2 5/73/2 
s 1
f 7/79/3 8/61/3 9/62/3 
f 9/62/3 10/78/3 7/79/3 
s 4
f 7/82/4 11/88/4 12/87/4 
f 12/87/4 13/83/4 7/82/4 
s 1
f 14/55/2 15/91/5 16/90/5 
f 16/90/5 17/54/5 14/55/2 
f 18/58/6 19/94/6 20/93/6 
f 20/93/6 21/57/7 18/58/6 
s 2
f 19/94/1 22/97/8 23/96/8 
f 23/96/8 20/93/1 19/94/1 
f 24/100/1 8/64/1 25/63/1 
f 25/63/1 26/101/1 24/100/1 
f 15/91/8 22/97/8 27/98/8 
f 27/98/8 16/90/8 15/91/8 
s 4
f 5/76/4 11/85/4 28/86/4 
f 28/86/4 29/77/4 5/76/4 
f 24/106/3 30/107/3 30/99/3 
f 30/99/3 24/100/3 24/106/3 
s 2
f 2/112/5 3/113/5 3/102/5 
f 3/102/5 2/103/5 2/112/5 
s 64
f 31/46/9 32/47/9 33/48/9 
f 33/48/9 34/49/9 31/46/9 
f 35/51/10 36/52/10 37/53/10 
f 37/53/10 38/50/10 35/51/10 
s off
f 24/109/1 39/118/1 40/119/1 
f 40/119/1 30/110/1 24/109/1 
f 2/115/1 39/121/1 41/120/1 
f 41/120/1 3/116/1 2/115/1 
f 37/53/11 33/48/11 32/47/11 
f 32/47/11 38/50/11 37/53/11 
s 1
f 42/13/1 43/18/1 44/104/1 
f 44/104/1 45/69/1 42/13/1 
f 45/69/1 44/104/1 2/103/1 
f 2/103/1 1/70/1 45/69/1 
f 46/17/1 47/14/1 4/71/1 
f 4/71/1 3/102/1 46/17/1 
s 2
f 48/34/5 42/31/5 45/66/5 
f 45/66/5 29/74/5 48/34/5 
f 29/74/5 45/66/5 1/67/2 
f 1/67/2 5/73/2 29/74/5 
f 47/32/5 49/33/5 6/72/2 
f 6/72/2 4/68/2 47/32/5 
s 1
f 50/38/3 51/35/3 25/60/3 
f 25/60/3 13/80/3 50/38/3 
f 13/80/3 25/60/3 8/61/3 
f 8/61/3 7/79/3 13/80/3 
f 52/36/3 53/37/3 10/78/3 
f 10/78/3 9/62/3 52/36/3 
s 4
f 53/39/4 54/41/4 28/89/4 
f 28/89/4 10/81/4 53/39/4 
f 10/81/4 28/89/4 11/88/4 
f 11/88/4 7/82/4 10/81/4 
f 55/42/4 50/43/4 13/83/4 
f 13/83/4 12/87/4 55/42/4 
s 1
f 56/2/5 57/6/5 58/92/5 
f 58/92/5 59/56/5 56/2/5 
f 59/56/5 58/92/5 15/91/5 
f 15/91/5 14/55/2 59/56/5 
f 60/5/5 61/1/2 17/54/5 
f 17/54/5 16/90/5 60/5/5 
f 62/4/6 63/8/6 64/95/6 
f 64/95/6 65/59/6 62/4/6 
f 65/59/6 64/95/6 19/94/6 
f 19/94/6 18/58/6 65/59/6 
f 66/7/7 67/3/7 21/57/7 
f 21/57/7 20/93/6 66/7/7 
s 2
f 63/8/1 68/10/8 27/98/8 
f 27/98/8 64/95/1 63/8/1 
f 64/95/1 27/98/8 22/97/8 
f 22/97/8 19/94/1 64/95/1 
f 69/9/1 66/7/1 20/93/1 
f 20/93/1 23/96/8 69/9/1 
f 70/15/1 52/12/1 9/65/1 
f 9/65/1 30/99/1 70/15/1 
f 30/99/1 9/65/1 8/64/1 
f 8/64/1 24/100/1 30/99/1 
f 51/11/1 71/16/1 26/101/1 
f 26/101/1 25/63/1 51/11/1 
f 57/6/8 69/9/1 23/96/8 
f 23/96/8 58/92/8 57/6/8 
f 58/92/8 23/96/8 22/97/8 
f 22/97/8 15/91/8 58/92/8 
f 68/10/8 60/5/1 16/90/8 
f 16/90/8 27/98/8 68/10/8 
s 4
f 49/44/4 55/45/4 12/84/4 
f 12/84/4 6/75/4 49/44/4 
f 6/75/4 12/84/4 11/85/4 
f 11/85/4 5/76/4 6/75/4 
f 54/41/4 48/40/4 29/77/4 
f 29/77/4 28/86/4 54/41/4 
f 71/20/3 26/105/3 26/101/3 
f 26/101/3 71/16/3 71/20/3 
f 26/105/3 24/106/3 24/100/3 
f 24/100/3 26/101/3 26/105/3 
f 70/15/3 30/99/3 30/107/3 
f 30/107/3 70/19/3 70/15/3 
s 2
f 43/22/5 44/111/5 44/104/5 
f 44/104/5 43/18/5 43/22/5 
f 44/111/5 2/112/5 2/103/5 
f 2/103/5 44/104/5 44/111/5 
f 46/17/5 3/102/5 3/113/5 
f 3/113/5 46/21/5 46/17/5 
s off
f 71/24/1 72/25/1 41/117/1 
f 41/117/1 26/108/1 71/24/1 
f 26/108/1 41/117/1 39/118/1 
f 39/118/1 24/109/1 26/108/1 
f 73/26/1 70/23/1 30/110/1 
f 30/110/1 40/119/1 73/26/1 
f 43/29/1 73/30/1 40/122/1 
f 40/122/1 44/114/1 43/29/1 
f 44/114/1 40/122/1 39/121/1 
f 39/121/1 2/115/1 44/114/1 
f 72/27/1 46/28/1 3/116/1 
f 3/116/1 41/120/1 72/27/1 
# 118 faces

