# 3ds Max Wavefront OBJ Exporter v0.97b - (c)2007 guruware
# File Created: 30.12.2015 23:19:28

#
# object Plane005
#

v  13.0000 -0.3000 -0.0002
v  0.0455 -0.3000 -0.0002
v  0.0545 -0.3000 5.3332
v  13.0000 -0.3000 5.3332
v  -15.9000 0.0000 -32.0000
v  -15.9000 0.0000 -26.6670
v  -13.0000 0.0000 -26.6670
v  -13.0000 0.0000 -32.0000
v  -15.9000 7.0000 -32.0000
v  -15.9000 7.0000 -26.6670
v  15.9000 7.0000 -0.0002
v  15.9000 0.0000 -0.0002
v  15.9000 0.0000 5.3332
v  15.9000 7.0000 5.3332
v  15.9000 7.0000 -32.0000
v  15.9000 7.0000 -26.6670
v  0.0000 7.0000 -26.6670
v  0.0000 7.0000 -32.0000
v  16.0000 -0.5000 -0.0002
v  16.0000 7.5000 -0.0002
v  16.0000 7.5000 5.3332
v  16.0000 -0.5000 5.3332
v  -16.0000 7.5000 -32.0000
v  -16.0000 -0.5000 -32.0000
v  -16.0000 -0.5000 -26.6670
v  -16.0000 7.5000 -26.6670
v  -0.0000 7.5000 -26.6670
v  -0.0000 7.5000 -32.0000
v  15.9000 0.0000 -32.0000
v  13.0000 0.0000 -32.0000
v  13.0000 0.0000 -26.6670
v  15.9000 0.0000 -26.6670
v  -0.0000 7.5000 -0.0002
v  -0.0000 7.5000 5.3332
v  -15.9000 7.0000 -0.0002
v  -0.0000 7.0000 -0.0002
v  -0.0000 7.0000 5.3332
v  -15.9000 7.0000 5.3332
v  13.0000 -0.3000 -32.0000
v  1.0000 -0.3000 -32.0000
v  1.0000 -0.3000 -26.6670
v  13.0000 -0.3000 -26.6670
v  -15.9000 0.0000 5.3332
v  -13.0000 0.0000 5.3332
v  -13.0000 0.0000 -0.0002
v  -15.9000 0.0000 -0.0002
v  16.0000 -0.5000 -26.6670
v  16.0000 -0.5000 -32.0000
v  16.0000 7.5000 -32.0000
v  16.0000 7.5000 -26.6670
v  -16.0000 -0.5000 5.3332
v  -16.0000 7.5000 5.3332
v  -16.0000 7.5000 -0.0002
v  -16.0000 -0.5000 -0.0002
v  13.0000 0.0000 5.3332
v  13.0000 0.0000 -0.0002
v  -13.0000 -0.3000 5.3332
v  -13.0000 -0.3000 -0.0002
v  -13.0000 -0.3000 -32.0000
v  -13.0000 -0.3000 -26.6670
v  -1.0000 -0.3000 -26.6670
v  -1.0000 -0.3000 -32.0000
v  1.0000 0.0000 -32.0000
v  1.0000 0.0000 -27.1670
v  0.5000 0.0000 -26.6670
v  0.0000 0.0000 -26.6670
v  0.0000 -0.3000 -26.6670
v  -0.5000 0.0000 -26.6670
v  -1.0000 0.0000 -27.1670
v  -1.0000 0.0000 -32.0000
v  -0.6000 7.0000 -28.3770
v  -0.6000 7.0000 -32.0000
v  0.0000 7.0000 -27.8770
v  0.6000 7.0000 -32.0000
v  0.6000 7.0000 -28.3770
v  13.0000 -0.3000 -21.3336
v  0.0091 -0.3000 -21.3336
v  0.0182 -0.3000 -16.0003
v  13.0000 -0.3000 -16.0003
v  0.0273 -0.3000 -10.6669
v  13.0000 -0.3000 -10.6669
v  0.0364 -0.3000 -5.3335
v  13.0000 -0.3000 -5.3335
v  0.1000 -0.3000 32.0000
v  13.0000 -0.3000 32.0000
v  13.0000 -0.3000 26.6666
v  0.0909 -0.3000 26.6666
v  13.0000 -0.3000 21.3333
v  0.0818 -0.3000 21.3333
v  13.0000 -0.3000 15.9999
v  0.0727 -0.3000 15.9999
v  13.0000 -0.3000 10.6665
v  0.0636 -0.3000 10.6665
v  15.9000 0.0000 -21.3336
v  15.9000 7.0000 -21.3336
v  15.9000 0.0000 -16.0003
v  15.9000 7.0000 -16.0003
v  15.9000 0.0000 -10.6669
v  15.9000 7.0000 -10.6669
v  15.9000 0.0000 -5.3335
v  15.9000 7.0000 -5.3335
v  15.9000 0.0000 32.0000
v  15.9000 7.0000 32.0000
v  15.9000 7.0000 26.6666
v  15.9000 0.0000 26.6666
v  15.9000 7.0000 21.3333
v  15.9000 0.0000 21.3333
v  15.9000 7.0000 15.9999
v  15.9000 0.0000 15.9999
v  15.9000 7.0000 10.6665
v  15.9000 0.0000 10.6665
v  16.0000 7.5000 -21.3336
v  16.0000 -0.5000 -21.3336
v  16.0000 7.5000 -16.0003
v  16.0000 -0.5000 -16.0003
v  16.0000 7.5000 -10.6669
v  16.0000 -0.5000 -10.6669
v  16.0000 7.5000 -5.3335
v  16.0000 -0.5000 -5.3335
v  16.0000 7.5000 32.0000
v  16.0000 -0.5000 32.0000
v  16.0000 -0.5000 26.6666
v  16.0000 7.5000 26.6666
v  16.0000 -0.5000 21.3333
v  16.0000 7.5000 21.3333
v  16.0000 -0.5000 15.9999
v  16.0000 7.5000 15.9999
v  16.0000 -0.5000 10.6665
v  16.0000 7.5000 10.6665
v  -0.0000 7.5000 -21.3336
v  -0.0000 7.5000 -16.0003
v  -0.0000 7.5000 -10.6669
v  -0.0000 7.5000 -5.3335
v  -0.0000 7.5000 32.0000
v  -0.0000 7.5000 26.6666
v  -0.0000 7.5000 21.3333
v  -0.0000 7.5000 15.9999
v  -0.0000 7.5000 10.6665
v  0.0000 7.0000 -21.3336
v  -15.9000 7.0000 -21.3336
v  0.0000 7.0000 -16.0003
v  -15.9000 7.0000 -16.0003
v  0.0000 7.0000 -10.6669
v  -15.9000 7.0000 -10.6669
v  0.0000 7.0000 -5.3335
v  -15.9000 7.0000 -5.3335
v  -0.0000 7.0000 32.0000
v  -15.9000 7.0000 32.0000
v  -15.9000 7.0000 26.6666
v  -0.0000 7.0000 26.6666
v  -15.9000 7.0000 21.3333
v  -0.0000 7.0000 21.3333
v  -15.9000 7.0000 15.9999
v  -0.0000 7.0000 15.9999
v  -15.9000 7.0000 10.6665
v  -0.0000 7.0000 10.6665
v  -15.9000 0.0000 32.0000
v  -13.0000 0.0000 32.0000
v  -13.0000 0.0000 26.6666
v  -15.9000 0.0000 26.6666
v  -13.0000 0.0000 21.3333
v  -15.9000 0.0000 21.3333
v  -13.0000 0.0000 15.9999
v  -15.9000 0.0000 15.9999
v  -13.0000 0.0000 10.6665
v  -15.9000 0.0000 10.6665
v  -15.9000 0.0000 -21.3336
v  -13.0000 0.0000 -21.3336
v  -15.9000 0.0000 -16.0003
v  -13.0000 0.0000 -16.0003
v  -15.9000 0.0000 -10.6669
v  -13.0000 0.0000 -10.6669
v  -15.9000 0.0000 -5.3335
v  -13.0000 0.0000 -5.3335
v  -16.0000 -0.5000 32.0000
v  -16.0000 7.5000 32.0000
v  -16.0000 7.5000 26.6666
v  -16.0000 -0.5000 26.6666
v  -16.0000 7.5000 21.3333
v  -16.0000 -0.5000 21.3333
v  -16.0000 7.5000 15.9999
v  -16.0000 -0.5000 15.9999
v  -16.0000 7.5000 10.6665
v  -16.0000 -0.5000 10.6665
v  -16.0000 -0.5000 -21.3336
v  -16.0000 7.5000 -21.3336
v  -16.0000 -0.5000 -16.0003
v  -16.0000 7.5000 -16.0003
v  -16.0000 -0.5000 -10.6669
v  -16.0000 7.5000 -10.6669
v  -16.0000 -0.5000 -5.3335
v  -16.0000 7.5000 -5.3335
v  13.0000 0.0000 32.0000
v  13.0000 0.0000 26.6666
v  13.0000 0.0000 21.3333
v  13.0000 0.0000 15.9999
v  13.0000 0.0000 10.6665
v  13.0000 0.0000 -21.3336
v  13.0000 0.0000 -16.0003
v  13.0000 0.0000 -10.6669
v  13.0000 0.0000 -5.3335
v  -13.0000 -0.3000 32.0000
v  -13.0000 -0.3000 26.6666
v  -13.0000 -0.3000 21.3333
v  -13.0000 -0.3000 15.9999
v  -13.0000 -0.3000 10.6665
v  -13.0000 -0.3000 -21.3336
v  -13.0000 -0.3000 -16.0003
v  -13.0000 -0.3000 -10.6669
v  -13.0000 -0.3000 -5.3335
# 210 vertices

vn 0.0000 1.0000 -0.0000
vn 1.0000 0.0000 -0.0000
vn -1.0000 0.0000 -0.0000
vn 0.0000 -1.0000 -0.0000
vn 1.0000 0.0000 0.0000
vn -1.0000 -0.0000 0.0000
vn -1.0000 -0.0000 -0.0000
vn -0.0000 1.0000 -0.0000
vn 1.0000 -0.0000 0.0000
vn -0.0000 1.0000 0.0000
vn 0.9653 0.2239 0.1344
vn 0.6015 0.5258 0.6015
vn 0.1344 0.2239 0.9653
vn 0.0000 0.0000 1.0000
vn -0.1344 0.2239 0.9653
vn -0.6015 0.5258 0.6015
vn -0.9653 0.2239 0.1344
vn -1.0000 0.0000 0.0000
vn -0.9984 0.0570 0.0000
vn -0.9025 0.1281 0.4111
vn -0.9141 0.1192 0.3876
vn -0.3761 0.1838 0.9081
vn 0.0000 0.1703 0.9854
vn -0.0031 0.2188 0.9758
vn 0.3738 0.1790 0.9101
vn 0.9044 0.1223 0.4087
vn 0.9984 0.0570 0.0000
vn 0.9148 0.1231 0.3846
vn 0.0000 1.0000 0.0000
vn 0.0000 -1.0000 0.0000
# 30 vertex normals

vt 0.1513 0.5000 0.0000
vt 0.2232 0.5000 0.0000
vt 0.2232 0.4167 0.0000
vt 0.1513 0.4167 0.0000
vt 0.0001 1.0000 0.0000
vt 0.0001 0.9167 0.0000
vt 0.0624 0.9167 0.0000
vt 0.0624 1.0000 0.0000
vt 0.6584 1.0000 0.0000
vt 0.6584 0.9167 0.0000
vt 0.5860 0.9167 0.0000
vt 0.5860 1.0000 0.0000
vt 0.6584 0.5000 0.0000
vt 0.5860 0.5000 0.0000
vt 0.5860 0.4167 0.0000
vt 0.6584 0.4167 0.0000
vt 0.7327 1.0000 0.0000
vt 0.7327 0.9167 0.0000
vt 0.7660 0.9167 0.0000
vt 0.7660 1.0000 0.0000
vt 1.0000 1.0000 1.0000
vt 0.0001 0.9999 0.0000
vt 0.0624 0.9999 0.0000
vt 0.0624 0.9166 0.0000
vt 0.0001 0.9166 0.0000
vt 0.6589 0.5504 0.0000
vt 0.7374 0.5483 0.0000
vt 0.7374 0.4575 0.0000
vt 0.6589 0.4595 0.0000
vt 0.1513 0.9999 0.0000
vt 0.2041 0.9999 0.0000
vt 0.2043 0.9166 0.0000
vt 0.1513 0.9166 0.0000
vt 0.0001 0.4167 0.0000
vt 0.0625 0.4167 0.0000
vt 0.0625 0.5000 0.0000
vt 0.0001 0.5000 0.0000
vt 0.8131 0.4562 0.0000
vt 0.8131 0.5471 0.0000
vt 0.1513 1.0000 0.0000
vt 0.1513 0.9167 0.0000
vt 0.2041 1.0000 0.0000
vt 0.4477 0.0912 0.0000
vt 0.4818 0.0912 0.0000
vt 0.4854 -0.0000 0.0000
vt 0.4477 -0.0000 0.0000
vt 0.4792 0.0543 0.0000
vt 0.4700 0.0543 0.0000
vt 0.4700 0.0000 0.0000
vt 0.4884 0.0000 0.0000
vt 0.4607 0.0543 0.0000
vt 0.4515 0.0000 0.0000
vt 0.4477 0.0000 0.0000
vt 0.4854 0.0000 0.0000
vt 0.4420 0.0000 0.0000
vt 0.4980 0.0000 0.0000
vt 0.4971 1.0000 0.0000
vt 0.4420 1.0000 0.0000
vt 0.4542 0.0000 0.0000
vt 0.4690 0.0000 0.0000
vt 0.4690 1.0000 0.0000
vt 0.4838 0.0000 0.0000
vt 0.4884 0.0543 0.0000
vt 0.4986 0.0000 0.0000
vt 0.4868 1.0000 0.0000
vt 0.4515 0.0543 0.0000
vt 0.4394 0.0000 0.0000
vt 0.4513 1.0000 0.0000
vt 0.1513 0.8333 0.0000
vt 0.2231 0.9166 0.0000
vt 0.2232 0.8333 0.0000
vt 0.2232 0.7500 0.0000
vt 0.1513 0.7500 0.0000
vt 0.2232 0.6667 0.0000
vt 0.1513 0.6667 0.0000
vt 0.2232 0.5834 0.0000
vt 0.1513 0.5834 0.0000
vt 0.2233 0.0001 0.0000
vt 0.1513 0.0002 0.0000
vt 0.1513 0.0835 0.0000
vt 0.2233 0.0834 0.0000
vt 0.1513 0.1668 0.0000
vt 0.2233 0.1668 0.0000
vt 0.1513 0.2501 0.0000
vt 0.2233 0.2501 0.0000
vt 0.1513 0.3334 0.0000
vt 0.2233 0.3334 0.0000
vt 0.5860 0.8333 0.0000
vt 0.6584 0.8333 0.0000
vt 0.5860 0.7500 0.0000
vt 0.6584 0.7500 0.0000
vt 0.5860 0.6667 0.0000
vt 0.6584 0.6667 0.0000
vt 0.5860 0.5833 0.0000
vt 0.6584 0.5833 0.0000
vt 0.5860 0.0000 0.0000
vt 0.6584 0.0000 0.0000
vt 0.6584 0.0833 0.0000
vt 0.5860 0.0833 0.0000
vt 0.6584 0.1667 0.0000
vt 0.5860 0.1667 0.0000
vt 0.6584 0.2500 0.0000
vt 0.5860 0.2500 0.0000
vt 0.6584 0.3333 0.0000
vt 0.5860 0.3333 0.0000
vt 0.6589 1.0046 0.0000
vt 0.7374 1.0025 0.0000
vt 0.7374 0.9117 0.0000
vt 0.6589 0.9137 0.0000
vt 0.7374 0.8208 0.0000
vt 0.6589 0.8229 0.0000
vt 0.7374 0.7300 0.0000
vt 0.6589 0.7321 0.0000
vt 0.7374 0.6392 0.0000
vt 0.6589 0.6412 0.0000
vt 0.7374 0.0033 0.0000
vt 0.6589 0.0054 0.0000
vt 0.6589 0.0962 0.0000
vt 0.7374 0.0941 0.0000
vt 0.6589 0.1870 0.0000
vt 0.7374 0.1850 0.0000
vt 0.6589 0.2779 0.0000
vt 0.7374 0.2758 0.0000
vt 0.6589 0.3687 0.0000
vt 0.7374 0.3666 0.0000
vt 0.0001 0.0001 0.0000
vt 0.0625 0.0001 0.0000
vt 0.0625 0.0834 0.0000
vt 0.0001 0.0834 0.0000
vt 0.0625 0.1667 0.0000
vt 0.0001 0.1667 0.0000
vt 0.0625 0.2501 0.0000
vt 0.0001 0.2501 0.0000
vt 0.0625 0.3334 0.0000
vt 0.0001 0.3334 0.0000
vt 0.0001 0.8333 0.0000
vt 0.0624 0.8333 0.0000
vt 0.0001 0.7500 0.0000
vt 0.0624 0.7500 0.0000
vt 0.0001 0.6667 0.0000
vt 0.0625 0.6667 0.0000
vt 0.0001 0.5834 0.0000
vt 0.0625 0.5834 0.0000
vt 0.8131 0.0021 0.0000
vt 0.8131 0.0929 0.0000
vt 0.8131 0.1837 0.0000
vt 0.8131 0.2746 0.0000
vt 0.8131 0.3654 0.0000
vt 0.8131 1.0013 0.0000
vt 0.8131 0.9104 0.0000
vt 0.8131 0.8196 0.0000
vt 0.8131 0.7288 0.0000
vt 0.8131 0.6379 0.0000
vt 0.0625 0.0002 0.0000
vt 0.0001 0.0002 0.0000
vt 0.0001 0.0835 0.0000
vt 0.0625 0.0835 0.0000
vt 0.0001 0.1668 0.0000
vt 0.0625 0.1668 0.0000
vt 0.1513 0.0001 0.0000
vt 0.1513 0.0834 0.0000
vt 0.1513 0.1667 0.0000
# 162 texture coords

g Plane005
s 1
f 1/1/1 2/2/1 3/3/1 
f 3/3/1 4/4/1 1/1/1 
f 5/5/1 6/6/1 7/7/1 
f 7/7/1 8/8/1 5/5/1 
s 2
f 9/9/2 10/10/2 6/11/2 
f 6/11/2 5/12/2 9/9/2 
s 1
f 11/13/3 12/14/3 13/15/3 
f 13/15/3 14/16/3 11/13/3 
s 4
f 15/17/4 16/18/4 17/19/4 
f 17/19/4 18/20/4 15/17/4 
s 1
f 19/21/5 20/21/2 21/21/2 
f 21/21/2 22/21/5 19/21/5 
f 23/21/6 24/21/7 25/21/7 
f 25/21/7 26/21/6 23/21/6 
s 2
f 23/21/1 26/21/1 27/21/1 
f 27/21/1 28/21/1 23/21/1 
f 29/22/1 30/23/1 31/24/1 
f 31/24/1 32/25/1 29/22/1 
f 20/21/8 33/21/8 34/21/8 
f 34/21/8 21/21/8 20/21/8 
s 4
f 35/26/4 36/27/4 37/28/4 
f 37/28/4 38/29/4 35/26/4 
s 1
f 39/30/1 40/31/1 41/32/1 
f 41/32/1 42/33/1 39/30/1 
f 43/34/1 44/35/1 45/36/1 
f 45/36/1 46/37/1 43/34/1 
s 2
f 38/16/9 43/15/9 46/14/9 
f 46/14/9 35/13/9 38/16/9 
s 1
f 15/9/3 29/12/3 32/11/3 
f 32/11/3 16/10/3 15/9/3 
s 4
f 14/38/4 37/28/4 36/27/4 
f 36/27/4 11/39/4 14/38/4 
s 1
f 47/21/2 48/21/2 49/21/2 
f 49/21/2 50/21/2 47/21/2 
f 51/21/7 52/21/6 53/21/6 
f 53/21/6 54/21/7 51/21/7 
s 2
f 52/21/1 34/21/8 33/21/8 
f 33/21/8 53/21/1 52/21/1 
f 55/35/1 13/34/1 12/37/1 
f 12/37/1 56/36/1 55/35/1 
f 49/21/1 28/21/1 27/21/1 
f 27/21/1 50/21/1 49/21/1 
s 1
f 57/4/10 3/3/1 2/2/1 
f 2/2/1 58/1/10 57/4/10 
s 4
f 9/17/4 18/20/4 17/19/4 
f 17/19/4 10/18/4 9/17/4 
s 1
f 59/40/1 60/41/1 61/32/1 
f 61/32/1 62/42/1 59/40/1 
s 4
f 56/36/3 1/36/3 4/35/3 
f 4/35/3 55/35/3 56/36/3 
f 31/24/3 30/23/3 39/23/3 
f 39/23/3 42/24/3 31/24/3 
s 128
f 63/43/5 64/44/11 41/45/12 
f 41/45/12 40/46/5 63/43/5 
f 65/47/13 66/48/14 67/49/14 
f 67/49/14 41/50/12 65/47/13 
f 66/48/14 68/51/15 61/52/16 
f 61/52/16 67/49/14 66/48/14 
f 69/44/17 70/43/18 62/53/6 
f 62/53/6 61/54/16 69/44/17 
s 2
f 8/8/2 7/7/2 60/7/2 
f 60/7/2 59/8/2 8/8/2 
f 44/35/2 57/35/2 58/36/2 
f 58/36/2 45/36/2 44/35/2 
s 64
f 70/55/19 69/56/20 71/57/21 
f 71/57/21 72/58/19 70/55/19 
f 68/59/22 66/60/23 73/61/24 
f 66/60/23 65/62/25 73/61/24 
f 64/56/26 63/55/27 74/58/27 
f 74/58/27 75/57/28 64/56/26 
s 128
f 65/47/13 41/50/12 64/63/11 
s 64
f 65/62/25 64/64/26 75/65/28 
f 75/65/28 73/61/24 65/62/25 
s 128
f 68/51/15 69/66/17 61/52/16 
s 64
f 69/67/20 68/59/22 73/61/24 
f 73/61/24 71/68/21 69/67/20 
s 1
f 76/69/1 42/33/1 41/32/1 
f 76/69/1 41/32/1 67/70/1 
f 76/69/1 67/70/1 77/71/1 
f 76/69/1 77/71/1 78/72/8 
f 78/72/8 79/73/1 76/69/1 
f 79/73/1 78/72/8 80/74/8 
f 80/74/8 81/75/1 79/73/1 
f 81/75/1 80/74/8 82/76/1 
f 82/76/1 83/77/1 81/75/1 
f 83/77/1 82/76/1 2/2/1 
f 2/2/1 1/1/1 83/77/1 
f 84/78/29 85/79/1 86/80/1 
f 86/80/1 87/81/1 84/78/29 
f 87/81/1 86/80/1 88/82/1 
f 88/82/1 89/83/8 87/81/1 
f 89/83/8 88/82/1 90/84/1 
f 90/84/1 91/85/8 89/83/8 
f 91/85/8 90/84/1 92/86/1 
f 92/86/1 93/87/1 91/85/8 
f 93/87/1 92/86/1 4/4/1 
f 4/4/1 3/3/1 93/87/1 
f 16/10/3 32/11/3 94/88/3 
f 94/88/3 95/89/3 16/10/3 
f 95/89/3 94/88/3 96/90/3 
f 96/90/3 97/91/3 95/89/3 
f 97/91/3 96/90/3 98/92/3 
f 98/92/3 99/93/3 97/91/3 
f 99/93/3 98/92/3 100/94/3 
f 100/94/3 101/95/3 99/93/3 
f 101/95/3 100/94/3 12/14/3 
f 12/14/3 11/13/3 101/95/3 
f 102/96/3 103/97/3 104/98/3 
f 104/98/3 105/99/3 102/96/3 
f 105/99/3 104/98/3 106/100/3 
f 106/100/3 107/101/3 105/99/3 
f 107/101/3 106/100/3 108/102/3 
f 108/102/3 109/103/3 107/101/3 
f 109/103/3 108/102/3 110/104/3 
f 110/104/3 111/105/3 109/103/3 
f 111/105/3 110/104/3 14/16/3 
f 14/16/3 13/15/3 111/105/3 
f 47/21/2 50/21/2 112/21/2 
f 112/21/2 113/21/5 47/21/2 
f 113/21/5 112/21/2 114/21/2 
f 114/21/2 115/21/5 113/21/5 
f 115/21/5 114/21/2 116/21/2 
f 116/21/2 117/21/5 115/21/5 
f 117/21/5 116/21/2 118/21/2 
f 118/21/2 119/21/5 117/21/5 
f 119/21/5 118/21/2 20/21/2 
f 20/21/2 19/21/5 119/21/5 
f 120/21/2 121/21/5 122/21/5 
f 122/21/5 123/21/2 120/21/2 
f 123/21/2 122/21/5 124/21/5 
f 124/21/5 125/21/2 123/21/2 
f 125/21/2 124/21/5 126/21/5 
f 126/21/5 127/21/2 125/21/2 
f 127/21/2 126/21/5 128/21/5 
f 128/21/5 129/21/2 127/21/2 
f 129/21/2 128/21/5 22/21/5 
f 22/21/5 21/21/2 129/21/2 
s 2
f 50/21/1 27/21/1 130/21/1 
f 130/21/1 112/21/8 50/21/1 
f 112/21/8 130/21/1 131/21/8 
f 131/21/8 114/21/8 112/21/8 
f 114/21/8 131/21/8 132/21/8 
f 132/21/8 116/21/8 114/21/8 
f 116/21/8 132/21/8 133/21/8 
f 133/21/8 118/21/8 116/21/8 
f 118/21/8 133/21/8 33/21/8 
f 33/21/8 20/21/8 118/21/8 
f 134/21/1 120/21/1 123/21/1 
f 123/21/1 135/21/8 134/21/1 
f 135/21/8 123/21/1 125/21/8 
f 125/21/8 136/21/8 135/21/8 
f 136/21/8 125/21/8 127/21/8 
f 127/21/8 137/21/8 136/21/8 
f 137/21/8 127/21/8 129/21/8 
f 129/21/8 138/21/8 137/21/8 
f 138/21/8 129/21/8 21/21/8 
f 21/21/8 34/21/8 138/21/8 
s 4
f 10/106/4 17/107/4 139/108/4 
f 139/108/4 140/109/4 10/106/4 
f 140/109/4 139/108/4 141/110/4 
f 141/110/4 142/111/4 140/109/4 
f 142/111/4 141/110/4 143/112/4 
f 143/112/4 144/113/4 142/111/4 
f 144/113/4 143/112/4 145/114/4 
f 145/114/4 146/115/4 144/113/4 
f 146/115/4 145/114/4 36/27/4 
f 36/27/4 35/26/4 146/115/4 
f 147/116/30 148/117/4 149/118/4 
f 149/118/4 150/119/4 147/116/30 
f 150/119/4 149/118/4 151/120/4 
f 151/120/4 152/121/4 150/119/4 
f 152/121/4 151/120/4 153/122/30 
f 153/122/30 154/123/4 152/121/4 
f 154/123/4 153/122/30 155/124/4 
f 155/124/4 156/125/4 154/123/4 
f 156/125/4 155/124/4 38/29/4 
f 38/29/4 37/28/4 156/125/4 
s 1
f 157/126/1 158/127/1 159/128/1 
f 159/128/1 160/129/1 157/126/1 
f 160/129/1 159/128/1 161/130/1 
f 161/130/1 162/131/1 160/129/1 
f 162/131/1 161/130/1 163/132/1 
f 163/132/1 164/133/1 162/131/1 
f 164/133/1 163/132/1 165/134/1 
f 165/134/1 166/135/1 164/133/1 
f 166/135/1 165/134/1 44/35/1 
f 44/35/1 43/34/1 166/135/1 
f 7/7/1 6/6/1 167/136/1 
f 167/136/1 168/137/1 7/7/1 
f 168/137/1 167/136/1 169/138/1 
f 169/138/1 170/139/1 168/137/1 
f 170/139/1 169/138/1 171/140/1 
f 171/140/1 172/141/1 170/139/1 
f 172/141/1 171/140/1 173/142/1 
f 173/142/1 174/143/1 172/141/1 
f 174/143/1 173/142/1 46/37/1 
f 46/37/1 45/36/1 174/143/1 
s 2
f 148/97/2 157/96/2 160/99/2 
f 160/99/2 149/98/2 148/97/2 
f 149/98/2 160/99/2 162/101/2 
f 162/101/2 151/100/2 149/98/2 
f 151/100/2 162/101/2 164/103/2 
f 164/103/2 153/102/2 151/100/2 
f 153/102/2 164/103/2 166/105/2 
f 166/105/2 155/104/2 153/102/2 
f 155/104/2 166/105/2 43/15/9 
f 43/15/9 38/16/9 155/104/2 
f 6/11/2 10/10/2 140/89/2 
f 140/89/2 167/88/2 6/11/2 
f 167/88/2 140/89/2 142/91/2 
f 142/91/2 169/90/2 167/88/2 
f 169/90/2 142/91/2 144/93/2 
f 144/93/2 171/92/2 169/90/2 
f 171/92/2 144/93/2 146/95/2 
f 146/95/2 173/94/2 171/92/2 
f 173/94/2 146/95/2 35/13/9 
f 35/13/9 46/14/9 173/94/2 
s 4
f 103/144/30 147/116/30 150/119/4 
f 150/119/4 104/145/4 103/144/30 
f 104/145/4 150/119/4 152/121/4 
f 152/121/4 106/146/4 104/145/4 
f 106/146/4 152/121/4 154/123/4 
f 154/123/4 108/147/4 106/146/4 
f 108/147/4 154/123/4 156/125/4 
f 156/125/4 110/148/30 108/147/4 
f 110/148/30 156/125/4 37/28/4 
f 37/28/4 14/38/4 110/148/30 
f 17/107/4 16/149/4 95/150/4 
f 95/150/4 139/108/4 17/107/4 
f 139/108/4 95/150/4 97/151/4 
f 97/151/4 141/110/4 139/108/4 
f 141/110/4 97/151/4 99/152/4 
f 99/152/4 143/112/4 141/110/4 
f 143/112/4 99/152/4 101/153/4 
f 101/153/4 145/114/4 143/112/4 
f 145/114/4 101/153/4 11/39/4 
f 11/39/4 36/27/4 145/114/4 
s 1
f 175/21/6 176/21/6 177/21/6 
f 177/21/6 178/21/7 175/21/6 
f 178/21/7 177/21/6 179/21/6 
f 179/21/6 180/21/7 178/21/7 
f 180/21/7 179/21/6 181/21/6 
f 181/21/6 182/21/7 180/21/7 
f 182/21/7 181/21/6 183/21/6 
f 183/21/6 184/21/7 182/21/7 
f 184/21/7 183/21/6 52/21/6 
f 52/21/6 51/21/7 184/21/7 
f 26/21/6 25/21/7 185/21/7 
f 185/21/7 186/21/6 26/21/6 
f 186/21/6 185/21/7 187/21/7 
f 187/21/7 188/21/6 186/21/6 
f 188/21/6 187/21/7 189/21/7 
f 189/21/7 190/21/6 188/21/6 
f 190/21/6 189/21/7 191/21/7 
f 191/21/7 192/21/6 190/21/6 
f 192/21/6 191/21/7 54/21/7 
f 54/21/7 53/21/6 192/21/6 
s 2
f 176/21/1 134/21/1 135/21/8 
f 135/21/8 177/21/1 176/21/1 
f 177/21/1 135/21/8 136/21/8 
f 136/21/8 179/21/1 177/21/1 
f 179/21/1 136/21/8 137/21/8 
f 137/21/8 181/21/1 179/21/1 
f 181/21/1 137/21/8 138/21/8 
f 138/21/8 183/21/1 181/21/1 
f 183/21/1 138/21/8 34/21/8 
f 34/21/8 52/21/1 183/21/1 
f 27/21/1 26/21/1 186/21/1 
f 186/21/1 130/21/1 27/21/1 
f 130/21/1 186/21/1 188/21/1 
f 188/21/1 131/21/8 130/21/1 
f 131/21/8 188/21/1 190/21/1 
f 190/21/1 132/21/8 131/21/8 
f 132/21/8 190/21/1 192/21/1 
f 192/21/1 133/21/8 132/21/8 
f 133/21/8 192/21/1 53/21/1 
f 53/21/1 33/21/8 133/21/8 
f 193/154/1 102/155/1 105/156/1 
f 105/156/1 194/157/1 193/154/1 
f 194/157/1 105/156/1 107/158/1 
f 107/158/1 195/159/1 194/157/1 
f 195/159/1 107/158/1 109/133/1 
f 109/133/1 196/132/1 195/159/1 
f 196/132/1 109/133/1 111/135/1 
f 111/135/1 197/134/1 196/132/1 
f 197/134/1 111/135/1 13/34/1 
f 13/34/1 55/35/1 197/134/1 
f 32/25/1 31/24/1 198/137/1 
f 198/137/1 94/136/1 32/25/1 
f 94/136/1 198/137/1 199/139/1 
f 199/139/1 96/138/1 94/136/1 
f 96/138/1 199/139/1 200/141/1 
f 200/141/1 98/140/1 96/138/1 
f 98/140/1 200/141/1 201/143/1 
f 201/143/1 100/142/1 98/140/1 
f 100/142/1 201/143/1 56/36/1 
f 56/36/1 12/37/1 100/142/1 
s 1
f 202/160/10 84/78/29 87/81/1 
f 87/81/1 203/161/10 202/160/10 
f 203/161/10 87/81/1 89/83/8 
f 89/83/8 204/162/8 203/161/10 
f 204/162/8 89/83/8 91/85/8 
f 91/85/8 205/84/10 204/162/8 
f 205/84/10 91/85/8 93/87/1 
f 93/87/1 206/86/10 205/84/10 
f 206/86/10 93/87/1 3/3/1 
f 3/3/1 57/4/10 206/86/10 
f 77/71/1 67/70/1 61/32/1 
f 77/71/1 61/32/1 60/41/1 
f 77/71/1 60/41/1 207/69/1 
f 77/71/1 207/69/1 208/73/1 
f 208/73/1 78/72/8 77/71/1 
f 78/72/8 208/73/1 209/75/8 
f 209/75/8 80/74/8 78/72/8 
f 80/74/8 209/75/8 210/77/10 
f 210/77/10 82/76/1 80/74/8 
f 82/76/1 210/77/10 58/1/10 
f 58/1/10 2/2/1 82/76/1 
s 4
f 31/24/3 42/24/3 76/137/3 
f 76/137/3 198/137/3 31/24/3 
f 198/137/3 76/137/3 79/139/3 
f 79/139/3 199/139/3 198/137/3 
f 199/139/3 79/139/3 81/141/3 
f 81/141/3 200/141/3 199/139/3 
f 200/141/3 81/141/3 83/143/3 
f 83/143/3 201/143/3 200/141/3 
f 201/143/3 83/143/3 1/36/3 
f 1/36/3 56/36/3 201/143/3 
f 85/154/3 193/154/3 194/157/3 
f 194/157/3 86/157/3 85/154/3 
f 86/157/3 194/157/3 195/159/3 
f 195/159/3 88/159/3 86/157/3 
f 88/159/3 195/159/3 196/132/3 
f 196/132/3 90/132/3 88/159/3 
f 90/132/3 196/132/3 197/134/3 
f 197/134/3 92/134/3 90/132/3 
f 92/134/3 197/134/3 55/35/3 
f 55/35/3 4/35/3 92/134/3 
s 2
f 158/127/2 202/127/2 203/128/2 
f 203/128/2 159/128/2 158/127/2 
f 159/128/2 203/128/2 204/130/2 
f 204/130/2 161/130/2 159/128/2 
f 161/130/2 204/130/2 205/132/2 
f 205/132/2 163/132/2 161/130/2 
f 163/132/2 205/132/2 206/134/2 
f 206/134/2 165/134/2 163/132/2 
f 165/134/2 206/134/2 57/35/2 
f 57/35/2 44/35/2 165/134/2 
f 60/7/2 7/7/2 168/137/2 
f 168/137/2 207/137/2 60/7/2 
f 207/137/2 168/137/2 170/139/2 
f 170/139/2 208/139/2 207/137/2 
f 208/139/2 170/139/2 172/141/2 
f 172/141/2 209/141/2 208/139/2 
f 209/141/2 172/141/2 174/143/2 
f 174/143/2 210/143/2 209/141/2 
f 210/143/2 174/143/2 45/36/2 
f 45/36/2 58/36/2 210/143/2 
# 358 faces

