# 3ds Max Wavefront OBJ Exporter v0.97b - (c)2007 guruware
# File Created: 07.02.2018 21:13:05

#
# object Object005
#

v  -2.0000 -0.0000 -32.0000
v  -2.0000 -0.2950 -32.0000
v  -2.1869 -0.2950 -16.0000
v  -2.1869 -0.0000 -16.0000
v  2.0000 -0.0000 -32.0000
v  2.1875 -0.0000 -16.0000
v  2.1875 -0.2950 -16.0000
v  2.0000 -0.2950 -32.0000
v  -2.5994 -0.2950 0.0000
v  -2.5994 -0.0000 0.0000
v  2.5999 -0.0000 -0.0000
v  2.5999 -0.2950 -0.0000
v  3.2000 -0.2950 32.0000
v  3.0124 -0.2950 16.0000
v  3.0124 -0.0000 16.0000
v  3.2000 0.0000 32.0000
v  -3.2000 0.0000 32.0000
v  -3.0123 -0.0000 16.0000
v  -3.2000 -0.2950 32.0000
v  -3.0123 -0.2950 16.0000
v  6.6165 -0.2950 15.7262
v  6.3337 -0.2950 32.0001
v  6.5137 -0.2950 32.0001
v  6.7962 -0.2950 15.7258
v  7.2342 -0.2950 -0.2373
v  7.4140 -0.2950 -0.2377
v  8.0314 -0.2950 -16.0569
v  7.8515 -0.2950 -16.0567
v  8.3123 -0.2950 -32.0000
v  8.1323 -0.2950 -32.0000
v  -8.3118 -0.2950 -32.0000
v  -8.0291 -0.2950 -15.7260
v  -7.8493 -0.2950 -15.7256
v  -8.1318 -0.2950 -32.0000
v  -7.4113 -0.2950 0.2375
v  -7.2316 -0.2950 0.2378
v  -6.7941 -0.2950 16.0569
v  -6.6142 -0.2950 16.0571
v  -6.5133 -0.2950 32.0001
v  -6.3333 -0.2950 32.0001
# 40 vertices

vn -0.9999 0.0001 -0.0117
vn 0.0000 1.0000 -0.0000
vn 0.9999 0.0000 -0.0117
vn -0.9997 0.0002 -0.0258
vn -0.0000 1.0000 -0.0000
vn 0.9997 0.0000 -0.0258
vn 0.9999 -0.0000 -0.0117
vn 0.0000 0.0000 -1.0000
vn 0.0000 -0.0000 1.0000
# 9 vertex normals

vt 0.4004 1.0000 0.0000
vt 0.4004 0.7500 0.0000
vt 0.6046 1.0000 0.0000
vt 0.6046 0.7500 0.0000
vt 0.4004 0.5000 0.0000
vt 0.6046 0.5000 0.0000
vt 0.6046 0.0000 0.0000
vt 0.6046 0.2500 0.0000
vt 0.4004 0.0000 0.0000
vt 0.4004 0.2500 0.0000
vt 0.0398 1.0000 0.0000
vt 0.2440 1.0000 0.0000
vt 0.2440 0.0000 0.0000
vt 0.0398 0.0000 0.0000
vt 0.1589 0.2500 0.0000
vt 0.1589 0.0000 0.0000
vt 0.1635 0.0000 0.0000
vt 0.1635 0.2500 0.0000
vt 0.1589 0.5000 0.0000
vt 0.1635 0.5000 0.0000
vt 0.1635 0.7500 0.0000
vt 0.1589 0.7500 0.0000
vt 0.1635 1.0000 0.0000
vt 0.1589 1.0000 0.0000
# 24 texture coords

g Object005
s off
f 1/1/1 2/1/1 3/2/1 4/2/1 
f 5/3/2 1/1/2 4/2/2 6/4/2 
f 5/3/3 6/4/3 7/4/3 8/3/3 
f 4/2/4 3/2/4 9/5/4 10/5/4 
f 4/2/5 10/5/5 11/6/5 6/4/5 
f 7/4/6 6/4/6 11/6/6 12/6/6 
f 13/7/7 14/8/7 15/8/7 16/7/7 
f 17/9/5 16/7/5 15/8/5 18/10/5 
f 19/9/1 17/9/1 18/10/1 20/10/1 
f 14/8/6 12/6/6 11/6/6 15/8/6 
f 15/8/5 11/6/5 10/5/5 18/10/5 
f 18/10/4 10/5/4 9/5/4 20/10/4 
f 2/11/8 1/11/8 5/12/8 8/12/8 
f 16/13/9 17/14/9 19/14/9 13/13/9 
s 1
f 21/15/2 22/16/2 23/17/2 24/18/2 
f 25/19/2 21/15/2 24/18/2 26/20/2 
f 27/21/2 28/22/2 25/19/2 26/20/2 
f 29/23/2 30/24/2 28/22/2 27/21/2 
f 31/16/2 32/15/2 33/18/2 34/17/2 
f 32/15/2 35/19/2 36/20/2 33/18/2 
f 36/20/2 35/19/2 37/22/2 38/21/2 
f 38/21/2 37/22/2 39/24/2 40/23/2 
# 22 polygons

