# 3ds Max Wavefront OBJ Exporter v0.97b - (c)2007 guruware
# File Created: 20.06.2018 00:24:07

#
# object seg
#

v  2.5000 0.2500 -0.0000
v  3.7880 0.2500 -0.0000
v  3.7880 0.2500 -5.3333
v  2.5000 0.2500 -5.3333
v  2.5000 0.1000 -0.0000
v  2.5000 0.1000 -5.3333
v  7.0000 -3.0650 -0.0000
v  4.1423 0.1000 -0.0000
v  4.1423 0.1000 5.3333
v  7.0000 -3.0650 5.3333
v  3.7880 0.2500 5.3333
v  2.5000 0.2500 32.0000
v  3.7880 0.2500 32.0000
v  3.7880 0.2500 26.6667
v  2.5000 0.2500 26.6667
v  3.7880 0.2500 21.3333
v  2.5000 0.2500 21.3333
v  3.7880 0.2500 16.0000
v  2.5000 0.2500 16.0000
v  3.7880 0.2500 10.6667
v  2.5000 0.2500 10.6667
v  2.5000 0.2500 5.3333
v  3.7880 0.2500 -32.0000
v  2.5000 0.2500 -32.0000
v  2.5000 0.2500 -26.6667
v  3.7880 0.2500 -26.6667
v  2.5000 0.2500 -21.3333
v  3.7880 0.2500 -21.3333
v  2.5000 0.2500 -16.0000
v  3.7880 0.2500 -16.0000
v  2.5000 0.2500 -10.6667
v  3.7880 0.2500 -10.6667
v  2.5000 0.1000 32.0000
v  2.5000 0.1000 26.6667
v  2.5000 0.1000 21.3333
v  2.5000 0.1000 16.0000
v  2.5000 0.1000 10.6667
v  2.5000 0.1000 5.3333
v  2.5000 0.1000 -32.0000
v  2.5000 0.1000 -26.6667
v  2.5000 0.1000 -21.3333
v  2.5000 0.1000 -16.0000
v  2.5000 0.1000 -10.6667
v  7.0000 -3.0650 -32.0000
v  4.1423 0.1000 -32.0000
v  4.1423 0.1000 -26.6667
v  7.0000 -3.0650 -26.6667
v  4.1423 0.1000 -21.3333
v  7.0000 -3.0650 -21.3333
v  4.1423 0.1000 -16.0000
v  7.0000 -3.0650 -16.0000
v  4.1423 0.1000 -10.6667
v  7.0000 -3.0650 -10.6667
v  4.1423 0.1000 -5.3333
v  7.0000 -3.0650 -5.3333
v  4.1423 0.1000 32.0000
v  7.0000 -3.0650 32.0000
v  7.0000 -3.0650 26.6667
v  4.1423 0.1000 26.6667
v  7.0000 -3.0650 21.3333
v  4.1423 0.1000 21.3333
v  7.0000 -3.0650 16.0000
v  4.1423 0.1000 16.0000
v  7.0000 -3.0650 10.6667
v  4.1423 0.1000 10.6667
v  -4.0000 0.3000 -0.0000
v  -4.0000 0.3000 1.3333
v  -2.5000 0.3000 1.3333
v  -2.5000 0.3000 -0.0000
v  2.5000 0.1000 -1.3333
v  -2.5000 0.3000 -1.3333
v  -4.0000 0.3000 -32.0000
v  -4.0000 0.3000 -30.6667
v  -2.5000 0.3000 -30.6667
v  -2.5000 0.3000 -32.0000
v  -4.0000 0.3000 -26.6667
v  -4.0000 0.3000 -25.3333
v  -2.5000 0.3000 -25.3333
v  -2.5000 0.3000 -26.6667
v  -4.0000 0.3000 -21.3333
v  -4.0000 0.3000 -20.0000
v  -2.5000 0.3000 -20.0000
v  -2.5000 0.3000 -21.3333
v  -4.0000 0.3000 -16.0000
v  -4.0000 0.3000 -14.6667
v  -2.5000 0.3000 -14.6667
v  -2.5000 0.3000 -16.0000
v  -4.0000 0.3000 -10.6667
v  -4.0000 0.3000 -9.3333
v  -2.5000 0.3000 -9.3333
v  -2.5000 0.3000 -10.6667
v  -4.0000 0.3000 -5.3333
v  -4.0000 0.3000 -4.0000
v  -2.5000 0.3000 -4.0000
v  -2.5000 0.3000 -5.3333
v  -2.5000 0.3000 32.0000
v  -2.5000 0.3000 30.6667
v  -4.0000 0.3000 30.6667
v  -4.0000 0.3000 32.0000
v  -2.5000 0.3000 26.6667
v  -2.5000 0.3000 25.3334
v  -4.0000 0.3000 25.3334
v  -4.0000 0.3000 26.6667
v  -2.5000 0.3000 21.3333
v  -2.5000 0.3000 20.0000
v  -4.0000 0.3000 20.0000
v  -4.0000 0.3000 21.3333
v  -2.5000 0.3000 16.0000
v  -2.5000 0.3000 14.6667
v  -4.0000 0.3000 14.6667
v  -4.0000 0.3000 16.0000
v  -2.5000 0.3000 10.6667
v  -2.5000 0.3000 9.3334
v  -4.0000 0.3000 9.3334
v  -4.0000 0.3000 10.6667
v  2.5000 0.1000 30.6667
v  2.5000 0.1000 25.3333
v  2.5000 0.1000 20.0000
v  2.5000 0.1000 14.6667
v  2.5000 0.1000 9.3333
v  2.5000 0.1000 4.0000
v  -2.5000 0.3000 4.0000
v  -2.5000 0.3000 5.3333
v  2.5000 0.1000 -30.6667
v  2.5000 0.1000 -25.3334
v  2.5000 0.1000 -20.0000
v  2.5000 0.1000 -14.6667
v  2.5000 0.1000 -9.3334
v  -4.0000 0.3000 -1.3333
v  -8.5000 -0.0500 -1.3333
v  -8.5000 -0.0500 -0.0000
v  -8.5000 -0.0500 30.6667
v  -8.5000 -0.0500 32.0000
v  -8.5000 -0.0500 25.3333
v  -8.5000 -0.0500 26.6667
v  -8.5000 -0.0500 20.0000
v  -8.5000 -0.0500 21.3333
v  -8.5000 -0.0500 14.6667
v  -8.5000 -0.0500 16.0000
v  -8.5000 -0.0500 9.3333
v  -8.5000 -0.0500 10.6667
v  -4.0000 0.3000 4.0000
v  -8.5000 -0.0500 4.0000
v  -8.5000 -0.0500 5.3333
v  -4.0000 0.3000 5.3333
v  -8.5000 -0.0500 -30.6667
v  -8.5000 -0.0500 -32.0000
v  -8.5000 -0.0500 -25.3334
v  -8.5000 -0.0500 -26.6667
v  -8.5000 -0.0500 -20.0000
v  -8.5000 -0.0500 -21.3333
v  -8.5000 -0.0500 -14.6667
v  -8.5000 -0.0500 -16.0000
v  -8.5000 -0.0500 -9.3334
v  -8.5000 -0.0500 -10.6667
v  -2.5000 0.3000 2.6667
v  -4.0000 0.3000 2.6667
v  2.5000 0.1000 -4.0000
v  -2.5000 0.3000 -2.6666
v  2.5000 0.1000 -2.6667
v  -4.0000 0.3000 -28.0000
v  -2.5000 0.3000 -28.0000
v  -2.5000 0.3000 -29.3333
v  -4.0000 0.3000 -29.3333
v  -4.0000 0.3000 -22.6666
v  -2.5000 0.3000 -22.6666
v  -2.5000 0.3000 -24.0000
v  -4.0000 0.3000 -24.0000
v  -4.0000 0.3000 -17.3333
v  -2.5000 0.3000 -17.3333
v  -2.5000 0.3000 -18.6666
v  -4.0000 0.3000 -18.6666
v  -4.0000 0.3000 -12.0000
v  -2.5000 0.3000 -12.0000
v  -2.5000 0.3000 -13.3333
v  -4.0000 0.3000 -13.3333
v  -4.0000 0.3000 -6.6666
v  -2.5000 0.3000 -6.6666
v  -2.5000 0.3000 -8.0000
v  -4.0000 0.3000 -8.0000
v  -4.0000 0.3000 -2.6666
v  -2.5000 0.3000 28.0000
v  -4.0000 0.3000 28.0000
v  -4.0000 0.3000 29.3334
v  -2.5000 0.3000 29.3334
v  -2.5000 0.3000 22.6667
v  -4.0000 0.3000 22.6666
v  -4.0000 0.3000 24.0000
v  -2.5000 0.3000 24.0000
v  -2.5000 0.3000 17.3333
v  -4.0000 0.3000 17.3333
v  -4.0000 0.3000 18.6667
v  -2.5000 0.3000 18.6667
v  -2.5000 0.3000 12.0000
v  -4.0000 0.3000 12.0000
v  -4.0000 0.3000 13.3334
v  -2.5000 0.3000 13.3334
v  -2.5000 0.3000 6.6667
v  -4.0000 0.3000 6.6667
v  -4.0000 0.3000 8.0000
v  -2.5000 0.3000 8.0000
v  2.5000 0.1000 28.0000
v  2.5000 0.1000 29.3333
v  2.5000 0.1000 22.6666
v  2.5000 0.1000 24.0000
v  2.5000 0.1000 17.3333
v  2.5000 0.1000 18.6666
v  2.5000 0.1000 12.0000
v  2.5000 0.1000 13.3333
v  2.5000 0.1000 6.6666
v  2.5000 0.1000 8.0000
v  2.5000 0.1000 1.3333
v  2.5000 0.1000 2.6666
v  2.5000 0.1000 -28.0000
v  2.5000 0.1000 -29.3334
v  2.5000 0.1000 -22.6666
v  2.5000 0.1000 -24.0000
v  2.5000 0.1000 -17.3333
v  2.5000 0.1000 -18.6666
v  2.5000 0.1000 -12.0000
v  2.5000 0.1000 -13.3334
v  2.5000 0.1000 -6.6667
v  2.5000 0.1000 -8.0000
v  -8.5000 -0.0500 -4.0000
v  -8.5000 -0.0500 -2.6667
v  -8.5000 -0.0500 28.0000
v  -8.5000 -0.0500 29.3333
v  -8.5000 -0.0500 22.6666
v  -8.5000 -0.0500 24.0000
v  -8.5000 -0.0500 17.3333
v  -8.5000 -0.0500 18.6666
v  -8.5000 -0.0500 12.0000
v  -8.5000 -0.0500 13.3333
v  -8.5000 -0.0500 6.6666
v  -8.5000 -0.0500 8.0000
v  -8.5000 -0.0500 1.3333
v  -8.5000 -0.0500 2.6666
v  -8.5000 -0.0500 -28.0000
v  -8.5000 -0.0500 -29.3334
v  -8.5000 -0.0500 -22.6667
v  -8.5000 -0.0500 -24.0000
v  -8.5000 -0.0500 -17.3333
v  -8.5000 -0.0500 -18.6667
v  -8.5000 -0.0500 -12.0000
v  -8.5000 -0.0500 -13.3334
v  -8.5000 -0.0500 -6.6667
v  -8.5000 -0.0500 -8.0000
v  -8.5000 -0.0500 -5.3333
# 248 vertices

vn 0.0000 1.0000 -0.0000
vn 0.1989 0.9800 -0.0000
vn -1.0000 0.0000 -0.0000
vn 0.7422 0.6702 -0.0000
vn 0.5798 0.8148 -0.0000
vn -0.0062 1.0000 -0.0000
vn 0.0312 0.9995 -0.0000
vn 0.0624 0.9981 -0.0000
vn -0.0125 0.9999 -0.0000
# 9 vertex normals

vt 0.7731 0.5000 0.0000
vt 0.9270 0.5000 0.0000
vt 0.9270 0.5833 0.0000
vt 0.7731 0.5833 0.0000
vt 0.9523 0.5000 0.0000
vt 0.9523 0.4167 0.0000
vt 0.9270 0.4167 0.0000
vt 0.7731 0.0000 0.0000
vt 0.9270 0.0000 0.0000
vt 0.9270 0.0833 0.0000
vt 0.7731 0.0833 0.0000
vt 0.9270 0.1667 0.0000
vt 0.7731 0.1667 0.0000
vt 0.9270 0.2500 0.0000
vt 0.7731 0.2500 0.0000
vt 0.9270 0.3333 0.0000
vt 0.7731 0.3333 0.0000
vt 0.7731 0.4167 0.0000
vt 0.9270 1.0000 0.0000
vt 0.7731 1.0000 0.0000
vt 0.7731 0.9167 0.0000
vt 0.9270 0.9167 0.0000
vt 0.7731 0.8333 0.0000
vt 0.9270 0.8333 0.0000
vt 0.7731 0.7500 0.0000
vt 0.9270 0.7500 0.0000
vt 0.7731 0.6667 0.0000
vt 0.9270 0.6667 0.0000
vt 0.9523 1.0000 0.0000
vt 0.9523 0.9167 0.0000
vt 0.9523 0.8333 0.0000
vt 0.9523 0.7500 0.0000
vt 0.9523 0.6667 0.0000
vt 0.9523 0.5833 0.0000
vt 0.9523 0.0000 0.0000
vt 0.9523 0.0833 0.0000
vt 0.9523 0.1667 0.0000
vt 0.9523 0.2500 0.0000
vt 0.9523 0.3333 0.0000
vt 0.4433 0.5000 0.0000
vt 0.4433 0.4792 0.0000
vt 0.5609 0.4792 0.0000
vt 0.5609 0.5000 0.0000
vt 0.7962 0.5000 0.0000
vt 0.7962 0.5208 0.0000
vt 0.5609 0.5208 0.0000
vt 0.4433 1.0000 0.0000
vt 0.4433 0.9792 0.0000
vt 0.5609 0.9792 0.0000
vt 0.5609 1.0000 0.0000
vt 0.4433 0.9167 0.0000
vt 0.4433 0.8958 0.0000
vt 0.5609 0.8958 0.0000
vt 0.5609 0.9167 0.0000
vt 0.4433 0.8333 0.0000
vt 0.4433 0.8125 0.0000
vt 0.5609 0.8125 0.0000
vt 0.5609 0.8333 0.0000
vt 0.4433 0.7500 0.0000
vt 0.4433 0.7292 0.0000
vt 0.5609 0.7292 0.0000
vt 0.5609 0.7500 0.0000
vt 0.4433 0.6667 0.0000
vt 0.4433 0.6458 0.0000
vt 0.5609 0.6458 0.0000
vt 0.5609 0.6667 0.0000
vt 0.4433 0.5833 0.0000
vt 0.4433 0.5625 0.0000
vt 0.5609 0.5625 0.0000
vt 0.5609 0.5833 0.0000
vt 0.5609 0.0000 0.0000
vt 0.5609 0.0208 0.0000
vt 0.4433 0.0208 0.0000
vt 0.4433 0.0000 0.0000
vt 0.5609 0.0833 0.0000
vt 0.5609 0.1042 0.0000
vt 0.4433 0.1042 0.0000
vt 0.4433 0.0833 0.0000
vt 0.5609 0.1667 0.0000
vt 0.5609 0.1875 0.0000
vt 0.4433 0.1875 0.0000
vt 0.4433 0.1667 0.0000
vt 0.5609 0.2500 0.0000
vt 0.5609 0.2708 0.0000
vt 0.4433 0.2708 0.0000
vt 0.4433 0.2500 0.0000
vt 0.5609 0.3333 0.0000
vt 0.5609 0.3542 0.0000
vt 0.4433 0.3542 0.0000
vt 0.4433 0.3333 0.0000
vt 0.7962 0.0000 0.0000
vt 0.7962 0.0208 0.0000
vt 0.7962 0.0833 0.0000
vt 0.7962 0.1042 0.0000
vt 0.7962 0.1667 0.0000
vt 0.7962 0.1875 0.0000
vt 0.7962 0.2500 0.0000
vt 0.7962 0.2708 0.0000
vt 0.7962 0.3333 0.0000
vt 0.7962 0.3542 0.0000
vt 0.7962 0.4167 0.0000
vt 0.7962 0.4375 0.0000
vt 0.5609 0.4375 0.0000
vt 0.5609 0.4167 0.0000
vt 0.7962 0.9792 0.0000
vt 0.7962 1.0000 0.0000
vt 0.7962 0.8958 0.0000
vt 0.7962 0.9167 0.0000
vt 0.7962 0.8125 0.0000
vt 0.7962 0.8333 0.0000
vt 0.7962 0.7292 0.0000
vt 0.7962 0.7500 0.0000
vt 0.7962 0.6458 0.0000
vt 0.7962 0.6667 0.0000
vt 0.4433 0.5208 0.0000
vt 0.2081 0.5208 0.0000
vt 0.2081 0.5000 0.0000
vt 0.2081 0.0208 0.0000
vt 0.2081 0.0000 0.0000
vt 0.2081 0.1042 0.0000
vt 0.2081 0.0833 0.0000
vt 0.2081 0.1875 0.0000
vt 0.2081 0.1667 0.0000
vt 0.2081 0.2708 0.0000
vt 0.2081 0.2500 0.0000
vt 0.2081 0.3542 0.0000
vt 0.2081 0.3333 0.0000
vt 0.4433 0.4375 0.0000
vt 0.2081 0.4375 0.0000
vt 0.2081 0.4167 0.0000
vt 0.4433 0.4167 0.0000
vt 0.2081 0.9792 0.0000
vt 0.2081 1.0000 0.0000
vt 0.2081 0.8958 0.0000
vt 0.2081 0.9167 0.0000
vt 0.2081 0.8125 0.0000
vt 0.2081 0.8333 0.0000
vt 0.2081 0.7292 0.0000
vt 0.2081 0.7500 0.0000
vt 0.2081 0.6458 0.0000
vt 0.2081 0.6667 0.0000
vt 0.5609 0.4583 0.0000
vt 0.4433 0.4583 0.0000
vt 0.7962 0.5625 0.0000
vt 0.5609 0.5417 0.0000
vt 0.7962 0.5417 0.0000
vt 0.4433 0.9375 0.0000
vt 0.5609 0.9375 0.0000
vt 0.5609 0.9583 0.0000
vt 0.4433 0.9583 0.0000
vt 0.4433 0.8542 0.0000
vt 0.5609 0.8542 0.0000
vt 0.5609 0.8750 0.0000
vt 0.4433 0.8750 0.0000
vt 0.4433 0.7708 0.0000
vt 0.5609 0.7708 0.0000
vt 0.5609 0.7917 0.0000
vt 0.4433 0.7917 0.0000
vt 0.4433 0.6875 0.0000
vt 0.5609 0.6875 0.0000
vt 0.5609 0.7083 0.0000
vt 0.4433 0.7083 0.0000
vt 0.4433 0.6042 0.0000
vt 0.5609 0.6042 0.0000
vt 0.5609 0.6250 0.0000
vt 0.4433 0.6250 0.0000
vt 0.4433 0.5417 0.0000
vt 0.5609 0.0625 0.0000
vt 0.4433 0.0625 0.0000
vt 0.4433 0.0417 0.0000
vt 0.5609 0.0417 0.0000
vt 0.5609 0.1458 0.0000
vt 0.4433 0.1458 0.0000
vt 0.4433 0.1250 0.0000
vt 0.5609 0.1250 0.0000
vt 0.5609 0.2292 0.0000
vt 0.4433 0.2292 0.0000
vt 0.4433 0.2083 0.0000
vt 0.5609 0.2083 0.0000
vt 0.5609 0.3125 0.0000
vt 0.4433 0.3125 0.0000
vt 0.4433 0.2917 0.0000
vt 0.5609 0.2917 0.0000
vt 0.5609 0.3958 0.0000
vt 0.4433 0.3958 0.0000
vt 0.4433 0.3750 0.0000
vt 0.5609 0.3750 0.0000
vt 0.7962 0.0625 0.0000
vt 0.7962 0.0417 0.0000
vt 0.7962 0.1458 0.0000
vt 0.7962 0.1250 0.0000
vt 0.7962 0.2292 0.0000
vt 0.7962 0.2083 0.0000
vt 0.7962 0.3125 0.0000
vt 0.7962 0.2917 0.0000
vt 0.7962 0.3958 0.0000
vt 0.7962 0.3750 0.0000
vt 0.7962 0.4792 0.0000
vt 0.7962 0.4583 0.0000
vt 0.7962 0.9375 0.0000
vt 0.7962 0.9583 0.0000
vt 0.7962 0.8542 0.0000
vt 0.7962 0.8750 0.0000
vt 0.7962 0.7708 0.0000
vt 0.7962 0.7917 0.0000
vt 0.7962 0.6875 0.0000
vt 0.7962 0.7083 0.0000
vt 0.7962 0.6042 0.0000
vt 0.7962 0.6250 0.0000
vt 0.2081 0.5625 0.0000
vt 0.2081 0.5417 0.0000
vt 0.2081 0.0625 0.0000
vt 0.2081 0.0417 0.0000
vt 0.2081 0.1458 0.0000
vt 0.2081 0.1250 0.0000
vt 0.2081 0.2292 0.0000
vt 0.2081 0.2083 0.0000
vt 0.2081 0.3125 0.0000
vt 0.2081 0.2917 0.0000
vt 0.2081 0.3958 0.0000
vt 0.2081 0.3750 0.0000
vt 0.2081 0.4792 0.0000
vt 0.2081 0.4583 0.0000
vt 0.2081 0.9375 0.0000
vt 0.2081 0.9583 0.0000
vt 0.2081 0.8542 0.0000
vt 0.2081 0.8750 0.0000
vt 0.2081 0.7708 0.0000
vt 0.2081 0.7917 0.0000
vt 0.2081 0.6875 0.0000
vt 0.2081 0.7083 0.0000
vt 0.2081 0.6042 0.0000
vt 0.2081 0.6250 0.0000
vt 0.7962 0.5833 0.0000
vt 0.2081 0.5833 0.0000
# 235 texture coords

g seg
s 1
f 1/1/1 2/2/2 3/3/2 
f 3/3/2 4/4/1 1/1/1 
s 2
f 5/1/3 1/1/3 4/4/3 
f 4/4/3 6/4/3 5/1/3 
s 1
f 7/5/4 8/5/5 9/6/5 
f 9/6/5 10/6/4 7/5/4 
f 8/5/5 2/2/2 11/7/2 
f 11/7/2 9/6/5 8/5/5 
f 12/8/1 13/9/2 14/10/2 
f 14/10/2 15/11/1 12/8/1 
f 15/11/1 14/10/2 16/12/2 
f 16/12/2 17/13/1 15/11/1 
f 17/13/1 16/12/2 18/14/2 
f 18/14/2 19/15/1 17/13/1 
f 19/15/1 18/14/2 20/16/2 
f 20/16/2 21/17/1 19/15/1 
f 21/17/1 20/16/2 11/7/2 
f 11/7/2 22/18/1 21/17/1 
f 22/18/1 11/7/2 2/2/2 
f 2/2/2 1/1/1 22/18/1 
f 23/19/2 24/20/1 25/21/1 
f 25/21/1 26/22/2 23/19/2 
f 26/22/2 25/21/1 27/23/1 
f 27/23/1 28/24/2 26/22/2 
f 28/24/2 27/23/1 29/25/1 
f 29/25/1 30/26/2 28/24/2 
f 30/26/2 29/25/1 31/27/1 
f 31/27/1 32/28/2 30/26/2 
f 32/28/2 31/27/1 4/4/1 
f 4/4/1 3/3/2 32/28/2 
s 2
f 33/8/3 12/8/3 15/11/3 
f 15/11/3 34/11/3 33/8/3 
f 34/11/3 15/11/3 17/13/3 
f 17/13/3 35/13/3 34/11/3 
f 35/13/3 17/13/3 19/15/3 
f 19/15/3 36/15/3 35/13/3 
f 36/15/3 19/15/3 21/17/3 
f 21/17/3 37/17/3 36/15/3 
f 37/17/3 21/17/3 22/18/3 
f 22/18/3 38/18/3 37/17/3 
f 38/18/3 22/18/3 1/1/3 
f 1/1/3 5/1/3 38/18/3 
f 24/20/3 39/20/3 40/21/3 
f 40/21/3 25/21/3 24/20/3 
f 25/21/3 40/21/3 41/23/3 
f 41/23/3 27/23/3 25/21/3 
f 27/23/3 41/23/3 42/25/3 
f 42/25/3 29/25/3 27/23/3 
f 29/25/3 42/25/3 43/27/3 
f 43/27/3 31/27/3 29/25/3 
f 31/27/3 43/27/3 6/4/3 
f 6/4/3 4/4/3 31/27/3 
s 1
f 44/29/4 45/29/5 46/30/5 
f 46/30/5 47/30/4 44/29/4 
f 47/30/4 46/30/5 48/31/5 
f 48/31/5 49/31/4 47/30/4 
f 49/31/4 48/31/5 50/32/5 
f 50/32/5 51/32/4 49/31/4 
f 51/32/4 50/32/5 52/33/5 
f 52/33/5 53/33/4 51/32/4 
f 53/33/4 52/33/5 54/34/5 
f 54/34/5 55/34/4 53/33/4 
f 55/34/4 54/34/5 8/5/5 
f 8/5/5 7/5/4 55/34/4 
f 56/35/5 57/35/4 58/36/4 
f 58/36/4 59/36/5 56/35/5 
f 59/36/5 58/36/4 60/37/4 
f 60/37/4 61/37/5 59/36/5 
f 61/37/5 60/37/4 62/38/4 
f 62/38/4 63/38/5 61/37/5 
f 63/38/5 62/38/4 64/39/4 
f 64/39/4 65/39/5 63/38/5 
f 65/39/5 64/39/4 10/6/4 
f 10/6/4 9/6/5 65/39/5 
f 45/29/5 23/19/2 26/22/2 
f 26/22/2 46/30/5 45/29/5 
f 46/30/5 26/22/2 28/24/2 
f 28/24/2 48/31/5 46/30/5 
f 48/31/5 28/24/2 30/26/2 
f 30/26/2 50/32/5 48/31/5 
f 50/32/5 30/26/2 32/28/2 
f 32/28/2 52/33/5 50/32/5 
f 52/33/5 32/28/2 3/3/2 
f 3/3/2 54/34/5 52/33/5 
f 54/34/5 3/3/2 2/2/2 
f 2/2/2 8/5/5 54/34/5 
f 13/9/2 56/35/5 59/36/5 
f 59/36/5 14/10/2 13/9/2 
f 14/10/2 59/36/5 61/37/5 
f 61/37/5 16/12/2 14/10/2 
f 16/12/2 61/37/5 63/38/5 
f 63/38/5 18/14/2 16/12/2 
f 18/14/2 63/38/5 65/39/5 
f 65/39/5 20/16/2 18/14/2 
f 20/16/2 65/39/5 9/6/5 
f 9/6/5 11/7/2 20/16/2 
f 66/40/6 67/41/6 68/42/7 
f 68/42/7 69/43/7 66/40/6 
f 5/44/8 70/45/8 71/46/7 
f 71/46/7 69/43/7 5/44/8 
f 72/47/6 73/48/6 74/49/7 
f 74/49/7 75/50/7 72/47/6 
f 76/51/6 77/52/6 78/53/7 
f 78/53/7 79/54/7 76/51/6 
f 80/55/6 81/56/6 82/57/7 
f 82/57/7 83/58/7 80/55/6 
f 84/59/6 85/60/6 86/61/7 
f 86/61/7 87/62/7 84/59/6 
f 88/63/6 89/64/6 90/65/7 
f 90/65/7 91/66/7 88/63/6 
f 92/67/6 93/68/6 94/69/7 
f 94/69/7 95/70/7 92/67/6 
f 96/71/7 97/72/7 98/73/6 
f 98/73/6 99/74/6 96/71/7 
f 100/75/7 101/76/7 102/77/6 
f 102/77/6 103/78/6 100/75/7 
f 104/79/7 105/80/7 106/81/6 
f 106/81/6 107/82/6 104/79/7 
f 108/83/7 109/84/7 110/85/6 
f 110/85/6 111/86/6 108/83/7 
f 112/87/7 113/88/7 114/89/6 
f 114/89/6 115/90/6 112/87/7 
f 33/91/8 116/92/8 97/72/7 
f 97/72/7 96/71/7 33/91/8 
f 34/93/8 117/94/8 101/76/7 
f 101/76/7 100/75/7 34/93/8 
f 35/95/8 118/96/8 105/80/7 
f 105/80/7 104/79/7 35/95/8 
f 36/97/8 119/98/8 109/84/7 
f 109/84/7 108/83/7 36/97/8 
f 37/99/8 120/100/8 113/88/7 
f 113/88/7 112/87/7 37/99/8 
f 38/101/8 121/102/8 122/103/7 
f 122/103/7 123/104/7 38/101/8 
f 75/50/7 74/49/7 124/105/8 
f 124/105/8 39/106/8 75/50/7 
f 79/54/7 78/53/7 125/107/8 
f 125/107/8 40/108/8 79/54/7 
f 83/58/7 82/57/7 126/109/8 
f 126/109/8 41/110/8 83/58/7 
f 87/62/7 86/61/7 127/111/8 
f 127/111/8 42/112/8 87/62/7 
f 91/66/7 90/65/7 128/113/8 
f 128/113/8 43/114/8 91/66/7 
f 129/115/6 130/116/9 131/117/9 
f 131/117/9 66/40/6 129/115/6 
f 98/73/6 132/118/9 133/119/9 
f 133/119/9 99/74/6 98/73/6 
f 102/77/6 134/120/9 135/121/9 
f 135/121/9 103/78/6 102/77/6 
f 106/81/6 136/122/9 137/123/9 
f 137/123/9 107/82/6 106/81/6 
f 110/85/6 138/124/9 139/125/9 
f 139/125/9 111/86/6 110/85/6 
f 114/89/6 140/126/9 141/127/9 
f 141/127/9 115/90/6 114/89/6 
f 142/128/6 143/129/9 144/130/9 
f 144/130/9 145/131/6 142/128/6 
f 146/132/9 73/48/6 72/47/6 
f 72/47/6 147/133/9 146/132/9 
f 148/134/9 77/52/6 76/51/6 
f 76/51/6 149/135/9 148/134/9 
f 150/136/9 81/56/6 80/55/6 
f 80/55/6 151/137/9 150/136/9 
f 152/138/9 85/60/6 84/59/6 
f 84/59/6 153/139/9 152/138/9 
f 154/140/9 89/64/6 88/63/6 
f 88/63/6 155/141/9 154/140/9 
f 142/128/6 122/103/7 156/142/7 
f 156/142/7 157/143/6 142/128/6 
f 158/144/8 94/69/7 159/145/7 
f 159/145/7 160/146/8 158/144/8 
f 161/147/6 162/148/7 163/149/7 
f 163/149/7 164/150/6 161/147/6 
f 165/151/6 166/152/7 167/153/7 
f 167/153/7 168/154/6 165/151/6 
f 169/155/6 170/156/7 171/157/7 
f 171/157/7 172/158/6 169/155/6 
f 173/159/6 174/160/7 175/161/7 
f 175/161/7 176/162/6 173/159/6 
f 177/163/6 178/164/7 179/165/7 
f 179/165/7 180/166/6 177/163/6 
f 129/115/6 71/46/7 159/145/7 
f 159/145/7 181/167/6 129/115/6 
f 182/168/7 183/169/6 184/170/6 
f 184/170/6 185/171/7 182/168/7 
f 186/172/7 187/173/6 188/174/6 
f 188/174/6 189/175/7 186/172/7 
f 190/176/7 191/177/6 192/178/6 
f 192/178/6 193/179/7 190/176/7 
f 194/180/7 195/181/6 196/182/6 
f 196/182/6 197/183/7 194/180/7 
f 198/184/7 199/185/6 200/186/6 
f 200/186/6 201/187/7 198/184/7 
f 202/188/8 182/168/7 185/171/7 
f 185/171/7 203/189/8 202/188/8 
f 204/190/8 186/172/7 189/175/7 
f 189/175/7 205/191/8 204/190/8 
f 206/192/8 190/176/7 193/179/7 
f 193/179/7 207/193/8 206/192/8 
f 208/194/8 194/180/7 197/183/7 
f 197/183/7 209/195/8 208/194/8 
f 210/196/8 198/184/7 201/187/7 
f 201/187/7 211/197/8 210/196/8 
f 212/198/8 68/42/7 156/142/7 
f 156/142/7 213/199/8 212/198/8 
f 162/148/7 214/200/8 215/201/8 
f 215/201/8 163/149/7 162/148/7 
f 166/152/7 216/202/8 217/203/8 
f 217/203/8 167/153/7 166/152/7 
f 170/156/7 218/204/8 219/205/8 
f 219/205/8 171/157/7 170/156/7 
f 174/160/7 220/206/8 221/207/8 
f 221/207/8 175/161/7 174/160/7 
f 178/164/7 222/208/8 223/209/8 
f 223/209/8 179/165/7 178/164/7 
f 93/68/6 224/210/9 225/211/9 
f 225/211/9 181/167/6 93/68/6 
f 183/169/6 226/212/9 227/213/9 
f 227/213/9 184/170/6 183/169/6 
f 187/173/6 228/214/9 229/215/9 
f 229/215/9 188/174/6 187/173/6 
f 191/177/6 230/216/9 231/217/9 
f 231/217/9 192/178/6 191/177/6 
f 195/181/6 232/218/9 233/219/9 
f 233/219/9 196/182/6 195/181/6 
f 199/185/6 234/220/9 235/221/9 
f 235/221/9 200/186/6 199/185/6 
f 67/41/6 236/222/9 237/223/9 
f 237/223/9 157/143/6 67/41/6 
f 238/224/9 161/147/6 164/150/6 
f 164/150/6 239/225/9 238/224/9 
f 240/226/9 165/151/6 168/154/6 
f 168/154/6 241/227/9 240/226/9 
f 242/228/9 169/155/6 172/158/6 
f 172/158/6 243/229/9 242/228/9 
f 244/230/9 173/159/6 176/162/6 
f 176/162/6 245/231/9 244/230/9 
f 246/232/9 177/163/6 180/166/6 
f 180/166/6 247/233/9 246/232/9 
f 157/143/6 156/142/7 68/42/7 
f 68/42/7 67/41/6 157/143/6 
f 160/146/8 159/145/7 71/46/7 
f 71/46/7 70/45/8 160/146/8 
f 164/150/6 163/149/7 74/49/7 
f 74/49/7 73/48/6 164/150/6 
f 168/154/6 167/153/7 78/53/7 
f 78/53/7 77/52/6 168/154/6 
f 172/158/6 171/157/7 82/57/7 
f 82/57/7 81/56/6 172/158/6 
f 176/162/6 175/161/7 86/61/7 
f 86/61/7 85/60/6 176/162/6 
f 180/166/6 179/165/7 90/65/7 
f 90/65/7 89/64/6 180/166/6 
f 181/167/6 159/145/7 94/69/7 
f 94/69/7 93/68/6 181/167/6 
f 185/171/7 184/170/6 98/73/6 
f 98/73/6 97/72/7 185/171/7 
f 189/175/7 188/174/6 102/77/6 
f 102/77/6 101/76/7 189/175/7 
f 193/179/7 192/178/6 106/81/6 
f 106/81/6 105/80/7 193/179/7 
f 197/183/7 196/182/6 110/85/6 
f 110/85/6 109/84/7 197/183/7 
f 201/187/7 200/186/6 114/89/6 
f 114/89/6 113/88/7 201/187/7 
f 203/189/8 185/171/7 97/72/7 
f 97/72/7 116/92/8 203/189/8 
f 205/191/8 189/175/7 101/76/7 
f 101/76/7 117/94/8 205/191/8 
f 207/193/8 193/179/7 105/80/7 
f 105/80/7 118/96/8 207/193/8 
f 209/195/8 197/183/7 109/84/7 
f 109/84/7 119/98/8 209/195/8 
f 211/197/8 201/187/7 113/88/7 
f 113/88/7 120/100/8 211/197/8 
f 213/199/8 156/142/7 122/103/7 
f 122/103/7 121/102/8 213/199/8 
f 163/149/7 215/201/8 124/105/8 
f 124/105/8 74/49/7 163/149/7 
f 167/153/7 217/203/8 125/107/8 
f 125/107/8 78/53/7 167/153/7 
f 171/157/7 219/205/8 126/109/8 
f 126/109/8 82/57/7 171/157/7 
f 175/161/7 221/207/8 127/111/8 
f 127/111/8 86/61/7 175/161/7 
f 179/165/7 223/209/8 128/113/8 
f 128/113/8 90/65/7 179/165/7 
f 181/167/6 225/211/9 130/116/9 
f 130/116/9 129/115/6 181/167/6 
f 184/170/6 227/213/9 132/118/9 
f 132/118/9 98/73/6 184/170/6 
f 188/174/6 229/215/9 134/120/9 
f 134/120/9 102/77/6 188/174/6 
f 192/178/6 231/217/9 136/122/9 
f 136/122/9 106/81/6 192/178/6 
f 196/182/6 233/219/9 138/124/9 
f 138/124/9 110/85/6 196/182/6 
f 200/186/6 235/221/9 140/126/9 
f 140/126/9 114/89/6 200/186/6 
f 157/143/6 237/223/9 143/129/9 
f 143/129/9 142/128/6 157/143/6 
f 239/225/9 164/150/6 73/48/6 
f 73/48/6 146/132/9 239/225/9 
f 241/227/9 168/154/6 77/52/6 
f 77/52/6 148/134/9 241/227/9 
f 243/229/9 172/158/6 81/56/6 
f 81/56/6 150/136/9 243/229/9 
f 245/231/9 176/162/6 85/60/6 
f 85/60/6 152/138/9 245/231/9 
f 247/233/9 180/166/6 89/64/6 
f 89/64/6 154/140/9 247/233/9 
f 145/131/6 123/104/7 122/103/7 
f 122/103/7 142/128/6 145/131/6 
f 6/234/8 95/70/7 94/69/7 
f 94/69/7 158/144/8 6/234/8 
f 76/51/6 79/54/7 162/148/7 
f 162/148/7 161/147/6 76/51/6 
f 80/55/6 83/58/7 166/152/7 
f 166/152/7 165/151/6 80/55/6 
f 84/59/6 87/62/7 170/156/7 
f 170/156/7 169/155/6 84/59/6 
f 88/63/6 91/66/7 174/160/7 
f 174/160/7 173/159/6 88/63/6 
f 92/67/6 95/70/7 178/164/7 
f 178/164/7 177/163/6 92/67/6 
f 66/40/6 69/43/7 71/46/7 
f 71/46/7 129/115/6 66/40/6 
f 100/75/7 103/78/6 183/169/6 
f 183/169/6 182/168/7 100/75/7 
f 104/79/7 107/82/6 187/173/6 
f 187/173/6 186/172/7 104/79/7 
f 108/83/7 111/86/6 191/177/6 
f 191/177/6 190/176/7 108/83/7 
f 112/87/7 115/90/6 195/181/6 
f 195/181/6 194/180/7 112/87/7 
f 123/104/7 145/131/6 199/185/6 
f 199/185/6 198/184/7 123/104/7 
f 34/93/8 100/75/7 182/168/7 
f 182/168/7 202/188/8 34/93/8 
f 35/95/8 104/79/7 186/172/7 
f 186/172/7 204/190/8 35/95/8 
f 36/97/8 108/83/7 190/176/7 
f 190/176/7 206/192/8 36/97/8 
f 37/99/8 112/87/7 194/180/7 
f 194/180/7 208/194/8 37/99/8 
f 38/101/8 123/104/7 198/184/7 
f 198/184/7 210/196/8 38/101/8 
f 5/44/8 69/43/7 68/42/7 
f 68/42/7 212/198/8 5/44/8 
f 79/54/7 40/108/8 214/200/8 
f 214/200/8 162/148/7 79/54/7 
f 83/58/7 41/110/8 216/202/8 
f 216/202/8 166/152/7 83/58/7 
f 87/62/7 42/112/8 218/204/8 
f 218/204/8 170/156/7 87/62/7 
f 91/66/7 43/114/8 220/206/8 
f 220/206/8 174/160/7 91/66/7 
f 95/70/7 6/234/8 222/208/8 
f 222/208/8 178/164/7 95/70/7 
f 92/67/6 248/235/9 224/210/9 
f 224/210/9 93/68/6 92/67/6 
f 103/78/6 135/121/9 226/212/9 
f 226/212/9 183/169/6 103/78/6 
f 107/82/6 137/123/9 228/214/9 
f 228/214/9 187/173/6 107/82/6 
f 111/86/6 139/125/9 230/216/9 
f 230/216/9 191/177/6 111/86/6 
f 115/90/6 141/127/9 232/218/9 
f 232/218/9 195/181/6 115/90/6 
f 145/131/6 144/130/9 234/220/9 
f 234/220/9 199/185/6 145/131/6 
f 66/40/6 131/117/9 236/222/9 
f 236/222/9 67/41/6 66/40/6 
f 149/135/9 76/51/6 161/147/6 
f 161/147/6 238/224/9 149/135/9 
f 151/137/9 80/55/6 165/151/6 
f 165/151/6 240/226/9 151/137/9 
f 153/139/9 84/59/6 169/155/6 
f 169/155/6 242/228/9 153/139/9 
f 155/141/9 88/63/6 173/159/6 
f 173/159/6 244/230/9 155/141/9 
f 248/235/9 92/67/6 177/163/6 
f 177/163/6 246/232/9 248/235/9 
# 0 polygons - 384 triangles

