# 3ds Max Wavefront OBJ Exporter v0.97b - (c)2007 guruware
# File Created: 28.07.2017 22:48:04

#
# object Plane001
#

v  2.5000 0.2500 -0.0000
v  3.7880 0.2500 -0.0000
v  3.7880 0.2500 -5.3333
v  2.5000 0.2500 -5.3333
v  2.5000 0.1000 -0.0000
v  -4.0000 0.0500 -0.0000
v  -4.0000 0.0500 5.3333
v  2.5000 0.1000 5.3333
v  2.5000 0.1000 -5.3333
v  7.0000 -3.0650 -0.0000
v  4.1423 0.1000 -0.0000
v  4.1423 0.1000 5.3333
v  7.0000 -3.0650 5.3333
v  3.7880 0.2500 5.3333
v  2.5000 0.2500 32.0000
v  3.7880 0.2500 32.0000
v  3.7880 0.2500 26.6667
v  2.5000 0.2500 26.6667
v  3.7880 0.2500 21.3333
v  2.5000 0.2500 21.3333
v  3.7880 0.2500 16.0000
v  2.5000 0.2500 16.0000
v  3.7880 0.2500 10.6667
v  2.5000 0.2500 10.6667
v  2.5000 0.2500 5.3333
v  3.7880 0.2500 -32.0000
v  2.5000 0.2500 -32.0000
v  2.5000 0.2500 -26.6667
v  3.7880 0.2500 -26.6667
v  2.5000 0.2500 -21.3333
v  3.7880 0.2500 -21.3333
v  2.5000 0.2500 -16.0000
v  3.7880 0.2500 -16.0000
v  2.5000 0.2500 -10.6667
v  3.7880 0.2500 -10.6667
v  2.5000 0.1000 -32.0000
v  -4.0000 0.0500 -32.0000
v  -4.0000 0.0500 -26.6667
v  2.5000 0.1000 -26.6667
v  -4.0000 0.0500 -21.3333
v  2.5000 0.1000 -21.3333
v  -4.0000 0.0500 -16.0000
v  2.5000 0.1000 -16.0000
v  -4.0000 0.0500 -10.6667
v  2.5000 0.1000 -10.6667
v  -4.0000 0.0500 -5.3333
v  -4.0000 0.0500 32.0000
v  2.5000 0.1000 32.0000
v  2.5000 0.1000 26.6667
v  -4.0000 0.0500 26.6667
v  2.5000 0.1000 21.3333
v  -4.0000 0.0500 21.3333
v  2.5000 0.1000 16.0000
v  -4.0000 0.0500 16.0000
v  2.5000 0.1000 10.6667
v  -4.0000 0.0500 10.6667
v  7.0000 -3.0650 -32.0000
v  4.1423 0.1000 -32.0000
v  4.1423 0.1000 -26.6667
v  7.0000 -3.0650 -26.6667
v  4.1423 0.1000 -21.3333
v  7.0000 -3.0650 -21.3333
v  4.1423 0.1000 -16.0000
v  7.0000 -3.0650 -16.0000
v  4.1423 0.1000 -10.6667
v  7.0000 -3.0650 -10.6667
v  4.1423 0.1000 -5.3333
v  7.0000 -3.0650 -5.3333
v  4.1423 0.1000 32.0000
v  7.0000 -3.0650 32.0000
v  7.0000 -3.0650 26.6667
v  4.1423 0.1000 26.6667
v  7.0000 -3.0650 21.3333
v  4.1423 0.1000 21.3333
v  7.0000 -3.0650 16.0000
v  4.1423 0.1000 16.0000
v  7.0000 -3.0650 10.6667
v  4.1423 0.1000 10.6667
# 78 vertices

vn 0.0000 1.0000 -0.0000
vn 0.1989 0.9800 -0.0000
vn -1.0000 0.0000 -0.0000
vn 0.7422 0.6702 -0.0000
vn 0.5798 0.8148 -0.0000
# 5 vertex normals

vt 0.7731 0.5000 0.0000
vt 0.9270 0.5000 0.0000
vt 0.9270 0.5833 0.0000
vt 0.7731 0.5833 0.0000
vt 0.7721 0.5000 0.0000
vt 0.2665 0.5000 0.0000
vt 0.2665 0.4167 0.0000
vt 0.7721 0.4167 0.0000
vt 0.9523 0.5000 0.0000
vt 0.9523 0.4167 0.0000
vt 0.9270 0.4167 0.0000
vt 0.7731 0.0000 0.0000
vt 0.9270 0.0000 0.0000
vt 0.9270 0.0833 0.0000
vt 0.7731 0.0833 0.0000
vt 0.9270 0.1667 0.0000
vt 0.7731 0.1667 0.0000
vt 0.9270 0.2500 0.0000
vt 0.7731 0.2500 0.0000
vt 0.9270 0.3333 0.0000
vt 0.7731 0.3333 0.0000
vt 0.7731 0.4167 0.0000
vt 0.9270 1.0000 0.0000
vt 0.7731 1.0000 0.0000
vt 0.7731 0.9167 0.0000
vt 0.9270 0.9167 0.0000
vt 0.7731 0.8333 0.0000
vt 0.9270 0.8333 0.0000
vt 0.7731 0.7500 0.0000
vt 0.9270 0.7500 0.0000
vt 0.7731 0.6667 0.0000
vt 0.9270 0.6667 0.0000
vt 0.7721 1.0000 0.0000
vt 0.2665 1.0000 0.0000
vt 0.2665 0.9167 0.0000
vt 0.7721 0.9167 0.0000
vt 0.2665 0.8333 0.0000
vt 0.7721 0.8333 0.0000
vt 0.2665 0.7500 0.0000
vt 0.7721 0.7500 0.0000
vt 0.2665 0.6667 0.0000
vt 0.7721 0.6667 0.0000
vt 0.2665 0.5833 0.0000
vt 0.7721 0.5833 0.0000
vt 0.2665 0.0000 0.0000
vt 0.7721 0.0000 0.0000
vt 0.7721 0.0833 0.0000
vt 0.2665 0.0833 0.0000
vt 0.7721 0.1667 0.0000
vt 0.2665 0.1667 0.0000
vt 0.7721 0.2500 0.0000
vt 0.2665 0.2500 0.0000
vt 0.7721 0.3333 0.0000
vt 0.2665 0.3333 0.0000
vt 0.9523 1.0000 0.0000
vt 0.9523 0.9167 0.0000
vt 0.9523 0.8333 0.0000
vt 0.9523 0.7500 0.0000
vt 0.9523 0.6667 0.0000
vt 0.9523 0.5833 0.0000
vt 0.9523 0.0000 0.0000
vt 0.9523 0.0833 0.0000
vt 0.9523 0.1667 0.0000
vt 0.9523 0.2500 0.0000
vt 0.9523 0.3333 0.0000
# 65 texture coords

g Plane001
s 1
f 1/1/1 2/2/2 3/3/2 
f 3/3/2 4/4/1 1/1/1 
f 5/5/1 6/6/1 7/7/1 
f 7/7/1 8/8/1 5/5/1 
s 2
f 5/1/3 1/1/3 4/4/3 
f 4/4/3 9/4/3 5/1/3 
s 1
f 10/9/4 11/9/5 12/10/5 
f 12/10/5 13/10/4 10/9/4 
f 11/9/5 2/2/2 14/11/2 
f 14/11/2 12/10/5 11/9/5 
f 15/12/1 16/13/2 17/14/2 
f 17/14/2 18/15/1 15/12/1 
f 18/15/1 17/14/2 19/16/2 
f 19/16/2 20/17/1 18/15/1 
f 20/17/1 19/16/2 21/18/2 
f 21/18/2 22/19/1 20/17/1 
f 22/19/1 21/18/2 23/20/2 
f 23/20/2 24/21/1 22/19/1 
f 24/21/1 23/20/2 14/11/2 
f 14/11/2 25/22/1 24/21/1 
f 25/22/1 14/11/2 2/2/2 
f 2/2/2 1/1/1 25/22/1 
f 26/23/2 27/24/1 28/25/1 
f 28/25/1 29/26/2 26/23/2 
f 29/26/2 28/25/1 30/27/1 
f 30/27/1 31/28/2 29/26/2 
f 31/28/2 30/27/1 32/29/1 
f 32/29/1 33/30/2 31/28/2 
f 33/30/2 32/29/1 34/31/1 
f 34/31/1 35/32/2 33/30/2 
f 35/32/2 34/31/1 4/4/1 
f 4/4/1 3/3/2 35/32/2 
f 36/33/1 37/34/1 38/35/1 
f 38/35/1 39/36/1 36/33/1 
f 39/36/1 38/35/1 40/37/1 
f 40/37/1 41/38/1 39/36/1 
f 41/38/1 40/37/1 42/39/1 
f 42/39/1 43/40/1 41/38/1 
f 43/40/1 42/39/1 44/41/1 
f 44/41/1 45/42/1 43/40/1 
f 45/42/1 44/41/1 46/43/1 
f 46/43/1 9/44/1 45/42/1 
f 9/44/1 46/43/1 6/6/1 
f 6/6/1 5/5/1 9/44/1 
f 47/45/1 48/46/1 49/47/1 
f 49/47/1 50/48/1 47/45/1 
f 50/48/1 49/47/1 51/49/1 
f 51/49/1 52/50/1 50/48/1 
f 52/50/1 51/49/1 53/51/1 
f 53/51/1 54/52/1 52/50/1 
f 54/52/1 53/51/1 55/53/1 
f 55/53/1 56/54/1 54/52/1 
f 56/54/1 55/53/1 8/8/1 
f 8/8/1 7/7/1 56/54/1 
s 2
f 48/12/3 15/12/3 18/15/3 
f 18/15/3 49/15/3 48/12/3 
f 49/15/3 18/15/3 20/17/3 
f 20/17/3 51/17/3 49/15/3 
f 51/17/3 20/17/3 22/19/3 
f 22/19/3 53/19/3 51/17/3 
f 53/19/3 22/19/3 24/21/3 
f 24/21/3 55/21/3 53/19/3 
f 55/21/3 24/21/3 25/22/3 
f 25/22/3 8/22/3 55/21/3 
f 8/22/3 25/22/3 1/1/3 
f 1/1/3 5/1/3 8/22/3 
f 27/24/3 36/24/3 39/25/3 
f 39/25/3 28/25/3 27/24/3 
f 28/25/3 39/25/3 41/27/3 
f 41/27/3 30/27/3 28/25/3 
f 30/27/3 41/27/3 43/29/3 
f 43/29/3 32/29/3 30/27/3 
f 32/29/3 43/29/3 45/31/3 
f 45/31/3 34/31/3 32/29/3 
f 34/31/3 45/31/3 9/4/3 
f 9/4/3 4/4/3 34/31/3 
s 1
f 57/55/4 58/55/5 59/56/5 
f 59/56/5 60/56/4 57/55/4 
f 60/56/4 59/56/5 61/57/5 
f 61/57/5 62/57/4 60/56/4 
f 62/57/4 61/57/5 63/58/5 
f 63/58/5 64/58/4 62/57/4 
f 64/58/4 63/58/5 65/59/5 
f 65/59/5 66/59/4 64/58/4 
f 66/59/4 65/59/5 67/60/5 
f 67/60/5 68/60/4 66/59/4 
f 68/60/4 67/60/5 11/9/5 
f 11/9/5 10/9/4 68/60/4 
f 69/61/5 70/61/4 71/62/4 
f 71/62/4 72/62/5 69/61/5 
f 72/62/5 71/62/4 73/63/4 
f 73/63/4 74/63/5 72/62/5 
f 74/63/5 73/63/4 75/64/4 
f 75/64/4 76/64/5 74/63/5 
f 76/64/5 75/64/4 77/65/4 
f 77/65/4 78/65/5 76/64/5 
f 78/65/5 77/65/4 13/10/4 
f 13/10/4 12/10/5 78/65/5 
f 58/55/5 26/23/2 29/26/2 
f 29/26/2 59/56/5 58/55/5 
f 59/56/5 29/26/2 31/28/2 
f 31/28/2 61/57/5 59/56/5 
f 61/57/5 31/28/2 33/30/2 
f 33/30/2 63/58/5 61/57/5 
f 63/58/5 33/30/2 35/32/2 
f 35/32/2 65/59/5 63/58/5 
f 65/59/5 35/32/2 3/3/2 
f 3/3/2 67/60/5 65/59/5 
f 67/60/5 3/3/2 2/2/2 
f 2/2/2 11/9/5 67/60/5 
f 16/13/2 69/61/5 72/62/5 
f 72/62/5 17/14/2 16/13/2 
f 17/14/2 72/62/5 74/63/5 
f 74/63/5 19/16/2 17/14/2 
f 19/16/2 74/63/5 76/64/5 
f 76/64/5 21/18/2 19/16/2 
f 21/18/2 76/64/5 78/65/5 
f 78/65/5 23/20/2 21/18/2 
f 23/20/2 78/65/5 12/10/5 
f 12/10/5 14/11/2 23/20/2 
# 120 faces

