# 3ds Max Wavefront OBJ Exporter v0.97b - (c)2007 guruware
# File Created: 25.11.2017 13:19:58

#
# object Object004
#

v  2.5000 0.3000 -0.0000
v  4.0000 0.3000 -0.0000
v  4.0000 0.3000 -4.0000
v  2.5000 0.3000 -4.0000
v  -2.5000 0.1000 -0.0000
v  -2.5000 0.1000 -4.0000
v  12.0000 -0.3000 -0.0000
v  4.0000 0.3000 4.0000
v  12.0000 -0.3000 4.0000
v  2.5000 0.3000 32.0000
v  4.0000 0.3000 32.0000
v  4.0000 0.3000 28.0000
v  2.5000 0.3000 28.0000
v  4.0000 0.3000 24.0000
v  2.5000 0.3000 24.0000
v  4.0000 0.3000 20.0000
v  2.5000 0.3000 20.0000
v  4.0000 0.3000 16.0000
v  2.5000 0.3000 16.0000
v  4.0000 0.3000 12.0000
v  2.5000 0.3000 12.0000
v  4.0000 0.3000 8.0000
v  2.5000 0.3000 8.0000
v  2.5000 0.3000 4.0000
v  4.0000 0.3000 -32.0000
v  2.5000 0.3000 -32.0000
v  2.5000 0.3000 -28.0000
v  4.0000 0.3000 -28.0000
v  2.5000 0.3000 -24.0000
v  4.0000 0.3000 -24.0000
v  2.5000 0.3000 -20.0000
v  4.0000 0.3000 -20.0000
v  2.5000 0.3000 -16.0000
v  4.0000 0.3000 -16.0000
v  2.5000 0.3000 -12.0000
v  4.0000 0.3000 -12.0000
v  2.5000 0.3000 -8.0000
v  4.0000 0.3000 -8.0000
v  -2.5000 0.1000 32.0000
v  -2.5000 0.1000 28.0000
v  -2.5000 0.1000 24.0000
v  -2.5000 0.1000 20.0000
v  -2.5000 0.1000 16.0000
v  -2.5000 0.1000 12.0000
v  -2.5000 0.1000 8.0000
v  -2.5000 0.1000 4.0000
v  -2.5000 0.1000 -32.0000
v  -2.5000 0.1000 -28.0000
v  -2.5000 0.1000 -24.0000
v  -2.5000 0.1000 -20.0000
v  -2.5000 0.1000 -16.0000
v  -2.5000 0.1000 -12.0000
v  -2.5000 0.1000 -8.0000
v  12.0000 -0.3000 -32.0000
v  12.0000 -0.3000 -28.0000
v  12.0000 -0.3000 -24.0000
v  12.0000 -0.3000 -20.0000
v  12.0000 -0.3000 -16.0000
v  12.0000 -0.3000 -12.0000
v  12.0000 -0.3000 -8.0000
v  12.0000 -0.3000 -4.0000
v  12.0000 -0.3000 32.0000
v  12.0000 -0.3000 28.0000
v  12.0000 -0.3000 24.0000
v  12.0000 -0.3000 20.0000
v  12.0000 -0.3000 16.0000
v  12.0000 -0.3000 12.0000
v  12.0000 -0.3000 8.0000
# 68 vertices

vn -0.0200 0.9998 -0.0000
vn 0.0374 0.9993 -0.0000
vn -0.0400 0.9992 -0.0000
vn 0.0748 0.9972 -0.0000
# 4 vertex normals

vt 0.5609 0.5000 0.0000
vt 0.4433 0.5000 0.0000
vt 0.4433 0.5625 0.0000
vt 0.5609 0.5625 0.0000
vt 0.7962 0.5000 0.0000
vt 0.7962 0.5625 0.0000
vt 0.2081 0.5000 0.0000
vt 0.4433 0.4375 0.0000
vt 0.2081 0.4375 0.0000
vt 0.5609 0.0000 0.0000
vt 0.4433 0.0000 0.0000
vt 0.4433 0.0625 0.0000
vt 0.5609 0.0625 0.0000
vt 0.4433 0.1250 0.0000
vt 0.5609 0.1250 0.0000
vt 0.4433 0.1875 0.0000
vt 0.5609 0.1875 0.0000
vt 0.4433 0.2500 0.0000
vt 0.5609 0.2500 0.0000
vt 0.4433 0.3125 0.0000
vt 0.5609 0.3125 0.0000
vt 0.4433 0.3750 0.0000
vt 0.5609 0.3750 0.0000
vt 0.5609 0.4375 0.0000
vt 0.4433 1.0000 0.0000
vt 0.5609 1.0000 0.0000
vt 0.5609 0.9375 0.0000
vt 0.4433 0.9375 0.0000
vt 0.5609 0.8750 0.0000
vt 0.4433 0.8750 0.0000
vt 0.5609 0.8125 0.0000
vt 0.4433 0.8125 0.0000
vt 0.5609 0.7500 0.0000
vt 0.4433 0.7500 0.0000
vt 0.5609 0.6875 0.0000
vt 0.4433 0.6875 0.0000
vt 0.5609 0.6250 0.0000
vt 0.4433 0.6250 0.0000
vt 0.7962 0.0000 0.0000
vt 0.7962 0.0625 0.0000
vt 0.7962 0.1250 0.0000
vt 0.7962 0.1875 0.0000
vt 0.7962 0.2500 0.0000
vt 0.7962 0.3125 0.0000
vt 0.7962 0.3750 0.0000
vt 0.7962 0.4375 0.0000
vt 0.7962 1.0000 0.0000
vt 0.7962 0.9375 0.0000
vt 0.7962 0.8750 0.0000
vt 0.7962 0.8125 0.0000
vt 0.7962 0.7500 0.0000
vt 0.7962 0.6875 0.0000
vt 0.7962 0.6250 0.0000
vt 0.2081 1.0000 0.0000
vt 0.2081 0.9375 0.0000
vt 0.2081 0.8750 0.0000
vt 0.2081 0.8125 0.0000
vt 0.2081 0.7500 0.0000
vt 0.2081 0.6875 0.0000
vt 0.2081 0.6250 0.0000
vt 0.2081 0.5625 0.0000
vt 0.2081 0.0000 0.0000
vt 0.2081 0.0625 0.0000
vt 0.2081 0.1250 0.0000
vt 0.2081 0.1875 0.0000
vt 0.2081 0.2500 0.0000
vt 0.2081 0.3125 0.0000
vt 0.2081 0.3750 0.0000
# 68 texture coords

g Object004
s 1
f 1/1/1 2/2/2 3/3/2 
f 3/3/2 4/4/1 1/1/1 
f 5/5/3 1/1/1 4/4/1 
f 4/4/1 6/6/3 5/5/3 
f 7/7/4 2/2/2 8/8/2 
f 8/8/2 9/9/4 7/7/4 
f 10/10/1 11/11/2 12/12/2 
f 12/12/2 13/13/1 10/10/1 
f 13/13/1 12/12/2 14/14/2 
f 14/14/2 15/15/1 13/13/1 
f 15/15/1 14/14/2 16/16/2 
f 16/16/2 17/17/1 15/15/1 
f 17/17/1 16/16/2 18/18/2 
f 18/18/2 19/19/1 17/17/1 
f 19/19/1 18/18/2 20/20/2 
f 20/20/2 21/21/1 19/19/1 
f 21/21/1 20/20/2 22/22/2 
f 22/22/2 23/23/1 21/21/1 
f 23/23/1 22/22/2 8/8/2 
f 8/8/2 24/24/1 23/23/1 
f 24/24/1 8/8/2 2/2/2 
f 2/2/2 1/1/1 24/24/1 
f 25/25/2 26/26/1 27/27/1 
f 27/27/1 28/28/2 25/25/2 
f 28/28/2 27/27/1 29/29/1 
f 29/29/1 30/30/2 28/28/2 
f 30/30/2 29/29/1 31/31/1 
f 31/31/1 32/32/2 30/30/2 
f 32/32/2 31/31/1 33/33/1 
f 33/33/1 34/34/2 32/32/2 
f 34/34/2 33/33/1 35/35/1 
f 35/35/1 36/36/2 34/34/2 
f 36/36/2 35/35/1 37/37/1 
f 37/37/1 38/38/2 36/36/2 
f 38/38/2 37/37/1 4/4/1 
f 4/4/1 3/3/2 38/38/2 
f 39/39/3 10/10/1 13/13/1 
f 13/13/1 40/40/3 39/39/3 
f 40/40/3 13/13/1 15/15/1 
f 15/15/1 41/41/3 40/40/3 
f 41/41/3 15/15/1 17/17/1 
f 17/17/1 42/42/3 41/41/3 
f 42/42/3 17/17/1 19/19/1 
f 19/19/1 43/43/3 42/42/3 
f 43/43/3 19/19/1 21/21/1 
f 21/21/1 44/44/3 43/43/3 
f 44/44/3 21/21/1 23/23/1 
f 23/23/1 45/45/3 44/44/3 
f 45/45/3 23/23/1 24/24/1 
f 24/24/1 46/46/3 45/45/3 
f 46/46/3 24/24/1 1/1/1 
f 1/1/1 5/5/3 46/46/3 
f 26/26/1 47/47/3 48/48/3 
f 48/48/3 27/27/1 26/26/1 
f 27/27/1 48/48/3 49/49/3 
f 49/49/3 29/29/1 27/27/1 
f 29/29/1 49/49/3 50/50/3 
f 50/50/3 31/31/1 29/29/1 
f 31/31/1 50/50/3 51/51/3 
f 51/51/3 33/33/1 31/31/1 
f 33/33/1 51/51/3 52/52/3 
f 52/52/3 35/35/1 33/33/1 
f 35/35/1 52/52/3 53/53/3 
f 53/53/3 37/37/1 35/35/1 
f 37/37/1 53/53/3 6/6/3 
f 6/6/3 4/4/1 37/37/1 
f 54/54/4 25/25/2 28/28/2 
f 28/28/2 55/55/4 54/54/4 
f 55/55/4 28/28/2 30/30/2 
f 30/30/2 56/56/4 55/55/4 
f 56/56/4 30/30/2 32/32/2 
f 32/32/2 57/57/4 56/56/4 
f 57/57/4 32/32/2 34/34/2 
f 34/34/2 58/58/4 57/57/4 
f 58/58/4 34/34/2 36/36/2 
f 36/36/2 59/59/4 58/58/4 
f 59/59/4 36/36/2 38/38/2 
f 38/38/2 60/60/4 59/59/4 
f 60/60/4 38/38/2 3/3/2 
f 3/3/2 61/61/4 60/60/4 
f 61/61/4 3/3/2 2/2/2 
f 2/2/2 7/7/4 61/61/4 
f 11/11/2 62/62/4 63/63/4 
f 63/63/4 12/12/2 11/11/2 
f 12/12/2 63/63/4 64/64/4 
f 64/64/4 14/14/2 12/12/2 
f 14/14/2 64/64/4 65/65/4 
f 65/65/4 16/16/2 14/14/2 
f 16/16/2 65/65/4 66/66/4 
f 66/66/4 18/18/2 16/16/2 
f 18/18/2 66/66/4 67/67/4 
f 67/67/4 20/20/2 18/18/2 
f 20/20/2 67/67/4 68/68/4 
f 68/68/4 22/22/2 20/20/2 
f 22/22/2 68/68/4 9/9/4 
f 9/9/4 8/8/2 22/22/2 
# 96 faces

