# 3ds Max Wavefront OBJ Exporter v0.97b - (c)2007 guruware
# File Created: 20.06.2018 00:53:38

#
# object node
#

v  4.0000 0.3000 -0.0000
v  2.5000 0.3000 -0.0000
v  2.5000 0.3000 1.3333
v  4.0000 0.3000 1.3333
v  -2.5000 0.1000 -0.0000
v  2.5000 0.3000 -1.3333
v  -2.5000 0.1000 -1.3333
v  4.0000 0.3000 -32.0000
v  2.5000 0.3000 -32.0000
v  2.5000 0.3000 -30.6667
v  4.0000 0.3000 -30.6667
v  4.0000 0.3000 -26.6667
v  2.5000 0.3000 -26.6667
v  2.5000 0.3000 -25.3333
v  4.0000 0.3000 -25.3333
v  4.0000 0.3000 -21.3333
v  2.5000 0.3000 -21.3333
v  2.5000 0.3000 -20.0000
v  4.0000 0.3000 -20.0000
v  4.0000 0.3000 -16.0000
v  2.5000 0.3000 -16.0000
v  2.5000 0.3000 -14.6667
v  4.0000 0.3000 -14.6667
v  4.0000 0.3000 -10.6667
v  2.5000 0.3000 -10.6667
v  2.5000 0.3000 -9.3333
v  4.0000 0.3000 -9.3333
v  4.0000 0.3000 -5.3333
v  2.5000 0.3000 -5.3333
v  2.5000 0.3000 -4.0000
v  4.0000 0.3000 -4.0000
v  2.5000 0.3000 32.0000
v  4.0000 0.3000 32.0000
v  4.0000 0.3000 30.6667
v  2.5000 0.3000 30.6667
v  2.5000 0.3000 26.6667
v  4.0000 0.3000 26.6667
v  4.0000 0.3000 25.3334
v  2.5000 0.3000 25.3334
v  2.5000 0.3000 21.3333
v  4.0000 0.3000 21.3333
v  4.0000 0.3000 20.0000
v  2.5000 0.3000 20.0000
v  2.5000 0.3000 16.0000
v  4.0000 0.3000 16.0000
v  4.0000 0.3000 14.6667
v  2.5000 0.3000 14.6667
v  2.5000 0.3000 10.6667
v  4.0000 0.3000 10.6667
v  4.0000 0.3000 9.3334
v  2.5000 0.3000 9.3334
v  -2.5000 0.1000 32.0000
v  -2.5000 0.1000 30.6667
v  -2.5000 0.1000 26.6667
v  -2.5000 0.1000 25.3333
v  -2.5000 0.1000 21.3333
v  -2.5000 0.1000 20.0000
v  -2.5000 0.1000 16.0000
v  -2.5000 0.1000 14.6667
v  -2.5000 0.1000 10.6667
v  -2.5000 0.1000 9.3333
v  -2.5000 0.1000 5.3333
v  2.5000 0.3000 5.3333
v  2.5000 0.3000 4.0000
v  -2.5000 0.1000 4.0000
v  -2.5000 0.1000 -32.0000
v  -2.5000 0.1000 -30.6667
v  -2.5000 0.1000 -26.6667
v  -2.5000 0.1000 -25.3334
v  -2.5000 0.1000 -21.3333
v  -2.5000 0.1000 -20.0000
v  -2.5000 0.1000 -16.0000
v  -2.5000 0.1000 -14.6667
v  -2.5000 0.1000 -10.6667
v  -2.5000 0.1000 -9.3334
v  4.0000 0.3000 -1.3333
v  12.0000 -0.3000 -0.0000
v  12.0000 -0.3000 -1.3333
v  12.0000 -0.3000 32.0000
v  12.0000 -0.3000 30.6667
v  12.0000 -0.3000 26.6667
v  12.0000 -0.3000 25.3333
v  12.0000 -0.3000 21.3333
v  12.0000 -0.3000 20.0000
v  12.0000 -0.3000 16.0000
v  12.0000 -0.3000 14.6667
v  12.0000 -0.3000 10.6667
v  12.0000 -0.3000 9.3333
v  4.0000 0.3000 4.0000
v  4.0000 0.3000 5.3333
v  12.0000 -0.3000 5.3333
v  12.0000 -0.3000 4.0000
v  12.0000 -0.3000 -30.6667
v  12.0000 -0.3000 -32.0000
v  12.0000 -0.3000 -25.3334
v  12.0000 -0.3000 -26.6667
v  12.0000 -0.3000 -20.0000
v  12.0000 -0.3000 -21.3333
v  12.0000 -0.3000 -14.6667
v  12.0000 -0.3000 -16.0000
v  12.0000 -0.3000 -9.3334
v  12.0000 -0.3000 -10.6667
v  4.0000 0.3000 2.6667
v  2.5000 0.3000 2.6667
v  -2.5000 0.1000 -4.0000
v  -2.5000 0.1000 -2.6667
v  2.5000 0.3000 -2.6666
v  4.0000 0.3000 -28.0000
v  4.0000 0.3000 -29.3333
v  2.5000 0.3000 -29.3333
v  2.5000 0.3000 -28.0000
v  4.0000 0.3000 -22.6666
v  4.0000 0.3000 -24.0000
v  2.5000 0.3000 -24.0000
v  2.5000 0.3000 -22.6666
v  4.0000 0.3000 -17.3333
v  4.0000 0.3000 -18.6666
v  2.5000 0.3000 -18.6666
v  2.5000 0.3000 -17.3333
v  4.0000 0.3000 -12.0000
v  4.0000 0.3000 -13.3333
v  2.5000 0.3000 -13.3333
v  2.5000 0.3000 -12.0000
v  4.0000 0.3000 -6.6666
v  4.0000 0.3000 -8.0000
v  2.5000 0.3000 -8.0000
v  2.5000 0.3000 -6.6666
v  4.0000 0.3000 -2.6666
v  2.5000 0.3000 28.0000
v  2.5000 0.3000 29.3334
v  4.0000 0.3000 29.3334
v  4.0000 0.3000 28.0000
v  2.5000 0.3000 22.6667
v  2.5000 0.3000 24.0000
v  4.0000 0.3000 24.0000
v  4.0000 0.3000 22.6666
v  2.5000 0.3000 17.3333
v  2.5000 0.3000 18.6667
v  4.0000 0.3000 18.6667
v  4.0000 0.3000 17.3333
v  2.5000 0.3000 12.0000
v  2.5000 0.3000 13.3334
v  4.0000 0.3000 13.3334
v  4.0000 0.3000 12.0000
v  2.5000 0.3000 6.6667
v  2.5000 0.3000 8.0000
v  4.0000 0.3000 8.0000
v  4.0000 0.3000 6.6667
v  -2.5000 0.1000 28.0000
v  -2.5000 0.1000 29.3333
v  -2.5000 0.1000 22.6666
v  -2.5000 0.1000 24.0000
v  -2.5000 0.1000 17.3333
v  -2.5000 0.1000 18.6666
v  -2.5000 0.1000 12.0000
v  -2.5000 0.1000 13.3333
v  -2.5000 0.1000 6.6666
v  -2.5000 0.1000 8.0000
v  -2.5000 0.1000 1.3333
v  -2.5000 0.1000 2.6666
v  -2.5000 0.1000 -29.3334
v  -2.5000 0.1000 -28.0000
v  -2.5000 0.1000 -24.0000
v  -2.5000 0.1000 -22.6666
v  -2.5000 0.1000 -18.6666
v  -2.5000 0.1000 -17.3333
v  -2.5000 0.1000 -13.3334
v  -2.5000 0.1000 -12.0000
v  -2.5000 0.1000 -8.0000
v  -2.5000 0.1000 -6.6667
v  12.0000 -0.3000 -2.6667
v  12.0000 -0.3000 -4.0000
v  12.0000 -0.3000 29.3333
v  12.0000 -0.3000 28.0000
v  12.0000 -0.3000 24.0000
v  12.0000 -0.3000 22.6666
v  12.0000 -0.3000 18.6666
v  12.0000 -0.3000 17.3333
v  12.0000 -0.3000 13.3333
v  12.0000 -0.3000 12.0000
v  12.0000 -0.3000 8.0000
v  12.0000 -0.3000 6.6666
v  12.0000 -0.3000 2.6666
v  12.0000 -0.3000 1.3333
v  12.0000 -0.3000 -28.0000
v  12.0000 -0.3000 -29.3334
v  12.0000 -0.3000 -22.6667
v  12.0000 -0.3000 -24.0000
v  12.0000 -0.3000 -17.3333
v  12.0000 -0.3000 -18.6667
v  12.0000 -0.3000 -12.0000
v  12.0000 -0.3000 -13.3334
v  12.0000 -0.3000 -6.6667
v  12.0000 -0.3000 -8.0000
v  -2.5000 0.1000 -5.3333
v  12.0000 -0.3000 -5.3333
v  14.8577 -3.4650 -0.0000
v  14.8577 -3.4650 -1.3333
v  14.8577 -3.4650 32.0000
v  14.8577 -3.4650 30.6667
v  14.8577 -3.4650 26.6667
v  14.8577 -3.4650 25.3333
v  14.8577 -3.4650 21.3333
v  14.8577 -3.4650 20.0000
v  14.8577 -3.4650 16.0000
v  14.8577 -3.4650 14.6667
v  14.8577 -3.4650 10.6667
v  14.8577 -3.4650 9.3333
v  14.8577 -3.4650 5.3333
v  14.8577 -3.4650 4.0000
v  14.8577 -3.4650 -30.6667
v  14.8577 -3.4650 -32.0000
v  14.8577 -3.4650 -25.3334
v  14.8577 -3.4650 -26.6667
v  14.8577 -3.4650 -20.0000
v  14.8577 -3.4650 -21.3333
v  14.8577 -3.4650 -14.6667
v  14.8577 -3.4650 -16.0000
v  14.8577 -3.4650 -9.3334
v  14.8577 -3.4650 -10.6667
v  14.8577 -3.4650 -2.6667
v  14.8577 -3.4650 -4.0000
v  14.8577 -3.4650 29.3333
v  14.8577 -3.4650 28.0000
v  14.8577 -3.4650 24.0000
v  14.8577 -3.4650 22.6666
v  14.8577 -3.4650 18.6666
v  14.8577 -3.4650 17.3333
v  14.8577 -3.4650 13.3333
v  14.8577 -3.4650 12.0000
v  14.8577 -3.4650 8.0000
v  14.8577 -3.4650 6.6666
v  14.8577 -3.4650 2.6666
v  14.8577 -3.4650 1.3333
v  14.8577 -3.4650 -28.0000
v  14.8577 -3.4650 -29.3334
v  14.8577 -3.4650 -22.6667
v  14.8577 -3.4650 -24.0000
v  14.8577 -3.4650 -17.3333
v  14.8577 -3.4650 -18.6667
v  14.8577 -3.4650 -12.0000
v  14.8577 -3.4650 -13.3334
v  14.8577 -3.4650 -6.6667
v  14.8577 -3.4650 -8.0000
v  14.8577 -3.4650 -5.3333
v  -5.3577 -3.0650 -1.3333
v  -5.3577 -3.0650 -0.0000
v  -5.3577 -3.0650 30.6667
v  -5.3577 -3.0650 32.0000
v  -5.3577 -3.0650 25.3334
v  -5.3577 -3.0650 26.6667
v  -5.3577 -3.0650 20.0000
v  -5.3577 -3.0650 21.3333
v  -5.3577 -3.0650 14.6667
v  -5.3577 -3.0650 16.0000
v  -5.3577 -3.0650 9.3334
v  -5.3577 -3.0650 10.6667
v  -5.3577 -3.0650 4.0000
v  -5.3577 -3.0650 5.3333
v  -5.3577 -3.0650 -32.0000
v  -5.3577 -3.0650 -30.6667
v  -5.3577 -3.0650 -26.6667
v  -5.3577 -3.0650 -25.3333
v  -5.3577 -3.0650 -21.3333
v  -5.3577 -3.0650 -20.0000
v  -5.3577 -3.0650 -16.0000
v  -5.3577 -3.0650 -14.6667
v  -5.3577 -3.0650 -10.6667
v  -5.3577 -3.0650 -9.3333
v  -5.3577 -3.0650 -4.0000
v  -5.3577 -3.0650 -2.6666
v  -5.3577 -3.0650 28.0000
v  -5.3577 -3.0650 29.3334
v  -5.3577 -3.0650 22.6666
v  -5.3577 -3.0650 24.0000
v  -5.3577 -3.0650 17.3333
v  -5.3577 -3.0650 18.6667
v  -5.3577 -3.0650 12.0000
v  -5.3577 -3.0650 13.3334
v  -5.3577 -3.0650 6.6667
v  -5.3577 -3.0650 8.0000
v  -5.3577 -3.0650 1.3333
v  -5.3577 -3.0650 2.6667
v  -5.3577 -3.0650 -29.3333
v  -5.3577 -3.0650 -28.0000
v  -5.3577 -3.0650 -24.0000
v  -5.3577 -3.0650 -22.6666
v  -5.3577 -3.0650 -18.6666
v  -5.3577 -3.0650 -17.3333
v  -5.3577 -3.0650 -13.3333
v  -5.3577 -3.0650 -12.0000
v  -5.3577 -3.0650 -8.0000
v  -5.3577 -3.0650 -6.6666
v  -5.3577 -3.0650 -5.3333
# 294 vertices

vn 0.0062 1.0000 -0.0000
vn -0.0312 0.9995 -0.0000
vn -0.0624 0.9981 -0.0000
vn 0.0125 0.9999 -0.0000
vn 0.7422 0.6702 -0.0000
vn 0.4085 0.3688 0.8349
vn 0.6567 0.5929 0.4660
vn 0.6567 0.5929 -0.4660
vn 0.4085 0.3688 -0.8349
vn -0.7422 0.6702 -0.0000
vn -0.6536 0.5901 0.4739
vn -0.4130 0.3729 0.8308
vn -0.4130 0.3729 -0.8308
vn -0.6536 0.5901 -0.4739
vn 0.0000 0.0000 1.0000
vn 0.0000 0.0000 -1.0000
# 16 vertex normals

vt 0.4433 0.5000 0.0000
vt 0.5609 0.5000 0.0000
vt 0.5609 0.4792 0.0000
vt 0.4433 0.4792 0.0000
vt 0.7962 0.5000 0.0000
vt 0.5609 0.5208 0.0000
vt 0.7962 0.5208 0.0000
vt 0.4433 1.0000 0.0000
vt 0.5609 1.0000 0.0000
vt 0.5609 0.9792 0.0000
vt 0.4433 0.9792 0.0000
vt 0.4433 0.9167 0.0000
vt 0.5609 0.9167 0.0000
vt 0.5609 0.8958 0.0000
vt 0.4433 0.8958 0.0000
vt 0.4433 0.8333 0.0000
vt 0.5609 0.8333 0.0000
vt 0.5609 0.8125 0.0000
vt 0.4433 0.8125 0.0000
vt 0.4433 0.7500 0.0000
vt 0.5609 0.7500 0.0000
vt 0.5609 0.7292 0.0000
vt 0.4433 0.7292 0.0000
vt 0.4433 0.6667 0.0000
vt 0.5609 0.6667 0.0000
vt 0.5609 0.6458 0.0000
vt 0.4433 0.6458 0.0000
vt 0.4433 0.5833 0.0000
vt 0.5609 0.5833 0.0000
vt 0.5609 0.5625 0.0000
vt 0.4433 0.5625 0.0000
vt 0.5609 0.0000 0.0000
vt 0.4433 0.0000 0.0000
vt 0.4433 0.0208 0.0000
vt 0.5609 0.0208 0.0000
vt 0.5609 0.0833 0.0000
vt 0.4433 0.0833 0.0000
vt 0.4433 0.1042 0.0000
vt 0.5609 0.1042 0.0000
vt 0.5609 0.1667 0.0000
vt 0.4433 0.1667 0.0000
vt 0.4433 0.1875 0.0000
vt 0.5609 0.1875 0.0000
vt 0.5609 0.2500 0.0000
vt 0.4433 0.2500 0.0000
vt 0.4433 0.2708 0.0000
vt 0.5609 0.2708 0.0000
vt 0.5609 0.3333 0.0000
vt 0.4433 0.3333 0.0000
vt 0.4433 0.3542 0.0000
vt 0.5609 0.3542 0.0000
vt 0.7962 0.0000 0.0000
vt 0.7962 0.0208 0.0000
vt 0.7962 0.0833 0.0000
vt 0.7962 0.1042 0.0000
vt 0.7962 0.1667 0.0000
vt 0.7962 0.1875 0.0000
vt 0.7962 0.2500 0.0000
vt 0.7962 0.2708 0.0000
vt 0.7962 0.3333 0.0000
vt 0.7962 0.3542 0.0000
vt 0.7962 0.4167 0.0000
vt 0.5609 0.4167 0.0000
vt 0.5609 0.4375 0.0000
vt 0.7962 0.4375 0.0000
vt 0.7962 1.0000 0.0000
vt 0.7962 0.9792 0.0000
vt 0.7962 0.9167 0.0000
vt 0.7962 0.8958 0.0000
vt 0.7962 0.8333 0.0000
vt 0.7962 0.8125 0.0000
vt 0.7962 0.7500 0.0000
vt 0.7962 0.7292 0.0000
vt 0.7962 0.6667 0.0000
vt 0.7962 0.6458 0.0000
vt 0.4433 0.5208 0.0000
vt 0.2081 0.5000 0.0000
vt 0.2081 0.5208 0.0000
vt 0.2081 0.0000 0.0000
vt 0.2081 0.0208 0.0000
vt 0.2081 0.0833 0.0000
vt 0.2081 0.1042 0.0000
vt 0.2081 0.1667 0.0000
vt 0.2081 0.1875 0.0000
vt 0.2081 0.2500 0.0000
vt 0.2081 0.2708 0.0000
vt 0.2081 0.3333 0.0000
vt 0.2081 0.3542 0.0000
vt 0.4433 0.4375 0.0000
vt 0.4433 0.4167 0.0000
vt 0.2081 0.4167 0.0000
vt 0.2081 0.4375 0.0000
vt 0.2081 0.9792 0.0000
vt 0.2081 1.0000 0.0000
vt 0.2081 0.8958 0.0000
vt 0.2081 0.9167 0.0000
vt 0.2081 0.8125 0.0000
vt 0.2081 0.8333 0.0000
vt 0.2081 0.7292 0.0000
vt 0.2081 0.7500 0.0000
vt 0.2081 0.6458 0.0000
vt 0.2081 0.6667 0.0000
vt 0.4433 0.4583 0.0000
vt 0.5609 0.4583 0.0000
vt 0.7962 0.5625 0.0000
vt 0.7962 0.5417 0.0000
vt 0.5609 0.5417 0.0000
vt 0.4433 0.9375 0.0000
vt 0.4433 0.9583 0.0000
vt 0.5609 0.9583 0.0000
vt 0.5609 0.9375 0.0000
vt 0.4433 0.8542 0.0000
vt 0.4433 0.8750 0.0000
vt 0.5609 0.8750 0.0000
vt 0.5609 0.8542 0.0000
vt 0.4433 0.7708 0.0000
vt 0.4433 0.7917 0.0000
vt 0.5609 0.7917 0.0000
vt 0.5609 0.7708 0.0000
vt 0.4433 0.6875 0.0000
vt 0.4433 0.7083 0.0000
vt 0.5609 0.7083 0.0000
vt 0.5609 0.6875 0.0000
vt 0.4433 0.6042 0.0000
vt 0.4433 0.6250 0.0000
vt 0.5609 0.6250 0.0000
vt 0.5609 0.6042 0.0000
vt 0.4433 0.5417 0.0000
vt 0.5609 0.0625 0.0000
vt 0.5609 0.0417 0.0000
vt 0.4433 0.0417 0.0000
vt 0.4433 0.0625 0.0000
vt 0.5609 0.1458 0.0000
vt 0.5609 0.1250 0.0000
vt 0.4433 0.1250 0.0000
vt 0.4433 0.1458 0.0000
vt 0.5609 0.2292 0.0000
vt 0.5609 0.2083 0.0000
vt 0.4433 0.2083 0.0000
vt 0.4433 0.2292 0.0000
vt 0.5609 0.3125 0.0000
vt 0.5609 0.2917 0.0000
vt 0.4433 0.2917 0.0000
vt 0.4433 0.3125 0.0000
vt 0.5609 0.3958 0.0000
vt 0.5609 0.3750 0.0000
vt 0.4433 0.3750 0.0000
vt 0.4433 0.3958 0.0000
vt 0.7962 0.0625 0.0000
vt 0.7962 0.0417 0.0000
vt 0.7962 0.1458 0.0000
vt 0.7962 0.1250 0.0000
vt 0.7962 0.2292 0.0000
vt 0.7962 0.2083 0.0000
vt 0.7962 0.3125 0.0000
vt 0.7962 0.2917 0.0000
vt 0.7962 0.3958 0.0000
vt 0.7962 0.3750 0.0000
vt 0.7962 0.4792 0.0000
vt 0.7962 0.4583 0.0000
vt 0.7962 0.9583 0.0000
vt 0.7962 0.9375 0.0000
vt 0.7962 0.8750 0.0000
vt 0.7962 0.8542 0.0000
vt 0.7962 0.7917 0.0000
vt 0.7962 0.7708 0.0000
vt 0.7962 0.7083 0.0000
vt 0.7962 0.6875 0.0000
vt 0.7962 0.6250 0.0000
vt 0.7962 0.6042 0.0000
vt 0.2081 0.5417 0.0000
vt 0.2081 0.5625 0.0000
vt 0.2081 0.0417 0.0000
vt 0.2081 0.0625 0.0000
vt 0.2081 0.1250 0.0000
vt 0.2081 0.1458 0.0000
vt 0.2081 0.2083 0.0000
vt 0.2081 0.2292 0.0000
vt 0.2081 0.2917 0.0000
vt 0.2081 0.3125 0.0000
vt 0.2081 0.3750 0.0000
vt 0.2081 0.3958 0.0000
vt 0.2081 0.4583 0.0000
vt 0.2081 0.4792 0.0000
vt 0.2081 0.9375 0.0000
vt 0.2081 0.9583 0.0000
vt 0.2081 0.8542 0.0000
vt 0.2081 0.8750 0.0000
vt 0.2081 0.7708 0.0000
vt 0.2081 0.7917 0.0000
vt 0.2081 0.6875 0.0000
vt 0.2081 0.7083 0.0000
vt 0.2081 0.6042 0.0000
vt 0.2081 0.6250 0.0000
vt 0.7962 0.5833 0.0000
vt 0.2081 0.5833 0.0000
# 196 texture coords

g node
s 1
f 1/1/1 2/2/2 3/3/2 4/4/1 
f 5/5/3 2/2/2 6/6/2 7/7/3 
f 8/8/1 9/9/2 10/10/2 11/11/1 
f 12/12/1 13/13/2 14/14/2 15/15/1 
f 16/16/1 17/17/2 18/18/2 19/19/1 
f 20/20/1 21/21/2 22/22/2 23/23/1 
f 24/24/1 25/25/2 26/26/2 27/27/1 
f 28/28/1 29/29/2 30/30/2 31/31/1 
f 32/32/2 33/33/1 34/34/1 35/35/2 
f 36/36/2 37/37/1 38/38/1 39/39/2 
f 40/40/2 41/41/1 42/42/1 43/43/2 
f 44/44/2 45/45/1 46/46/1 47/47/2 
f 48/48/2 49/49/1 50/50/1 51/51/2 
f 52/52/3 32/32/2 35/35/2 53/53/3 
f 54/54/3 36/36/2 39/39/2 55/55/3 
f 56/56/3 40/40/2 43/43/2 57/57/3 
f 58/58/3 44/44/2 47/47/2 59/59/3 
f 60/60/3 48/48/2 51/51/2 61/61/3 
f 62/62/3 63/63/2 64/64/2 65/65/3 
f 9/9/2 66/66/3 67/67/3 10/10/2 
f 13/13/2 68/68/3 69/69/3 14/14/2 
f 17/17/2 70/70/3 71/71/3 18/18/2 
f 21/21/2 72/72/3 73/73/3 22/22/2 
f 25/25/2 74/74/3 75/75/3 26/26/2 
f 76/76/1 1/1/1 77/77/4 78/78/4 
f 34/34/1 33/33/1 79/79/4 80/80/4 
f 38/38/1 37/37/1 81/81/4 82/82/4 
f 42/42/1 41/41/1 83/83/4 84/84/4 
f 46/46/1 45/45/1 85/85/4 86/86/4 
f 50/50/1 49/49/1 87/87/4 88/88/4 
f 89/89/1 90/90/1 91/91/4 92/92/4 
f 93/93/4 94/94/4 8/8/1 11/11/1 
f 95/95/4 96/96/4 12/12/1 15/15/1 
f 97/97/4 98/98/4 16/16/1 19/19/1 
f 99/99/4 100/100/4 20/20/1 23/23/1 
f 101/101/4 102/102/4 24/24/1 27/27/1 
f 89/89/1 103/103/1 104/104/2 64/64/2 
f 105/105/3 106/106/3 107/107/2 30/30/2 
f 108/108/1 109/109/1 110/110/2 111/111/2 
f 112/112/1 113/113/1 114/114/2 115/115/2 
f 116/116/1 117/117/1 118/118/2 119/119/2 
f 120/120/1 121/121/1 122/122/2 123/123/2 
f 124/124/1 125/125/1 126/126/2 127/127/2 
f 76/76/1 128/128/1 107/107/2 6/6/2 
f 129/129/2 130/130/2 131/131/1 132/132/1 
f 133/133/2 134/134/2 135/135/1 136/136/1 
f 137/137/2 138/138/2 139/139/1 140/140/1 
f 141/141/2 142/142/2 143/143/1 144/144/1 
f 145/145/2 146/146/2 147/147/1 148/148/1 
f 149/149/3 150/150/3 130/130/2 129/129/2 
f 151/151/3 152/152/3 134/134/2 133/133/2 
f 153/153/3 154/154/3 138/138/2 137/137/2 
f 155/155/3 156/156/3 142/142/2 141/141/2 
f 157/157/3 158/158/3 146/146/2 145/145/2 
f 159/159/3 160/160/3 104/104/2 3/3/2 
f 111/111/2 110/110/2 161/161/3 162/162/3 
f 115/115/2 114/114/2 163/163/3 164/164/3 
f 119/119/2 118/118/2 165/165/3 166/166/3 
f 123/123/2 122/122/2 167/167/3 168/168/3 
f 127/127/2 126/126/2 169/169/3 170/170/3 
f 31/31/1 128/128/1 171/171/4 172/172/4 
f 132/132/1 131/131/1 173/173/4 174/174/4 
f 136/136/1 135/135/1 175/175/4 176/176/4 
f 140/140/1 139/139/1 177/177/4 178/178/4 
f 144/144/1 143/143/1 179/179/4 180/180/4 
f 148/148/1 147/147/1 181/181/4 182/182/4 
f 4/4/1 103/103/1 183/183/4 184/184/4 
f 185/185/4 186/186/4 109/109/1 108/108/1 
f 187/187/4 188/188/4 113/113/1 112/112/1 
f 189/189/4 190/190/4 117/117/1 116/116/1 
f 191/191/4 192/192/4 121/121/1 120/120/1 
f 193/193/4 194/194/4 125/125/1 124/124/1 
f 103/103/1 4/4/1 3/3/2 104/104/2 
f 106/106/3 7/7/3 6/6/2 107/107/2 
f 109/109/1 11/11/1 10/10/2 110/110/2 
f 113/113/1 15/15/1 14/14/2 114/114/2 
f 117/117/1 19/19/1 18/18/2 118/118/2 
f 121/121/1 23/23/1 22/22/2 122/122/2 
f 125/125/1 27/27/1 26/26/2 126/126/2 
f 128/128/1 31/31/1 30/30/2 107/107/2 
f 130/130/2 35/35/2 34/34/1 131/131/1 
f 134/134/2 39/39/2 38/38/1 135/135/1 
f 138/138/2 43/43/2 42/42/1 139/139/1 
f 142/142/2 47/47/2 46/46/1 143/143/1 
f 146/146/2 51/51/2 50/50/1 147/147/1 
f 150/150/3 53/53/3 35/35/2 130/130/2 
f 152/152/3 55/55/3 39/39/2 134/134/2 
f 154/154/3 57/57/3 43/43/2 138/138/2 
f 156/156/3 59/59/3 47/47/2 142/142/2 
f 158/158/3 61/61/3 51/51/2 146/146/2 
f 160/160/3 65/65/3 64/64/2 104/104/2 
f 110/110/2 10/10/2 67/67/3 161/161/3 
f 114/114/2 14/14/2 69/69/3 163/163/3 
f 118/118/2 18/18/2 71/71/3 165/165/3 
f 122/122/2 22/22/2 73/73/3 167/167/3 
f 126/126/2 26/26/2 75/75/3 169/169/3 
f 128/128/1 76/76/1 78/78/4 171/171/4 
f 131/131/1 34/34/1 80/80/4 173/173/4 
f 135/135/1 38/38/1 82/82/4 175/175/4 
f 139/139/1 42/42/1 84/84/4 177/177/4 
f 143/143/1 46/46/1 86/86/4 179/179/4 
f 147/147/1 50/50/1 88/88/4 181/181/4 
f 103/103/1 89/89/1 92/92/4 183/183/4 
f 186/186/4 93/93/4 11/11/1 109/109/1 
f 188/188/4 95/95/4 15/15/1 113/113/1 
f 190/190/4 97/97/4 19/19/1 117/117/1 
f 192/192/4 99/99/4 23/23/1 121/121/1 
f 194/194/4 101/101/4 27/27/1 125/125/1 
f 90/90/1 89/89/1 64/64/2 63/63/2 
f 195/195/3 105/105/3 30/30/2 29/29/2 
f 12/12/1 108/108/1 111/111/2 13/13/2 
f 16/16/1 112/112/1 115/115/2 17/17/2 
f 20/20/1 116/116/1 119/119/2 21/21/2 
f 24/24/1 120/120/1 123/123/2 25/25/2 
f 28/28/1 124/124/1 127/127/2 29/29/2 
f 1/1/1 76/76/1 6/6/2 2/2/2 
f 36/36/2 129/129/2 132/132/1 37/37/1 
f 40/40/2 133/133/2 136/136/1 41/41/1 
f 44/44/2 137/137/2 140/140/1 45/45/1 
f 48/48/2 141/141/2 144/144/1 49/49/1 
f 63/63/2 145/145/2 148/148/1 90/90/1 
f 54/54/3 149/149/3 129/129/2 36/36/2 
f 56/56/3 151/151/3 133/133/2 40/40/2 
f 58/58/3 153/153/3 137/137/2 44/44/2 
f 60/60/3 155/155/3 141/141/2 48/48/2 
f 62/62/3 157/157/3 145/145/2 63/63/2 
f 5/5/3 159/159/3 3/3/2 2/2/2 
f 13/13/2 111/111/2 162/162/3 68/68/3 
f 17/17/2 115/115/2 164/164/3 70/70/3 
f 21/21/2 119/119/2 166/166/3 72/72/3 
f 25/25/2 123/123/2 168/168/3 74/74/3 
f 29/29/2 127/127/2 170/170/3 195/195/3 
f 28/28/1 31/31/1 172/172/4 196/196/4 
f 37/37/1 132/132/1 174/174/4 81/81/4 
f 41/41/1 136/136/1 176/176/4 83/83/4 
f 45/45/1 140/140/1 178/178/4 85/85/4 
f 49/49/1 144/144/1 180/180/4 87/87/4 
f 90/90/1 148/148/1 182/182/4 91/91/4 
f 1/1/1 4/4/1 184/184/4 77/77/4 
f 96/96/4 185/185/4 108/108/1 12/12/1 
f 98/98/4 187/187/4 112/112/1 16/16/1 
f 100/100/4 189/189/4 116/116/1 20/20/1 
f 102/102/4 191/191/4 120/120/1 24/24/1 
f 196/196/4 193/193/4 124/124/1 28/28/1 
f 78/76/5 77/1/5 197/77/5 198/78/5 
f 80/34/5 79/33/6 199/79/7 200/80/5 
f 82/38/5 81/37/5 201/81/5 202/82/5 
f 84/42/5 83/41/5 203/83/5 204/84/5 
f 86/46/5 85/45/5 205/85/5 206/86/5 
f 88/50/5 87/49/5 207/87/5 208/88/5 
f 92/89/5 91/90/5 209/91/5 210/92/5 
f 211/93/5 212/94/8 94/8/9 93/11/5 
f 213/95/5 214/96/5 96/12/5 95/15/5 
f 215/97/5 216/98/5 98/16/5 97/19/5 
f 217/99/5 218/100/5 100/20/5 99/23/5 
f 219/101/5 220/102/5 102/24/5 101/27/5 
f 172/31/5 171/128/5 221/171/5 222/172/5 
f 174/132/5 173/131/5 223/173/5 224/174/5 
f 176/136/5 175/135/5 225/175/5 226/176/5 
f 178/140/5 177/139/5 227/177/5 228/178/5 
f 180/144/5 179/143/5 229/179/5 230/180/5 
f 182/148/5 181/147/5 231/181/5 232/182/5 
f 184/4/5 183/103/5 233/183/5 234/184/5 
f 235/185/5 236/186/5 186/109/5 185/108/5 
f 237/187/5 238/188/5 188/113/5 187/112/5 
f 239/189/5 240/190/5 190/117/5 189/116/5 
f 241/191/5 242/192/5 192/121/5 191/120/5 
f 243/193/5 244/194/5 194/125/5 193/124/5 
f 171/128/5 78/76/5 198/78/5 221/171/5 
f 173/131/5 80/34/5 200/80/5 223/173/5 
f 175/135/5 82/38/5 202/82/5 225/175/5 
f 177/139/5 84/42/5 204/84/5 227/177/5 
f 179/143/5 86/46/5 206/86/5 229/179/5 
f 181/147/5 88/50/5 208/88/5 231/181/5 
f 183/103/5 92/89/5 210/92/5 233/183/5 
f 236/186/5 211/93/5 93/11/5 186/109/5 
f 238/188/5 213/95/5 95/15/5 188/113/5 
f 240/190/5 215/97/5 97/19/5 190/117/5 
f 242/192/5 217/99/5 99/23/5 192/121/5 
f 244/194/5 219/101/5 101/27/5 194/125/5 
f 196/28/5 172/31/5 222/172/5 245/196/5 
f 81/37/5 174/132/5 224/174/5 201/81/5 
f 83/41/5 176/136/5 226/176/5 203/83/5 
f 85/45/5 178/140/5 228/178/5 205/85/5 
f 87/49/5 180/144/5 230/180/5 207/87/5 
f 91/90/5 182/148/5 232/182/5 209/91/5 
f 77/1/5 184/4/5 234/184/5 197/77/5 
f 214/96/5 235/185/5 185/108/5 96/12/5 
f 216/98/5 237/187/5 187/112/5 98/16/5 
f 218/100/5 239/189/5 189/116/5 100/20/5 
f 220/102/5 241/191/5 191/120/5 102/24/5 
f 245/196/5 243/193/5 193/124/5 196/28/5 
f 246/76/10 247/1/10 5/77/10 7/78/10 
f 248/34/10 249/33/11 52/79/12 53/80/10 
f 250/38/10 251/37/10 54/81/10 55/82/10 
f 252/42/10 253/41/10 56/83/10 57/84/10 
f 254/46/10 255/45/10 58/85/10 59/86/10 
f 256/50/10 257/49/10 60/87/10 61/88/10 
f 258/89/10 259/90/10 62/91/10 65/92/10 
f 67/93/10 66/94/13 260/8/14 261/11/10 
f 69/95/10 68/96/10 262/12/10 263/15/10 
f 71/97/10 70/98/10 264/16/10 265/19/10 
f 73/99/10 72/100/10 266/20/10 267/23/10 
f 75/101/10 74/102/10 268/24/10 269/27/10 
f 270/31/10 271/128/10 106/171/10 105/172/10 
f 272/132/10 273/131/10 150/173/10 149/174/10 
f 274/136/10 275/135/10 152/175/10 151/176/10 
f 276/140/10 277/139/10 154/177/10 153/178/10 
f 278/144/10 279/143/10 156/179/10 155/180/10 
f 280/148/10 281/147/10 158/181/10 157/182/10 
f 282/4/10 283/103/10 160/183/10 159/184/10 
f 162/185/10 161/186/10 284/109/10 285/108/10 
f 164/187/10 163/188/10 286/113/10 287/112/10 
f 166/189/10 165/190/10 288/117/10 289/116/10 
f 168/191/10 167/192/10 290/121/10 291/120/10 
f 170/193/10 169/194/10 292/125/10 293/124/10 
f 271/128/10 246/76/10 7/78/10 106/171/10 
f 273/131/10 248/34/10 53/80/10 150/173/10 
f 275/135/10 250/38/10 55/82/10 152/175/10 
f 277/139/10 252/42/10 57/84/10 154/177/10 
f 279/143/10 254/46/10 59/86/10 156/179/10 
f 281/147/10 256/50/10 61/88/10 158/181/10 
f 283/103/10 258/89/10 65/92/10 160/183/10 
f 161/186/10 67/93/10 261/11/10 284/109/10 
f 163/188/10 69/95/10 263/15/10 286/113/10 
f 165/190/10 71/97/10 265/19/10 288/117/10 
f 167/192/10 73/99/10 267/23/10 290/121/10 
f 169/194/10 75/101/10 269/27/10 292/125/10 
f 294/28/10 270/31/10 105/172/10 195/196/10 
f 251/37/10 272/132/10 149/174/10 54/81/10 
f 253/41/10 274/136/10 151/176/10 56/83/10 
f 255/45/10 276/140/10 153/178/10 58/85/10 
f 257/49/10 278/144/10 155/180/10 60/87/10 
f 259/90/10 280/148/10 157/182/10 62/91/10 
f 247/1/10 282/4/10 159/184/10 5/77/10 
f 68/96/10 162/185/10 285/108/10 262/12/10 
f 70/98/10 164/187/10 287/112/10 264/16/10 
f 72/100/10 166/189/10 289/116/10 266/20/10 
f 74/102/10 168/191/10 291/120/10 268/24/10 
f 195/196/10 170/193/10 293/124/10 294/28/10 
f 33/33/15 52/52/12 199/79/7 79/79/6 
f 33/33/15 32/32/15 52/52/12 
f 249/33/11 199/79/7 52/52/12 
f 9/9/16 94/94/9 260/8/14 66/94/13 
f 9/9/16 8/8/16 94/94/9 
f 212/94/8 260/8/14 94/94/9 
# 242 polygons - 4 triangles

