# 3ds Max Wavefront OBJ Exporter v0.97b - (c)2007 guruware
# File Created: 19.06.2018 20:45:04

#
# object Object002
#

v  4.0000 0.3000 -0.0000
v  4.0000 0.3000 1.3333
v  2.5000 0.3000 1.3333
v  2.5000 0.3000 -0.0000
v  -2.5000 0.1000 -0.0000
v  -2.5000 0.1000 -1.3333
v  2.5000 0.3000 -1.3333
v  4.0000 0.3000 -32.0000
v  4.0000 0.3000 -30.6667
v  2.5000 0.3000 -30.6667
v  2.5000 0.3000 -32.0000
v  4.0000 0.3000 -26.6667
v  4.0000 0.3000 -25.3333
v  2.5000 0.3000 -25.3333
v  2.5000 0.3000 -26.6667
v  4.0000 0.3000 -21.3333
v  4.0000 0.3000 -20.0000
v  2.5000 0.3000 -20.0000
v  2.5000 0.3000 -21.3333
v  4.0000 0.3000 -16.0000
v  4.0000 0.3000 -14.6667
v  2.5000 0.3000 -14.6667
v  2.5000 0.3000 -16.0000
v  4.0000 0.3000 -10.6667
v  4.0000 0.3000 -9.3333
v  2.5000 0.3000 -9.3333
v  2.5000 0.3000 -10.6667
v  4.0000 0.3000 -5.3333
v  4.0000 0.3000 -4.0000
v  2.5000 0.3000 -4.0000
v  2.5000 0.3000 -5.3333
v  2.5000 0.3000 32.0000
v  2.5000 0.3000 30.6667
v  4.0000 0.3000 30.6667
v  4.0000 0.3000 32.0000
v  2.5000 0.3000 26.6667
v  2.5000 0.3000 25.3334
v  4.0000 0.3000 25.3334
v  4.0000 0.3000 26.6667
v  2.5000 0.3000 21.3333
v  2.5000 0.3000 20.0000
v  4.0000 0.3000 20.0000
v  4.0000 0.3000 21.3333
v  2.5000 0.3000 16.0000
v  2.5000 0.3000 14.6667
v  4.0000 0.3000 14.6667
v  4.0000 0.3000 16.0000
v  2.5000 0.3000 10.6667
v  2.5000 0.3000 9.3334
v  4.0000 0.3000 9.3334
v  4.0000 0.3000 10.6667
v  -2.5000 0.1000 32.0000
v  -2.5000 0.1000 30.6667
v  -2.5000 0.1000 26.6667
v  -2.5000 0.1000 25.3333
v  -2.5000 0.1000 21.3333
v  -2.5000 0.1000 20.0000
v  -2.5000 0.1000 16.0000
v  -2.5000 0.1000 14.6667
v  -2.5000 0.1000 10.6667
v  -2.5000 0.1000 9.3333
v  -2.5000 0.1000 5.3333
v  -2.5000 0.1000 4.0000
v  2.5000 0.3000 4.0000
v  2.5000 0.3000 5.3333
v  -2.5000 0.1000 -30.6667
v  -2.5000 0.1000 -32.0000
v  -2.5000 0.1000 -25.3334
v  -2.5000 0.1000 -26.6667
v  -2.5000 0.1000 -20.0000
v  -2.5000 0.1000 -21.3333
v  -2.5000 0.1000 -14.6667
v  -2.5000 0.1000 -16.0000
v  -2.5000 0.1000 -9.3334
v  -2.5000 0.1000 -10.6667
v  4.0000 0.3000 -1.3333
v  8.0000 0.2500 -1.3333
v  8.0000 0.2500 -0.0000
v  8.0000 0.2500 30.6667
v  8.0000 0.2500 32.0000
v  8.0000 0.2500 25.3333
v  8.0000 0.2500 26.6667
v  8.0000 0.2500 20.0000
v  8.0000 0.2500 21.3333
v  8.0000 0.2500 14.6667
v  8.0000 0.2500 16.0000
v  8.0000 0.2500 9.3333
v  8.0000 0.2500 10.6667
v  4.0000 0.3000 4.0000
v  8.0000 0.2500 4.0000
v  8.0000 0.2500 5.3333
v  4.0000 0.3000 5.3333
v  8.0000 0.2500 -30.6667
v  8.0000 0.2500 -32.0000
v  8.0000 0.2500 -25.3334
v  8.0000 0.2500 -26.6667
v  8.0000 0.2500 -20.0000
v  8.0000 0.2500 -21.3333
v  8.0000 0.2500 -14.6667
v  8.0000 0.2500 -16.0000
v  8.0000 0.2500 -9.3334
v  8.0000 0.2500 -10.6667
v  2.5000 0.3000 2.6667
v  4.0000 0.3000 2.6667
v  -2.5000 0.1000 -4.0000
v  2.5000 0.3000 -2.6666
v  -2.5000 0.1000 -2.6667
v  4.0000 0.3000 -28.0000
v  2.5000 0.3000 -28.0000
v  2.5000 0.3000 -29.3333
v  4.0000 0.3000 -29.3333
v  4.0000 0.3000 -22.6666
v  2.5000 0.3000 -22.6666
v  2.5000 0.3000 -24.0000
v  4.0000 0.3000 -24.0000
v  4.0000 0.3000 -17.3333
v  2.5000 0.3000 -17.3333
v  2.5000 0.3000 -18.6666
v  4.0000 0.3000 -18.6666
v  4.0000 0.3000 -12.0000
v  2.5000 0.3000 -12.0000
v  2.5000 0.3000 -13.3333
v  4.0000 0.3000 -13.3333
v  4.0000 0.3000 -6.6666
v  2.5000 0.3000 -6.6666
v  2.5000 0.3000 -8.0000
v  4.0000 0.3000 -8.0000
v  4.0000 0.3000 -2.6666
v  2.5000 0.3000 28.0000
v  4.0000 0.3000 28.0000
v  4.0000 0.3000 29.3334
v  2.5000 0.3000 29.3334
v  2.5000 0.3000 22.6667
v  4.0000 0.3000 22.6666
v  4.0000 0.3000 24.0000
v  2.5000 0.3000 24.0000
v  2.5000 0.3000 17.3333
v  4.0000 0.3000 17.3333
v  4.0000 0.3000 18.6667
v  2.5000 0.3000 18.6667
v  2.5000 0.3000 12.0000
v  4.0000 0.3000 12.0000
v  4.0000 0.3000 13.3334
v  2.5000 0.3000 13.3334
v  2.5000 0.3000 6.6667
v  4.0000 0.3000 6.6667
v  4.0000 0.3000 8.0000
v  2.5000 0.3000 8.0000
v  -2.5000 0.1000 28.0000
v  -2.5000 0.1000 29.3333
v  -2.5000 0.1000 22.6666
v  -2.5000 0.1000 24.0000
v  -2.5000 0.1000 17.3333
v  -2.5000 0.1000 18.6666
v  -2.5000 0.1000 12.0000
v  -2.5000 0.1000 13.3333
v  -2.5000 0.1000 6.6666
v  -2.5000 0.1000 8.0000
v  -2.5000 0.1000 1.3333
v  -2.5000 0.1000 2.6666
v  -2.5000 0.1000 -28.0000
v  -2.5000 0.1000 -29.3334
v  -2.5000 0.1000 -22.6666
v  -2.5000 0.1000 -24.0000
v  -2.5000 0.1000 -17.3333
v  -2.5000 0.1000 -18.6666
v  -2.5000 0.1000 -12.0000
v  -2.5000 0.1000 -13.3334
v  -2.5000 0.1000 -6.6667
v  -2.5000 0.1000 -8.0000
v  8.0000 0.2500 -4.0000
v  8.0000 0.2500 -2.6667
v  8.0000 0.2500 28.0000
v  8.0000 0.2500 29.3333
v  8.0000 0.2500 22.6666
v  8.0000 0.2500 24.0000
v  8.0000 0.2500 17.3333
v  8.0000 0.2500 18.6666
v  8.0000 0.2500 12.0000
v  8.0000 0.2500 13.3333
v  8.0000 0.2500 6.6666
v  8.0000 0.2500 8.0000
v  8.0000 0.2500 1.3333
v  8.0000 0.2500 2.6666
v  8.0000 0.2500 -28.0000
v  8.0000 0.2500 -29.3334
v  8.0000 0.2500 -22.6667
v  8.0000 0.2500 -24.0000
v  8.0000 0.2500 -17.3333
v  8.0000 0.2500 -18.6667
v  8.0000 0.2500 -12.0000
v  8.0000 0.2500 -13.3334
v  8.0000 0.2500 -6.6667
v  8.0000 0.2500 -8.0000
v  -2.5000 0.1000 -5.3333
v  8.0000 0.2500 -5.3333
# 196 vertices

vn 0.0062 1.0000 -0.0000
vn -0.0312 0.9995 -0.0000
vn -0.0624 0.9981 -0.0000
vn 0.0125 0.9999 -0.0000
# 4 vertex normals

vt 0.4433 0.5000 0.0000
vt 0.4433 0.4792 0.0000
vt 0.5609 0.4792 0.0000
vt 0.5609 0.5000 0.0000
vt 0.7962 0.5000 0.0000
vt 0.7962 0.5208 0.0000
vt 0.5609 0.5208 0.0000
vt 0.4433 1.0000 0.0000
vt 0.4433 0.9792 0.0000
vt 0.5609 0.9792 0.0000
vt 0.5609 1.0000 0.0000
vt 0.4433 0.9167 0.0000
vt 0.4433 0.8958 0.0000
vt 0.5609 0.8958 0.0000
vt 0.5609 0.9167 0.0000
vt 0.4433 0.8333 0.0000
vt 0.4433 0.8125 0.0000
vt 0.5609 0.8125 0.0000
vt 0.5609 0.8333 0.0000
vt 0.4433 0.7500 0.0000
vt 0.4433 0.7292 0.0000
vt 0.5609 0.7292 0.0000
vt 0.5609 0.7500 0.0000
vt 0.4433 0.6667 0.0000
vt 0.4433 0.6458 0.0000
vt 0.5609 0.6458 0.0000
vt 0.5609 0.6667 0.0000
vt 0.4433 0.5833 0.0000
vt 0.4433 0.5625 0.0000
vt 0.5609 0.5625 0.0000
vt 0.5609 0.5833 0.0000
vt 0.5609 0.0000 0.0000
vt 0.5609 0.0208 0.0000
vt 0.4433 0.0208 0.0000
vt 0.4433 0.0000 0.0000
vt 0.5609 0.0833 0.0000
vt 0.5609 0.1042 0.0000
vt 0.4433 0.1042 0.0000
vt 0.4433 0.0833 0.0000
vt 0.5609 0.1667 0.0000
vt 0.5609 0.1875 0.0000
vt 0.4433 0.1875 0.0000
vt 0.4433 0.1667 0.0000
vt 0.5609 0.2500 0.0000
vt 0.5609 0.2708 0.0000
vt 0.4433 0.2708 0.0000
vt 0.4433 0.2500 0.0000
vt 0.5609 0.3333 0.0000
vt 0.5609 0.3542 0.0000
vt 0.4433 0.3542 0.0000
vt 0.4433 0.3333 0.0000
vt 0.7962 0.0000 0.0000
vt 0.7962 0.0208 0.0000
vt 0.7962 0.0833 0.0000
vt 0.7962 0.1042 0.0000
vt 0.7962 0.1667 0.0000
vt 0.7962 0.1875 0.0000
vt 0.7962 0.2500 0.0000
vt 0.7962 0.2708 0.0000
vt 0.7962 0.3333 0.0000
vt 0.7962 0.3542 0.0000
vt 0.7962 0.4167 0.0000
vt 0.7962 0.4375 0.0000
vt 0.5609 0.4375 0.0000
vt 0.5609 0.4167 0.0000
vt 0.7962 0.9792 0.0000
vt 0.7962 1.0000 0.0000
vt 0.7962 0.8958 0.0000
vt 0.7962 0.9167 0.0000
vt 0.7962 0.8125 0.0000
vt 0.7962 0.8333 0.0000
vt 0.7962 0.7292 0.0000
vt 0.7962 0.7500 0.0000
vt 0.7962 0.6458 0.0000
vt 0.7962 0.6667 0.0000
vt 0.4433 0.5208 0.0000
vt 0.2081 0.5208 0.0000
vt 0.2081 0.5000 0.0000
vt 0.2081 0.0208 0.0000
vt 0.2081 0.0000 0.0000
vt 0.2081 0.1042 0.0000
vt 0.2081 0.0833 0.0000
vt 0.2081 0.1875 0.0000
vt 0.2081 0.1667 0.0000
vt 0.2081 0.2708 0.0000
vt 0.2081 0.2500 0.0000
vt 0.2081 0.3542 0.0000
vt 0.2081 0.3333 0.0000
vt 0.4433 0.4375 0.0000
vt 0.2081 0.4375 0.0000
vt 0.2081 0.4167 0.0000
vt 0.4433 0.4167 0.0000
vt 0.2081 0.9792 0.0000
vt 0.2081 1.0000 0.0000
vt 0.2081 0.8958 0.0000
vt 0.2081 0.9167 0.0000
vt 0.2081 0.8125 0.0000
vt 0.2081 0.8333 0.0000
vt 0.2081 0.7292 0.0000
vt 0.2081 0.7500 0.0000
vt 0.2081 0.6458 0.0000
vt 0.2081 0.6667 0.0000
vt 0.5609 0.4583 0.0000
vt 0.4433 0.4583 0.0000
vt 0.7962 0.5625 0.0000
vt 0.5609 0.5417 0.0000
vt 0.7962 0.5417 0.0000
vt 0.4433 0.9375 0.0000
vt 0.5609 0.9375 0.0000
vt 0.5609 0.9583 0.0000
vt 0.4433 0.9583 0.0000
vt 0.4433 0.8542 0.0000
vt 0.5609 0.8542 0.0000
vt 0.5609 0.8750 0.0000
vt 0.4433 0.8750 0.0000
vt 0.4433 0.7708 0.0000
vt 0.5609 0.7708 0.0000
vt 0.5609 0.7917 0.0000
vt 0.4433 0.7917 0.0000
vt 0.4433 0.6875 0.0000
vt 0.5609 0.6875 0.0000
vt 0.5609 0.7083 0.0000
vt 0.4433 0.7083 0.0000
vt 0.4433 0.6042 0.0000
vt 0.5609 0.6042 0.0000
vt 0.5609 0.6250 0.0000
vt 0.4433 0.6250 0.0000
vt 0.4433 0.5417 0.0000
vt 0.5609 0.0625 0.0000
vt 0.4433 0.0625 0.0000
vt 0.4433 0.0417 0.0000
vt 0.5609 0.0417 0.0000
vt 0.5609 0.1458 0.0000
vt 0.4433 0.1458 0.0000
vt 0.4433 0.1250 0.0000
vt 0.5609 0.1250 0.0000
vt 0.5609 0.2292 0.0000
vt 0.4433 0.2292 0.0000
vt 0.4433 0.2083 0.0000
vt 0.5609 0.2083 0.0000
vt 0.5609 0.3125 0.0000
vt 0.4433 0.3125 0.0000
vt 0.4433 0.2917 0.0000
vt 0.5609 0.2917 0.0000
vt 0.5609 0.3958 0.0000
vt 0.4433 0.3958 0.0000
vt 0.4433 0.3750 0.0000
vt 0.5609 0.3750 0.0000
vt 0.7962 0.0625 0.0000
vt 0.7962 0.0417 0.0000
vt 0.7962 0.1458 0.0000
vt 0.7962 0.1250 0.0000
vt 0.7962 0.2292 0.0000
vt 0.7962 0.2083 0.0000
vt 0.7962 0.3125 0.0000
vt 0.7962 0.2917 0.0000
vt 0.7962 0.3958 0.0000
vt 0.7962 0.3750 0.0000
vt 0.7962 0.4792 0.0000
vt 0.7962 0.4583 0.0000
vt 0.7962 0.9375 0.0000
vt 0.7962 0.9583 0.0000
vt 0.7962 0.8542 0.0000
vt 0.7962 0.8750 0.0000
vt 0.7962 0.7708 0.0000
vt 0.7962 0.7917 0.0000
vt 0.7962 0.6875 0.0000
vt 0.7962 0.7083 0.0000
vt 0.7962 0.6042 0.0000
vt 0.7962 0.6250 0.0000
vt 0.2081 0.5625 0.0000
vt 0.2081 0.5417 0.0000
vt 0.2081 0.0625 0.0000
vt 0.2081 0.0417 0.0000
vt 0.2081 0.1458 0.0000
vt 0.2081 0.1250 0.0000
vt 0.2081 0.2292 0.0000
vt 0.2081 0.2083 0.0000
vt 0.2081 0.3125 0.0000
vt 0.2081 0.2917 0.0000
vt 0.2081 0.3958 0.0000
vt 0.2081 0.3750 0.0000
vt 0.2081 0.4792 0.0000
vt 0.2081 0.4583 0.0000
vt 0.2081 0.9375 0.0000
vt 0.2081 0.9583 0.0000
vt 0.2081 0.8542 0.0000
vt 0.2081 0.8750 0.0000
vt 0.2081 0.7708 0.0000
vt 0.2081 0.7917 0.0000
vt 0.2081 0.6875 0.0000
vt 0.2081 0.7083 0.0000
vt 0.2081 0.6042 0.0000
vt 0.2081 0.6250 0.0000
vt 0.7962 0.5833 0.0000
vt 0.2081 0.5833 0.0000
# 196 texture coords

g Object002
s 1
f 3/3/2 2/2/1 1/1/1 
f 1/1/1 4/4/2 3/3/2 
f 7/7/2 6/6/3 5/5/3 
f 5/5/3 4/4/2 7/7/2 
f 10/10/2 9/9/1 8/8/1 
f 8/8/1 11/11/2 10/10/2 
f 14/14/2 13/13/1 12/12/1 
f 12/12/1 15/15/2 14/14/2 
f 18/18/2 17/17/1 16/16/1 
f 16/16/1 19/19/2 18/18/2 
f 22/22/2 21/21/1 20/20/1 
f 20/20/1 23/23/2 22/22/2 
f 26/26/2 25/25/1 24/24/1 
f 24/24/1 27/27/2 26/26/2 
f 30/30/2 29/29/1 28/28/1 
f 28/28/1 31/31/2 30/30/2 
f 34/34/1 33/33/2 32/32/2 
f 32/32/2 35/35/1 34/34/1 
f 38/38/1 37/37/2 36/36/2 
f 36/36/2 39/39/1 38/38/1 
f 42/42/1 41/41/2 40/40/2 
f 40/40/2 43/43/1 42/42/1 
f 46/46/1 45/45/2 44/44/2 
f 44/44/2 47/47/1 46/46/1 
f 50/50/1 49/49/2 48/48/2 
f 48/48/2 51/51/1 50/50/1 
f 33/33/2 53/53/3 52/52/3 
f 52/52/3 32/32/2 33/33/2 
f 37/37/2 55/55/3 54/54/3 
f 54/54/3 36/36/2 37/37/2 
f 41/41/2 57/57/3 56/56/3 
f 56/56/3 40/40/2 41/41/2 
f 45/45/2 59/59/3 58/58/3 
f 58/58/3 44/44/2 45/45/2 
f 49/49/2 61/61/3 60/60/3 
f 60/60/3 48/48/2 49/49/2 
f 64/64/2 63/63/3 62/62/3 
f 62/62/3 65/65/2 64/64/2 
f 66/66/3 10/10/2 11/11/2 
f 11/11/2 67/67/3 66/66/3 
f 68/68/3 14/14/2 15/15/2 
f 15/15/2 69/69/3 68/68/3 
f 70/70/3 18/18/2 19/19/2 
f 19/19/2 71/71/3 70/70/3 
f 72/72/3 22/22/2 23/23/2 
f 23/23/2 73/73/3 72/72/3 
f 74/74/3 26/26/2 27/27/2 
f 27/27/2 75/75/3 74/74/3 
f 78/78/4 77/77/4 76/76/1 
f 76/76/1 1/1/1 78/78/4 
f 80/80/4 79/79/4 34/34/1 
f 34/34/1 35/35/1 80/80/4 
f 82/82/4 81/81/4 38/38/1 
f 38/38/1 39/39/1 82/82/4 
f 84/84/4 83/83/4 42/42/1 
f 42/42/1 43/43/1 84/84/4 
f 86/86/4 85/85/4 46/46/1 
f 46/46/1 47/47/1 86/86/4 
f 88/88/4 87/87/4 50/50/1 
f 50/50/1 51/51/1 88/88/4 
f 91/91/4 90/90/4 89/89/1 
f 89/89/1 92/92/1 91/91/4 
f 8/8/1 9/9/1 93/93/4 
f 93/93/4 94/94/4 8/8/1 
f 12/12/1 13/13/1 95/95/4 
f 95/95/4 96/96/4 12/12/1 
f 16/16/1 17/17/1 97/97/4 
f 97/97/4 98/98/4 16/16/1 
f 20/20/1 21/21/1 99/99/4 
f 99/99/4 100/100/4 20/20/1 
f 24/24/1 25/25/1 101/101/4 
f 101/101/4 102/102/4 24/24/1 
f 103/103/2 64/64/2 89/89/1 
f 89/89/1 104/104/1 103/103/2 
f 106/106/2 30/30/2 105/105/3 
f 105/105/3 107/107/3 106/106/2 
f 110/110/2 109/109/2 108/108/1 
f 108/108/1 111/111/1 110/110/2 
f 114/114/2 113/113/2 112/112/1 
f 112/112/1 115/115/1 114/114/2 
f 118/118/2 117/117/2 116/116/1 
f 116/116/1 119/119/1 118/118/2 
f 122/122/2 121/121/2 120/120/1 
f 120/120/1 123/123/1 122/122/2 
f 126/126/2 125/125/2 124/124/1 
f 124/124/1 127/127/1 126/126/2 
f 106/106/2 7/7/2 76/76/1 
f 76/76/1 128/128/1 106/106/2 
f 131/131/1 130/130/1 129/129/2 
f 129/129/2 132/132/2 131/131/1 
f 135/135/1 134/134/1 133/133/2 
f 133/133/2 136/136/2 135/135/1 
f 139/139/1 138/138/1 137/137/2 
f 137/137/2 140/140/2 139/139/1 
f 143/143/1 142/142/1 141/141/2 
f 141/141/2 144/144/2 143/143/1 
f 147/147/1 146/146/1 145/145/2 
f 145/145/2 148/148/2 147/147/1 
f 132/132/2 129/129/2 149/149/3 
f 149/149/3 150/150/3 132/132/2 
f 136/136/2 133/133/2 151/151/3 
f 151/151/3 152/152/3 136/136/2 
f 140/140/2 137/137/2 153/153/3 
f 153/153/3 154/154/3 140/140/2 
f 144/144/2 141/141/2 155/155/3 
f 155/155/3 156/156/3 144/144/2 
f 148/148/2 145/145/2 157/157/3 
f 157/157/3 158/158/3 148/148/2 
f 103/103/2 3/3/2 159/159/3 
f 159/159/3 160/160/3 103/103/2 
f 162/162/3 161/161/3 109/109/2 
f 109/109/2 110/110/2 162/162/3 
f 164/164/3 163/163/3 113/113/2 
f 113/113/2 114/114/2 164/164/3 
f 166/166/3 165/165/3 117/117/2 
f 117/117/2 118/118/2 166/166/3 
f 168/168/3 167/167/3 121/121/2 
f 121/121/2 122/122/2 168/168/3 
f 170/170/3 169/169/3 125/125/2 
f 125/125/2 126/126/2 170/170/3 
f 172/172/4 171/171/4 29/29/1 
f 29/29/1 128/128/1 172/172/4 
f 174/174/4 173/173/4 130/130/1 
f 130/130/1 131/131/1 174/174/4 
f 176/176/4 175/175/4 134/134/1 
f 134/134/1 135/135/1 176/176/4 
f 178/178/4 177/177/4 138/138/1 
f 138/138/1 139/139/1 178/178/4 
f 180/180/4 179/179/4 142/142/1 
f 142/142/1 143/143/1 180/180/4 
f 182/182/4 181/181/4 146/146/1 
f 146/146/1 147/147/1 182/182/4 
f 184/184/4 183/183/4 2/2/1 
f 2/2/1 104/104/1 184/184/4 
f 111/111/1 108/108/1 185/185/4 
f 185/185/4 186/186/4 111/111/1 
f 115/115/1 112/112/1 187/187/4 
f 187/187/4 188/188/4 115/115/1 
f 119/119/1 116/116/1 189/189/4 
f 189/189/4 190/190/4 119/119/1 
f 123/123/1 120/120/1 191/191/4 
f 191/191/4 192/192/4 123/123/1 
f 127/127/1 124/124/1 193/193/4 
f 193/193/4 194/194/4 127/127/1 
f 3/3/2 103/103/2 104/104/1 
f 104/104/1 2/2/1 3/3/2 
f 7/7/2 106/106/2 107/107/3 
f 107/107/3 6/6/3 7/7/2 
f 10/10/2 110/110/2 111/111/1 
f 111/111/1 9/9/1 10/10/2 
f 14/14/2 114/114/2 115/115/1 
f 115/115/1 13/13/1 14/14/2 
f 18/18/2 118/118/2 119/119/1 
f 119/119/1 17/17/1 18/18/2 
f 22/22/2 122/122/2 123/123/1 
f 123/123/1 21/21/1 22/22/2 
f 26/26/2 126/126/2 127/127/1 
f 127/127/1 25/25/1 26/26/2 
f 30/30/2 106/106/2 128/128/1 
f 128/128/1 29/29/1 30/30/2 
f 34/34/1 131/131/1 132/132/2 
f 132/132/2 33/33/2 34/34/1 
f 38/38/1 135/135/1 136/136/2 
f 136/136/2 37/37/2 38/38/1 
f 42/42/1 139/139/1 140/140/2 
f 140/140/2 41/41/2 42/42/1 
f 46/46/1 143/143/1 144/144/2 
f 144/144/2 45/45/2 46/46/1 
f 50/50/1 147/147/1 148/148/2 
f 148/148/2 49/49/2 50/50/1 
f 33/33/2 132/132/2 150/150/3 
f 150/150/3 53/53/3 33/33/2 
f 37/37/2 136/136/2 152/152/3 
f 152/152/3 55/55/3 37/37/2 
f 41/41/2 140/140/2 154/154/3 
f 154/154/3 57/57/3 41/41/2 
f 45/45/2 144/144/2 156/156/3 
f 156/156/3 59/59/3 45/45/2 
f 49/49/2 148/148/2 158/158/3 
f 158/158/3 61/61/3 49/49/2 
f 64/64/2 103/103/2 160/160/3 
f 160/160/3 63/63/3 64/64/2 
f 66/66/3 162/162/3 110/110/2 
f 110/110/2 10/10/2 66/66/3 
f 68/68/3 164/164/3 114/114/2 
f 114/114/2 14/14/2 68/68/3 
f 70/70/3 166/166/3 118/118/2 
f 118/118/2 18/18/2 70/70/3 
f 72/72/3 168/168/3 122/122/2 
f 122/122/2 22/22/2 72/72/3 
f 74/74/3 170/170/3 126/126/2 
f 126/126/2 26/26/2 74/74/3 
f 77/77/4 172/172/4 128/128/1 
f 128/128/1 76/76/1 77/77/4 
f 79/79/4 174/174/4 131/131/1 
f 131/131/1 34/34/1 79/79/4 
f 81/81/4 176/176/4 135/135/1 
f 135/135/1 38/38/1 81/81/4 
f 83/83/4 178/178/4 139/139/1 
f 139/139/1 42/42/1 83/83/4 
f 85/85/4 180/180/4 143/143/1 
f 143/143/1 46/46/1 85/85/4 
f 87/87/4 182/182/4 147/147/1 
f 147/147/1 50/50/1 87/87/4 
f 90/90/4 184/184/4 104/104/1 
f 104/104/1 89/89/1 90/90/4 
f 9/9/1 111/111/1 186/186/4 
f 186/186/4 93/93/4 9/9/1 
f 13/13/1 115/115/1 188/188/4 
f 188/188/4 95/95/4 13/13/1 
f 17/17/1 119/119/1 190/190/4 
f 190/190/4 97/97/4 17/17/1 
f 21/21/1 123/123/1 192/192/4 
f 192/192/4 99/99/4 21/21/1 
f 25/25/1 127/127/1 194/194/4 
f 194/194/4 101/101/4 25/25/1 
f 64/64/2 65/65/2 92/92/1 
f 92/92/1 89/89/1 64/64/2 
f 30/30/2 31/31/2 195/195/3 
f 195/195/3 105/105/3 30/30/2 
f 109/109/2 15/15/2 12/12/1 
f 12/12/1 108/108/1 109/109/2 
f 113/113/2 19/19/2 16/16/1 
f 16/16/1 112/112/1 113/113/2 
f 117/117/2 23/23/2 20/20/1 
f 20/20/1 116/116/1 117/117/2 
f 121/121/2 27/27/2 24/24/1 
f 24/24/1 120/120/1 121/121/2 
f 125/125/2 31/31/2 28/28/1 
f 28/28/1 124/124/1 125/125/2 
f 7/7/2 4/4/2 1/1/1 
f 1/1/1 76/76/1 7/7/2 
f 130/130/1 39/39/1 36/36/2 
f 36/36/2 129/129/2 130/130/1 
f 134/134/1 43/43/1 40/40/2 
f 40/40/2 133/133/2 134/134/1 
f 138/138/1 47/47/1 44/44/2 
f 44/44/2 137/137/2 138/138/1 
f 142/142/1 51/51/1 48/48/2 
f 48/48/2 141/141/2 142/142/1 
f 146/146/1 92/92/1 65/65/2 
f 65/65/2 145/145/2 146/146/1 
f 129/129/2 36/36/2 54/54/3 
f 54/54/3 149/149/3 129/129/2 
f 133/133/2 40/40/2 56/56/3 
f 56/56/3 151/151/3 133/133/2 
f 137/137/2 44/44/2 58/58/3 
f 58/58/3 153/153/3 137/137/2 
f 141/141/2 48/48/2 60/60/3 
f 60/60/3 155/155/3 141/141/2 
f 145/145/2 65/65/2 62/62/3 
f 62/62/3 157/157/3 145/145/2 
f 3/3/2 4/4/2 5/5/3 
f 5/5/3 159/159/3 3/3/2 
f 161/161/3 69/69/3 15/15/2 
f 15/15/2 109/109/2 161/161/3 
f 163/163/3 71/71/3 19/19/2 
f 19/19/2 113/113/2 163/163/3 
f 165/165/3 73/73/3 23/23/2 
f 23/23/2 117/117/2 165/165/3 
f 167/167/3 75/75/3 27/27/2 
f 27/27/2 121/121/2 167/167/3 
f 169/169/3 195/195/3 31/31/2 
f 31/31/2 125/125/2 169/169/3 
f 171/171/4 196/196/4 28/28/1 
f 28/28/1 29/29/1 171/171/4 
f 173/173/4 82/82/4 39/39/1 
f 39/39/1 130/130/1 173/173/4 
f 175/175/4 84/84/4 43/43/1 
f 43/43/1 134/134/1 175/175/4 
f 177/177/4 86/86/4 47/47/1 
f 47/47/1 138/138/1 177/177/4 
f 179/179/4 88/88/4 51/51/1 
f 51/51/1 142/142/1 179/179/4 
f 181/181/4 91/91/4 92/92/1 
f 92/92/1 146/146/1 181/181/4 
f 183/183/4 78/78/4 1/1/1 
f 1/1/1 2/2/1 183/183/4 
f 108/108/1 12/12/1 96/96/4 
f 96/96/4 185/185/4 108/108/1 
f 112/112/1 16/16/1 98/98/4 
f 98/98/4 187/187/4 112/112/1 
f 116/116/1 20/20/1 100/100/4 
f 100/100/4 189/189/4 116/116/1 
f 120/120/1 24/24/1 102/102/4 
f 102/102/4 191/191/4 120/120/1 
f 124/124/1 28/28/1 196/196/4 
f 196/196/4 193/193/4 124/124/1 
# 0 polygons - 288 triangles

