# 3ds Max Wavefront OBJ Exporter v0.97b - (c)2007 guruware
# File Created: 11.04.2017 00:35:14

#
# object Node2
#

v  -20.0000 0.0000 -0.0000
v  -17.0000 0.0000 -0.0000
v  -17.0000 0.0000 -5.3333
v  -20.0000 0.0000 -5.3333
v  17.0000 0.0000 -0.0000
v  20.0000 0.0000 -0.0000
v  20.0000 0.0000 -5.3333
v  17.0000 0.0000 -5.3333
v  -17.0000 -0.3000 -0.0000
v  -17.0000 -0.3000 -5.3333
v  -23.0000 -3.1650 -0.0000
v  -23.0000 -3.1650 5.3333
v  -20.0000 0.0000 5.3333
v  23.0000 -3.1650 -0.0000
v  20.0000 0.0000 5.3333
v  23.0000 -3.1650 5.3333
v  17.0000 -0.3000 -0.0000
v  17.0000 -0.3000 5.3333
v  17.0000 0.0000 5.3333
v  0.0001 -0.3000 -0.0000
v  -17.0000 -0.3000 5.3333
v  0.0001 -0.3000 5.3333
v  17.0000 -0.3000 -5.3333
v  0.0001 -0.3000 -5.3333
v  -20.0000 0.0000 32.0000
v  -17.0000 0.0000 32.0000
v  -17.0000 0.0000 26.6667
v  -20.0000 0.0000 26.6667
v  -17.0000 0.0000 21.3333
v  -20.0000 0.0000 21.3333
v  -17.0000 0.0000 16.0000
v  -20.0000 0.0000 16.0000
v  -17.0000 0.0000 10.6667
v  -20.0000 0.0000 10.6667
v  -17.0000 0.0000 5.3333
v  -17.0000 0.0000 -32.0000
v  -20.0000 0.0000 -32.0000
v  -20.0000 0.0000 -26.6667
v  -17.0000 0.0000 -26.6667
v  -20.0000 0.0000 -21.3333
v  -17.0000 0.0000 -21.3333
v  -20.0000 0.0000 -16.0000
v  -17.0000 0.0000 -16.0000
v  -20.0000 0.0000 -10.6667
v  -17.0000 0.0000 -10.6667
v  17.0000 0.0000 32.0000
v  20.0000 0.0000 32.0000
v  20.0000 0.0000 26.6667
v  17.0000 0.0000 26.6667
v  20.0000 0.0000 21.3333
v  17.0000 0.0000 21.3333
v  20.0000 0.0000 16.0000
v  17.0000 0.0000 16.0000
v  20.0000 0.0000 10.6667
v  17.0000 0.0000 10.6667
v  20.0000 0.0000 -32.0000
v  17.0000 0.0000 -32.0000
v  17.0000 0.0000 -26.6667
v  20.0000 0.0000 -26.6667
v  17.0000 0.0000 -21.3333
v  20.0000 0.0000 -21.3333
v  17.0000 0.0000 -16.0000
v  20.0000 0.0000 -16.0000
v  17.0000 0.0000 -10.6667
v  20.0000 0.0000 -10.6667
v  -17.0000 -0.3000 32.0000
v  -17.0000 -0.3000 26.6667
v  -17.0000 -0.3000 21.3333
v  -17.0000 -0.3000 16.0000
v  -17.0000 -0.3000 10.6667
v  -17.0000 -0.1000 -32.0000
v  -17.0000 -0.1000 -26.6667
v  -17.0000 -0.3000 -21.3333
v  -17.0000 -0.3000 -16.0000
v  -17.0000 -0.3000 -10.6667
v  -23.0000 -3.1650 -32.0000
v  -23.0000 -3.1650 -26.6667
v  -23.0000 -3.1650 -21.3333
v  -23.0000 -3.1650 -16.0000
v  -23.0000 -3.1650 -10.6667
v  -23.0000 -3.1650 -5.3333
v  -23.0000 -3.1650 32.0000
v  -23.0000 -3.1650 26.6667
v  -23.0000 -3.1650 21.3333
v  -23.0000 -3.1650 16.0000
v  -23.0000 -3.1650 10.6667
v  23.0000 -3.1650 -32.0000
v  23.0000 -3.1650 -26.6667
v  23.0000 -3.1650 -21.3333
v  23.0000 -3.1650 -16.0000
v  23.0000 -3.1650 -10.6667
v  23.0000 -3.1650 -5.3333
v  23.0000 -3.1650 32.0000
v  23.0000 -3.1650 26.6667
v  23.0000 -3.1650 21.3333
v  23.0000 -3.1650 16.0000
v  23.0000 -3.1650 10.6667
v  17.0000 -0.1000 -32.0000
v  17.0000 -0.1000 -26.6667
v  17.0000 -0.3000 -21.3333
v  17.0000 -0.3000 -16.0000
v  17.0000 -0.3000 -10.6667
v  17.0000 -0.3000 32.0000
v  17.0000 -0.3000 26.6667
v  17.0000 -0.3000 21.3333
v  17.0000 -0.3000 16.0000
v  17.0000 -0.3000 10.6667
v  -2.9826 0.0000 -32.0000
v  -5.9819 0.0000 -32.0000
v  -4.7978 0.0000 -29.8847
v  -4.3442 0.0000 -29.5804
v  -4.4862 0.0000 -29.3280
v  -13.9844 -0.3000 -26.6667
v  -13.9820 -0.3000 -21.3333
v  0.0001 -0.3000 -21.3333
v  0.0001 -0.3000 -26.6667
v  0.0001 -0.3000 -16.0000
v  0.0001 -0.3000 -10.6667
v  0.0001 -0.3000 32.0000
v  0.0001 -0.3000 26.6667
v  0.0001 -0.3000 21.3333
v  0.0001 -0.3000 16.0000
v  0.0001 -0.3000 10.6667
v  14.0067 -0.3000 -21.3333
v  15.0118 -0.3000 -21.3333
v  -5.4042 0.0000 -29.6050
v  -5.0164 0.0000 -29.3913
v  -5.0097 0.0000 -29.3905
v  -5.7524 0.0000 -30.0323
v  -4.5646 0.0000 -29.3374
v  -5.9265 0.0000 -30.6417
v  -4.0443 0.0000 -29.3793
v  -3.9402 0.0000 -29.3913
v  -3.5286 0.0000 -29.6050
v  -3.4422 0.0000 -29.7210
v  -3.2279 0.0000 -30.0086
v  -3.0538 0.0000 -30.5626
v  -2.9826 0.0000 -31.2748
v  14.0011 -0.1500 -26.6667
v  15.0073 -0.1500 -26.6667
v  15.0029 0.0000 -32.0000
v  13.9955 0.0000 -32.0000
v  6.0112 -0.3000 -32.0000
v  3.0119 -0.3000 -32.0000
v  -5.9819 -0.3000 -32.0000
v  -5.9265 -0.3000 -30.6417
v  -5.7524 -0.3000 -30.0323
v  -5.4042 -0.3000 -29.6050
v  -5.0164 -0.3000 -29.3913
v  -5.0097 -0.3000 -29.3905
v  -4.5646 -0.3000 -29.3374
v  -4.4862 -0.3000 -29.3280
v  -4.0443 -0.3000 -29.3793
v  -3.9402 -0.3000 -29.3913
v  -3.5286 -0.3000 -29.6050
v  -3.4422 -0.3000 -29.7210
v  -3.2279 -0.3000 -30.0086
v  -3.0538 -0.3000 -30.5626
v  -2.9826 -0.3000 -31.2748
v  -2.9826 -0.3000 -32.0000
v  0.0001 -0.3000 -32.0000
v  -13.9867 -0.3000 -32.0000
v  -14.9886 -0.1500 -26.6667
v  -14.9975 -0.3000 -21.3333
v  -13.9844 -0.1500 -26.6667
v  -14.9797 0.0000 -32.0000
v  -13.9867 0.0000 -32.0000
v  -14.9886 -0.1000 -26.6667
v  -14.9797 -0.1000 -32.0000
v  14.0011 -0.3000 -26.6667
v  13.9955 -0.3000 -32.0000
v  15.0073 -0.1000 -26.6667
v  15.0029 -0.1000 -32.0000
# 173 vertices

vn 0.0000 1.0000 -0.0000
vn 1.0000 0.0000 -0.0000
vn -0.7258 0.6879 -0.0000
vn 0.7258 0.6879 -0.0000
vn -1.0000 0.0000 -0.0000
vn -0.0000 1.0000 0.0000
vn -0.0000 1.0000 -0.0000
vn 0.0000 0.9996 0.0281
vn -0.9992 0.0000 0.0407
vn -0.9615 0.0000 0.2747
vn -0.7752 0.0000 0.6317
vn -0.4826 0.0000 0.8758
vn -0.1188 0.0000 0.9929
vn -0.1186 0.0000 0.9929
vn 0.1152 0.0000 0.9933
vn 0.4608 0.0000 0.8875
vn 0.8019 0.0000 0.5975
vn 0.9540 0.0000 0.2998
vn 0.9950 0.0000 0.0995
vn 1.0000 0.0000 0.0000
vn 0.0000 0.0000 -1.0000
vn 0.0000 0.9993 0.0375
vn -1.0000 0.0000 -0.0017
vn 1.0000 0.0000 0.0017
vn 1.0000 0.0000 -0.0004
vn 0.0000 1.0000 0.0000
vn -0.0000 0.9993 0.0375
vn -1.0000 0.0000 0.0011
vn -1.0000 0.0000 0.0008
vn 1.0000 0.0000 -0.0008
# 30 vertex normals

vt 1.0000 0.5000 0.0000
vt 0.8770 0.5000 0.0000
vt 0.8770 0.4167 0.0000
vt 1.0000 0.4167 0.0000
vt 0.1245 0.5000 0.0000
vt -0.0000 0.5000 0.0000
vt -0.0000 0.4167 0.0000
vt 0.1245 0.4167 0.0000
vt 0.0000 1.0000 0.0000
vt 0.0000 0.0000 0.0000
vt 0.0000 -0.0000 0.0000
vt 0.9702 -0.0000 0.0000
vt 0.9702 1.0000 0.0000
vt 0.9652 1.0000 0.0000
vt 0.9652 -0.0000 0.0000
vt 0.9702 0.0000 0.0000
vt 0.9652 0.0000 0.0000
vt 1.0000 1.0000 0.0000
vt 1.0000 0.0000 0.0000
vt 0.5000 0.5080 0.0000
vt 0.8760 0.5080 0.0000
vt 0.8760 0.5900 0.0000
vt 0.5000 0.5900 0.0000
vt 0.1244 0.5080 0.0000
vt 0.1244 0.4260 0.0000
vt 0.5000 0.4260 0.0000
vt 0.8770 1.0000 0.0000
vt 0.8770 0.9167 0.0000
vt 1.0000 0.9167 0.0000
vt 0.8770 0.8333 0.0000
vt 1.0000 0.8333 0.0000
vt 0.8770 0.7500 0.0000
vt 1.0000 0.7500 0.0000
vt 0.8770 0.6667 0.0000
vt 1.0000 0.6667 0.0000
vt 0.8770 0.5833 0.0000
vt 1.0000 0.5833 0.0000
vt 0.8770 -0.0000 0.0000
vt 1.0000 -0.0000 0.0000
vt 1.0000 0.0833 0.0000
vt 0.8770 0.0833 0.0000
vt 1.0000 0.1667 0.0000
vt 0.8770 0.1667 0.0000
vt 1.0000 0.2500 0.0000
vt 0.8770 0.2500 0.0000
vt 1.0000 0.3333 0.0000
vt 0.8770 0.3333 0.0000
vt 0.1245 1.0000 0.0000
vt -0.0000 1.0000 0.0000
vt -0.0000 0.9167 0.0000
vt 0.1245 0.9167 0.0000
vt -0.0000 0.8333 0.0000
vt 0.1245 0.8333 0.0000
vt -0.0000 0.7500 0.0000
vt 0.1245 0.7500 0.0000
vt -0.0000 0.6667 0.0000
vt 0.1245 0.6667 0.0000
vt -0.0000 0.5833 0.0000
vt 0.1245 0.5833 0.0000
vt 0.1245 -0.0000 0.0000
vt 0.1245 0.0833 0.0000
vt 0.0000 0.0833 0.0000
vt 0.1245 0.1667 0.0000
vt 0.0000 0.1667 0.0000
vt 0.1245 0.2500 0.0000
vt 0.0000 0.2500 0.0000
vt 0.1245 0.3333 0.0000
vt 0.0000 0.3333 0.0000
vt -0.0000 -0.0000 0.0000
vt 0.9950 1.0000 0.0000
vt 0.9950 -0.0000 0.0000
vt 0.9901 1.0000 0.0000
vt 0.9901 -0.0000 0.0000
vt 0.9851 1.0000 0.0000
vt 0.9851 -0.0000 0.0000
vt 0.9801 1.0000 0.0000
vt 0.9801 -0.0000 0.0000
vt 0.9751 1.0000 0.0000
vt 0.9751 -0.0000 0.0000
vt 0.9403 1.0000 0.0000
vt 0.9403 -0.0000 0.0000
vt 0.9453 -0.0000 0.0000
vt 0.9453 1.0000 0.0000
vt 0.9503 -0.0000 0.0000
vt 0.9503 1.0000 0.0000
vt 0.9553 -0.0000 0.0000
vt 0.9553 1.0000 0.0000
vt 0.9602 -0.0000 0.0000
vt 0.9602 1.0000 0.0000
vt 0.9950 0.0000 0.0000
vt 0.9901 0.0000 0.0000
vt 0.9851 0.0000 0.0000
vt 0.9801 0.0000 0.0000
vt 0.9751 0.0000 0.0000
vt 0.9403 0.0000 0.0000
vt 0.9453 0.0000 0.0000
vt 0.9503 0.0000 0.0000
vt 0.9553 0.0000 0.0000
vt 0.9602 0.0000 0.0000
vt 0.5660 0.0160 0.0000
vt 0.6323 0.0160 0.0000
vt 0.6061 0.0485 0.0000
vt 0.5961 0.0532 0.0000
vt 0.5992 0.0571 0.0000
vt 0.8093 0.0980 0.0000
vt 0.8092 0.1800 0.0000
vt 0.5000 0.1800 0.0000
vt 0.5000 0.0980 0.0000
vt 0.8760 0.2620 0.0000
vt 0.5000 0.2620 0.0000
vt 0.8760 0.3440 0.0000
vt 0.5000 0.3440 0.0000
vt 0.8760 0.4260 0.0000
vt 0.8760 1.0000 0.0000
vt 0.5000 1.0000 0.0000
vt 0.5000 0.9180 0.0000
vt 0.8760 0.9180 0.0000
vt 0.5000 0.8360 0.0000
vt 0.8760 0.8360 0.0000
vt 0.5000 0.7540 0.0000
vt 0.8760 0.7540 0.0000
vt 0.5000 0.6720 0.0000
vt 0.8760 0.6720 0.0000
vt 0.1244 1.0000 0.0000
vt 0.1244 0.9180 0.0000
vt 0.1244 0.8360 0.0000
vt 0.1244 0.7540 0.0000
vt 0.1244 0.6720 0.0000
vt 0.1244 0.5900 0.0000
vt 0.1905 0.1800 0.0000
vt 0.1683 0.1800 0.0000
vt 0.1244 0.1800 0.0000
vt 0.1244 0.2620 0.0000
vt 0.1244 0.3440 0.0000
vt 0.6195 0.0528 0.0000
vt 0.6110 0.0561 0.0000
vt 0.6108 0.0561 0.0000
vt 0.6272 0.0463 0.0000
vt 0.6010 0.0569 0.0000
vt 0.6311 0.0369 0.0000
vt 0.5895 0.0563 0.0000
vt 0.5871 0.0561 0.0000
vt 0.5780 0.0528 0.0000
vt 0.5761 0.0510 0.0000
vt 0.5714 0.0466 0.0000
vt 0.5675 0.0381 0.0000
vt 0.5660 0.0272 0.0000
vt 0.1907 0.0980 0.0000
vt 0.1684 0.0980 0.0000
vt 0.1685 0.0160 0.0000
vt 0.1908 0.0160 0.0000
vt 0.3672 0.0160 0.0000
vt 0.4335 0.0160 0.0000
vt 0.5000 0.0160 0.0000
vt 0.8094 0.0160 0.0000
vt 0.8315 0.0980 0.0000
vt 0.8317 0.1800 0.0000
vt 0.8313 0.0160 0.0000
vt 0.8760 0.0160 0.0000
vt 0.8760 0.0980 0.0000
vt 0.8760 0.1800 0.0000
vt 0.1244 0.0980 0.0000
vt 0.1244 0.0160 0.0000
# 163 texture coords

g Node2
f 1/1/1 2/2/1 3/3/1 
f 3/3/1 4/4/1 1/1/1 
f 5/5/1 6/6/1 7/7/1 
f 7/7/1 8/8/1 5/5/1 
f 2/9/2 9/10/2 10/11/2 
f 10/11/2 3/9/2 2/9/2 
f 1/12/3 11/13/3 12/14/3 
f 12/14/3 13/15/3 1/12/3 
f 14/13/4 6/16/4 15/17/4 
f 15/17/4 16/14/4 14/13/4 
f 5/18/5 17/19/5 18/19/5 
f 18/19/5 19/18/5 5/18/5 
f 20/20/1 9/21/1 21/22/1 
f 21/22/1 22/23/1 20/20/1 
f 20/20/1 17/24/1 23/25/1 
f 23/25/1 24/26/1 20/20/1 
f 25/18/1 26/27/1 27/28/1 
f 27/28/1 28/29/1 25/18/1 
f 28/29/1 27/28/1 29/30/1 
f 29/30/1 30/31/1 28/29/1 
f 30/31/1 29/30/1 31/32/1 
f 31/32/1 32/33/1 30/31/1 
f 32/33/1 31/32/1 33/34/1 
f 33/34/1 34/35/1 32/33/1 
f 34/35/1 33/34/1 35/36/1 
f 35/36/1 13/37/1 34/35/1 
f 13/37/1 35/36/1 2/2/1 
f 2/2/1 1/1/1 13/37/1 
f 36/38/1 37/39/1 38/40/1 
f 38/40/1 39/41/1 36/38/1 
f 39/41/1 38/40/1 40/42/1 
f 40/42/1 41/43/1 39/41/1 
f 41/43/1 40/42/1 42/44/1 
f 42/44/1 43/45/1 41/43/1 
f 43/45/1 42/44/1 44/46/1 
f 44/46/1 45/47/1 43/45/1 
f 45/47/1 44/46/1 4/4/1 
f 4/4/1 3/3/1 45/47/1 
f 46/48/1 47/49/1 48/50/1 
f 48/50/1 49/51/1 46/48/1 
f 49/51/1 48/50/1 50/52/1 
f 50/52/1 51/53/1 49/51/1 
f 51/53/1 50/52/1 52/54/1 
f 52/54/1 53/55/1 51/53/1 
f 53/55/1 52/54/1 54/56/1 
f 54/56/1 55/57/1 53/55/1 
f 55/57/1 54/56/1 15/58/1 
f 15/58/1 19/59/1 55/57/1 
f 19/59/1 15/58/1 6/6/1 
f 6/6/1 5/5/1 19/59/1 
f 56/11/1 57/60/1 58/61/1 
f 58/61/1 59/62/1 56/11/1 
f 59/62/1 58/61/1 60/63/1 
f 60/63/1 61/64/1 59/62/1 
f 61/64/1 60/63/1 62/65/1 
f 62/65/1 63/66/1 61/64/1 
f 63/66/1 62/65/1 64/67/1 
f 64/67/1 65/68/1 63/66/1 
f 65/68/1 64/67/1 8/8/1 
f 8/8/1 7/7/1 65/68/1 
f 26/9/2 66/10/2 67/10/2 
f 67/10/2 27/9/2 26/9/2 
f 27/9/2 67/10/2 68/10/2 
f 68/10/2 29/9/2 27/9/2 
f 29/9/2 68/10/2 69/10/2 
f 69/10/2 31/9/2 29/9/2 
f 31/9/2 69/10/2 70/10/2 
f 70/10/2 33/9/2 31/9/2 
f 33/9/2 70/10/2 21/10/2 
f 21/10/2 35/9/2 33/9/2 
f 35/9/2 21/10/2 9/10/2 
f 9/10/2 2/9/2 35/9/2 
f 71/69/2 36/49/2 39/49/2 
f 39/49/2 72/69/2 71/69/2 
f 72/69/2 39/49/2 41/49/2 
f 41/49/2 73/69/2 72/69/2 
f 73/69/2 41/49/2 43/49/2 
f 43/49/2 74/69/2 73/69/2 
f 74/69/2 43/49/2 45/9/2 
f 45/9/2 75/11/2 74/69/2 
f 75/11/2 45/9/2 3/9/2 
f 3/9/2 10/11/2 75/11/2 
f 37/39/3 76/18/3 77/70/3 
f 77/70/3 38/71/3 37/39/3 
f 38/71/3 77/70/3 78/72/3 
f 78/72/3 40/73/3 38/71/3 
f 40/73/3 78/72/3 79/74/3 
f 79/74/3 42/75/3 40/73/3 
f 42/75/3 79/74/3 80/76/3 
f 80/76/3 44/77/3 42/75/3 
f 44/77/3 80/76/3 81/78/3 
f 81/78/3 4/79/3 44/77/3 
f 4/79/3 81/78/3 11/13/3 
f 11/13/3 1/12/3 4/79/3 
f 82/80/3 25/81/3 28/82/3 
f 28/82/3 83/83/3 82/80/3 
f 83/83/3 28/82/3 30/84/3 
f 30/84/3 84/85/3 83/83/3 
f 84/85/3 30/84/3 32/86/3 
f 32/86/3 85/87/3 84/85/3 
f 85/87/3 32/86/3 34/88/3 
f 34/88/3 86/89/3 85/87/3 
f 86/89/3 34/88/3 13/15/3 
f 13/15/3 12/14/3 86/89/3 
f 87/18/4 56/19/4 59/90/4 
f 59/90/4 88/70/4 87/18/4 
f 88/70/4 59/90/4 61/91/4 
f 61/91/4 89/72/4 88/70/4 
f 89/72/4 61/91/4 63/92/4 
f 63/92/4 90/74/4 89/72/4 
f 90/74/4 63/92/4 65/93/4 
f 65/93/4 91/76/4 90/74/4 
f 91/76/4 65/93/4 7/94/4 
f 7/94/4 92/78/4 91/76/4 
f 92/78/4 7/94/4 6/16/4 
f 6/16/4 14/13/4 92/78/4 
f 47/95/4 93/80/4 94/83/4 
f 94/83/4 48/96/4 47/95/4 
f 48/96/4 94/83/4 95/85/4 
f 95/85/4 50/97/4 48/96/4 
f 50/97/4 95/85/4 96/87/4 
f 96/87/4 52/98/4 50/97/4 
f 52/98/4 96/87/4 97/89/4 
f 97/89/4 54/99/4 52/98/4 
f 54/99/4 97/89/4 16/14/4 
f 16/14/4 15/17/4 54/99/4 
f 57/18/5 98/39/5 99/39/5 
f 99/39/5 58/18/5 57/18/5 
f 58/18/5 99/39/5 100/39/5 
f 100/39/5 60/18/5 58/18/5 
f 60/18/5 100/39/5 101/39/5 
f 101/39/5 62/18/5 60/18/5 
f 62/18/5 101/39/5 102/39/5 
f 102/39/5 64/18/5 62/18/5 
f 64/18/5 102/39/5 23/39/5 
f 23/39/5 8/18/5 64/18/5 
f 8/18/5 23/39/5 17/19/5 
f 17/19/5 5/18/5 8/18/5 
f 103/19/5 46/18/5 49/18/5 
f 49/18/5 104/19/5 103/19/5 
f 104/19/5 49/18/5 51/18/5 
f 51/18/5 105/19/5 104/19/5 
f 105/19/5 51/18/5 53/18/5 
f 53/18/5 106/19/5 105/19/5 
f 106/19/5 53/18/5 55/18/5 
f 55/18/5 107/19/5 106/19/5 
f 107/19/5 55/18/5 19/18/5 
f 19/18/5 18/19/5 107/19/5 
f 108/100/1 109/101/1 110/102/1 111/103/1 
f 110/102/1 112/104/1 111/103/1 
f 113/105/6 114/106/6 115/107/6 116/108/6 
f 74/109/1 117/110/1 115/107/1 
f 117/110/1 74/109/1 75/111/1 
f 75/111/1 118/112/1 117/110/1 
f 118/112/1 75/111/1 10/113/1 
f 10/113/1 24/26/1 118/112/1 
f 24/26/1 10/113/1 9/21/1 
f 9/21/1 20/20/1 24/26/1 
f 66/114/1 119/115/1 120/116/1 
f 120/116/1 67/117/1 66/114/1 
f 67/117/1 120/116/1 121/118/1 
f 121/118/1 68/119/1 67/117/1 
f 68/119/1 121/118/1 122/120/1 
f 122/120/1 69/121/1 68/119/1 
f 69/121/1 122/120/1 123/122/1 
f 123/122/1 70/123/1 69/121/1 
f 70/123/1 123/122/1 22/23/1 
f 22/23/1 21/22/1 70/123/1 
f 119/115/1 103/124/1 104/125/1 
f 104/125/1 120/116/1 119/115/1 
f 120/116/1 104/125/1 105/126/1 
f 105/126/1 121/118/1 120/116/1 
f 121/118/1 105/126/1 106/127/1 
f 106/127/1 122/120/1 121/118/1 
f 122/120/1 106/127/1 107/128/1 
f 107/128/1 123/122/1 122/120/1 
f 123/122/1 107/128/1 18/129/1 
f 18/129/1 22/23/1 123/122/1 
f 22/23/1 18/129/1 17/24/1 
f 17/24/1 20/20/1 22/23/1 
f 124/130/1 115/107/1 117/110/1 125/131/1 
f 100/132/7 125/131/7 117/110/7 
f 117/110/1 101/133/1 100/132/1 
f 101/133/1 117/110/1 118/112/1 
f 118/112/1 102/134/1 101/133/1 
f 102/134/1 118/112/1 24/26/1 
f 24/26/1 23/25/1 102/134/1 
f 126/135/1 127/136/1 128/137/1 129/138/1 
f 129/138/1 128/137/1 130/139/1 112/104/1 
f 131/140/1 129/138/1 112/104/1 110/102/1 
f 109/101/1 131/140/1 110/102/1 
f 111/103/1 112/104/1 132/141/1 108/100/1 
f 133/142/1 134/143/1 135/144/1 132/141/1 
f 135/144/1 136/145/1 137/146/1 132/141/1 
f 137/146/1 138/147/1 108/100/1 132/141/1 
f 139/148/8 124/130/8 125/131/8 140/149/8 
f 140/149/8 141/150/8 142/151/8 139/148/8 
f 143/152/1 144/153/1 143/152/1 
f 145/101/9 146/140/9 131/140/9 109/101/9 
f 146/140/10 147/138/10 129/138/10 131/140/10 
f 147/138/11 148/135/11 126/135/11 129/138/11 
f 148/135/12 149/136/12 127/136/12 126/135/12 
f 149/136/13 150/137/13 128/137/13 127/136/13 
f 150/137/14 151/139/14 130/139/14 128/137/14 
f 151/139/14 152/104/14 112/104/14 130/139/14 
f 152/104/15 153/141/15 132/141/15 112/104/15 
f 153/141/15 154/142/15 133/142/15 132/141/15 
f 154/142/16 155/143/16 134/143/16 133/142/16 
f 155/143/17 156/144/17 135/144/17 134/143/17 
f 156/144/17 157/145/17 136/145/17 135/144/17 
f 157/145/18 158/146/18 137/146/18 136/145/18 
f 158/146/19 159/147/19 138/147/19 137/146/19 
f 159/147/20 160/100/20 108/100/20 138/147/20 
f 160/100/21 145/101/21 109/101/21 108/100/21 
f 116/108/1 161/154/1 160/100/1 159/147/1 
f 116/108/1 159/147/1 158/146/1 157/145/1 
f 116/108/1 157/145/1 156/144/1 155/143/1 
f 116/108/1 155/143/1 154/142/1 113/105/1 
f 113/105/1 154/142/1 153/141/1 152/104/1 
f 113/105/1 152/104/1 151/139/1 150/137/1 
f 113/105/1 150/137/1 149/136/1 148/135/1 
f 113/105/1 148/135/1 147/138/1 146/140/1 
f 113/105/1 146/140/1 145/101/1 162/155/1 
f 163/156/8 164/157/8 114/106/8 165/105/8 
f 166/158/8 163/156/8 165/105/8 167/155/8 
f 71/159/6 72/160/6 168/156/6 169/158/6 
f 72/160/22 73/161/22 164/157/22 168/156/22 
f 164/157/1 73/161/1 74/109/1 115/107/1 
f 164/157/21 115/107/21 114/106/21 
f 162/155/21 169/158/21 166/158/21 167/155/21 
f 169/158/23 168/156/23 163/156/23 166/158/23 
f 168/156/24 164/157/24 163/156/24 
f 114/106/25 113/105/25 165/105/25 
f 113/105/25 162/155/25 167/155/25 165/105/25 
f 144/153/1 161/154/1 116/108/1 143/152/1 
f 116/108/7 170/148/7 171/151/7 143/152/7 
f 171/151/1 143/152/1 143/152/1 
f 116/108/26 115/107/26 124/130/26 170/148/26 
f 100/132/27 99/162/27 172/149/27 125/131/27 
f 99/162/1 98/163/1 173/150/1 172/149/1 
f 171/151/28 170/148/28 139/148/28 142/151/28 
f 170/148/28 124/130/28 139/148/28 
f 125/131/29 172/149/29 140/149/29 
f 172/149/30 173/150/30 141/150/30 140/149/30 
f 173/150/21 171/151/21 142/151/21 141/150/21 
# 53 polygons - 192 triangles

