# 3ds Max Wavefront OBJ Exporter v0.97b - (c)2007 guruware
# File Created: 08.02.2018 00:54:04

#
# object MedCon_OnePlusThreeS_Start002
#

v  -0.3482 -0.2950 -31.9995
v  0.1680 -0.2950 -31.9995
v  0.3186 -0.2950 -15.9995
v  -0.4829 -0.2950 -15.9995
v  0.6462 -0.2950 0.0005
v  -0.7660 -0.2950 0.0004
v  -1.0490 -0.2950 16.0004
v  0.9722 -0.2950 16.0005
v  -1.1800 -0.2950 32.0004
v  1.1800 -0.2950 32.0004
v  -3.6459 -0.2950 -15.1770
v  -3.8258 -0.2950 -15.1772
v  -3.1918 -0.2950 -31.9996
v  -3.0118 -0.2950 -31.9996
v  -4.9635 -0.2950 0.6057
v  -5.1425 -0.2950 0.6051
v  -6.4196 -0.2950 16.0333
v  -6.2404 -0.2950 16.0339
v  -7.0140 -0.2950 32.0002
v  -6.8340 -0.2950 32.0002
v  -6.8683 -0.2950 -15.1772
v  -7.0482 -0.2950 -15.1774
v  -6.4280 -0.2950 -31.9993
v  -6.2480 -0.2950 -31.9993
v  -8.1365 -0.2950 0.6056
v  -8.3155 -0.2950 0.6050
v  -9.5394 -0.2950 16.0337
v  -9.3601 -0.2950 16.0341
v  -10.1100 -0.2950 32.0005
v  -9.9300 -0.2950 32.0005
v  2.9659 -0.2950 -32.0001
v  3.1459 -0.2950 -32.0001
v  3.7799 -0.2950 -15.1777
v  3.6000 -0.2950 -15.1775
v  5.0966 -0.2950 0.6045
v  4.9176 -0.2950 0.6052
v  6.3738 -0.2950 16.0328
v  6.1945 -0.2950 16.0334
v  6.9682 -0.2950 31.9997
v  6.7882 -0.2950 31.9997
v  6.3821 -0.2950 -31.9999
v  7.0024 -0.2950 -15.1780
v  6.8225 -0.2950 -15.1778
v  6.2021 -0.2950 -31.9999
v  8.2696 -0.2950 0.6044
v  8.0906 -0.2950 0.6051
v  9.4935 -0.2950 16.0331
v  9.3143 -0.2950 16.0336
v  10.0641 -0.2950 32.0000
v  9.8841 -0.2950 32.0000
# 50 vertices

vn -0.0000 1.0000 -0.0000
# 1 vertex normals

vt 0.8177 0.9977 0.0000
vt 0.7983 0.9979 0.0000
vt 0.7752 0.7489 0.0000
vt 0.8429 0.7489 0.0000
vt 0.7520 0.5000 0.0000
vt 0.8666 0.5000 0.0000
vt 0.8903 0.2511 0.0000
vt 0.7289 0.2511 0.0000
vt 0.9140 0.0023 0.0000
vt 0.7058 0.0021 0.0000
vt 0.1635 0.2500 0.0000
vt 0.1590 0.2500 0.0000
vt 0.1590 0.0000 0.0000
vt 0.1635 0.0000 0.0000
vt 0.1635 0.5000 0.0000
vt 0.1590 0.5000 0.0000
vt 0.1590 0.7500 0.0000
vt 0.1635 0.7500 0.0000
vt 0.1590 1.0000 0.0000
vt 0.1635 1.0000 0.0000
# 20 texture coords

g MedCon_OnePlusThreeS_Start002
s 1
f 4/4/1 3/3/1 2/2/1 1/1/1 
f 3/3/1 4/4/1 6/6/1 5/5/1 
f 8/8/1 5/5/1 6/6/1 7/7/1 
f 10/10/1 8/8/1 7/7/1 9/9/1 
f 14/14/1 13/13/1 12/12/1 11/11/1 
f 11/11/1 12/12/1 16/16/1 15/15/1 
f 18/18/1 15/15/1 16/16/1 17/17/1 
f 20/20/1 18/18/1 17/17/1 19/19/1 
f 24/14/1 23/13/1 22/12/1 21/11/1 
f 21/11/1 22/12/1 26/16/1 25/15/1 
f 28/18/1 25/15/1 26/16/1 27/17/1 
f 30/20/1 28/18/1 27/17/1 29/19/1 
f 34/11/1 33/12/1 32/13/1 31/14/1 
f 36/15/1 35/16/1 33/12/1 34/11/1 
f 36/15/1 38/18/1 37/17/1 35/16/1 
f 38/18/1 40/20/1 39/19/1 37/17/1 
f 44/14/1 43/11/1 42/12/1 41/13/1 
f 46/15/1 45/16/1 42/12/1 43/11/1 
f 46/15/1 48/18/1 47/17/1 45/16/1 
f 48/18/1 50/20/1 49/19/1 47/17/1 
# 20 polygons

