# 3ds Max Wavefront OBJ Exporter v0.97b - (c)2007 guruware
# File Created: 23.01.2018 00:59:14

#
# object Plane006
#

v  -16.0000 0.0000 1.5238
v  -16.0000 0.0000 -1.5238
v  -18.3200 -2.0000 -1.5238
v  -18.3200 -2.0000 1.5238
v  13.0000 0.0000 -1.5238
v  13.0000 0.0000 1.5238
v  16.0000 0.0000 1.5238
v  16.0000 0.0000 -1.5238
v  18.3200 -2.0000 1.5238
v  18.3200 -2.0000 -1.5238
v  -13.0000 0.0000 1.5238
v  -13.0000 0.0000 -1.5238
v  -16.0000 0.0000 -28.9524
v  -16.0000 0.0000 -32.0000
v  -18.3200 -2.0000 -32.0000
v  -18.3200 -2.0000 -28.9524
v  -16.0000 0.0000 -25.9048
v  -18.3200 -2.0000 -25.9048
v  -16.0000 0.0000 -22.8571
v  -18.3200 -2.0000 -22.8571
v  -16.0000 0.0000 -19.8095
v  -18.3200 -2.0000 -19.8095
v  -16.0000 0.0000 -16.7619
v  -18.3200 -2.0000 -16.7619
v  -16.0000 0.0000 -13.7143
v  -18.3200 -2.0000 -13.7143
v  -16.0000 0.0000 -10.6667
v  -18.3200 -2.0000 -10.6667
v  -16.0000 0.0000 -7.6190
v  -18.3200 -2.0000 -7.6190
v  -16.0000 0.0000 -4.5714
v  -18.3200 -2.0000 -4.5714
v  -18.3200 -2.0000 28.9524
v  -18.3200 -2.0000 32.0000
v  -16.0000 0.0000 32.0000
v  -16.0000 0.0000 28.9524
v  -18.3200 -2.0000 25.9048
v  -16.0000 0.0000 25.9048
v  -18.3200 -2.0000 22.8571
v  -16.0000 0.0000 22.8571
v  -18.3200 -2.0000 19.8095
v  -16.0000 0.0000 19.8095
v  -18.3200 -2.0000 16.7619
v  -16.0000 0.0000 16.7619
v  -18.3200 -2.0000 13.7143
v  -16.0000 0.0000 13.7143
v  -18.3200 -2.0000 10.6667
v  -16.0000 0.0000 10.6667
v  -18.3200 -2.0000 7.6190
v  -16.0000 0.0000 7.6190
v  -18.3200 -2.0000 4.5714
v  -16.0000 0.0000 4.5714
v  13.0000 0.0000 28.9524
v  13.0000 0.0000 32.0000
v  16.0000 0.0000 32.0000
v  16.0000 0.0000 28.9524
v  13.0000 0.0000 25.9048
v  16.0000 0.0000 25.9048
v  13.0000 0.0000 22.8571
v  16.0000 0.0000 22.8571
v  13.0000 0.0000 19.8095
v  16.0000 0.0000 19.8095
v  13.0000 0.0000 16.7619
v  16.0000 0.0000 16.7619
v  13.0000 0.0000 13.7143
v  16.0000 0.0000 13.7143
v  13.0000 0.0000 10.6667
v  16.0000 0.0000 10.6667
v  13.0000 0.0000 7.6190
v  16.0000 0.0000 7.6190
v  13.0000 0.0000 4.5714
v  16.0000 0.0000 4.5714
v  16.0000 0.0000 -28.9524
v  16.0000 0.0000 -32.0000
v  13.0000 0.0000 -32.0000
v  13.0000 0.0000 -28.9524
v  16.0000 0.0000 -25.9048
v  13.0000 0.0000 -25.9048
v  16.0000 0.0000 -22.8571
v  13.0000 0.0000 -22.8571
v  16.0000 0.0000 -19.8095
v  13.0000 0.0000 -19.8095
v  16.0000 0.0000 -16.7619
v  13.0000 0.0000 -16.7619
v  16.0000 0.0000 -13.7143
v  13.0000 0.0000 -13.7143
v  16.0000 0.0000 -10.6667
v  13.0000 0.0000 -10.6667
v  16.0000 0.0000 -7.6190
v  13.0000 0.0000 -7.6190
v  16.0000 0.0000 -4.5714
v  13.0000 0.0000 -4.5714
v  18.3200 -2.0000 -28.9524
v  18.3200 -2.0000 -32.0000
v  18.3200 -2.0000 -25.9048
v  18.3200 -2.0000 -22.8571
v  18.3200 -2.0000 -19.8095
v  18.3200 -2.0000 -16.7619
v  18.3200 -2.0000 -13.7143
v  18.3200 -2.0000 -10.6667
v  18.3200 -2.0000 -7.6190
v  18.3200 -2.0000 -4.5714
v  18.3200 -2.0000 32.0000
v  18.3200 -2.0000 28.9524
v  18.3200 -2.0000 25.9048
v  18.3200 -2.0000 22.8571
v  18.3200 -2.0000 19.8095
v  18.3200 -2.0000 16.7619
v  18.3200 -2.0000 13.7143
v  18.3200 -2.0000 10.6667
v  18.3200 -2.0000 7.6190
v  18.3200 -2.0000 4.5714
v  -13.0000 0.0000 -28.9524
v  -13.0000 0.0000 -32.0000
v  -13.0000 0.0000 -25.9048
v  -13.0000 0.0000 -22.8571
v  -13.0000 0.0000 -19.8095
v  -13.0000 0.0000 -16.7619
v  -13.0000 0.0000 -13.7143
v  -13.0000 0.0000 -10.6667
v  -13.0000 0.0000 -7.6190
v  -13.0000 0.0000 -4.5714
v  -13.0000 0.0000 32.0000
v  -13.0000 0.0000 28.9524
v  -13.0000 0.0000 25.9048
v  -13.0000 0.0000 22.8571
v  -13.0000 0.0000 19.8095
v  -13.0000 0.0000 16.7619
v  -13.0000 0.0000 13.7143
v  -13.0000 0.0000 10.6667
v  -13.0000 0.0000 7.6190
v  -13.0000 0.0000 4.5714
v  10.0000 -0.3000 -29.0909
v  12.0000 -0.3000 -29.0909
v  12.0000 -0.3000 -32.0000
v  10.0000 -0.3000 -32.0000
v  10.0000 -0.3000 -26.1818
v  12.0000 -0.3000 -26.1818
v  10.0000 -0.3000 -23.2727
v  12.0000 -0.3000 -23.2727
v  10.0000 -0.3000 -20.3636
v  12.0000 -0.3000 -20.3636
v  10.0000 -0.3000 -17.4545
v  12.0000 -0.3000 -17.4545
v  10.0000 -0.3000 -14.5455
v  12.0000 -0.3000 -14.5455
v  10.0000 -0.3000 -11.6364
v  12.0000 -0.3000 -11.6364
v  10.0000 -0.3000 -8.7273
v  12.0000 -0.3000 -8.7273
v  10.0000 -0.3000 -5.8182
v  12.0000 -0.3000 -5.8182
v  10.0000 -0.3000 -2.9091
v  12.0000 -0.3000 -2.9091
v  10.0000 -0.3000 -0.0000
v  12.0000 -0.3000 -0.0000
v  10.0000 -0.3000 2.9091
v  12.0000 -0.3000 2.9091
v  10.0000 -0.3000 5.8182
v  12.0000 -0.3000 5.8182
v  10.0000 -0.3000 8.7273
v  12.0000 -0.3000 8.7273
v  10.0000 -0.3000 11.6364
v  12.0000 -0.3000 11.6364
v  10.0000 -0.3000 14.5455
v  12.0000 -0.3000 14.5455
v  10.0000 -0.3000 17.4545
v  12.0000 -0.3000 17.4545
v  10.0000 -0.3000 20.3636
v  12.0000 -0.3000 20.3636
v  10.0000 -0.3000 23.2727
v  12.0000 -0.3000 23.2727
v  10.0000 -0.3000 26.1818
v  12.0000 -0.3000 26.1818
v  10.0000 -0.3000 29.0909
v  12.0000 -0.3000 29.0909
v  10.0000 -0.3000 32.0000
v  12.0000 -0.3000 32.0000
v  -10.0000 -0.3000 11.6364
v  -12.0000 -0.3000 11.6364
v  -12.0000 -0.3000 14.5455
v  -10.0000 -0.3000 14.5455
v  -10.0000 -0.3000 17.4545
v  -12.0000 -0.3000 17.4545
v  -10.0000 -0.3000 20.3636
v  0.0000 -0.3000 20.3636
v  0.0000 -0.3000 17.4545
v  -10.0000 -0.3000 23.2727
v  0.0000 -0.3000 23.2727
v  -10.0000 -0.3000 26.1818
v  0.0000 -0.3000 26.1818
v  -10.0000 -0.3000 29.0909
v  0.0000 -0.3000 29.0909
v  -10.0000 -0.3000 32.0000
v  0.0000 -0.3000 32.0000
v  -10.0000 -0.3000 8.7273
v  -12.0000 -0.3000 8.7273
v  -10.0000 -0.3000 5.8182
v  -12.0000 -0.3000 5.8182
v  -10.0000 -0.3000 2.9091
v  -12.0000 -0.3000 2.9091
v  -10.0000 -0.3000 -0.0000
v  -12.0000 -0.3000 -0.0000
v  -10.0000 -0.3000 -2.9091
v  -12.0000 -0.3000 -2.9091
v  -10.0000 -0.3000 -5.8182
v  -12.0000 -0.3000 -5.8182
v  -10.0000 -0.3000 -8.7273
v  -12.0000 -0.3000 -8.7273
v  -10.0000 -0.3000 -11.6364
v  -12.0000 -0.3000 -11.6364
v  -10.0000 -0.3000 -14.5455
v  -12.0000 -0.3000 -14.5455
v  -10.0000 -0.3000 -17.4545
v  -12.0000 -0.3000 -17.4545
v  -10.0000 -0.3000 -20.3636
v  -12.0000 -0.3000 -20.3636
v  -10.0000 -0.3000 -23.2727
v  -12.0000 -0.3000 -23.2727
v  -10.0000 -0.3000 -26.1818
v  -12.0000 -0.3000 -26.1818
v  -10.0000 -0.3000 -29.0909
v  -12.0000 -0.3000 -29.0909
v  -10.0000 -0.3000 -32.0000
v  -12.0000 -0.3000 -32.0000
v  0.0000 -0.3000 -29.0909
v  0.0000 -0.3000 -32.0000
v  0.0000 -0.3000 -26.1818
v  0.0000 -0.3000 -23.2727
v  0.0000 -0.3000 -20.3636
v  0.0000 -0.3000 -17.4545
v  0.0000 -0.3000 -14.5455
v  0.0000 -0.3000 -11.6364
v  0.0000 -0.3000 -8.7273
v  0.0000 -0.3000 -5.8182
v  0.0000 -0.3000 -2.9091
v  0.0000 -0.3000 -0.0000
v  0.0000 -0.3000 2.9091
v  0.0000 -0.3000 5.8182
v  0.0000 -0.3000 8.7273
v  0.0000 -0.3000 11.6364
v  0.0000 -0.3000 14.5455
v  -12.0000 -0.3000 20.3636
v  -12.0000 -0.3000 23.2727
v  -12.0000 -0.3000 26.1818
v  -12.0000 -0.3000 29.0909
v  -12.0000 -0.3000 32.0000
# 247 vertices

vn -0.6529 0.7574 -0.0000
vn 0.0000 1.0000 -0.0000
vn 0.6529 0.7574 -0.0000
# 3 vertex normals

vt 0.0000 0.4762 0.0000
vt 0.0000 0.5238 0.0000
vt 0.1282 0.5238 0.0000
vt 0.1282 0.4762 0.0000
vt 0.0821 0.5238 0.0000
vt 0.0821 0.4762 0.0000
vt 0.0000 0.9524 0.0000
vt 0.0000 1.0000 0.0000
vt 0.1282 1.0000 0.0000
vt 0.1282 0.9524 0.0000
vt 0.0000 0.9048 0.0000
vt 0.1282 0.9048 0.0000
vt 0.0000 0.8571 0.0000
vt 0.1282 0.8571 0.0000
vt 0.0000 0.8095 0.0000
vt 0.1282 0.8095 0.0000
vt 0.0000 0.7619 0.0000
vt 0.1282 0.7619 0.0000
vt 0.0000 0.7143 0.0000
vt 0.1282 0.7143 0.0000
vt 0.0000 0.6667 0.0000
vt 0.1282 0.6667 0.0000
vt 0.0000 0.6190 0.0000
vt 0.1282 0.6190 0.0000
vt 0.0000 0.5714 0.0000
vt 0.1282 0.5714 0.0000
vt 0.1282 0.0476 0.0000
vt 0.1282 0.0000 0.0000
vt 0.0000 0.0000 0.0000
vt 0.0000 0.0476 0.0000
vt 0.1282 0.0952 0.0000
vt 0.0000 0.0952 0.0000
vt 0.1282 0.1429 0.0000
vt 0.0000 0.1429 0.0000
vt 0.1282 0.1905 0.0000
vt 0.0000 0.1905 0.0000
vt 0.1282 0.2381 0.0000
vt 0.0000 0.2381 0.0000
vt 0.1282 0.2857 0.0000
vt 0.0000 0.2857 0.0000
vt 0.1282 0.3333 0.0000
vt 0.0000 0.3333 0.0000
vt 0.1282 0.3810 0.0000
vt 0.0000 0.3810 0.0000
vt 0.1282 0.4286 0.0000
vt 0.0000 0.4286 0.0000
vt 0.0821 0.0476 0.0000
vt 0.0821 0.0000 0.0000
vt 0.0000 -0.0000 0.0000
vt 0.0821 0.0952 0.0000
vt 0.0821 0.1429 0.0000
vt 0.0821 0.1905 0.0000
vt 0.0821 0.2381 0.0000
vt 0.0821 0.2857 0.0000
vt 0.0821 0.3333 0.0000
vt 0.0821 0.3810 0.0000
vt 0.0821 0.4286 0.0000
vt 0.0821 1.0000 0.0000
vt 0.0821 0.9524 0.0000
vt 0.0821 0.9048 0.0000
vt 0.0821 0.8571 0.0000
vt 0.0821 0.8095 0.0000
vt 0.0821 0.7619 0.0000
vt 0.0821 0.7143 0.0000
vt 0.0821 0.6667 0.0000
vt 0.0821 0.6190 0.0000
vt 0.0821 0.5714 0.0000
vt 0.1282 -0.0000 0.0000
vt 0.2418 0.9546 0.0000
vt 0.1901 0.9546 0.0000
vt 0.1901 1.0000 0.0000
vt 0.2418 1.0000 0.0000
vt 0.2418 0.9091 0.0000
vt 0.1901 0.9091 0.0000
vt 0.2418 0.8636 0.0000
vt 0.1901 0.8636 0.0000
vt 0.2418 0.8182 0.0000
vt 0.1901 0.8182 0.0000
vt 0.2418 0.7727 0.0000
vt 0.1901 0.7727 0.0000
vt 0.2418 0.7273 0.0000
vt 0.1901 0.7273 0.0000
vt 0.2418 0.6818 0.0000
vt 0.1901 0.6818 0.0000
vt 0.2418 0.6364 0.0000
vt 0.1901 0.6364 0.0000
vt 0.2418 0.5909 0.0000
vt 0.1901 0.5909 0.0000
vt 0.2418 0.5454 0.0000
vt 0.1901 0.5454 0.0000
vt 0.2418 0.5000 0.0000
vt 0.1901 0.5000 0.0000
vt 0.2418 0.4545 0.0000
vt 0.1901 0.4545 0.0000
vt 0.2418 0.4091 0.0000
vt 0.1901 0.4091 0.0000
vt 0.2418 0.3636 0.0000
vt 0.1901 0.3636 0.0000
vt 0.2418 0.3182 0.0000
vt 0.1901 0.3182 0.0000
vt 0.2418 0.2727 0.0000
vt 0.1901 0.2727 0.0000
vt 0.2418 0.2273 0.0000
vt 0.1901 0.2273 0.0000
vt 0.2418 0.1818 0.0000
vt 0.1901 0.1818 0.0000
vt 0.2418 0.1364 0.0000
vt 0.1901 0.1364 0.0000
vt 0.2418 0.0909 0.0000
vt 0.1901 0.0909 0.0000
vt 0.2418 0.0454 0.0000
vt 0.1901 0.0454 0.0000
vt 0.2418 0.0000 0.0000
vt 0.1901 0.0000 0.0000
vt 0.7582 0.3182 0.0000
vt 0.8099 0.3182 0.0000
vt 0.8099 0.2727 0.0000
vt 0.7582 0.2727 0.0000
vt 0.7582 0.2273 0.0000
vt 0.8099 0.2273 0.0000
vt 0.7582 0.1818 0.0000
vt 0.5000 0.1818 0.0000
vt 0.5000 0.2273 0.0000
vt 0.7582 0.1364 0.0000
vt 0.5000 0.1364 0.0000
vt 0.7582 0.0909 0.0000
vt 0.5000 0.0909 0.0000
vt 0.7582 0.0454 0.0000
vt 0.5000 0.0454 0.0000
vt 0.7582 0.0000 0.0000
vt 0.5000 0.0000 0.0000
vt 0.7582 0.3636 0.0000
vt 0.8099 0.3636 0.0000
vt 0.7582 0.4091 0.0000
vt 0.8099 0.4091 0.0000
vt 0.7582 0.4545 0.0000
vt 0.8099 0.4545 0.0000
vt 0.7582 0.5000 0.0000
vt 0.8099 0.5000 0.0000
vt 0.7582 0.5454 0.0000
vt 0.8099 0.5454 0.0000
vt 0.7582 0.5909 0.0000
vt 0.8099 0.5909 0.0000
vt 0.7582 0.6364 0.0000
vt 0.8099 0.6364 0.0000
vt 0.7582 0.6818 0.0000
vt 0.8099 0.6818 0.0000
vt 0.7582 0.7273 0.0000
vt 0.8099 0.7273 0.0000
vt 0.7582 0.7727 0.0000
vt 0.8099 0.7727 0.0000
vt 0.7582 0.8182 0.0000
vt 0.8099 0.8182 0.0000
vt 0.7582 0.8636 0.0000
vt 0.8099 0.8636 0.0000
vt 0.7582 0.9091 0.0000
vt 0.8099 0.9091 0.0000
vt 0.7582 0.9546 0.0000
vt 0.8099 0.9546 0.0000
vt 0.7582 1.0000 0.0000
vt 0.8099 1.0000 0.0000
vt 0.5000 0.9546 0.0000
vt 0.5000 1.0000 0.0000
vt 0.5000 0.9091 0.0000
vt 0.5000 0.8636 0.0000
vt 0.5000 0.8182 0.0000
vt 0.5000 0.7727 0.0000
vt 0.5000 0.7273 0.0000
vt 0.5000 0.6818 0.0000
vt 0.5000 0.6364 0.0000
vt 0.5000 0.5909 0.0000
vt 0.5000 0.5454 0.0000
vt 0.5000 0.5000 0.0000
vt 0.5000 0.4545 0.0000
vt 0.5000 0.4091 0.0000
vt 0.5000 0.3636 0.0000
vt 0.5000 0.3182 0.0000
vt 0.5000 0.2727 0.0000
vt 0.8099 0.1818 0.0000
vt 0.8099 0.1364 0.0000
vt 0.8099 0.0909 0.0000
vt 0.8099 0.0454 0.0000
vt 0.8099 0.0000 0.0000
# 183 texture coords

g Plane006
s off
f 1/1/1 2/2/1 3/3/1 4/4/1 
f 5/5/2 6/6/2 7/1/2 8/2/2 
f 9/4/3 10/3/3 8/2/3 7/1/3 
f 11/6/2 12/5/2 2/2/2 1/1/2 
f 13/7/1 14/8/1 15/9/1 16/10/1 
f 17/11/1 13/7/1 16/10/1 18/12/1 
f 19/13/1 17/11/1 18/12/1 20/14/1 
f 21/15/1 19/13/1 20/14/1 22/16/1 
f 23/17/1 21/15/1 22/16/1 24/18/1 
f 25/19/1 23/17/1 24/18/1 26/20/1 
f 27/21/1 25/19/1 26/20/1 28/22/1 
f 29/23/1 27/21/1 28/22/1 30/24/1 
f 31/25/1 29/23/1 30/24/1 32/26/1 
f 2/2/1 31/25/1 32/26/1 3/3/1 
f 33/27/1 34/28/1 35/29/1 36/30/1 
f 37/31/1 33/27/1 36/30/1 38/32/1 
f 39/33/1 37/31/1 38/32/1 40/34/1 
f 41/35/1 39/33/1 40/34/1 42/36/1 
f 43/37/1 41/35/1 42/36/1 44/38/1 
f 45/39/1 43/37/1 44/38/1 46/40/1 
f 47/41/1 45/39/1 46/40/1 48/42/1 
f 49/43/1 47/41/1 48/42/1 50/44/1 
f 51/45/1 49/43/1 50/44/1 52/46/1 
f 4/4/1 51/45/1 52/46/1 1/1/1 
f 53/47/2 54/48/2 55/49/2 56/30/2 
f 57/50/2 53/47/2 56/30/2 58/32/2 
f 59/51/2 57/50/2 58/32/2 60/34/2 
f 61/52/2 59/51/2 60/34/2 62/36/2 
f 63/53/2 61/52/2 62/36/2 64/38/2 
f 65/54/2 63/53/2 64/38/2 66/40/2 
f 67/55/2 65/54/2 66/40/2 68/42/2 
f 69/56/2 67/55/2 68/42/2 70/44/2 
f 71/57/2 69/56/2 70/44/2 72/46/2 
f 6/6/2 71/57/2 72/46/2 7/1/2 
f 73/7/2 74/8/2 75/58/2 76/59/2 
f 77/11/2 73/7/2 76/59/2 78/60/2 
f 79/13/2 77/11/2 78/60/2 80/61/2 
f 81/15/2 79/13/2 80/61/2 82/62/2 
f 83/17/2 81/15/2 82/62/2 84/63/2 
f 85/19/2 83/17/2 84/63/2 86/64/2 
f 87/21/2 85/19/2 86/64/2 88/65/2 
f 89/23/2 87/21/2 88/65/2 90/66/2 
f 91/25/2 89/23/2 90/66/2 92/67/2 
f 8/2/2 91/25/2 92/67/2 5/5/2 
f 93/10/3 94/9/3 74/8/3 73/7/3 
f 95/12/3 93/10/3 73/7/3 77/11/3 
f 96/14/3 95/12/3 77/11/3 79/13/3 
f 97/16/3 96/14/3 79/13/3 81/15/3 
f 98/18/3 97/16/3 81/15/3 83/17/3 
f 99/20/3 98/18/3 83/17/3 85/19/3 
f 100/22/3 99/20/3 85/19/3 87/21/3 
f 101/24/3 100/22/3 87/21/3 89/23/3 
f 102/26/3 101/24/3 89/23/3 91/25/3 
f 10/3/3 102/26/3 91/25/3 8/2/3 
f 56/30/3 55/49/3 103/68/3 104/27/3 
f 58/32/3 56/30/3 104/27/3 105/31/3 
f 60/34/3 58/32/3 105/31/3 106/33/3 
f 62/36/3 60/34/3 106/33/3 107/35/3 
f 64/38/3 62/36/3 107/35/3 108/37/3 
f 66/40/3 64/38/3 108/37/3 109/39/3 
f 68/42/3 66/40/3 109/39/3 110/41/3 
f 70/44/3 68/42/3 110/41/3 111/43/3 
f 72/46/3 70/44/3 111/43/3 112/45/3 
f 7/1/3 72/46/3 112/45/3 9/4/3 
f 113/59/2 114/58/2 14/8/2 13/7/2 
f 115/60/2 113/59/2 13/7/2 17/11/2 
f 116/61/2 115/60/2 17/11/2 19/13/2 
f 117/62/2 116/61/2 19/13/2 21/15/2 
f 118/63/2 117/62/2 21/15/2 23/17/2 
f 119/64/2 118/63/2 23/17/2 25/19/2 
f 120/65/2 119/64/2 25/19/2 27/21/2 
f 121/66/2 120/65/2 27/21/2 29/23/2 
f 122/67/2 121/66/2 29/23/2 31/25/2 
f 12/5/2 122/67/2 31/25/2 2/2/2 
f 36/30/2 35/29/2 123/48/2 124/47/2 
f 38/32/2 36/30/2 124/47/2 125/50/2 
f 40/34/2 38/32/2 125/50/2 126/51/2 
f 42/36/2 40/34/2 126/51/2 127/52/2 
f 44/38/2 42/36/2 127/52/2 128/53/2 
f 46/40/2 44/38/2 128/53/2 129/54/2 
f 48/42/2 46/40/2 129/54/2 130/55/2 
f 50/44/2 48/42/2 130/55/2 131/56/2 
f 52/46/2 50/44/2 131/56/2 132/57/2 
f 1/1/2 52/46/2 132/57/2 11/6/2 
s 1
f 133/69/2 134/70/2 135/71/2 136/72/2 
f 137/73/2 138/74/2 134/70/2 133/69/2 
f 139/75/2 140/76/2 138/74/2 137/73/2 
f 141/77/2 142/78/2 140/76/2 139/75/2 
f 143/79/2 144/80/2 142/78/2 141/77/2 
f 145/81/2 146/82/2 144/80/2 143/79/2 
f 147/83/2 148/84/2 146/82/2 145/81/2 
f 149/85/2 150/86/2 148/84/2 147/83/2 
f 151/87/2 152/88/2 150/86/2 149/85/2 
f 153/89/2 154/90/2 152/88/2 151/87/2 
f 155/91/2 156/92/2 154/90/2 153/89/2 
f 157/93/2 158/94/2 156/92/2 155/91/2 
f 159/95/2 160/96/2 158/94/2 157/93/2 
f 161/97/2 162/98/2 160/96/2 159/95/2 
f 163/99/2 164/100/2 162/98/2 161/97/2 
f 165/101/2 166/102/2 164/100/2 163/99/2 
f 167/103/2 168/104/2 166/102/2 165/101/2 
f 169/105/2 170/106/2 168/104/2 167/103/2 
f 171/107/2 172/108/2 170/106/2 169/105/2 
f 173/109/2 174/110/2 172/108/2 171/107/2 
f 175/111/2 176/112/2 174/110/2 173/109/2 
f 177/113/2 178/114/2 176/112/2 175/111/2 
f 179/115/2 180/116/2 181/117/2 182/118/2 
f 183/119/2 182/118/2 181/117/2 184/120/2 
f 185/121/2 186/122/2 187/123/2 183/119/2 
f 188/124/2 189/125/2 186/122/2 185/121/2 
f 190/126/2 191/127/2 189/125/2 188/124/2 
f 192/128/2 193/129/2 191/127/2 190/126/2 
f 194/130/2 195/131/2 193/129/2 192/128/2 
f 196/132/2 197/133/2 180/116/2 179/115/2 
f 198/134/2 199/135/2 197/133/2 196/132/2 
f 200/136/2 201/137/2 199/135/2 198/134/2 
f 202/138/2 203/139/2 201/137/2 200/136/2 
f 204/140/2 205/141/2 203/139/2 202/138/2 
f 206/142/2 207/143/2 205/141/2 204/140/2 
f 208/144/2 209/145/2 207/143/2 206/142/2 
f 210/146/2 211/147/2 209/145/2 208/144/2 
f 212/148/2 213/149/2 211/147/2 210/146/2 
f 214/150/2 215/151/2 213/149/2 212/148/2 
f 216/152/2 217/153/2 215/151/2 214/150/2 
f 218/154/2 219/155/2 217/153/2 216/152/2 
f 220/156/2 221/157/2 219/155/2 218/154/2 
f 222/158/2 223/159/2 221/157/2 220/156/2 
f 224/160/2 225/161/2 223/159/2 222/158/2 
f 226/162/2 133/69/2 136/72/2 227/163/2 
f 228/164/2 137/73/2 133/69/2 226/162/2 
f 229/165/2 139/75/2 137/73/2 228/164/2 
f 230/166/2 141/77/2 139/75/2 229/165/2 
f 231/167/2 143/79/2 141/77/2 230/166/2 
f 232/168/2 145/81/2 143/79/2 231/167/2 
f 233/169/2 147/83/2 145/81/2 232/168/2 
f 234/170/2 149/85/2 147/83/2 233/169/2 
f 235/171/2 151/87/2 149/85/2 234/170/2 
f 236/172/2 153/89/2 151/87/2 235/171/2 
f 237/173/2 155/91/2 153/89/2 236/172/2 
f 238/174/2 157/93/2 155/91/2 237/173/2 
f 239/175/2 159/95/2 157/93/2 238/174/2 
f 240/176/2 161/97/2 159/95/2 239/175/2 
f 241/177/2 163/99/2 161/97/2 240/176/2 
f 242/178/2 165/101/2 163/99/2 241/177/2 
f 187/123/2 167/103/2 165/101/2 242/178/2 
f 186/122/2 169/105/2 167/103/2 187/123/2 
f 189/125/2 171/107/2 169/105/2 186/122/2 
f 191/127/2 173/109/2 171/107/2 189/125/2 
f 193/129/2 175/111/2 173/109/2 191/127/2 
f 195/131/2 177/113/2 175/111/2 193/129/2 
f 241/177/2 179/115/2 182/118/2 242/178/2 
f 242/178/2 182/118/2 183/119/2 187/123/2 
f 243/179/2 185/121/2 183/119/2 184/120/2 
f 244/180/2 188/124/2 185/121/2 243/179/2 
f 245/181/2 190/126/2 188/124/2 244/180/2 
f 246/182/2 192/128/2 190/126/2 245/181/2 
f 247/183/2 194/130/2 192/128/2 246/182/2 
f 240/176/2 196/132/2 179/115/2 241/177/2 
f 239/175/2 198/134/2 196/132/2 240/176/2 
f 238/174/2 200/136/2 198/134/2 239/175/2 
f 237/173/2 202/138/2 200/136/2 238/174/2 
f 236/172/2 204/140/2 202/138/2 237/173/2 
f 235/171/2 206/142/2 204/140/2 236/172/2 
f 234/170/2 208/144/2 206/142/2 235/171/2 
f 233/169/2 210/146/2 208/144/2 234/170/2 
f 232/168/2 212/148/2 210/146/2 233/169/2 
f 231/167/2 214/150/2 212/148/2 232/168/2 
f 230/166/2 216/152/2 214/150/2 231/167/2 
f 229/165/2 218/154/2 216/152/2 230/166/2 
f 228/164/2 220/156/2 218/154/2 229/165/2 
f 226/162/2 222/158/2 220/156/2 228/164/2 
f 227/163/2 224/160/2 222/158/2 226/162/2 
# 172 polygons

