# 3ds Max Wavefront OBJ Exporter v0.97b - (c)2007 guruware
# File Created: 18.11.2015 07:44:39

#
# object Plane01_001
#

v  7.90000 -0.29996 0.00000
v  7.90000 -0.29996 16.00000
v  8.06000 0.99979 15.99995
v  8.06000 0.99979 -0.00005
v  8.06000 0.99979 -16.00005
v  7.90000 -0.29996 -16.00000
v  8.48587 -1.99978 16.00000
v  8.48587 -1.99978 -0.00000
v  8.48587 -1.99978 -16.00000
v  6.50000 -4.00000 15.99999
v  6.50000 -4.00000 -0.00001
v  6.50000 -4.00000 -16.00001
v  -6.50000 -4.00000 16.00001
v  -8.48645 -2.00000 16.00000
v  -8.48645 -2.00000 -0.00000
v  -6.50000 -4.00000 0.00001
v  -8.48645 -2.00000 -16.00000
v  -6.50000 -4.00000 -15.99999
v  -8.06000 0.99980 15.99994
v  -8.06000 0.99980 -0.00006
v  -8.06000 0.99980 -16.00006
v  -7.90000 -0.30000 16.00000
v  -7.90000 -0.30000 -0.00000
v  -7.90000 -0.30000 -16.00000
v  -0.00029 -4.00000 16.00000
v  -0.00029 -4.00000 32.00000
v  -6.50000 -4.00000 32.00001
v  -0.00029 -4.00000 -16.00000
v  -0.00029 -4.00000 0.00000
v  -6.00029 -0.30000 -16.00000
v  -6.00029 -0.30000 -32.00000
v  -7.90000 -0.30000 -32.00000
v  -6.00029 -0.30000 16.00000
v  -6.00029 -0.30000 0.00000
v  6.50000 -4.00000 -32.00001
v  -0.00029 -4.00000 -32.00000
v  5.99971 -0.29997 0.00000
v  5.99971 -0.29997 -16.00000
v  -0.00029 -0.29998 -16.00000
v  -0.00029 -0.29998 0.00000
v  5.99971 -0.29997 32.00000
v  5.99971 -0.29997 16.00000
v  -0.00029 -0.29998 16.00000
v  -0.00029 -0.29998 32.00000
v  7.90000 -0.29996 32.00000
v  -6.00029 -0.30000 32.00000
v  8.06000 0.99979 31.99995
v  8.48587 -1.99978 32.00000
v  6.50000 -4.00000 31.99999
v  -8.48645 -2.00000 32.00000
v  -8.06000 0.99980 31.99994
v  -7.90000 -0.30000 32.00000
v  8.06000 0.99979 -32.00005
v  7.90000 -0.29996 -32.00000
v  8.48587 -1.99978 -32.00000
v  -8.48645 -2.00000 -32.00000
v  -6.50000 -4.00000 -31.99999
v  -8.06000 0.99980 -32.00006
v  5.99971 -0.29997 -32.00000
v  -0.00029 -0.29998 -32.00000
# 60 vertices

vn -0.99251 0.12218 -0.00000
vn -0.00928 0.99996 -0.00000
vn 0.94912 -0.31493 -0.00000
vn 0.70965 -0.70456 -0.00000
vn -0.70951 -0.70470 -0.00000
vn -0.94911 -0.31494 -0.00000
vn 0.00937 0.99996 -0.00000
vn 0.99251 0.12217 -0.00000
vn 0.00000 -1.00000 0.00000
vn 0.00000 -1.00000 -0.00000
vn -0.00000 1.00000 -0.00000
vn -0.00000 1.00000 0.00000
vn -0.00933 0.99996 -0.00000
vn 0.94911 -0.31493 -0.00000
vn 0.00944 0.99996 -0.00000
vn -0.00922 0.99996 -0.00000
vn 0.00930 0.99996 -0.00000
# 17 vertex normals

vt 0.23635 0.50000 0.00000
vt 0.23635 0.25000 0.00000
vt 0.18477 0.25000 0.00000
vt 0.18477 0.50000 0.00000
vt 0.18477 0.75000 0.00000
vt 0.23635 0.75000 0.00000
vt 0.07620 0.25000 0.00000
vt 0.07620 0.50000 0.00000
vt 0.07620 0.75000 0.00000
vt 0.00000 0.25000 0.00000
vt 0.00000 0.50000 0.00000
vt 0.00000 0.75000 0.00000
vt 0.75045 0.25000 0.00000
vt 0.82305 0.25000 0.00000
vt 0.82305 0.50000 0.00000
vt 0.75045 0.50000 0.00000
vt 0.82305 0.75000 0.00000
vt 0.75045 0.75000 0.00000
vt 0.63829 0.25000 0.00000
vt 0.63829 0.50000 0.00000
vt 0.63829 0.75000 0.00000
vt 0.58947 0.25000 0.00000
vt 0.58947 0.50000 0.00000
vt 0.58947 0.75000 0.00000
vt 0.13015 0.25000 0.00000
vt 0.06508 0.25000 0.00000
vt 0.06508 0.00000 0.00000
vt 0.13015 0.00000 0.00000
vt 0.13015 0.75000 0.00000
vt 0.06508 0.75000 0.00000
vt 0.06508 0.50000 0.00000
vt 0.13015 0.50000 0.00000
vt 0.64859 0.75000 0.00000
vt 0.59135 0.75000 0.00000
vt 0.59135 1.00000 0.00000
vt 0.64859 1.00000 0.00000
vt 0.64859 0.25000 0.00000
vt 0.59135 0.25000 0.00000
vt 0.59135 0.50000 0.00000
vt 0.64859 0.50000 0.00000
vt 0.00000 1.00000 0.00000
vt 0.06508 1.00000 0.00000
vt 0.22973 0.50000 0.00000
vt 0.22973 0.75000 0.00000
vt 0.41054 0.75000 0.00000
vt 0.41054 0.50000 0.00000
vt 0.22973 0.00000 0.00000
vt 0.22973 0.25000 0.00000
vt 0.41054 0.25000 0.00000
vt 0.41054 0.00000 0.00000
vt 0.17247 0.50000 0.00000
vt 0.17247 0.75000 0.00000
vt 0.17247 0.00000 0.00000
vt 0.17247 0.25000 0.00000
vt 0.59135 0.00000 0.00000
vt 0.23635 0.00000 0.00000
vt 0.18477 0.00000 0.00000
vt 0.07620 0.00000 0.00000
vt 0.00000 0.00000 0.00000
vt 0.75045 0.00000 0.00000
vt 0.82305 0.00000 0.00000
vt 0.63829 0.00000 0.00000
vt 0.58947 0.00000 0.00000
vt 0.64859 0.00000 0.00000
vt 0.18477 1.00000 0.00000
vt 0.23635 1.00000 0.00000
vt 0.07620 1.00000 0.00000
vt 0.82305 1.00000 0.00000
vt 0.75045 1.00000 0.00000
vt 0.63829 1.00000 0.00000
vt 0.58947 1.00000 0.00000
vt 0.13015 1.00000 0.00000
vt 0.22973 1.00000 0.00000
vt 0.41054 1.00000 0.00000
vt 0.17247 1.00000 0.00000
# 75 texture coords

g Plane01_001
f 1/1/1 2/2/1 3/3/2 
f 3/3/2 4/4/2 1/1/1 
f 4/4/2 5/5/2 6/6/1 
f 6/6/1 1/1/1 4/4/2 
f 4/4/2 3/3/2 7/7/3 
f 7/7/3 8/8/3 4/4/2 
f 8/8/3 9/9/3 5/5/2 
f 5/5/2 4/4/2 8/8/3 
f 8/8/3 7/7/3 10/10/4 
f 10/10/4 11/11/4 8/8/3 
f 11/11/4 12/12/4 9/9/3 
f 9/9/3 8/8/3 11/11/4 
f 13/13/5 14/14/6 15/15/6 
f 15/15/6 16/16/5 13/13/5 
f 17/17/6 18/18/5 16/16/5 
f 16/16/5 15/15/6 17/17/6 
f 14/19/6 19/13/7 20/16/7 
f 20/16/7 15/20/6 14/19/6 
f 21/18/7 17/21/6 15/20/6 
f 15/20/6 20/16/7 21/18/7 
f 19/22/7 22/19/8 23/20/8 
f 23/20/8 20/23/7 19/22/7 
f 24/21/8 21/24/7 20/23/7 
f 20/23/7 23/20/8 24/21/8 
f 13/25/9 25/26/9 26/27/9 
f 26/27/10 27/28/10 13/25/10 
f 18/29/10 28/30/10 29/31/10 
f 29/31/10 16/32/10 18/29/10 
f 24/33/11 30/34/11 31/35/11 
f 31/35/11 32/36/11 24/33/11 
f 22/37/11 33/38/11 34/39/11 
f 34/39/11 23/40/11 22/37/11 
f 11/11/10 10/10/10 25/26/10 
f 25/26/9 29/31/9 11/11/9 
f 35/41/10 12/12/10 28/30/10 
f 28/30/10 36/42/10 35/41/10 
f 37/43/12 38/44/12 39/45/12 
f 39/45/11 40/46/11 37/43/11 
f 41/47/11 42/48/11 43/49/11 
f 43/49/11 44/50/11 41/47/11 
f 1/51/11 6/52/11 38/44/11 
f 38/44/12 37/43/12 1/51/12 
f 45/53/11 2/54/11 42/48/11 
f 42/48/11 41/47/11 45/53/11 
f 40/46/11 39/45/11 30/34/11 
f 30/34/11 34/39/11 40/46/11 
f 44/50/11 43/49/11 33/38/11 
f 33/38/11 46/55/11 44/50/11 
f 45/56/1 47/57/13 3/3/2 
f 3/3/2 2/2/1 45/56/1 
f 47/57/13 48/58/14 7/7/3 
f 7/7/3 3/3/2 47/57/13 
f 48/58/14 49/59/4 10/10/4 
f 10/10/4 7/7/3 48/58/14 
f 27/60/5 50/61/6 14/14/6 
f 14/14/6 13/13/5 27/60/5 
f 50/62/6 51/60/15 19/13/7 
f 19/13/7 14/19/6 50/62/6 
f 51/63/15 52/62/8 22/19/8 
f 22/19/8 19/22/7 51/63/15 
f 16/32/9 29/31/9 25/26/9 
f 25/26/10 13/25/10 16/32/10 
f 52/64/11 46/55/11 33/38/11 
f 33/38/11 22/37/11 52/64/11 
f 49/59/9 26/27/9 25/26/9 
f 25/26/10 10/10/10 49/59/10 
f 37/43/11 40/46/11 43/49/11 
f 43/49/11 42/48/11 37/43/11 
f 1/51/11 37/43/11 42/48/11 
f 42/48/11 2/54/11 1/51/11 
f 40/46/11 34/39/11 33/38/11 
f 33/38/11 43/49/11 40/46/11 
f 53/65/16 54/66/1 6/6/1 
f 6/6/1 5/5/2 53/65/16 
f 55/67/3 53/65/16 5/5/2 
f 5/5/2 9/9/3 55/67/3 
f 35/41/4 55/67/3 9/9/3 
f 9/9/3 12/12/4 35/41/4 
f 56/68/6 57/69/5 18/18/5 
f 18/18/5 17/17/6 56/68/6 
f 58/69/17 56/70/6 17/21/6 
f 17/21/6 21/18/7 58/69/17 
f 32/70/8 58/71/17 21/24/7 
f 21/24/7 24/21/8 32/70/8 
f 57/72/10 36/42/10 28/30/10 
f 28/30/10 18/29/10 57/72/10 
f 23/40/11 34/39/11 30/34/11 
f 30/34/11 24/33/11 23/40/11 
f 11/11/10 29/31/10 28/30/10 
f 28/30/10 12/12/10 11/11/10 
f 59/73/11 60/74/11 39/45/11 
f 39/45/12 38/44/12 59/73/12 
f 54/75/12 59/73/12 38/44/12 
f 38/44/11 6/52/11 54/75/11 
f 60/74/11 31/35/11 30/34/11 
f 30/34/11 39/45/11 60/74/11 
# 96 faces

