# 3ds Max Wavefront OBJ Exporter v0.97b - (c)2007 guruware
# File Created: 17.11.2015 13:20:34

#
# object Plane01_001
#

v  8.06000 0.99979 -0.00005
v  7.90000 -0.29996 0.00000
v  8.06000 0.99979 15.99994
v  7.90000 -0.29996 -16.00000
v  7.90000 -0.29996 16.00000
v  8.06000 0.99979 31.99995
v  7.90000 -0.29996 32.00000
v  8.06000 0.99979 -16.00005
v  7.90000 -0.29996 -32.00000
v  8.06000 0.99979 -32.00005
v  8.48587 -1.99978 -0.00000
v  8.48587 -1.99978 15.99999
v  8.06000 0.99979 15.99995
v  8.48587 -1.99978 32.00000
v  8.48587 -1.99978 -16.00000
v  8.48587 -1.99978 -32.00000
v  6.50000 -4.00000 -0.00001
v  6.50000 -4.00000 15.99998
v  8.48587 -1.99978 16.00000
v  6.50000 -4.00000 31.99999
v  6.50000 -4.00000 -16.00001
v  6.50000 -4.00000 -32.00001
v  -6.50000 -4.00000 0.00001
v  -6.50000 -4.00000 16.00000
v  -8.48645 -2.00000 -0.00000
v  -8.48645 -2.00000 -16.00000
v  -8.48645 -2.00000 16.00000
v  -6.50000 -4.00000 32.00001
v  -8.48645 -2.00000 32.00000
v  -6.50000 -4.00000 -15.99999
v  -8.48645 -2.00000 -32.00000
v  -6.50000 -4.00000 -31.99999
v  -8.48645 -2.00000 15.99999
v  -8.06000 0.99980 -0.00006
v  -8.06000 0.99980 -16.00006
v  -8.06000 0.99980 15.99994
v  -8.06000 0.99980 31.99994
v  -8.06000 0.99980 -32.00006
v  -8.06000 0.99980 15.99993
v  -7.90000 -0.30000 -0.00000
v  -7.90000 -0.30000 -16.00000
v  -7.90000 -0.30000 16.00000
v  -7.90000 -0.30000 32.00000
v  -7.90000 -0.30000 -32.00000
# 44 vertices

vn -0.00928 0.99996 -0.00000
vn -0.99251 0.12218 -0.00000
vn -0.00933 0.99996 -0.00000
vn -0.00922 0.99996 -0.00000
vn 0.94912 -0.31493 -0.00000
vn 0.99007 0.14057 -0.00000
vn 0.94911 -0.31493 -0.00000
vn 0.70965 -0.70456 -0.00000
vn -0.70951 -0.70470 -0.00000
vn -0.94911 -0.31494 -0.00000
vn -0.99005 0.14074 -0.00000
vn 0.00937 0.99996 -0.00000
vn 0.00944 0.99996 -0.00000
vn 0.00930 0.99996 -0.00000
vn 0.99251 0.12217 -0.00000
vn 0.00000 -1.00000 -0.00000
vn -0.00000 1.00000 -0.00000
# 17 vertex normals

vt 0.18477 0.50000 0.00000
vt 0.23635 0.50000 0.00000
vt 0.18477 0.25000 0.00000
vt 0.23635 0.75000 0.00000
vt 0.23635 0.25000 0.00000
vt 0.18477 0.00000 0.00000
vt 0.23635 0.00000 0.00000
vt 0.18477 0.75000 0.00000
vt 0.23635 1.00000 0.00000
vt 0.18477 1.00000 0.00000
vt 0.07620 0.50000 0.00000
vt 0.07620 0.25000 0.00000
vt 0.07620 0.00000 0.00000
vt 0.07620 0.75000 0.00000
vt 0.07620 1.00000 0.00000
vt 0.00000 0.50000 0.00000
vt 0.00000 0.25000 0.00000
vt 0.00000 0.00000 0.00000
vt 0.00000 0.75000 0.00000
vt 0.00000 1.00000 0.00000
vt 0.75045 0.50000 0.00000
vt 0.75045 0.25000 0.00000
vt 0.82305 0.50000 0.00000
vt 0.82305 0.75000 0.00000
vt 0.82305 0.25000 0.00000
vt 0.75045 0.00000 0.00000
vt 0.82305 0.00000 0.00000
vt 0.75045 0.75000 0.00000
vt 0.82305 1.00000 0.00000
vt 0.75045 1.00000 0.00000
vt 0.63829 0.50000 0.00000
vt 0.63829 0.25000 0.00000
vt 0.63829 0.00000 0.00000
vt 0.63829 0.75000 0.00000
vt 0.63829 1.00000 0.00000
vt 0.58947 0.50000 0.00000
vt 0.58947 0.25000 0.00000
vt 0.58947 0.00000 0.00000
vt 0.58947 0.75000 0.00000
vt 0.58947 1.00000 0.00000
vt 0.13015 0.00000 0.00000
vt 0.13015 0.25000 0.00000
vt 0.13015 0.50000 0.00000
vt 0.13015 0.75000 0.00000
vt 0.13015 1.00000 0.00000
vt 0.64859 1.00000 0.00000
vt 0.64859 0.75000 0.00000
vt 0.17247 0.75000 0.00000
vt 0.17247 1.00000 0.00000
vt 0.64859 0.50000 0.00000
vt 0.17247 0.50000 0.00000
vt 0.64859 0.25000 0.00000
vt 0.17247 0.25000 0.00000
vt 0.64859 0.00000 0.00000
vt 0.17247 0.00000 0.00000
# 55 texture coords

g Plane01_001
f 1/1/1 2/2/2 3/3/2 
f 2/2/2 1/1/1 4/4/2 
f 3/3/2 2/2/2 5/5/2 
f 3/3/2 5/5/2 6/6/3 
f 7/7/2 6/6/3 5/5/2 
f 8/8/1 4/4/2 1/1/1 
f 8/8/1 9/9/2 4/4/2 
f 10/10/4 9/9/2 8/8/1 
f 11/11/5 1/1/1 12/12/6 
f 1/1/1 11/11/5 8/8/1 
f 12/12/6 1/1/1 13/3/6 
f 12/12/6 13/3/6 14/13/7 
f 6/6/3 14/13/7 13/3/6 
f 15/14/5 8/8/1 11/11/5 
f 15/14/5 10/10/4 8/8/1 
f 16/15/5 10/10/4 15/14/5 
f 17/16/8 11/11/5 18/17/8 
f 11/11/5 17/16/8 15/14/5 
f 18/17/8 11/11/5 19/12/8 
f 18/17/8 19/12/8 20/18/8 
f 14/13/7 20/18/8 19/12/8 
f 21/19/8 15/14/5 17/16/8 
f 21/19/8 16/15/5 15/14/5 
f 22/20/8 16/15/5 21/19/8 
f 23/21/9 24/22/9 25/23/10 
f 25/23/10 26/24/10 23/21/9 
f 24/22/9 27/25/9 25/23/10 
f 24/22/9 28/26/9 27/25/9 
f 29/27/10 27/25/9 28/26/9 
f 30/28/9 23/21/9 26/24/10 
f 30/28/9 26/24/10 31/29/10 
f 32/30/9 30/28/9 31/29/10 
f 25/31/10 33/32/11 34/21/12 
f 34/21/12 35/28/12 25/31/10 
f 33/32/11 36/22/11 34/21/12 
f 33/32/11 29/33/10 36/22/11 
f 37/26/13 36/22/11 29/33/10 
f 26/34/10 25/31/10 35/28/12 
f 26/34/10 35/28/12 38/30/14 
f 31/35/10 26/34/10 38/30/14 
f 34/36/12 39/37/15 40/31/15 
f 40/31/15 41/34/15 34/36/12 
f 39/37/15 42/32/15 40/31/15 
f 39/37/15 37/38/13 42/32/15 
f 43/33/15 42/32/15 37/38/13 
f 35/39/12 34/36/12 41/34/15 
f 35/39/12 41/34/15 44/35/15 
f 38/40/14 35/39/12 44/35/15 
f 28/41/16 24/42/16 18/17/16 
f 28/41/16 18/17/16 20/18/16 
f 24/42/16 23/43/16 17/16/16 
f 24/42/16 17/16/16 18/17/16 
f 23/43/16 30/44/16 21/19/16 
f 23/43/16 21/19/16 17/16/16 
f 30/44/16 32/45/16 22/20/16 
f 30/44/16 22/20/16 21/19/16 
f 44/46/17 41/47/17 4/48/17 
f 44/46/17 4/48/17 9/49/17 
f 41/47/17 40/50/17 2/51/17 
f 41/47/17 2/51/17 4/48/17 
f 40/50/17 42/52/17 5/53/17 
f 40/50/17 5/53/17 2/51/17 
f 42/52/17 43/54/17 7/55/17 
f 42/52/17 7/55/17 5/53/17 
# 64 faces

