# 3ds Max Wavefront OBJ Exporter v0.97b - (c)2007 guruware
# File Created: 17.11.2015 23:48:49

#
# object Plane001
#

v  -8.00000 0.00000 -0.00000
v  -6.00000 0.00000 -0.00000
v  -6.00000 0.00000 -5.33333
v  -8.00000 0.00000 -5.33333
v  6.00000 0.00000 -0.00000
v  8.00000 0.00000 -0.00000
v  8.00000 0.00000 -5.33333
v  6.00000 0.00000 -5.33333
v  0.00000 -0.30000 -0.00000
v  -6.00000 -0.30000 -0.00000
v  -6.00000 -0.30000 5.33333
v  0.00000 -0.30000 5.33333
v  -6.00000 -0.30000 -5.33333
v  6.00000 -0.30000 -0.00000
v  6.00000 -0.30000 5.33333
v  6.00000 0.00000 5.33333
v  11.00000 -3.16500 -0.00000
v  11.00000 -3.16500 -5.33333
v  -11.00000 -3.16500 -0.00000
v  -11.00000 -3.16500 5.33333
v  -8.00000 0.00000 5.33333
v  -8.00000 0.00000 32.00000
v  -6.00000 0.00000 32.00000
v  -6.00000 0.00000 26.66667
v  -8.00000 0.00000 26.66667
v  -6.00000 0.00000 21.33333
v  -8.00000 0.00000 21.33333
v  -6.00000 0.00000 16.00000
v  -8.00000 0.00000 16.00000
v  -6.00000 0.00000 10.66667
v  -8.00000 0.00000 10.66667
v  -6.00000 0.00000 5.33333
v  -6.00000 0.00000 -32.00000
v  -8.00000 0.00000 -32.00000
v  -8.00000 0.00000 -26.66667
v  -6.00000 0.00000 -26.66667
v  -8.00000 0.00000 -21.33333
v  -6.00000 0.00000 -21.33333
v  -8.00000 0.00000 -16.00000
v  -6.00000 0.00000 -16.00000
v  -8.00000 0.00000 -10.66667
v  -6.00000 0.00000 -10.66667
v  6.00000 0.00000 32.00000
v  8.00000 0.00000 32.00000
v  8.00000 0.00000 26.66667
v  6.00000 0.00000 26.66667
v  8.00000 0.00000 21.33333
v  6.00000 0.00000 21.33333
v  8.00000 0.00000 16.00000
v  6.00000 0.00000 16.00000
v  8.00000 0.00000 10.66667
v  6.00000 0.00000 10.66667
v  8.00000 0.00000 5.33333
v  8.00000 0.00000 -32.00000
v  6.00000 0.00000 -32.00000
v  6.00000 0.00000 -26.66667
v  8.00000 0.00000 -26.66667
v  6.00000 0.00000 -21.33333
v  8.00000 0.00000 -21.33333
v  6.00000 0.00000 -16.00000
v  8.00000 0.00000 -16.00000
v  6.00000 0.00000 -10.66667
v  8.00000 0.00000 -10.66667
v  0.00000 -0.30000 -32.00000
v  -6.00000 -0.30000 -32.00000
v  -6.00000 -0.30000 -26.66667
v  0.00000 -0.30000 -26.66667
v  -6.00000 -0.30000 -21.33333
v  0.00000 -0.30000 -21.33333
v  -6.00000 -0.30000 -16.00000
v  0.00000 -0.30000 -16.00000
v  -6.00000 -0.30000 -10.66667
v  0.00000 -0.30000 -10.66667
v  0.00000 -0.30000 -5.33333
v  -6.00000 -0.30000 32.00000
v  0.00000 -0.30000 32.00000
v  0.00000 -0.30000 26.66667
v  -6.00000 -0.30000 26.66667
v  0.00000 -0.30000 21.33333
v  -6.00000 -0.30000 21.33333
v  0.00000 -0.30000 16.00000
v  -6.00000 -0.30000 16.00000
v  0.00000 -0.30000 10.66667
v  -6.00000 -0.30000 10.66667
v  6.00000 -0.30000 -32.00000
v  6.00000 -0.30000 -26.66667
v  6.00000 -0.30000 -21.33333
v  6.00000 -0.30000 -16.00000
v  6.00000 -0.30000 -10.66667
v  6.00000 -0.30000 -5.33333
v  6.00000 -0.30000 32.00000
v  6.00000 -0.30000 26.66667
v  6.00000 -0.30000 21.33333
v  6.00000 -0.30000 16.00000
v  6.00000 -0.30000 10.66667
v  11.00000 -3.16500 31.99999
v  11.00000 -3.16500 26.66666
v  11.00000 -3.16500 21.33333
v  11.00000 -3.16500 16.00000
v  11.00000 -3.16500 10.66666
v  11.00000 -3.16500 5.33333
v  11.00000 -3.16500 -32.00000
v  11.00000 -3.16500 -26.66666
v  11.00000 -3.16500 -21.33333
v  11.00000 -3.16500 -16.00000
v  11.00000 -3.16500 -10.66667
v  -11.00000 -3.16500 -32.00000
v  -11.00000 -3.16500 -26.66667
v  -11.00000 -3.16500 -21.33333
v  -11.00000 -3.16500 -16.00000
v  -11.00000 -3.16500 -10.66667
v  -11.00000 -3.16500 -5.33333
v  -11.00000 -3.16500 32.00000
v  -11.00000 -3.16500 26.66667
v  -11.00000 -3.16500 21.33333
v  -11.00000 -3.16500 16.00000
v  -11.00000 -3.16500 10.66667
# 117 vertices

vn 0.00000 1.00000 -0.00000
vn 1.00000 0.00000 -0.00000
vn -1.00000 0.00000 -0.00000
vn 0.72577 0.68794 -0.00000
vn -0.72577 0.68794 -0.00000
# 5 vertex normals

vt 0.00218 0.50000 0.00000
vt 0.20582 0.50000 0.00000
vt 0.20582 0.58333 0.00000
vt 0.00218 0.58333 0.00000
vt 0.79418 0.50000 0.00000
vt 0.99782 0.50000 0.00000
vt 0.99782 0.58333 0.00000
vt 0.79418 0.58333 0.00000
vt 0.50000 0.50000 0.00000
vt 0.20582 0.41667 0.00000
vt 0.50000 0.41667 0.00000
vt 0.79418 0.41667 0.00000
vt 0.17968 0.50000 0.00000
vt 0.18187 1.00000 1.00000
vt 0.17968 0.58333 0.00000
vt 0.00218 0.41667 0.00000
vt 0.00218 0.00000 0.00000
vt 0.20582 0.00000 0.00000
vt 0.20582 0.08333 0.00000
vt 0.00218 0.08333 0.00000
vt 0.20582 0.16667 0.00000
vt 0.00218 0.16667 0.00000
vt 0.20582 0.25000 0.00000
vt 0.00218 0.25000 0.00000
vt 0.20582 0.33333 0.00000
vt 0.00218 0.33333 0.00000
vt 0.20582 1.00000 0.00000
vt 0.00218 1.00000 0.00000
vt 0.00218 0.91667 0.00000
vt 0.20582 0.91667 0.00000
vt 0.00218 0.83333 0.00000
vt 0.20582 0.83333 0.00000
vt 0.00218 0.75000 0.00000
vt 0.20582 0.75000 0.00000
vt 0.00218 0.66667 0.00000
vt 0.20582 0.66667 0.00000
vt 0.79418 0.00000 0.00000
vt 0.99782 0.00000 0.00000
vt 0.99782 0.08333 0.00000
vt 0.79418 0.08333 0.00000
vt 0.99782 0.16667 0.00000
vt 0.79418 0.16667 0.00000
vt 0.99782 0.25000 0.00000
vt 0.79418 0.25000 0.00000
vt 0.99782 0.33333 0.00000
vt 0.79418 0.33333 0.00000
vt 0.99782 0.41667 0.00000
vt 0.99782 1.00000 0.00000
vt 0.79418 1.00000 0.00000
vt 0.79418 0.91667 0.00000
vt 0.99782 0.91667 0.00000
vt 0.79418 0.83333 0.00000
vt 0.99782 0.83333 0.00000
vt 0.79418 0.75000 0.00000
vt 0.99782 0.75000 0.00000
vt 0.79418 0.66667 0.00000
vt 0.99782 0.66667 0.00000
vt 0.50000 1.00000 0.00000
vt 0.50000 0.91667 0.00000
vt 0.50000 0.83333 0.00000
vt 0.50000 0.75000 0.00000
vt 0.50000 0.66667 0.00000
vt 0.50000 0.58333 0.00000
vt 0.50000 0.00000 0.00000
vt 0.50000 0.08333 0.00000
vt 0.50000 0.16667 0.00000
vt 0.50000 0.25000 0.00000
vt 0.50000 0.33333 0.00000
vt 0.17968 0.00000 0.00000
vt 0.17968 0.08333 0.00000
vt 0.17968 0.16667 0.00000
vt 0.17968 0.25000 0.00000
vt 0.17968 0.33333 0.00000
vt 0.17968 0.41667 0.00000
vt 0.17968 1.00000 0.00000
vt 0.17968 0.91667 0.00000
vt 0.17968 0.83333 0.00000
vt 0.17968 0.75000 0.00000
vt 0.17968 0.66667 0.00000
# 79 texture coords

g Plane001
f 1/1/1 2/2/1 3/3/1 
f 3/3/1 4/4/1 1/1/1 
f 5/5/1 6/6/1 7/7/1 
f 7/7/1 8/8/1 5/5/1 
f 9/9/1 10/2/1 11/10/1 
f 11/10/1 12/11/1 9/9/1 
f 2/2/2 10/2/2 13/3/2 
f 13/3/2 3/3/2 2/2/2 
f 5/5/3 14/5/3 15/12/3 
f 15/12/3 16/12/3 5/5/3 
f 6/13/4 17/14/4 18/14/4 
f 18/14/4 7/15/4 6/13/4 
f 1/1/5 19/14/5 20/14/5 
f 20/14/5 21/16/5 1/1/5 
f 14/5/1 9/9/1 12/11/1 
f 12/11/1 15/12/1 14/5/1 
f 22/17/1 23/18/1 24/19/1 
f 24/19/1 25/20/1 22/17/1 
f 25/20/1 24/19/1 26/21/1 
f 26/21/1 27/22/1 25/20/1 
f 27/22/1 26/21/1 28/23/1 
f 28/23/1 29/24/1 27/22/1 
f 29/24/1 28/23/1 30/25/1 
f 30/25/1 31/26/1 29/24/1 
f 31/26/1 30/25/1 32/10/1 
f 32/10/1 21/16/1 31/26/1 
f 21/16/1 32/10/1 2/2/1 
f 2/2/1 1/1/1 21/16/1 
f 33/27/1 34/28/1 35/29/1 
f 35/29/1 36/30/1 33/27/1 
f 36/30/1 35/29/1 37/31/1 
f 37/31/1 38/32/1 36/30/1 
f 38/32/1 37/31/1 39/33/1 
f 39/33/1 40/34/1 38/32/1 
f 40/34/1 39/33/1 41/35/1 
f 41/35/1 42/36/1 40/34/1 
f 42/36/1 41/35/1 4/4/1 
f 4/4/1 3/3/1 42/36/1 
f 43/37/1 44/38/1 45/39/1 
f 45/39/1 46/40/1 43/37/1 
f 46/40/1 45/39/1 47/41/1 
f 47/41/1 48/42/1 46/40/1 
f 48/42/1 47/41/1 49/43/1 
f 49/43/1 50/44/1 48/42/1 
f 50/44/1 49/43/1 51/45/1 
f 51/45/1 52/46/1 50/44/1 
f 52/46/1 51/45/1 53/47/1 
f 53/47/1 16/12/1 52/46/1 
f 16/12/1 53/47/1 6/6/1 
f 6/6/1 5/5/1 16/12/1 
f 54/48/1 55/49/1 56/50/1 
f 56/50/1 57/51/1 54/48/1 
f 57/51/1 56/50/1 58/52/1 
f 58/52/1 59/53/1 57/51/1 
f 59/53/1 58/52/1 60/54/1 
f 60/54/1 61/55/1 59/53/1 
f 61/55/1 60/54/1 62/56/1 
f 62/56/1 63/57/1 61/55/1 
f 63/57/1 62/56/1 8/8/1 
f 8/8/1 7/7/1 63/57/1 
f 64/58/1 65/27/1 66/30/1 
f 66/30/1 67/59/1 64/58/1 
f 67/59/1 66/30/1 68/32/1 
f 68/32/1 69/60/1 67/59/1 
f 69/60/1 68/32/1 70/34/1 
f 70/34/1 71/61/1 69/60/1 
f 71/61/1 70/34/1 72/36/1 
f 72/36/1 73/62/1 71/61/1 
f 73/62/1 72/36/1 13/3/1 
f 13/3/1 74/63/1 73/62/1 
f 74/63/1 13/3/1 10/2/1 
f 10/2/1 9/9/1 74/63/1 
f 75/18/1 76/64/1 77/65/1 
f 77/65/1 78/19/1 75/18/1 
f 78/19/1 77/65/1 79/66/1 
f 79/66/1 80/21/1 78/19/1 
f 80/21/1 79/66/1 81/67/1 
f 81/67/1 82/23/1 80/21/1 
f 82/23/1 81/67/1 83/68/1 
f 83/68/1 84/25/1 82/23/1 
f 84/25/1 83/68/1 12/11/1 
f 12/11/1 11/10/1 84/25/1 
f 23/18/2 75/18/2 78/19/2 
f 78/19/2 24/19/2 23/18/2 
f 24/19/2 78/19/2 80/21/2 
f 80/21/2 26/21/2 24/19/2 
f 26/21/2 80/21/2 82/23/2 
f 82/23/2 28/23/2 26/21/2 
f 28/23/2 82/23/2 84/25/2 
f 84/25/2 30/25/2 28/23/2 
f 30/25/2 84/25/2 11/10/2 
f 11/10/2 32/10/2 30/25/2 
f 32/10/2 11/10/2 10/2/2 
f 10/2/2 2/2/2 32/10/2 
f 65/27/2 33/27/2 36/30/2 
f 36/30/2 66/30/2 65/27/2 
f 66/30/2 36/30/2 38/32/2 
f 38/32/2 68/32/2 66/30/2 
f 68/32/2 38/32/2 40/34/2 
f 40/34/2 70/34/2 68/32/2 
f 70/34/2 40/34/2 42/36/2 
f 42/36/2 72/36/2 70/34/2 
f 72/36/2 42/36/2 3/3/2 
f 3/3/2 13/3/2 72/36/2 
f 55/49/3 85/49/3 86/50/3 
f 86/50/3 56/50/3 55/49/3 
f 56/50/3 86/50/3 87/52/3 
f 87/52/3 58/52/3 56/50/3 
f 58/52/3 87/52/3 88/54/3 
f 88/54/3 60/54/3 58/52/3 
f 60/54/3 88/54/3 89/56/3 
f 89/56/3 62/56/3 60/54/3 
f 62/56/3 89/56/3 90/8/3 
f 90/8/3 8/8/3 62/56/3 
f 8/8/3 90/8/3 14/5/3 
f 14/5/3 5/5/3 8/8/3 
f 91/37/3 43/37/3 46/40/3 
f 46/40/3 92/40/3 91/37/3 
f 92/40/3 46/40/3 48/42/3 
f 48/42/3 93/42/3 92/40/3 
f 93/42/3 48/42/3 50/44/3 
f 50/44/3 94/44/3 93/42/3 
f 94/44/3 50/44/3 52/46/3 
f 52/46/3 95/46/3 94/44/3 
f 95/46/3 52/46/3 16/12/3 
f 16/12/3 15/12/3 95/46/3 
f 44/69/4 96/14/4 97/14/4 
f 97/14/4 45/70/4 44/69/4 
f 45/70/4 97/14/4 98/14/4 
f 98/14/4 47/71/4 45/70/4 
f 47/71/4 98/14/4 99/14/4 
f 99/14/4 49/72/4 47/71/4 
f 49/72/4 99/14/4 100/14/4 
f 100/14/4 51/73/4 49/72/4 
f 51/73/4 100/14/4 101/14/4 
f 101/14/4 53/74/4 51/73/4 
f 53/74/4 101/14/4 17/14/4 
f 17/14/4 6/13/4 53/74/4 
f 102/14/4 54/75/4 57/76/4 
f 57/76/4 103/14/4 102/14/4 
f 103/14/4 57/76/4 59/77/4 
f 59/77/4 104/14/4 103/14/4 
f 104/14/4 59/77/4 61/78/4 
f 61/78/4 105/14/4 104/14/4 
f 105/14/4 61/78/4 63/79/4 
f 63/79/4 106/14/4 105/14/4 
f 106/14/4 63/79/4 7/15/4 
f 7/15/4 18/14/4 106/14/4 
f 34/28/5 107/14/5 108/14/5 
f 108/14/5 35/29/5 34/28/5 
f 35/29/5 108/14/5 109/14/5 
f 109/14/5 37/31/5 35/29/5 
f 37/31/5 109/14/5 110/14/5 
f 110/14/5 39/33/5 37/31/5 
f 39/33/5 110/14/5 111/14/5 
f 111/14/5 41/35/5 39/33/5 
f 41/35/5 111/14/5 112/14/5 
f 112/14/5 4/4/5 41/35/5 
f 4/4/5 112/14/5 19/14/5 
f 19/14/5 1/1/5 4/4/5 
f 113/14/5 22/17/5 25/20/5 
f 25/20/5 114/14/5 113/14/5 
f 114/14/5 25/20/5 27/22/5 
f 27/22/5 115/14/5 114/14/5 
f 115/14/5 27/22/5 29/24/5 
f 29/24/5 116/14/5 115/14/5 
f 116/14/5 29/24/5 31/26/5 
f 31/26/5 117/14/5 116/14/5 
f 117/14/5 31/26/5 21/16/5 
f 21/16/5 20/14/5 117/14/5 
f 85/49/1 64/58/1 67/59/1 
f 67/59/1 86/50/1 85/49/1 
f 86/50/1 67/59/1 69/60/1 
f 69/60/1 87/52/1 86/50/1 
f 87/52/1 69/60/1 71/61/1 
f 71/61/1 88/54/1 87/52/1 
f 88/54/1 71/61/1 73/62/1 
f 73/62/1 89/56/1 88/54/1 
f 89/56/1 73/62/1 74/63/1 
f 74/63/1 90/8/1 89/56/1 
f 90/8/1 74/63/1 9/9/1 
f 9/9/1 14/5/1 90/8/1 
f 76/64/1 91/37/1 92/40/1 
f 92/40/1 77/65/1 76/64/1 
f 77/65/1 92/40/1 93/42/1 
f 93/42/1 79/66/1 77/65/1 
f 79/66/1 93/42/1 94/44/1 
f 94/44/1 81/67/1 79/66/1 
f 81/67/1 94/44/1 95/46/1 
f 95/46/1 83/68/1 81/67/1 
f 83/68/1 95/46/1 15/12/1 
f 15/12/1 12/11/1 83/68/1 
# 192 faces

