# 3ds Max Wavefront OBJ Exporter v0.97b - (c)2007 guruware
# File Created: 21.10.2015 12:43:03

#
# object Plane005
#

v  -13.00000 0.00000 -0.00000
v  13.00000 0.00000 -0.00000
v  13.00000 0.00000 -16.00000
v  -13.00000 0.00000 -16.00000
v  -13.00000 7.00000 -0.00000
v  -13.00000 7.00000 16.00000
v  -13.00000 0.00000 16.00000
v  13.00000 7.00000 -0.00000
v  13.00000 7.00000 -16.00000
v  -13.00000 7.00000 -16.00000
v  -14.00000 7.50000 -0.00000
v  -14.00000 -0.50000 -0.00000
v  -14.00000 -0.50000 16.00000
v  -14.00000 7.50000 16.00000
v  14.00000 7.50000 -0.00000
v  14.00000 -0.50000 -0.00000
v  14.00000 -0.50000 -16.00000
v  14.00000 7.50000 -16.00000
v  14.00000 7.50000 16.00000
v  -13.00000 0.00000 32.00000
v  13.00000 0.00000 32.00000
v  13.00000 0.00000 16.00000
v  13.00000 0.00000 -32.00000
v  -13.00000 0.00000 -32.00000
v  -13.00000 7.00000 -32.00000
v  -13.00000 7.00000 32.00000
v  13.00000 7.00000 32.00000
v  13.00000 7.00000 16.00000
v  13.00000 7.00000 -32.00000
v  -14.00000 7.50000 -32.00000
v  -14.00000 -0.50000 -32.00000
v  -14.00000 -0.50000 -16.00000
v  -14.00000 7.50000 -16.00000
v  -14.00000 -0.50000 32.00000
v  -14.00000 7.50000 32.00000
v  14.00000 7.50000 32.00000
v  14.00000 -0.50000 32.00000
v  14.00000 -0.50000 16.00000
v  14.00000 -0.50000 -32.00000
v  14.00000 7.50000 -32.00000
# 40 vertices

vn 0.00000 1.00000 -0.00000
vn 1.00000 0.00000 -0.00000
vn -1.00000 0.00000 -0.00000
vn 0.00000 -1.00000 -0.00000
# 4 vertex normals

vt 0.14914 0.50000 0.00000
vt 0.60882 0.50000 0.00000
vt 0.60882 0.75000 0.00000
vt 0.14914 0.75000 0.00000
vt 0.77150 0.50000 0.00000
vt 0.84371 0.50000 0.00000
vt 0.84371 0.25000 0.00000
vt 0.77150 0.25000 0.00000
vt 0.84371 0.75000 0.00000
vt 0.77150 0.75000 0.00000
vt 0.99951 0.50000 0.00000
vt 0.84375 0.50000 0.00000
vt 0.84375 0.75000 0.00000
vt 0.99951 0.75000 0.00000
vt 1.00000 1.00000 1.00000
vt 0.14914 0.00000 0.00000
vt 0.60882 0.00000 0.00000
vt 0.60882 0.25000 0.00000
vt 0.14914 0.25000 0.00000
vt 0.60882 1.00000 0.00000
vt 0.14914 1.00000 0.00000
vt 0.77150 1.00000 0.00000
vt 0.84371 1.00000 0.00000
vt 0.84371 0.00000 0.00000
vt 0.77150 0.00000 0.00000
vt 0.99951 0.00000 0.00000
vt 0.84375 0.00000 0.00000
vt 0.84375 0.25000 0.00000
vt 0.99951 0.25000 0.00000
vt 0.84375 1.00000 0.00000
vt 0.99951 1.00000 0.00000
# 31 texture coords

g Plane005
f 1/1/1 2/2/1 3/3/1 
f 3/3/1 4/4/1 1/1/1 
f 1/5/2 5/6/2 6/7/2 
f 6/7/2 7/8/2 1/5/2 
f 2/5/3 8/6/3 9/9/3 
f 9/9/3 3/10/3 2/5/3 
f 8/11/4 5/12/4 10/13/4 
f 10/13/4 9/14/4 8/11/4 
f 11/15/3 12/15/3 13/15/3 
f 13/15/3 14/15/3 11/15/3 
f 15/15/2 16/15/2 17/15/2 
f 17/15/2 18/15/2 15/15/2 
f 15/15/1 11/15/1 14/15/1 
f 14/15/1 19/15/1 15/15/1 
f 20/16/1 21/17/1 22/18/1 
f 22/18/1 7/19/1 20/16/1 
f 7/19/1 22/18/1 2/2/1 
f 2/2/1 1/1/1 7/19/1 
f 23/20/1 24/21/1 4/4/1 
f 4/4/1 3/3/1 23/20/1 
f 24/22/2 25/23/2 10/9/2 
f 10/9/2 4/10/2 24/22/2 
f 4/10/2 10/9/2 5/6/2 
f 5/6/2 1/5/2 4/10/2 
f 26/24/2 20/25/2 7/8/2 
f 7/8/2 6/7/2 26/24/2 
f 21/25/3 27/24/3 28/7/3 
f 28/7/3 22/8/3 21/25/3 
f 22/8/3 28/7/3 8/6/3 
f 8/6/3 2/5/3 22/8/3 
f 29/23/3 23/22/3 3/10/3 
f 3/10/3 9/9/3 29/23/3 
f 27/26/4 26/27/4 6/28/4 
f 6/28/4 28/29/4 27/26/4 
f 28/29/4 6/28/4 5/12/4 
f 5/12/4 8/11/4 28/29/4 
f 25/30/4 29/31/4 9/14/4 
f 9/14/4 10/13/4 25/30/4 
f 30/15/3 31/15/3 32/15/3 
f 32/15/3 33/15/3 30/15/3 
f 33/15/3 32/15/3 12/15/3 
f 12/15/3 11/15/3 33/15/3 
f 34/15/3 35/15/3 14/15/3 
f 14/15/3 13/15/3 34/15/3 
f 36/15/2 37/15/2 38/15/2 
f 38/15/2 19/15/2 36/15/2 
f 19/15/2 38/15/2 16/15/2 
f 16/15/2 15/15/2 19/15/2 
f 39/15/2 40/15/2 18/15/2 
f 18/15/2 17/15/2 39/15/2 
f 40/15/1 30/15/1 33/15/1 
f 33/15/1 18/15/1 40/15/1 
f 18/15/1 33/15/1 11/15/1 
f 11/15/1 15/15/1 18/15/1 
f 35/15/1 36/15/1 19/15/1 
f 19/15/1 14/15/1 35/15/1 
# 56 faces

