# 3ds Max Wavefront OBJ Exporter v0.97b - (c)2007 guruware
# File Created: 07.02.2018 15:53:59

#
# object MedCon_OnePlusThreeS_Start001
#

v  -0.1921 -0.2964 15.9999
v  0.6210 -0.2964 15.9999
v  0.1680 -0.2964 31.9999
v  -0.1682 -0.2964 31.9999
v  -0.2316 -0.2964 -0.0001
v  1.6177 -0.2964 -0.0001
v  -0.2709 -0.2964 -16.0001
v  2.6265 -0.2968 -16.0001
v  -0.2911 -0.2964 -32.0001
v  3.1800 -0.3000 -32.0000
v  -6.0377 -0.2964 -16.0001
v  -6.5831 -0.2964 -32.0001
v  -6.4031 -0.2964 -32.0001
v  -5.8577 -0.2964 -16.0001
v  -4.8364 -0.2964 -0.0001
v  -4.6564 -0.2964 -0.0001
v  -3.4549 -0.2964 15.9999
v  -3.6349 -0.2964 15.9999
v  -2.9090 -0.2964 31.9999
v  -3.0890 -0.2964 31.9999
v  3.5047 -0.2964 16.0003
v  3.6847 -0.2964 16.0003
v  3.1629 -0.2964 32.0003
v  2.9829 -0.2964 32.0003
v  4.6528 -0.2964 0.0003
v  4.8328 -0.2964 0.0003
v  5.9745 -0.2967 -15.9997
v  5.7944 -0.2967 -15.9997
v  6.4388 -0.2997 -31.9996
v  6.2583 -0.2997 -31.9996
# 30 vertices

vn 0.0000 1.0000 -0.0000
# 1 vertex normals

vt 0.8429 0.7489 0.0000
vt 0.7752 0.7489 0.0000
vt 0.7983 0.9979 0.0000
vt 0.8177 0.9977 0.0000
vt 0.8666 0.5000 0.0000
vt 0.7520 0.5000 0.0000
vt 0.8903 0.2511 0.0000
vt 0.7289 0.2511 0.0000
vt 0.9140 0.0023 0.0000
vt 0.7058 0.0021 0.0000
vt 0.1589 0.2500 0.0000
vt 0.1589 0.0000 0.0000
vt 0.1635 0.0000 0.0000
vt 0.1635 0.2500 0.0000
vt 0.1589 0.5000 0.0000
vt 0.1635 0.5000 0.0000
vt 0.1635 0.7500 0.0000
vt 0.1589 0.7500 0.0000
vt 0.1635 1.0000 0.0000
vt 0.1589 1.0000 0.0000
# 20 texture coords

g MedCon_OnePlusThreeS_Start001
s 1
f 4/4/1 3/3/1 2/2/1 1/1/1 
f 6/6/1 5/5/1 1/1/1 2/2/1 
f 6/6/1 8/8/1 7/7/1 5/5/1 
f 8/8/1 10/10/1 9/9/1 7/7/1 
f 14/14/1 13/13/1 12/12/1 11/11/1 
f 16/16/1 14/14/1 11/11/1 15/15/1 
f 16/16/1 15/15/1 18/18/1 17/17/1 
f 17/17/1 18/18/1 20/20/1 19/19/1 
f 24/12/1 23/13/1 22/14/1 21/11/1 
f 21/11/1 22/14/1 26/16/1 25/15/1 
f 28/18/1 25/15/1 26/16/1 27/17/1 
f 30/20/1 28/18/1 27/17/1 29/19/1 
# 12 polygons

