# 3ds Max Wavefront OBJ Exporter v0.97b - (c)2007 guruware
# File Created: 07.02.2018 15:53:03

#
# object MedCon_OnePlusThreeS_Start001
#

v  0.2250 -0.2964 26.6666
v  0.1680 -0.2964 31.9999
v  -0.1682 -0.2964 31.9999
v  -0.1727 -0.2964 26.6666
v  -0.1810 -0.2964 21.3332
v  0.3826 -0.2964 21.3332
v  -0.1921 -0.2964 15.9999
v  0.6210 -0.2964 15.9999
v  -0.2044 -0.2964 10.6666
v  0.9196 -0.2964 10.6666
v  -0.2179 -0.2964 5.3332
v  1.2586 -0.2964 5.3332
v  -0.2316 -0.2964 -0.0001
v  1.6177 -0.2964 -0.0001
v  -0.2456 -0.2964 -5.3334
v  1.9769 -0.2964 -5.3334
v  -0.2588 -0.2964 -10.6668
v  2.3161 -0.2964 -10.6668
v  -0.2709 -0.2964 -16.0001
v  2.6265 -0.2968 -16.0001
v  -0.2811 -0.2964 -21.3334
v  2.9036 -0.2980 -21.3334
v  -0.2881 -0.2964 -26.6668
v  3.1031 -0.2994 -26.6667
v  -0.2911 -0.2964 -32.0001
v  3.1800 -0.3000 -32.0000
v  -6.5147 -0.2964 -26.6668
v  -6.5831 -0.2964 -32.0001
v  -6.4031 -0.2964 -32.0001
v  -6.3347 -0.2964 -26.6668
v  -6.3247 -0.2964 -21.3334
v  -6.1447 -0.2964 -21.3334
v  -6.0377 -0.2964 -16.0001
v  -5.8577 -0.2964 -16.0001
v  -5.6778 -0.2964 -10.6668
v  -5.4978 -0.2964 -10.6668
v  -5.2693 -0.2964 -5.3334
v  -5.0893 -0.2964 -5.3334
v  -4.8364 -0.2964 -0.0001
v  -4.6564 -0.2964 -0.0001
v  -4.4035 -0.2964 5.3332
v  -4.2235 -0.2964 5.3332
v  -3.9949 -0.2964 10.6666
v  -3.8149 -0.2964 10.6666
v  -3.6349 -0.2964 15.9999
v  -3.4549 -0.2964 15.9999
v  -3.3478 -0.2964 21.3332
v  -3.1678 -0.2964 21.3332
v  -3.1577 -0.2964 26.6666
v  -2.9777 -0.2964 26.6666
v  -3.0890 -0.2964 31.9999
v  -2.9090 -0.2964 31.9999
v  3.1629 -0.2964 32.0003
v  2.9829 -0.2964 32.0003
v  3.0485 -0.2964 26.6670
v  3.2285 -0.2964 26.6670
v  3.2302 -0.2964 21.3336
v  3.4102 -0.2964 21.3336
v  3.5047 -0.2964 16.0003
v  3.6847 -0.2964 16.0003
v  3.8487 -0.2964 10.6670
v  4.0287 -0.2964 10.6670
v  4.2391 -0.2964 5.3336
v  4.4191 -0.2964 5.3336
v  4.6528 -0.2964 0.0003
v  4.8328 -0.2964 0.0003
v  5.0664 -0.2964 -5.3330
v  5.2464 -0.2964 -5.3330
v  5.4569 -0.2964 -10.6664
v  5.6369 -0.2964 -10.6664
v  5.7944 -0.2967 -15.9997
v  5.9745 -0.2967 -15.9997
v  6.0463 -0.2979 -21.3330
v  6.2266 -0.2979 -21.3330
v  6.2036 -0.2992 -26.6663
v  6.3840 -0.2992 -26.6663
v  6.2583 -0.2997 -31.9996
v  6.4388 -0.2997 -31.9996
# 78 vertices

vn 0.0000 1.0000 -0.0000
# 1 vertex normals

vt 0.7906 0.9149 0.0000
vt 0.7983 0.9979 0.0000
vt 0.8177 0.9977 0.0000
vt 0.8270 0.9148 0.0000
vt 0.8350 0.8318 0.0000
vt 0.7829 0.8319 0.0000
vt 0.8429 0.7489 0.0000
vt 0.7752 0.7489 0.0000
vt 0.8508 0.6659 0.0000
vt 0.7675 0.6660 0.0000
vt 0.8587 0.5830 0.0000
vt 0.7598 0.5830 0.0000
vt 0.8666 0.5000 0.0000
vt 0.7520 0.5000 0.0000
vt 0.8745 0.4170 0.0000
vt 0.7443 0.4170 0.0000
vt 0.8824 0.3341 0.0000
vt 0.7366 0.3340 0.0000
vt 0.8903 0.2511 0.0000
vt 0.7289 0.2511 0.0000
vt 0.8982 0.1682 0.0000
vt 0.7212 0.1681 0.0000
vt 0.9061 0.0852 0.0000
vt 0.7135 0.0851 0.0000
vt 0.9140 0.0023 0.0000
vt 0.7058 0.0021 0.0000
vt 0.1589 0.0833 0.0000
vt 0.1589 0.0000 0.0000
vt 0.1635 0.0000 0.0000
vt 0.1635 0.0833 0.0000
vt 0.1589 0.1667 0.0000
vt 0.1635 0.1667 0.0000
vt 0.1589 0.2500 0.0000
vt 0.1635 0.2500 0.0000
vt 0.1589 0.3333 0.0000
vt 0.1635 0.3333 0.0000
vt 0.1589 0.4167 0.0000
vt 0.1635 0.4167 0.0000
vt 0.1589 0.5000 0.0000
vt 0.1635 0.5000 0.0000
vt 0.1589 0.5833 0.0000
vt 0.1635 0.5833 0.0000
vt 0.1589 0.6667 0.0000
vt 0.1635 0.6667 0.0000
vt 0.1589 0.7500 0.0000
vt 0.1635 0.7500 0.0000
vt 0.1589 0.8333 0.0000
vt 0.1635 0.8333 0.0000
vt 0.1589 0.9167 0.0000
vt 0.1635 0.9167 0.0000
vt 0.1589 1.0000 0.0000
vt 0.1635 1.0000 0.0000
# 52 texture coords

g MedCon_OnePlusThreeS_Start001
s 1
f 4/4/1 3/3/1 2/2/1 1/1/1 
f 6/6/1 5/5/1 4/4/1 1/1/1 
f 5/5/1 6/6/1 8/8/1 7/7/1 
f 7/7/1 8/8/1 10/10/1 9/9/1 
f 9/9/1 10/10/1 12/12/1 11/11/1 
f 11/11/1 12/12/1 14/14/1 13/13/1 
f 13/13/1 14/14/1 16/16/1 15/15/1 
f 15/15/1 16/16/1 18/18/1 17/17/1 
f 17/17/1 18/18/1 20/20/1 19/19/1 
f 19/19/1 20/20/1 22/22/1 21/21/1 
f 21/21/1 22/22/1 24/24/1 23/23/1 
f 26/26/1 25/25/1 23/23/1 24/24/1 
f 30/30/1 29/29/1 28/28/1 27/27/1 
f 32/32/1 30/30/1 27/27/1 31/31/1 
f 34/34/1 32/32/1 31/31/1 33/33/1 
f 36/36/1 34/34/1 33/33/1 35/35/1 
f 38/38/1 36/36/1 35/35/1 37/37/1 
f 40/40/1 38/38/1 37/37/1 39/39/1 
f 42/42/1 40/40/1 39/39/1 41/41/1 
f 44/44/1 42/42/1 41/41/1 43/43/1 
f 46/46/1 44/44/1 43/43/1 45/45/1 
f 48/48/1 46/46/1 45/45/1 47/47/1 
f 50/50/1 48/48/1 47/47/1 49/49/1 
f 52/52/1 50/50/1 49/49/1 51/51/1 
f 56/30/1 55/27/1 54/28/1 53/29/1 
f 58/32/1 57/31/1 55/27/1 56/30/1 
f 60/34/1 59/33/1 57/31/1 58/32/1 
f 62/36/1 61/35/1 59/33/1 60/34/1 
f 64/38/1 63/37/1 61/35/1 62/36/1 
f 66/40/1 65/39/1 63/37/1 64/38/1 
f 68/42/1 67/41/1 65/39/1 66/40/1 
f 70/44/1 69/43/1 67/41/1 68/42/1 
f 72/46/1 71/45/1 69/43/1 70/44/1 
f 74/48/1 73/47/1 71/45/1 72/46/1 
f 76/50/1 75/49/1 73/47/1 74/48/1 
f 78/52/1 77/51/1 75/49/1 76/50/1 
# 36 polygons

