# 3ds Max Wavefront OBJ Exporter v0.97b - (c)2007 guruware
# File Created: 23.09.2015 07:53:57

#
# object Plane001
#

v  -6.00000 -0.30000 32.00000
v  -6.00000 -0.30000 -0.00000
v  -8.00000 -0.30000 -0.00000
v  -8.00000 -0.30000 32.00000
v  8.00000 -0.30000 -32.00000
v  6.00000 -0.30000 -0.00000
v  8.00000 -0.30000 -0.00000
v  0.00000 -0.30000 -32.00000
v  -8.00000 -0.30000 -32.00000
v  0.00000 -0.30000 -0.00000
v  0.00000 -0.30000 32.00000
v  6.00000 -0.30000 32.00000
v  8.00000 -0.30000 32.00000
# 13 vertices

vn 0.00000 1.00000 -0.00000
vn -0.00000 1.00000 -0.00000
vn -0.00000 1.00000 0.00000
vn 0.00000 1.00000 0.00000
# 4 vertex normals

vt 0.20620 0.00000 0.00000
vt 0.20620 0.50000 0.00000
vt 0.10826 0.50000 0.00000
vt 0.10826 0.00000 0.00000
vt 0.89174 1.00000 0.00000
vt 0.79380 0.50000 0.00000
vt 0.89174 0.50000 0.00000
vt 0.50000 1.00000 0.00000
vt 0.10826 1.00000 0.00000
vt 0.50000 0.50000 0.00000
vt 0.50000 0.00000 0.00000
vt 0.79380 0.00000 0.00000
vt 0.89174 0.00000 0.00000
# 13 texture coords

g Plane001
f 1/1/1 2/2/2 3/3/1 
f 3/3/1 4/4/1 1/1/1 
f 5/5/3 6/6/3 7/7/4 
f 8/8/3 9/9/2 2/2/2 
f 2/2/2 10/10/1 8/8/3 
f 11/11/1 12/12/1 6/6/3 
f 6/6/3 10/10/1 11/11/1 
f 8/8/3 10/10/1 6/6/3 
f 6/6/3 5/5/3 8/8/3 
f 13/13/1 7/7/4 6/6/3 
f 6/6/3 12/12/1 13/13/1 
f 11/11/1 10/10/1 2/2/2 
f 2/2/2 1/1/1 11/11/1 
f 9/9/2 3/3/1 2/2/2 
# 14 faces

