# 3ds Max Wavefront OBJ Exporter v0.97b - (c)2007 guruware
# File Created: 19.10.2017 00:07:52

#
# object Plane002
#

v  9.0000 0.0000 5.3333
v  9.5833 0.0000 5.3333
v  9.5000 0.0000 0.0000
v  9.0000 0.0000 0.0000
v  9.4167 6.4167 -5.3333
v  9.4167 0.0000 -5.3333
v  9.5000 6.5000 0.0000
v  -9.5833 0.0000 5.3333
v  -9.5000 0.0000 -0.0000
v  -9.5000 6.5000 -0.0000
v  -9.5833 6.5833 5.3333
v  -9.0000 6.5833 5.3333
v  -9.0000 6.5000 -0.0000
v  11.0000 7.5000 -5.3333
v  11.0000 7.5000 0.0000
v  11.0000 -0.5000 0.0000
v  11.0000 -0.5000 -5.3333
v  -11.0000 7.5000 5.3333
v  -11.0000 7.5000 -0.0000
v  -11.0000 -0.5000 -0.0000
v  -11.0000 -0.5000 5.3333
v  -9.0000 7.5000 -5.3333
v  -11.0000 7.5000 -5.3333
v  -9.0000 7.5000 -0.0000
v  9.0000 0.0000 -26.6667
v  9.0833 0.0000 -26.6667
v  9.0000 0.0000 -32.0000
v  9.0000 0.0000 -21.3333
v  9.1667 0.0000 -21.3333
v  9.0000 0.0000 -16.0000
v  9.2500 0.0000 -16.0000
v  9.0000 0.0000 -10.6667
v  9.3333 0.0000 -10.6667
v  9.0000 0.0000 -5.3333
v  -9.0000 0.0000 26.6667
v  -9.9167 0.0000 26.6667
v  -10.0000 0.0000 32.0000
v  -9.0000 0.0000 32.0000
v  -9.0000 0.0000 21.3333
v  -9.8333 0.0000 21.3333
v  -9.0000 0.0000 16.0000
v  -9.7500 0.0000 16.0000
v  -9.0000 0.0000 10.6667
v  -9.6667 0.0000 10.6667
v  -9.0000 0.0000 5.3333
v  9.9167 6.9167 26.6667
v  9.9167 0.0000 26.6667
v  10.0000 0.0000 32.0000
v  10.0000 7.0000 32.0000
v  9.8333 6.8333 21.3333
v  9.8333 0.0000 21.3333
v  9.7500 6.7500 16.0000
v  9.7500 0.0000 16.0000
v  9.6667 6.6667 10.6667
v  9.6667 0.0000 10.6667
v  9.5833 6.5833 5.3333
v  9.0833 6.0833 -26.6667
v  9.0000 6.0000 -32.0000
v  9.1667 6.1667 -21.3333
v  9.2500 6.2500 -16.0000
v  9.3333 6.3333 -10.6667
v  -9.0833 0.0000 -26.6667
v  -9.0000 0.0000 -32.0000
v  -9.0000 6.0000 -32.0000
v  -9.0833 6.0833 -26.6667
v  -9.1667 0.0000 -21.3333
v  -9.1667 6.1667 -21.3333
v  -9.2500 0.0000 -16.0000
v  -9.2500 6.2500 -16.0000
v  -9.3333 0.0000 -10.6667
v  -9.3333 6.3333 -10.6667
v  -9.4167 0.0000 -5.3333
v  -9.4167 6.4167 -5.3333
v  -9.9167 6.9167 26.6667
v  -10.0000 7.0000 32.0000
v  -9.8333 6.8333 21.3333
v  -9.7500 6.7500 16.0000
v  -9.6667 6.6667 10.6667
v  -9.0000 6.0833 -26.6667
v  -9.0000 6.1667 -21.3333
v  -9.0000 6.2500 -16.0000
v  -9.0000 6.3333 -10.6667
v  -9.0000 6.4167 -5.3333
v  9.0000 6.9167 26.6667
v  9.0000 7.0000 32.0000
v  9.0000 6.8333 21.3333
v  9.0000 6.7500 16.0000
v  9.0000 6.6667 10.6667
v  9.0000 6.5833 5.3333
v  11.0000 7.5000 26.6667
v  11.0000 7.5000 32.0000
v  11.0000 -0.5000 32.0000
v  11.0000 -0.5000 26.6667
v  11.0000 7.5000 21.3333
v  11.0000 -0.5000 21.3333
v  11.0000 7.5000 16.0000
v  11.0000 -0.5000 16.0000
v  11.0000 7.5000 10.6667
v  11.0000 -0.5000 10.6667
v  11.0000 7.5000 5.3333
v  11.0000 -0.5000 5.3333
v  11.0000 -0.5000 -26.6667
v  11.0000 -0.5000 -32.0000
v  11.0000 7.5000 -32.0000
v  11.0000 7.5000 -26.6667
v  11.0000 -0.5000 -21.3333
v  11.0000 7.5000 -21.3333
v  11.0000 -0.5000 -16.0000
v  11.0000 7.5000 -16.0000
v  11.0000 -0.5000 -10.6667
v  11.0000 7.5000 -10.6667
v  -11.0000 7.5000 -26.6667
v  -11.0000 7.5000 -32.0000
v  -11.0000 -0.5000 -32.0000
v  -11.0000 -0.5000 -26.6667
v  -11.0000 7.5000 -21.3333
v  -11.0000 -0.5000 -21.3333
v  -11.0000 7.5000 -16.0000
v  -11.0000 -0.5000 -16.0000
v  -11.0000 7.5000 -10.6667
v  -11.0000 -0.5000 -10.6667
v  -11.0000 -0.5000 -5.3333
v  -11.0000 -0.5000 26.6667
v  -11.0000 -0.5000 32.0000
v  -11.0000 7.5000 32.0000
v  -11.0000 7.5000 26.6667
v  -11.0000 -0.5000 21.3333
v  -11.0000 7.5000 21.3333
v  -11.0000 -0.5000 16.0000
v  -11.0000 7.5000 16.0000
v  -11.0000 -0.5000 10.6667
v  -11.0000 7.5000 10.6667
v  -9.0000 7.5000 26.6667
v  -9.0000 7.5000 32.0000
v  -9.0000 7.5000 21.3333
v  -9.0000 7.5000 16.0000
v  -9.0000 7.5000 10.6667
v  -9.0000 7.5000 5.3333
v  9.0000 7.5000 -26.6667
v  9.0000 7.5000 -32.0000
v  9.0000 7.5000 -21.3333
v  9.0000 7.5000 -16.0000
v  9.0000 7.5000 -10.6667
v  9.0000 7.5000 -5.3333
v  -0.0000 0.0000 5.3333
v  0.0000 0.0000 -0.0000
v  -9.0000 0.0000 -0.0000
v  -0.0000 6.5833 5.3333
v  0.0000 6.5000 -0.0000
v  9.0000 6.5000 0.0000
v  0.0000 7.5000 -5.3333
v  0.0000 7.5000 -0.0000
v  9.0000 7.5000 0.0000
v  -9.0000 0.0000 -26.6667
v  0.0000 0.0000 -26.6667
v  0.0000 0.0000 -32.0000
v  -9.0000 0.0000 -21.3333
v  0.0000 0.0000 -21.3333
v  -9.0000 0.0000 -16.0000
v  0.0000 0.0000 -16.0000
v  -9.0000 0.0000 -10.6667
v  0.0000 0.0000 -10.6667
v  -9.0000 0.0000 -5.3333
v  0.0000 0.0000 -5.3333
v  9.0000 0.0000 26.6667
v  -0.0000 0.0000 26.6667
v  -0.0000 0.0000 32.0000
v  9.0000 0.0000 32.0000
v  9.0000 0.0000 21.3333
v  -0.0000 0.0000 21.3333
v  9.0000 0.0000 16.0000
v  -0.0000 0.0000 16.0000
v  9.0000 0.0000 10.6667
v  -0.0000 0.0000 10.6667
v  9.0000 6.0833 -26.6667
v  0.0000 6.0833 -26.6667
v  0.0000 6.0000 -32.0000
v  9.0000 6.1667 -21.3333
v  0.0000 6.1667 -21.3333
v  9.0000 6.2500 -16.0000
v  0.0000 6.2500 -16.0000
v  9.0000 6.3333 -10.6667
v  0.0000 6.3333 -10.6667
v  9.0000 6.4167 -5.3333
v  0.0000 6.4167 -5.3333
v  -9.0000 6.9167 26.6667
v  -0.0000 6.9167 26.6667
v  -0.0000 7.0000 32.0000
v  -9.0000 7.0000 32.0000
v  -9.0000 6.8333 21.3333
v  -0.0000 6.8333 21.3333
v  -9.0000 6.7500 16.0000
v  -0.0000 6.7500 16.0000
v  -9.0000 6.6667 10.6667
v  -0.0000 6.6667 10.6667
v  9.0000 7.5000 26.6667
v  -0.0000 7.5000 26.6667
v  -0.0000 7.5000 32.0000
v  9.0000 7.5000 32.0000
v  9.0000 7.5000 21.3333
v  -0.0000 7.5000 21.3333
v  9.0000 7.5000 16.0000
v  -0.0000 7.5000 16.0000
v  9.0000 7.5000 10.6667
v  -0.0000 7.5000 10.6667
v  9.0000 7.5000 5.3333
v  -0.0000 7.5000 5.3333
v  -9.0000 7.5000 -26.6667
v  0.0000 7.5000 -26.6667
v  0.0000 7.5000 -32.0000
v  -9.0000 7.5000 -32.0000
v  -9.0000 7.5000 -21.3333
v  0.0000 7.5000 -21.3333
v  -9.0000 7.5000 -16.0000
v  0.0000 7.5000 -16.0000
v  -9.0000 7.5000 -10.6667
v  0.0000 7.5000 -10.6667
# 217 vertices

vn 0.0000 1.0000 -0.0000
vn -0.7070 0.7071 0.0110
vn -0.7069 -0.7069 0.0221
vn 0.7070 0.7071 0.0110
vn 0.7069 -0.7069 0.0221
vn -0.0000 -0.9999 0.0156
vn 0.7071 0.7071 0.0000
vn 1.0000 0.0000 0.0000
vn -0.7071 0.7071 -0.0000
vn -1.0000 0.0000 -0.0000
vn -0.7035 0.7106 0.0110
vn 0.7105 0.7036 0.0111
vn -0.7105 0.7036 0.0111
vn 0.7035 0.7106 0.0110
# 14 vertex normals

vt 0.0360 0.5834 0.0000
vt 0.0249 0.5834 0.0000
vt 0.0249 0.5000 0.0000
vt 0.0345 0.5000 0.0000
vt 0.4882 0.4167 0.0000
vt 0.4161 0.4167 0.0000
vt 0.4161 0.5000 0.0000
vt 0.4882 0.5000 0.0000
vt 0.4161 0.5833 0.0000
vt 0.4882 0.5833 0.0000
vt 0.6393 0.5833 0.0000
vt 0.6440 0.5833 0.0000
vt 0.6440 0.5000 0.0000
vt 0.6399 0.5000 0.0000
vt 0.9466 0.4167 0.0000
vt 0.9466 0.5000 0.0000
vt 0.9906 0.5833 0.0000
vt 0.9906 0.5000 0.0000
vt 0.9866 0.4167 0.0000
vt 0.9906 0.4167 0.0000
vt 0.9866 0.5000 0.0000
vt 0.0266 0.0827 0.0000
vt 0.0249 0.0827 0.0000
vt 0.0249 -0.0007 0.0000
vt 0.0282 0.1662 0.0000
vt 0.0249 0.1662 0.0000
vt 0.0299 0.2497 0.0000
vt 0.0249 0.2497 0.0000
vt 0.0314 0.3331 0.0000
vt 0.0249 0.3331 0.0000
vt 0.0330 0.4166 0.0000
vt 0.0249 0.4166 0.0000
vt 0.3733 0.9175 0.0000
vt 0.3901 0.9175 0.0000
vt 0.3901 1.0007 0.0000
vt 0.3719 1.0007 0.0000
vt 0.3747 0.8340 0.0000
vt 0.3901 0.8341 0.0000
vt 0.3761 0.7505 0.0000
vt 0.3901 0.7505 0.0000
vt 0.3775 0.6671 0.0000
vt 0.3901 0.6671 0.0000
vt 0.3790 0.5837 0.0000
vt 0.3901 0.5837 0.0000
vt 0.4882 0.9167 0.0000
vt 0.4161 0.9167 0.0000
vt 0.4161 1.0000 0.0000
vt 0.4882 1.0000 0.0000
vt 0.4882 0.8333 0.0000
vt 0.4161 0.8333 0.0000
vt 0.4882 0.7500 0.0000
vt 0.4161 0.7500 0.0000
vt 0.4882 0.6667 0.0000
vt 0.4161 0.6667 0.0000
vt 0.4161 0.0833 0.0000
vt 0.4882 0.0833 0.0000
vt 0.4882 0.0000 0.0000
vt 0.4161 0.0000 0.0000
vt 0.4161 0.1667 0.0000
vt 0.4882 0.1667 0.0000
vt 0.4161 0.2500 0.0000
vt 0.4882 0.2500 0.0000
vt 0.4161 0.3333 0.0000
vt 0.4882 0.3333 0.0000
vt 0.6433 0.0833 0.0000
vt 0.6440 0.0833 0.0000
vt 0.6440 0.0000 0.0000
vt 0.6426 0.1667 0.0000
vt 0.6440 0.1667 0.0000
vt 0.6419 0.2500 0.0000
vt 0.6440 0.2500 0.0000
vt 0.6412 0.3333 0.0000
vt 0.6440 0.3333 0.0000
vt 0.6406 0.4167 0.0000
vt 0.6440 0.4167 0.0000
vt 0.4953 0.9167 0.0000
vt 0.4881 0.9167 0.0000
vt 0.4881 1.0000 0.0000
vt 0.4959 1.0000 0.0000
vt 0.4947 0.8333 0.0000
vt 0.4881 0.8333 0.0000
vt 0.4941 0.7500 0.0000
vt 0.4881 0.7500 0.0000
vt 0.4935 0.6667 0.0000
vt 0.4881 0.6667 0.0000
vt 0.4928 0.5833 0.0000
vt 0.4881 0.5833 0.0000
vt 0.9466 0.9167 0.0000
vt 0.9466 1.0000 0.0000
vt 0.9466 0.8333 0.0000
vt 0.9466 0.7500 0.0000
vt 0.9466 0.6667 0.0000
vt 0.9466 0.5833 0.0000
vt 0.9466 0.0833 0.0000
vt 0.9466 0.0000 0.0000
vt 0.9466 0.1667 0.0000
vt 0.9466 0.2500 0.0000
vt 0.9466 0.3333 0.0000
vt 0.9906 0.0833 0.0000
vt 0.9906 0.0000 0.0000
vt 0.9906 0.1667 0.0000
vt 0.9906 0.2500 0.0000
vt 0.9906 0.3333 0.0000
vt 0.9906 0.9167 0.0000
vt 0.9906 1.0000 0.0000
vt 0.9906 0.8333 0.0000
vt 0.9906 0.7500 0.0000
vt 0.9906 0.6667 0.0000
vt 0.9866 0.9167 0.0000
vt 0.9866 1.0000 0.0000
vt 0.9866 0.8333 0.0000
vt 0.9866 0.7500 0.0000
vt 0.9866 0.6667 0.0000
vt 0.9866 0.5833 0.0000
vt 0.9506 0.0833 0.0000
vt 0.9506 0.0000 0.0000
vt 0.9506 0.1667 0.0000
vt 0.9506 0.2500 0.0000
vt 0.9506 0.3333 0.0000
vt 0.9506 0.4167 0.0000
vt 0.2075 0.5836 0.0000
vt 0.2075 0.5001 0.0000
vt 0.3805 0.5002 0.0000
vt 0.5660 0.5833 0.0000
vt 0.5660 0.5000 0.0000
vt 0.4922 0.5000 0.0000
vt 0.9686 0.4167 0.0000
vt 0.9686 0.5000 0.0000
vt 0.9506 0.5000 0.0000
vt 0.3885 0.0830 0.0000
vt 0.2075 0.0829 0.0000
vt 0.2075 -0.0007 0.0000
vt 0.3901 -0.0007 0.0000
vt 0.3868 0.1664 0.0000
vt 0.2075 0.1663 0.0000
vt 0.3852 0.2500 0.0000
vt 0.2075 0.2498 0.0000
vt 0.3836 0.3334 0.0000
vt 0.2075 0.3332 0.0000
vt 0.3821 0.4168 0.0000
vt 0.2075 0.4167 0.0000
vt 0.0418 0.9173 0.0000
vt 0.2075 0.9174 0.0000
vt 0.2075 1.0007 0.0000
vt 0.0432 1.0007 0.0000
vt 0.0404 0.8338 0.0000
vt 0.2075 0.8339 0.0000
vt 0.0390 0.7504 0.0000
vt 0.2075 0.7504 0.0000
vt 0.0375 0.6669 0.0000
vt 0.2075 0.6670 0.0000
vt 0.4888 0.0833 0.0000
vt 0.5660 0.0833 0.0000
vt 0.5660 0.0000 0.0000
vt 0.4881 0.0000 0.0000
vt 0.4895 0.1667 0.0000
vt 0.5660 0.1667 0.0000
vt 0.4902 0.2500 0.0000
vt 0.5660 0.2500 0.0000
vt 0.4909 0.3333 0.0000
vt 0.5660 0.3333 0.0000
vt 0.4915 0.4167 0.0000
vt 0.5660 0.4167 0.0000
vt 0.6368 0.9167 0.0000
vt 0.5660 0.9167 0.0000
vt 0.5660 1.0000 0.0000
vt 0.6362 1.0000 0.0000
vt 0.6374 0.8333 0.0000
vt 0.5660 0.8333 0.0000
vt 0.6380 0.7500 0.0000
vt 0.5660 0.7500 0.0000
vt 0.6386 0.6667 0.0000
vt 0.5660 0.6667 0.0000
vt 0.9506 0.9167 0.0000
vt 0.9686 0.9167 0.0000
vt 0.9686 1.0000 0.0000
vt 0.9506 1.0000 0.0000
vt 0.9506 0.8333 0.0000
vt 0.9686 0.8333 0.0000
vt 0.9506 0.7500 0.0000
vt 0.9686 0.7500 0.0000
vt 0.9506 0.6667 0.0000
vt 0.9686 0.6667 0.0000
vt 0.9506 0.5833 0.0000
vt 0.9686 0.5833 0.0000
vt 0.9866 0.0833 0.0000
vt 0.9686 0.0833 0.0000
vt 0.9686 0.0000 0.0000
vt 0.9866 0.0000 0.0000
vt 0.9866 0.1667 0.0000
vt 0.9686 0.1667 0.0000
vt 0.9866 0.2500 0.0000
vt 0.9686 0.2500 0.0000
vt 0.9866 0.3333 0.0000
vt 0.9686 0.3333 0.0000
vt 0.3901 0.5002 0.0000
vt 0.3901 0.0830 0.0000
vt 0.3901 0.1664 0.0000
vt 0.3901 0.2500 0.0000
vt 0.3901 0.3334 0.0000
vt 0.3901 0.4168 0.0000
vt 0.6440 0.9167 0.0000
vt 0.6440 1.0000 0.0000
vt 0.6440 0.8333 0.0000
vt 0.6440 0.7500 0.0000
vt 0.6440 0.6667 0.0000
vt 0.4881 0.5000 0.0000
vt 0.0249 0.9173 0.0000
vt 0.0249 1.0007 0.0000
vt 0.0249 0.8338 0.0000
vt 0.0249 0.7503 0.0000
vt 0.0249 0.6669 0.0000
vt 0.4881 0.0833 0.0000
vt 0.4881 0.1667 0.0000
vt 0.4881 0.2500 0.0000
vt 0.4881 0.3333 0.0000
vt 0.4881 0.4167 0.0000
# 217 texture coords

g Plane002
s 1
f 1/1/1 2/2/2 3/3/2 4/4/1 
f 5/5/3 6/6/2 3/7/2 7/8/3 
f 8/9/4 9/7/4 10/8/5 11/10/5 
f 12/11/6 11/12/5 10/13/5 13/14/6 
f 14/15/7 15/16/7 16/16/8 17/15/8 
f 18/17/9 19/18/9 20/18/10 21/17/10 
f 22/19/1 23/20/9 19/18/9 24/21/1 
f 25/22/1 26/23/2 27/24/11 
f 28/25/1 29/26/2 26/23/2 25/22/1 
f 30/27/1 31/28/2 29/26/2 28/25/1 
f 32/29/1 33/30/2 31/28/2 30/27/1 
f 34/31/1 6/32/2 33/30/2 32/29/1 
f 4/4/1 3/3/2 6/32/2 34/31/1 
f 35/33/1 36/34/4 37/35/12 38/36/1 
f 39/37/1 40/38/4 36/34/4 35/33/1 
f 41/39/1 42/40/4 40/38/4 39/37/1 
f 43/41/1 44/42/4 42/40/4 41/39/1 
f 45/43/1 8/44/4 44/42/4 43/41/1 
f 46/45/3 47/46/2 48/47/13 49/48/3 
f 50/49/3 51/50/2 47/46/2 46/45/3 
f 52/51/3 53/52/2 51/50/2 50/49/3 
f 54/53/3 55/54/2 53/52/2 52/51/3 
f 56/10/3 2/9/2 55/54/2 54/53/3 
f 7/8/3 3/7/2 2/9/2 56/10/3 
f 26/55/2 57/56/3 58/57/3 27/58/11 
f 29/59/2 59/60/3 57/56/3 26/55/2 
f 31/61/2 60/62/3 59/60/3 29/59/2 
f 33/63/2 61/64/3 60/62/3 31/61/2 
f 6/6/2 5/5/3 61/64/3 33/63/2 
f 62/55/4 63/58/14 64/57/5 65/56/5 
f 66/59/4 62/55/4 65/56/5 67/60/5 
f 68/61/4 66/59/4 67/60/5 69/62/5 
f 70/63/4 68/61/4 69/62/5 71/64/5 
f 72/6/4 70/63/4 71/64/5 73/5/5 
f 9/7/4 72/6/4 73/5/5 10/8/5 
f 74/45/5 75/48/5 37/47/12 36/46/4 
f 76/49/5 74/45/5 36/46/4 40/50/4 
f 77/51/5 76/49/5 40/50/4 42/52/4 
f 78/53/5 77/51/5 42/52/4 44/54/4 
f 11/10/5 78/53/5 44/54/4 8/9/4 
f 79/65/6 65/66/5 64/67/5 
f 80/68/6 67/69/5 65/66/5 79/65/6 
f 81/70/6 69/71/5 67/69/5 80/68/6 
f 82/72/6 71/73/5 69/71/5 81/70/6 
f 83/74/6 73/75/5 71/73/5 82/72/6 
f 13/14/6 10/13/5 73/75/5 83/74/6 
f 84/76/6 46/77/3 49/78/3 85/79/6 
f 86/80/6 50/81/3 46/77/3 84/76/6 
f 87/82/6 52/83/3 50/81/3 86/80/6 
f 88/84/6 54/85/3 52/83/3 87/82/6 
f 89/86/6 56/87/3 54/85/3 88/84/6 
f 90/88/7 91/89/7 92/89/8 93/88/8 
f 94/90/7 90/88/7 93/88/8 95/90/8 
f 96/91/7 94/90/7 95/90/8 97/91/8 
f 98/92/7 96/91/7 97/91/8 99/92/8 
f 100/93/7 98/92/7 99/92/8 101/93/8 
f 15/16/7 100/93/7 101/93/8 16/16/8 
f 102/94/8 103/95/8 104/95/7 105/94/7 
f 106/96/8 102/94/8 105/94/7 107/96/7 
f 108/97/8 106/96/8 107/96/7 109/97/7 
f 110/98/8 108/97/8 109/97/7 111/98/7 
f 17/15/8 110/98/8 111/98/7 14/15/7 
f 112/99/9 113/100/9 114/100/10 115/99/10 
f 116/101/9 112/99/9 115/99/10 117/101/10 
f 118/102/9 116/101/9 117/101/10 119/102/10 
f 120/103/9 118/102/9 119/102/10 121/103/10 
f 23/20/9 120/103/9 121/103/10 122/20/10 
f 19/18/9 23/20/9 122/20/10 20/18/10 
f 123/104/10 124/105/10 125/105/9 126/104/9 
f 127/106/10 123/104/10 126/104/9 128/106/9 
f 129/107/10 127/106/10 128/106/9 130/107/9 
f 131/108/10 129/107/10 130/107/9 132/108/9 
f 21/17/10 131/108/10 132/108/9 18/17/9 
f 133/109/1 126/104/9 125/105/9 134/110/1 
f 135/111/1 128/106/9 126/104/9 133/109/1 
f 136/112/1 130/107/9 128/106/9 135/111/1 
f 137/113/1 132/108/9 130/107/9 136/112/1 
f 138/114/1 18/17/9 132/108/9 137/113/1 
f 24/21/1 19/18/9 18/17/9 138/114/1 
f 139/115/1 105/94/7 104/95/7 140/116/1 
f 141/117/1 107/96/7 105/94/7 139/115/1 
f 142/118/1 109/97/7 107/96/7 141/117/1 
f 143/119/1 111/98/7 109/97/7 142/118/1 
f 144/120/1 14/15/7 111/98/7 143/119/1 
f 45/43/1 145/121/1 146/122/1 147/123/1 
f 89/86/6 148/124/6 149/125/6 150/126/6 
f 144/120/1 151/127/1 152/128/1 153/129/1 
f 154/130/1 155/131/1 156/132/1 63/133/14 
f 157/134/1 158/135/1 155/131/1 154/130/1 
f 159/136/1 160/137/1 158/135/1 157/134/1 
f 161/138/1 162/139/1 160/137/1 159/136/1 
f 163/140/1 164/141/1 162/139/1 161/138/1 
f 147/123/1 146/122/1 164/141/1 163/140/1 
f 165/142/1 166/143/1 167/144/1 168/145/1 
f 169/146/1 170/147/1 166/143/1 165/142/1 
f 171/148/1 172/149/1 170/147/1 169/146/1 
f 173/150/1 174/151/1 172/149/1 171/148/1 
f 1/1/1 145/121/1 174/151/1 173/150/1 
f 175/152/6 176/153/6 177/154/6 58/155/3 
f 178/156/6 179/157/6 176/153/6 175/152/6 
f 180/158/6 181/159/6 179/157/6 178/156/6 
f 182/160/6 183/161/6 181/159/6 180/158/6 
f 184/162/6 185/163/6 183/161/6 182/160/6 
f 150/126/6 149/125/6 185/163/6 184/162/6 
f 186/164/6 187/165/6 188/166/6 189/167/6 
f 190/168/6 191/169/6 187/165/6 186/164/6 
f 192/170/6 193/171/6 191/169/6 190/168/6 
f 194/172/6 195/173/6 193/171/6 192/170/6 
f 12/11/6 148/124/6 195/173/6 194/172/6 
f 196/174/1 197/175/1 198/176/1 199/177/1 
f 200/178/1 201/179/1 197/175/1 196/174/1 
f 202/180/1 203/181/1 201/179/1 200/178/1 
f 204/182/1 205/183/1 203/181/1 202/180/1 
f 206/184/1 207/185/1 205/183/1 204/182/1 
f 153/129/1 152/128/1 207/185/1 206/184/1 
f 208/186/1 209/187/1 210/188/1 211/189/1 
f 212/190/1 213/191/1 209/187/1 208/186/1 
f 214/192/1 215/193/1 213/191/1 212/190/1 
f 216/194/1 217/195/1 215/193/1 214/192/1 
f 22/19/1 151/127/1 217/195/1 216/194/1 
f 148/124/6 12/11/6 13/14/6 149/125/6 
f 151/127/1 22/19/1 24/21/1 152/128/1 
f 166/143/1 35/33/1 38/36/1 167/144/1 
f 170/147/1 39/37/1 35/33/1 166/143/1 
f 172/149/1 41/39/1 39/37/1 170/147/1 
f 174/151/1 43/41/1 41/39/1 172/149/1 
f 145/121/1 45/43/1 43/41/1 174/151/1 
f 177/154/6 176/153/6 79/65/6 64/67/5 
f 179/157/6 80/68/6 79/65/6 176/153/6 
f 181/159/6 81/70/6 80/68/6 179/157/6 
f 183/161/6 82/72/6 81/70/6 181/159/6 
f 185/163/6 83/74/6 82/72/6 183/161/6 
f 149/125/6 13/14/6 83/74/6 185/163/6 
f 197/175/1 133/109/1 134/110/1 198/176/1 
f 201/179/1 135/111/1 133/109/1 197/175/1 
f 203/181/1 136/112/1 135/111/1 201/179/1 
f 205/183/1 137/113/1 136/112/1 203/181/1 
f 207/185/1 138/114/1 137/113/1 205/183/1 
f 152/128/1 24/21/1 138/114/1 207/185/1 
f 8/44/4 45/43/1 147/123/1 9/196/4 
f 62/197/4 154/130/1 63/133/14 
f 66/198/4 157/134/1 154/130/1 62/197/4 
f 68/199/4 159/136/1 157/134/1 66/198/4 
f 70/200/4 161/138/1 159/136/1 68/199/4 
f 72/201/4 163/140/1 161/138/1 70/200/4 
f 9/196/4 147/123/1 163/140/1 72/201/4 
f 74/202/5 186/164/6 189/167/6 75/203/5 
f 76/204/5 190/168/6 186/164/6 74/202/5 
f 77/205/5 192/170/6 190/168/6 76/204/5 
f 78/206/5 194/172/6 192/170/6 77/205/5 
f 11/12/5 12/11/6 194/172/6 78/206/5 
f 112/99/9 208/186/1 211/189/1 113/100/9 
f 116/101/9 212/190/1 208/186/1 112/99/9 
f 118/102/9 214/192/1 212/190/1 116/101/9 
f 120/103/9 216/194/1 214/192/1 118/102/9 
f 23/20/9 22/19/1 216/194/1 120/103/9 
f 145/121/1 1/1/1 4/4/1 146/122/1 
f 156/132/1 155/131/1 25/22/1 27/24/11 
f 158/135/1 28/25/1 25/22/1 155/131/1 
f 160/137/1 30/27/1 28/25/1 158/135/1 
f 162/139/1 32/29/1 30/27/1 160/137/1 
f 164/141/1 34/31/1 32/29/1 162/139/1 
f 146/122/1 4/4/1 34/31/1 164/141/1 
f 187/165/6 84/76/6 85/79/6 188/166/6 
f 191/169/6 86/80/6 84/76/6 187/165/6 
f 193/171/6 87/82/6 86/80/6 191/169/6 
f 195/173/6 88/84/6 87/82/6 193/171/6 
f 148/124/6 89/86/6 88/84/6 195/173/6 
f 209/187/1 139/115/1 140/116/1 210/188/1 
f 213/191/1 141/117/1 139/115/1 209/187/1 
f 215/193/1 142/118/1 141/117/1 213/191/1 
f 217/195/1 143/119/1 142/118/1 215/193/1 
f 151/127/1 144/120/1 143/119/1 217/195/1 
f 56/87/3 89/86/6 150/126/6 7/207/3 
f 14/15/7 144/120/1 153/129/1 15/16/7 
f 47/208/2 165/142/1 168/145/1 48/209/13 
f 51/210/2 169/146/1 165/142/1 47/208/2 
f 53/211/2 171/148/1 169/146/1 51/210/2 
f 55/212/2 173/150/1 171/148/1 53/211/2 
f 2/2/2 1/1/1 173/150/1 55/212/2 
f 57/213/3 175/152/6 58/155/3 
f 59/214/3 178/156/6 175/152/6 57/213/3 
f 60/215/3 180/158/6 178/156/6 59/214/3 
f 61/216/3 182/160/6 180/158/6 60/215/3 
f 5/217/3 184/162/6 182/160/6 61/216/3 
f 7/207/3 150/126/6 184/162/6 5/217/3 
f 90/88/7 196/174/1 199/177/1 91/89/7 
f 94/90/7 200/178/1 196/174/1 90/88/7 
f 96/91/7 202/180/1 200/178/1 94/90/7 
f 98/92/7 204/182/1 202/180/1 96/91/7 
f 100/93/7 206/184/1 204/182/1 98/92/7 
f 15/16/7 153/129/1 206/184/1 100/93/7 
# 188 polygons - 4 triangles

