# 3ds Max Wavefront OBJ Exporter v0.97b - (c)2007 guruware
# File Created: 18.10.2017 06:21:40

#
# object Plane001
#

v  -9.0000 0.0000 28.0000
v  -9.0000 0.0000 32.0000
v  9.0000 0.0000 32.0000
v  9.0000 0.0000 28.0000
v  -9.0000 0.0000 24.0000
v  9.0000 0.0000 24.0000
v  -9.0000 0.0000 20.0000
v  9.0000 0.0000 20.0000
v  -9.0000 0.0000 16.0000
v  9.0000 0.0000 16.0000
v  -9.0000 0.0000 12.0000
v  9.0000 0.0000 12.0000
v  -9.0000 0.0000 8.0000
v  9.0000 0.0000 8.0000
v  -9.0000 0.0000 4.0000
v  9.0000 0.0000 4.0000
v  -9.0000 0.0000 -0.0000
v  9.0000 0.0000 -0.0000
v  -9.0000 0.0000 -4.0000
v  9.0000 0.0000 -4.0000
v  -9.0000 0.0000 -8.0000
v  9.0000 0.0000 -8.0000
v  -9.0000 0.0000 -12.0000
v  9.0000 0.0000 -12.0000
v  -9.0000 0.0000 -16.0000
v  9.0000 0.0000 -16.0000
v  -9.0000 0.0000 -20.0000
v  9.0000 0.0000 -20.0000
v  -9.0000 0.0000 -24.0000
v  9.0000 0.0000 -24.0000
v  -9.0000 0.0000 -28.0000
v  9.0000 0.0000 -28.0000
v  -9.0000 0.0000 -32.0000
v  9.0000 0.0000 -32.0000
# 34 vertices

vn 0.0000 1.0000 -0.0000
# 1 vertex normals

vt 0.0865 0.0625 0.0000
vt 0.0865 0.0000 0.0000
vt 0.4148 0.0000 0.0000
vt 0.4148 0.0625 0.0000
vt 0.0865 0.1250 0.0000
vt 0.4148 0.1250 0.0000
vt 0.0865 0.1875 0.0000
vt 0.4148 0.1875 0.0000
vt 0.0865 0.2500 0.0000
vt 0.4148 0.2500 0.0000
vt 0.0865 0.3125 0.0000
vt 0.4148 0.3125 0.0000
vt 0.0865 0.3750 0.0000
vt 0.4148 0.3750 0.0000
vt 0.0865 0.4375 0.0000
vt 0.4148 0.4375 0.0000
vt 0.0865 0.5000 0.0000
vt 0.4148 0.5000 0.0000
vt 0.0865 0.5625 0.0000
vt 0.4148 0.5625 0.0000
vt 0.0865 0.6250 0.0000
vt 0.4148 0.6250 0.0000
vt 0.0865 0.6875 0.0000
vt 0.4148 0.6875 0.0000
vt 0.0865 0.7500 0.0000
vt 0.4148 0.7500 0.0000
vt 0.0865 0.8125 0.0000
vt 0.4148 0.8125 0.0000
vt 0.0865 0.8750 0.0000
vt 0.4148 0.8750 0.0000
vt 0.0865 0.9375 0.0000
vt 0.4148 0.9375 0.0000
vt 0.0865 1.0000 0.0000
vt 0.4148 1.0000 0.0000
# 34 texture coords

g Plane001
s 1
f 1/1/1 2/2/1 3/3/1 4/4/1 
f 5/5/1 1/1/1 4/4/1 6/6/1 
f 7/7/1 5/5/1 6/6/1 8/8/1 
f 9/9/1 7/7/1 8/8/1 10/10/1 
f 11/11/1 9/9/1 10/10/1 12/12/1 
f 13/13/1 11/11/1 12/12/1 14/14/1 
f 15/15/1 13/13/1 14/14/1 16/16/1 
f 17/17/1 15/15/1 16/16/1 18/18/1 
f 19/19/1 17/17/1 18/18/1 20/20/1 
f 21/21/1 19/19/1 20/20/1 22/22/1 
f 23/23/1 21/21/1 22/22/1 24/24/1 
f 25/25/1 23/23/1 24/24/1 26/26/1 
f 27/27/1 25/25/1 26/26/1 28/28/1 
f 29/29/1 27/27/1 28/28/1 30/30/1 
f 31/31/1 29/29/1 30/30/1 32/32/1 
f 33/33/1 31/31/1 32/32/1 34/34/1 
# 16 polygons

