# 3ds Max Wavefront OBJ Exporter v0.97b - (c)2007 guruware
# File Created: 10.10.2015 13:53:55

#
# object Plane005
#

v  8.00000 7.50000 -32.00000
v  6.00000 7.50000 -30.00000
v  7.99999 7.50000 -30.00000
v  -6.00000 0.10000 -32.00000
v  -6.00469 0.09687 -30.00000
v  6.00000 0.09687 -30.00000
v  6.00000 0.10000 -32.00000
v  -6.07734 4.25000 1.00001
v  -8.00002 4.25000 1.00000
v  -8.00000 2.62500 16.50000
v  -6.11367 2.62500 16.50000
v  6.00000 0.04844 1.00000
v  -6.07734 0.04844 1.00001
v  -6.11367 0.02422 16.50000
v  6.00000 0.02422 16.50000
v  8.00000 -3.00001 -32.00001
v  8.00001 -2.90626 -30.00000
v  6.00000 2.62500 16.50000
v  6.00000 4.25000 1.00000
v  6.00000 0.00000 32.00000
v  8.00001 0.00000 32.00000
v  8.00001 1.00000 32.00000
v  6.00000 1.00000 32.00000
v  -8.00000 -1.45313 1.00000
v  -8.00000 -0.72656 16.50000
v  -8.00000 0.00000 32.00000
v  -6.14999 0.00000 32.00000
v  -6.14999 1.00000 32.00000
v  -8.00000 1.00000 32.00000
v  -6.00000 6.00000 -32.00000
v  -6.00469 6.00000 -30.00000
v  8.00000 4.25000 1.00000
v  8.00000 5.87500 -14.50000
v  6.00000 5.87500 -14.50000
v  -6.00469 7.50000 -30.00000
v  -8.00004 7.49999 -32.00000
v  -8.00003 7.50000 -30.00000
v  8.00001 -1.45313 1.00000
v  8.00001 -2.17969 -14.50000
v  -8.00000 -3.00001 -32.00000
v  -8.00000 -2.90626 -30.00000
v  -6.04102 0.07266 -14.49999
v  -6.04102 5.87500 -14.49999
v  6.00000 6.00000 -30.00000
v  6.00000 6.00000 -32.00000
v  -0.00001 7.50000 -30.00000
v  -0.00001 6.00000 -30.00000
v  -0.00001 6.00000 -32.00000
v  -0.00001 7.50000 -32.00000
v  -8.00002 5.87500 -14.50000
v  6.00000 0.07266 -14.50000
v  -8.00000 -2.17969 -14.50000
v  8.00000 2.62500 16.50000
v  8.00001 -0.72656 16.50000
# 54 vertices

vn -0.00000 1.00000 -0.00000
vn 0.00000 0.99758 0.06960
vn 0.00000 0.99864 0.05220
vn 0.00000 1.00000 0.00156
vn -0.00000 0.99455 0.10427
vn 1.00000 0.00000 0.00000
vn 1.00000 0.00000 -0.00000
vn -1.00000 0.00000 0.00000
vn 0.00000 0.00000 1.00000
vn -1.00000 -0.00000 0.00000
vn 1.00000 0.00000 0.00234
vn 0.00000 0.99455 0.10427
vn -0.00000 0.99758 0.06953
vn -0.00000 0.99864 0.05220
vn 0.00000 -0.00000 1.00000
vn -0.00000 -1.00000 -0.00000
vn -1.00000 0.00000 -0.00000
vn 1.00000 -0.00000 0.00234
# 18 vertex normals

vt 0.07847 0.00042 0.00000
vt 0.11376 0.03166 0.00000
vt 0.07845 0.03166 0.00000
vt 0.13200 0.00008 0.00000
vt 0.13198 0.03132 0.00000
vt 0.13198 0.00007 0.00000
vt 0.11355 0.48466 0.00000
vt 0.07824 0.48467 0.00000
vt 0.07835 0.24255 0.00000
vt 0.11366 0.24254 0.00000
vt 0.13200 0.51565 0.00000
vt 0.13177 0.51557 0.00000
vt 0.13167 0.75770 0.00000
vt 0.13202 0.75782 0.00000
vt 0.11342 0.75803 0.00000
vt 0.11354 0.51590 0.00000
vt 0.11331 1.00015 0.00000
vt 0.07800 1.00016 0.00000
vt 0.11378 0.00042 0.00000
vt 0.11333 0.96891 0.00000
vt 0.07822 0.51591 0.00000
vt 0.07834 0.27379 0.00000
vt 0.11365 0.27378 0.00000
vt 0.07801 0.96892 0.00000
vt 0.11344 0.72679 0.00000
vt 0.11354 0.50021 0.00000
vt 0.11354 0.50028 0.00000
vt 0.07823 0.50029 0.00000
vt 0.07813 0.72679 0.00000
vt 0.13188 0.27345 0.00000
vt 0.13199 0.27349 0.00000
vt 0.13156 0.99983 0.00000
vt 0.13203 0.99999 0.00000
vt 0.07811 0.75803 0.00000
# 34 texture coords

g Plane005
f 1/1/1 2/2/2 3/3/3 
f 4/4/4 5/5/4 6/5/4 
f 6/5/4 7/6/4 4/4/4 
f 8/7/5 9/8/5 10/9/5 
f 10/9/5 11/10/5 8/7/5 
f 12/11/4 13/12/4 14/13/4 
f 14/13/4 15/14/4 12/11/4 
f 16/1/6 1/1/6 3/3/6 
f 3/3/7 17/3/7 16/1/7 
f 18/15/8 19/16/8 12/16/8 
f 12/16/8 15/15/8 18/15/8 
f 20/17/9 21/18/9 22/18/9 
f 22/18/9 23/17/9 20/17/9 
f 10/9/10 9/8/10 24/8/10 
f 24/8/10 25/9/10 10/9/10 
f 26/1/9 27/19/9 28/19/9 
f 28/19/9 29/1/9 26/1/9 
f 30/17/11 31/20/11 5/20/11 
f 5/20/11 4/17/11 30/17/11 
f 19/16/12 32/21/12 33/22/12 
f 33/22/12 34/23/12 19/16/12 
f 35/20/13 36/18/1 37/24/14 
f 32/21/7 38/21/7 39/22/7 
f 39/22/7 33/22/7 32/21/7 
f 37/24/10 36/18/10 40/18/10 
f 40/18/10 41/24/10 37/24/10 
f 8/7/11 13/7/11 42/25/11 
f 42/25/11 43/25/11 8/7/11 
f 7/19/8 6/2/8 44/2/8 
f 44/2/8 45/19/8 7/19/8 
f 2/2/15 46/26/15 47/26/15 
f 47/26/9 44/2/9 2/2/9 
f 44/2/16 47/26/16 48/27/16 
f 48/27/16 45/19/16 44/2/16 
f 2/2/1 1/1/1 49/28/1 
f 49/28/1 46/26/1 2/2/1 
f 35/20/9 31/20/9 47/26/9 
f 47/26/15 46/26/15 35/20/15 
f 31/20/16 30/17/16 48/27/16 
f 48/27/16 47/26/16 31/20/16 
f 49/28/1 36/18/1 35/20/1 
f 35/20/1 46/26/1 49/28/1 
f 35/20/13 37/24/14 50/29/5 
f 50/29/5 43/25/5 35/20/13 
f 43/25/5 50/29/5 9/8/5 
f 9/8/5 8/7/5 43/25/5 
f 29/1/12 28/19/12 11/10/5 
f 11/10/5 10/9/5 29/1/12 
f 6/5/4 5/5/4 42/30/4 
f 42/30/4 51/31/4 6/5/4 
f 51/31/4 42/30/4 13/12/4 
f 13/12/4 12/11/4 51/31/4 
f 27/32/4 20/33/4 15/14/4 
f 15/14/4 14/13/4 27/32/4 
f 34/23/8 2/2/8 44/2/8 
f 34/23/8 44/2/8 6/2/8 
f 34/23/8 6/2/8 51/23/8 
f 19/16/8 34/23/8 51/23/8 
f 51/23/8 12/16/8 19/16/8 
f 15/15/8 20/17/8 23/17/8 
f 23/17/8 18/15/8 15/15/8 
f 50/29/10 37/24/10 41/24/10 
f 41/24/10 52/29/10 50/29/10 
f 9/8/10 50/29/10 52/29/10 
f 52/29/10 24/8/10 9/8/10 
f 25/9/17 26/1/17 29/1/17 
f 29/1/10 10/9/10 25/9/10 
f 23/17/12 22/18/12 53/34/12 
f 53/34/12 18/15/12 23/17/12 
f 18/15/12 53/34/12 32/21/12 
f 32/21/12 19/16/12 18/15/12 
f 3/3/3 2/2/2 34/23/12 
f 34/23/12 33/22/12 3/3/3 
f 22/18/6 21/18/6 54/34/6 
f 54/34/7 53/34/7 22/18/7 
f 53/34/7 54/34/7 38/21/7 
f 38/21/7 32/21/7 53/34/7 
f 17/3/7 3/3/7 33/22/7 
f 33/22/7 39/22/7 17/3/7 
f 28/19/11 27/19/11 14/10/11 
f 14/10/18 11/10/18 28/19/18 
f 8/7/18 11/10/18 14/10/18 
f 14/10/11 13/7/11 8/7/11 
f 42/25/11 5/20/11 31/20/11 
f 42/25/11 31/20/11 35/20/11 
f 42/25/11 35/20/11 43/25/11 
# 86 faces

