# 3ds Max Wavefront OBJ Exporter v0.97b - (c)2007 guruware
# File Created: 10.10.2015 10:48:10

#
# object Plane005
#

v  5.50000 -0.15000 -0.00000
v  0.00000 -0.15000 -0.00000
v  -0.00000 -0.17500 5.33334
v  5.58333 -0.17500 5.33333
v  -6.41667 0.00000 -5.33333
v  -6.50000 0.00000 -0.00000
v  -5.50000 -0.00000 -0.00000
v  -5.41667 -0.00000 -5.33333
v  -6.41667 6.41667 -5.33333
v  -6.50000 6.50000 -0.00000
v  6.50000 6.50000 -0.00001
v  6.50000 0.00000 -0.00000
v  6.58333 0.00000 5.33333
v  6.58333 6.58333 5.33333
v  6.41667 6.41667 -5.33334
v  -0.00000 6.50000 -0.00000
v  0.00000 6.41667 -5.33333
v  8.00001 -1.54167 5.33333
v  8.00001 -1.75000 -0.00001
v  7.99999 7.50000 -0.00001
v  7.99999 7.50000 5.33333
v  -7.99999 -1.75000 -0.00000
v  -8.00001 7.50000 -0.00000
v  -8.00002 7.50000 -5.33334
v  -7.99999 -1.95834 -5.33334
v  -0.00001 7.50000 -0.00000
v  -0.00002 7.50000 -5.33334
v  5.50000 -0.00000 -0.00000
v  6.41667 0.00000 -5.33333
v  5.41667 -0.00000 -5.33333
v  -0.00001 7.50000 5.33333
v  -5.41667 -0.12500 -5.33333
v  -5.50000 -0.15000 -0.00000
v  0.00000 -0.12500 -5.33333
v  -0.00000 6.58333 5.33333
v  -6.58333 6.58333 5.33334
v  5.58333 -0.00000 5.33333
v  5.00000 -0.00000 -32.00000
v  0.00001 -0.00000 -32.00000
v  0.00001 -0.02500 -26.66667
v  5.08333 -0.02500 -26.66667
v  0.00001 -0.05000 -21.33333
v  5.16667 -0.05000 -21.33333
v  0.00001 -0.07500 -16.00000
v  5.25000 -0.07500 -16.00000
v  0.00000 -0.10000 -10.66667
v  5.33333 -0.10000 -10.66667
v  5.41667 -0.12500 -5.33333
v  -0.00001 -0.30000 32.00000
v  6.00000 -0.30000 32.00000
v  5.91667 -0.27500 26.66667
v  -0.00001 -0.27500 26.66666
v  5.83333 -0.25000 21.33333
v  -0.00001 -0.25000 21.33334
v  5.75000 -0.22500 16.00000
v  -0.00000 -0.22500 16.00000
v  5.66667 -0.20000 10.66667
v  -0.00000 -0.20000 10.66666
v  -6.91667 0.00000 26.66666
v  -7.00001 0.00000 32.00000
v  -6.00000 0.00000 32.00000
v  -5.91667 -0.00000 26.66666
v  -6.83334 0.00000 21.33333
v  -5.83333 -0.00000 21.33333
v  -6.75000 0.00000 16.00000
v  -5.75000 -0.00000 16.00000
v  -6.66667 0.00000 10.66667
v  -5.66667 -0.00000 10.66666
v  -6.58333 0.00000 5.33333
v  -5.58333 -0.00000 5.33333
v  -5.08333 -0.00000 -26.66667
v  -5.00000 -0.00000 -32.00000
v  -5.99999 0.00000 -32.00000
v  -6.08333 0.00000 -26.66667
v  -5.16667 -0.00000 -21.33333
v  -6.16666 0.00000 -21.33333
v  -5.25000 -0.00000 -16.00000
v  -6.25000 0.00000 -16.00000
v  -5.33333 -0.00000 -10.66667
v  -6.33333 0.00000 -10.66667
v  -6.91667 6.91667 26.66666
v  -7.00001 7.00000 32.00000
v  -6.83334 6.83333 21.33334
v  -6.75000 6.75000 16.00000
v  -6.66667 6.66667 10.66666
v  -5.99999 6.00000 -32.00000
v  -6.08333 6.08333 -26.66667
v  -6.16666 6.16667 -21.33333
v  -6.25000 6.25000 -16.00000
v  -6.33333 6.33333 -10.66667
v  6.00001 6.00000 -32.00000
v  6.00001 0.00000 -32.00000
v  6.08334 0.00000 -26.66667
v  6.08334 6.08333 -26.66667
v  6.16667 0.00000 -21.33333
v  6.16667 6.16667 -21.33334
v  6.25000 0.00000 -16.00000
v  6.25000 6.25000 -16.00001
v  6.33334 0.00000 -10.66667
v  6.33334 6.33333 -10.66667
v  6.99999 0.00000 32.00000
v  6.99999 7.00000 32.00000
v  6.91666 6.91667 26.66666
v  6.91666 0.00000 26.66666
v  6.83333 6.83333 21.33333
v  6.83333 0.00000 21.33333
v  6.75000 6.75000 16.00000
v  6.75000 0.00000 16.00000
v  6.66667 6.66667 10.66666
v  6.66667 0.00000 10.66666
v  -0.00001 7.00000 32.00000
v  -0.00001 6.91667 26.66666
v  -0.00001 6.83333 21.33333
v  -0.00001 6.75000 16.00000
v  -0.00000 6.66667 10.66666
v  0.00001 6.08333 -26.66667
v  0.00001 6.00000 -32.00000
v  0.00000 6.16667 -21.33333
v  0.00000 6.25000 -16.00000
v  0.00000 6.33333 -10.66667
v  8.00001 -2.79167 -26.66668
v  8.00001 -3.00001 -32.00001
v  7.99997 7.49999 -32.00001
v  7.99997 7.49999 -26.66667
v  8.00001 -2.58334 -21.33335
v  7.99998 7.49999 -21.33335
v  8.00001 -2.37501 -16.00001
v  7.99998 7.49999 -16.00001
v  8.00001 -2.16667 -10.66667
v  7.99998 7.49999 -10.66667
v  8.00001 -1.95834 -5.33334
v  7.99998 7.50000 -5.33334
v  8.00000 7.50000 26.66666
v  8.00000 7.50000 32.00000
v  8.00000 -0.50000 32.00000
v  8.00000 -0.70833 26.66666
v  7.99999 7.50000 21.33333
v  8.00000 -0.91667 21.33333
v  7.99999 7.50000 16.00000
v  8.00001 -1.12500 16.00000
v  7.99999 7.50000 10.66666
v  8.00001 -1.33334 10.66666
v  -8.00000 -0.50000 32.00000
v  -8.00000 7.50000 32.00000
v  -8.00000 7.50000 26.66666
v  -8.00000 -0.70833 26.66667
v  -8.00001 7.50000 21.33334
v  -8.00000 -0.91667 21.33334
v  -8.00001 7.50000 16.00000
v  -7.99999 -1.12500 16.00000
v  -8.00001 7.50000 10.66666
v  -7.99999 -1.33334 10.66666
v  -8.00001 7.50000 5.33333
v  -7.99999 -1.54167 5.33333
v  -8.00003 7.49999 -32.00001
v  -7.99998 -3.00001 -32.00001
v  -7.99998 -2.79167 -26.66668
v  -8.00002 7.49999 -26.66667
v  -7.99999 -2.58334 -21.33334
v  -8.00002 7.49999 -21.33334
v  -7.99999 -2.37501 -16.00001
v  -8.00002 7.49999 -16.00001
v  -7.99999 -2.16667 -10.66667
v  -8.00002 7.49999 -10.66667
v  -0.00000 7.50000 32.00000
v  -0.00000 7.50000 26.66666
v  -0.00001 7.50000 21.33334
v  -0.00001 7.50000 16.00000
v  -0.00001 7.50000 10.66666
v  -0.00003 7.49999 -32.00001
v  -0.00002 7.49999 -26.66667
v  -0.00002 7.49999 -21.33334
v  -0.00002 7.49999 -16.00001
v  -0.00002 7.49999 -10.66667
v  6.00000 0.00000 32.00000
v  5.91667 -0.00000 26.66666
v  5.83333 -0.00000 21.33333
v  5.75000 -0.00000 16.00000
v  5.66667 -0.00000 10.66667
v  5.08333 -0.00000 -26.66667
v  5.16667 -0.00000 -21.33333
v  5.25000 -0.00000 -16.00000
v  5.33333 -0.00000 -10.66667
v  -5.91667 -0.27500 26.66667
v  -6.00000 -0.30000 32.00000
v  -5.83333 -0.25000 21.33333
v  -5.75000 -0.22500 16.00000
v  -5.66667 -0.20000 10.66667
v  -5.58333 -0.17500 5.33333
v  -5.08333 -0.02500 -26.66667
v  -5.16667 -0.05000 -21.33333
v  -5.25000 -0.07500 -16.00000
v  -5.33333 -0.10000 -10.66667
# 193 vertices

vn 0.00000 0.99999 0.00469
vn 0.00000 1.00000 0.00000
vn 0.00000 1.00000 -0.00000
vn 0.99988 -0.00000 0.01562
vn -0.99988 0.00000 0.01562
vn 0.00000 -0.99988 0.01562
vn 1.00000 0.00000 0.00000
vn 1.00000 0.00000 -0.00000
vn -1.00000 -0.00000 0.00000
vn -1.00000 -0.00000 -0.00000
vn -0.00000 1.00000 -0.00000
vn -0.00000 1.00000 0.00000
vn -0.00000 0.99999 0.00469
vn 0.99988 0.00000 0.01562
vn -0.00000 1.00000 0.00237
vn 0.00000 1.00000 0.00237
vn -0.99988 -0.00000 0.01562
# 17 vertex normals

vt 0.34368 0.50000 0.00000
vt 0.23985 0.50000 0.00000
vt 0.23985 0.41667 0.00000
vt 0.34369 0.41667 0.00000
vt 0.12290 1.00000 0.00000
vt 0.12135 1.00000 0.00000
vt 0.13128 1.00000 0.00000
vt 0.13138 1.00000 0.00000
vt 0.74425 0.58333 0.00000
vt 0.74425 0.50000 0.00000
vt 0.69702 0.50000 0.00000
vt 0.69702 0.58333 0.00000
vt 0.69702 0.41667 0.00000
vt 0.74425 0.41667 0.00000
vt 0.73270 0.58333 0.00000
vt 0.73270 0.50000 0.00000
vt 0.76596 0.50000 0.00000
vt 0.76596 0.58333 0.00000
vt 0.10769 0.41667 0.00000
vt 0.10769 0.50000 0.00000
vt 0.02769 0.50000 0.00000
vt 0.02769 0.58333 0.00000
vt 0.06769 0.50000 0.00000
vt 0.06769 0.58333 0.00000
vt 0.34702 1.00000 0.00000
vt 0.35971 1.00000 0.00000
vt 0.35816 1.00000 0.00000
vt 0.34645 1.00000 0.00000
vt 0.06769 0.41667 0.00000
vt 0.13194 0.58333 0.00000
vt 0.13195 0.50000 0.00000
vt 0.23985 0.58333 0.00000
vt 0.76596 0.41667 0.00000
vt 0.73270 0.41667 0.00000
vt 0.15133 0.50003 0.00000
vt 0.15133 0.58336 0.00000
vt 0.15133 0.50004 0.00000
vt 0.15133 0.41672 0.00000
vt 0.34361 0.99998 0.00000
vt 0.23985 0.99998 0.00000
vt 0.23985 0.91665 0.00000
vt 0.34362 0.91665 0.00000
vt 0.23985 0.83332 0.00000
vt 0.34363 0.83332 0.00000
vt 0.23985 0.74999 0.00000
vt 0.34365 0.74999 0.00000
vt 0.23985 0.66666 0.00000
vt 0.34366 0.66666 0.00000
vt 0.34367 0.58333 0.00000
vt 0.23985 0.00002 0.00000
vt 0.34374 0.00002 0.00000
vt 0.34373 0.08335 0.00000
vt 0.23985 0.08335 0.00000
vt 0.34372 0.16668 0.00000
vt 0.23985 0.16668 0.00000
vt 0.34371 0.25001 0.00000
vt 0.23985 0.25001 0.00000
vt 0.34370 0.33334 0.00000
vt 0.23985 0.33334 0.00000
vt 0.11361 1.00001 0.00000
vt 0.11206 1.00002 0.00000
vt 0.13063 1.00002 0.00000
vt 0.13074 1.00001 0.00000
vt 0.11516 1.00001 0.00000
vt 0.13085 1.00001 0.00000
vt 0.11671 1.00001 0.00000
vt 0.13096 1.00001 0.00000
vt 0.11825 1.00001 0.00000
vt 0.13106 1.00001 0.00000
vt 0.11980 1.00000 0.00000
vt 0.13117 1.00000 0.00000
vt 0.13181 0.99998 0.00000
vt 0.13192 0.99998 0.00000
vt 0.13063 0.99998 0.00000
vt 0.12909 0.99999 0.00000
vt 0.13171 0.99999 0.00000
vt 0.12754 0.99999 0.00000
vt 0.13160 0.99999 0.00000
vt 0.12599 0.99999 0.00000
vt 0.13149 0.99999 0.00000
vt 0.12444 0.99999 0.00000
vt 0.74425 0.08333 0.00000
vt 0.74425 0.00000 0.00000
vt 0.69702 0.00000 0.00000
vt 0.69702 0.08333 0.00000
vt 0.74425 0.16667 0.00000
vt 0.69702 0.16667 0.00000
vt 0.74425 0.25000 0.00000
vt 0.69702 0.25000 0.00000
vt 0.74425 0.33333 0.00000
vt 0.69702 0.33333 0.00000
vt 0.69702 0.91667 0.00000
vt 0.69702 1.00000 0.00000
vt 0.74425 1.00000 0.00000
vt 0.74425 0.91667 0.00000
vt 0.69702 0.83333 0.00000
vt 0.74425 0.83333 0.00000
vt 0.69702 0.75000 0.00000
vt 0.74425 0.75000 0.00000
vt 0.69702 0.66667 0.00000
vt 0.74425 0.66667 0.00000
vt 0.73270 0.08333 0.00000
vt 0.73270 0.00000 0.00000
vt 0.76596 0.00000 0.00000
vt 0.76596 0.08333 0.00000
vt 0.73270 0.16667 0.00000
vt 0.76596 0.16667 0.00000
vt 0.73270 0.25000 0.00000
vt 0.76596 0.25000 0.00000
vt 0.73270 0.33333 0.00000
vt 0.76596 0.33333 0.00000
vt 0.76596 0.91667 0.00000
vt 0.76596 1.00000 0.00000
vt 0.73270 1.00000 0.00000
vt 0.73270 0.91667 0.00000
vt 0.76596 0.83333 0.00000
vt 0.73270 0.83333 0.00000
vt 0.76596 0.75000 0.00000
vt 0.73270 0.75000 0.00000
vt 0.76596 0.66667 0.00000
vt 0.73270 0.66667 0.00000
vt 0.10769 0.91667 0.00000
vt 0.10769 1.00000 0.00000
vt 0.10769 0.83333 0.00000
vt 0.10769 0.75000 0.00000
vt 0.10769 0.66667 0.00000
vt 0.10769 0.58333 0.00000
vt 0.10769 0.08333 0.00000
vt 0.10769 0.00000 0.00000
vt 0.10769 0.16667 0.00000
vt 0.10769 0.25000 0.00000
vt 0.10769 0.33333 0.00000
vt 0.02769 0.00000 0.00000
vt 0.02769 0.08333 0.00000
vt 0.02769 0.16667 0.00000
vt 0.02769 0.25000 0.00000
vt 0.02769 0.33333 0.00000
vt 0.02769 0.41667 0.00000
vt 0.02769 1.00000 0.00000
vt 0.02769 0.91667 0.00000
vt 0.02769 0.83333 0.00000
vt 0.02769 0.75000 0.00000
vt 0.02769 0.66667 0.00000
vt 0.06769 0.00000 0.00000
vt 0.06769 0.08333 0.00000
vt 0.06769 0.16667 0.00000
vt 0.06769 0.25000 0.00000
vt 0.06769 0.33333 0.00000
vt 0.06769 1.00000 0.00000
vt 0.06769 0.91667 0.00000
vt 0.06769 0.83333 0.00000
vt 0.06769 0.75000 0.00000
vt 0.06769 0.66667 0.00000
vt 0.35042 1.00002 0.00000
vt 0.36899 1.00002 0.00000
vt 0.36744 1.00001 0.00000
vt 0.34985 1.00001 0.00000
vt 0.36590 1.00001 0.00000
vt 0.34928 1.00001 0.00000
vt 0.36435 1.00001 0.00000
vt 0.34872 1.00001 0.00000
vt 0.36280 1.00001 0.00000
vt 0.34815 1.00001 0.00000
vt 0.36125 1.00000 0.00000
vt 0.34758 1.00000 0.00000
vt 0.35042 0.99998 0.00000
vt 0.34418 0.99998 0.00000
vt 0.35197 0.99999 0.00000
vt 0.34475 0.99999 0.00000
vt 0.35351 0.99999 0.00000
vt 0.34531 0.99999 0.00000
vt 0.35506 0.99999 0.00000
vt 0.34588 0.99999 0.00000
vt 0.35661 0.99999 0.00000
vt 0.13197 0.08335 0.00000
vt 0.13198 0.00002 0.00000
vt 0.13197 0.16668 0.00000
vt 0.13196 0.25001 0.00000
vt 0.13196 0.33334 0.00000
vt 0.13195 0.41667 0.00000
vt 0.13193 0.91665 0.00000
vt 0.13193 0.83332 0.00000
vt 0.13193 0.74999 0.00000
vt 0.13194 0.66666 0.00000
vt 0.15133 0.00007 0.00000
vt 0.15133 0.08340 0.00000
vt 0.15133 0.16673 0.00000
vt 0.15133 0.25005 0.00000
vt 0.15133 0.33338 0.00000
vt 0.15133 0.41670 0.00000
vt 0.15132 0.91666 0.00000
vt 0.15132 0.99999 0.00000
vt 0.15132 0.83333 0.00000
vt 0.15132 0.75001 0.00000
vt 0.15132 0.66668 0.00000
vt 0.15132 0.91660 0.00000
vt 0.15132 0.99991 0.00000
vt 0.15132 0.83329 0.00000
vt 0.15132 0.74997 0.00000
vt 0.15132 0.66666 0.00000
vt 0.15133 0.58335 0.00000
vt 0.15133 0.00016 0.00000
vt 0.15133 0.08347 0.00000
vt 0.15133 0.16678 0.00000
vt 0.15133 0.25010 0.00000
vt 0.15133 0.33341 0.00000
# 206 texture coords

g Plane005
f 1/1/1 2/2/1 3/3/1 
f 3/3/1 4/4/1 1/1/1 
f 5/5/2 6/6/2 7/7/3 
f 7/7/3 8/8/2 5/5/2 
f 9/9/4 10/10/4 6/11/4 
f 6/11/4 5/12/4 9/9/4 
f 11/10/5 12/11/5 13/13/5 
f 13/13/5 14/14/5 11/10/5 
f 15/15/6 11/16/6 16/17/6 
f 16/17/6 17/18/6 15/15/6 
f 18/19/7 19/20/7 20/20/7 
f 20/20/8 21/19/8 18/19/8 
f 22/21/9 23/21/9 24/22/9 
f 24/22/10 25/22/10 22/21/10 
f 23/21/3 26/23/3 27/24/3 
f 27/24/3 24/22/3 23/21/3 
f 28/25/11 12/26/12 29/27/12 
f 29/27/12 30/28/12 28/25/11 
f 20/20/11 26/23/11 31/29/11 
f 31/29/3 21/19/3 20/20/3 
f 32/30/13 33/31/13 2/2/1 
f 2/2/1 34/32/1 32/30/13 
f 10/16/6 16/17/6 35/33/6 
f 35/33/6 36/34/6 10/16/6 
f 7/35/14 33/35/14 32/36/14 
f 32/36/14 8/36/14 7/35/14 
f 28/37/5 1/37/5 4/38/5 
f 4/38/5 37/38/5 28/37/5 
f 38/39/15 39/40/1 40/41/1 
f 40/41/1 41/42/1 38/39/15 
f 41/42/1 40/41/1 42/43/1 
f 42/43/1 43/44/1 41/42/1 
f 43/44/1 42/43/1 44/45/1 
f 44/45/1 45/46/1 43/44/1 
f 45/46/1 44/45/1 46/47/1 
f 46/47/1 47/48/1 45/46/1 
f 47/48/1 46/47/1 34/32/1 
f 34/32/1 48/49/1 47/48/1 
f 48/49/1 34/32/1 2/2/1 
f 2/2/1 1/1/1 48/49/1 
f 49/50/1 50/51/1 51/52/1 
f 51/52/1 52/53/1 49/50/1 
f 52/53/1 51/52/1 53/54/1 
f 53/54/1 54/55/13 52/53/1 
f 54/55/13 53/54/1 55/56/1 
f 55/56/1 56/57/13 54/55/13 
f 56/57/13 55/56/1 57/58/1 
f 57/58/1 58/59/1 56/57/13 
f 58/59/1 57/58/1 4/4/1 
f 4/4/1 3/3/1 58/59/1 
f 59/60/3 60/61/3 61/62/3 
f 61/62/3 62/63/3 59/60/3 
f 63/64/3 59/60/3 62/63/3 
f 62/63/3 64/65/3 63/64/3 
f 65/66/3 63/64/3 64/65/3 
f 64/65/3 66/67/3 65/66/3 
f 67/68/3 65/66/3 66/67/3 
f 66/67/3 68/69/3 67/68/3 
f 69/70/3 67/68/3 68/69/3 
f 68/69/3 70/71/3 69/70/3 
f 6/6/2 69/70/3 70/71/3 
f 70/71/3 7/7/3 6/6/2 
f 71/72/2 72/73/16 73/74/2 
f 73/74/2 74/75/2 71/72/2 
f 75/76/2 71/72/2 74/75/2 
f 74/75/2 76/77/2 75/76/2 
f 77/78/2 75/76/2 76/77/2 
f 76/77/2 78/79/2 77/78/2 
f 79/80/2 77/78/2 78/79/2 
f 78/79/2 80/81/2 79/80/2 
f 8/8/2 79/80/2 80/81/2 
f 80/81/2 5/5/2 8/8/2 
f 81/82/14 82/83/14 60/84/14 
f 60/84/14 59/85/14 81/82/14 
f 83/86/14 81/82/14 59/85/14 
f 59/85/4 63/87/4 83/86/4 
f 84/88/4 83/86/4 63/87/4 
f 63/87/4 65/89/4 84/88/4 
f 85/90/4 84/88/4 65/89/4 
f 65/89/14 67/91/14 85/90/14 
f 36/14/14 85/90/14 67/91/14 
f 67/91/4 69/13/4 36/14/4 
f 10/10/4 36/14/4 69/13/4 
f 69/13/4 6/11/4 10/10/4 
f 74/92/14 73/93/14 86/94/14 
f 86/94/14 87/95/14 74/92/14 
f 76/96/14 74/92/14 87/95/14 
f 87/95/4 88/97/4 76/96/4 
f 78/98/4 76/96/4 88/97/4 
f 88/97/4 89/99/4 78/98/4 
f 80/100/4 78/98/4 89/99/4 
f 89/99/14 90/101/14 80/100/14 
f 5/12/14 80/100/14 90/101/14 
f 90/101/4 9/9/4 5/12/4 
f 91/94/5 92/93/5 93/92/5 
f 93/92/5 94/95/5 91/94/5 
f 94/95/5 93/92/5 95/96/5 
f 95/96/5 96/97/5 94/95/5 
f 96/97/5 95/96/5 97/98/5 
f 97/98/5 98/99/5 96/97/5 
f 98/99/5 97/98/5 99/100/5 
f 99/100/5 100/101/5 98/99/5 
f 100/101/5 99/100/5 29/12/5 
f 29/12/5 15/9/5 100/101/5 
f 15/9/5 29/12/5 12/11/5 
f 12/11/5 11/10/5 15/9/5 
f 101/84/5 102/83/5 103/82/5 
f 103/82/5 104/85/5 101/84/5 
f 104/85/5 103/82/5 105/86/5 
f 105/86/5 106/87/5 104/85/5 
f 106/87/5 105/86/5 107/88/5 
f 107/88/5 108/89/5 106/87/5 
f 108/89/5 107/88/5 109/90/5 
f 109/90/5 110/91/5 108/89/5 
f 110/91/5 109/90/5 14/14/5 
f 14/14/5 13/13/5 110/91/5 
f 103/102/6 102/103/6 111/104/6 
f 111/104/6 112/105/6 103/102/6 
f 105/106/6 103/102/6 112/105/6 
f 112/105/6 113/107/6 105/106/6 
f 107/108/6 105/106/6 113/107/6 
f 113/107/6 114/109/6 107/108/6 
f 109/110/6 107/108/6 114/109/6 
f 114/109/6 115/111/6 109/110/6 
f 14/34/6 109/110/6 115/111/6 
f 115/111/6 35/33/6 14/34/6 
f 11/16/6 14/34/6 35/33/6 
f 35/33/6 16/17/6 11/16/6 
f 116/112/6 117/113/6 91/114/6 
f 91/114/6 94/115/6 116/112/6 
f 118/116/6 116/112/6 94/115/6 
f 94/115/6 96/117/6 118/116/6 
f 119/118/6 118/116/6 96/117/6 
f 96/117/6 98/119/6 119/118/6 
f 120/120/6 119/118/6 98/119/6 
f 98/119/6 100/121/6 120/120/6 
f 17/18/6 120/120/6 100/121/6 
f 100/121/6 15/15/6 17/18/6 
f 121/122/7 122/123/7 123/123/7 
f 123/123/8 124/122/8 121/122/8 
f 125/124/7 121/122/7 124/122/7 
f 124/122/8 126/124/8 125/124/8 
f 127/125/7 125/124/7 126/124/7 
f 126/124/8 128/125/8 127/125/8 
f 129/126/7 127/125/7 128/125/7 
f 128/125/8 130/126/8 129/126/8 
f 131/127/7 129/126/7 130/126/7 
f 130/126/8 132/127/8 131/127/8 
f 19/20/7 131/127/7 132/127/7 
f 132/127/8 20/20/8 19/20/8 
f 133/128/8 134/129/8 135/129/8 
f 135/129/7 136/128/7 133/128/7 
f 137/130/8 133/128/8 136/128/8 
f 136/128/7 138/130/7 137/130/7 
f 139/131/8 137/130/8 138/130/8 
f 138/130/7 140/131/7 139/131/7 
f 141/132/8 139/131/8 140/131/8 
f 140/131/7 142/132/7 141/132/7 
f 21/19/8 141/132/8 142/132/8 
f 142/132/7 18/19/7 21/19/7 
f 143/133/9 144/133/9 145/134/9 
f 145/134/10 146/134/10 143/133/10 
f 146/134/9 145/134/9 147/135/9 
f 147/135/10 148/135/10 146/134/10 
f 148/135/9 147/135/9 149/136/9 
f 149/136/10 150/136/10 148/135/10 
f 150/136/9 149/136/9 151/137/9 
f 151/137/10 152/137/10 150/136/10 
f 152/137/9 151/137/9 153/138/9 
f 153/138/10 154/138/10 152/137/10 
f 154/138/9 153/138/9 23/21/9 
f 23/21/10 22/21/10 154/138/10 
f 155/139/10 156/139/10 157/140/10 
f 157/140/9 158/140/9 155/139/9 
f 158/140/10 157/140/10 159/141/10 
f 159/141/9 160/141/9 158/140/9 
f 160/141/10 159/141/10 161/142/10 
f 161/142/9 162/142/9 160/141/9 
f 162/142/10 161/142/10 163/143/10 
f 163/143/9 164/143/9 162/142/9 
f 164/143/10 163/143/10 25/22/10 
f 25/22/9 24/22/9 164/143/9 
f 144/133/3 165/144/3 166/145/3 
f 166/145/3 145/134/3 144/133/3 
f 145/134/3 166/145/3 167/146/3 
f 167/146/3 147/135/3 145/134/3 
f 147/135/3 167/146/3 168/147/3 
f 168/147/3 149/136/3 147/135/3 
f 149/136/3 168/147/3 169/148/3 
f 169/148/3 151/137/3 149/136/3 
f 151/137/3 169/148/3 31/29/3 
f 31/29/3 153/138/3 151/137/3 
f 153/138/3 31/29/3 26/23/3 
f 26/23/3 23/21/3 153/138/3 
f 170/149/3 155/139/3 158/140/3 
f 158/140/3 171/150/3 170/149/3 
f 171/150/3 158/140/3 160/141/3 
f 160/141/3 172/151/3 171/150/3 
f 172/151/3 160/141/3 162/142/3 
f 162/142/3 173/152/3 172/151/3 
f 173/152/3 162/142/3 164/143/3 
f 164/143/3 174/153/3 173/152/3 
f 174/153/3 164/143/3 24/22/3 
f 24/22/3 27/24/3 174/153/3 
f 175/154/11 101/155/3 104/156/11 
f 104/156/11 176/157/11 175/154/11 
f 176/157/11 104/156/11 106/158/11 
f 106/158/11 177/159/11 176/157/11 
f 177/159/11 106/158/11 108/160/11 
f 108/160/11 178/161/11 177/159/11 
f 178/161/11 108/160/11 110/162/11 
f 110/162/11 179/163/11 178/161/11 
f 179/163/11 110/162/11 13/164/11 
f 13/164/11 37/165/11 179/163/11 
f 37/165/11 13/164/11 12/26/12 
f 12/26/12 28/25/11 37/165/11 
f 92/166/12 38/39/15 180/167/12 
f 180/167/12 93/168/12 92/166/12 
f 93/168/12 180/167/12 181/169/12 
f 181/169/12 95/170/12 93/168/12 
f 95/170/12 181/169/12 182/171/12 
f 182/171/12 97/172/12 95/170/12 
f 97/172/12 182/171/12 183/173/12 
f 183/173/12 99/174/12 97/172/12 
f 99/174/12 183/173/12 30/28/12 
f 30/28/12 29/27/12 99/174/12 
f 123/123/3 170/149/3 171/150/3 
f 171/150/3 124/122/3 123/123/3 
f 124/122/3 171/150/3 172/151/3 
f 172/151/11 126/124/11 124/122/11 
f 126/124/11 172/151/11 173/152/11 
f 173/152/11 128/125/11 126/124/11 
f 128/125/11 173/152/11 174/153/11 
f 174/153/11 130/126/11 128/125/11 
f 130/126/11 174/153/11 27/24/11 
f 27/24/3 132/127/3 130/126/3 
f 132/127/3 27/24/3 26/23/3 
f 26/23/11 20/20/11 132/127/11 
f 165/144/11 134/129/11 133/128/11 
f 133/128/3 166/145/3 165/144/3 
f 166/145/3 133/128/3 137/130/3 
f 137/130/11 167/146/11 166/145/11 
f 167/146/11 137/130/11 139/131/11 
f 139/131/11 168/147/11 167/146/11 
f 168/147/11 139/131/11 141/132/11 
f 141/132/11 169/148/11 168/147/11 
f 169/148/11 141/132/11 21/19/11 
f 21/19/3 31/29/3 169/148/3 
f 184/175/13 185/176/13 49/50/1 
f 49/50/1 52/53/1 184/175/13 
f 186/177/13 184/175/13 52/53/1 
f 52/53/1 54/55/13 186/177/13 
f 187/178/13 186/177/13 54/55/13 
f 54/55/13 56/57/13 187/178/13 
f 188/179/13 187/178/13 56/57/13 
f 56/57/13 58/59/1 188/179/13 
f 189/180/13 188/179/13 58/59/1 
f 58/59/1 3/3/1 189/180/13 
f 33/31/13 189/180/13 3/3/1 
f 3/3/1 2/2/1 33/31/13 
f 40/41/1 39/40/1 72/73/16 
f 72/73/16 190/181/1 40/41/1 
f 42/43/1 40/41/1 190/181/1 
f 190/181/1 191/182/13 42/43/1 
f 44/45/1 42/43/1 191/182/13 
f 191/182/13 192/183/13 44/45/1 
f 46/47/1 44/45/1 192/183/13 
f 192/183/13 193/184/13 46/47/1 
f 34/32/1 46/47/1 193/184/13 
f 193/184/13 32/30/13 34/32/1 
f 86/114/6 117/113/6 116/112/6 
f 116/112/6 87/115/6 86/114/6 
f 87/115/6 116/112/6 118/116/6 
f 118/116/6 88/117/6 87/115/6 
f 88/117/6 118/116/6 119/118/6 
f 119/118/6 89/119/6 88/117/6 
f 89/119/6 119/118/6 120/120/6 
f 120/120/6 90/121/6 89/119/6 
f 90/121/6 120/120/6 17/18/6 
f 17/18/6 9/15/6 90/121/6 
f 9/15/6 17/18/6 16/17/6 
f 16/17/6 10/16/6 9/15/6 
f 111/104/6 82/103/6 81/102/6 
f 81/102/6 112/105/6 111/104/6 
f 112/105/6 81/102/6 83/106/6 
f 83/106/6 113/107/6 112/105/6 
f 113/107/6 83/106/6 84/108/6 
f 84/108/6 114/109/6 113/107/6 
f 114/109/6 84/108/6 85/110/6 
f 85/110/6 115/111/6 114/109/6 
f 115/111/6 85/110/6 36/34/6 
f 36/34/6 35/33/6 115/111/6 
f 61/185/14 185/185/14 184/186/14 
f 184/186/14 62/186/14 61/185/14 
f 62/186/14 184/186/14 186/187/14 
f 186/187/14 64/187/14 62/186/14 
f 64/187/14 186/187/14 187/188/14 
f 187/188/14 66/188/14 64/187/14 
f 66/188/14 187/188/14 188/189/14 
f 188/189/14 68/189/14 66/188/14 
f 68/189/14 188/189/14 189/190/14 
f 189/190/14 70/190/14 68/189/14 
f 70/190/14 189/190/14 33/35/14 
f 33/35/14 7/35/14 70/190/14 
f 190/191/14 72/192/14 71/191/14 
f 190/191/14 71/191/14 75/193/14 
f 75/193/14 191/193/14 190/191/14 
f 191/193/14 75/193/14 77/194/14 
f 77/194/14 192/194/14 191/193/14 
f 192/194/14 77/194/14 79/195/14 
f 79/195/14 193/195/14 192/194/14 
f 193/195/14 79/195/14 8/36/14 
f 8/36/14 32/36/14 193/195/14 
f 180/196/17 38/197/17 41/196/17 
f 180/196/17 41/196/17 43/198/17 
f 43/198/5 181/198/5 180/196/5 
f 181/198/5 43/198/5 45/199/5 
f 45/199/5 182/199/5 181/198/5 
f 182/199/5 45/199/5 47/200/5 
f 47/200/17 183/200/17 182/199/17 
f 183/200/17 47/200/17 48/201/17 
f 48/201/5 30/201/5 183/200/5 
f 30/201/5 48/201/5 1/37/5 
f 1/37/5 28/37/5 30/201/5 
f 50/202/5 175/202/5 176/203/5 
f 176/203/5 51/203/5 50/202/5 
f 51/203/5 176/203/5 177/204/5 
f 177/204/5 53/204/5 51/203/5 
f 53/204/5 177/204/5 178/205/5 
f 178/205/5 55/205/5 53/204/5 
f 55/205/5 178/205/5 179/206/5 
f 179/206/5 57/206/5 55/205/5 
f 57/206/5 179/206/5 37/38/5 
f 37/38/5 4/38/5 57/206/5 
# 334 faces

