# 3ds Max Wavefront OBJ Exporter v0.97b - (c)2007 guruware
# File Created: 04.02.2018 08:19:33

#
# object MedCon_OnePlusThreeS_Start
#

v  2.8869 -0.2955 -32.0000
v  2.7953 -0.2955 -26.6667
v  3.1936 -0.2955 -26.6667
v  3.2231 -0.2955 -32.0000
v  3.1120 -0.2955 -21.3333
v  2.5414 -0.2955 -21.3333
v  2.9886 -0.2954 -16.0000
v  2.1578 -0.2954 -16.0000
v  2.8339 -0.2954 -10.6667
v  1.6770 -0.2954 -10.6667
v  2.6584 -0.2953 -5.3333
v  1.1312 -0.2953 -5.3333
v  2.4723 -0.2953 -0.0000
v  0.5530 -0.2953 -0.0000
v  2.2863 -0.2952 5.3333
v  -0.0253 -0.2952 5.3333
v  2.1108 -0.2951 10.6667
v  -0.5709 -0.2951 10.6667
v  1.9563 -0.2951 16.0000
v  -1.0512 -0.2951 16.0000
v  1.8331 -0.2950 21.3333
v  -1.4342 -0.2950 21.3333
v  1.7516 -0.2950 26.6667
v  -1.6870 -0.2950 26.6667
v  1.7224 -0.2950 32.0000
v  -1.7776 -0.2950 32.0000
# 26 vertices

vn 0.0000 1.0000 -0.0000
# 1 vertex normals

vt 0.8177 0.9977 0.0000
vt 0.8270 0.9148 0.0000
vt 0.7906 0.9149 0.0000
vt 0.7983 0.9979 0.0000
vt 0.7829 0.8319 0.0000
vt 0.8350 0.8318 0.0000
vt 0.7752 0.7489 0.0000
vt 0.8429 0.7489 0.0000
vt 0.7675 0.6660 0.0000
vt 0.8508 0.6659 0.0000
vt 0.7598 0.5830 0.0000
vt 0.8587 0.5830 0.0000
vt 0.7520 0.5000 0.0000
vt 0.8666 0.5000 0.0000
vt 0.7443 0.4170 0.0000
vt 0.8745 0.4170 0.0000
vt 0.7366 0.3340 0.0000
vt 0.8824 0.3341 0.0000
vt 0.7289 0.2511 0.0000
vt 0.8903 0.2511 0.0000
vt 0.7212 0.1681 0.0000
vt 0.8982 0.1682 0.0000
vt 0.7135 0.0851 0.0000
vt 0.9061 0.0852 0.0000
vt 0.7058 0.0021 0.0000
vt 0.9140 0.0023 0.0000
# 26 texture coords

g MedCon_OnePlusThreeS_Start
s 1
f 1/1/1 2/2/1 3/3/1 4/4/1 
f 5/5/1 3/3/1 2/2/1 6/6/1 
f 7/7/1 5/5/1 6/6/1 8/8/1 
f 9/9/1 7/7/1 8/8/1 10/10/1 
f 11/11/1 9/9/1 10/10/1 12/12/1 
f 13/13/1 11/11/1 12/12/1 14/14/1 
f 15/15/1 13/13/1 14/14/1 16/16/1 
f 17/17/1 15/15/1 16/16/1 18/18/1 
f 19/19/1 17/17/1 18/18/1 20/20/1 
f 21/21/1 19/19/1 20/20/1 22/22/1 
f 23/23/1 21/21/1 22/22/1 24/24/1 
f 25/25/1 23/23/1 24/24/1 26/26/1 
# 12 polygons

