# 3ds Max Wavefront OBJ Exporter v0.97b - (c)2007 guruware
# File Created: 14.02.2018 17:46:43

#
# object Object001
#

v  1.3095 -0.2918 -15.9921
v  1.8768 -0.2949 -31.9998
v  1.5406 -0.2950 -31.9999
v  0.6469 -0.2919 -15.9921
v  0.0360 -0.2925 0.0062
v  -1.3191 -0.2925 0.0062
v  -3.2855 -0.2944 16.0015
v  -1.2406 -0.2944 16.0015
v  -4.1800 -0.2950 32.0000
v  -1.8200 -0.2950 32.0000
v  -6.2506 -0.2950 16.0843
v  -7.0764 -0.2950 32.0000
v  -6.8964 -0.2950 32.0000
v  -6.0703 -0.2950 16.0843
v  -4.4357 -0.2950 0.3574
v  -4.2554 -0.2950 0.3574
v  -2.4265 -0.2950 -15.5792
v  -2.6067 -0.2950 -15.5792
v  -1.5794 -0.2950 -32.0000
v  -1.7594 -0.2950 -32.0000
# 20 vertices

vn 0.0000 1.0000 0.0001
vn 0.0000 1.0000 -0.0000
vn 0.0000 0.9999 -0.0144
vn 0.0000 0.9999 -0.0106
vn 0.0000 0.9999 -0.0107
vn 0.0000 0.9999 -0.0145
vn 0.0000 0.9998 -0.0194
vn 0.0000 0.9998 -0.0188
vn 0.0000 0.9998 -0.0189
vn 0.0000 0.9999 -0.0142
vn 0.0000 0.9999 -0.0143
vn 0.0000 0.9999 -0.0171
vn 0.0000 0.9999 -0.0170
vn 0.0000 1.0000 -0.0029
vn 0.0000 1.0000 -0.0056
# 15 vertex normals

vt 0.8429 0.7489 0.0000
vt 0.8177 0.9977 0.0000
vt 0.7983 0.9979 0.0000
vt 0.7752 0.7489 0.0000
vt 0.8666 0.5000 0.0000
vt 0.7520 0.5000 0.0000
vt 0.7289 0.2511 0.0000
vt 0.8903 0.2511 0.0000
vt 0.7058 0.0021 0.0000
vt 0.9140 0.0023 0.0000
vt 0.1589 0.2500 0.0000
vt 0.1589 0.0000 0.0000
vt 0.1635 0.0000 0.0000
vt 0.1635 0.2500 0.0000
vt 0.1589 0.5000 0.0000
vt 0.1635 0.5000 0.0000
vt 0.1635 0.7500 0.0000
vt 0.1589 0.7500 0.0000
vt 0.1635 1.0000 0.0000
vt 0.1589 1.0000 0.0000
# 20 texture coords

g Object001
s 1
f 1/1/1 2/2/1 3/3/1 4/4/1 
f 5/5/1 1/1/1 4/4/1 6/6/1 
f 7/7/1 8/8/1 5/5/1 6/6/1 
f 9/9/2 10/10/2 8/8/2 7/7/2 
f 11/11/3 12/12/4 13/13/5 14/14/6 
f 15/15/7 11/11/8 14/14/9 16/16/7 
f 17/17/10 18/18/11 15/15/12 16/16/13 
f 19/19/14 20/20/14 18/18/15 17/17/15 
# 8 polygons

