# 3ds Max Wavefront OBJ Exporter v0.97b - (c)2007 guruware
# File Created: 26.07.2018 22:00:45

#
# object Object004
#

v  13.7500 -0.0000 -3.1997
v  13.7500 -0.0000 0.0003
v  13.7500 -0.3000 0.0003
v  13.7500 -0.3000 -3.1997
v  15.7500 0.0000 3.2003
v  15.7500 0.0000 0.0003
v  18.7500 -3.1650 0.0003
v  18.7500 -3.1650 3.2003
v  13.2500 -0.0000 28.8003
v  13.2500 -0.0000 32.0003
v  13.2500 -0.3000 32.0003
v  13.2500 -0.3000 28.8003
v  13.3708 -0.0000 25.6003
v  13.3708 -0.3000 25.6003
v  13.6023 -0.0000 22.4003
v  13.6023 -0.3000 22.4003
v  13.7477 -0.0000 19.2003
v  13.7477 -0.3000 19.2003
v  13.7500 -0.0000 16.0003
v  13.7500 -0.3000 16.0003
v  13.7500 -0.0000 12.8003
v  13.7500 -0.3000 12.8003
v  13.7500 -0.0000 9.6003
v  13.7500 -0.3000 9.6003
v  13.7500 -0.0000 6.4003
v  13.7500 -0.3000 6.4003
v  13.7500 -0.0000 3.2003
v  13.7500 -0.3000 3.2003
v  13.2500 -0.3000 -28.7997
v  13.2500 -0.3000 -31.9997
v  13.2500 -0.0000 -31.9997
v  13.2500 -0.0000 -28.7997
v  13.3708 -0.3000 -25.5997
v  13.3708 -0.0000 -25.5997
v  13.6023 -0.3000 -22.3997
v  13.6023 -0.0000 -22.3997
v  13.7477 -0.3000 -19.1997
v  13.7477 -0.0000 -19.1997
v  13.7500 -0.3000 -15.9997
v  13.7500 -0.0000 -15.9997
v  13.7500 -0.3000 -12.7997
v  13.7500 -0.0000 -12.7997
v  13.7500 -0.3000 -9.5997
v  13.7500 -0.0000 -9.5997
v  13.7500 -0.3000 -6.3997
v  13.7500 -0.0000 -6.3997
v  15.7500 0.0000 -28.7997
v  15.7500 0.0000 -31.9997
v  18.7500 -3.1650 -31.9997
v  18.7500 -3.1650 -28.7997
v  15.7500 0.0000 -25.5997
v  18.7500 -3.1650 -25.5997
v  15.7500 0.0000 -22.3997
v  18.7500 -3.1650 -22.3997
v  15.7500 0.0000 -19.1997
v  18.7500 -3.1650 -19.1997
v  15.7500 0.0000 -15.9997
v  18.7500 -3.1650 -15.9997
v  15.7500 0.0000 -12.7997
v  18.7500 -3.1650 -12.7997
v  15.7500 0.0000 -9.5997
v  18.7500 -3.1650 -9.5997
v  15.7500 0.0000 -6.3997
v  18.7500 -3.1650 -6.3997
v  15.7500 0.0000 -3.1997
v  18.7500 -3.1650 -3.1997
v  18.7500 -3.1650 28.8003
v  18.7500 -3.1650 32.0003
v  15.7500 0.0000 32.0003
v  15.7500 0.0000 28.8003
v  18.7500 -3.1650 25.6003
v  15.7500 0.0000 25.6003
v  18.7500 -3.1650 22.4003
v  15.7500 0.0000 22.4003
v  18.7500 -3.1650 19.2003
v  15.7500 0.0000 19.2003
v  18.7500 -3.1650 16.0003
v  15.7500 0.0000 16.0003
v  18.7500 -3.1650 12.8003
v  15.7500 0.0000 12.8003
v  18.7500 -3.1650 9.6003
v  15.7500 0.0000 9.6003
v  18.7500 -3.1650 6.4003
v  15.7500 0.0000 6.4003
v  13.2500 -0.3000 22.4003
v  13.2500 -0.3000 19.2003
v  13.7500 -0.3000 19.2003
v  13.2500 -0.3000 16.0003
v  13.2500 -0.3000 12.8003
v  13.2500 -0.3000 9.6003
v  13.2500 -0.3000 6.4003
v  13.2500 -0.3000 3.2003
v  13.2500 -0.3000 0.0003
v  13.7500 -0.3000 -19.1997
v  13.2500 -0.3000 -19.1997
v  13.2500 -0.3000 -22.3997
v  13.2500 -0.3000 -15.9997
v  13.2500 -0.3000 -12.7997
v  13.2500 -0.3000 -9.5997
v  13.2500 -0.3000 -6.3997
v  13.2500 -0.3000 -3.1997
v  13.2500 -0.3000 -25.5997
v  13.2500 -0.3000 25.6003
v  -13.7500 -0.0000 -3.1997
v  -13.7500 -0.3000 -3.1997
v  -13.7500 -0.3000 0.0003
v  -13.7500 -0.0000 0.0003
v  -15.7500 0.0000 3.2003
v  -18.7500 -3.1650 3.2003
v  -18.7500 -3.1650 0.0003
v  -15.7500 0.0000 0.0003
v  -13.2500 -0.0000 28.8003
v  -13.2500 -0.3000 28.8003
v  -13.2500 -0.3000 32.0003
v  -13.2500 -0.0000 32.0003
v  -13.3708 -0.0000 25.6003
v  -13.3708 -0.3000 25.6003
v  -13.6023 -0.0000 22.4003
v  -13.6023 -0.3000 22.4003
v  -13.7477 -0.0000 19.2003
v  -13.7477 -0.3000 19.2003
v  -13.7500 -0.0000 16.0003
v  -13.7500 -0.3000 16.0003
v  -13.7500 -0.0000 12.8003
v  -13.7500 -0.3000 12.8003
v  -13.7500 -0.0000 9.6003
v  -13.7500 -0.3000 9.6003
v  -13.7500 -0.0000 6.4003
v  -13.7500 -0.3000 6.4003
v  -13.7500 -0.0000 3.2003
v  -13.7500 -0.3000 3.2003
v  -13.2500 -0.3000 -28.7997
v  -13.2500 -0.0000 -28.7997
v  -13.2500 -0.0000 -31.9997
v  -13.2500 -0.3000 -31.9997
v  -13.3708 -0.3000 -25.5997
v  -13.3708 -0.0000 -25.5997
v  -13.6023 -0.3000 -22.3997
v  -13.6023 -0.0000 -22.3997
v  -13.7477 -0.3000 -19.1997
v  -13.7477 -0.0000 -19.1997
v  -13.7500 -0.3000 -15.9997
v  -13.7500 -0.0000 -15.9997
v  -13.7500 -0.3000 -12.7997
v  -13.7500 -0.0000 -12.7997
v  -13.7500 -0.3000 -9.5997
v  -13.7500 -0.0000 -9.5997
v  -13.7500 -0.3000 -6.3997
v  -13.7500 -0.0000 -6.3997
v  -15.7500 0.0000 -28.7997
v  -18.7500 -3.1650 -28.7997
v  -18.7500 -3.1650 -31.9997
v  -15.7500 0.0000 -31.9997
v  -15.7500 0.0000 -25.5997
v  -18.7500 -3.1650 -25.5997
v  -15.7500 0.0000 -22.3997
v  -18.7500 -3.1650 -22.3997
v  -15.7500 0.0000 -19.1997
v  -18.7500 -3.1650 -19.1997
v  -15.7500 0.0000 -15.9997
v  -18.7500 -3.1650 -15.9997
v  -15.7500 0.0000 -12.7997
v  -18.7500 -3.1650 -12.7997
v  -15.7500 0.0000 -9.5997
v  -18.7500 -3.1650 -9.5997
v  -15.7500 0.0000 -6.3997
v  -18.7500 -3.1650 -6.3997
v  -15.7500 0.0000 -3.1997
v  -18.7500 -3.1650 -3.1997
v  -18.7500 -3.1650 28.8003
v  -15.7500 0.0000 28.8003
v  -15.7500 0.0000 32.0003
v  -18.7500 -3.1650 32.0003
v  -18.7500 -3.1650 25.6003
v  -15.7500 0.0000 25.6003
v  -18.7500 -3.1650 22.4003
v  -15.7500 0.0000 22.4003
v  -18.7500 -3.1650 19.2003
v  -15.7500 0.0000 19.2003
v  -18.7500 -3.1650 16.0003
v  -15.7500 0.0000 16.0003
v  -18.7500 -3.1650 12.8003
v  -15.7500 0.0000 12.8003
v  -18.7500 -3.1650 9.6003
v  -15.7500 0.0000 9.6003
v  -18.7500 -3.1650 6.4003
v  -15.7500 0.0000 6.4003
v  -13.2500 -0.3000 22.4003
v  -13.7500 -0.3000 19.2003
v  -13.2500 -0.3000 19.2003
v  -13.2500 -0.3000 16.0003
v  -13.2500 -0.3000 12.8003
v  -13.2500 -0.3000 9.6003
v  -13.2500 -0.3000 6.4003
v  -13.2500 -0.3000 3.2003
v  -13.2500 -0.3000 0.0003
v  -13.7500 -0.3000 -19.1997
v  -13.2500 -0.3000 -22.3997
v  -13.2500 -0.3000 -19.1997
v  -13.2500 -0.3000 -15.9997
v  -13.2500 -0.3000 -12.7997
v  -13.2500 -0.3000 -9.5997
v  -13.2500 -0.3000 -6.3997
v  -13.2500 -0.3000 -3.1997
v  -13.2500 -0.3000 -25.5997
v  -13.2500 -0.3000 25.6003
# 206 vertices

vn -1.0000 0.0000 -0.0000
vn 0.7258 0.6879 -0.0000
vn -0.9993 0.0000 -0.0377
vn -0.9974 0.0000 -0.0721
vn -0.9990 0.0000 -0.0454
vn -1.0000 0.0000 -0.0007
vn -0.9993 0.0000 0.0377
vn -0.9974 0.0000 0.0721
vn -0.9990 0.0000 0.0454
vn -1.0000 0.0000 0.0007
vn 0.0000 1.0000 0.0000
vn 0.0000 1.0000 -0.0000
vn 0.3924 -0.9197 -0.0148
vn 0.3766 -0.9263 -0.0142
vn -0.0000 1.0000 -0.0000
vn -0.0000 1.0000 0.0000
vn 1.0000 0.0000 -0.0000
vn -0.7258 0.6879 -0.0000
vn 0.9993 0.0000 -0.0377
vn 0.9974 0.0000 -0.0721
vn 0.9990 0.0000 -0.0454
vn 1.0000 0.0000 -0.0007
vn 0.9993 0.0000 0.0377
vn 0.9974 0.0000 0.0721
vn 0.9990 0.0000 0.0454
vn 1.0000 0.0000 0.0007
vn -0.3766 -0.9263 -0.0142
vn -0.3924 -0.9197 -0.0148
# 28 vertex normals

vt 0.8810 0.4500 0.0000
vt 0.8810 0.5000 0.0000
vt 0.8960 0.5000 0.0000
vt 0.8960 0.4500 0.0000
vt 0.9900 0.4500 0.0000
vt 0.9900 0.5000 0.0000
vt 1.0000 0.5000 0.0000
vt 1.0000 0.4500 0.0000
vt 0.8810 0.9500 0.0000
vt 0.8810 1.0000 0.0000
vt 0.8960 1.0000 0.0000
vt 0.8960 0.9500 0.0000
vt 0.8810 0.9000 0.0000
vt 0.8960 0.9000 0.0000
vt 0.8810 0.8500 0.0000
vt 0.8960 0.8500 0.0000
vt 0.8810 0.8000 0.0000
vt 0.8960 0.8000 0.0000
vt 0.8810 0.7500 0.0000
vt 0.8960 0.7500 0.0000
vt 0.8810 0.7000 0.0000
vt 0.8960 0.7000 0.0000
vt 0.8810 0.6500 0.0000
vt 0.8960 0.6500 0.0000
vt 0.8810 0.6000 0.0000
vt 0.8960 0.6000 0.0000
vt 0.8810 0.5500 0.0000
vt 0.8960 0.5500 0.0000
vt 0.8960 0.0500 0.0000
vt 0.8960 -0.0000 0.0000
vt 0.8810 0.0000 0.0000
vt 0.8810 0.0500 0.0000
vt 0.8960 0.1000 0.0000
vt 0.8810 0.1000 0.0000
vt 0.8960 0.1500 0.0000
vt 0.8810 0.1500 0.0000
vt 0.8960 0.2000 0.0000
vt 0.8810 0.2000 0.0000
vt 0.8960 0.2500 0.0000
vt 0.8810 0.2500 0.0000
vt 0.8960 0.3000 0.0000
vt 0.8810 0.3000 0.0000
vt 0.8960 0.3500 0.0000
vt 0.8810 0.3500 0.0000
vt 0.8960 0.4000 0.0000
vt 0.8810 0.4000 0.0000
vt 0.9900 0.9500 0.0000
vt 0.9900 1.0000 0.0000
vt 1.0000 1.0000 0.0000
vt 1.0000 0.9500 0.0000
vt 0.9900 0.9000 0.0000
vt 1.0000 0.9000 0.0000
vt 0.9900 0.8500 0.0000
vt 1.0000 0.8500 0.0000
vt 0.9900 0.8000 0.0000
vt 1.0000 0.8000 0.0000
vt 0.9900 0.7500 0.0000
vt 1.0000 0.7500 0.0000
vt 0.9900 0.7000 0.0000
vt 1.0000 0.7000 0.0000
vt 0.9900 0.6500 0.0000
vt 1.0000 0.6500 0.0000
vt 0.9900 0.6000 0.0000
vt 1.0000 0.6000 0.0000
vt 0.9900 0.5500 0.0000
vt 1.0000 0.5500 0.0000
vt 1.0000 0.0500 0.0000
vt 1.0000 0.0000 0.0000
vt 0.9900 0.0000 0.0000
vt 0.9900 0.0500 0.0000
vt 1.0000 0.1000 0.0000
vt 0.9900 0.1000 0.0000
vt 1.0000 0.1500 0.0000
vt 0.9900 0.1500 0.0000
vt 1.0000 0.2000 0.0000
vt 0.9900 0.2000 0.0000
vt 1.0000 0.2500 0.0000
vt 0.9900 0.2500 0.0000
vt 1.0000 0.3000 0.0000
vt 0.9900 0.3000 0.0000
vt 1.0000 0.3500 0.0000
vt 0.9900 0.3500 0.0000
vt 1.0000 0.4000 0.0000
vt 0.9900 0.4000 0.0000
vt 0.1240 0.1500 0.0000
vt 0.1240 0.2000 0.0000
vt 0.1372 0.2000 0.0000
vt 0.1333 0.1500 0.0000
vt 0.1240 0.2500 0.0000
vt 0.1372 0.2500 0.0000
vt 0.1240 0.3000 0.0000
vt 0.1372 0.3000 0.0000
vt 0.1240 0.3500 0.0000
vt 0.1372 0.3500 0.0000
vt 0.1240 0.4000 0.0000
vt 0.1372 0.4000 0.0000
vt 0.1240 0.4500 0.0000
vt 0.1372 0.4500 0.0000
vt 0.1240 0.5000 0.0000
vt 0.1372 0.5000 0.0000
vt 0.1372 0.8000 0.0000
vt 0.1240 0.8000 0.0000
vt 0.1240 0.8500 0.0000
vt 0.1333 0.8500 0.0000
vt 0.1372 0.7500 0.0000
vt 0.1240 0.7500 0.0000
vt 0.1372 0.7000 0.0000
vt 0.1240 0.7000 0.0000
vt 0.1372 0.6500 0.0000
vt 0.1240 0.6500 0.0000
vt 0.1372 0.6000 0.0000
vt 0.1240 0.6000 0.0000
vt 0.1372 0.5500 0.0000
vt 0.1240 0.5500 0.0000
vt 0.1240 0.9000 0.0000
vt 0.1272 0.9000 0.0000
vt 0.1240 0.9500 0.0000
vt 0.1240 0.1000 0.0000
vt 0.1272 0.1000 0.0000
vt 0.1240 0.0500 0.0000
vt 0.1240 1.0000 0.0000
vt 0.0000 1.0000 0.0000
vt 0.0000 0.9500 0.0000
vt 0.0000 0.9000 0.0000
vt 0.0000 0.8500 0.0000
vt 0.0000 0.8000 0.0000
vt 0.0000 0.7500 0.0000
vt 0.0000 0.7000 0.0000
vt 0.0000 0.6500 0.0000
vt 0.0000 0.6000 0.0000
vt 0.0000 0.5500 0.0000
vt 0.0000 0.5000 0.0000
vt 0.0000 0.4500 0.0000
vt 0.0000 0.4000 0.0000
vt 0.0000 0.3500 0.0000
vt 0.0000 0.3000 0.0000
vt 0.0000 0.2500 0.0000
vt 0.0000 0.2000 0.0000
vt 0.0000 0.1500 0.0000
vt 0.0000 0.1000 0.0000
vt 0.0000 0.0500 0.0000
vt 0.0000 0.0000 0.0000
vt 0.1240 0.0000 0.0000
# 143 texture coords

g Object004
s off
f 4/4/1 3/3/1 2/2/1 1/1/1 
f 8/8/2 7/7/2 6/6/2 5/5/2 
f 12/12/1 11/11/1 10/10/1 9/9/1 
f 14/14/3 12/12/3 9/9/3 13/13/3 
f 16/16/4 14/14/4 13/13/4 15/15/4 
f 18/18/5 16/16/5 15/15/5 17/17/5 
f 20/20/6 18/18/6 17/17/6 19/19/6 
f 22/22/1 20/20/1 19/19/1 21/21/1 
f 24/24/1 22/22/1 21/21/1 23/23/1 
f 26/26/1 24/24/1 23/23/1 25/25/1 
f 28/28/1 26/26/1 25/25/1 27/27/1 
f 3/3/1 28/28/1 27/27/1 2/2/1 
f 32/32/1 31/31/1 30/30/1 29/29/1 
f 34/34/7 32/32/7 29/29/7 33/33/7 
f 36/36/8 34/34/8 33/33/8 35/35/8 
f 38/38/9 36/36/9 35/35/9 37/37/9 
f 40/40/10 38/38/10 37/37/10 39/39/10 
f 42/42/1 40/40/1 39/39/1 41/41/1 
f 44/44/1 42/42/1 41/41/1 43/43/1 
f 46/46/1 44/44/1 43/43/1 45/45/1 
f 1/1/1 46/46/1 45/45/1 4/4/1 
f 50/50/2 49/49/2 48/48/2 47/47/2 
f 52/52/2 50/50/2 47/47/2 51/51/2 
f 54/54/2 52/52/2 51/51/2 53/53/2 
f 56/56/2 54/54/2 53/53/2 55/55/2 
f 58/58/2 56/56/2 55/55/2 57/57/2 
f 60/60/2 58/58/2 57/57/2 59/59/2 
f 62/62/2 60/60/2 59/59/2 61/61/2 
f 64/64/2 62/62/2 61/61/2 63/63/2 
f 66/66/2 64/64/2 63/63/2 65/65/2 
f 7/7/2 66/66/2 65/65/2 6/6/2 
f 70/70/2 69/69/2 68/68/2 67/67/2 
f 72/72/2 70/70/2 67/67/2 71/71/2 
f 74/74/2 72/72/2 71/71/2 73/73/2 
f 76/76/2 74/74/2 73/73/2 75/75/2 
f 78/78/2 76/76/2 75/75/2 77/77/2 
f 80/80/2 78/78/2 77/77/2 79/79/2 
f 82/82/2 80/80/2 79/79/2 81/81/2 
f 84/84/2 82/82/2 81/81/2 83/83/2 
f 5/5/2 84/84/2 83/83/2 8/8/2 
s 1
f 16/88/11 87/87/11 86/86/12 85/85/11 
f 87/87/11 20/90/12 88/89/12 86/86/12 
f 20/90/12 22/92/12 89/91/12 88/89/12 
f 22/92/12 24/94/12 90/93/12 89/91/12 
f 24/94/12 26/96/12 91/95/12 90/93/12 
f 26/96/12 28/98/12 92/97/12 91/95/12 
f 3/100/12 93/99/12 92/97/12 28/98/12 
f 35/104/12 96/103/12 95/102/12 94/101/12 
f 94/101/12 95/102/12 97/106/12 39/105/12 
f 39/105/12 97/106/12 98/108/12 41/107/12 
f 41/107/12 98/108/12 99/110/12 43/109/12 
f 43/109/12 99/110/12 100/112/12 45/111/12 
f 45/111/12 100/112/12 101/114/12 4/113/12 
f 4/113/12 101/114/12 93/99/12 3/100/12 
f 33/116/12 102/115/12 96/103/12 35/104/12 
f 29/117/14 29/117/13 102/115/12 33/116/12 
f 12/120/12 14/119/12 103/118/12 
f 14/119/12 16/88/12 85/85/12 103/118/12 
f 32/117/16 47/123/16 48/122/15 31/121/15 
f 51/124/16 47/123/16 32/117/16 34/115/16 
f 53/125/16 51/124/16 34/115/16 36/103/16 
f 55/126/15 53/125/16 36/103/16 38/102/16 
f 40/106/16 57/127/16 55/126/15 38/102/16 
f 42/108/15 59/128/15 57/127/16 40/106/16 
f 44/110/15 61/129/15 59/128/15 42/108/15 
f 46/112/15 63/130/15 61/129/15 44/110/15 
f 1/114/15 65/131/15 63/130/15 46/112/15 
f 2/99/15 6/132/15 65/131/15 1/114/15 
f 27/97/15 5/133/15 6/132/15 2/99/15 
f 25/95/15 84/134/15 5/133/15 27/97/15 
f 23/93/15 82/135/15 84/134/15 25/95/15 
f 21/91/15 80/136/15 82/135/15 23/93/15 
f 19/89/15 78/137/15 80/136/15 21/91/15 
f 17/86/15 76/138/15 78/137/15 19/89/15 
f 15/85/15 74/139/15 76/138/15 17/86/15 
f 13/118/15 72/140/15 74/139/15 15/85/15 
f 9/120/15 70/141/15 72/140/15 13/118/15 
f 10/143/15 69/142/15 70/141/15 9/120/15 
s off
f 107/2/17 106/3/17 105/4/17 104/1/17 
f 111/6/18 110/7/18 109/8/18 108/5/18 
f 115/10/17 114/11/17 113/12/17 112/9/17 
f 112/9/19 113/12/19 117/14/19 116/13/19 
f 116/13/20 117/14/20 119/16/20 118/15/20 
f 118/15/21 119/16/21 121/18/21 120/17/21 
f 120/17/22 121/18/22 123/20/22 122/19/22 
f 122/19/17 123/20/17 125/22/17 124/21/17 
f 124/21/17 125/22/17 127/24/17 126/23/17 
f 126/23/17 127/24/17 129/26/17 128/25/17 
f 128/25/17 129/26/17 131/28/17 130/27/17 
f 130/27/17 131/28/17 106/3/17 107/2/17 
f 135/30/17 134/31/17 133/32/17 132/29/17 
f 132/29/23 133/32/23 137/34/23 136/33/23 
f 136/33/24 137/34/24 139/36/24 138/35/24 
f 138/35/25 139/36/25 141/38/25 140/37/25 
f 140/37/26 141/38/26 143/40/26 142/39/26 
f 142/39/17 143/40/17 145/42/17 144/41/17 
f 144/41/17 145/42/17 147/44/17 146/43/17 
f 146/43/17 147/44/17 149/46/17 148/45/17 
f 148/45/17 149/46/17 104/1/17 105/4/17 
f 153/48/18 152/49/18 151/50/18 150/47/18 
f 150/47/18 151/50/18 155/52/18 154/51/18 
f 154/51/18 155/52/18 157/54/18 156/53/18 
f 156/53/18 157/54/18 159/56/18 158/55/18 
f 158/55/18 159/56/18 161/58/18 160/57/18 
f 160/57/18 161/58/18 163/60/18 162/59/18 
f 162/59/18 163/60/18 165/62/18 164/61/18 
f 164/61/18 165/62/18 167/64/18 166/63/18 
f 166/63/18 167/64/18 169/66/18 168/65/18 
f 168/65/18 169/66/18 110/7/18 111/6/18 
f 173/68/18 172/69/18 171/70/18 170/67/18 
f 170/67/18 171/70/18 175/72/18 174/71/18 
f 174/71/18 175/72/18 177/74/18 176/73/18 
f 176/73/18 177/74/18 179/76/18 178/75/18 
f 178/75/18 179/76/18 181/78/18 180/77/18 
f 180/77/18 181/78/18 183/80/18 182/79/18 
f 182/79/18 183/80/18 185/82/18 184/81/18 
f 184/81/18 185/82/18 187/84/18 186/83/18 
f 186/83/18 187/84/18 108/5/18 109/8/18 
s 1
f 190/86/12 189/87/16 119/88/16 188/85/16 
f 191/89/12 123/90/12 189/87/16 190/86/12 
f 192/91/12 125/92/12 123/90/12 191/89/12 
f 193/93/12 127/94/12 125/92/12 192/91/12 
f 194/95/12 129/96/12 127/94/12 193/93/12 
f 195/97/12 131/98/12 129/96/12 194/95/12 
f 195/97/12 196/99/12 106/100/12 131/98/12 
f 199/102/12 198/103/15 138/104/15 197/101/15 
f 200/106/12 199/102/12 197/101/15 142/105/12 
f 201/108/12 200/106/12 142/105/12 144/107/12 
f 202/110/12 201/108/12 144/107/12 146/109/12 
f 203/112/12 202/110/12 146/109/12 148/111/12 
f 204/114/12 203/112/12 148/111/12 105/113/12 
f 196/99/12 204/114/12 105/113/12 106/100/12 
f 198/103/15 205/115/15 136/116/15 138/104/15 
f 205/115/15 132/117/28 132/117/27 136/116/15 
f 117/119/15 113/120/15 206/118/15 
f 188/85/15 119/88/15 117/119/15 206/118/15 
f 153/122/12 150/123/11 133/117/11 134/121/12 
f 133/117/11 150/123/11 154/124/11 137/115/11 
f 137/115/11 154/124/11 156/125/11 139/103/11 
f 139/103/11 156/125/11 158/126/12 141/102/11 
f 158/126/12 160/127/11 143/106/11 141/102/11 
f 160/127/11 162/128/12 145/108/12 143/106/11 
f 162/128/12 164/129/12 147/110/12 145/108/12 
f 164/129/12 166/130/12 149/112/12 147/110/12 
f 166/130/12 168/131/12 104/114/12 149/112/12 
f 168/131/12 111/132/12 107/99/12 104/114/12 
f 111/132/12 108/133/12 130/97/12 107/99/12 
f 108/133/12 187/134/12 128/95/12 130/97/12 
f 187/134/12 185/135/12 126/93/12 128/95/12 
f 185/135/12 183/136/12 124/91/12 126/93/12 
f 183/136/12 181/137/12 122/89/12 124/91/12 
f 181/137/12 179/138/12 120/86/12 122/89/12 
f 179/138/12 177/139/12 118/85/12 120/86/12 
f 177/139/12 175/140/12 116/118/12 118/85/12 
f 175/140/12 171/141/12 112/120/12 116/118/12 
f 171/141/12 172/142/12 115/143/12 112/120/12 
# 154 polygons - 2 triangles

