# 3ds Max Wavefront OBJ Exporter v0.97b - (c)2007 guruware
# File Created: 20.03.2017 00:33:51

#
# object AvenueNode
#

v  -16.0000 0.0000 -0.0000
v  -13.0000 0.0000 -0.0000
v  -13.0000 0.0000 -5.3333
v  -16.0000 0.0000 -5.3333
v  13.0000 0.0000 -0.0000
v  16.0000 0.0000 -0.0000
v  16.0000 0.0000 -5.3333
v  13.0000 0.0000 -5.3333
v  -13.0000 -0.3000 -0.0000
v  -13.0000 -0.3000 -5.3333
v  -19.0000 -3.1650 -0.0000
v  -19.0000 -3.1650 5.3333
v  -16.0000 0.0000 5.3333
v  19.0000 -3.1650 -0.0000
v  16.0000 0.0000 5.3333
v  19.0000 -3.1650 5.3333
v  13.0000 -0.3000 -0.0000
v  13.0000 -0.3000 5.3333
v  13.0000 0.0000 5.3333
v  -0.0000 -0.3000 -0.0000
v  -13.0000 -0.3000 5.3333
v  -0.0000 -0.3000 5.3333
v  13.0000 -0.3000 -5.3333
v  -0.0000 -0.3000 -5.3333
v  -16.0000 0.0000 32.0000
v  -13.0000 0.0000 32.0000
v  -13.0000 0.0000 26.6667
v  -16.0000 0.0000 26.6667
v  -13.0000 0.0000 21.3333
v  -16.0000 0.0000 21.3333
v  -13.0000 0.0000 16.0000
v  -16.0000 0.0000 16.0000
v  -13.0000 0.0000 10.6667
v  -16.0000 0.0000 10.6667
v  -13.0000 0.0000 5.3333
v  -13.0000 0.0000 -32.0000
v  -16.0000 0.0000 -32.0000
v  -16.0000 0.0000 -26.6667
v  -13.0000 0.0000 -26.6667
v  -16.0000 0.0000 -21.3333
v  -13.0000 0.0000 -21.3333
v  -16.0000 0.0000 -16.0000
v  -13.0000 0.0000 -16.0000
v  -16.0000 0.0000 -10.6667
v  -13.0000 0.0000 -10.6667
v  13.0000 0.0000 32.0000
v  16.0000 0.0000 32.0000
v  16.0000 0.0000 26.6667
v  13.0000 0.0000 26.6667
v  16.0000 0.0000 21.3333
v  13.0000 0.0000 21.3333
v  16.0000 0.0000 16.0000
v  13.0000 0.0000 16.0000
v  16.0000 0.0000 10.6667
v  13.0000 0.0000 10.6667
v  16.0000 0.0000 -32.0000
v  13.0000 0.0000 -32.0000
v  13.0000 0.0000 -26.6667
v  16.0000 0.0000 -26.6667
v  13.0000 0.0000 -21.3333
v  16.0000 0.0000 -21.3333
v  13.0000 0.0000 -16.0000
v  16.0000 0.0000 -16.0000
v  13.0000 0.0000 -10.6667
v  16.0000 0.0000 -10.6667
v  -13.0000 -0.3000 32.0000
v  -13.0000 -0.3000 26.6667
v  -13.0000 -0.3000 21.3333
v  -13.0000 -0.3000 16.0000
v  -13.0000 -0.3000 10.6667
v  -13.0000 -0.3000 -32.0000
v  -13.0000 -0.3000 -26.6667
v  -13.0000 -0.3000 -21.3333
v  -13.0000 -0.3000 -16.0000
v  -13.0000 -0.3000 -10.6667
v  -19.0000 -3.1650 -32.0000
v  -19.0000 -3.1650 -26.6667
v  -19.0000 -3.1650 -21.3333
v  -19.0000 -3.1650 -16.0000
v  -19.0000 -3.1650 -10.6667
v  -19.0000 -3.1650 -5.3333
v  -19.0000 -3.1650 32.0000
v  -19.0000 -3.1650 26.6667
v  -19.0000 -3.1650 21.3333
v  -19.0000 -3.1650 16.0000
v  -19.0000 -3.1650 10.6667
v  19.0000 -3.1650 -32.0000
v  19.0000 -3.1650 -26.6667
v  19.0000 -3.1650 -21.3333
v  19.0000 -3.1650 -16.0000
v  19.0000 -3.1650 -10.6667
v  19.0000 -3.1650 -5.3333
v  19.0000 -3.1650 32.0000
v  19.0000 -3.1650 26.6667
v  19.0000 -3.1650 21.3333
v  19.0000 -3.1650 16.0000
v  19.0000 -3.1650 10.6667
v  13.0000 -0.3000 -32.0000
v  13.0000 -0.3000 -26.6667
v  13.0000 -0.3000 -21.3333
v  13.0000 -0.3000 -16.0000
v  13.0000 -0.3000 -10.6667
v  13.0000 -0.3000 32.0000
v  13.0000 -0.3000 26.6667
v  13.0000 -0.3000 21.3333
v  13.0000 -0.3000 16.0000
v  13.0000 -0.3000 10.6667
v  -4.9997 0.0000 -32.0000
v  -7.9880 0.0000 -32.0000
v  -6.6034 0.0000 -29.5244
v  -6.4266 0.0000 -29.4479
v  -6.4940 0.0000 -29.3287
v  -4.9999 0.0000 -31.9726
v  -0.0000 -0.3000 -26.6667
v  -0.0000 -0.3000 -21.3333
v  -0.0000 -0.3000 -16.0000
v  -0.0000 -0.3000 -10.6667
v  -0.0000 -0.3000 32.0000
v  -0.0000 -0.3000 26.6667
v  -0.0000 -0.3000 21.3333
v  -0.0000 -0.3000 16.0000
v  -0.0000 -0.3000 10.6667
v  8.0064 0.0000 -32.0000
v  5.0279 0.0000 -32.0000
v  6.0890 0.0000 -30.0918
v  6.7566 0.0000 -29.7610
v  6.3911 0.0000 -29.5486
v  6.5123 0.0000 -29.3306
v  8.0069 0.0000 -31.9637
v  -7.9880 -0.3000 -32.0000
v  -7.9247 -0.3000 -30.5856
v  -7.7398 -0.3000 -30.0161
v  -7.4283 -0.3000 -29.6219
v  -7.0146 -0.3000 -29.3932
v  -6.7803 -0.3000 -29.3641
v  -6.4940 -0.3000 -29.3287
v  -6.4646 -0.3000 -29.3250
v  -6.2188 -0.3000 -29.3579
v  -5.9195 -0.3000 -29.3980
v  -0.0000 -0.3000 -32.0000
v  -4.9997 -0.3000 -32.0000
v  -4.9999 -0.3000 -31.9726
v  -5.0045 -0.3000 -31.3156
v  -5.0630 -0.3000 -30.5758
v  -5.2284 -0.3000 -30.0307
v  -5.5302 -0.3000 -29.6414
v  -7.4283 0.0000 -29.6219
v  -7.0146 0.0000 -29.3932
v  -6.7803 0.0000 -29.3641
v  -7.7398 0.0000 -30.0161
v  -7.9247 0.0000 -30.5856
v  -6.4646 0.0000 -29.3250
v  -6.2188 0.0000 -29.3579
v  -5.9195 0.0000 -29.3980
v  -5.5302 0.0000 -29.6414
v  -5.0630 0.0000 -30.5758
v  -5.2284 0.0000 -30.0307
v  -5.0045 0.0000 -31.3156
v  5.0279 -0.3000 -32.0000
v  5.0084 -0.3000 -31.2871
v  5.0814 -0.3000 -30.5912
v  5.2615 -0.3000 -30.0412
v  5.5584 -0.3000 -29.6470
v  5.9867 -0.3000 -29.3744
v  6.3052 -0.3000 -29.3479
v  6.5123 -0.3000 -29.3306
v  6.7988 -0.3000 -29.3708
v  7.0671 -0.3000 -29.4085
v  7.2511 -0.3000 -29.5159
v  7.4759 -0.3000 -29.6470
v  8.0064 -0.3000 -32.0000
v  8.0069 -0.3000 -31.9637
v  8.0162 -0.3000 -31.3017
v  7.9480 -0.3000 -30.5766
v  7.7631 -0.3000 -30.0266
v  5.0084 0.0000 -31.2871
v  5.0814 0.0000 -30.5912
v  5.5584 0.0000 -29.6470
v  5.9867 0.0000 -29.3744
v  6.3052 0.0000 -29.3479
v  5.2615 0.0000 -30.0412
v  6.7988 0.0000 -29.3708
v  7.0671 0.0000 -29.4085
v  7.2511 0.0000 -29.5159
v  7.4759 0.0000 -29.6470
v  7.7631 0.0000 -30.0266
v  7.9480 0.0000 -30.5766
v  8.0162 0.0000 -31.3017
# 188 vertices

vn 0.0000 1.0000 -0.0000
vn 1.0000 0.0000 -0.0000
vn -0.7258 0.6879 -0.0000
vn 0.7258 0.6879 -0.0000
vn -1.0000 0.0000 -0.0000
vn -0.9990 0.0000 0.0447
vn -0.9511 0.0000 0.3089
vn -0.7846 0.0000 0.6200
vn -0.4839 0.0000 0.8751
vn -0.1229 0.0000 0.9924
vn -0.1230 0.0000 0.9924
vn 0.1327 0.0000 0.9912
vn 0.5300 0.0000 0.8480
vn 0.7904 0.0000 0.6126
vn 0.9569 0.0000 0.2905
vn 0.9969 0.0000 0.0787
vn 1.0000 0.0000 0.0071
vn 0.0000 0.0000 -1.0000
vn -0.9996 0.0000 -0.0273
vn -0.9945 0.0000 0.1043
vn -0.9504 0.0000 0.3112
vn -0.7988 0.0000 0.6016
vn -0.5369 0.0000 0.8437
vn -0.0830 0.0000 0.9965
vn 0.1390 0.0000 0.9903
vn 0.5039 0.0000 0.8638
vn 0.7975 0.0000 0.6033
vn 0.9478 0.0000 0.3187
vn 0.9956 0.0000 0.0935
vn 0.9999 0.0000 -0.0139
# 30 vertex normals

vt 1.0000 0.5000 0.0000
vt 0.8770 0.5000 0.0000
vt 0.8770 0.4167 0.0000
vt 1.0000 0.4167 0.0000
vt 0.1245 0.5000 0.0000
vt -0.0000 0.5000 0.0000
vt -0.0000 0.4167 0.0000
vt 0.1245 0.4167 0.0000
vt 0.0000 1.0000 0.0000
vt 0.0000 0.0000 0.0000
vt 0.0000 -0.0000 0.0000
vt 0.9702 -0.0000 0.0000
vt 0.9702 1.0000 0.0000
vt 0.9652 1.0000 0.0000
vt 0.9652 -0.0000 0.0000
vt 0.9702 0.0000 0.0000
vt 0.9652 0.0000 0.0000
vt 1.0000 1.0000 0.0000
vt 1.0000 0.0000 0.0000
vt 0.5000 0.5080 0.0000
vt 0.8760 0.5080 0.0000
vt 0.8760 0.5900 0.0000
vt 0.5000 0.5900 0.0000
vt 0.1244 0.5080 0.0000
vt 0.1244 0.4260 0.0000
vt 0.5000 0.4260 0.0000
vt 0.8770 1.0000 0.0000
vt 0.8770 0.9167 0.0000
vt 1.0000 0.9167 0.0000
vt 0.8770 0.8333 0.0000
vt 1.0000 0.8333 0.0000
vt 0.8770 0.7500 0.0000
vt 1.0000 0.7500 0.0000
vt 0.8770 0.6667 0.0000
vt 1.0000 0.6667 0.0000
vt 0.8770 0.5833 0.0000
vt 1.0000 0.5833 0.0000
vt 0.8770 -0.0000 0.0000
vt 1.0000 -0.0000 0.0000
vt 1.0000 0.0833 0.0000
vt 0.8770 0.0833 0.0000
vt 1.0000 0.1667 0.0000
vt 0.8770 0.1667 0.0000
vt 1.0000 0.2500 0.0000
vt 0.8770 0.2500 0.0000
vt 1.0000 0.3333 0.0000
vt 0.8770 0.3333 0.0000
vt 0.1245 1.0000 0.0000
vt -0.0000 1.0000 0.0000
vt -0.0000 0.9167 0.0000
vt 0.1245 0.9167 0.0000
vt -0.0000 0.8333 0.0000
vt 0.1245 0.8333 0.0000
vt -0.0000 0.7500 0.0000
vt 0.1245 0.7500 0.0000
vt -0.0000 0.6667 0.0000
vt 0.1245 0.6667 0.0000
vt -0.0000 0.5833 0.0000
vt 0.1245 0.5833 0.0000
vt 0.1245 -0.0000 0.0000
vt 0.1245 0.0833 0.0000
vt 0.0000 0.0833 0.0000
vt 0.1245 0.1667 0.0000
vt 0.0000 0.1667 0.0000
vt 0.1245 0.2500 0.0000
vt 0.0000 0.2500 0.0000
vt 0.1245 0.3333 0.0000
vt 0.0000 0.3333 0.0000
vt -0.0000 -0.0000 0.0000
vt 0.9950 1.0000 0.0000
vt 0.9950 -0.0000 0.0000
vt 0.9901 1.0000 0.0000
vt 0.9901 -0.0000 0.0000
vt 0.9851 1.0000 0.0000
vt 0.9851 -0.0000 0.0000
vt 0.9801 1.0000 0.0000
vt 0.9801 -0.0000 0.0000
vt 0.9751 1.0000 0.0000
vt 0.9751 -0.0000 0.0000
vt 0.9403 1.0000 0.0000
vt 0.9403 -0.0000 0.0000
vt 0.9453 -0.0000 0.0000
vt 0.9453 1.0000 0.0000
vt 0.9503 -0.0000 0.0000
vt 0.9503 1.0000 0.0000
vt 0.9553 -0.0000 0.0000
vt 0.9553 1.0000 0.0000
vt 0.9602 -0.0000 0.0000
vt 0.9602 1.0000 0.0000
vt 0.9950 0.0000 0.0000
vt 0.9901 0.0000 0.0000
vt 0.9851 0.0000 0.0000
vt 0.9801 0.0000 0.0000
vt 0.9751 0.0000 0.0000
vt 0.9403 0.0000 0.0000
vt 0.9453 0.0000 0.0000
vt 0.9503 0.0000 0.0000
vt 0.9553 0.0000 0.0000
vt 0.9602 0.0000 0.0000
vt 0.6446 0.0160 0.0000
vt 0.7310 0.0160 0.0000
vt 0.6910 0.0541 0.0000
vt 0.6859 0.0552 0.0000
vt 0.6878 0.0571 0.0000
vt 0.6446 0.0164 0.0000
vt 0.5000 0.0980 0.0000
vt 0.8760 0.0980 0.0000
vt 0.8760 0.1800 0.0000
vt 0.5000 0.1800 0.0000
vt 0.8760 0.2620 0.0000
vt 0.5000 0.2620 0.0000
vt 0.8760 0.3440 0.0000
vt 0.5000 0.3440 0.0000
vt 0.8760 0.4260 0.0000
vt 0.8760 1.0000 0.0000
vt 0.5000 1.0000 0.0000
vt 0.5000 0.9180 0.0000
vt 0.8760 0.9180 0.0000
vt 0.5000 0.8360 0.0000
vt 0.8760 0.8360 0.0000
vt 0.5000 0.7540 0.0000
vt 0.8760 0.7540 0.0000
vt 0.5000 0.6720 0.0000
vt 0.8760 0.6720 0.0000
vt 0.1244 1.0000 0.0000
vt 0.1244 0.9180 0.0000
vt 0.1244 0.8360 0.0000
vt 0.1244 0.7540 0.0000
vt 0.1244 0.6720 0.0000
vt 0.1244 0.5900 0.0000
vt 0.2687 0.0160 0.0000
vt 0.3547 0.0160 0.0000
vt 0.3241 0.0453 0.0000
vt 0.3048 0.0504 0.0000
vt 0.3153 0.0537 0.0000
vt 0.3118 0.0570 0.0000
vt 0.2687 0.0166 0.0000
vt 0.1244 0.0980 0.0000
vt 0.1244 0.1800 0.0000
vt 0.1244 0.2620 0.0000
vt 0.1244 0.3440 0.0000
vt 0.8760 0.0160 0.0000
vt 0.7292 0.0377 0.0000
vt 0.7239 0.0465 0.0000
vt 0.7148 0.0526 0.0000
vt 0.7029 0.0561 0.0000
vt 0.6961 0.0565 0.0000
vt 0.6870 0.0571 0.0000
vt 0.6799 0.0566 0.0000
vt 0.6712 0.0560 0.0000
vt 0.5000 0.0160 0.0000
vt 0.6447 0.0265 0.0000
vt 0.6464 0.0379 0.0000
vt 0.6512 0.0463 0.0000
vt 0.6599 0.0523 0.0000
vt 0.3553 0.0270 0.0000
vt 0.3532 0.0377 0.0000
vt 0.3480 0.0461 0.0000
vt 0.3394 0.0522 0.0000
vt 0.3270 0.0564 0.0000
vt 0.3178 0.0568 0.0000
vt 0.3036 0.0564 0.0000
vt 0.2958 0.0558 0.0000
vt 0.2905 0.0542 0.0000
vt 0.1244 0.0160 0.0000
vt 0.2840 0.0522 0.0000
vt 0.2684 0.0267 0.0000
vt 0.2704 0.0379 0.0000
vt 0.2757 0.0463 0.0000
# 169 texture coords

g AvenueNode
f 1/1/1 2/2/1 3/3/1 
f 3/3/1 4/4/1 1/1/1 
f 5/5/1 6/6/1 7/7/1 
f 7/7/1 8/8/1 5/5/1 
f 2/9/2 9/10/2 10/11/2 
f 10/11/2 3/9/2 2/9/2 
f 1/12/3 11/13/3 12/14/3 
f 12/14/3 13/15/3 1/12/3 
f 14/13/4 6/16/4 15/17/4 
f 15/17/4 16/14/4 14/13/4 
f 5/18/5 17/19/5 18/19/5 
f 18/19/5 19/18/5 5/18/5 
f 20/20/1 9/21/1 21/22/1 
f 21/22/1 22/23/1 20/20/1 
f 20/20/1 17/24/1 23/25/1 
f 23/25/1 24/26/1 20/20/1 
f 25/18/1 26/27/1 27/28/1 
f 27/28/1 28/29/1 25/18/1 
f 28/29/1 27/28/1 29/30/1 
f 29/30/1 30/31/1 28/29/1 
f 30/31/1 29/30/1 31/32/1 
f 31/32/1 32/33/1 30/31/1 
f 32/33/1 31/32/1 33/34/1 
f 33/34/1 34/35/1 32/33/1 
f 34/35/1 33/34/1 35/36/1 
f 35/36/1 13/37/1 34/35/1 
f 13/37/1 35/36/1 2/2/1 
f 2/2/1 1/1/1 13/37/1 
f 36/38/1 37/39/1 38/40/1 
f 38/40/1 39/41/1 36/38/1 
f 39/41/1 38/40/1 40/42/1 
f 40/42/1 41/43/1 39/41/1 
f 41/43/1 40/42/1 42/44/1 
f 42/44/1 43/45/1 41/43/1 
f 43/45/1 42/44/1 44/46/1 
f 44/46/1 45/47/1 43/45/1 
f 45/47/1 44/46/1 4/4/1 
f 4/4/1 3/3/1 45/47/1 
f 46/48/1 47/49/1 48/50/1 
f 48/50/1 49/51/1 46/48/1 
f 49/51/1 48/50/1 50/52/1 
f 50/52/1 51/53/1 49/51/1 
f 51/53/1 50/52/1 52/54/1 
f 52/54/1 53/55/1 51/53/1 
f 53/55/1 52/54/1 54/56/1 
f 54/56/1 55/57/1 53/55/1 
f 55/57/1 54/56/1 15/58/1 
f 15/58/1 19/59/1 55/57/1 
f 19/59/1 15/58/1 6/6/1 
f 6/6/1 5/5/1 19/59/1 
f 56/11/1 57/60/1 58/61/1 
f 58/61/1 59/62/1 56/11/1 
f 59/62/1 58/61/1 60/63/1 
f 60/63/1 61/64/1 59/62/1 
f 61/64/1 60/63/1 62/65/1 
f 62/65/1 63/66/1 61/64/1 
f 63/66/1 62/65/1 64/67/1 
f 64/67/1 65/68/1 63/66/1 
f 65/68/1 64/67/1 8/8/1 
f 8/8/1 7/7/1 65/68/1 
f 26/9/2 66/10/2 67/10/2 
f 67/10/2 27/9/2 26/9/2 
f 27/9/2 67/10/2 68/10/2 
f 68/10/2 29/9/2 27/9/2 
f 29/9/2 68/10/2 69/10/2 
f 69/10/2 31/9/2 29/9/2 
f 31/9/2 69/10/2 70/10/2 
f 70/10/2 33/9/2 31/9/2 
f 33/9/2 70/10/2 21/10/2 
f 21/10/2 35/9/2 33/9/2 
f 35/9/2 21/10/2 9/10/2 
f 9/10/2 2/9/2 35/9/2 
f 71/69/2 36/49/2 39/49/2 
f 39/49/2 72/69/2 71/69/2 
f 72/69/2 39/49/2 41/49/2 
f 41/49/2 73/69/2 72/69/2 
f 73/69/2 41/49/2 43/49/2 
f 43/49/2 74/69/2 73/69/2 
f 74/69/2 43/49/2 45/9/2 
f 45/9/2 75/11/2 74/69/2 
f 75/11/2 45/9/2 3/9/2 
f 3/9/2 10/11/2 75/11/2 
f 37/39/3 76/18/3 77/70/3 
f 77/70/3 38/71/3 37/39/3 
f 38/71/3 77/70/3 78/72/3 
f 78/72/3 40/73/3 38/71/3 
f 40/73/3 78/72/3 79/74/3 
f 79/74/3 42/75/3 40/73/3 
f 42/75/3 79/74/3 80/76/3 
f 80/76/3 44/77/3 42/75/3 
f 44/77/3 80/76/3 81/78/3 
f 81/78/3 4/79/3 44/77/3 
f 4/79/3 81/78/3 11/13/3 
f 11/13/3 1/12/3 4/79/3 
f 82/80/3 25/81/3 28/82/3 
f 28/82/3 83/83/3 82/80/3 
f 83/83/3 28/82/3 30/84/3 
f 30/84/3 84/85/3 83/83/3 
f 84/85/3 30/84/3 32/86/3 
f 32/86/3 85/87/3 84/85/3 
f 85/87/3 32/86/3 34/88/3 
f 34/88/3 86/89/3 85/87/3 
f 86/89/3 34/88/3 13/15/3 
f 13/15/3 12/14/3 86/89/3 
f 87/18/4 56/19/4 59/90/4 
f 59/90/4 88/70/4 87/18/4 
f 88/70/4 59/90/4 61/91/4 
f 61/91/4 89/72/4 88/70/4 
f 89/72/4 61/91/4 63/92/4 
f 63/92/4 90/74/4 89/72/4 
f 90/74/4 63/92/4 65/93/4 
f 65/93/4 91/76/4 90/74/4 
f 91/76/4 65/93/4 7/94/4 
f 7/94/4 92/78/4 91/76/4 
f 92/78/4 7/94/4 6/16/4 
f 6/16/4 14/13/4 92/78/4 
f 47/95/4 93/80/4 94/83/4 
f 94/83/4 48/96/4 47/95/4 
f 48/96/4 94/83/4 95/85/4 
f 95/85/4 50/97/4 48/96/4 
f 50/97/4 95/85/4 96/87/4 
f 96/87/4 52/98/4 50/97/4 
f 52/98/4 96/87/4 97/89/4 
f 97/89/4 54/99/4 52/98/4 
f 54/99/4 97/89/4 16/14/4 
f 16/14/4 15/17/4 54/99/4 
f 57/18/5 98/39/5 99/39/5 
f 99/39/5 58/18/5 57/18/5 
f 58/18/5 99/39/5 100/39/5 
f 100/39/5 60/18/5 58/18/5 
f 60/18/5 100/39/5 101/39/5 
f 101/39/5 62/18/5 60/18/5 
f 62/18/5 101/39/5 102/39/5 
f 102/39/5 64/18/5 62/18/5 
f 64/18/5 102/39/5 23/39/5 
f 23/39/5 8/18/5 64/18/5 
f 8/18/5 23/39/5 17/19/5 
f 17/19/5 5/18/5 8/18/5 
f 103/19/5 46/18/5 49/18/5 
f 49/18/5 104/19/5 103/19/5 
f 104/19/5 49/18/5 51/18/5 
f 51/18/5 105/19/5 104/19/5 
f 105/19/5 51/18/5 53/18/5 
f 53/18/5 106/19/5 105/19/5 
f 106/19/5 53/18/5 55/18/5 
f 55/18/5 107/19/5 106/19/5 
f 107/19/5 55/18/5 19/18/5 
f 19/18/5 18/19/5 107/19/5 
f 108/100/1 109/101/1 110/102/1 111/103/1 
f 110/102/1 112/104/1 111/103/1 
f 113/105/1 108/100/1 111/103/1 
f 114/106/1 72/107/1 73/108/1 
f 73/108/1 115/109/1 114/106/1 
f 115/109/1 73/108/1 74/110/1 
f 74/110/1 116/111/1 115/109/1 
f 116/111/1 74/110/1 75/112/1 
f 75/112/1 117/113/1 116/111/1 
f 117/113/1 75/112/1 10/114/1 
f 10/114/1 24/26/1 117/113/1 
f 24/26/1 10/114/1 9/21/1 
f 9/21/1 20/20/1 24/26/1 
f 66/115/1 118/116/1 119/117/1 
f 119/117/1 67/118/1 66/115/1 
f 67/118/1 119/117/1 120/119/1 
f 120/119/1 68/120/1 67/118/1 
f 68/120/1 120/119/1 121/121/1 
f 121/121/1 69/122/1 68/120/1 
f 69/122/1 121/121/1 122/123/1 
f 122/123/1 70/124/1 69/122/1 
f 70/124/1 122/123/1 22/23/1 
f 22/23/1 21/22/1 70/124/1 
f 118/116/1 103/125/1 104/126/1 
f 104/126/1 119/117/1 118/116/1 
f 119/117/1 104/126/1 105/127/1 
f 105/127/1 120/119/1 119/117/1 
f 120/119/1 105/127/1 106/128/1 
f 106/128/1 121/121/1 120/119/1 
f 121/121/1 106/128/1 107/129/1 
f 107/129/1 122/123/1 121/121/1 
f 122/123/1 107/129/1 18/130/1 
f 18/130/1 22/23/1 122/123/1 
f 22/23/1 18/130/1 17/24/1 
f 17/24/1 20/20/1 22/23/1 
f 123/131/1 124/132/1 125/133/1 126/134/1 
f 127/135/1 128/136/1 126/134/1 
f 125/133/1 127/135/1 126/134/1 
f 129/137/1 123/131/1 126/134/1 
f 99/138/1 114/106/1 115/109/1 
f 115/109/1 100/139/1 99/138/1 
f 100/139/1 115/109/1 116/111/1 
f 116/111/1 101/140/1 100/139/1 
f 101/140/1 116/111/1 117/113/1 
f 117/113/1 102/141/1 101/140/1 
f 102/141/1 117/113/1 24/26/1 
f 24/26/1 23/25/1 102/141/1 
f 130/101/1 71/142/1 72/107/1 131/143/1 
f 132/144/1 131/143/1 72/107/1 133/145/1 
f 134/146/1 133/145/1 72/107/1 114/106/1 
f 135/147/1 134/146/1 114/106/1 136/104/1 
f 137/148/1 136/104/1 114/106/1 138/149/1 
f 139/150/1 138/149/1 114/106/1 140/151/1 
f 140/151/1 141/100/1 142/105/1 143/152/1 
f 140/151/1 143/152/1 144/153/1 145/154/1 
f 140/151/1 145/154/1 146/155/1 139/150/1 
f 147/145/1 148/146/1 149/147/1 112/104/1 
f 150/144/1 147/145/1 112/104/1 110/102/1 
f 151/143/1 150/144/1 110/102/1 109/101/1 
f 111/103/1 112/104/1 152/148/1 153/149/1 
f 153/149/1 154/150/1 155/155/1 156/153/1 
f 155/155/1 157/154/1 156/153/1 
f 156/153/1 158/152/1 113/105/1 153/149/1 
f 111/103/1 153/149/1 113/105/1 
f 130/101/6 131/143/6 151/143/6 109/101/6 
f 131/143/7 132/144/7 150/144/7 151/143/7 
f 132/144/8 133/145/8 147/145/8 150/144/8 
f 133/145/9 134/146/9 148/146/9 147/145/9 
f 134/146/10 135/147/10 149/147/10 148/146/10 
f 135/147/11 136/104/11 112/104/11 149/147/11 
f 136/104/11 137/148/11 152/148/11 112/104/11 
f 137/148/12 138/149/12 153/149/12 152/148/12 
f 138/149/12 139/150/12 154/150/12 153/149/12 
f 139/150/13 146/155/13 155/155/13 154/150/13 
f 146/155/14 145/154/14 157/154/14 155/155/14 
f 145/154/15 144/153/15 156/153/15 157/154/15 
f 144/153/16 143/152/16 158/152/16 156/153/16 
f 143/152/17 142/105/17 113/105/17 158/152/17 
f 142/105/17 141/100/17 108/100/17 113/105/17 
f 141/100/18 130/101/18 109/101/18 108/100/18 
f 159/132/1 140/151/1 114/106/1 160/156/1 
f 161/157/1 160/156/1 114/106/1 162/158/1 
f 163/159/1 162/158/1 114/106/1 164/160/1 
f 164/160/1 114/106/1 99/138/1 165/161/1 
f 166/136/1 165/161/1 99/138/1 167/162/1 
f 168/163/1 167/162/1 99/138/1 169/164/1 
f 169/164/1 99/138/1 98/165/1 170/166/1 
f 98/165/1 171/131/1 172/137/1 173/167/1 
f 98/165/1 173/167/1 174/168/1 175/169/1 
f 98/165/1 175/169/1 170/166/1 
f 124/132/1 176/156/1 177/157/1 125/133/1 
f 178/159/1 179/160/1 180/161/1 128/136/1 
f 181/158/1 178/159/1 128/136/1 127/135/1 
f 181/158/1 127/135/1 125/133/1 177/157/1 
f 128/136/1 182/162/1 126/134/1 
f 126/134/1 182/162/1 183/163/1 184/164/1 
f 184/164/1 185/166/1 186/169/1 129/137/1 
f 186/169/1 187/168/1 188/167/1 129/137/1 
f 126/134/1 184/164/1 129/137/1 
f 159/132/19 160/156/19 176/156/19 124/132/19 
f 160/156/20 161/157/20 177/157/20 176/156/20 
f 161/157/21 162/158/21 181/158/21 177/157/21 
f 162/158/22 163/159/22 178/159/22 181/158/22 
f 163/159/23 164/160/23 179/160/23 178/159/23 
f 164/160/24 165/161/24 180/161/24 179/160/24 
f 165/161/24 166/136/24 128/136/24 180/161/24 
f 166/136/25 167/162/25 182/162/25 128/136/25 
f 167/162/25 168/163/25 183/163/25 182/162/25 
f 168/163/26 169/164/26 184/164/26 183/163/26 
f 169/164/26 170/166/26 185/166/26 184/164/26 
f 170/166/27 175/169/27 186/169/27 185/166/27 
f 175/169/28 174/168/28 187/168/28 186/169/28 
f 174/168/29 173/167/29 188/167/29 187/168/29 
f 173/167/30 172/137/30 129/137/30 188/167/30 
f 172/137/30 171/131/30 123/131/30 129/137/30 
f 171/131/18 159/132/18 124/132/18 123/131/18 
# 66 polygons - 198 triangles

