# 3ds Max Wavefront OBJ Exporter v0.97b - (c)2007 guruware
# File Created: 25.07.2018 18:47:04

#
# object Object002
#

v  13.2500 -0.3000 -25.5997
v  13.2500 -0.3000 -28.7997
v  -13.2500 -0.3000 -28.7997
v  -13.2500 -0.3000 -25.5997
v  13.2500 -0.3000 -22.3997
v  -13.2500 -0.3000 -22.3997
v  13.2500 -0.3000 -19.1997
v  -13.2500 -0.3000 -19.1997
v  13.2500 -0.3000 -15.9997
v  -13.2500 -0.3000 -15.9997
v  13.2500 -0.3000 -12.7997
v  -13.2500 -0.3000 -12.7997
v  13.2500 -0.3000 -9.5997
v  -13.2500 -0.3000 -9.5997
v  13.2500 -0.3000 -6.3997
v  -13.2500 -0.3000 -6.3997
v  13.2500 -0.3000 -3.1997
v  -13.2500 -0.3000 -3.1997
v  13.2500 -0.3000 0.0003
v  -13.2500 -0.3000 0.0003
v  13.2500 -0.3000 3.2003
v  -13.2500 -0.3000 3.2003
v  13.2500 -0.3000 6.4003
v  -13.2500 -0.3000 6.4003
v  13.2500 -0.3000 9.6003
v  -13.2500 -0.3000 9.6003
v  13.2500 -0.3000 12.8003
v  -13.2500 -0.3000 12.8003
v  13.2500 -0.3000 16.0003
v  -13.2500 -0.3000 16.0003
v  13.2500 -0.3000 19.2003
v  -13.2500 -0.3000 19.2003
v  13.2500 -0.3000 22.4003
v  -13.2500 -0.3000 22.4003
v  13.2500 -0.3000 25.6003
v  -13.2500 -0.3000 25.6003
v  13.2500 -0.3000 28.8003
v  -13.2500 -0.3000 28.8003
v  13.2500 -0.3000 32.0003
v  -13.2500 -0.3000 32.0003
v  13.2500 -0.3000 -31.9997
v  -13.2500 -0.3000 -31.9997
v  -13.7500 -0.0000 -3.1997
v  -13.7500 -0.0000 0.0003
v  -13.7500 -0.3000 0.0003
v  -13.7500 -0.3000 -3.1997
v  -15.7500 -0.0000 3.2003
v  -15.7500 -0.0000 0.0003
v  -18.7500 -3.1650 0.0003
v  -18.7500 -3.1650 3.2003
v  -12.0000 -0.0000 28.8003
v  -12.0000 -0.0000 32.0003
v  -12.0000 -0.3000 32.0003
v  -12.0000 -0.3000 28.8003
v  -12.4229 -0.0000 25.6003
v  -12.4229 -0.3000 25.6003
v  -13.2329 -0.0000 22.4003
v  -13.2329 -0.3000 22.4003
v  -13.7418 -0.0000 19.2003
v  -13.7418 -0.3000 19.2003
v  -13.7500 -0.0000 16.0003
v  -13.7500 -0.3000 16.0003
v  -13.7500 -0.0000 12.8003
v  -13.7500 -0.3000 12.8003
v  -13.7500 -0.0000 9.6003
v  -13.7500 -0.3000 9.6003
v  -13.7500 -0.0000 6.4003
v  -13.7500 -0.3000 6.4003
v  -13.7500 -0.0000 3.2003
v  -13.7500 -0.3000 3.2003
v  -12.0000 -0.3000 -28.7997
v  -12.0000 -0.3000 -31.9997
v  -12.0000 -0.0000 -31.9997
v  -12.0000 -0.0000 -28.7997
v  -12.4229 -0.3000 -25.5997
v  -12.4229 -0.0000 -25.5997
v  -13.2329 -0.3000 -22.3997
v  -13.2329 -0.0000 -22.3997
v  -13.7418 -0.3000 -19.1997
v  -13.7418 -0.0000 -19.1997
v  -13.7500 -0.3000 -15.9997
v  -13.7500 -0.0000 -15.9997
v  -13.7500 -0.3000 -12.7997
v  -13.7500 -0.0000 -12.7997
v  -13.7500 -0.3000 -9.5997
v  -13.7500 -0.0000 -9.5997
v  -13.7500 -0.3000 -6.3997
v  -13.7500 -0.0000 -6.3997
v  -15.7500 -0.0000 -28.7997
v  -15.7500 -0.0000 -31.9997
v  -18.7500 -3.1650 -31.9997
v  -18.7500 -3.1650 -28.7997
v  -15.7500 -0.0000 -25.5997
v  -18.7500 -3.1650 -25.5997
v  -15.7500 -0.0000 -22.3997
v  -18.7500 -3.1650 -22.3997
v  -15.7500 -0.0000 -19.1997
v  -18.7500 -3.1650 -19.1997
v  -15.7500 -0.0000 -15.9997
v  -18.7500 -3.1650 -15.9997
v  -15.7500 -0.0000 -12.7997
v  -18.7500 -3.1650 -12.7997
v  -15.7500 -0.0000 -9.5997
v  -18.7500 -3.1650 -9.5997
v  -15.7500 -0.0000 -6.3997
v  -18.7500 -3.1650 -6.3997
v  -15.7500 -0.0000 -3.1997
v  -18.7500 -3.1650 -3.1997
v  -18.7500 -3.1650 28.8003
v  -18.7500 -3.1650 32.0003
v  -15.7500 -0.0000 32.0003
v  -15.7500 -0.0000 28.8003
v  -18.7500 -3.1650 25.6003
v  -15.7500 -0.0000 25.6003
v  -18.7500 -3.1650 22.4003
v  -15.7500 -0.0000 22.4003
v  -18.7500 -3.1650 19.2003
v  -15.7500 -0.0000 19.2003
v  -18.7500 -3.1650 16.0003
v  -15.7500 -0.0000 16.0003
v  -18.7500 -3.1650 12.8003
v  -15.7500 -0.0000 12.8003
v  -18.7500 -3.1650 9.6003
v  -15.7500 -0.0000 9.6003
v  -18.7500 -3.1650 6.4003
v  -15.7500 -0.0000 6.4003
v  -13.7500 -0.3000 22.4003
v  -13.7500 -0.3000 19.2003
v  -13.7500 -0.3000 -22.3997
v  -13.7500 -0.3000 -19.1997
v  13.7500 -0.0000 -3.1997
v  13.7500 -0.3000 -3.1997
v  13.7500 -0.3000 0.0003
v  13.7500 -0.0000 0.0003
v  15.7500 -0.0000 3.2003
v  18.7500 -3.1650 3.2003
v  18.7500 -3.1650 0.0003
v  15.7500 -0.0000 0.0003
v  12.0000 -0.0000 28.8003
v  12.0000 -0.3000 28.8003
v  12.0000 -0.3000 32.0003
v  12.0000 -0.0000 32.0003
v  12.4229 -0.0000 25.6003
v  12.4229 -0.3000 25.6003
v  13.2329 -0.0000 22.4003
v  13.2329 -0.3000 22.4003
v  13.7418 -0.0000 19.2003
v  13.7418 -0.3000 19.2003
v  13.7500 -0.0000 16.0003
v  13.7500 -0.3000 16.0003
v  13.7500 -0.0000 12.8003
v  13.7500 -0.3000 12.8003
v  13.7500 -0.0000 9.6003
v  13.7500 -0.3000 9.6003
v  13.7500 -0.0000 6.4003
v  13.7500 -0.3000 6.4003
v  13.7500 -0.0000 3.2003
v  13.7500 -0.3000 3.2003
v  12.0000 -0.3000 -28.7997
v  12.0000 -0.0000 -28.7997
v  12.0000 -0.0000 -31.9997
v  12.0000 -0.3000 -31.9997
v  12.4229 -0.3000 -25.5997
v  12.4229 -0.0000 -25.5997
v  13.2329 -0.3000 -22.3997
v  13.2329 -0.0000 -22.3997
v  13.7418 -0.3000 -19.1997
v  13.7418 -0.0000 -19.1997
v  13.7500 -0.3000 -15.9997
v  13.7500 -0.0000 -15.9997
v  13.7500 -0.3000 -12.7997
v  13.7500 -0.0000 -12.7997
v  13.7500 -0.3000 -9.5997
v  13.7500 -0.0000 -9.5997
v  13.7500 -0.3000 -6.3997
v  13.7500 -0.0000 -6.3997
v  15.7500 -0.0000 -28.7997
v  18.7500 -3.1650 -28.7997
v  18.7500 -3.1650 -31.9997
v  15.7500 -0.0000 -31.9997
v  15.7500 -0.0000 -25.5997
v  18.7500 -3.1650 -25.5997
v  15.7500 -0.0000 -22.3997
v  18.7500 -3.1650 -22.3997
v  15.7500 -0.0000 -19.1997
v  18.7500 -3.1650 -19.1997
v  15.7500 -0.0000 -15.9997
v  18.7500 -3.1650 -15.9997
v  15.7500 -0.0000 -12.7997
v  18.7500 -3.1650 -12.7997
v  15.7500 -0.0000 -9.5997
v  18.7500 -3.1650 -9.5997
v  15.7500 -0.0000 -6.3997
v  18.7500 -3.1650 -6.3997
v  15.7500 -0.0000 -3.1997
v  18.7500 -3.1650 -3.1997
v  18.7500 -3.1650 28.8003
v  15.7500 -0.0000 28.8003
v  15.7500 -0.0000 32.0003
v  18.7500 -3.1650 32.0003
v  18.7500 -3.1650 25.6003
v  15.7500 -0.0000 25.6003
v  18.7500 -3.1650 22.4003
v  15.7500 -0.0000 22.4003
v  18.7500 -3.1650 19.2003
v  15.7500 -0.0000 19.2003
v  18.7500 -3.1650 16.0003
v  15.7500 -0.0000 16.0003
v  18.7500 -3.1650 12.8003
v  15.7500 -0.0000 12.8003
v  18.7500 -3.1650 9.6003
v  15.7500 -0.0000 9.6003
v  18.7500 -3.1650 6.4003
v  15.7500 -0.0000 6.4003
v  13.7500 -0.3000 22.4003
v  13.7500 -0.3000 19.2003
v  13.7500 -0.3000 -22.3997
v  13.7500 -0.3000 -19.1997
# 218 vertices

vn 0.0000 1.0000 -0.0000
vn 1.0000 0.0000 -0.0000
vn -0.7258 0.6879 -0.0000
vn 0.9914 0.0000 -0.1310
vn 0.9694 0.0000 -0.2454
vn 0.9876 0.0000 -0.1571
vn 1.0000 0.0000 -0.0026
vn 0.9914 0.0000 0.1310
vn 0.9694 0.0000 0.2454
vn 0.9876 0.0000 0.1571
vn 1.0000 0.0000 0.0026
vn -1.0000 0.0000 -0.0000
vn 0.7258 0.6879 -0.0000
vn -0.9914 0.0000 -0.1310
vn -0.9694 0.0000 -0.2454
vn -0.9876 0.0000 -0.1571
vn -1.0000 0.0000 -0.0026
vn -0.9914 0.0000 0.1310
vn -0.9694 0.0000 0.2454
vn -0.9876 0.0000 0.1571
vn -1.0000 0.0000 0.0026
# 21 vertex normals

vt 0.8763 0.9000 0.0000
vt 0.8763 0.9500 0.0000
vt 0.1247 0.9500 0.0000
vt 0.1247 0.9000 0.0000
vt 0.8763 0.8500 0.0000
vt 0.1247 0.8500 0.0000
vt 0.8763 0.8000 0.0000
vt 0.1247 0.8000 0.0000
vt 0.8763 0.7500 0.0000
vt 0.1247 0.7500 0.0000
vt 0.8763 0.7000 0.0000
vt 0.1247 0.7000 0.0000
vt 0.8763 0.6500 0.0000
vt 0.1247 0.6500 0.0000
vt 0.8763 0.6000 0.0000
vt 0.1247 0.6000 0.0000
vt 0.8763 0.5500 0.0000
vt 0.1247 0.5500 0.0000
vt 0.8763 0.5000 0.0000
vt 0.1247 0.5000 0.0000
vt 0.8763 0.4500 0.0000
vt 0.1247 0.4500 0.0000
vt 0.8763 0.4000 0.0000
vt 0.1247 0.4000 0.0000
vt 0.8763 0.3500 0.0000
vt 0.1247 0.3500 0.0000
vt 0.8763 0.3000 0.0000
vt 0.1247 0.3000 0.0000
vt 0.8763 0.2500 0.0000
vt 0.1247 0.2500 0.0000
vt 0.8763 0.2000 0.0000
vt 0.1247 0.2000 0.0000
vt 0.8763 0.1500 0.0000
vt 0.1247 0.1500 0.0000
vt 0.8763 0.1000 0.0000
vt 0.1247 0.1000 0.0000
vt 0.8763 0.0500 0.0000
vt 0.1247 0.0500 0.0000
vt 0.8763 0.0000 0.0000
vt 0.1247 0.0000 0.0000
vt 0.8763 1.0000 0.0000
vt 0.1247 1.0000 0.0000
vt 0.8810 0.4500 0.0000
vt 0.8810 0.5000 0.0000
vt 0.8960 0.5000 0.0000
vt 0.8960 0.4500 0.0000
vt 0.9900 0.4500 0.0000
vt 0.9900 0.5000 0.0000
vt 1.0000 0.5000 0.0000
vt 1.0000 0.4500 0.0000
vt 0.8810 0.9500 0.0000
vt 0.8810 1.0000 0.0000
vt 0.8960 1.0000 0.0000
vt 0.8960 0.9500 0.0000
vt 0.8810 0.9000 0.0000
vt 0.8960 0.9000 0.0000
vt 0.8810 0.8500 0.0000
vt 0.8960 0.8500 0.0000
vt 0.8810 0.8000 0.0000
vt 0.8960 0.8000 0.0000
vt 0.8810 0.7500 0.0000
vt 0.8960 0.7500 0.0000
vt 0.8810 0.7000 0.0000
vt 0.8960 0.7000 0.0000
vt 0.8810 0.6500 0.0000
vt 0.8960 0.6500 0.0000
vt 0.8810 0.6000 0.0000
vt 0.8960 0.6000 0.0000
vt 0.8810 0.5500 0.0000
vt 0.8960 0.5500 0.0000
vt 0.8960 0.0500 0.0000
vt 0.8960 -0.0000 0.0000
vt 0.8810 0.0000 0.0000
vt 0.8810 0.0500 0.0000
vt 0.8960 0.1000 0.0000
vt 0.8810 0.1000 0.0000
vt 0.8960 0.1500 0.0000
vt 0.8810 0.1500 0.0000
vt 0.8960 0.2000 0.0000
vt 0.8810 0.2000 0.0000
vt 0.8960 0.2500 0.0000
vt 0.8810 0.2500 0.0000
vt 0.8960 0.3000 0.0000
vt 0.8810 0.3000 0.0000
vt 0.8960 0.3500 0.0000
vt 0.8810 0.3500 0.0000
vt 0.8960 0.4000 0.0000
vt 0.8810 0.4000 0.0000
vt 0.9900 0.9500 0.0000
vt 0.9900 1.0000 0.0000
vt 1.0000 1.0000 0.0000
vt 1.0000 0.9500 0.0000
vt 0.9900 0.9000 0.0000
vt 1.0000 0.9000 0.0000
vt 0.9900 0.8500 0.0000
vt 1.0000 0.8500 0.0000
vt 0.9900 0.8000 0.0000
vt 1.0000 0.8000 0.0000
vt 0.9900 0.7500 0.0000
vt 1.0000 0.7500 0.0000
vt 0.9900 0.7000 0.0000
vt 1.0000 0.7000 0.0000
vt 0.9900 0.6500 0.0000
vt 1.0000 0.6500 0.0000
vt 0.9900 0.6000 0.0000
vt 1.0000 0.6000 0.0000
vt 0.9900 0.5500 0.0000
vt 1.0000 0.5500 0.0000
vt 1.0000 0.0500 0.0000
vt 1.0000 0.0000 0.0000
vt 0.9900 0.0000 0.0000
vt 0.9900 0.0500 0.0000
vt 1.0000 0.1000 0.0000
vt 0.9900 0.1000 0.0000
vt 1.0000 0.1500 0.0000
vt 0.9900 0.1500 0.0000
vt 1.0000 0.2000 0.0000
vt 0.9900 0.2000 0.0000
vt 1.0000 0.2500 0.0000
vt 0.9900 0.2500 0.0000
vt 1.0000 0.3000 0.0000
vt 0.9900 0.3000 0.0000
vt 1.0000 0.3500 0.0000
vt 0.9900 0.3500 0.0000
vt 1.0000 0.4000 0.0000
vt 0.9900 0.4000 0.0000
vt 0.1363 0.1500 0.0000
vt 0.1248 0.1500 0.0000
vt 0.1248 0.1000 0.0000
vt 0.1363 0.2000 0.0000
vt 0.1248 0.2000 0.0000
vt 0.1363 0.2500 0.0000
vt 0.1248 0.2500 0.0000
vt 0.1363 0.3000 0.0000
vt 0.1248 0.3000 0.0000
vt 0.1363 0.3500 0.0000
vt 0.1248 0.3500 0.0000
vt 0.1363 0.4000 0.0000
vt 0.1248 0.4000 0.0000
vt 0.1363 0.4500 0.0000
vt 0.1248 0.4500 0.0000
vt 0.1363 0.5000 0.0000
vt 0.1248 0.5000 0.0000
vt 0.1248 0.9000 0.0000
vt 0.1248 0.8500 0.0000
vt 0.1363 0.8500 0.0000
vt 0.1248 0.8000 0.0000
vt 0.1363 0.8000 0.0000
vt 0.1248 0.7500 0.0000
vt 0.1363 0.7500 0.0000
vt 0.1248 0.7000 0.0000
vt 0.1363 0.7000 0.0000
vt 0.1248 0.6500 0.0000
vt 0.1363 0.6500 0.0000
vt 0.1248 0.6000 0.0000
vt 0.1363 0.6000 0.0000
vt 0.1248 0.5500 0.0000
vt 0.1363 0.5500 0.0000
vt 0.1244 1.0000 0.0000
vt 0.0001 1.0000 0.0000
vt 0.0001 0.9500 0.0000
vt 0.1244 0.9500 0.0000
vt 0.1244 0.9000 0.0000
vt 0.0001 0.9000 0.0000
vt 0.1244 0.8500 0.0000
vt 0.0001 0.8500 0.0000
vt 0.1244 0.8000 0.0000
vt 0.0001 0.8000 0.0000
vt 0.0001 0.7500 0.0000
vt 0.1244 0.7500 0.0000
vt 0.0001 0.7000 0.0000
vt 0.1244 0.7000 0.0000
vt 0.0001 0.6500 0.0000
vt 0.1244 0.6500 0.0000
vt 0.0001 0.6000 0.0000
vt 0.1244 0.6000 0.0000
vt 0.0001 0.5500 0.0000
vt 0.1244 0.5500 0.0000
vt 0.0001 0.5000 0.0000
vt 0.1244 0.5000 0.0000
vt 0.0001 0.4500 0.0000
vt 0.1244 0.4500 0.0000
vt 0.0001 0.4000 0.0000
vt 0.1244 0.4000 0.0000
vt 0.0001 0.3500 0.0000
vt 0.1244 0.3500 0.0000
vt 0.0001 0.3000 0.0000
vt 0.1244 0.3000 0.0000
vt 0.0001 0.2500 0.0000
vt 0.1244 0.2500 0.0000
vt 0.0001 0.2000 0.0000
vt 0.1244 0.2000 0.0000
vt 0.0001 0.1500 0.0000
vt 0.1244 0.1500 0.0000
vt 0.0001 0.1000 0.0000
vt 0.1244 0.1000 0.0000
vt 0.0001 0.0500 0.0000
vt 0.1244 0.0500 0.0000
vt 0.0001 0.0000 0.0000
vt 0.1244 0.0000 0.0000
# 200 texture coords

g Object002
s 1
f 1/1/1 2/2/1 3/3/1 4/4/1 
f 5/5/1 1/1/1 4/4/1 6/6/1 
f 7/7/1 5/5/1 6/6/1 8/8/1 
f 9/9/1 7/7/1 8/8/1 10/10/1 
f 11/11/1 9/9/1 10/10/1 12/12/1 
f 13/13/1 11/11/1 12/12/1 14/14/1 
f 15/15/1 13/13/1 14/14/1 16/16/1 
f 17/17/1 15/15/1 16/16/1 18/18/1 
f 19/19/1 17/17/1 18/18/1 20/20/1 
f 21/21/1 19/19/1 20/20/1 22/22/1 
f 23/23/1 21/21/1 22/22/1 24/24/1 
f 25/25/1 23/23/1 24/24/1 26/26/1 
f 27/27/1 25/25/1 26/26/1 28/28/1 
f 29/29/1 27/27/1 28/28/1 30/30/1 
f 31/31/1 29/29/1 30/30/1 32/32/1 
f 33/33/1 31/31/1 32/32/1 34/34/1 
f 35/35/1 33/33/1 34/34/1 36/36/1 
f 37/37/1 35/35/1 36/36/1 38/38/1 
f 39/39/1 37/37/1 38/38/1 40/40/1 
f 2/2/1 41/41/1 42/42/1 3/3/1 
s off
f 43/43/2 44/44/2 45/45/2 46/46/2 
f 47/47/3 48/48/3 49/49/3 50/50/3 
f 51/51/2 52/52/2 53/53/2 54/54/2 
f 55/55/4 51/51/4 54/54/4 56/56/4 
f 57/57/5 55/55/5 56/56/5 58/58/5 
f 59/59/6 57/57/6 58/58/6 60/60/6 
f 61/61/7 59/59/7 60/60/7 62/62/7 
f 63/63/2 61/61/2 62/62/2 64/64/2 
f 65/65/2 63/63/2 64/64/2 66/66/2 
f 67/67/2 65/65/2 66/66/2 68/68/2 
f 69/69/2 67/67/2 68/68/2 70/70/2 
f 44/44/2 69/69/2 70/70/2 45/45/2 
f 71/71/2 72/72/2 73/73/2 74/74/2 
f 75/75/8 71/71/8 74/74/8 76/76/8 
f 77/77/9 75/75/9 76/76/9 78/78/9 
f 79/79/10 77/77/10 78/78/10 80/80/10 
f 81/81/11 79/79/11 80/80/11 82/82/11 
f 83/83/2 81/81/2 82/82/2 84/84/2 
f 85/85/2 83/83/2 84/84/2 86/86/2 
f 87/87/2 85/85/2 86/86/2 88/88/2 
f 46/46/2 87/87/2 88/88/2 43/43/2 
f 89/89/3 90/90/3 91/91/3 92/92/3 
f 93/93/3 89/89/3 92/92/3 94/94/3 
f 95/95/3 93/93/3 94/94/3 96/96/3 
f 97/97/3 95/95/3 96/96/3 98/98/3 
f 99/99/3 97/97/3 98/98/3 100/100/3 
f 101/101/3 99/99/3 100/100/3 102/102/3 
f 103/103/3 101/101/3 102/102/3 104/104/3 
f 105/105/3 103/103/3 104/104/3 106/106/3 
f 107/107/3 105/105/3 106/106/3 108/108/3 
f 48/48/3 107/107/3 108/108/3 49/49/3 
f 109/109/3 110/110/3 111/111/3 112/112/3 
f 113/113/3 109/109/3 112/112/3 114/114/3 
f 115/115/3 113/113/3 114/114/3 116/116/3 
f 117/117/3 115/115/3 116/116/3 118/118/3 
f 119/119/3 117/117/3 118/118/3 120/120/3 
f 121/121/3 119/119/3 120/120/3 122/122/3 
f 123/123/3 121/121/3 122/122/3 124/124/3 
f 125/125/3 123/123/3 124/124/3 126/126/3 
f 50/50/3 125/125/3 126/126/3 47/47/3 
s 1
f 34/127/1 127/128/1 36/129/1 
f 34/127/1 32/130/1 128/131/1 127/128/1 
f 32/130/1 30/132/1 62/133/1 128/131/1 
f 30/132/1 28/134/1 64/135/1 62/133/1 
f 28/134/1 26/136/1 66/137/1 64/135/1 
f 26/136/1 24/138/1 68/139/1 66/137/1 
f 24/138/1 22/140/1 70/141/1 68/139/1 
f 70/141/1 22/140/1 20/142/1 45/143/1 
f 4/144/1 129/145/1 6/146/1 
f 130/147/1 8/148/1 6/146/1 129/145/1 
f 81/149/1 10/150/1 8/148/1 130/147/1 
f 83/151/1 12/152/1 10/150/1 81/149/1 
f 85/153/1 14/154/1 12/152/1 83/151/1 
f 87/155/1 16/156/1 14/154/1 85/153/1 
f 46/157/1 18/158/1 16/156/1 87/155/1 
f 45/143/1 20/142/1 18/158/1 46/157/1 
f 73/159/1 90/160/1 89/161/1 74/162/1 
f 76/163/1 74/162/1 89/161/1 93/164/1 
f 78/165/1 76/163/1 93/164/1 95/166/1 
f 80/167/1 78/165/1 95/166/1 97/168/1 
f 80/167/1 97/168/1 99/169/1 82/170/1 
f 82/170/1 99/169/1 101/171/1 84/172/1 
f 84/172/1 101/171/1 103/173/1 86/174/1 
f 86/174/1 103/173/1 105/175/1 88/176/1 
f 88/176/1 105/175/1 107/177/1 43/178/1 
f 43/178/1 107/177/1 48/179/1 44/180/1 
f 44/180/1 48/179/1 47/181/1 69/182/1 
f 69/182/1 47/181/1 126/183/1 67/184/1 
f 67/184/1 126/183/1 124/185/1 65/186/1 
f 65/186/1 124/185/1 122/187/1 63/188/1 
f 63/188/1 122/187/1 120/189/1 61/190/1 
f 61/190/1 120/189/1 118/191/1 59/192/1 
f 59/192/1 118/191/1 116/193/1 57/194/1 
f 57/194/1 116/193/1 114/195/1 55/196/1 
f 55/196/1 114/195/1 112/197/1 51/198/1 
f 51/198/1 112/197/1 111/199/1 52/200/1 
s off
f 131/43/12 132/46/12 133/45/12 134/44/12 
f 135/47/13 136/50/13 137/49/13 138/48/13 
f 139/51/12 140/54/12 141/53/12 142/52/12 
f 143/55/14 144/56/14 140/54/14 139/51/14 
f 145/57/15 146/58/15 144/56/15 143/55/15 
f 147/59/16 148/60/16 146/58/16 145/57/16 
f 149/61/17 150/62/17 148/60/17 147/59/17 
f 151/63/12 152/64/12 150/62/12 149/61/12 
f 153/65/12 154/66/12 152/64/12 151/63/12 
f 155/67/12 156/68/12 154/66/12 153/65/12 
f 157/69/12 158/70/12 156/68/12 155/67/12 
f 134/44/12 133/45/12 158/70/12 157/69/12 
f 159/71/12 160/74/12 161/73/12 162/72/12 
f 163/75/18 164/76/18 160/74/18 159/71/18 
f 165/77/19 166/78/19 164/76/19 163/75/19 
f 167/79/20 168/80/20 166/78/20 165/77/20 
f 169/81/21 170/82/21 168/80/21 167/79/21 
f 171/83/12 172/84/12 170/82/12 169/81/12 
f 173/85/12 174/86/12 172/84/12 171/83/12 
f 175/87/12 176/88/12 174/86/12 173/85/12 
f 132/46/12 131/43/12 176/88/12 175/87/12 
f 177/89/13 178/92/13 179/91/13 180/90/13 
f 181/93/13 182/94/13 178/92/13 177/89/13 
f 183/95/13 184/96/13 182/94/13 181/93/13 
f 185/97/13 186/98/13 184/96/13 183/95/13 
f 187/99/13 188/100/13 186/98/13 185/97/13 
f 189/101/13 190/102/13 188/100/13 187/99/13 
f 191/103/13 192/104/13 190/102/13 189/101/13 
f 193/105/13 194/106/13 192/104/13 191/103/13 
f 195/107/13 196/108/13 194/106/13 193/105/13 
f 138/48/13 137/49/13 196/108/13 195/107/13 
f 197/109/13 198/112/13 199/111/13 200/110/13 
f 201/113/13 202/114/13 198/112/13 197/109/13 
f 203/115/13 204/116/13 202/114/13 201/113/13 
f 205/117/13 206/118/13 204/116/13 203/115/13 
f 207/119/13 208/120/13 206/118/13 205/117/13 
f 209/121/13 210/122/13 208/120/13 207/119/13 
f 211/123/13 212/124/13 210/122/13 209/121/13 
f 213/125/13 214/126/13 212/124/13 211/123/13 
f 136/50/13 135/47/13 214/126/13 213/125/13 
s 1
f 33/127/1 35/129/1 215/128/1 
f 33/127/1 215/128/1 216/131/1 31/130/1 
f 31/130/1 216/131/1 150/133/1 29/132/1 
f 29/132/1 150/133/1 152/135/1 27/134/1 
f 27/134/1 152/135/1 154/137/1 25/136/1 
f 25/136/1 154/137/1 156/139/1 23/138/1 
f 23/138/1 156/139/1 158/141/1 21/140/1 
f 158/141/1 133/143/1 19/142/1 21/140/1 
f 1/144/1 5/146/1 217/145/1 
f 218/147/1 217/145/1 5/146/1 7/148/1 
f 169/149/1 218/147/1 7/148/1 9/150/1 
f 171/151/1 169/149/1 9/150/1 11/152/1 
f 173/153/1 171/151/1 11/152/1 13/154/1 
f 175/155/1 173/153/1 13/154/1 15/156/1 
f 132/157/1 175/155/1 15/156/1 17/158/1 
f 133/143/1 132/157/1 17/158/1 19/142/1 
f 161/159/1 160/162/1 177/161/1 180/160/1 
f 164/163/1 181/164/1 177/161/1 160/162/1 
f 166/165/1 183/166/1 181/164/1 164/163/1 
f 168/167/1 185/168/1 183/166/1 166/165/1 
f 168/167/1 170/170/1 187/169/1 185/168/1 
f 170/170/1 172/172/1 189/171/1 187/169/1 
f 172/172/1 174/174/1 191/173/1 189/171/1 
f 174/174/1 176/176/1 193/175/1 191/173/1 
f 176/176/1 131/178/1 195/177/1 193/175/1 
f 131/178/1 134/180/1 138/179/1 195/177/1 
f 134/180/1 157/182/1 135/181/1 138/179/1 
f 157/182/1 155/184/1 214/183/1 135/181/1 
f 155/184/1 153/186/1 212/185/1 214/183/1 
f 153/186/1 151/188/1 210/187/1 212/185/1 
f 151/188/1 149/190/1 208/189/1 210/187/1 
f 149/190/1 147/192/1 206/191/1 208/189/1 
f 147/192/1 145/194/1 204/193/1 206/191/1 
f 145/194/1 143/196/1 202/195/1 204/193/1 
f 143/196/1 139/198/1 198/197/1 202/195/1 
f 139/198/1 142/200/1 199/199/1 198/197/1 
# 168 polygons - 4 triangles

