# 3ds Max Wavefront OBJ Exporter v0.97b - (c)2007 guruware
# File Created: 19.07.2018 21:13:26

#
# object Plane002
#

v  6.0000 -0.3000 0.0001
v  6.0000 0.0000 0.0001
v  6.0000 0.0000 -3.1999
v  6.0000 -0.3000 -3.1999
v  8.5000 0.0000 0.0001
v  8.5000 -0.3000 0.0001
v  8.5000 -0.3000 -3.1999
v  8.5000 0.0000 -3.1999
v  -8.5000 -0.3000 0.0001
v  -8.5000 0.0000 0.0001
v  -8.5000 0.0000 -3.1999
v  -8.5000 -0.3000 -3.1999
v  -6.0000 -0.3000 0.0001
v  -6.0000 0.0000 0.0001
v  -6.0000 0.0000 3.2001
v  -6.0000 -0.3000 3.2001
v  -8.5000 0.0000 3.2001
v  6.0000 0.0000 3.2001
v  8.5000 0.0000 3.2001
v  6.0000 -0.3000 32.0001
v  6.0000 0.0000 32.0001
v  6.0000 0.0000 28.8001
v  6.0000 -0.3000 28.8001
v  6.0000 0.0000 25.6001
v  6.0000 -0.3000 25.6001
v  6.0000 0.0000 22.4001
v  6.0000 -0.3000 22.4001
v  6.0000 0.0000 19.2001
v  6.0000 -0.3000 19.2001
v  6.0000 0.0000 16.0001
v  6.0000 -0.3000 16.0001
v  6.0000 0.0000 12.8001
v  6.0000 -0.3000 12.8001
v  6.0000 0.0000 9.6001
v  6.0000 -0.3000 9.6001
v  6.0000 0.0000 6.4001
v  6.0000 -0.3000 6.4001
v  6.0000 -0.3000 3.2001
v  6.0000 0.0000 -31.9999
v  6.0000 -0.3000 -31.9999
v  6.0000 -0.3000 -28.7999
v  6.0000 0.0000 -28.7999
v  6.0000 -0.3000 -25.5999
v  6.0000 0.0000 -25.5999
v  6.0000 -0.3000 -22.3999
v  6.0000 0.0000 -22.3999
v  6.0000 -0.3000 -19.1999
v  6.0000 0.0000 -19.1999
v  6.0000 -0.3000 -15.9999
v  6.0000 0.0000 -15.9999
v  6.0000 -0.3000 -12.7999
v  6.0000 0.0000 -12.7999
v  6.0000 -0.3000 -9.5999
v  6.0000 0.0000 -9.5999
v  6.0000 -0.3000 -6.3999
v  6.0000 0.0000 -6.3999
v  8.5000 0.0000 32.0001
v  8.5000 -0.3000 32.0001
v  8.5000 -0.3000 28.8001
v  8.5000 0.0000 28.8001
v  8.5000 -0.3000 25.6001
v  8.5000 0.0000 25.6001
v  8.5000 -0.3000 22.4001
v  8.5000 0.0000 22.4001
v  8.5000 -0.3000 19.2001
v  8.5000 0.0000 19.2001
v  8.5000 -0.3000 16.0001
v  8.5000 0.0000 16.0001
v  8.5000 -0.3000 12.8001
v  8.5000 0.0000 12.8001
v  8.5000 -0.3000 9.6001
v  8.5000 0.0000 9.6001
v  8.5000 -0.3000 6.4001
v  8.5000 0.0000 6.4001
v  8.5000 -0.3000 3.2001
v  8.5000 -0.3000 -31.9999
v  8.5000 0.0000 -31.9999
v  8.5000 0.0000 -28.7999
v  8.5000 -0.3000 -28.7999
v  8.5000 0.0000 -25.5999
v  8.5000 -0.3000 -25.5999
v  8.5000 0.0000 -22.3999
v  8.5000 -0.3000 -22.3999
v  8.5000 0.0000 -19.1999
v  8.5000 -0.3000 -19.1999
v  8.5000 0.0000 -15.9999
v  8.5000 -0.3000 -15.9999
v  8.5000 0.0000 -12.7999
v  8.5000 -0.3000 -12.7999
v  8.5000 0.0000 -9.5999
v  8.5000 -0.3000 -9.5999
v  8.5000 0.0000 -6.3999
v  8.5000 -0.3000 -6.3999
v  -8.5000 -0.3000 32.0001
v  -8.5000 0.0000 32.0001
v  -8.5000 0.0000 28.8001
v  -8.5000 -0.3000 28.8001
v  -8.5000 0.0000 25.6001
v  -8.5000 -0.3000 25.6001
v  -8.5000 0.0000 22.4001
v  -8.5000 -0.3000 22.4001
v  -8.5000 0.0000 19.2001
v  -8.5000 -0.3000 19.2001
v  -8.5000 0.0000 16.0001
v  -8.5000 -0.3000 16.0001
v  -8.5000 0.0000 12.8001
v  -8.5000 -0.3000 12.8001
v  -8.5000 0.0000 9.6001
v  -8.5000 -0.3000 9.6001
v  -8.5000 0.0000 6.4001
v  -8.5000 -0.3000 6.4001
v  -8.5000 -0.3000 3.2001
v  -8.5000 0.0000 -31.9999
v  -8.5000 -0.3000 -31.9999
v  -8.5000 -0.3000 -28.7999
v  -8.5000 0.0000 -28.7999
v  -8.5000 -0.3000 -25.5999
v  -8.5000 0.0000 -25.5999
v  -8.5000 -0.3000 -22.3999
v  -8.5000 0.0000 -22.3999
v  -8.5000 -0.3000 -19.1999
v  -8.5000 0.0000 -19.1999
v  -8.5000 -0.3000 -15.9999
v  -8.5000 0.0000 -15.9999
v  -8.5000 -0.3000 -12.7999
v  -8.5000 0.0000 -12.7999
v  -8.5000 -0.3000 -9.5999
v  -8.5000 0.0000 -9.5999
v  -8.5000 -0.3000 -6.3999
v  -8.5000 0.0000 -6.3999
v  -6.0000 -0.3000 -31.9999
v  -6.0000 0.0000 -31.9999
v  -6.0000 0.0000 -28.7999
v  -6.0000 -0.3000 -28.7999
v  -6.0000 0.0000 -25.5999
v  -6.0000 -0.3000 -25.5999
v  -6.0000 0.0000 -22.3999
v  -6.0000 -0.3000 -22.3999
v  -6.0000 0.0000 -19.1999
v  -6.0000 -0.3000 -19.1999
v  -6.0000 0.0000 -15.9999
v  -6.0000 -0.3000 -15.9999
v  -6.0000 0.0000 -12.7999
v  -6.0000 -0.3000 -12.7999
v  -6.0000 0.0000 -9.5999
v  -6.0000 -0.3000 -9.5999
v  -6.0000 0.0000 -6.3999
v  -6.0000 -0.3000 -6.3999
v  -6.0000 0.0000 -3.1999
v  -6.0000 -0.3000 -3.1999
v  -6.0000 0.0000 32.0001
v  -6.0000 -0.3000 32.0001
v  -6.0000 -0.3000 28.8001
v  -6.0000 0.0000 28.8001
v  -6.0000 -0.3000 25.6001
v  -6.0000 0.0000 25.6001
v  -6.0000 -0.3000 22.4001
v  -6.0000 0.0000 22.4001
v  -6.0000 -0.3000 19.2001
v  -6.0000 0.0000 19.2001
v  -6.0000 -0.3000 16.0001
v  -6.0000 0.0000 16.0001
v  -6.0000 -0.3000 12.8001
v  -6.0000 0.0000 12.8001
v  -6.0000 -0.3000 9.6001
v  -6.0000 0.0000 9.6001
v  -6.0000 -0.3000 6.4001
v  -6.0000 0.0000 6.4001
# 168 vertices

vn -1.0000 0.0000 -0.0000
vn 1.0000 0.0000 -0.0000
vn 0.0000 1.0000 -0.0000
# 3 vertex normals

vt 0.4026 0.5000 0.0000
vt 0.4002 0.5000 0.0000
vt 0.4002 0.5500 0.0000
vt 0.4021 0.5500 0.0000
vt 0.6036 0.5000 0.0000
vt 0.5971 0.5000 0.0000
vt 0.5971 0.5500 0.0000
vt 0.6036 0.5500 0.0000
vt 0.4077 0.5000 0.0000
vt 0.4077 0.5500 0.0000
vt 0.6041 0.5000 0.0000
vt 0.6041 0.4500 0.0000
vt 0.5971 0.4500 0.0000
vt 0.4002 0.4500 0.0000
vt 0.6036 0.4500 0.0000
vt 0.4072 0.0000 0.0000
vt 0.4002 0.0000 0.0000
vt 0.4002 0.0500 0.0000
vt 0.4069 0.0500 0.0000
vt 0.4002 0.1000 0.0000
vt 0.4065 0.1000 0.0000
vt 0.4002 0.1500 0.0000
vt 0.4060 0.1500 0.0000
vt 0.4002 0.2000 0.0000
vt 0.4055 0.2000 0.0000
vt 0.4002 0.2500 0.0000
vt 0.4050 0.2500 0.0000
vt 0.4002 0.3000 0.0000
vt 0.4045 0.3000 0.0000
vt 0.4002 0.3500 0.0000
vt 0.4041 0.3500 0.0000
vt 0.4002 0.4000 0.0000
vt 0.4036 0.4000 0.0000
vt 0.4031 0.4500 0.0000
vt 0.4002 1.0000 0.0000
vt 0.3981 1.0000 0.0000
vt 0.3985 0.9500 0.0000
vt 0.4002 0.9500 0.0000
vt 0.3990 0.9000 0.0000
vt 0.4002 0.9000 0.0000
vt 0.3995 0.8500 0.0000
vt 0.4002 0.8500 0.0000
vt 0.4000 0.8000 0.0000
vt 0.4002 0.8000 0.0000
vt 0.4005 0.7500 0.0000
vt 0.4002 0.7500 0.0000
vt 0.4009 0.7000 0.0000
vt 0.4002 0.7000 0.0000
vt 0.4014 0.6500 0.0000
vt 0.4002 0.6500 0.0000
vt 0.4019 0.6000 0.0000
vt 0.4002 0.6000 0.0000
vt 0.6036 0.0000 0.0000
vt 0.5971 0.0000 0.0000
vt 0.5971 0.0500 0.0000
vt 0.6036 0.0500 0.0000
vt 0.5971 0.1000 0.0000
vt 0.6036 0.1000 0.0000
vt 0.5971 0.1500 0.0000
vt 0.6036 0.1500 0.0000
vt 0.5971 0.2000 0.0000
vt 0.6036 0.2000 0.0000
vt 0.5971 0.2500 0.0000
vt 0.6036 0.2500 0.0000
vt 0.5971 0.3000 0.0000
vt 0.6036 0.3000 0.0000
vt 0.5971 0.3500 0.0000
vt 0.6036 0.3500 0.0000
vt 0.5971 0.4000 0.0000
vt 0.6036 0.4000 0.0000
vt 0.5971 1.0000 0.0000
vt 0.6036 1.0000 0.0000
vt 0.6036 0.9500 0.0000
vt 0.5971 0.9500 0.0000
vt 0.6036 0.9000 0.0000
vt 0.5971 0.9000 0.0000
vt 0.6036 0.8500 0.0000
vt 0.5971 0.8500 0.0000
vt 0.6036 0.8000 0.0000
vt 0.5971 0.8000 0.0000
vt 0.6036 0.7500 0.0000
vt 0.5971 0.7500 0.0000
vt 0.6036 0.7000 0.0000
vt 0.5971 0.7000 0.0000
vt 0.6036 0.6500 0.0000
vt 0.5971 0.6500 0.0000
vt 0.6036 0.6000 0.0000
vt 0.5971 0.6000 0.0000
vt 0.4077 0.0000 0.0000
vt 0.4077 0.0500 0.0000
vt 0.4077 0.1000 0.0000
vt 0.4077 0.1500 0.0000
vt 0.4077 0.2000 0.0000
vt 0.4077 0.2500 0.0000
vt 0.4077 0.3000 0.0000
vt 0.4077 0.3500 0.0000
vt 0.4077 0.4000 0.0000
vt 0.4077 0.4500 0.0000
vt 0.4077 1.0000 0.0000
vt 0.4077 0.9500 0.0000
vt 0.4077 0.9000 0.0000
vt 0.4077 0.8500 0.0000
vt 0.4077 0.8000 0.0000
vt 0.4077 0.7500 0.0000
vt 0.4077 0.7000 0.0000
vt 0.4077 0.6500 0.0000
vt 0.4077 0.6000 0.0000
vt 0.6041 1.0000 0.0000
vt 0.6041 0.9500 0.0000
vt 0.6041 0.9000 0.0000
vt 0.6041 0.8500 0.0000
vt 0.6041 0.8000 0.0000
vt 0.6041 0.7500 0.0000
vt 0.6041 0.7000 0.0000
vt 0.6041 0.6500 0.0000
vt 0.6041 0.6000 0.0000
vt 0.6041 0.5500 0.0000
vt 0.6041 0.0000 0.0000
vt 0.6041 0.0500 0.0000
vt 0.6041 0.1000 0.0000
vt 0.6041 0.1500 0.0000
vt 0.6041 0.2000 0.0000
vt 0.6041 0.2500 0.0000
vt 0.6041 0.3000 0.0000
vt 0.6041 0.3500 0.0000
vt 0.6041 0.4000 0.0000
# 126 texture coords

g Plane002
s off
f 1/1/1 2/2/1 3/3/1 4/4/1 
f 5/5/2 6/6/2 7/7/2 8/8/2 
f 9/9/1 10/2/1 11/3/1 12/10/1 
f 13/6/2 14/11/2 15/12/2 16/13/2 
f 14/11/3 10/2/3 17/14/3 15/12/3 
f 5/5/3 2/2/3 18/14/3 19/15/3 
f 20/16/1 21/17/1 22/18/1 23/19/1 
f 23/19/1 22/18/1 24/20/1 25/21/1 
f 25/21/1 24/20/1 26/22/1 27/23/1 
f 27/23/1 26/22/1 28/24/1 29/25/1 
f 29/25/1 28/24/1 30/26/1 31/27/1 
f 31/27/1 30/26/1 32/28/1 33/29/1 
f 33/29/1 32/28/1 34/30/1 35/31/1 
f 35/31/1 34/30/1 36/32/1 37/33/1 
f 37/33/1 36/32/1 18/14/1 38/34/1 
f 38/34/1 18/14/1 2/2/1 1/1/1 
f 39/35/1 40/36/1 41/37/1 42/38/1 
f 42/38/1 41/37/1 43/39/1 44/40/1 
f 44/40/1 43/39/1 45/41/1 46/42/1 
f 46/42/1 45/41/1 47/43/1 48/44/1 
f 48/44/1 47/43/1 49/45/1 50/46/1 
f 50/46/1 49/45/1 51/47/1 52/48/1 
f 52/48/1 51/47/1 53/49/1 54/50/1 
f 54/50/1 53/49/1 55/51/1 56/52/1 
f 56/52/1 55/51/1 4/4/1 3/3/1 
f 57/53/2 58/54/2 59/55/2 60/56/2 
f 60/56/2 59/55/2 61/57/2 62/58/2 
f 62/58/2 61/57/2 63/59/2 64/60/2 
f 64/60/2 63/59/2 65/61/2 66/62/2 
f 66/62/2 65/61/2 67/63/2 68/64/2 
f 68/64/2 67/63/2 69/65/2 70/66/2 
f 70/66/2 69/65/2 71/67/2 72/68/2 
f 72/68/2 71/67/2 73/69/2 74/70/2 
f 74/70/2 73/69/2 75/13/2 19/15/2 
f 19/15/2 75/13/2 6/6/2 5/5/2 
f 76/71/2 77/72/2 78/73/2 79/74/2 
f 79/74/2 78/73/2 80/75/2 81/76/2 
f 81/76/2 80/75/2 82/77/2 83/78/2 
f 83/78/2 82/77/2 84/79/2 85/80/2 
f 85/80/2 84/79/2 86/81/2 87/82/2 
f 87/82/2 86/81/2 88/83/2 89/84/2 
f 89/84/2 88/83/2 90/85/2 91/86/2 
f 91/86/2 90/85/2 92/87/2 93/88/2 
f 93/88/2 92/87/2 8/8/2 7/7/2 
f 94/89/1 95/17/1 96/18/1 97/90/1 
f 97/90/1 96/18/1 98/20/1 99/91/1 
f 99/91/1 98/20/1 100/22/1 101/92/1 
f 101/92/1 100/22/1 102/24/1 103/93/1 
f 103/93/1 102/24/1 104/26/1 105/94/1 
f 105/94/1 104/26/1 106/28/1 107/95/1 
f 107/95/1 106/28/1 108/30/1 109/96/1 
f 109/96/1 108/30/1 110/32/1 111/97/1 
f 111/97/1 110/32/1 17/14/1 112/98/1 
f 112/98/1 17/14/1 10/2/1 9/9/1 
f 113/35/1 114/99/1 115/100/1 116/38/1 
f 116/38/1 115/100/1 117/101/1 118/40/1 
f 118/40/1 117/101/1 119/102/1 120/42/1 
f 120/42/1 119/102/1 121/103/1 122/44/1 
f 122/44/1 121/103/1 123/104/1 124/46/1 
f 124/46/1 123/104/1 125/105/1 126/48/1 
f 126/48/1 125/105/1 127/106/1 128/50/1 
f 128/50/1 127/106/1 129/107/1 130/52/1 
f 130/52/1 129/107/1 12/10/1 11/3/1 
f 131/71/2 132/108/2 133/109/2 134/74/2 
f 134/74/2 133/109/2 135/110/2 136/76/2 
f 136/76/2 135/110/2 137/111/2 138/78/2 
f 138/78/2 137/111/2 139/112/2 140/80/2 
f 140/80/2 139/112/2 141/113/2 142/82/2 
f 142/82/2 141/113/2 143/114/2 144/84/2 
f 144/84/2 143/114/2 145/115/2 146/86/2 
f 146/86/2 145/115/2 147/116/2 148/88/2 
f 148/88/2 147/116/2 149/117/2 150/7/2 
f 150/7/2 149/117/2 14/11/2 13/6/2 
f 151/118/2 152/54/2 153/55/2 154/119/2 
f 154/119/2 153/55/2 155/57/2 156/120/2 
f 156/120/2 155/57/2 157/59/2 158/121/2 
f 158/121/2 157/59/2 159/61/2 160/122/2 
f 160/122/2 159/61/2 161/63/2 162/123/2 
f 162/123/2 161/63/2 163/65/2 164/124/2 
f 164/124/2 163/65/2 165/67/2 166/125/2 
f 166/125/2 165/67/2 167/69/2 168/126/2 
f 168/126/2 167/69/2 16/13/2 15/12/2 
f 132/108/3 113/35/3 116/38/3 133/109/3 
f 133/109/3 116/38/3 118/40/3 135/110/3 
f 135/110/3 118/40/3 120/42/3 137/111/3 
f 137/111/3 120/42/3 122/44/3 139/112/3 
f 139/112/3 122/44/3 124/46/3 141/113/3 
f 141/113/3 124/46/3 126/48/3 143/114/3 
f 143/114/3 126/48/3 128/50/3 145/115/3 
f 145/115/3 128/50/3 130/52/3 147/116/3 
f 147/116/3 130/52/3 11/3/3 149/117/3 
f 149/117/3 11/3/3 10/2/3 14/11/3 
f 95/17/3 151/118/3 154/119/3 96/18/3 
f 96/18/3 154/119/3 156/120/3 98/20/3 
f 98/20/3 156/120/3 158/121/3 100/22/3 
f 100/22/3 158/121/3 160/122/3 102/24/3 
f 102/24/3 160/122/3 162/123/3 104/26/3 
f 104/26/3 162/123/3 164/124/3 106/28/3 
f 106/28/3 164/124/3 166/125/3 108/30/3 
f 108/30/3 166/125/3 168/126/3 110/32/3 
f 110/32/3 168/126/3 15/12/3 17/14/3 
f 77/72/3 39/35/3 42/38/3 78/73/3 
f 78/73/3 42/38/3 44/40/3 80/75/3 
f 80/75/3 44/40/3 46/42/3 82/77/3 
f 82/77/3 46/42/3 48/44/3 84/79/3 
f 84/79/3 48/44/3 50/46/3 86/81/3 
f 86/81/3 50/46/3 52/48/3 88/83/3 
f 88/83/3 52/48/3 54/50/3 90/85/3 
f 90/85/3 54/50/3 56/52/3 92/87/3 
f 92/87/3 56/52/3 3/3/3 8/8/3 
f 8/8/3 3/3/3 2/2/3 5/5/3 
f 21/17/3 57/53/3 60/56/3 22/18/3 
f 22/18/3 60/56/3 62/58/3 24/20/3 
f 24/20/3 62/58/3 64/60/3 26/22/3 
f 26/22/3 64/60/3 66/62/3 28/24/3 
f 28/24/3 66/62/3 68/64/3 30/26/3 
f 30/26/3 68/64/3 70/66/3 32/28/3 
f 32/28/3 70/66/3 72/68/3 34/30/3 
f 34/30/3 72/68/3 74/70/3 36/32/3 
f 36/32/3 74/70/3 19/15/3 18/14/3 
# 120 polygons

