# 3ds Max Wavefront OBJ Exporter v0.97b - (c)2007 guruware
# File Created: 19.07.2018 21:35:38

#
# object Plane007
#

v  -8.5000 -0.0000 -31.3049
v  -8.4500 -0.0000 -30.5952
v  -8.5000 -0.0000 -31.9999
v  -8.3000 -0.0000 -30.0432
v  -8.0500 -0.0000 -29.6488
v  -7.7000 -0.0000 -29.4123
v  -7.2500 -0.0000 -29.3334
v  -7.2500 -0.0000 -31.9999
v  -6.0000 -0.3000 -31.3049
v  -6.0000 -0.3000 -31.9999
v  -6.0000 -0.0000 -31.3049
v  -6.0000 -0.0000 -31.9999
v  -8.5000 -0.3000 -31.9999
v  -8.5000 -0.3000 -31.3049
v  -6.0500 -0.0000 -30.5952
v  -6.2000 -0.0000 -30.0432
v  -6.4500 -0.0000 -29.6488
v  -6.8000 -0.0000 -29.4123
v  -6.0500 -0.3000 -30.5952
v  -8.4500 -0.3000 -30.5952
v  -6.2000 -0.3000 -30.0432
v  -6.4500 -0.3000 -29.6488
v  -6.8000 -0.3000 -29.4123
v  -7.2500 -0.3000 -29.3334
v  -8.3000 -0.3000 -30.0432
v  -8.0500 -0.3000 -29.6488
v  -7.7000 -0.3000 -29.4123
v  6.0000 0.0000 -31.3049
v  6.0500 0.0000 -30.5952
v  6.0000 0.0000 -31.9999
v  6.2000 0.0000 -30.0432
v  6.4500 0.0000 -29.6488
v  6.8000 0.0000 -29.4123
v  7.2500 0.0000 -29.3334
v  7.2500 0.0000 -31.9999
v  8.5000 -0.3000 -31.3049
v  8.5000 -0.3000 -31.9999
v  8.5000 0.0000 -31.3049
v  8.5000 0.0000 -31.9999
v  6.0000 -0.3000 -31.9999
v  6.0000 -0.3000 -31.3049
v  8.4500 0.0000 -30.5952
v  8.3000 0.0000 -30.0432
v  8.0500 0.0000 -29.6488
v  7.7000 0.0000 -29.4123
v  8.4500 -0.3000 -30.5952
v  6.0500 -0.3000 -30.5952
v  8.3000 -0.3000 -30.0432
v  8.0500 -0.3000 -29.6488
v  7.7000 -0.3000 -29.4123
v  7.2500 -0.3000 -29.3334
v  6.2000 -0.3000 -30.0432
v  6.4500 -0.3000 -29.6488
v  6.8000 -0.3000 -29.4123
# 54 vertices

vn 0.0000 1.0000 -0.0000
vn 0.0000 1.0000 0.0000
vn -0.0000 1.0000 0.0000
vn 0.9994 0.0000 0.0352
vn 1.0000 0.0000 -0.0000
vn -1.0000 0.0000 -0.0000
vn -0.9994 0.0000 0.0352
vn -0.0000 1.0000 -0.0000
vn 0.9859 0.0000 0.1670
vn -0.9859 0.0000 0.1670
vn 0.9151 0.0000 0.4033
vn 0.7174 0.0000 0.6967
vn 0.3745 0.0000 0.9272
vn -0.0000 0.0000 1.0000
vn -0.9151 0.0000 0.4033
vn -0.7174 0.0000 0.6967
vn -0.3745 0.0000 0.9272
# 17 vertex normals

vt 0.5240 0.0096 0.0000
vt 0.5229 0.0119 0.0000
vt 0.5240 -0.0000 0.0000
vt 0.5197 0.0146 0.0000
vt 0.5144 0.0164 0.0000
vt 0.5069 0.0126 0.0000
vt 0.4988 0.0137 0.0000
vt 0.4988 -0.0000 0.0000
vt 0.5231 -0.0000 0.0000
vt 0.5231 0.0252 0.0000
vt 0.4749 -0.0000 0.0000
vt 0.4749 0.0252 0.0000
vt 0.4741 -0.0000 0.0000
vt 0.4741 0.0096 0.0000
vt 0.4751 0.0119 0.0000
vt 0.4782 0.0146 0.0000
vt 0.4834 0.0164 0.0000
vt 0.4907 0.0126 0.0000
vt 0.5216 -0.0000 0.0000
vt 0.5216 0.0252 0.0000
vt 0.4765 0.0252 0.0000
vt 0.4765 -0.0000 0.0000
vt 0.5170 -0.0000 0.0000
vt 0.5170 0.0252 0.0000
vt 0.5093 -0.0000 0.0000
vt 0.5093 0.0252 0.0000
vt 0.5051 -0.0000 0.0000
vt 0.5051 0.0252 0.0000
vt 0.5000 -0.0000 0.0000
vt 0.5000 0.0252 0.0000
vt 0.4811 0.0252 0.0000
vt 0.4811 -0.0000 0.0000
vt 0.4888 0.0252 0.0000
vt 0.4888 -0.0000 0.0000
vt 0.4953 0.0252 0.0000
vt 0.4953 -0.0000 0.0000
# 36 texture coords

g Plane007
s 1
f 1/1/1 2/2/1 3/3/2 
f 2/2/1 4/4/3 3/3/2 
f 4/4/3 5/5/1 3/3/2 
f 5/5/1 6/6/2 3/3/2 
f 6/6/2 7/7/1 3/3/2 
f 7/7/1 8/8/1 3/3/2 
s 2
f 9/9/4 10/9/5 11/10/4 
f 12/10/5 11/10/4 10/9/5 
f 13/11/6 14/11/7 3/12/6 
f 1/12/7 3/12/6 14/11/7 
s 1
f 8/8/1 7/7/1 12/13/1 
f 12/13/1 7/7/1 11/14/2 
f 11/14/2 7/7/1 15/15/2 
f 15/15/2 7/7/1 16/16/1 
f 16/16/1 7/7/1 17/17/2 
f 17/17/2 7/7/1 18/18/8 
s 2
f 9/9/4 11/10/4 19/19/9 
f 15/20/9 19/19/9 11/10/4 
f 1/12/7 14/11/7 2/21/10 
f 20/22/10 2/21/10 14/11/7 
f 19/19/9 15/20/9 21/23/11 
f 16/24/11 21/23/11 15/20/9 
f 21/23/11 16/24/11 22/25/12 
f 17/26/12 22/25/12 16/24/11 
f 22/25/12 17/26/12 23/27/13 
f 18/28/13 23/27/13 17/26/12 
f 23/27/13 18/28/13 24/29/14 
f 7/30/14 24/29/14 18/28/13 
f 2/21/10 20/22/10 4/31/15 
f 25/32/15 4/31/15 20/22/10 
f 4/31/15 25/32/15 5/33/16 
f 26/34/16 5/33/16 25/32/15 
f 5/33/16 26/34/16 6/35/17 
f 27/36/17 6/35/17 26/34/16 
f 6/35/17 27/36/17 7/30/14 
f 24/29/14 7/30/14 27/36/17 
s 1
f 28/1/1 29/2/1 30/3/2 
f 29/2/1 31/4/3 30/3/2 
f 31/4/3 32/5/1 30/3/2 
f 32/5/1 33/6/2 30/3/2 
f 33/6/2 34/7/1 30/3/2 
f 34/7/1 35/8/1 30/3/2 
s 2
f 36/9/4 37/9/5 38/10/4 
f 39/10/5 38/10/4 37/9/5 
f 40/11/6 41/11/7 30/12/6 
f 28/12/7 30/12/6 41/11/7 
s 1
f 35/8/1 34/7/1 39/13/1 
f 39/13/1 34/7/1 38/14/2 
f 38/14/2 34/7/1 42/15/2 
f 42/15/2 34/7/1 43/16/1 
f 43/16/1 34/7/1 44/17/2 
f 44/17/2 34/7/1 45/18/8 
s 2
f 36/9/4 38/10/4 46/19/9 
f 42/20/9 46/19/9 38/10/4 
f 28/12/7 41/11/7 29/21/10 
f 47/22/10 29/21/10 41/11/7 
f 46/19/9 42/20/9 48/23/11 
f 43/24/11 48/23/11 42/20/9 
f 48/23/11 43/24/11 49/25/12 
f 44/26/12 49/25/12 43/24/11 
f 49/25/12 44/26/12 50/27/13 
f 45/28/13 50/27/13 44/26/12 
f 50/27/13 45/28/13 51/29/14 
f 34/30/14 51/29/14 45/28/13 
f 29/21/10 47/22/10 31/31/15 
f 52/32/15 31/31/15 47/22/10 
f 31/31/15 52/32/15 32/33/16 
f 53/34/16 32/33/16 52/32/15 
f 32/33/16 53/34/16 33/35/17 
f 54/36/17 33/35/17 53/34/16 
f 33/35/17 54/36/17 34/30/14 
f 51/29/14 34/30/14 54/36/17 
# 0 polygons - 72 triangles

