# 3ds Max Wavefront OBJ Exporter v0.97b - (c)2007 guruware
# File Created: 28.07.2018 15:22:46

#
# object Object003
#

v  -16.0000 0.0000 3.2003
v  -16.0000 0.0000 0.0003
v  -19.0000 -3.1650 0.0003
v  -19.0000 -3.1650 3.2003
v  16.0000 0.0000 3.2003
v  16.0000 0.0000 0.0003
v  12.0000 0.0000 0.0003
v  12.0000 0.0000 3.2003
v  -12.0000 -0.3000 3.2003
v  -12.0000 -0.3000 0.0003
v  -12.0000 0.0000 0.0003
v  -12.0000 0.0000 3.2003
v  12.0000 -0.3000 -3.1997
v  12.0000 -0.3000 0.0003
v  12.0000 0.0000 -3.1997
v  19.0000 -3.1650 3.2003
v  19.0000 -3.1650 0.0003
v  -16.0000 0.0000 -28.7997
v  -16.0000 0.0000 -31.9997
v  -19.0000 -3.1650 -31.9997
v  -19.0000 -3.1650 -28.7997
v  -16.0000 0.0000 -25.5997
v  -19.0000 -3.1650 -25.5997
v  -16.0000 0.0000 -22.3997
v  -19.0000 -3.1650 -22.3997
v  -16.0000 0.0000 -19.1997
v  -19.0000 -3.1650 -19.1997
v  -16.0000 0.0000 -15.9997
v  -19.0000 -3.1650 -15.9997
v  -16.0000 0.0000 -12.7997
v  -19.0000 -3.1650 -12.7997
v  -16.0000 0.0000 -9.5997
v  -19.0000 -3.1650 -9.5997
v  -16.0000 0.0000 -6.3997
v  -19.0000 -3.1650 -6.3997
v  -16.0000 0.0000 -3.1997
v  -19.0000 -3.1650 -3.1997
v  -19.0000 -3.1650 28.8003
v  -19.0000 -3.1650 32.0003
v  -16.0000 0.0000 32.0003
v  -16.0000 0.0000 28.8003
v  -19.0000 -3.1650 25.6003
v  -16.0000 0.0000 25.6003
v  -19.0000 -3.1650 22.4003
v  -16.0000 0.0000 22.4003
v  -19.0000 -3.1650 19.2003
v  -16.0000 0.0000 19.2003
v  -19.0000 -3.1650 16.0003
v  -16.0000 0.0000 16.0003
v  -19.0000 -3.1650 12.8003
v  -16.0000 0.0000 12.8003
v  -19.0000 -3.1650 9.6003
v  -16.0000 0.0000 9.6003
v  -19.0000 -3.1650 6.4003
v  -16.0000 0.0000 6.4003
v  16.0000 0.0000 -28.7997
v  16.0000 0.0000 -31.9997
v  12.0000 0.0000 -31.9997
v  12.0000 0.0000 -28.7997
v  16.0000 0.0000 -25.5997
v  12.0000 0.0000 -25.5997
v  16.0000 0.0000 -22.3997
v  12.0000 0.0000 -22.3997
v  16.0000 0.0000 -19.1997
v  12.0000 0.0000 -19.1997
v  16.0000 0.0000 -15.9997
v  12.0000 0.0000 -15.9997
v  16.0000 0.0000 -12.7997
v  12.0000 0.0000 -12.7997
v  16.0000 0.0000 -9.5997
v  12.0000 0.0000 -9.5997
v  16.0000 0.0000 -6.3997
v  12.0000 0.0000 -6.3997
v  16.0000 0.0000 -3.1997
v  12.0000 0.0000 28.8003
v  12.0000 0.0000 32.0003
v  16.0000 0.0000 32.0003
v  16.0000 0.0000 28.8003
v  12.0000 0.0000 25.6003
v  16.0000 0.0000 25.6003
v  12.0000 0.0000 22.4003
v  16.0000 0.0000 22.4003
v  12.0000 0.0000 19.2003
v  16.0000 0.0000 19.2003
v  12.0000 0.0000 16.0003
v  16.0000 0.0000 16.0003
v  12.0000 0.0000 12.8003
v  16.0000 0.0000 12.8003
v  12.0000 0.0000 9.6003
v  16.0000 0.0000 9.6003
v  12.0000 0.0000 6.4003
v  16.0000 0.0000 6.4003
v  -12.0000 -0.3000 -28.7997
v  -12.0000 -0.3000 -31.9997
v  -12.0000 0.0000 -31.9997
v  -12.0000 0.0000 -28.7997
v  -12.0000 -0.3000 -25.5997
v  -12.0000 0.0000 -25.5997
v  -12.0000 -0.3000 -22.3997
v  -12.0000 0.0000 -22.3997
v  -12.0000 -0.3000 -19.1997
v  -12.0000 0.0000 -19.1997
v  -12.0000 -0.3000 -15.9997
v  -12.0000 0.0000 -15.9997
v  -12.0000 -0.3000 -12.7997
v  -12.0000 0.0000 -12.7997
v  -12.0000 -0.3000 -9.5997
v  -12.0000 0.0000 -9.5997
v  -12.0000 -0.3000 -6.3997
v  -12.0000 0.0000 -6.3997
v  -12.0000 -0.3000 -3.1997
v  -12.0000 0.0000 -3.1997
v  -12.0000 0.0000 28.8003
v  -12.0000 0.0000 32.0003
v  -12.0000 -0.3000 32.0003
v  -12.0000 -0.3000 28.8003
v  -12.0000 0.0000 25.6003
v  -12.0000 -0.3000 25.6003
v  -12.0000 0.0000 22.4003
v  -12.0000 -0.3000 22.4003
v  -12.0000 0.0000 19.2003
v  -12.0000 -0.3000 19.2003
v  -12.0000 0.0000 16.0003
v  -12.0000 -0.3000 16.0003
v  -12.0000 0.0000 12.8003
v  -12.0000 -0.3000 12.8003
v  -12.0000 0.0000 9.6003
v  -12.0000 -0.3000 9.6003
v  -12.0000 0.0000 6.4003
v  -12.0000 -0.3000 6.4003
v  12.0000 -0.3000 28.8003
v  12.0000 -0.3000 32.0003
v  12.0000 -0.3000 25.6003
v  12.0000 -0.3000 22.4003
v  12.0000 -0.3000 19.2003
v  12.0000 -0.3000 16.0003
v  12.0000 -0.3000 12.8003
v  12.0000 -0.3000 9.6003
v  12.0000 -0.3000 6.4003
v  12.0000 -0.3000 3.2003
v  12.0000 -0.3000 -31.9997
v  12.0000 -0.3000 -28.7997
v  12.0000 -0.3000 -25.5997
v  12.0000 -0.3000 -22.3997
v  12.0000 -0.3000 -19.1997
v  12.0000 -0.3000 -15.9997
v  12.0000 -0.3000 -12.7997
v  12.0000 -0.3000 -9.5997
v  12.0000 -0.3000 -6.3997
v  19.0000 -3.1650 -28.7997
v  19.0000 -3.1650 -31.9997
v  19.0000 -3.1650 -25.5997
v  19.0000 -3.1650 -22.3997
v  19.0000 -3.1650 -19.1997
v  19.0000 -3.1650 -15.9997
v  19.0000 -3.1650 -12.7997
v  19.0000 -3.1650 -9.5997
v  19.0000 -3.1650 -6.3997
v  19.0000 -3.1650 -3.1997
v  19.0000 -3.1650 32.0003
v  19.0000 -3.1650 28.8003
v  19.0000 -3.1650 25.6003
v  19.0000 -3.1650 22.4003
v  19.0000 -3.1650 19.2003
v  19.0000 -3.1650 16.0003
v  19.0000 -3.1650 12.8003
v  19.0000 -3.1650 9.6003
v  19.0000 -3.1650 6.4003
# 168 vertices

vn -0.3950 0.9187 -0.0000
vn -0.7258 0.6879 -0.0000
vn 0.3950 0.9187 -0.0000
vn 0.0000 1.0000 -0.0000
vn 1.0000 0.0000 -0.0000
vn -1.0000 0.0000 -0.0000
vn 0.7258 0.6879 -0.0000
# 7 vertex normals

vt 0.0100 0.4500 0.0000
vt 0.0100 0.5000 0.0000
vt 0.0000 0.5000 0.0000
vt 0.0000 0.4500 0.0000
vt 1.0000 0.4500 0.0000
vt 1.0000 0.5000 0.0000
vt 0.8770 0.5000 0.0000
vt 0.8770 0.4500 0.0000
vt 0.9581 0.5500 0.0000
vt 0.9581 0.5000 0.0000
vt 0.9391 0.5000 0.0000
vt 0.9391 0.5500 0.0000
vt 0.9581 0.4500 0.0000
vt 0.9391 0.4500 0.0000
vt 0.9900 0.5000 0.0000
vt 0.9900 0.4500 0.0000
vt 0.1232 0.4500 0.0000
vt 0.1232 0.5000 0.0000
vt -0.0000 0.5000 0.0000
vt -0.0000 0.4500 0.0000
vt 0.0100 0.9500 0.0000
vt 0.0100 1.0000 0.0000
vt 0.0000 1.0000 0.0000
vt 0.0000 0.9500 0.0000
vt 0.0100 0.9000 0.0000
vt 0.0000 0.9000 0.0000
vt 0.0100 0.8500 0.0000
vt 0.0000 0.8500 0.0000
vt 0.0100 0.8000 0.0000
vt 0.0000 0.8000 0.0000
vt 0.0100 0.7500 0.0000
vt 0.0000 0.7500 0.0000
vt 0.0100 0.7000 0.0000
vt 0.0000 0.7000 0.0000
vt 0.0100 0.6500 0.0000
vt 0.0000 0.6500 0.0000
vt 0.0100 0.6000 0.0000
vt 0.0000 0.6000 0.0000
vt 0.0100 0.5500 0.0000
vt 0.0000 0.5500 0.0000
vt 0.0000 0.0500 0.0000
vt 0.0000 0.0000 0.0000
vt 0.0100 0.0000 0.0000
vt 0.0100 0.0500 0.0000
vt 0.0000 0.1000 0.0000
vt 0.0100 0.1000 0.0000
vt 0.0000 0.1500 0.0000
vt 0.0100 0.1500 0.0000
vt 0.0000 0.2000 0.0000
vt 0.0100 0.2000 0.0000
vt 0.0000 0.2500 0.0000
vt 0.0100 0.2500 0.0000
vt 0.0000 0.3000 0.0000
vt 0.0100 0.3000 0.0000
vt 0.0000 0.3500 0.0000
vt 0.0100 0.3500 0.0000
vt 0.0000 0.4000 0.0000
vt 0.0100 0.4000 0.0000
vt 1.0000 0.9500 0.0000
vt 1.0000 1.0000 0.0000
vt 0.8770 1.0000 0.0000
vt 0.8770 0.9500 0.0000
vt 1.0000 0.9000 0.0000
vt 0.8770 0.9000 0.0000
vt 1.0000 0.8500 0.0000
vt 0.8770 0.8500 0.0000
vt 1.0000 0.8000 0.0000
vt 0.8770 0.8000 0.0000
vt 1.0000 0.7500 0.0000
vt 0.8770 0.7500 0.0000
vt 1.0000 0.7000 0.0000
vt 0.8770 0.7000 0.0000
vt 1.0000 0.6500 0.0000
vt 0.8770 0.6500 0.0000
vt 1.0000 0.6000 0.0000
vt 0.8770 0.6000 0.0000
vt 1.0000 0.5500 0.0000
vt 0.8770 0.5500 0.0000
vt 0.8770 0.0500 0.0000
vt 0.8770 0.0000 0.0000
vt 1.0000 0.0000 0.0000
vt 1.0000 0.0500 0.0000
vt 0.8770 0.1000 0.0000
vt 1.0000 0.1000 0.0000
vt 0.8770 0.1500 0.0000
vt 1.0000 0.1500 0.0000
vt 0.8770 0.2000 0.0000
vt 1.0000 0.2000 0.0000
vt 0.8770 0.2500 0.0000
vt 1.0000 0.2500 0.0000
vt 0.8770 0.3000 0.0000
vt 1.0000 0.3000 0.0000
vt 0.8770 0.3500 0.0000
vt 1.0000 0.3500 0.0000
vt 0.8770 0.4000 0.0000
vt 1.0000 0.4000 0.0000
vt 0.9581 0.0500 0.0000
vt 0.9581 0.0000 0.0000
vt 0.9391 0.0000 0.0000
vt 0.9391 0.0500 0.0000
vt 0.9581 0.1000 0.0000
vt 0.9391 0.1000 0.0000
vt 0.9581 0.1500 0.0000
vt 0.9391 0.1500 0.0000
vt 0.9581 0.2000 0.0000
vt 0.9391 0.2000 0.0000
vt 0.9581 0.2500 0.0000
vt 0.9391 0.2500 0.0000
vt 0.9581 0.3000 0.0000
vt 0.9391 0.3000 0.0000
vt 0.9581 0.3500 0.0000
vt 0.9391 0.3500 0.0000
vt 0.9581 0.4000 0.0000
vt 0.9391 0.4000 0.0000
vt 0.9391 0.9500 0.0000
vt 0.9391 1.0000 0.0000
vt 0.9581 1.0000 0.0000
vt 0.9581 0.9500 0.0000
vt 0.9391 0.9000 0.0000
vt 0.9581 0.9000 0.0000
vt 0.9391 0.8500 0.0000
vt 0.9581 0.8500 0.0000
vt 0.9391 0.8000 0.0000
vt 0.9581 0.8000 0.0000
vt 0.9391 0.7500 0.0000
vt 0.9581 0.7500 0.0000
vt 0.9391 0.7000 0.0000
vt 0.9581 0.7000 0.0000
vt 0.9391 0.6500 0.0000
vt 0.9581 0.6500 0.0000
vt 0.9391 0.6000 0.0000
vt 0.9581 0.6000 0.0000
vt 0.9900 1.0000 0.0000
vt 0.9900 0.9500 0.0000
vt 0.9900 0.9000 0.0000
vt 0.9900 0.8500 0.0000
vt 0.9900 0.8000 0.0000
vt 0.9900 0.7500 0.0000
vt 0.9900 0.7000 0.0000
vt 0.9900 0.6500 0.0000
vt 0.9900 0.6000 0.0000
vt 0.9900 0.5500 0.0000
vt 0.9900 0.0500 0.0000
vt 0.9900 0.0000 0.0000
vt 0.9900 0.1000 0.0000
vt 0.9900 0.1500 0.0000
vt 0.9900 0.2000 0.0000
vt 0.9900 0.2500 0.0000
vt 0.9900 0.3000 0.0000
vt 0.9900 0.3500 0.0000
vt 0.9900 0.4000 0.0000
vt 0.1232 0.9500 0.0000
vt 0.1232 1.0000 0.0000
vt -0.0000 1.0000 0.0000
vt -0.0000 0.9500 0.0000
vt 0.1232 0.9000 0.0000
vt -0.0000 0.9000 0.0000
vt 0.1232 0.8500 0.0000
vt -0.0000 0.8500 0.0000
vt 0.1232 0.8000 0.0000
vt -0.0000 0.8000 0.0000
vt 0.1232 0.7500 0.0000
vt -0.0000 0.7500 0.0000
vt 0.1232 0.7000 0.0000
vt -0.0000 0.7000 0.0000
vt 0.1232 0.6500 0.0000
vt -0.0000 0.6500 0.0000
vt 0.1232 0.6000 0.0000
vt -0.0000 0.6000 0.0000
vt 0.1232 0.5500 0.0000
vt -0.0000 0.5500 0.0000
vt -0.0000 0.0500 0.0000
vt -0.0000 0.0000 0.0000
vt 0.1232 0.0000 0.0000
vt 0.1232 0.0500 0.0000
vt -0.0000 0.1000 0.0000
vt 0.1232 0.1000 0.0000
vt -0.0000 0.1500 0.0000
vt 0.1232 0.1500 0.0000
vt -0.0000 0.2000 0.0000
vt 0.1232 0.2000 0.0000
vt -0.0000 0.2500 0.0000
vt 0.1232 0.2500 0.0000
vt -0.0000 0.3000 0.0000
vt 0.1232 0.3000 0.0000
vt -0.0000 0.3500 0.0000
vt 0.1232 0.3500 0.0000
vt -0.0000 0.4000 0.0000
vt 0.1232 0.4000 0.0000
# 189 texture coords

g Object003
s 2
f 1/1/1 2/2/1 3/3/2 4/4/2 
f 5/5/3 6/6/3 7/7/4 8/8/4 
s off
f 9/9/5 10/10/5 11/11/5 12/12/5 
f 13/13/6 14/10/6 7/11/6 15/14/6 
s 2
f 16/5/7 17/6/7 6/15/3 5/16/3 
f 12/17/4 11/18/4 2/19/1 1/20/1 
f 18/21/1 19/22/1 20/23/2 21/24/2 
f 22/25/1 18/21/1 21/24/2 23/26/2 
f 24/27/1 22/25/1 23/26/2 25/28/2 
f 26/29/1 24/27/1 25/28/2 27/30/2 
f 28/31/1 26/29/1 27/30/2 29/32/2 
f 30/33/1 28/31/1 29/32/2 31/34/2 
f 32/35/1 30/33/1 31/34/2 33/36/2 
f 34/37/1 32/35/1 33/36/2 35/38/2 
f 36/39/1 34/37/1 35/38/2 37/40/2 
f 2/2/1 36/39/1 37/40/2 3/3/2 
f 38/41/2 39/42/2 40/43/1 41/44/1 
f 42/45/2 38/41/2 41/44/1 43/46/1 
f 44/47/2 42/45/2 43/46/1 45/48/1 
f 46/49/2 44/47/2 45/48/1 47/50/1 
f 48/51/2 46/49/2 47/50/1 49/52/1 
f 50/53/2 48/51/2 49/52/1 51/54/1 
f 52/55/2 50/53/2 51/54/1 53/56/1 
f 54/57/2 52/55/2 53/56/1 55/58/1 
f 4/4/2 54/57/2 55/58/1 1/1/1 
f 56/59/3 57/60/3 58/61/4 59/62/4 
f 60/63/3 56/59/3 59/62/4 61/64/4 
f 62/65/3 60/63/3 61/64/4 63/66/4 
f 64/67/3 62/65/3 63/66/4 65/68/4 
f 66/69/3 64/67/3 65/68/4 67/70/4 
f 68/71/3 66/69/3 67/70/4 69/72/4 
f 70/73/3 68/71/3 69/72/4 71/74/4 
f 72/75/3 70/73/3 71/74/4 73/76/4 
f 74/77/3 72/75/3 73/76/4 15/78/4 
f 6/6/3 74/77/3 15/78/4 7/7/4 
f 75/79/4 76/80/4 77/81/3 78/82/3 
f 79/83/4 75/79/4 78/82/3 80/84/3 
f 81/85/4 79/83/4 80/84/3 82/86/3 
f 83/87/4 81/85/4 82/86/3 84/88/3 
f 85/89/4 83/87/4 84/88/3 86/90/3 
f 87/91/4 85/89/4 86/90/3 88/92/3 
f 89/93/4 87/91/4 88/92/3 90/94/3 
f 91/95/4 89/93/4 90/94/3 92/96/3 
f 8/8/4 91/95/4 92/96/3 5/5/3 
s off
f 93/97/5 94/98/5 95/99/5 96/100/5 
f 97/101/5 93/97/5 96/100/5 98/102/5 
f 99/103/5 97/101/5 98/102/5 100/104/5 
f 101/105/5 99/103/5 100/104/5 102/106/5 
f 103/107/5 101/105/5 102/106/5 104/108/5 
f 105/109/5 103/107/5 104/108/5 106/110/5 
f 107/111/5 105/109/5 106/110/5 108/112/5 
f 109/113/5 107/111/5 108/112/5 110/114/5 
f 111/13/5 109/113/5 110/114/5 112/14/5 
f 10/10/5 111/13/5 112/14/5 11/11/5 
f 113/115/5 114/116/5 115/117/5 116/118/5 
f 117/119/5 113/115/5 116/118/5 118/120/5 
f 119/121/5 117/119/5 118/120/5 120/122/5 
f 121/123/5 119/121/5 120/122/5 122/124/5 
f 123/125/5 121/123/5 122/124/5 124/126/5 
f 125/127/5 123/125/5 124/126/5 126/128/5 
f 127/129/5 125/127/5 126/128/5 128/130/5 
f 129/131/5 127/129/5 128/130/5 130/132/5 
f 12/12/5 129/131/5 130/132/5 9/9/5 
f 131/118/6 132/117/6 76/116/6 75/115/6 
f 133/120/6 131/118/6 75/115/6 79/119/6 
f 134/122/6 133/120/6 79/119/6 81/121/6 
f 135/124/6 134/122/6 81/121/6 83/123/6 
f 136/126/6 135/124/6 83/123/6 85/125/6 
f 137/128/6 136/126/6 85/125/6 87/127/6 
f 138/130/6 137/128/6 87/127/6 89/129/6 
f 139/132/6 138/130/6 89/129/6 91/131/6 
f 140/9/6 139/132/6 91/131/6 8/12/6 
f 14/10/6 140/9/6 8/12/6 7/11/6 
f 59/100/6 58/99/6 141/98/6 142/97/6 
f 61/102/6 59/100/6 142/97/6 143/101/6 
f 63/104/6 61/102/6 143/101/6 144/103/6 
f 65/106/6 63/104/6 144/103/6 145/105/6 
f 67/108/6 65/106/6 145/105/6 146/107/6 
f 69/110/6 67/108/6 146/107/6 147/109/6 
f 71/112/6 69/110/6 147/109/6 148/111/6 
f 73/114/6 71/112/6 148/111/6 149/113/6 
f 15/14/6 73/114/6 149/113/6 13/13/6 
s 2
f 150/59/7 151/60/7 57/133/3 56/134/3 
f 152/63/7 150/59/7 56/134/3 60/135/3 
f 153/65/7 152/63/7 60/135/3 62/136/3 
f 154/67/7 153/65/7 62/136/3 64/137/3 
f 155/69/7 154/67/7 64/137/3 66/138/3 
f 156/71/7 155/69/7 66/138/3 68/139/3 
f 157/73/7 156/71/7 68/139/3 70/140/3 
f 158/75/7 157/73/7 70/140/3 72/141/3 
f 159/77/7 158/75/7 72/141/3 74/142/3 
f 17/6/7 159/77/7 74/142/3 6/15/3 
f 78/143/3 77/144/3 160/81/7 161/82/7 
f 80/145/3 78/143/3 161/82/7 162/84/7 
f 82/146/3 80/145/3 162/84/7 163/86/7 
f 84/147/3 82/146/3 163/86/7 164/88/7 
f 86/148/3 84/147/3 164/88/7 165/90/7 
f 88/149/3 86/148/3 165/90/7 166/92/7 
f 90/150/3 88/149/3 166/92/7 167/94/7 
f 92/151/3 90/150/3 167/94/7 168/96/7 
f 5/16/3 92/151/3 168/96/7 16/5/7 
f 96/152/4 95/153/4 19/154/1 18/155/1 
f 98/156/4 96/152/4 18/155/1 22/157/1 
f 100/158/4 98/156/4 22/157/1 24/159/1 
f 102/160/4 100/158/4 24/159/1 26/161/1 
f 104/162/4 102/160/4 26/161/1 28/163/1 
f 106/164/4 104/162/4 28/163/1 30/165/1 
f 108/166/4 106/164/4 30/165/1 32/167/1 
f 110/168/4 108/166/4 32/167/1 34/169/1 
f 112/170/4 110/168/4 34/169/1 36/171/1 
f 11/18/4 112/170/4 36/171/1 2/19/1 
f 41/172/1 40/173/1 114/174/4 113/175/4 
f 43/176/1 41/172/1 113/175/4 117/177/4 
f 45/178/1 43/176/1 117/177/4 119/179/4 
f 47/180/1 45/178/1 119/179/4 121/181/4 
f 49/182/1 47/180/1 121/181/4 123/183/4 
f 51/184/1 49/182/1 123/183/4 125/185/4 
f 53/186/1 51/184/1 125/185/4 127/187/4 
f 55/188/1 53/186/1 127/187/4 129/189/4 
f 1/20/1 55/188/1 129/189/4 12/17/4 
# 120 polygons

