# 3ds Max Wavefront OBJ Exporter v0.97b - (c)2007 guruware
# File Created: 30.07.2018 08:11:01

#
# object Plane013
#

v  -14.4514 0.0000 -5.3333
v  -14.5500 0.0000 -0.0000
v  -12.0000 0.0000 -0.0000
v  -12.0000 0.0000 -5.3333
v  -14.4514 6.4167 -5.3333
v  -14.5500 6.5000 -0.0000
v  14.5500 6.5000 -0.0000
v  14.5500 0.0000 -0.0000
v  14.6514 0.0000 5.3333
v  14.6514 6.5833 5.3333
v  14.4514 6.4167 -5.3333
v  0.0000 6.5000 -0.0000
v  0.0000 6.4167 -5.3333
v  16.0000 -1.5417 5.3333
v  16.0000 -1.7500 -0.0000
v  16.0000 7.5000 -0.0000
v  16.0000 7.5000 5.3333
v  -16.0000 -1.7500 -0.0000
v  -16.0000 7.5000 -0.0000
v  -16.0000 7.5000 -5.3333
v  -16.0000 -1.9583 -5.3333
v  0.0000 7.5000 -0.0000
v  0.0000 7.5000 -5.3333
v  12.0000 0.0000 -0.0000
v  14.4514 0.0000 -5.3333
v  12.0000 0.0000 -5.3333
v  0.0000 7.5000 5.3333
v  0.0000 6.5833 5.3333
v  -14.6514 6.5833 5.3333
v  12.0000 -0.3000 -0.0000
v  12.0000 -0.3000 5.3333
v  12.0000 0.0000 5.3333
v  -12.0000 -0.3000 -0.0000
v  -12.0000 -0.3000 -5.3333
v  -15.0848 0.0000 26.6667
v  -15.2000 0.0000 32.0000
v  -12.0000 0.0000 32.0000
v  -12.0000 0.0000 26.6667
v  -14.9722 0.0000 21.3333
v  -12.0000 0.0000 21.3333
v  -14.8625 0.0000 16.0000
v  -12.0000 0.0000 16.0000
v  -14.7556 0.0000 10.6667
v  -12.0000 0.0000 10.6667
v  -14.6514 0.0000 5.3333
v  -12.0000 0.0000 5.3333
v  -12.0000 0.0000 -26.6667
v  -12.0000 0.0000 -32.0000
v  -14.0000 0.0000 -32.0000
v  -14.0847 0.0000 -26.6667
v  -12.0000 0.0000 -21.3333
v  -14.1723 0.0000 -21.3333
v  -12.0000 0.0000 -16.0000
v  -14.2625 0.0000 -16.0000
v  -12.0000 0.0000 -10.6667
v  -14.3555 0.0000 -10.6667
v  -15.0848 6.9167 26.6667
v  -15.2000 7.0000 32.0000
v  -14.9722 6.8333 21.3333
v  -14.8625 6.7500 16.0000
v  -14.7556 6.6667 10.6667
v  -14.0000 6.0000 -32.0000
v  -14.0847 6.0833 -26.6667
v  -14.1723 6.1667 -21.3333
v  -14.2625 6.2500 -16.0000
v  -14.3555 6.3333 -10.6667
v  14.0000 6.0000 -32.0000
v  14.0000 0.0000 -32.0000
v  14.0847 0.0000 -26.6667
v  14.0847 6.0833 -26.6667
v  14.1723 0.0000 -21.3333
v  14.1723 6.1667 -21.3333
v  14.2625 0.0000 -16.0000
v  14.2625 6.2500 -16.0000
v  14.3555 0.0000 -10.6667
v  14.3555 6.3333 -10.6667
v  15.2000 0.0000 32.0000
v  15.2000 7.0000 32.0000
v  15.0848 6.9167 26.6667
v  15.0848 0.0000 26.6667
v  14.9722 6.8333 21.3333
v  14.9722 0.0000 21.3333
v  14.8625 6.7500 16.0000
v  14.8625 0.0000 16.0000
v  14.7556 6.6667 10.6667
v  14.7556 0.0000 10.6667
v  0.0000 7.0000 32.0000
v  0.0000 6.9167 26.6667
v  0.0000 6.8333 21.3333
v  0.0000 6.7500 16.0000
v  0.0000 6.6667 10.6667
v  0.0000 6.0833 -26.6667
v  0.0000 6.0000 -32.0000
v  0.0000 6.1667 -21.3333
v  0.0000 6.2500 -16.0000
v  0.0000 6.3333 -10.6667
v  16.0000 -2.7917 -26.6667
v  16.0000 -3.0000 -32.0000
v  16.0000 7.5000 -32.0000
v  16.0000 7.5000 -26.6667
v  16.0000 -2.5833 -21.3333
v  16.0000 7.5000 -21.3333
v  16.0000 -2.3750 -16.0000
v  16.0000 7.5000 -16.0000
v  16.0000 -2.1667 -10.6667
v  16.0000 7.5000 -10.6667
v  16.0000 -1.9583 -5.3333
v  16.0000 7.5000 -5.3333
v  16.0000 7.5000 26.6667
v  16.0000 7.5000 32.0000
v  16.0000 -0.5000 32.0000
v  16.0000 -0.7083 26.6667
v  16.0000 7.5000 21.3333
v  16.0000 -0.9167 21.3333
v  16.0000 7.5000 16.0000
v  16.0000 -1.1250 16.0000
v  16.0000 7.5000 10.6667
v  16.0000 -1.3333 10.6667
v  -16.0000 -0.5000 32.0000
v  -16.0000 7.5000 32.0000
v  -16.0000 7.5000 26.6667
v  -16.0000 -0.7083 26.6667
v  -16.0000 7.5000 21.3333
v  -16.0000 -0.9167 21.3333
v  -16.0000 7.5000 16.0000
v  -16.0000 -1.1250 16.0000
v  -16.0000 7.5000 10.6667
v  -16.0000 -1.3333 10.6667
v  -16.0000 7.5000 5.3333
v  -16.0000 -1.5417 5.3333
v  -16.0000 7.5000 -32.0000
v  -16.0000 -3.0000 -32.0000
v  -16.0000 -2.7917 -26.6667
v  -16.0000 7.5000 -26.6667
v  -16.0000 -2.5833 -21.3333
v  -16.0000 7.5000 -21.3333
v  -16.0000 -2.3750 -16.0000
v  -16.0000 7.5000 -16.0000
v  -16.0000 -2.1667 -10.6667
v  -16.0000 7.5000 -10.6667
v  0.0000 7.5000 32.0000
v  0.0000 7.5000 26.6667
v  0.0000 7.5000 21.3333
v  0.0000 7.5000 16.0000
v  0.0000 7.5000 10.6667
v  0.0000 7.5000 -32.0000
v  0.0000 7.5000 -26.6667
v  0.0000 7.5000 -21.3333
v  0.0000 7.5000 -16.0000
v  0.0000 7.5000 -10.6667
v  12.0000 0.0000 32.0000
v  12.0000 0.0000 26.6667
v  12.0000 0.0000 21.3333
v  12.0000 0.0000 16.0000
v  12.0000 0.0000 10.6667
v  12.0000 0.0000 -32.0000
v  12.0000 0.0000 -26.6667
v  12.0000 0.0000 -21.3333
v  12.0000 0.0000 -16.0000
v  12.0000 0.0000 -10.6667
v  12.0000 -0.3000 -32.0000
v  12.0000 -0.3000 -26.6667
v  12.0000 -0.3000 -21.3333
v  12.0000 -0.3000 -16.0000
v  12.0000 -0.3000 -10.6667
v  12.0000 -0.3000 -5.3333
v  12.0000 -0.3000 32.0000
v  12.0000 -0.3000 26.6667
v  12.0000 -0.3000 21.3333
v  12.0000 -0.3000 16.0000
v  12.0000 -0.3000 10.6667
v  -12.0000 -0.3000 32.0000
v  -12.0000 -0.3000 26.6667
v  -12.0000 -0.3000 21.3333
v  -12.0000 -0.3000 16.0000
v  -12.0000 -0.3000 10.6667
v  -12.0000 -0.3000 5.3333
v  -12.0000 -0.3000 -32.0000
v  -12.0000 -0.3000 -26.6667
v  -12.0000 -0.3000 -21.3333
v  -12.0000 -0.3000 -16.0000
v  -12.0000 -0.3000 -10.6667
v  -12.0000 -0.3000 -25.6000
v  0.0001 -0.3000 -25.6000
v  0.0001 -0.3000 -28.8000
v  -12.0000 -0.3000 -28.8000
v  -12.0000 -0.3000 -22.4000
v  0.0001 -0.3000 -22.4000
v  -12.0000 -0.3000 -19.2000
v  0.0001 -0.3000 -19.2000
v  0.0001 -0.3000 -16.0000
v  -12.0000 -0.3000 -12.8000
v  0.0001 -0.3000 -12.8000
v  -12.0000 -0.3000 -9.6000
v  0.0001 -0.3000 -9.6000
v  -12.0000 -0.3000 -6.4000
v  0.0001 -0.3000 -6.4000
v  -12.0000 -0.3000 -3.2000
v  0.0001 -0.3000 -3.2000
v  0.0001 -0.3000 -0.0000
v  -12.0000 -0.3000 3.2000
v  0.0001 -0.3000 3.2000
v  -12.0000 -0.3000 6.4000
v  0.0001 -0.3000 6.4000
v  -12.0000 -0.3000 9.6000
v  0.0001 -0.3000 9.6000
v  -12.0000 -0.3000 12.8000
v  0.0001 -0.3000 12.8000
v  0.0001 -0.3000 16.0000
v  -12.0000 -0.3000 19.2000
v  0.0001 -0.3000 19.2000
v  -12.0000 -0.3000 22.4000
v  0.0001 -0.3000 22.4000
v  -12.0000 -0.3000 25.6000
v  0.0001 -0.3000 25.6000
v  -12.0000 -0.3000 28.8000
v  0.0001 -0.3000 28.8000
v  0.0001 -0.3000 32.0000
v  0.0001 -0.3000 -32.0000
v  12.0000 -0.3000 -25.6000
v  12.0000 -0.3000 -28.8000
v  12.0000 -0.3000 -22.4000
v  12.0000 -0.3000 -19.2000
v  12.0000 -0.3000 -12.8000
v  12.0000 -0.3000 -9.6000
v  12.0000 -0.3000 -6.4000
v  12.0000 -0.3000 -3.2000
v  12.0000 -0.3000 3.2000
v  12.0000 -0.3000 6.4000
v  12.0000 -0.3000 9.6000
v  12.0000 -0.3000 12.8000
v  12.0000 -0.3000 19.2000
v  12.0000 -0.3000 22.4000
v  12.0000 -0.3000 25.6000
v  12.0000 -0.3000 28.8000
# 235 vertices

vn 0.0000 1.0000 -0.0001
vn 0.9999 -0.0000 0.0143
vn -0.9999 -0.0000 0.0143
vn -0.0000 -0.9999 0.0159
vn 1.0000 0.0000 -0.0000
vn -1.0000 0.0000 -0.0000
# 6 vertex normals

vt -0.0001 0.5834 0.0000
vt -0.0001 0.5000 0.0000
vt 0.0625 0.5000 0.0000
vt 0.0625 0.5834 0.0000
vt 0.7443 0.5833 0.0000
vt 0.7443 0.5000 0.0000
vt 0.6970 0.5000 0.0000
vt 0.6970 0.5833 0.0000
vt 0.6970 0.4167 0.0000
vt 0.7443 0.4167 0.0000
vt 0.7327 0.5833 0.0000
vt 0.7327 0.5000 0.0000
vt 0.7660 0.5000 0.0000
vt 0.7660 0.5833 0.0000
vt 1.0000 1.0000 1.0000
vt -0.0001 0.5833 0.0000
vt 0.0625 0.5833 0.0000
vt 0.7660 0.4167 0.0000
vt 0.7327 0.4167 0.0000
vt 0.0625 0.4167 0.0000
vt -0.0001 0.0834 0.0000
vt -0.0001 0.0001 0.0000
vt 0.0625 0.0001 0.0000
vt 0.0625 0.0834 0.0000
vt -0.0001 0.1667 0.0000
vt 0.0625 0.1667 0.0000
vt -0.0001 0.2501 0.0000
vt 0.0625 0.2501 0.0000
vt -0.0001 0.3334 0.0000
vt 0.0625 0.3334 0.0000
vt -0.0001 0.4167 0.0000
vt 0.0625 0.9167 0.0000
vt 0.0625 1.0000 0.0000
vt -0.0001 1.0000 0.0000
vt -0.0001 0.9167 0.0000
vt 0.0625 0.8333 0.0000
vt -0.0001 0.8333 0.0000
vt 0.0625 0.7500 0.0000
vt -0.0001 0.7500 0.0000
vt 0.0625 0.6667 0.0000
vt -0.0001 0.6667 0.0000
vt 0.7443 0.0833 0.0000
vt 0.7443 0.0000 0.0000
vt 0.6970 0.0000 0.0000
vt 0.6970 0.0833 0.0000
vt 0.7443 0.1667 0.0000
vt 0.6970 0.1667 0.0000
vt 0.7443 0.2500 0.0000
vt 0.6970 0.2500 0.0000
vt 0.7443 0.3333 0.0000
vt 0.6970 0.3333 0.0000
vt 0.6970 0.9167 0.0000
vt 0.6970 1.0000 0.0000
vt 0.7443 1.0000 0.0000
vt 0.7443 0.9167 0.0000
vt 0.6970 0.8333 0.0000
vt 0.7443 0.8333 0.0000
vt 0.6970 0.7500 0.0000
vt 0.7443 0.7500 0.0000
vt 0.6970 0.6667 0.0000
vt 0.7443 0.6667 0.0000
vt 0.7327 0.0000 0.0000
vt 0.7660 0.0000 0.0000
vt 0.7660 0.0833 0.0000
vt 0.7327 0.0833 0.0000
vt 0.7660 0.1667 0.0000
vt 0.7327 0.1667 0.0000
vt 0.7660 0.2500 0.0000
vt 0.7327 0.2500 0.0000
vt 0.7660 0.3333 0.0000
vt 0.7327 0.3333 0.0000
vt 0.7660 0.9167 0.0000
vt 0.7660 1.0000 0.0000
vt 0.7327 1.0000 0.0000
vt 0.7327 0.9167 0.0000
vt 0.7660 0.8333 0.0000
vt 0.7327 0.8333 0.0000
vt 0.7660 0.7500 0.0000
vt 0.7327 0.7500 0.0000
vt 0.7660 0.6667 0.0000
vt 0.7327 0.6667 0.0000
vt 0.0625 0.0002 0.0000
vt -0.0001 0.0002 0.0000
vt -0.0001 0.0835 0.0000
vt 0.0625 0.0835 0.0000
vt -0.0001 0.1668 0.0000
vt 0.0625 0.1668 0.0000
vt -0.0001 0.9999 0.0000
vt 0.0625 0.9999 0.0000
vt 0.0625 0.9166 0.0000
vt -0.0001 0.9166 0.0000
vt 0.0623 0.9000 0.0000
vt 0.2503 0.9000 0.0000
vt 0.2503 0.9500 0.0000
vt 0.0623 0.9500 0.0000
vt 0.0623 0.8500 0.0000
vt 0.2503 0.8500 0.0000
vt 0.0623 0.8000 0.0000
vt 0.2503 0.8000 0.0000
vt 0.0623 0.7500 0.0000
vt 0.2503 0.7500 0.0000
vt 0.0623 0.7000 0.0000
vt 0.2503 0.7000 0.0000
vt 0.0623 0.6500 0.0000
vt 0.2503 0.6500 0.0000
vt 0.0623 0.6000 0.0000
vt 0.2503 0.6000 0.0000
vt 0.0623 0.5500 0.0000
vt 0.2503 0.5500 0.0000
vt 0.0623 0.5000 0.0000
vt 0.2503 0.5000 0.0000
vt 0.0623 0.4500 0.0000
vt 0.2503 0.4500 0.0000
vt 0.0623 0.4000 0.0000
vt 0.2503 0.4000 0.0000
vt 0.0623 0.3500 0.0000
vt 0.2503 0.3500 0.0000
vt 0.0623 0.3000 0.0000
vt 0.2503 0.3000 0.0000
vt 0.0623 0.2500 0.0000
vt 0.2503 0.2500 0.0000
vt 0.0623 0.2000 0.0000
vt 0.2503 0.2000 0.0000
vt 0.0623 0.1500 0.0000
vt 0.2503 0.1500 0.0000
vt 0.0623 0.1000 0.0000
vt 0.2503 0.1000 0.0000
vt 0.0623 0.0500 0.0000
vt 0.2503 0.0500 0.0000
vt 0.0623 0.0000 0.0000
vt 0.2503 0.0000 0.0000
vt 0.2503 1.0000 0.0000
vt 0.0623 1.0000 0.0000
vt 0.4384 0.9000 0.0000
vt 0.4384 0.9500 0.0000
vt 0.4384 0.8500 0.0000
vt 0.4384 0.8000 0.0000
vt 0.4384 0.7500 0.0000
vt 0.4384 0.7000 0.0000
vt 0.4384 0.6500 0.0000
vt 0.4384 0.6000 0.0000
vt 0.4384 0.5500 0.0000
vt 0.4384 0.5000 0.0000
vt 0.4384 0.4500 0.0000
vt 0.4384 0.4000 0.0000
vt 0.4384 0.3500 0.0000
vt 0.4384 0.3000 0.0000
vt 0.4384 0.2500 0.0000
vt 0.4384 0.2000 0.0000
vt 0.4384 0.1500 0.0000
vt 0.4384 0.1000 0.0000
vt 0.4384 0.0500 0.0000
vt 0.4384 0.0000 0.0000
vt 0.4384 1.0000 0.0000
# 154 texture coords

g Plane013
s 1
f 1/1/1 2/2/1 3/3/1 
f 3/3/1 4/4/1 1/1/1 
s 2
f 5/5/2 6/6/2 2/7/2 
f 2/7/2 1/8/2 5/5/2 
s 1
f 7/6/3 8/7/3 9/9/3 
f 9/9/3 10/10/3 7/6/3 
s 4
f 11/11/4 7/12/4 12/13/4 
f 12/13/4 13/14/4 11/11/4 
s 1
f 14/15/5 15/15/5 16/15/5 
f 16/15/5 17/15/5 14/15/5 
f 18/15/6 19/15/6 20/15/6 
f 20/15/6 21/15/6 18/15/6 
s 2
f 19/15/1 22/15/1 23/15/1 
f 23/15/1 20/15/1 19/15/1 
f 24/3/1 8/2/1 25/16/1 
f 25/16/1 26/17/1 24/3/1 
f 16/15/1 22/15/1 27/15/1 
f 27/15/1 17/15/1 16/15/1 
s 4
f 6/12/4 12/13/4 28/18/4 
f 28/18/4 29/19/4 6/12/4 
f 24/3/6 30/3/6 31/20/6 
f 31/20/6 32/20/6 24/3/6 
s 2
f 3/3/5 33/3/5 34/4/5 
f 34/4/5 4/4/5 3/3/5 
s 1
f 35/21/1 36/22/1 37/23/1 
f 37/23/1 38/24/1 35/21/1 
f 39/25/1 35/21/1 38/24/1 
f 38/24/1 40/26/1 39/25/1 
f 41/27/1 39/25/1 40/26/1 
f 40/26/1 42/28/1 41/27/1 
f 43/29/1 41/27/1 42/28/1 
f 42/28/1 44/30/1 43/29/1 
f 45/31/1 43/29/1 44/30/1 
f 44/30/1 46/20/1 45/31/1 
f 2/2/1 45/31/1 46/20/1 
f 46/20/1 3/3/1 2/2/1 
f 47/32/1 48/33/1 49/34/1 
f 49/34/1 50/35/1 47/32/1 
f 51/36/1 47/32/1 50/35/1 
f 50/35/1 52/37/1 51/36/1 
f 53/38/1 51/36/1 52/37/1 
f 52/37/1 54/39/1 53/38/1 
f 55/40/1 53/38/1 54/39/1 
f 54/39/1 56/41/1 55/40/1 
f 4/4/1 55/40/1 56/41/1 
f 56/41/1 1/1/1 4/4/1 
s 2
f 57/42/2 58/43/2 36/44/2 
f 36/44/2 35/45/2 57/42/2 
f 59/46/2 57/42/2 35/45/2 
f 35/45/2 39/47/2 59/46/2 
f 60/48/2 59/46/2 39/47/2 
f 39/47/2 41/49/2 60/48/2 
f 61/50/2 60/48/2 41/49/2 
f 41/49/2 43/51/2 61/50/2 
f 29/10/2 61/50/2 43/51/2 
f 43/51/2 45/9/2 29/10/2 
f 6/6/2 29/10/2 45/9/2 
f 45/9/2 2/7/2 6/6/2 
f 50/52/2 49/53/2 62/54/2 
f 62/54/2 63/55/2 50/52/2 
f 52/56/2 50/52/2 63/55/2 
f 63/55/2 64/57/2 52/56/2 
f 54/58/2 52/56/2 64/57/2 
f 64/57/2 65/59/2 54/58/2 
f 56/60/2 54/58/2 65/59/2 
f 65/59/2 66/61/2 56/60/2 
f 1/8/2 56/60/2 66/61/2 
f 66/61/2 5/5/2 1/8/2 
s 1
f 67/54/3 68/53/3 69/52/3 
f 69/52/3 70/55/3 67/54/3 
f 70/55/3 69/52/3 71/56/3 
f 71/56/3 72/57/3 70/55/3 
f 72/57/3 71/56/3 73/58/3 
f 73/58/3 74/59/3 72/57/3 
f 74/59/3 73/58/3 75/60/3 
f 75/60/3 76/61/3 74/59/3 
f 76/61/3 75/60/3 25/8/3 
f 25/8/3 11/5/3 76/61/3 
f 11/5/3 25/8/3 8/7/3 
f 8/7/3 7/6/3 11/5/3 
f 77/44/3 78/43/3 79/42/3 
f 79/42/3 80/45/3 77/44/3 
f 80/45/3 79/42/3 81/46/3 
f 81/46/3 82/47/3 80/45/3 
f 82/47/3 81/46/3 83/48/3 
f 83/48/3 84/49/3 82/47/3 
f 84/49/3 83/48/3 85/50/3 
f 85/50/3 86/51/3 84/49/3 
f 86/51/3 85/50/3 10/10/3 
f 10/10/3 9/9/3 86/51/3 
s 4
f 78/62/4 87/63/4 88/64/4 
f 88/64/4 79/65/4 78/62/4 
f 79/65/4 88/64/4 89/66/4 
f 89/66/4 81/67/4 79/65/4 
f 81/67/4 89/66/4 90/68/4 
f 90/68/4 83/69/4 81/67/4 
f 83/69/4 90/68/4 91/70/4 
f 91/70/4 85/71/4 83/69/4 
f 10/19/4 85/71/4 91/70/4 
f 91/70/4 28/18/4 10/19/4 
f 7/12/4 10/19/4 28/18/4 
f 28/18/4 12/13/4 7/12/4 
f 92/72/4 93/73/4 67/74/4 
f 67/74/4 70/75/4 92/72/4 
f 94/76/4 92/72/4 70/75/4 
f 70/75/4 72/77/4 94/76/4 
f 95/78/4 94/76/4 72/77/4 
f 72/77/4 74/79/4 95/78/4 
f 96/80/4 95/78/4 74/79/4 
f 74/79/4 76/81/4 96/80/4 
f 13/14/4 96/80/4 76/81/4 
f 76/81/4 11/11/4 13/14/4 
s 1
f 97/15/5 98/15/5 99/15/5 
f 99/15/5 100/15/5 97/15/5 
f 101/15/5 97/15/5 100/15/5 
f 100/15/5 102/15/5 101/15/5 
f 103/15/5 101/15/5 102/15/5 
f 102/15/5 104/15/5 103/15/5 
f 105/15/5 103/15/5 104/15/5 
f 104/15/5 106/15/5 105/15/5 
f 107/15/5 105/15/5 106/15/5 
f 106/15/5 108/15/5 107/15/5 
f 15/15/5 107/15/5 108/15/5 
f 108/15/5 16/15/5 15/15/5 
f 109/15/5 110/15/5 111/15/5 
f 111/15/5 112/15/5 109/15/5 
f 113/15/5 109/15/5 112/15/5 
f 112/15/5 114/15/5 113/15/5 
f 115/15/5 113/15/5 114/15/5 
f 114/15/5 116/15/5 115/15/5 
f 117/15/5 115/15/5 116/15/5 
f 116/15/5 118/15/5 117/15/5 
f 17/15/5 117/15/5 118/15/5 
f 118/15/5 14/15/5 17/15/5 
f 119/15/6 120/15/6 121/15/6 
f 121/15/6 122/15/6 119/15/6 
f 122/15/6 121/15/6 123/15/6 
f 123/15/6 124/15/6 122/15/6 
f 124/15/6 123/15/6 125/15/6 
f 125/15/6 126/15/6 124/15/6 
f 126/15/6 125/15/6 127/15/6 
f 127/15/6 128/15/6 126/15/6 
f 128/15/6 127/15/6 129/15/6 
f 129/15/6 130/15/6 128/15/6 
f 130/15/6 129/15/6 19/15/6 
f 19/15/6 18/15/6 130/15/6 
f 131/15/6 132/15/6 133/15/6 
f 133/15/6 134/15/6 131/15/6 
f 134/15/6 133/15/6 135/15/6 
f 135/15/6 136/15/6 134/15/6 
f 136/15/6 135/15/6 137/15/6 
f 137/15/6 138/15/6 136/15/6 
f 138/15/6 137/15/6 139/15/6 
f 139/15/6 140/15/6 138/15/6 
f 140/15/6 139/15/6 21/15/6 
f 21/15/6 20/15/6 140/15/6 
s 2
f 120/15/1 141/15/1 142/15/1 
f 142/15/1 121/15/1 120/15/1 
f 121/15/1 142/15/1 143/15/1 
f 143/15/1 123/15/1 121/15/1 
f 123/15/1 143/15/1 144/15/1 
f 144/15/1 125/15/1 123/15/1 
f 125/15/1 144/15/1 145/15/1 
f 145/15/1 127/15/1 125/15/1 
f 127/15/1 145/15/1 27/15/1 
f 27/15/1 129/15/1 127/15/1 
f 129/15/1 27/15/1 22/15/1 
f 22/15/1 19/15/1 129/15/1 
f 146/15/1 131/15/1 134/15/1 
f 134/15/1 147/15/1 146/15/1 
f 147/15/1 134/15/1 136/15/1 
f 136/15/1 148/15/1 147/15/1 
f 148/15/1 136/15/1 138/15/1 
f 138/15/1 149/15/1 148/15/1 
f 149/15/1 138/15/1 140/15/1 
f 140/15/1 150/15/1 149/15/1 
f 150/15/1 140/15/1 20/15/1 
f 20/15/1 23/15/1 150/15/1 
f 151/82/1 77/83/1 80/84/1 
f 80/84/1 152/85/1 151/82/1 
f 152/85/1 80/84/1 82/86/1 
f 82/86/1 153/87/1 152/85/1 
f 153/87/1 82/86/1 84/27/1 
f 84/27/1 154/28/1 153/87/1 
f 154/28/1 84/27/1 86/29/1 
f 86/29/1 155/30/1 154/28/1 
f 155/30/1 86/29/1 9/31/1 
f 9/31/1 32/20/1 155/30/1 
f 32/20/1 9/31/1 8/2/1 
f 8/2/1 24/3/1 32/20/1 
f 68/88/1 156/89/1 157/90/1 
f 157/90/1 69/91/1 68/88/1 
f 69/91/1 157/90/1 158/36/1 
f 158/36/1 71/37/1 69/91/1 
f 71/37/1 158/36/1 159/38/1 
f 159/38/1 73/39/1 71/37/1 
f 73/39/1 159/38/1 160/40/1 
f 160/40/1 75/41/1 73/39/1 
f 75/41/1 160/40/1 26/17/1 
f 26/17/1 25/16/1 75/41/1 
f 99/15/1 146/15/1 147/15/1 
f 147/15/1 100/15/1 99/15/1 
f 100/15/1 147/15/1 148/15/1 
f 148/15/1 102/15/1 100/15/1 
f 102/15/1 148/15/1 149/15/1 
f 149/15/1 104/15/1 102/15/1 
f 104/15/1 149/15/1 150/15/1 
f 150/15/1 106/15/1 104/15/1 
f 106/15/1 150/15/1 23/15/1 
f 23/15/1 108/15/1 106/15/1 
f 108/15/1 23/15/1 22/15/1 
f 22/15/1 16/15/1 108/15/1 
f 141/15/1 110/15/1 109/15/1 
f 109/15/1 142/15/1 141/15/1 
f 142/15/1 109/15/1 113/15/1 
f 113/15/1 143/15/1 142/15/1 
f 143/15/1 113/15/1 115/15/1 
f 115/15/1 144/15/1 143/15/1 
f 144/15/1 115/15/1 117/15/1 
f 117/15/1 145/15/1 144/15/1 
f 145/15/1 117/15/1 17/15/1 
f 17/15/1 27/15/1 145/15/1 
s 4
f 62/74/4 93/73/4 92/72/4 
f 92/72/4 63/75/4 62/74/4 
f 63/75/4 92/72/4 94/76/4 
f 94/76/4 64/77/4 63/75/4 
f 64/77/4 94/76/4 95/78/4 
f 95/78/4 65/79/4 64/77/4 
f 65/79/4 95/78/4 96/80/4 
f 96/80/4 66/81/4 65/79/4 
f 66/81/4 96/80/4 13/14/4 
f 13/14/4 5/11/4 66/81/4 
f 5/11/4 13/14/4 12/13/4 
f 12/13/4 6/12/4 5/11/4 
f 87/63/4 58/62/4 57/65/4 
f 57/65/4 88/64/4 87/63/4 
f 88/64/4 57/65/4 59/67/4 
f 59/67/4 89/66/4 88/64/4 
f 89/66/4 59/67/4 60/69/4 
f 60/69/4 90/68/4 89/66/4 
f 90/68/4 60/69/4 61/71/4 
f 61/71/4 91/70/4 90/68/4 
f 91/70/4 61/71/4 29/19/4 
f 29/19/4 28/18/4 91/70/4 
f 156/89/6 161/89/6 162/90/6 
f 162/90/6 157/90/6 156/89/6 
f 157/90/6 162/90/6 163/36/6 
f 163/36/6 158/36/6 157/90/6 
f 158/36/6 163/36/6 164/38/6 
f 164/38/6 159/38/6 158/36/6 
f 159/38/6 164/38/6 165/40/6 
f 165/40/6 160/40/6 159/38/6 
f 160/40/6 165/40/6 166/17/6 
f 166/17/6 26/17/6 160/40/6 
f 26/17/6 166/17/6 30/3/6 
f 30/3/6 24/3/6 26/17/6 
f 167/82/6 151/82/6 152/85/6 
f 152/85/6 168/85/6 167/82/6 
f 168/85/6 152/85/6 153/87/6 
f 153/87/6 169/87/6 168/85/6 
f 169/87/6 153/87/6 154/28/6 
f 154/28/6 170/28/6 169/87/6 
f 170/28/6 154/28/6 155/30/6 
f 155/30/6 171/30/6 170/28/6 
f 171/30/6 155/30/6 32/20/6 
f 32/20/6 31/20/6 171/30/6 
s 2
f 37/23/5 172/23/5 173/24/5 
f 173/24/5 38/24/5 37/23/5 
f 38/24/5 173/24/5 174/26/5 
f 174/26/5 40/26/5 38/24/5 
f 40/26/5 174/26/5 175/28/5 
f 175/28/5 42/28/5 40/26/5 
f 42/28/5 175/28/5 176/30/5 
f 176/30/5 44/30/5 42/28/5 
f 44/30/5 176/30/5 177/20/5 
f 177/20/5 46/20/5 44/30/5 
f 46/20/5 177/20/5 33/3/5 
f 33/3/5 3/3/5 46/20/5 
f 178/33/5 48/33/5 47/32/5 
f 47/32/5 179/32/5 178/33/5 
f 179/32/5 47/32/5 51/36/5 
f 51/36/5 180/36/5 179/32/5 
f 180/36/5 51/36/5 53/38/5 
f 53/38/5 181/38/5 180/36/5 
f 181/38/5 53/38/5 55/40/5 
f 55/40/5 182/40/5 181/38/5 
f 182/40/5 55/40/5 4/4/5 
f 4/4/5 34/4/5 182/40/5 
s 1
f 183/92/1 184/93/1 185/94/1 186/95/1 
f 187/96/1 188/97/1 184/93/1 183/92/1 
f 189/98/1 190/99/1 188/97/1 187/96/1 
f 181/100/1 191/101/1 190/99/1 189/98/1 
f 192/102/1 193/103/1 191/101/1 181/100/1 
f 194/104/1 195/105/1 193/103/1 192/102/1 
f 196/106/1 197/107/1 195/105/1 194/104/1 
f 198/108/1 199/109/1 197/107/1 196/106/1 
f 33/110/1 200/111/1 199/109/1 198/108/1 
f 201/112/1 202/113/1 200/111/1 33/110/1 
f 203/114/1 204/115/1 202/113/1 201/112/1 
f 205/116/1 206/117/1 204/115/1 203/114/1 
f 207/118/1 208/119/1 206/117/1 205/116/1 
f 175/120/1 209/121/1 208/119/1 207/118/1 
f 210/122/1 211/123/1 209/121/1 175/120/1 
f 212/124/1 213/125/1 211/123/1 210/122/1 
f 214/126/1 215/127/1 213/125/1 212/124/1 
f 216/128/1 217/129/1 215/127/1 214/126/1 
f 172/130/1 218/131/1 217/129/1 216/128/1 
f 186/95/1 185/94/1 219/132/1 178/133/1 
f 220/134/1 221/135/1 185/94/1 184/93/1 
f 222/136/1 220/134/1 184/93/1 188/97/1 
f 223/137/1 222/136/1 188/97/1 190/99/1 
f 164/138/1 223/137/1 190/99/1 191/101/1 
f 224/139/1 164/138/1 191/101/1 193/103/1 
f 225/140/1 224/139/1 193/103/1 195/105/1 
f 226/141/1 225/140/1 195/105/1 197/107/1 
f 227/142/1 226/141/1 197/107/1 199/109/1 
f 30/143/1 227/142/1 199/109/1 200/111/1 
f 228/144/1 30/143/1 200/111/1 202/113/1 
f 229/145/1 228/144/1 202/113/1 204/115/1 
f 230/146/1 229/145/1 204/115/1 206/117/1 
f 231/147/1 230/146/1 206/117/1 208/119/1 
f 170/148/1 231/147/1 208/119/1 209/121/1 
f 232/149/1 170/148/1 209/121/1 211/123/1 
f 233/150/1 232/149/1 211/123/1 213/125/1 
f 234/151/1 233/150/1 213/125/1 215/127/1 
f 235/152/1 234/151/1 215/127/1 217/129/1 
f 167/153/1 235/152/1 217/129/1 218/131/1 
f 221/135/1 161/154/1 219/132/1 185/94/1 
# 40 polygons - 288 triangles

