# 3ds Max Wavefront OBJ Exporter v0.97b - (c)2007 guruware
# File Created: 07.02.2018 12:16:07

#
# object Plane002
#

v  0.1800 -0.2950 32.0000
v  0.1800 -0.2950 16.0000
v  -0.1800 -0.2950 16.0000
v  -0.1800 -0.2950 32.0000
v  0.1800 -0.2950 -0.0000
v  -0.1800 -0.2950 -0.0000
v  0.1800 -0.2950 -16.0000
v  -0.1800 -0.2950 -16.0000
v  0.1800 -0.2950 -32.0000
v  -0.1800 -0.2950 -32.0000
# 10 vertices

vn 0.0000 1.0000 -0.0000
# 1 vertex normals

vt 0.1193 0.0000 0.0000
vt 0.1193 0.2500 0.0000
vt 0.1014 0.2500 0.0000
vt 0.1014 0.0000 0.0000
vt 0.1193 0.5000 0.0000
vt 0.1014 0.5000 0.0000
vt 0.1193 0.7500 0.0000
vt 0.1014 0.7500 0.0000
vt 0.1193 1.0000 0.0000
vt 0.1014 1.0000 0.0000
# 10 texture coords

g Plane002
s 1
f 1/1/1 2/2/1 3/3/1 4/4/1 
f 2/2/1 5/5/1 6/6/1 3/3/1 
f 5/5/1 7/7/1 8/8/1 6/6/1 
f 7/7/1 9/9/1 10/10/1 8/8/1 
# 4 polygons

