# 3ds Max Wavefront OBJ Exporter v0.97b - (c)2007 guruware
# File Created: 05.01.2016 01:20:26

#
# object Plane001
#

v  -16.0000 0.0000 -0.0000
v  -13.0000 0.0000 -0.0000
v  -13.0000 0.0000 -5.3333
v  -16.0000 0.0000 -5.3333
v  -13.0000 -0.3000 -0.0000
v  -1.0000 -0.3000 -0.0000
v  -1.0000 -0.3000 -5.3333
v  -13.0000 -0.3000 -5.3333
v  -1.0000 0.0000 -0.0000
v  1.0000 0.0000 -0.0000
v  1.0000 0.0000 -5.3333
v  -1.0000 0.0000 -5.3333
v  1.0000 -0.3000 -0.0000
v  13.0000 -0.3000 -0.0000
v  13.0000 -0.3000 -5.3333
v  1.0000 -0.3000 -5.3333
v  13.0000 0.0000 -0.0000
v  16.0000 0.0000 -0.0000
v  16.0000 0.0000 -5.3333
v  13.0000 0.0000 -5.3333
v  -1.0000 -0.3000 5.3333
v  -1.0000 0.0000 5.3333
v  13.0000 -0.3000 5.3333
v  13.0000 0.0000 5.3333
v  -19.0000 -3.1650 -0.0000
v  -19.0000 -3.1650 5.3333
v  -16.0000 0.0000 5.3333
v  19.0000 -3.1650 -0.0000
v  16.0000 0.0000 5.3333
v  19.0000 -3.1650 5.3333
v  -16.0000 0.0000 32.0000
v  -13.0000 0.0000 32.0000
v  -13.0000 0.0000 26.6667
v  -16.0000 0.0000 26.6667
v  -13.0000 0.0000 21.3333
v  -16.0000 0.0000 21.3333
v  -13.0000 0.0000 16.0000
v  -16.0000 0.0000 16.0000
v  -13.0000 0.0000 10.6667
v  -16.0000 0.0000 10.6667
v  -13.0000 0.0000 5.3333
v  -13.0000 0.0000 -32.0000
v  -16.0000 0.0000 -32.0000
v  -16.0000 0.0000 -26.6667
v  -13.0000 0.0000 -26.6667
v  -16.0000 0.0000 -21.3333
v  -13.0000 0.0000 -21.3333
v  -16.0000 0.0000 -16.0000
v  -13.0000 0.0000 -16.0000
v  -16.0000 0.0000 -10.6667
v  -13.0000 0.0000 -10.6667
v  -13.0000 -0.3000 32.0000
v  -1.0000 -0.3000 32.0000
v  -1.0000 -0.3000 26.6667
v  -13.0000 -0.3000 26.6667
v  -1.0000 -0.3000 21.3333
v  -13.0000 -0.3000 21.3333
v  -1.0000 -0.3000 16.0000
v  -13.0000 -0.3000 16.0000
v  -1.0000 -0.3000 10.6667
v  -13.0000 -0.3000 10.6667
v  -13.0000 -0.3000 5.3333
v  -1.0000 -0.3000 -32.0000
v  -13.0000 -0.3000 -32.0000
v  -13.0000 -0.3000 -26.6667
v  -1.0000 -0.3000 -26.6667
v  -13.0000 -0.3000 -21.3333
v  -1.0000 -0.3000 -21.3333
v  -13.0000 -0.3000 -16.0000
v  -1.0000 -0.3000 -16.0000
v  -13.0000 -0.3000 -10.6667
v  -1.0000 -0.3000 -10.6667
v  -1.0000 0.0000 32.0000
v  1.0000 0.0000 32.0000
v  1.0000 0.0000 26.6667
v  -1.0000 0.0000 26.6667
v  1.0000 0.0000 21.3333
v  -1.0000 0.0000 21.3333
v  1.0000 0.0000 16.0000
v  -1.0000 0.0000 16.0000
v  1.0000 0.0000 10.6667
v  -1.0000 0.0000 10.6667
v  1.0000 0.0000 5.3333
v  1.0000 0.0000 -32.0000
v  -1.0000 0.0000 -32.0000
v  -1.0000 0.0000 -26.6667
v  1.0000 0.0000 -26.6667
v  -1.0000 0.0000 -21.3333
v  1.0000 0.0000 -21.3333
v  -1.0000 0.0000 -16.0000
v  1.0000 0.0000 -16.0000
v  -1.0000 0.0000 -10.6667
v  1.0000 0.0000 -10.6667
v  1.0000 -0.3000 32.0000
v  13.0000 -0.3000 32.0000
v  13.0000 -0.3000 26.6667
v  1.0000 -0.3000 26.6667
v  13.0000 -0.3000 21.3333
v  1.0000 -0.3000 21.3333
v  13.0000 -0.3000 16.0000
v  1.0000 -0.3000 16.0000
v  13.0000 -0.3000 10.6667
v  1.0000 -0.3000 10.6667
v  1.0000 -0.3000 5.3333
v  13.0000 -0.3000 -32.0000
v  1.0000 -0.3000 -32.0000
v  1.0000 -0.3000 -26.6667
v  13.0000 -0.3000 -26.6667
v  1.0000 -0.3000 -21.3333
v  13.0000 -0.3000 -21.3333
v  1.0000 -0.3000 -16.0000
v  13.0000 -0.3000 -16.0000
v  1.0000 -0.3000 -10.6667
v  13.0000 -0.3000 -10.6667
v  13.0000 0.0000 32.0000
v  16.0000 0.0000 32.0000
v  16.0000 0.0000 26.6667
v  13.0000 0.0000 26.6667
v  16.0000 0.0000 21.3333
v  13.0000 0.0000 21.3333
v  16.0000 0.0000 16.0000
v  13.0000 0.0000 16.0000
v  16.0000 0.0000 10.6667
v  13.0000 0.0000 10.6667
v  16.0000 0.0000 -32.0000
v  13.0000 0.0000 -32.0000
v  13.0000 0.0000 -26.6667
v  16.0000 0.0000 -26.6667
v  13.0000 0.0000 -21.3333
v  16.0000 0.0000 -21.3333
v  13.0000 0.0000 -16.0000
v  16.0000 0.0000 -16.0000
v  13.0000 0.0000 -10.6667
v  16.0000 0.0000 -10.6667
v  -19.0000 -3.1650 -32.0000
v  -19.0000 -3.1650 -26.6667
v  -19.0000 -3.1650 -21.3333
v  -19.0000 -3.1650 -16.0000
v  -19.0000 -3.1650 -10.6667
v  -19.0000 -3.1650 -5.3333
v  -19.0000 -3.1650 32.0000
v  -19.0000 -3.1650 26.6667
v  -19.0000 -3.1650 21.3333
v  -19.0000 -3.1650 16.0000
v  -19.0000 -3.1650 10.6667
v  19.0000 -3.1650 -32.0000
v  19.0000 -3.1650 -26.6667
v  19.0000 -3.1650 -21.3333
v  19.0000 -3.1650 -16.0000
v  19.0000 -3.1650 -10.6667
v  19.0000 -3.1650 -5.3333
v  19.0000 -3.1650 32.0000
v  19.0000 -3.1650 26.6667
v  19.0000 -3.1650 21.3333
v  19.0000 -3.1650 16.0000
v  19.0000 -3.1650 10.6667
# 156 vertices

vn 0.0000 1.0000 -0.0000
vn 1.0000 0.0000 -0.0000
vn -1.0000 0.0000 -0.0000
vn -0.7258 0.6879 -0.0000
vn 0.7258 0.6879 -0.0000
# 5 vertex normals

vt 0.4000 0.0000 0.0000
vt 0.6000 0.0000 0.0000
vt 0.4000 1.0000 0.0000
vt 0.6000 1.0000 0.0000
vt 0.4000 0.0000 0.0000
vt 0.4000 1.0000 0.0000
vt 0.6000 1.0000 0.0000
vt 0.6000 0.0000 0.0000
vt 0.0597 1.0000 0.0000
vt 0.0000 1.0000 0.0000
vt 0.0000 0.0000 0.0000
vt 0.0597 0.0000 0.0000
vt 0.0597 -0.0000 0.0000
vt 0.0000 -0.0000 0.0000
vt 0.0000 1.0000 0.0000
vt 0.0597 1.0000 0.0000
vt 0.0000 0.0000 0.0000
vt 0.1253 0.0000 0.0000
vt 0.8755 0.0000 0.0000
vt 1.0000 0.0000 0.0000
vt 0.0000 1.0000 0.0000
vt 0.1253 1.0000 0.0000
vt 0.8755 1.0000 0.0000
vt 1.0000 1.0000 0.0000
vt 0.0128 0.0000 0.0000
vt 0.0128 1.0000 0.0000
vt 0.0128 0.0000 0.0000
vt 0.0128 1.0000 0.0000
vt 0.0000 1.0000 0.0000
vt 0.0597 1.0000 0.0000
vt 0.0597 0.9052 0.0000
vt 0.0000 0.9052 0.0000
vt 0.4758 0.0000 0.0000
vt 0.5261 0.0000 0.0000
vt 0.4758 1.0000 0.0000
vt 0.5261 1.0000 0.0000
vt 0.1252 1.0000 0.0000
vt 0.1252 0.0000 0.0000
vt 0.4742 0.0000 0.0000
vt 0.4742 1.0000 0.0000
vt 0.5265 1.0000 0.0000
vt 0.5265 0.0000 0.0000
vt 0.8757 0.0000 0.0000
vt 0.8757 1.0000 0.0000
vt 0.0000 0.9167 0.0000
vt 0.0000 0.8333 0.0000
vt 0.0000 0.7500 0.0000
vt 0.0000 0.6667 0.0000
vt 0.0000 0.5833 0.0000
vt 0.0000 0.5000 0.0000
vt 0.0000 0.4167 0.0000
vt 0.0000 0.3333 0.0000
vt 0.0000 0.2500 0.0000
vt 0.0000 0.1667 0.0000
vt 0.0000 0.0833 0.0000
vt 0.0050 1.0000 0.0000
vt 0.0099 1.0000 0.0000
vt 0.0149 1.0000 0.0000
vt 0.0199 1.0000 0.0000
vt 0.0249 1.0000 0.0000
vt 0.0298 1.0000 0.0000
vt 0.0348 1.0000 0.0000
vt 0.0398 1.0000 0.0000
vt 0.0447 1.0000 0.0000
vt 0.0497 1.0000 0.0000
vt 0.0547 1.0000 0.0000
vt 0.0050 1.0000 0.0000
vt 0.0099 1.0000 0.0000
vt 0.0149 1.0000 0.0000
vt 0.0199 1.0000 0.0000
vt 0.0249 1.0000 0.0000
vt 0.0298 1.0000 0.0000
vt 0.0348 1.0000 0.0000
vt 0.0398 1.0000 0.0000
vt 0.0447 1.0000 0.0000
vt 0.0497 1.0000 0.0000
vt 0.0547 1.0000 0.0000
vt 0.1253 0.9167 0.0000
vt 0.1253 0.8333 0.0000
vt 0.1253 0.7500 0.0000
vt 0.1253 0.6667 0.0000
vt 0.1253 0.5833 0.0000
vt 0.1253 0.5000 0.0000
vt 0.1253 0.4167 0.0000
vt 0.1253 0.3333 0.0000
vt 0.1253 0.2500 0.0000
vt 0.1253 0.1667 0.0000
vt 0.1253 0.0833 0.0000
vt 0.4000 0.0833 0.0000
vt 0.4000 0.1667 0.0000
vt 0.4000 0.2500 0.0000
vt 0.4000 0.3333 0.0000
vt 0.4000 0.4167 0.0000
vt 0.4000 0.5000 0.0000
vt 0.4000 0.5833 0.0000
vt 0.4000 0.6667 0.0000
vt 0.4000 0.7500 0.0000
vt 0.4000 0.8333 0.0000
vt 0.4000 0.9167 0.0000
vt 0.4758 0.0833 0.0000
vt 0.4758 0.1667 0.0000
vt 0.4758 0.2500 0.0000
vt 0.4758 0.3333 0.0000
vt 0.4758 0.4167 0.0000
vt 0.4758 0.5000 0.0000
vt 0.4758 0.5833 0.0000
vt 0.4758 0.6667 0.0000
vt 0.4758 0.7500 0.0000
vt 0.4758 0.8333 0.0000
vt 0.4758 0.9167 0.0000
vt 0.6000 0.9167 0.0000
vt 0.6000 0.8333 0.0000
vt 0.6000 0.7500 0.0000
vt 0.6000 0.6667 0.0000
vt 0.6000 0.5833 0.0000
vt 0.6000 0.5000 0.0000
vt 0.6000 0.4167 0.0000
vt 0.6000 0.3333 0.0000
vt 0.6000 0.2500 0.0000
vt 0.6000 0.1667 0.0000
vt 0.6000 0.0833 0.0000
vt 0.5261 0.9167 0.0000
vt 0.5261 0.8333 0.0000
vt 0.5261 0.7500 0.0000
vt 0.5261 0.6667 0.0000
vt 0.5261 0.5833 0.0000
vt 0.5261 0.5000 0.0000
vt 0.5261 0.4167 0.0000
vt 0.5261 0.3333 0.0000
vt 0.5261 0.2500 0.0000
vt 0.5261 0.1667 0.0000
vt 0.5261 0.0833 0.0000
vt 0.0128 0.0833 0.0000
vt 0.0128 0.1667 0.0000
vt 0.0128 0.2500 0.0000
vt 0.0128 0.3333 0.0000
vt 0.0128 0.4167 0.0000
vt 0.0128 0.5000 0.0000
vt 0.0128 0.5833 0.0000
vt 0.0128 0.6667 0.0000
vt 0.0128 0.7500 0.0000
vt 0.0128 0.8333 0.0000
vt 0.0128 0.9167 0.0000
vt 0.8755 0.0833 0.0000
vt 0.8755 0.1667 0.0000
vt 0.8755 0.2500 0.0000
vt 0.8755 0.3333 0.0000
vt 0.8755 0.4167 0.0000
vt 0.8755 0.5000 0.0000
vt 0.8755 0.5833 0.0000
vt 0.8755 0.6667 0.0000
vt 0.8755 0.7500 0.0000
vt 0.8755 0.8333 0.0000
vt 0.8755 0.9167 0.0000
vt 1.0000 0.0833 0.0000
vt 1.0000 0.1667 0.0000
vt 1.0000 0.2500 0.0000
vt 1.0000 0.3333 0.0000
vt 1.0000 0.4167 0.0000
vt 1.0000 0.5000 0.0000
vt 1.0000 0.5833 0.0000
vt 1.0000 0.6667 0.0000
vt 1.0000 0.7500 0.0000
vt 1.0000 0.8333 0.0000
vt 1.0000 0.9167 0.0000
vt 0.0547 1.0000 0.0000
vt 0.0497 1.0000 0.0000
vt 0.0447 1.0000 0.0000
vt 0.0398 1.0000 0.0000
vt 0.0348 1.0000 0.0000
vt 0.0298 1.0000 0.0000
vt 0.0249 1.0000 0.0000
vt 0.0199 1.0000 0.0000
vt 0.0149 1.0000 0.0000
vt 0.0099 1.0000 0.0000
vt 0.0050 1.0000 0.0000
vt 0.1252 0.9167 0.0000
vt 0.1252 0.8333 0.0000
vt 0.1252 0.7500 0.0000
vt 0.1252 0.6667 0.0000
vt 0.1252 0.5833 0.0000
vt 0.1252 0.5000 0.0000
vt 0.1252 0.4167 0.0000
vt 0.1252 0.3333 0.0000
vt 0.1252 0.2500 0.0000
vt 0.1252 0.1667 0.0000
vt 0.1252 0.0833 0.0000
vt 0.0050 0.9052 0.0000
vt 0.0099 0.9052 0.0000
vt 0.0149 0.9052 0.0000
vt 0.0199 0.9052 0.0000
vt 0.0249 0.9052 0.0000
vt 0.0298 0.9052 0.0000
vt 0.0348 0.9052 0.0000
vt 0.0398 0.9052 0.0000
vt 0.0447 0.9052 0.0000
vt 0.0497 0.9052 0.0000
vt 0.0547 0.9052 0.0000
vt 0.4742 0.0833 0.0000
vt 0.4742 0.1667 0.0000
vt 0.4742 0.2500 0.0000
vt 0.4742 0.3333 0.0000
vt 0.4742 0.4167 0.0000
vt 0.4742 0.5000 0.0000
vt 0.4742 0.5833 0.0000
vt 0.4742 0.6667 0.0000
vt 0.4742 0.7500 0.0000
vt 0.4742 0.8333 0.0000
vt 0.4742 0.9167 0.0000
vt 0.4000 0.0833 0.0000
vt 0.4000 0.1667 0.0000
vt 0.4000 0.2500 0.0000
vt 0.4000 0.3333 0.0000
vt 0.4000 0.4167 0.0000
vt 0.4000 0.5000 0.0000
vt 0.4000 0.5833 0.0000
vt 0.4000 0.6667 0.0000
vt 0.4000 0.7500 0.0000
vt 0.4000 0.8333 0.0000
vt 0.4000 0.9167 0.0000
vt 0.5265 0.9167 0.0000
vt 0.5265 0.8333 0.0000
vt 0.5265 0.7500 0.0000
vt 0.5265 0.6667 0.0000
vt 0.5265 0.5833 0.0000
vt 0.5265 0.5000 0.0000
vt 0.5265 0.4167 0.0000
vt 0.5265 0.3333 0.0000
vt 0.5265 0.2500 0.0000
vt 0.5265 0.1667 0.0000
vt 0.5265 0.0833 0.0000
vt 0.6000 0.9167 0.0000
vt 0.6000 0.8333 0.0000
vt 0.6000 0.7500 0.0000
vt 0.6000 0.6667 0.0000
vt 0.6000 0.5833 0.0000
vt 0.6000 0.5000 0.0000
vt 0.6000 0.4167 0.0000
vt 0.6000 0.3333 0.0000
vt 0.6000 0.2500 0.0000
vt 0.6000 0.1667 0.0000
vt 0.6000 0.0833 0.0000
vt 0.8757 0.0833 0.0000
vt 0.8757 0.1667 0.0000
vt 0.8757 0.2500 0.0000
vt 0.8757 0.3333 0.0000
vt 0.8757 0.4167 0.0000
vt 0.8757 0.5000 0.0000
vt 0.8757 0.5833 0.0000
vt 0.8757 0.6667 0.0000
vt 0.8757 0.7500 0.0000
vt 0.8757 0.8333 0.0000
vt 0.8757 0.9167 0.0000
vt 0.0128 0.0833 0.0000
vt 0.0128 0.1667 0.0000
vt 0.0128 0.2500 0.0000
vt 0.0128 0.3333 0.0000
vt 0.0128 0.4167 0.0000
vt 0.0128 0.5000 0.0000
vt 0.0128 0.5833 0.0000
vt 0.0128 0.6667 0.0000
vt 0.0128 0.7500 0.0000
vt 0.0128 0.8333 0.0000
vt 0.0128 0.9167 0.0000
vt 0.0050 0.0000 0.0000
vt 0.0099 0.0000 0.0000
vt 0.0149 0.0000 0.0000
vt 0.0199 0.0000 0.0000
vt 0.0249 0.0000 0.0000
vt 0.0298 0.0000 0.0000
vt 0.0348 0.0000 0.0000
vt 0.0398 0.0000 0.0000
vt 0.0447 0.0000 0.0000
vt 0.0497 0.0000 0.0000
vt 0.0547 0.0000 0.0000
vt 0.0547 -0.0000 0.0000
vt 0.0497 -0.0000 0.0000
vt 0.0447 -0.0000 0.0000
vt 0.0398 -0.0000 0.0000
vt 0.0348 -0.0000 0.0000
vt 0.0298 -0.0000 0.0000
vt 0.0249 -0.0000 0.0000
vt 0.0199 -0.0000 0.0000
vt 0.0149 -0.0000 0.0000
vt 0.0099 -0.0000 0.0000
vt 0.0050 -0.0000 0.0000
# 286 texture coords

g Plane001
s off
f 1/50/1 2/83/1 3/82/1 
f 3/82/1 4/49/1 1/50/1 
f 5/182/1 6/204/1 7/205/1 
f 7/205/1 8/181/1 5/182/1 
f 9/105/1 10/127/1 11/126/1 
f 11/126/1 12/106/1 9/105/1 
f 13/226/1 14/248/1 15/249/1 
f 15/249/1 16/225/1 13/226/1 
f 17/149/1 18/160/1 19/161/1 
f 19/161/1 20/150/1 17/149/1 
f 2/72/2 5/193/2 8/192/2 
f 8/192/2 3/71/2 2/72/2 
f 9/94/3 6/215/3 21/214/3 
f 21/214/3 22/93/3 9/94/3 
f 10/116/2 13/237/2 16/236/2 
f 16/236/2 11/115/2 10/116/2 
f 17/138/3 14/259/3 23/258/3 
f 23/258/3 24/137/3 17/138/3 
f 1/61/4 25/270/4 26/271/4 
f 26/271/4 27/62/4 1/61/4 
f 28/281/5 18/171/5 29/170/5 
f 29/170/5 30/280/5 28/281/5 
f 31/17/1 32/18/1 33/88/1 
f 33/88/1 34/55/1 31/17/1 
f 34/55/1 33/88/1 35/87/1 
f 35/87/1 36/54/1 34/55/1 
f 36/54/1 35/87/1 37/86/1 
f 37/86/1 38/53/1 36/54/1 
f 38/53/1 37/86/1 39/85/1 
f 39/85/1 40/52/1 38/53/1 
f 40/52/1 39/85/1 41/84/1 
f 41/84/1 27/51/1 40/52/1 
f 27/51/1 41/84/1 2/83/1 
f 2/83/1 1/50/1 27/51/1 
f 42/22/1 43/21/1 44/45/1 
f 44/45/1 45/78/1 42/22/1 
f 45/78/1 44/45/1 46/46/1 
f 46/46/1 47/79/1 45/78/1 
f 47/79/1 46/46/1 48/47/1 
f 48/47/1 49/80/1 47/79/1 
f 49/80/1 48/47/1 50/48/1 
f 50/48/1 51/81/1 49/80/1 
f 51/81/1 50/48/1 4/49/1 
f 4/49/1 3/82/1 51/81/1 
f 52/38/1 53/39/1 54/199/1 
f 54/199/1 55/187/1 52/38/1 
f 55/187/1 54/199/1 56/200/1 
f 56/200/1 57/186/1 55/187/1 
f 57/186/1 56/200/1 58/201/1 
f 58/201/1 59/185/1 57/186/1 
f 59/185/1 58/201/1 60/202/1 
f 60/202/1 61/184/1 59/185/1 
f 61/184/1 60/202/1 21/203/1 
f 21/203/1 62/183/1 61/184/1 
f 62/183/1 21/203/1 6/204/1 
f 6/204/1 5/182/1 62/183/1 
f 63/40/1 64/37/1 65/177/1 
f 65/177/1 66/209/1 63/40/1 
f 66/209/1 65/177/1 67/178/1 
f 67/178/1 68/208/1 66/209/1 
f 68/208/1 67/178/1 69/179/1 
f 69/179/1 70/207/1 68/208/1 
f 70/207/1 69/179/1 71/180/1 
f 71/180/1 72/206/1 70/207/1 
f 72/206/1 71/180/1 8/181/1 
f 8/181/1 7/205/1 72/206/1 
f 73/33/1 74/34/1 75/132/1 
f 75/132/1 76/100/1 73/33/1 
f 76/100/1 75/132/1 77/131/1 
f 77/131/1 78/101/1 76/100/1 
f 78/101/1 77/131/1 79/130/1 
f 79/130/1 80/102/1 78/101/1 
f 80/102/1 79/130/1 81/129/1 
f 81/129/1 82/103/1 80/102/1 
f 82/103/1 81/129/1 83/128/1 
f 83/128/1 22/104/1 82/103/1 
f 22/104/1 83/128/1 10/127/1 
f 10/127/1 9/105/1 22/104/1 
f 84/36/1 85/35/1 86/110/1 
f 86/110/1 87/122/1 84/36/1 
f 87/122/1 86/110/1 88/109/1 
f 88/109/1 89/123/1 87/122/1 
f 89/123/1 88/109/1 90/108/1 
f 90/108/1 91/124/1 89/123/1 
f 91/124/1 90/108/1 92/107/1 
f 92/107/1 93/125/1 91/124/1 
f 93/125/1 92/107/1 12/106/1 
f 12/106/1 11/126/1 93/125/1 
f 94/42/1 95/43/1 96/243/1 
f 96/243/1 97/231/1 94/42/1 
f 97/231/1 96/243/1 98/244/1 
f 98/244/1 99/230/1 97/231/1 
f 99/230/1 98/244/1 100/245/1 
f 100/245/1 101/229/1 99/230/1 
f 101/229/1 100/245/1 102/246/1 
f 102/246/1 103/228/1 101/229/1 
f 103/228/1 102/246/1 23/247/1 
f 23/247/1 104/227/1 103/228/1 
f 104/227/1 23/247/1 14/248/1 
f 14/248/1 13/226/1 104/227/1 
f 105/44/1 106/41/1 107/221/1 
f 107/221/1 108/253/1 105/44/1 
f 108/253/1 107/221/1 109/222/1 
f 109/222/1 110/252/1 108/253/1 
f 110/252/1 109/222/1 111/223/1 
f 111/223/1 112/251/1 110/252/1 
f 112/251/1 111/223/1 113/224/1 
f 113/224/1 114/250/1 112/251/1 
f 114/250/1 113/224/1 16/225/1 
f 16/225/1 15/249/1 114/250/1 
f 115/19/1 116/20/1 117/155/1 
f 117/155/1 118/144/1 115/19/1 
f 118/144/1 117/155/1 119/156/1 
f 119/156/1 120/145/1 118/144/1 
f 120/145/1 119/156/1 121/157/1 
f 121/157/1 122/146/1 120/145/1 
f 122/146/1 121/157/1 123/158/1 
f 123/158/1 124/147/1 122/146/1 
f 124/147/1 123/158/1 29/159/1 
f 29/159/1 24/148/1 124/147/1 
f 24/148/1 29/159/1 18/160/1 
f 18/160/1 17/149/1 24/148/1 
f 125/24/1 126/23/1 127/154/1 
f 127/154/1 128/165/1 125/24/1 
f 128/165/1 127/154/1 129/153/1 
f 129/153/1 130/164/1 128/165/1 
f 130/164/1 129/153/1 131/152/1 
f 131/152/1 132/163/1 130/164/1 
f 132/163/1 131/152/1 133/151/1 
f 133/151/1 134/162/1 132/163/1 
f 134/162/1 133/151/1 20/150/1 
f 20/150/1 19/161/1 134/162/1 
f 32/30/2 52/31/2 55/198/2 
f 55/198/2 33/77/2 32/30/2 
f 33/77/2 55/198/2 57/197/2 
f 57/197/2 35/76/2 33/77/2 
f 35/76/2 57/197/2 59/196/2 
f 59/196/2 37/75/2 35/76/2 
f 37/75/2 59/196/2 61/195/2 
f 61/195/2 39/74/2 37/75/2 
f 39/74/2 61/195/2 62/194/2 
f 62/194/2 41/73/2 39/74/2 
f 41/73/2 62/194/2 5/193/2 
f 5/193/2 2/72/2 41/73/2 
f 64/32/2 42/29/2 45/67/2 
f 45/67/2 65/188/2 64/32/2 
f 65/188/2 45/67/2 47/68/2 
f 47/68/2 67/189/2 65/188/2 
f 67/189/2 47/68/2 49/69/2 
f 49/69/2 69/190/2 67/189/2 
f 69/190/2 49/69/2 51/70/2 
f 51/70/2 71/191/2 69/190/2 
f 71/191/2 51/70/2 3/71/2 
f 3/71/2 8/192/2 71/191/2 
f 85/3/3 63/6/3 66/220/3 
f 66/220/3 86/99/3 85/3/3 
f 86/99/3 66/220/3 68/219/3 
f 68/219/3 88/98/3 86/99/3 
f 88/98/3 68/219/3 70/218/3 
f 70/218/3 90/97/3 88/98/3 
f 90/97/3 70/218/3 72/217/3 
f 72/217/3 92/96/3 90/97/3 
f 92/96/3 72/217/3 7/216/3 
f 7/216/3 12/95/3 92/96/3 
f 12/95/3 7/216/3 6/215/3 
f 6/215/3 9/94/3 12/95/3 
f 53/5/3 73/1/3 76/89/3 
f 76/89/3 54/210/3 53/5/3 
f 54/210/3 76/89/3 78/90/3 
f 78/90/3 56/211/3 54/210/3 
f 56/211/3 78/90/3 80/91/3 
f 80/91/3 58/212/3 56/211/3 
f 58/212/3 80/91/3 82/92/3 
f 82/92/3 60/213/3 58/212/3 
f 60/213/3 82/92/3 22/93/3 
f 22/93/3 21/214/3 60/213/3 
f 74/2/2 94/8/2 97/242/2 
f 97/242/2 75/121/2 74/2/2 
f 75/121/2 97/242/2 99/241/2 
f 99/241/2 77/120/2 75/121/2 
f 77/120/2 99/241/2 101/240/2 
f 101/240/2 79/119/2 77/120/2 
f 79/119/2 101/240/2 103/239/2 
f 103/239/2 81/118/2 79/119/2 
f 81/118/2 103/239/2 104/238/2 
f 104/238/2 83/117/2 81/118/2 
f 83/117/2 104/238/2 13/237/2 
f 13/237/2 10/116/2 83/117/2 
f 106/7/2 84/4/2 87/111/2 
f 87/111/2 107/232/2 106/7/2 
f 107/232/2 87/111/2 89/112/2 
f 89/112/2 109/233/2 107/232/2 
f 109/233/2 89/112/2 91/113/2 
f 91/113/2 111/234/2 109/233/2 
f 111/234/2 91/113/2 93/114/2 
f 93/114/2 113/235/2 111/234/2 
f 113/235/2 93/114/2 11/115/2 
f 11/115/2 16/236/2 113/235/2 
f 126/26/3 105/28/3 108/264/3 
f 108/264/3 127/143/3 126/26/3 
f 127/143/3 108/264/3 110/263/3 
f 110/263/3 129/142/3 127/143/3 
f 129/142/3 110/263/3 112/262/3 
f 112/262/3 131/141/3 129/142/3 
f 131/141/3 112/262/3 114/261/3 
f 114/261/3 133/140/3 131/141/3 
f 133/140/3 114/261/3 15/260/3 
f 15/260/3 20/139/3 133/140/3 
f 20/139/3 15/260/3 14/259/3 
f 14/259/3 17/138/3 20/139/3 
f 95/27/3 115/25/3 118/133/3 
f 118/133/3 96/254/3 95/27/3 
f 96/254/3 118/133/3 120/134/3 
f 120/134/3 98/255/3 96/254/3 
f 98/255/3 120/134/3 122/135/3 
f 122/135/3 100/256/3 98/255/3 
f 100/256/3 122/135/3 124/136/3 
f 124/136/3 102/257/3 100/256/3 
f 102/257/3 124/136/3 24/137/3 
f 24/137/3 23/258/3 102/257/3 
f 43/10/4 135/11/4 136/265/4 
f 136/265/4 44/56/4 43/10/4 
f 44/56/4 136/265/4 137/266/4 
f 137/266/4 46/57/4 44/56/4 
f 46/57/4 137/266/4 138/267/4 
f 138/267/4 48/58/4 46/57/4 
f 48/58/4 138/267/4 139/268/4 
f 139/268/4 50/59/4 48/58/4 
f 50/59/4 139/268/4 140/269/4 
f 140/269/4 4/60/4 50/59/4 
f 4/60/4 140/269/4 25/270/4 
f 25/270/4 1/61/4 4/60/4 
f 141/12/4 31/9/4 34/66/4 
f 34/66/4 142/275/4 141/12/4 
f 142/275/4 34/66/4 36/65/4 
f 36/65/4 143/274/4 142/275/4 
f 143/274/4 36/65/4 38/64/4 
f 38/64/4 144/273/4 143/274/4 
f 144/273/4 38/64/4 40/63/4 
f 40/63/4 145/272/4 144/273/4 
f 145/272/4 40/63/4 27/62/4 
f 27/62/4 26/271/4 145/272/4 
f 146/14/5 125/15/5 128/176/5 
f 128/176/5 147/286/5 146/14/5 
f 147/286/5 128/176/5 130/175/5 
f 130/175/5 148/285/5 147/286/5 
f 148/285/5 130/175/5 132/174/5 
f 132/174/5 149/284/5 148/285/5 
f 149/284/5 132/174/5 134/173/5 
f 134/173/5 150/283/5 149/284/5 
f 150/283/5 134/173/5 19/172/5 
f 19/172/5 151/282/5 150/283/5 
f 151/282/5 19/172/5 18/171/5 
f 18/171/5 28/281/5 151/282/5 
f 116/16/5 152/13/5 153/276/5 
f 153/276/5 117/166/5 116/16/5 
f 117/166/5 153/276/5 154/277/5 
f 154/277/5 119/167/5 117/166/5 
f 119/167/5 154/277/5 155/278/5 
f 155/278/5 121/168/5 119/167/5 
f 121/168/5 155/278/5 156/279/5 
f 156/279/5 123/169/5 121/168/5 
f 123/169/5 156/279/5 30/280/5 
f 30/280/5 29/170/5 123/169/5 
# 264 faces

