# 3ds Max Wavefront OBJ Exporter v0.97b - (c)2007 guruware
# File Created: 14.10.2015 08:38:22

#
# object Plane005
#

v  9.50000 -0.15000 -0.00000
v  0.00000 -0.15000 -0.00000
v  -0.00000 -0.22500 16.00000
v  9.75000 -0.22500 16.00000
v  -10.50000 -0.15000 -0.00000
v  -9.50000 -0.15000 -0.00000
v  -9.25000 -0.07500 -16.00000
v  -10.24999 -0.07500 -16.00000
v  -10.50000 6.50000 -0.00000
v  -10.25000 6.25000 -16.00000
v  10.50000 6.50000 -0.00001
v  10.50000 -0.15000 -0.00000
v  10.75000 -0.22500 15.99999
v  10.75000 6.75000 16.00000
v  10.25000 6.25000 -16.00001
v  -0.00000 6.50000 -0.00000
v  0.00000 6.25000 -16.00000
v  12.00001 -1.12500 15.99999
v  12.00001 -1.75000 -0.00001
v  11.99998 7.50000 -0.00001
v  11.99999 7.50000 16.00000
v  -11.99999 -1.75000 -0.00000
v  -12.00001 7.50000 -0.00000
v  -12.00002 7.49999 -16.00001
v  -11.99999 -2.37501 -16.00000
v  -0.00001 7.50000 -0.00000
v  -0.00002 7.49999 -16.00001
v  10.25000 -0.07500 -16.00000
v  9.25000 -0.07500 -16.00000
v  -0.00001 7.50000 16.00000
v  0.00001 -0.07500 -16.00000
v  -0.00001 6.75000 16.00000
v  -10.75000 6.75000 16.00000
v  9.00000 -0.00000 -32.00000
v  0.00001 -0.00000 -32.00000
v  -0.00001 -0.30000 32.00000
v  10.00000 -0.30000 32.00000
v  -11.00000 -0.30000 32.00000
v  -10.00000 -0.30000 32.00000
v  -9.75000 -0.22500 15.99999
v  -10.75000 -0.22500 16.00000
v  -9.00000 -0.00000 -32.00000
v  -9.99999 0.00000 -32.00000
v  -11.00001 7.00000 32.00000
v  -9.99999 6.00000 -32.00000
v  10.00001 6.00000 -32.00000
v  10.00001 0.00000 -32.00000
v  10.99999 -0.30000 32.00000
v  10.99999 7.00000 32.00000
v  -0.00001 7.00000 32.00000
v  0.00001 6.00000 -32.00000
v  12.00001 -2.37501 -16.00001
v  12.00001 -3.00001 -32.00001
v  11.99997 7.49999 -32.00001
v  11.99998 7.49999 -16.00001
v  12.00000 7.50000 32.00000
v  12.00000 -0.50000 32.00000
v  -12.00000 -0.50000 32.00000
v  -12.00000 7.50000 32.00000
v  -12.00001 7.50000 16.00000
v  -11.99999 -1.12500 16.00000
v  -12.00003 7.49999 -32.00001
v  -11.99998 -3.00001 -32.00001
v  -0.00000 7.50000 32.00000
v  -0.00003 7.49999 -32.00001
# 65 vertices

vn -0.00000 0.99999 0.00469
vn 0.00000 0.99999 0.00469
vn 0.99988 0.00000 0.01562
vn -0.99988 0.00000 0.01562
vn -0.99988 -0.00000 0.01562
vn 0.00000 -0.99988 0.01562
vn 1.00000 0.00000 0.00000
vn 1.00000 0.00000 -0.00000
vn -1.00000 -0.00000 0.00000
vn -1.00000 -0.00000 -0.00000
vn 0.00000 1.00000 -0.00000
vn -0.00000 1.00000 -0.00000
# 12 vertex normals

vt 0.34368 0.50000 0.00000
vt 0.23985 0.50000 0.00000
vt 0.23985 0.25001 0.00000
vt 0.34371 0.25001 0.00000
vt 0.12135 1.00000 0.00000
vt 0.13128 1.00000 0.00000
vt 0.13160 0.99999 0.00000
vt 0.12599 0.99999 0.00000
vt 0.74425 0.50000 0.00000
vt 0.69702 0.50000 0.00000
vt 0.69702 0.75000 0.00000
vt 0.74425 0.75000 0.00000
vt 0.69702 0.25000 0.00000
vt 0.74425 0.25000 0.00000
vt 0.73270 0.75000 0.00000
vt 0.73270 0.50000 0.00000
vt 0.76596 0.50000 0.00000
vt 0.76596 0.75000 0.00000
vt 0.10769 0.25000 0.00000
vt 0.10769 0.50000 0.00000
vt 0.02769 0.50000 0.00000
vt 0.02769 0.75000 0.00000
vt 0.06769 0.50000 0.00000
vt 0.06769 0.75000 0.00000
vt 0.34702 1.00000 0.00000
vt 0.35971 1.00000 0.00000
vt 0.35506 0.99999 0.00000
vt 0.34531 0.99999 0.00000
vt 0.06769 0.25000 0.00000
vt 0.13193 0.74999 0.00000
vt 0.13195 0.50000 0.00000
vt 0.23985 0.74999 0.00000
vt 0.76596 0.25000 0.00000
vt 0.73270 0.25000 0.00000
vt 0.34361 0.99998 0.00000
vt 0.23985 0.99998 0.00000
vt 0.34365 0.74999 0.00000
vt 0.23985 0.00002 0.00000
vt 0.34374 0.00002 0.00000
vt 0.11206 1.00002 0.00000
vt 0.13063 1.00002 0.00000
vt 0.13096 1.00001 0.00000
vt 0.11671 1.00001 0.00000
vt 0.13192 0.99998 0.00000
vt 0.13063 0.99998 0.00000
vt 0.74425 0.00000 0.00000
vt 0.69702 0.00000 0.00000
vt 0.69702 1.00000 0.00000
vt 0.74425 1.00000 0.00000
vt 0.73270 0.00000 0.00000
vt 0.76596 0.00000 0.00000
vt 0.76596 1.00000 0.00000
vt 0.73270 1.00000 0.00000
vt 0.10769 0.75000 0.00000
vt 0.10769 1.00000 0.00000
vt 0.10769 0.00000 0.00000
vt 0.02769 0.00000 0.00000
vt 0.02769 0.25000 0.00000
vt 0.02769 1.00000 0.00000
vt 0.06769 0.00000 0.00000
vt 0.06769 1.00000 0.00000
vt 0.35042 1.00002 0.00000
vt 0.36899 1.00002 0.00000
vt 0.36435 1.00001 0.00000
vt 0.34872 1.00001 0.00000
vt 0.35042 0.99998 0.00000
vt 0.13196 0.25001 0.00000
vt 0.13198 0.00002 0.00000
# 68 texture coords

g Plane005
f 1/1/1 2/2/1 3/3/1 
f 3/3/1 4/4/1 1/1/1 
f 5/5/1 6/6/1 7/7/2 
f 7/7/2 8/8/2 5/5/1 
f 9/9/3 5/10/3 8/11/3 
f 8/11/3 10/12/3 9/9/3 
f 11/9/4 12/10/4 13/13/4 
f 13/13/5 14/14/5 11/9/5 
f 15/15/6 11/16/6 16/17/6 
f 16/17/6 17/18/6 15/15/6 
f 18/19/7 19/20/7 20/20/7 
f 20/20/8 21/19/8 18/19/8 
f 22/21/9 23/21/9 24/22/9 
f 24/22/10 25/22/10 22/21/10 
f 23/21/11 26/23/11 27/24/11 
f 27/24/11 24/22/11 23/21/11 
f 1/25/1 12/26/1 28/27/1 
f 28/27/1 29/28/1 1/25/1 
f 20/20/12 26/23/12 30/29/12 
f 30/29/12 21/19/12 20/20/12 
f 7/30/2 6/31/1 2/2/1 
f 2/2/1 31/32/1 7/30/2 
f 9/16/6 16/17/6 32/33/6 
f 32/33/6 33/34/6 9/16/6 
f 34/35/1 35/36/1 31/32/1 
f 31/32/1 29/37/1 34/35/1 
f 29/37/1 31/32/1 2/2/1 
f 2/2/1 1/1/1 29/37/1 
f 36/38/1 37/39/2 4/4/1 
f 4/4/1 3/3/1 36/38/1 
f 38/40/1 39/41/1 40/42/1 
f 40/42/1 41/43/1 38/40/1 
f 41/43/1 40/42/1 6/6/1 
f 6/6/1 5/5/1 41/43/1 
f 42/44/2 43/45/2 8/8/2 
f 8/8/2 7/7/2 42/44/2 
f 44/46/3 38/47/3 41/13/3 
f 41/13/3 33/14/3 44/46/3 
f 33/14/3 41/13/3 5/10/3 
f 5/10/3 9/9/3 33/14/3 
f 43/48/3 45/49/3 10/12/3 
f 10/12/3 8/11/3 43/48/3 
f 46/49/4 47/48/4 28/11/4 
f 28/11/4 15/12/4 46/49/4 
f 15/12/4 28/11/4 12/10/4 
f 12/10/4 11/9/4 15/12/4 
f 48/47/5 49/46/5 14/14/5 
f 14/14/5 13/13/5 48/47/5 
f 14/34/6 49/50/6 50/51/6 
f 50/51/6 32/33/6 14/34/6 
f 11/16/6 14/34/6 32/33/6 
f 32/33/6 16/17/6 11/16/6 
f 17/18/6 51/52/6 46/53/6 
f 46/53/6 15/15/6 17/18/6 
f 52/54/7 53/55/7 54/55/7 
f 54/55/8 55/54/8 52/54/8 
f 19/20/7 52/54/7 55/54/7 
f 55/54/8 20/20/8 19/20/8 
f 21/19/8 56/56/8 57/56/8 
f 57/56/7 18/19/7 21/19/7 
f 58/57/9 59/57/9 60/58/9 
f 60/58/10 61/58/10 58/57/10 
f 61/58/9 60/58/9 23/21/9 
f 23/21/10 22/21/10 61/58/10 
f 62/59/10 63/59/10 25/22/10 
f 25/22/9 24/22/9 62/59/9 
f 59/57/11 64/60/11 30/29/11 
f 30/29/11 60/58/11 59/57/11 
f 60/58/11 30/29/11 26/23/11 
f 26/23/11 23/21/11 60/58/11 
f 65/61/11 62/59/11 24/22/11 
f 24/22/11 27/24/11 65/61/11 
f 37/62/2 48/63/2 13/64/1 
f 13/64/1 4/65/1 37/62/2 
f 4/65/1 13/64/1 12/26/1 
f 12/26/1 1/25/1 4/65/1 
f 47/66/1 34/35/1 29/28/1 
f 29/28/1 28/27/1 47/66/1 
f 54/55/11 65/61/11 27/24/11 
f 27/24/12 55/54/12 54/55/12 
f 55/54/12 27/24/12 26/23/12 
f 26/23/12 20/20/12 55/54/12 
f 64/60/12 56/56/12 21/19/12 
f 21/19/12 30/29/12 64/60/12 
f 40/67/1 39/68/1 36/38/1 
f 36/38/1 3/3/1 40/67/1 
f 6/31/1 40/67/1 3/3/1 
f 3/3/1 2/2/1 6/31/1 
f 31/32/1 35/36/1 42/44/2 
f 42/44/2 7/30/2 31/32/1 
f 45/53/6 51/52/6 17/18/6 
f 17/18/6 10/15/6 45/53/6 
f 10/15/6 17/18/6 16/17/6 
f 16/17/6 9/16/6 10/15/6 
f 50/51/6 44/50/6 33/34/6 
f 33/34/6 32/33/6 50/51/6 
# 96 faces

