# 3ds Max Wavefront OBJ Exporter v0.97b - (c)2007 guruware
# File Created: 23.10.2015 13:12:51

#
# object Plane005
#

v  -13.00000 0.00000 -0.00000
v  -12.00000 -0.00000 -0.00000
v  -12.00000 -0.00000 -5.33333
v  -13.00000 0.00000 -5.33333
v  -13.00000 1.00000 -0.00000
v  -13.00000 1.00000 5.33333
v  -13.00000 0.00000 5.33333
v  13.00000 0.00000 -0.00000
v  13.00000 1.00000 -0.00000
v  13.00000 1.00000 -5.33333
v  13.00000 0.00000 -5.33333
v  -14.00000 1.00000 -0.00000
v  -14.00000 -0.50000 -0.00000
v  -14.00000 -0.50000 5.33333
v  -14.00000 1.00000 5.33333
v  14.00000 1.00000 -0.00000
v  14.00000 -0.50000 -0.00000
v  14.00000 -0.50000 -5.33333
v  14.00000 1.00000 -5.33333
v  13.00000 1.00000 5.33333
v  14.00000 1.00000 5.33333
v  12.00000 -0.00000 -0.00000
v  12.00000 -0.00000 5.33333
v  13.00000 0.00000 5.33333
v  0.00000 -0.15000 -0.00000
v  -12.00000 -0.15000 -0.00000
v  -12.00000 -0.17500 5.33334
v  0.00000 -0.17500 5.33333
v  12.00000 -0.15000 -0.00000
v  0.00000 -0.17500 5.33334
v  12.00000 -0.17500 5.33333
v  0.00000 -0.00000 -0.00000
v  0.00000 -0.00000 5.33333
v  -12.00000 -0.12500 -5.33333
v  12.00000 -0.00000 -32.00000
v  0.00000 -0.00000 -32.00000
v  0.00000 -0.12500 -5.33333
v  0.00000 -0.00000 -5.33333
v  -13.00000 0.00000 32.00000
v  -12.00000 0.00000 32.00000
v  -12.00000 -0.00000 26.66667
v  -13.00000 0.00000 26.66667
v  -12.00000 -0.00000 21.33333
v  -13.00000 0.00000 21.33333
v  -12.00000 -0.00000 16.00000
v  -13.00000 0.00000 16.00000
v  -12.00000 -0.00000 10.66667
v  -13.00000 0.00000 10.66667
v  -12.00000 -0.00000 5.33333
v  -12.00000 -0.00000 -32.00000
v  -13.00000 0.00000 -32.00000
v  -13.00000 0.00000 -26.66667
v  -12.00000 -0.00000 -26.66667
v  -13.00000 0.00000 -21.33333
v  -12.00000 -0.00000 -21.33333
v  -13.00000 0.00000 -16.00000
v  -12.00000 -0.00000 -16.00000
v  -13.00000 0.00000 -10.66667
v  -12.00000 -0.00000 -10.66667
v  -13.00000 1.00000 -32.00000
v  -13.00000 1.00000 -26.66667
v  -13.00000 1.00000 -21.33333
v  -13.00000 1.00000 -16.00000
v  -13.00000 1.00000 -10.66667
v  -13.00000 1.00000 -5.33333
v  -13.00000 1.00000 32.00000
v  -13.00000 1.00000 26.66667
v  -13.00000 1.00000 21.33333
v  -13.00000 1.00000 16.00000
v  -13.00000 1.00000 10.66667
v  13.00000 0.00000 32.00000
v  13.00000 1.00000 32.00000
v  13.00000 1.00000 26.66667
v  13.00000 0.00000 26.66667
v  13.00000 1.00000 21.33333
v  13.00000 0.00000 21.33333
v  13.00000 1.00000 16.00000
v  13.00000 0.00000 16.00000
v  13.00000 1.00000 10.66667
v  13.00000 0.00000 10.66667
v  13.00000 1.00000 -32.00000
v  13.00000 0.00000 -32.00000
v  13.00000 0.00000 -26.66667
v  13.00000 1.00000 -26.66667
v  13.00000 0.00000 -21.33333
v  13.00000 1.00000 -21.33333
v  13.00000 0.00000 -16.00000
v  13.00000 1.00000 -16.00000
v  13.00000 0.00000 -10.66667
v  13.00000 1.00000 -10.66667
v  -14.00000 1.00000 -32.00000
v  -14.00000 -0.50000 -32.00000
v  -14.00000 -0.50000 -26.66667
v  -14.00000 1.00000 -26.66667
v  -14.00000 -0.50000 -21.33333
v  -14.00000 1.00000 -21.33333
v  -14.00000 -0.50000 -16.00000
v  -14.00000 1.00000 -16.00000
v  -14.00000 -0.50000 -10.66667
v  -14.00000 1.00000 -10.66667
v  -14.00000 -0.50000 -5.33333
v  -14.00000 1.00000 -5.33333
v  -14.00000 -0.50000 32.00000
v  -14.00000 1.00000 32.00000
v  -14.00000 1.00000 26.66667
v  -14.00000 -0.50000 26.66667
v  -14.00000 1.00000 21.33333
v  -14.00000 -0.50000 21.33333
v  -14.00000 1.00000 16.00000
v  -14.00000 -0.50000 16.00000
v  -14.00000 1.00000 10.66667
v  -14.00000 -0.50000 10.66667
v  14.00000 1.00000 32.00000
v  14.00000 -0.50000 32.00000
v  14.00000 -0.50000 26.66667
v  14.00000 1.00000 26.66667
v  14.00000 -0.50000 21.33333
v  14.00000 1.00000 21.33333
v  14.00000 -0.50000 16.00000
v  14.00000 1.00000 16.00000
v  14.00000 -0.50000 10.66667
v  14.00000 1.00000 10.66667
v  14.00000 -0.50000 5.33333
v  14.00000 -0.50000 -32.00000
v  14.00000 1.00000 -32.00000
v  14.00000 1.00000 -26.66667
v  14.00000 -0.50000 -26.66667
v  14.00000 1.00000 -21.33333
v  14.00000 -0.50000 -21.33333
v  14.00000 1.00000 -16.00000
v  14.00000 -0.50000 -16.00000
v  14.00000 1.00000 -10.66667
v  14.00000 -0.50000 -10.66667
v  12.00000 -0.00000 -26.66667
v  12.00000 -0.00000 -21.33333
v  12.00000 -0.00000 -16.00000
v  12.00000 -0.00000 -10.66667
v  12.00000 -0.00000 -5.33333
v  12.00000 0.00000 32.00000
v  12.00000 -0.00000 26.66667
v  12.00000 -0.00000 21.33333
v  12.00000 -0.00000 16.00000
v  12.00000 -0.00000 10.66667
v  -12.00000 -0.02500 -26.66667
v  0.00000 -0.02500 -26.66666
v  -12.00000 -0.05000 -21.33333
v  0.00000 -0.05000 -21.33334
v  -12.00000 -0.07500 -16.00000
v  0.00000 -0.07500 -16.00000
v  -12.00000 -0.10000 -10.66667
v  0.00000 -0.10000 -10.66666
v  0.00000 -0.12500 -5.33334
v  -12.00000 -0.30000 32.00000
v  0.00000 -0.30000 32.00000
v  0.00000 -0.27500 26.66667
v  -12.00000 -0.27500 26.66666
v  0.00000 -0.25000 21.33333
v  -12.00000 -0.25000 21.33334
v  0.00000 -0.22500 16.00000
v  -12.00000 -0.22500 16.00000
v  0.00000 -0.20000 10.66667
v  -12.00000 -0.20000 10.66666
v  0.00000 -0.02500 -26.66667
v  12.00000 -0.02500 -26.66666
v  0.00000 -0.05000 -21.33333
v  12.00000 -0.05000 -21.33334
v  12.00000 -0.07500 -16.00000
v  0.00000 -0.10000 -10.66667
v  12.00000 -0.10000 -10.66666
v  12.00000 -0.12500 -5.33334
v  12.00000 -0.30000 32.00000
v  12.00000 -0.27500 26.66667
v  0.00000 -0.27500 26.66666
v  12.00000 -0.25000 21.33333
v  0.00000 -0.25000 21.33334
v  12.00000 -0.22500 16.00000
v  12.00000 -0.20000 10.66667
v  0.00000 -0.20000 10.66666
v  0.00000 -0.00000 -26.66667
v  0.00000 -0.00000 -21.33333
v  0.00000 -0.00000 -16.00000
v  0.00000 -0.00000 -10.66667
v  0.00000 0.00000 32.00000
v  0.00000 -0.00000 26.66667
v  0.00000 -0.00000 21.33333
v  0.00000 -0.00000 16.00000
v  0.00000 -0.00000 10.66667
# 187 vertices

vn 0.00000 1.00000 -0.00000
vn 1.00000 0.00000 -0.00000
vn -1.00000 0.00000 -0.00000
vn -0.00000 1.00000 -0.00000
vn 0.00000 0.99999 0.00469
vn -0.00000 0.99999 0.00469
vn 1.00000 0.00000 0.00000
vn 0.00000 0.00000 1.00000
vn 1.00000 -0.00000 0.00000
vn 0.00000 1.00000 0.00234
vn 1.00000 -0.00000 -0.00000
vn -0.00000 1.00000 0.00234
vn -1.00000 -0.00000 -0.00000
# 13 vertex normals

vt 0.14914 0.50000 0.00000
vt 0.16682 0.50000 0.00000
vt 0.16682 0.58333 0.00000
vt 0.14914 0.58333 0.00000
vt 0.77150 0.50000 0.00000
vt 0.84371 0.50000 0.00000
vt 0.84371 0.41667 0.00000
vt 0.77150 0.41667 0.00000
vt 0.84371 0.58333 0.00000
vt 0.77150 0.58333 0.00000
vt 1.00000 1.00000 1.00000
vt 0.60882 0.50000 0.00000
vt 0.59114 0.50000 0.00000
vt 0.59114 0.41667 0.00000
vt 0.60882 0.41667 0.00000
vt 0.37898 0.50000 0.00000
vt 0.16682 0.41667 0.00000
vt 0.37898 0.41667 0.00000
vt 0.59114 1.00000 0.00000
vt 0.37898 1.00000 0.00000
vt 0.37898 0.58333 0.00000
vt 0.14914 0.00000 0.00000
vt 0.16682 0.00000 0.00000
vt 0.16682 0.08333 0.00000
vt 0.14914 0.08333 0.00000
vt 0.16682 0.16667 0.00000
vt 0.14914 0.16667 0.00000
vt 0.16682 0.25000 0.00000
vt 0.14914 0.25000 0.00000
vt 0.16682 0.33333 0.00000
vt 0.14914 0.33333 0.00000
vt 0.14914 0.41667 0.00000
vt 0.16682 1.00000 0.00000
vt 0.14914 1.00000 0.00000
vt 0.14914 0.91667 0.00000
vt 0.16682 0.91667 0.00000
vt 0.14914 0.83333 0.00000
vt 0.16682 0.83333 0.00000
vt 0.14914 0.75000 0.00000
vt 0.16682 0.75000 0.00000
vt 0.14914 0.66667 0.00000
vt 0.16682 0.66667 0.00000
vt 0.77150 1.00000 0.00000
vt 0.84371 1.00000 0.00000
vt 0.84371 0.91667 0.00000
vt 0.77150 0.91667 0.00000
vt 0.84371 0.83333 0.00000
vt 0.77150 0.83333 0.00000
vt 0.84371 0.75000 0.00000
vt 0.77150 0.75000 0.00000
vt 0.84371 0.66667 0.00000
vt 0.77150 0.66667 0.00000
vt 0.84371 0.00000 0.00000
vt 0.77150 0.00000 0.00000
vt 0.77150 0.08333 0.00000
vt 0.84371 0.08333 0.00000
vt 0.77150 0.16667 0.00000
vt 0.84371 0.16667 0.00000
vt 0.77150 0.25000 0.00000
vt 0.84371 0.25000 0.00000
vt 0.77150 0.33333 0.00000
vt 0.84371 0.33333 0.00000
vt 0.60882 1.00000 0.00000
vt 0.59114 0.91667 0.00000
vt 0.60882 0.91667 0.00000
vt 0.59114 0.83333 0.00000
vt 0.60882 0.83333 0.00000
vt 0.59114 0.75000 0.00000
vt 0.60882 0.75000 0.00000
vt 0.59114 0.66667 0.00000
vt 0.60882 0.66667 0.00000
vt 0.59114 0.58333 0.00000
vt 0.60882 0.58333 0.00000
vt 0.59114 0.00000 0.00000
vt 0.60882 0.00000 0.00000
vt 0.60882 0.08333 0.00000
vt 0.59114 0.08333 0.00000
vt 0.60882 0.16667 0.00000
vt 0.59114 0.16667 0.00000
vt 0.60882 0.25000 0.00000
vt 0.59114 0.25000 0.00000
vt 0.60882 0.33333 0.00000
vt 0.59114 0.33333 0.00000
vt 0.37898 0.91667 0.00000
vt 0.37898 0.83333 0.00000
vt 0.37898 0.75000 0.00000
vt 0.37898 0.66667 0.00000
vt 0.37898 0.00000 0.00000
vt 0.37898 0.08333 0.00000
vt 0.37898 0.16667 0.00000
vt 0.37898 0.25000 0.00000
vt 0.37898 0.33333 0.00000
# 92 texture coords

g Plane005
f 1/1/1 2/2/1 3/3/1 
f 3/3/1 4/4/1 1/1/1 
f 1/5/2 5/6/2 6/7/2 
f 6/7/2 7/8/2 1/5/2 
f 8/5/3 9/6/3 10/9/3 
f 10/9/3 11/10/3 8/5/3 
f 12/11/3 13/11/3 14/11/3 
f 14/11/3 15/11/3 12/11/3 
f 16/11/2 17/11/2 18/11/2 
f 18/11/2 19/11/2 16/11/2 
f 16/11/1 9/6/1 20/7/1 
f 20/7/1 21/11/1 16/11/1 
f 5/6/1 12/11/1 15/11/1 
f 15/11/1 6/7/1 5/6/1 
f 8/12/4 22/13/4 23/14/4 
f 23/14/4 24/15/4 8/12/4 
f 25/16/5 26/2/5 27/17/5 
f 27/17/5 28/18/5 25/16/5 
f 29/13/6 25/16/6 30/18/6 
f 30/18/6 31/14/6 29/13/6 
f 32/16/3 25/16/3 28/18/3 
f 28/18/3 33/18/3 32/16/3 
f 2/2/7 26/2/7 34/3/7 
f 34/3/7 3/3/7 2/2/7 
f 35/19/8 36/20/8 36/20/8 
f 32/16/7 25/16/7 37/21/7 
f 37/21/9 38/21/9 32/16/9 
f 22/13/3 29/13/3 31/14/3 
f 31/14/3 23/14/3 22/13/3 
f 39/22/1 40/23/1 41/24/1 
f 41/24/1 42/25/1 39/22/1 
f 42/25/1 41/24/1 43/26/1 
f 43/26/1 44/27/1 42/25/1 
f 44/27/1 43/26/1 45/28/1 
f 45/28/1 46/29/1 44/27/1 
f 46/29/1 45/28/1 47/30/1 
f 47/30/1 48/31/1 46/29/1 
f 48/31/1 47/30/1 49/17/1 
f 49/17/1 7/32/1 48/31/1 
f 7/32/1 49/17/1 2/2/1 
f 2/2/1 1/1/1 7/32/1 
f 50/33/10 51/34/1 52/35/1 
f 52/35/1 53/36/1 50/33/10 
f 53/36/1 52/35/1 54/37/1 
f 54/37/1 55/38/1 53/36/1 
f 55/38/1 54/37/1 56/39/1 
f 56/39/1 57/40/1 55/38/1 
f 57/40/1 56/39/1 58/41/1 
f 58/41/1 59/42/1 57/40/1 
f 59/42/1 58/41/1 4/4/1 
f 4/4/1 3/3/1 59/42/1 
f 51/43/2 60/44/2 61/45/2 
f 61/45/2 52/46/2 51/43/2 
f 52/46/2 61/45/2 62/47/2 
f 62/47/2 54/48/2 52/46/2 
f 54/48/2 62/47/2 63/49/2 
f 63/49/2 56/50/2 54/48/2 
f 56/50/2 63/49/2 64/51/2 
f 64/51/2 58/52/2 56/50/2 
f 58/52/2 64/51/2 65/9/2 
f 65/9/2 4/10/2 58/52/2 
f 4/10/2 65/9/2 5/6/2 
f 5/6/2 1/5/2 4/10/2 
f 66/53/2 39/54/2 42/55/2 
f 42/55/2 67/56/2 66/53/2 
f 67/56/2 42/55/2 44/57/2 
f 44/57/2 68/58/2 67/56/2 
f 68/58/2 44/57/2 46/59/2 
f 46/59/2 69/60/2 68/58/2 
f 69/60/2 46/59/2 48/61/2 
f 48/61/2 70/62/2 69/60/2 
f 70/62/2 48/61/2 7/8/2 
f 7/8/2 6/7/2 70/62/2 
f 71/54/3 72/53/3 73/56/3 
f 73/56/3 74/55/3 71/54/3 
f 74/55/3 73/56/3 75/58/3 
f 75/58/3 76/57/3 74/55/3 
f 76/57/3 75/58/3 77/60/3 
f 77/60/3 78/59/3 76/57/3 
f 78/59/3 77/60/3 79/62/3 
f 79/62/3 80/61/3 78/59/3 
f 80/61/3 79/62/3 20/7/3 
f 20/7/3 24/8/3 80/61/3 
f 24/8/3 20/7/3 9/6/3 
f 9/6/3 8/5/3 24/8/3 
f 81/44/3 82/43/3 83/46/3 
f 83/46/3 84/45/3 81/44/3 
f 84/45/3 83/46/3 85/48/3 
f 85/48/3 86/47/3 84/45/3 
f 86/47/3 85/48/3 87/50/3 
f 87/50/3 88/49/3 86/47/3 
f 88/49/3 87/50/3 89/52/3 
f 89/52/3 90/51/3 88/49/3 
f 90/51/3 89/52/3 11/10/3 
f 11/10/3 10/9/3 90/51/3 
f 91/11/3 92/11/3 93/11/3 
f 93/11/3 94/11/3 91/11/3 
f 94/11/3 93/11/3 95/11/3 
f 95/11/3 96/11/3 94/11/3 
f 96/11/3 95/11/3 97/11/3 
f 97/11/3 98/11/3 96/11/3 
f 98/11/3 97/11/3 99/11/3 
f 99/11/3 100/11/3 98/11/3 
f 100/11/3 99/11/3 101/11/3 
f 101/11/3 102/11/3 100/11/3 
f 102/11/3 101/11/3 13/11/3 
f 13/11/3 12/11/3 102/11/3 
f 103/11/3 104/11/3 105/11/3 
f 105/11/3 106/11/3 103/11/3 
f 106/11/3 105/11/3 107/11/3 
f 107/11/3 108/11/3 106/11/3 
f 108/11/3 107/11/3 109/11/3 
f 109/11/3 110/11/3 108/11/3 
f 110/11/3 109/11/3 111/11/3 
f 111/11/3 112/11/3 110/11/3 
f 112/11/3 111/11/3 15/11/3 
f 15/11/3 14/11/3 112/11/3 
f 113/11/2 114/11/2 115/11/2 
f 115/11/2 116/11/2 113/11/2 
f 116/11/2 115/11/2 117/11/2 
f 117/11/11 118/11/11 116/11/11 
f 118/11/2 117/11/2 119/11/2 
f 119/11/2 120/11/2 118/11/2 
f 120/11/2 119/11/2 121/11/2 
f 121/11/2 122/11/2 120/11/2 
f 122/11/2 121/11/2 123/11/2 
f 123/11/11 21/11/11 122/11/11 
f 21/11/2 123/11/2 17/11/2 
f 17/11/2 16/11/2 21/11/2 
f 124/11/2 125/11/2 126/11/2 
f 126/11/2 127/11/2 124/11/2 
f 127/11/2 126/11/2 128/11/2 
f 128/11/11 129/11/11 127/11/11 
f 129/11/2 128/11/2 130/11/2 
f 130/11/2 131/11/2 129/11/2 
f 131/11/2 130/11/2 132/11/2 
f 132/11/2 133/11/2 131/11/2 
f 133/11/2 132/11/2 19/11/2 
f 19/11/11 18/11/11 133/11/11 
f 125/11/1 81/44/1 84/45/1 
f 84/45/1 126/11/1 125/11/1 
f 126/11/1 84/45/1 86/47/1 
f 86/47/1 128/11/1 126/11/1 
f 128/11/1 86/47/1 88/49/1 
f 88/49/1 130/11/1 128/11/1 
f 130/11/1 88/49/1 90/51/1 
f 90/51/1 132/11/1 130/11/1 
f 132/11/1 90/51/1 10/9/1 
f 10/9/1 19/11/1 132/11/1 
f 19/11/1 10/9/1 9/6/1 
f 9/6/1 16/11/1 19/11/1 
f 72/53/1 113/11/1 116/11/1 
f 116/11/1 73/56/1 72/53/1 
f 73/56/1 116/11/1 118/11/1 
f 118/11/1 75/58/1 73/56/1 
f 75/58/1 118/11/1 120/11/1 
f 120/11/1 77/60/1 75/58/1 
f 77/60/1 120/11/1 122/11/1 
f 122/11/1 79/62/1 77/60/1 
f 79/62/1 122/11/1 21/11/1 
f 21/11/1 20/7/1 79/62/1 
f 60/44/1 91/11/1 94/11/1 
f 94/11/1 61/45/1 60/44/1 
f 61/45/1 94/11/1 96/11/1 
f 96/11/1 62/47/1 61/45/1 
f 62/47/1 96/11/1 98/11/1 
f 98/11/1 63/49/1 62/47/1 
f 63/49/1 98/11/1 100/11/1 
f 100/11/1 64/51/1 63/49/1 
f 64/51/1 100/11/1 102/11/1 
f 102/11/1 65/9/1 64/51/1 
f 65/9/1 102/11/1 12/11/1 
f 12/11/1 5/6/1 65/9/1 
f 104/11/1 66/53/1 67/56/1 
f 67/56/1 105/11/1 104/11/1 
f 105/11/1 67/56/1 68/58/1 
f 68/58/1 107/11/1 105/11/1 
f 107/11/1 68/58/1 69/60/1 
f 69/60/1 109/11/1 107/11/1 
f 109/11/1 69/60/1 70/62/1 
f 70/62/1 111/11/1 109/11/1 
f 111/11/1 70/62/1 6/7/1 
f 6/7/1 15/11/1 111/11/1 
f 82/63/4 35/19/12 134/64/4 
f 134/64/4 83/65/4 82/63/4 
f 83/65/4 134/64/4 135/66/4 
f 135/66/4 85/67/4 83/65/4 
f 85/67/4 135/66/4 136/68/4 
f 136/68/4 87/69/4 85/67/4 
f 87/69/4 136/68/4 137/70/4 
f 137/70/4 89/71/4 87/69/4 
f 89/71/4 137/70/4 138/72/4 
f 138/72/4 11/73/4 89/71/4 
f 11/73/4 138/72/4 22/13/4 
f 22/13/4 8/12/4 11/73/4 
f 139/74/4 71/75/1 74/76/4 
f 74/76/4 140/77/4 139/74/4 
f 140/77/4 74/76/4 76/78/4 
f 76/78/4 141/79/4 140/77/4 
f 141/79/4 76/78/4 78/80/4 
f 78/80/4 142/81/4 141/79/4 
f 142/81/4 78/80/4 80/82/4 
f 80/82/4 143/83/4 142/81/4 
f 143/83/4 80/82/4 24/15/4 
f 24/15/4 23/14/4 143/83/4 
f 36/20/5 50/33/10 144/36/5 
f 144/36/5 145/84/5 36/20/5 
f 145/84/5 144/36/5 146/38/5 
f 146/38/5 147/85/5 145/84/5 
f 147/85/5 146/38/5 148/40/5 
f 148/40/5 149/86/5 147/85/5 
f 149/86/5 148/40/5 150/42/5 
f 150/42/5 151/87/5 149/86/5 
f 151/87/5 150/42/5 34/3/5 
f 34/3/5 152/21/5 151/87/5 
f 152/21/5 34/3/5 26/2/5 
f 26/2/5 25/16/5 152/21/5 
f 153/23/5 154/88/6 155/89/5 
f 155/89/5 156/24/5 153/23/5 
f 156/24/5 155/89/5 157/90/5 
f 157/90/5 158/26/5 156/24/5 
f 158/26/5 157/90/5 159/91/5 
f 159/91/5 160/28/5 158/26/5 
f 160/28/5 159/91/5 161/92/5 
f 161/92/5 162/30/5 160/28/5 
f 162/30/5 161/92/5 28/18/5 
f 28/18/5 27/17/5 162/30/5 
f 35/19/12 36/20/6 163/84/6 
f 163/84/6 164/64/6 35/19/12 
f 164/64/6 163/84/6 165/85/6 
f 165/85/6 166/66/6 164/64/6 
f 166/66/6 165/85/6 149/86/6 
f 149/86/6 167/68/6 166/66/6 
f 167/68/6 149/86/6 168/87/6 
f 168/87/6 169/70/6 167/68/6 
f 169/70/6 168/87/6 37/21/6 
f 37/21/6 170/72/6 169/70/6 
f 170/72/6 37/21/6 25/16/6 
f 25/16/6 29/13/6 170/72/6 
f 154/88/6 171/74/5 172/77/6 
f 172/77/6 173/89/6 154/88/6 
f 173/89/6 172/77/6 174/79/6 
f 174/79/6 175/90/6 173/89/6 
f 175/90/6 174/79/6 176/81/6 
f 176/81/6 159/91/6 175/90/6 
f 159/91/6 176/81/6 177/83/6 
f 177/83/6 178/92/6 159/91/6 
f 178/92/6 177/83/6 31/14/6 
f 31/14/6 30/18/6 178/92/6 
f 179/84/3 36/20/3 145/84/3 
f 179/84/3 145/84/3 147/85/3 
f 147/85/3 180/85/3 179/84/3 
f 180/85/3 147/85/3 149/86/3 
f 149/86/3 181/86/3 180/85/3 
f 181/86/3 149/86/3 151/87/3 
f 151/87/3 182/87/3 181/86/3 
f 182/87/3 151/87/3 152/21/3 
f 152/21/3 38/21/3 182/87/3 
f 38/21/3 152/21/3 25/16/3 
f 25/16/3 32/16/3 38/21/3 
f 154/88/3 183/88/3 184/89/3 
f 184/89/13 155/89/13 154/88/13 
f 155/89/13 184/89/13 185/90/13 
f 185/90/3 157/90/3 155/89/3 
f 157/90/3 185/90/3 186/91/3 
f 186/91/3 159/91/3 157/90/3 
f 159/91/3 186/91/3 187/92/3 
f 187/92/3 161/92/3 159/91/3 
f 161/92/3 187/92/3 33/18/3 
f 33/18/3 28/18/3 161/92/3 
f 40/23/2 153/23/2 156/24/2 
f 156/24/2 41/24/2 40/23/2 
f 41/24/2 156/24/2 158/26/2 
f 158/26/2 43/26/2 41/24/2 
f 43/26/2 158/26/2 160/28/2 
f 160/28/2 45/28/2 43/26/2 
f 45/28/2 160/28/2 162/30/2 
f 162/30/2 47/30/2 45/28/2 
f 47/30/2 162/30/2 27/17/2 
f 27/17/2 49/17/2 47/30/2 
f 49/17/2 27/17/2 26/2/2 
f 26/2/2 2/2/2 49/17/2 
f 144/36/2 50/33/2 53/36/2 
f 144/36/2 53/36/2 55/38/2 
f 55/38/2 146/38/2 144/36/2 
f 146/38/2 55/38/2 57/40/2 
f 57/40/2 148/40/2 146/38/2 
f 148/40/2 57/40/2 59/42/2 
f 59/42/2 150/42/2 148/40/2 
f 150/42/2 59/42/2 3/3/2 
f 3/3/2 34/3/2 150/42/2 
f 183/88/7 154/88/7 173/89/7 
f 173/89/7 184/89/7 183/88/7 
f 184/89/7 173/89/7 175/90/7 
f 175/90/7 185/90/7 184/89/7 
f 185/90/7 175/90/7 159/91/7 
f 159/91/7 186/91/7 185/90/7 
f 186/91/7 159/91/7 178/92/7 
f 178/92/7 187/92/7 186/91/7 
f 187/92/7 178/92/7 30/18/7 
f 30/18/7 33/18/7 187/92/7 
f 33/18/7 30/18/7 25/16/7 
f 25/16/7 32/16/7 33/18/7 
f 163/84/7 36/20/7 36/20/7 
f 36/20/9 179/84/9 163/84/9 
f 163/84/9 179/84/9 180/85/9 
f 180/85/9 165/85/9 163/84/9 
f 165/85/9 180/85/9 181/86/9 
f 181/86/7 149/86/7 165/85/7 
f 149/86/7 181/86/7 182/87/7 
f 182/87/9 168/87/9 149/86/9 
f 168/87/9 182/87/9 38/21/9 
f 38/21/9 37/21/9 168/87/9 
f 134/64/3 35/19/3 164/64/3 
f 134/64/3 164/64/3 166/66/3 
f 166/66/3 135/66/3 134/64/3 
f 135/66/3 166/66/3 167/68/3 
f 167/68/3 136/68/3 135/66/3 
f 136/68/3 167/68/3 169/70/3 
f 169/70/3 137/70/3 136/68/3 
f 137/70/3 169/70/3 170/72/3 
f 170/72/3 138/72/3 137/70/3 
f 138/72/3 170/72/3 29/13/3 
f 29/13/3 22/13/3 138/72/3 
f 171/74/3 139/74/3 140/77/3 
f 140/77/3 172/77/3 171/74/3 
f 172/77/3 140/77/3 141/79/3 
f 141/79/3 174/79/3 172/77/3 
f 174/79/3 141/79/3 142/81/3 
f 142/81/3 176/81/3 174/79/3 
f 176/81/3 142/81/3 143/83/3 
f 143/83/3 177/83/3 176/81/3 
f 177/83/3 143/83/3 23/14/3 
f 23/14/3 31/14/3 177/83/3 
# 334 faces

