# 3ds Max Wavefront OBJ Exporter v0.97b - (c)2007 guruware
# File Created: 05.02.2018 22:51:09

#
# object Plane005
#

v  2.8632 -0.2955 32.0000
v  2.8034 -0.2955 26.6667
v  3.1635 -0.2955 26.6667
v  3.2232 -0.2955 32.0000
v  2.6380 -0.2955 21.3333
v  2.9981 -0.2955 21.3333
v  2.3879 -0.2955 16.0000
v  2.7481 -0.2955 16.0000
v  2.0744 -0.2954 10.6667
v  2.4347 -0.2954 10.6667
v  1.7186 -0.2954 5.3333
v  2.0789 -0.2954 5.3333
v  1.3417 -0.2954 -0.0000
v  1.7019 -0.2954 -0.0000
v  0.9647 -0.2954 -5.3333
v  1.3249 -0.2954 -5.3333
v  0.6090 -0.2954 -10.6667
v  0.9691 -0.2954 -10.6667
v  0.2955 -0.2953 -16.0000
v  0.6555 -0.2953 -16.0000
v  0.0454 -0.2953 -21.3333
v  0.4054 -0.2953 -21.3333
v  -0.1201 -0.2953 -26.6667
v  0.2399 -0.2953 -26.6667
v  -0.1800 -0.2953 -32.0000
v  0.1800 -0.2953 -32.0000
v  -3.0793 -0.2950 -32.0000
v  -2.8993 -0.2950 -32.0000
v  -2.8993 -0.2950 -26.6667
v  -3.0793 -0.2950 -26.6667
v  -2.8993 -0.2950 -21.3333
v  -3.0793 -0.2950 -21.3333
v  -2.8993 -0.2950 -16.0000
v  -3.0793 -0.2950 -16.0000
v  -2.8993 -0.2950 -10.6667
v  -3.0793 -0.2950 -10.6667
v  -2.8993 -0.2950 -5.3333
v  -3.0793 -0.2950 -5.3333
v  -2.8993 -0.2950 0.0000
v  -3.0793 -0.2950 0.0000
v  -2.8993 -0.2950 5.3333
v  -3.0793 -0.2950 5.3333
v  -2.8993 -0.2950 10.6667
v  -3.0793 -0.2950 10.6667
v  -2.8993 -0.2950 16.0000
v  -3.0793 -0.2950 16.0000
v  -2.8993 -0.2950 21.3333
v  -3.0793 -0.2950 21.3333
v  -2.8993 -0.2950 26.6667
v  -3.0793 -0.2950 26.6667
v  -2.8993 -0.2950 32.0000
v  -3.0793 -0.2950 32.0000
# 52 vertices

vn 0.0000 1.0000 -0.0000
# 1 vertex normals

vt 0.1015 0.0000 0.0000
vt 0.1015 0.0833 0.0000
vt 0.1192 0.0833 0.0000
vt 0.1192 0.0000 0.0000
vt 0.1015 0.1667 0.0000
vt 0.1192 0.1667 0.0000
vt 0.1015 0.2500 0.0000
vt 0.1192 0.2500 0.0000
vt 0.1015 0.3333 0.0000
vt 0.1192 0.3333 0.0000
vt 0.1015 0.4167 0.0000
vt 0.1192 0.4167 0.0000
vt 0.1015 0.5000 0.0000
vt 0.1192 0.5000 0.0000
vt 0.1015 0.5833 0.0000
vt 0.1192 0.5833 0.0000
vt 0.1015 0.6667 0.0000
vt 0.1192 0.6667 0.0000
vt 0.1015 0.7500 0.0000
vt 0.1192 0.7500 0.0000
vt 0.1015 0.8333 0.0000
vt 0.1192 0.8333 0.0000
vt 0.1015 0.9167 0.0000
vt 0.1192 0.9167 0.0000
vt 0.1015 1.0000 0.0000
vt 0.1192 1.0000 0.0000
vt 0.1590 0.0008 0.0000
vt 0.1633 0.0008 0.0000
vt 0.1633 0.0841 0.0000
vt 0.1590 0.0841 0.0000
vt 0.1633 0.1673 0.0000
vt 0.1590 0.1673 0.0000
vt 0.1633 0.2506 0.0000
vt 0.1590 0.2506 0.0000
vt 0.1633 0.3339 0.0000
vt 0.1590 0.3339 0.0000
vt 0.1633 0.4171 0.0000
vt 0.1590 0.4171 0.0000
vt 0.1633 0.5004 0.0000
vt 0.1590 0.5004 0.0000
vt 0.1633 0.5837 0.0000
vt 0.1590 0.5837 0.0000
vt 0.1633 0.6669 0.0000
vt 0.1590 0.6669 0.0000
vt 0.1633 0.7502 0.0000
vt 0.1590 0.7502 0.0000
vt 0.1633 0.8335 0.0000
vt 0.1590 0.8335 0.0000
vt 0.1633 0.9167 0.0000
vt 0.1590 0.9167 0.0000
vt 0.1633 1.0000 0.0000
vt 0.1590 1.0000 0.0000
# 52 texture coords

g Plane005
s 1
f 4/4/1 3/3/1 2/2/1 1/1/1 
f 3/3/1 6/6/1 5/5/1 2/2/1 
f 6/6/1 8/8/1 7/7/1 5/5/1 
f 8/8/1 10/10/1 9/9/1 7/7/1 
f 10/10/1 12/12/1 11/11/1 9/9/1 
f 12/12/1 14/14/1 13/13/1 11/11/1 
f 14/14/1 16/16/1 15/15/1 13/13/1 
f 16/16/1 18/18/1 17/17/1 15/15/1 
f 18/18/1 20/20/1 19/19/1 17/17/1 
f 20/20/1 22/22/1 21/21/1 19/19/1 
f 22/22/1 24/24/1 23/23/1 21/21/1 
f 24/24/1 26/26/1 25/25/1 23/23/1 
f 30/30/1 29/29/1 28/28/1 27/27/1 
f 32/32/1 31/31/1 29/29/1 30/30/1 
f 34/34/1 33/33/1 31/31/1 32/32/1 
f 36/36/1 35/35/1 33/33/1 34/34/1 
f 38/38/1 37/37/1 35/35/1 36/36/1 
f 40/40/1 39/39/1 37/37/1 38/38/1 
f 42/42/1 41/41/1 39/39/1 40/40/1 
f 44/44/1 43/43/1 41/41/1 42/42/1 
f 46/46/1 45/45/1 43/43/1 44/44/1 
f 48/48/1 47/47/1 45/45/1 46/46/1 
f 50/50/1 49/49/1 47/47/1 48/48/1 
f 52/52/1 51/51/1 49/49/1 50/50/1 
# 24 polygons

