# 3ds Max Wavefront OBJ Exporter v0.97b - (c)2007 guruware
# File Created: 14.02.2018 08:18:10

#
# object MedCon_OnePlusThreeS_Start
#

v  2.7456 -0.2951 26.6667
v  3.1237 -0.2951 26.6667
v  3.2231 -0.2950 32.0000
v  2.8869 -0.2950 32.0000
v  2.8491 -0.2954 21.3333
v  2.3591 -0.2954 21.3333
v  1.7769 -0.2958 16.0000
v  2.4346 -0.2958 16.0000
v  1.0485 -0.2963 10.6667
v  1.9150 -0.2963 10.6667
v  0.2225 -0.2969 5.3333
v  1.3254 -0.2969 5.3333
v  -0.6521 -0.2975 -0.0000
v  0.7007 -0.2975 -0.0000
v  -1.5266 -0.2981 -5.3333
v  0.0761 -0.2981 -5.3333
v  -2.3518 -0.2987 -10.6667
v  -0.5134 -0.2987 -10.6667
v  -3.0788 -0.2992 -16.0000
v  -1.0326 -0.2992 -16.0000
v  -3.6588 -0.2996 -21.3333
v  -1.4469 -0.2996 -21.3333
v  -4.0422 -0.2999 -26.6667
v  -1.7211 -0.2999 -26.6667
v  -1.8200 -0.3000 -32.0000
v  -4.1800 -0.3000 -32.0000
v  -6.7972 -0.2950 -26.6687
v  -6.9772 -0.2950 -26.6687
v  -7.0546 -0.2950 -31.9998
v  -6.8746 -0.2950 -31.9998
v  -6.5830 -0.2950 -21.3482
v  -6.7630 -0.2950 -21.3482
v  -6.2593 -0.2950 -16.0429
v  -6.4393 -0.2950 -16.0429
v  -5.8535 -0.2950 -10.7512
v  -6.0335 -0.2950 -10.7512
v  -5.3930 -0.2950 -5.4671
v  -5.5730 -0.2950 -5.4671
v  -4.9050 -0.2950 -0.1815
v  -5.0850 -0.2950 -0.1815
v  -4.4171 -0.2950 5.1162
v  -4.5971 -0.2950 5.1162
v  -3.9567 -0.2950 10.4366
v  -4.1367 -0.2950 10.4366
v  -3.5512 -0.2950 15.7879
v  -3.7312 -0.2950 15.7879
v  -3.2278 -0.2950 21.1749
v  -3.4078 -0.2950 21.1749
v  -3.0141 -0.2950 26.5975
v  -3.1941 -0.2950 26.5975
v  -2.9371 -0.2950 32.0000
v  -3.1171 -0.2950 32.0000
# 52 vertices

vn 0.0000 1.0000 -0.0000
# 1 vertex normals

vt 0.8270 0.9148 0.0000
vt 0.7906 0.9149 0.0000
vt 0.7983 0.9979 0.0000
vt 0.8177 0.9977 0.0000
vt 0.7829 0.8319 0.0000
vt 0.8350 0.8318 0.0000
vt 0.8429 0.7489 0.0000
vt 0.7752 0.7489 0.0000
vt 0.8508 0.6659 0.0000
vt 0.7675 0.6660 0.0000
vt 0.8587 0.5830 0.0000
vt 0.7598 0.5830 0.0000
vt 0.8666 0.5000 0.0000
vt 0.7520 0.5000 0.0000
vt 0.8745 0.4170 0.0000
vt 0.7443 0.4170 0.0000
vt 0.8824 0.3341 0.0000
vt 0.7366 0.3340 0.0000
vt 0.8903 0.2511 0.0000
vt 0.7289 0.2511 0.0000
vt 0.8982 0.1682 0.0000
vt 0.7212 0.1681 0.0000
vt 0.9061 0.0852 0.0000
vt 0.7135 0.0851 0.0000
vt 0.7058 0.0021 0.0000
vt 0.9140 0.0023 0.0000
vt 0.1635 0.0833 0.0000
vt 0.1589 0.0833 0.0000
vt 0.1589 0.0000 0.0000
vt 0.1635 0.0000 0.0000
vt 0.1635 0.1667 0.0000
vt 0.1589 0.1667 0.0000
vt 0.1635 0.2500 0.0000
vt 0.1589 0.2500 0.0000
vt 0.1635 0.3333 0.0000
vt 0.1589 0.3333 0.0000
vt 0.1635 0.4167 0.0000
vt 0.1589 0.4167 0.0000
vt 0.1635 0.5000 0.0000
vt 0.1589 0.5000 0.0000
vt 0.1635 0.5833 0.0000
vt 0.1589 0.5833 0.0000
vt 0.1635 0.6667 0.0000
vt 0.1589 0.6667 0.0000
vt 0.1635 0.7500 0.0000
vt 0.1589 0.7500 0.0000
vt 0.1635 0.8333 0.0000
vt 0.1589 0.8333 0.0000
vt 0.1635 0.9167 0.0000
vt 0.1589 0.9167 0.0000
vt 0.1635 1.0000 0.0000
vt 0.1589 1.0000 0.0000
# 52 texture coords

g MedCon_OnePlusThreeS_Start
s 1
f 4/4/1 3/3/1 2/2/1 1/1/1 
f 6/6/1 1/1/1 2/2/1 5/5/1 
f 6/6/1 5/5/1 8/8/1 7/7/1 
f 7/7/1 8/8/1 10/10/1 9/9/1 
f 9/9/1 10/10/1 12/12/1 11/11/1 
f 11/11/1 12/12/1 14/14/1 13/13/1 
f 13/13/1 14/14/1 16/16/1 15/15/1 
f 15/15/1 16/16/1 18/18/1 17/17/1 
f 17/17/1 18/18/1 20/20/1 19/19/1 
f 19/19/1 20/20/1 22/22/1 21/21/1 
f 21/21/1 22/22/1 24/24/1 23/23/1 
f 26/26/1 23/23/1 24/24/1 25/25/1 
f 30/30/1 29/29/1 28/28/1 27/27/1 
f 27/27/1 28/28/1 32/32/1 31/31/1 
f 31/31/1 32/32/1 34/34/1 33/33/1 
f 34/34/1 36/36/1 35/35/1 33/33/1 
f 36/36/1 38/38/1 37/37/1 35/35/1 
f 38/38/1 40/40/1 39/39/1 37/37/1 
f 40/40/1 42/42/1 41/41/1 39/39/1 
f 42/42/1 44/44/1 43/43/1 41/41/1 
f 44/44/1 46/46/1 45/45/1 43/43/1 
f 45/45/1 46/46/1 48/48/1 47/47/1 
f 47/47/1 48/48/1 50/50/1 49/49/1 
f 49/49/1 50/50/1 52/52/1 51/51/1 
# 24 polygons

