# 3ds Max Wavefront OBJ Exporter v0.97b - (c)2007 guruware
# File Created: 18.02.2017 01:14:59

#
# object Object003
#

v  0.5208 0.2000 -0.0000
v  0.5208 0.2000 -5.3333
v  -0.5208 0.2000 -5.3333
v  -0.5208 0.2000 -0.0000
v  -1.5000 -0.3000 -0.0000
v  -1.5000 0.0000 -0.0000
v  -1.5000 0.0000 -5.3333
v  -1.5000 -0.3000 -5.3333
v  1.5000 -0.3000 -0.0000
v  1.5000 0.0000 -0.0000
v  1.5000 0.0000 5.3333
v  1.5000 -0.3000 5.3333
v  0.5208 0.2000 32.0000
v  0.5208 0.2000 26.6667
v  -0.5208 0.2000 26.6667
v  -0.5208 0.2000 32.0000
v  0.5208 0.2000 21.3333
v  -0.5208 0.2000 21.3333
v  0.5208 0.2000 16.0000
v  -0.5208 0.2000 16.0000
v  0.5208 0.2000 10.6667
v  -0.5208 0.2000 10.6667
v  0.5208 0.2000 5.3333
v  -0.5208 0.2000 5.3333
v  -0.5208 0.2000 -32.0000
v  -0.5208 0.2000 -26.6667
v  0.5208 0.2000 -26.6667
v  0.5208 0.2000 -32.0000
v  -0.5208 0.2000 -21.3333
v  0.5208 0.2000 -21.3333
v  -0.5208 0.2000 -16.0000
v  0.5208 0.2000 -16.0000
v  -0.5208 0.2000 -10.6667
v  0.5208 0.2000 -10.6667
v  -1.5000 -0.3000 32.0000
v  -1.5000 0.0000 32.0000
v  -1.5000 0.0000 26.6667
v  -1.5000 -0.3000 26.6667
v  -1.5000 0.0000 21.3333
v  -1.5000 -0.3000 21.3333
v  -1.5000 0.0000 16.0000
v  -1.5000 -0.3000 16.0000
v  -1.5000 0.0000 10.6667
v  -1.5000 -0.3000 10.6667
v  -1.5000 0.0000 5.3333
v  -1.5000 -0.3000 5.3333
v  -1.5000 0.0000 -32.0000
v  -1.5000 -0.3000 -32.0000
v  -1.5000 -0.3000 -26.6667
v  -1.5000 0.0000 -26.6667
v  -1.5000 -0.3000 -21.3333
v  -1.5000 0.0000 -21.3333
v  -1.5000 -0.3000 -16.0000
v  -1.5000 0.0000 -16.0000
v  -1.5000 -0.3000 -10.6667
v  -1.5000 0.0000 -10.6667
v  1.5000 -0.3000 -32.0000
v  1.5000 0.0000 -32.0000
v  1.5000 0.0000 -26.6667
v  1.5000 -0.3000 -26.6667
v  1.5000 0.0000 -21.3333
v  1.5000 -0.3000 -21.3333
v  1.5000 0.0000 -16.0000
v  1.5000 -0.3000 -16.0000
v  1.5000 0.0000 -10.6667
v  1.5000 -0.3000 -10.6667
v  1.5000 0.0000 -5.3333
v  1.5000 -0.3000 -5.3333
v  1.5000 0.0000 32.0000
v  1.5000 -0.3000 32.0000
v  1.5000 -0.3000 26.6667
v  1.5000 0.0000 26.6667
v  1.5000 -0.3000 21.3333
v  1.5000 0.0000 21.3333
v  1.5000 -0.3000 16.0000
v  1.5000 0.0000 16.0000
v  1.5000 -0.3000 10.6667
v  1.5000 0.0000 10.6667
# 78 vertices

vn 0.0000 1.0000 -0.0000
vn -1.0000 0.0000 -0.0000
vn 1.0000 0.0000 -0.0000
vn 0.0000 0.0000 -1.0000
vn 0.2449 0.9696 0.0000
vn -0.2449 0.9696 -0.0000
vn 0.2449 0.9696 -0.0000
vn -0.2449 0.9696 0.0000
# 8 vertex normals

vt 0.5534 0.5000 0.0000
vt 0.5534 0.5833 0.0000
vt 0.4516 0.5833 0.0000
vt 0.4516 0.5000 0.0000
vt 0.4004 0.5000 0.0000
vt 0.4004 0.5833 0.0000
vt 0.6046 0.5000 0.0000
vt 0.6046 0.4167 0.0000
vt 0.5534 0.0000 0.0000
vt 0.5534 0.0833 0.0000
vt 0.4516 0.0833 0.0000
vt 0.4516 0.0000 0.0000
vt 0.5534 0.1667 0.0000
vt 0.4516 0.1667 0.0000
vt 0.5534 0.2500 0.0000
vt 0.4516 0.2500 0.0000
vt 0.5534 0.3333 0.0000
vt 0.4516 0.3333 0.0000
vt 0.5534 0.4167 0.0000
vt 0.4516 0.4167 0.0000
vt 0.4516 1.0000 0.0000
vt 0.4516 0.9167 0.0000
vt 0.5534 0.9167 0.0000
vt 0.5534 1.0000 0.0000
vt 0.4516 0.8333 0.0000
vt 0.5534 0.8333 0.0000
vt 0.4516 0.7500 0.0000
vt 0.5534 0.7500 0.0000
vt 0.4516 0.6667 0.0000
vt 0.5534 0.6667 0.0000
vt 0.4004 0.0000 0.0000
vt 0.4004 0.0833 0.0000
vt 0.4004 0.1667 0.0000
vt 0.4004 0.2500 0.0000
vt 0.4004 0.3333 0.0000
vt 0.4004 0.4167 0.0000
vt 0.4004 1.0000 0.0000
vt 0.4004 0.9167 0.0000
vt 0.4004 0.8333 0.0000
vt 0.4004 0.7500 0.0000
vt 0.4004 0.6667 0.0000
vt 0.6046 1.0000 0.0000
vt 0.6046 0.9167 0.0000
vt 0.6046 0.8333 0.0000
vt 0.6046 0.7500 0.0000
vt 0.6046 0.6667 0.0000
vt 0.6046 0.5833 0.0000
vt 0.6046 0.0000 0.0000
vt 0.6046 0.0833 0.0000
vt 0.6046 0.1667 0.0000
vt 0.6046 0.2500 0.0000
vt 0.6046 0.3333 0.0000
# 52 texture coords

g Object003
s off
f 1/1/1 2/2/1 3/3/1 
f 3/3/1 4/4/1 1/1/1 
f 5/5/2 6/5/2 7/6/2 
f 7/6/2 8/6/2 5/5/2 
f 9/7/3 10/7/3 11/8/3 
f 11/8/3 12/8/3 9/7/3 
f 13/9/1 14/10/1 15/11/1 
f 15/11/1 16/12/1 13/9/1 
f 14/10/1 17/13/1 18/14/1 
f 18/14/1 15/11/1 14/10/1 
f 17/13/1 19/15/1 20/16/1 
f 20/16/1 18/14/1 17/13/1 
f 19/15/1 21/17/1 22/18/1 
f 22/18/1 20/16/1 19/15/1 
f 21/17/1 23/19/1 24/20/1 
f 24/20/1 22/18/1 21/17/1 
f 23/19/1 1/1/1 4/4/1 
f 4/4/1 24/20/1 23/19/1 
f 25/21/1 26/22/1 27/23/1 
f 27/23/1 28/24/1 25/21/1 
f 26/22/1 29/25/1 30/26/1 
f 30/26/1 27/23/1 26/22/1 
f 29/25/1 31/27/1 32/28/1 
f 32/28/1 30/26/1 29/25/1 
f 31/27/1 33/29/1 34/30/1 
f 34/30/1 32/28/1 31/27/1 
f 33/29/1 3/3/1 2/2/1 
f 2/2/1 34/30/1 33/29/1 
f 35/31/2 36/31/2 37/32/2 
f 37/32/2 38/32/2 35/31/2 
f 38/32/2 37/32/2 39/33/2 
f 39/33/2 40/33/2 38/32/2 
f 40/33/2 39/33/2 41/34/2 
f 41/34/2 42/34/2 40/33/2 
f 42/34/2 41/34/2 43/35/2 
f 43/35/2 44/35/2 42/34/2 
f 44/35/2 43/35/2 45/36/2 
f 45/36/2 46/36/2 44/35/2 
f 46/36/2 45/36/2 6/5/2 
f 6/5/2 5/5/2 46/36/2 
f 47/37/2 48/37/2 49/38/2 
f 49/38/2 50/38/2 47/37/2 
f 50/38/2 49/38/2 51/39/2 
f 51/39/2 52/39/2 50/38/2 
f 52/39/2 51/39/2 53/40/2 
f 53/40/2 54/40/2 52/39/2 
f 54/40/2 53/40/2 55/41/2 
f 55/41/2 56/41/2 54/40/2 
f 56/41/2 55/41/2 8/6/2 
f 8/6/2 7/6/2 56/41/2 
f 57/42/3 58/42/3 59/43/3 
f 59/43/3 60/43/3 57/42/3 
f 60/43/3 59/43/3 61/44/3 
f 61/44/3 62/44/3 60/43/3 
f 62/44/3 61/44/3 63/45/3 
f 63/45/3 64/45/3 62/44/3 
f 64/45/3 63/45/3 65/46/3 
f 65/46/3 66/46/3 64/45/3 
f 66/46/3 65/46/3 67/47/3 
f 67/47/3 68/47/3 66/46/3 
f 68/47/3 67/47/3 10/7/3 
f 10/7/3 9/7/3 68/47/3 
f 69/48/3 70/48/3 71/49/3 
f 71/49/3 72/49/3 69/48/3 
f 72/49/3 71/49/3 73/50/3 
f 73/50/3 74/50/3 72/49/3 
f 74/50/3 73/50/3 75/51/3 
f 75/51/3 76/51/3 74/50/3 
f 76/51/3 75/51/3 77/52/3 
f 77/52/3 78/52/3 76/51/3 
f 78/52/3 77/52/3 12/8/3 
f 12/8/3 11/8/3 78/52/3 
f 70/48/4 36/31/4 35/31/4 
f 70/48/4 69/48/4 36/31/4 
f 48/37/4 47/37/4 25/21/4 
f 48/37/4 25/21/4 28/24/4 
f 48/37/4 28/24/4 58/42/4 
f 57/42/4 48/37/4 58/42/4 
f 10/7/5 67/47/5 2/2/5 
f 2/2/5 1/1/5 10/7/5 
f 7/6/6 6/5/6 4/4/6 
f 4/4/6 3/3/6 7/6/6 
f 69/48/5 72/49/5 14/10/5 
f 14/10/5 13/9/5 69/48/5 
f 37/32/6 36/31/6 16/12/6 
f 16/12/6 15/11/6 37/32/6 
f 72/49/7 74/50/7 17/13/7 
f 17/13/7 14/10/7 72/49/7 
f 39/33/6 37/32/6 15/11/6 
f 15/11/6 18/14/6 39/33/6 
f 74/50/7 76/51/7 19/15/7 
f 19/15/7 17/13/7 74/50/7 
f 41/34/6 39/33/6 18/14/6 
f 18/14/6 20/16/6 41/34/6 
f 76/51/7 78/52/7 21/17/7 
f 21/17/7 19/15/7 76/51/7 
f 43/35/6 41/34/6 20/16/6 
f 20/16/6 22/18/6 43/35/6 
f 78/52/7 11/8/7 23/19/7 
f 23/19/7 21/17/7 78/52/7 
f 45/36/6 43/35/6 22/18/6 
f 22/18/6 24/20/6 45/36/6 
f 11/8/7 10/7/7 1/1/7 
f 1/1/7 23/19/7 11/8/7 
f 6/5/8 45/36/8 24/20/8 
f 24/20/8 4/4/8 6/5/8 
f 47/37/6 50/38/6 26/22/6 
f 26/22/6 25/21/6 47/37/6 
f 59/43/5 58/42/5 28/24/5 
f 28/24/5 27/23/5 59/43/5 
f 50/38/6 52/39/6 29/25/6 
f 29/25/6 26/22/6 50/38/6 
f 61/44/7 59/43/7 27/23/7 
f 27/23/7 30/26/7 61/44/7 
f 52/39/6 54/40/6 31/27/6 
f 31/27/6 29/25/6 52/39/6 
f 63/45/7 61/44/7 30/26/7 
f 30/26/7 32/28/7 63/45/7 
f 54/40/6 56/41/6 33/29/6 
f 33/29/6 31/27/6 54/40/6 
f 65/46/7 63/45/7 32/28/7 
f 32/28/7 34/30/7 65/46/7 
f 56/41/8 7/6/8 3/3/8 
f 3/3/8 33/29/8 56/41/8 
f 67/47/7 65/46/7 34/30/7 
f 34/30/7 2/2/7 67/47/7 
# 126 faces

