# 3ds Max Wavefront OBJ Exporter v0.97b - (c)2007 guruware
# File Created: 07.02.2018 16:52:30

#
# object MedCon_OnePlusThreeS_Start001
#

v  -0.2098 -0.2950 26.6666
v  0.2060 -0.2950 26.6666
v  0.1680 -0.2950 31.9999
v  -0.1682 -0.2950 31.9999
v  0.3097 -0.2950 21.3332
v  -0.3208 -0.2950 21.3332
v  -0.4871 -0.2950 15.9999
v  0.4662 -0.2950 15.9999
v  -0.6940 -0.2950 10.6666
v  0.6619 -0.2950 10.6666
v  -0.9283 -0.2950 5.3332
v  0.8839 -0.2950 5.3332
v  -1.1760 -0.2950 -0.0001
v  1.1188 -0.2950 -0.0001
v  -1.4239 -0.2950 -5.3334
v  1.3538 -0.2950 -5.3334
v  -1.6579 -0.2950 -10.6667
v  1.5758 -0.2950 -10.6668
v  -1.8646 -0.2950 -16.0000
v  1.7830 -0.2950 -16.0001
v  -2.0301 -0.2950 -21.3333
v  1.9777 -0.2950 -21.3334
v  -2.1398 -0.2950 -26.6667
v  2.1228 -0.2950 -26.6667
v  -2.1800 -0.2950 -32.0000
v  2.1800 -0.2950 -32.0000
v  -8.0100 -0.2950 -26.6667
v  -8.1900 -0.2950 -26.6667
v  -8.2920 -0.2950 -32.0000
v  -8.1120 -0.2950 -32.0000
v  -7.7269 -0.2950 -21.3333
v  -7.9070 -0.2950 -21.3333
v  -7.2993 -0.2950 -16.0000
v  -7.4794 -0.2950 -16.0000
v  -6.7630 -0.2950 -10.6667
v  -6.9432 -0.2950 -10.6667
v  -6.1541 -0.2950 -5.3333
v  -6.3344 -0.2950 -5.3333
v  -5.5089 -0.2950 -0.0000
v  -5.6893 -0.2950 -0.0000
v  -4.8638 -0.2950 5.3332
v  -5.0442 -0.2950 5.3333
v  -4.2551 -0.2950 10.6665
v  -4.4355 -0.2950 10.6666
v  -3.7192 -0.2950 15.9998
v  -3.8995 -0.2950 15.9998
v  -3.2926 -0.2950 21.3331
v  -3.4724 -0.2950 21.3331
v  -3.0106 -0.2950 26.6665
v  -3.1905 -0.2950 26.6665
v  -2.9090 -0.2950 31.9999
v  -3.0890 -0.2950 31.9999
v  3.2648 -0.2950 26.5502
v  3.1629 -0.2950 31.9948
v  2.9829 -0.2950 31.9948
v  3.0848 -0.2950 26.5502
v  3.5459 -0.2950 21.1132
v  3.3659 -0.2950 21.1132
v  3.9681 -0.2950 15.7202
v  3.7881 -0.2950 15.7202
v  4.4942 -0.2950 10.3707
v  4.3142 -0.2950 10.3707
v  5.0883 -0.2950 5.0580
v  4.9083 -0.2950 5.0580
v  5.5353 -0.2950 -0.2282
v  5.7153 -0.2950 -0.2282
v  6.1609 -0.2950 -5.5006
v  6.3409 -0.2950 -5.5006
v  6.9311 -0.2950 -10.7721
v  6.7511 -0.2950 -10.7721
v  7.4451 -0.2950 -16.0534
v  7.2650 -0.2950 -16.0534
v  7.8386 -0.2950 -21.3519
v  7.6583 -0.2950 -21.3519
v  8.0901 -0.2950 -26.6692
v  7.9097 -0.2950 -26.6692
v  8.1791 -0.2950 -31.9998
v  7.9986 -0.2950 -31.9998
# 78 vertices

vn 0.0000 1.0000 -0.0000
# 1 vertex normals

vt 0.8270 0.9148 0.0000
vt 0.7906 0.9149 0.0000
vt 0.7983 0.9979 0.0000
vt 0.8177 0.9977 0.0000
vt 0.7829 0.8319 0.0000
vt 0.8350 0.8318 0.0000
vt 0.8429 0.7489 0.0000
vt 0.7752 0.7489 0.0000
vt 0.8508 0.6659 0.0000
vt 0.7675 0.6660 0.0000
vt 0.8587 0.5830 0.0000
vt 0.7598 0.5830 0.0000
vt 0.8666 0.5000 0.0000
vt 0.7520 0.5000 0.0000
vt 0.8745 0.4170 0.0000
vt 0.7443 0.4170 0.0000
vt 0.8824 0.3341 0.0000
vt 0.7366 0.3340 0.0000
vt 0.8903 0.2511 0.0000
vt 0.7289 0.2511 0.0000
vt 0.8982 0.1682 0.0000
vt 0.7212 0.1681 0.0000
vt 0.9061 0.0852 0.0000
vt 0.7135 0.0851 0.0000
vt 0.9140 0.0023 0.0000
vt 0.7058 0.0021 0.0000
vt 0.1635 0.0833 0.0000
vt 0.1589 0.0833 0.0000
vt 0.1589 0.0000 0.0000
vt 0.1635 0.0000 0.0000
vt 0.1635 0.1667 0.0000
vt 0.1589 0.1667 0.0000
vt 0.1635 0.2500 0.0000
vt 0.1589 0.2500 0.0000
vt 0.1635 0.3333 0.0000
vt 0.1589 0.3333 0.0000
vt 0.1635 0.4167 0.0000
vt 0.1589 0.4167 0.0000
vt 0.1635 0.5000 0.0000
vt 0.1589 0.5000 0.0000
vt 0.1635 0.5833 0.0000
vt 0.1589 0.5833 0.0000
vt 0.1635 0.6667 0.0000
vt 0.1589 0.6667 0.0000
vt 0.1635 0.7500 0.0000
vt 0.1589 0.7500 0.0000
vt 0.1635 0.8333 0.0000
vt 0.1589 0.8333 0.0000
vt 0.1635 0.9167 0.0000
vt 0.1589 0.9167 0.0000
vt 0.1635 1.0000 0.0000
vt 0.1589 1.0000 0.0000
# 52 texture coords

g MedCon_OnePlusThreeS_Start001
s 1
f 4/4/1 3/3/1 2/2/1 1/1/1 
f 6/6/1 1/1/1 2/2/1 5/5/1 
f 8/8/1 7/7/1 6/6/1 5/5/1 
f 10/10/1 9/9/1 7/7/1 8/8/1 
f 12/12/1 11/11/1 9/9/1 10/10/1 
f 14/14/1 13/13/1 11/11/1 12/12/1 
f 16/16/1 15/15/1 13/13/1 14/14/1 
f 18/18/1 17/17/1 15/15/1 16/16/1 
f 20/20/1 19/19/1 17/17/1 18/18/1 
f 22/22/1 21/21/1 19/19/1 20/20/1 
f 24/24/1 23/23/1 21/21/1 22/22/1 
f 23/23/1 24/24/1 26/26/1 25/25/1 
f 30/30/1 29/29/1 28/28/1 27/27/1 
f 27/27/1 28/28/1 32/32/1 31/31/1 
f 31/31/1 32/32/1 34/34/1 33/33/1 
f 33/33/1 34/34/1 36/36/1 35/35/1 
f 36/36/1 38/38/1 37/37/1 35/35/1 
f 38/38/1 40/40/1 39/39/1 37/37/1 
f 40/40/1 42/42/1 41/41/1 39/39/1 
f 42/42/1 44/44/1 43/43/1 41/41/1 
f 43/43/1 44/44/1 46/46/1 45/45/1 
f 45/45/1 46/46/1 48/48/1 47/47/1 
f 47/47/1 48/48/1 50/50/1 49/49/1 
f 49/49/1 50/50/1 52/52/1 51/51/1 
f 56/28/1 55/29/1 54/30/1 53/27/1 
f 58/32/1 56/28/1 53/27/1 57/31/1 
f 60/34/1 58/32/1 57/31/1 59/33/1 
f 62/36/1 60/34/1 59/33/1 61/35/1 
f 64/38/1 62/36/1 61/35/1 63/37/1 
f 64/38/1 63/37/1 66/39/1 65/40/1 
f 65/40/1 66/39/1 68/41/1 67/42/1 
f 70/44/1 67/42/1 68/41/1 69/43/1 
f 72/46/1 70/44/1 69/43/1 71/45/1 
f 74/48/1 72/46/1 71/45/1 73/47/1 
f 76/50/1 74/48/1 73/47/1 75/49/1 
f 78/52/1 76/50/1 75/49/1 77/51/1 
# 36 polygons

