# 3ds Max Wavefront OBJ Exporter v0.97b - (c)2007 guruware
# File Created: 07.09.2015 12:26:31

#
# object Plane003
#

v  -12.00000 -0.30000 32.00000
v  12.00000 -0.30000 32.00000
v  -12.00000 -0.30000 16.00000
v  12.00000 -0.30000 16.00000
v  -12.00000 -0.30000 -0.00000
v  12.00000 -0.30000 -0.00000
v  -12.00000 -0.30000 -16.00000
v  12.00000 -0.30000 -16.00000
v  -12.00000 -0.30000 -32.00000
v  12.00000 -0.30000 -32.00000
# 10 vertices

vn 0.00000 1.00000 -0.00000
# 1 vertex normals

vt 0.00000 0.00000 0.00000
vt 1.00000 0.00000 0.00000
vt 1.00000 0.25000 0.00000
vt 0.00000 0.25000 0.00000
vt 1.00000 0.50000 0.00000
vt 0.00000 0.50000 0.00000
vt 1.00000 0.75000 0.00000
vt 0.00000 0.75000 0.00000
vt 1.00000 1.00000 0.00000
vt 0.00000 1.00000 0.00000
# 10 texture coords

g Plane003
f 1/1/1 2/2/1 4/3/1 
f 4/3/1 3/4/1 1/1/1 
f 3/4/1 4/3/1 6/5/1 
f 6/5/1 5/6/1 3/4/1 
f 5/6/1 6/5/1 8/7/1 
f 8/7/1 7/8/1 5/6/1 
f 7/8/1 8/7/1 10/9/1 
f 10/9/1 9/10/1 7/8/1 
# 8 faces

