# 3ds Max Wavefront OBJ Exporter v0.97b - (c)2007 guruware
# File Created: 07.02.2018 16:01:35

#
# object MedCon_OnePlusThreeS_Start001
#

v  0.1680 -0.2964 -31.9999
v  -0.1682 -0.2964 -31.9999
v  -0.1311 -0.2965 -26.6666
v  0.2440 -0.2962 -26.6666
v  -0.0245 -0.2967 -21.3332
v  0.4555 -0.2958 -21.3332
v  0.1379 -0.2970 -15.9999
v  0.7758 -0.2954 -15.9999
v  0.3430 -0.2973 -10.6666
v  1.1773 -0.2949 -10.6666
v  0.5763 -0.2978 -5.3332
v  1.6334 -0.2943 -5.3332
v  0.8241 -0.2982 0.0000
v  2.1166 -0.2937 0.0001
v  1.0715 -0.2986 5.3333
v  2.6000 -0.2932 5.3334
v  1.3050 -0.2991 10.6667
v  3.0564 -0.2926 10.6668
v  1.5104 -0.2994 16.0000
v  3.4700 -0.2926 16.0001
v  1.6736 -0.2997 21.3333
v  3.8295 -0.2934 21.3334
v  1.7815 -0.2999 26.6667
v  4.0834 -0.2945 26.6667
v  1.8200 -0.3000 32.0000
v  4.1800 -0.2950 32.0000
v  -4.0357 -0.3000 32.0000
v  -3.8557 -0.3000 32.0000
v  -3.8375 -0.2999 26.6675
v  -4.0175 -0.2999 26.6675
v  -3.7861 -0.2997 21.3391
v  -3.9661 -0.2997 21.3391
v  -3.7088 -0.2994 16.0166
v  -3.8888 -0.2994 16.0166
v  -3.6120 -0.2991 10.6992
v  -3.7920 -0.2991 10.6992
v  -3.6816 -0.2986 5.3848
v  -3.5022 -0.2986 5.3848
v  -3.5652 -0.2982 0.0700
v  -3.3858 -0.2982 0.0700
v  -3.4486 -0.2977 -5.2491
v  -3.2692 -0.2977 -5.2492
v  -3.3383 -0.2973 -10.5766
v  -3.1588 -0.2973 -10.5766
v  -3.0610 -0.2970 -15.9154
v  -3.2406 -0.2970 -15.9154
v  -2.9824 -0.2967 -21.2676
v  -3.1621 -0.2967 -21.2676
v  -2.9294 -0.2965 -26.6336
v  -3.1092 -0.2965 -26.6336
v  -2.9090 -0.2964 -31.9999
v  -3.0890 -0.2964 -31.9999
v  2.9829 -0.2964 -32.0003
v  3.0606 -0.2963 -26.6349
v  3.2406 -0.2963 -26.6349
v  3.1629 -0.2964 -32.0003
v  3.2763 -0.2962 -21.2686
v  3.4564 -0.2962 -21.2685
v  3.6026 -0.2961 -15.9159
v  3.7827 -0.2961 -15.9158
v  4.0116 -0.2961 -10.5768
v  4.1917 -0.2961 -10.5767
v  4.4759 -0.2961 -5.2491
v  4.6560 -0.2962 -5.2490
v  4.9680 -0.2962 0.0701
v  5.1481 -0.2962 0.0702
v  5.4600 -0.2963 5.3849
v  5.6400 -0.2963 5.3849
v  5.9245 -0.2963 10.6994
v  6.1045 -0.2963 10.6994
v  6.3272 -0.2967 16.0167
v  6.5073 -0.2967 16.0167
v  6.6311 -0.2979 21.3392
v  6.8114 -0.2979 21.3392
v  6.8228 -0.2992 26.6675
v  7.0031 -0.2992 26.6675
v  6.8899 -0.2997 32.0000
v  7.0704 -0.2997 32.0000
# 78 vertices

vn 0.0000 1.0000 -0.0000
# 1 vertex normals

vt 0.7983 0.9979 0.0000
vt 0.8177 0.9977 0.0000
vt 0.8270 0.9148 0.0000
vt 0.7906 0.9149 0.0000
vt 0.8350 0.8318 0.0000
vt 0.7829 0.8319 0.0000
vt 0.8429 0.7489 0.0000
vt 0.7752 0.7489 0.0000
vt 0.8508 0.6659 0.0000
vt 0.7675 0.6660 0.0000
vt 0.8587 0.5830 0.0000
vt 0.7598 0.5830 0.0000
vt 0.8666 0.5000 0.0000
vt 0.7520 0.5000 0.0000
vt 0.8745 0.4170 0.0000
vt 0.7443 0.4170 0.0000
vt 0.8824 0.3341 0.0000
vt 0.7366 0.3340 0.0000
vt 0.8903 0.2511 0.0000
vt 0.7289 0.2511 0.0000
vt 0.8982 0.1682 0.0000
vt 0.7212 0.1681 0.0000
vt 0.9061 0.0852 0.0000
vt 0.7135 0.0851 0.0000
vt 0.9140 0.0023 0.0000
vt 0.7058 0.0021 0.0000
vt 0.1589 0.0000 0.0000
vt 0.1635 0.0000 0.0000
vt 0.1635 0.0833 0.0000
vt 0.1589 0.0833 0.0000
vt 0.1635 0.1667 0.0000
vt 0.1589 0.1667 0.0000
vt 0.1635 0.2500 0.0000
vt 0.1589 0.2500 0.0000
vt 0.1635 0.3333 0.0000
vt 0.1589 0.3333 0.0000
vt 0.1589 0.4167 0.0000
vt 0.1635 0.4167 0.0000
vt 0.1589 0.5000 0.0000
vt 0.1635 0.5000 0.0000
vt 0.1589 0.5833 0.0000
vt 0.1635 0.5833 0.0000
vt 0.1589 0.6667 0.0000
vt 0.1635 0.6667 0.0000
vt 0.1635 0.7500 0.0000
vt 0.1589 0.7500 0.0000
vt 0.1635 0.8333 0.0000
vt 0.1589 0.8333 0.0000
vt 0.1635 0.9167 0.0000
vt 0.1589 0.9167 0.0000
vt 0.1635 1.0000 0.0000
vt 0.1589 1.0000 0.0000
# 52 texture coords

g MedCon_OnePlusThreeS_Start001
s 1
f 1/1/1 2/2/1 3/3/1 4/4/1 
f 3/3/1 5/5/1 6/6/1 4/4/1 
f 7/7/1 8/8/1 6/6/1 5/5/1 
f 9/9/1 10/10/1 8/8/1 7/7/1 
f 11/11/1 12/12/1 10/10/1 9/9/1 
f 13/13/1 14/14/1 12/12/1 11/11/1 
f 15/15/1 16/16/1 14/14/1 13/13/1 
f 17/17/1 18/18/1 16/16/1 15/15/1 
f 19/19/1 20/20/1 18/18/1 17/17/1 
f 21/21/1 22/22/1 20/20/1 19/19/1 
f 23/23/1 24/24/1 22/22/1 21/21/1 
f 24/24/1 23/23/1 25/25/1 26/26/1 
f 27/27/1 28/28/1 29/29/1 30/30/1 
f 30/30/1 29/29/1 31/31/1 32/32/1 
f 32/32/1 31/31/1 33/33/1 34/34/1 
f 34/34/1 33/33/1 35/35/1 36/36/1 
f 37/37/1 36/36/1 35/35/1 38/38/1 
f 39/39/1 37/37/1 38/38/1 40/40/1 
f 41/41/1 39/39/1 40/40/1 42/42/1 
f 43/43/1 41/41/1 42/42/1 44/44/1 
f 43/43/1 44/44/1 45/45/1 46/46/1 
f 46/46/1 45/45/1 47/47/1 48/48/1 
f 48/48/1 47/47/1 49/49/1 50/50/1 
f 50/50/1 49/49/1 51/51/1 52/52/1 
f 53/27/1 54/30/1 55/29/1 56/28/1 
f 54/30/1 57/32/1 58/31/1 55/29/1 
f 57/32/1 59/34/1 60/33/1 58/31/1 
f 59/34/1 61/36/1 62/35/1 60/33/1 
f 61/36/1 63/37/1 64/38/1 62/35/1 
f 64/38/1 63/37/1 65/39/1 66/40/1 
f 66/40/1 65/39/1 67/41/1 68/42/1 
f 67/41/1 69/43/1 70/44/1 68/42/1 
f 69/43/1 71/46/1 72/45/1 70/44/1 
f 71/46/1 73/48/1 74/47/1 72/45/1 
f 73/48/1 75/50/1 76/49/1 74/47/1 
f 75/50/1 77/52/1 78/51/1 76/49/1 
# 36 polygons

