# 3ds Max Wavefront OBJ Exporter v0.97b - (c)2007 guruware
# File Created: 07.02.2018 17:00:48

#
# object Plane005
#

v  -0.1800 -0.2950 26.6667
v  -0.1800 -0.2950 32.0000
v  0.1800 -0.2950 32.0000
v  0.1800 -0.2950 26.6667
v  -0.1800 -0.2950 21.3333
v  0.1800 -0.2950 21.3333
v  -0.1800 -0.2950 16.0000
v  0.1800 -0.2950 16.0000
v  -0.1800 -0.2950 10.6667
v  0.1800 -0.2950 10.6667
v  -0.1800 -0.2950 5.3333
v  0.1800 -0.2950 5.3333
v  -0.1800 -0.2950 -0.0000
v  0.1800 -0.2950 -0.0000
v  -0.1800 -0.2950 -5.3333
v  0.1800 -0.2950 -5.3333
v  -0.1800 -0.2950 -10.6667
v  0.1800 -0.2950 -10.6667
v  -0.1800 -0.2950 -16.0000
v  0.1800 -0.2950 -16.0000
v  -0.1800 -0.2950 -21.3333
v  0.1800 -0.2950 -21.3333
v  -0.1800 -0.2950 -26.6667
v  0.1800 -0.2950 -26.6667
v  -0.1800 -0.2950 -32.0000
v  0.1800 -0.2950 -32.0000
v  2.8990 -0.2950 26.6667
v  2.8990 -0.2950 32.0000
v  3.0790 -0.2950 32.0000
v  3.0790 -0.2950 26.6667
v  2.8990 -0.2950 21.3333
v  3.0790 -0.2950 21.3333
v  2.8990 -0.2950 16.0000
v  3.0790 -0.2950 16.0000
v  2.8990 -0.2950 10.6667
v  3.0790 -0.2950 10.6667
v  2.8990 -0.2950 5.3333
v  3.0790 -0.2950 5.3333
v  2.8990 -0.2950 -0.0000
v  3.0790 -0.2950 -0.0000
v  2.8990 -0.2950 -5.3333
v  3.0790 -0.2950 -5.3333
v  2.8990 -0.2950 -10.6667
v  3.0790 -0.2950 -10.6667
v  2.8990 -0.2950 -16.0000
v  3.0790 -0.2950 -16.0000
v  2.8990 -0.2950 -21.3333
v  3.0790 -0.2950 -21.3333
v  2.8990 -0.2950 -26.6667
v  3.0790 -0.2950 -26.6667
v  2.8990 -0.2950 -32.0000
v  3.0790 -0.2950 -32.0000
v  -3.0791 -0.2950 26.6667
v  -3.0791 -0.2950 32.0000
v  -2.8991 -0.2950 32.0000
v  -2.8991 -0.2950 26.6667
v  -3.0791 -0.2950 21.3333
v  -2.8991 -0.2950 21.3333
v  -3.0791 -0.2950 16.0000
v  -2.8991 -0.2950 16.0000
v  -3.0791 -0.2950 10.6667
v  -2.8991 -0.2950 10.6667
v  -3.0791 -0.2950 5.3333
v  -2.8991 -0.2950 5.3333
v  -3.0791 -0.2950 -0.0000
v  -2.8991 -0.2950 -0.0000
v  -3.0791 -0.2950 -5.3333
v  -2.8991 -0.2950 -5.3333
v  -3.0791 -0.2950 -10.6667
v  -2.8991 -0.2950 -10.6667
v  -3.0791 -0.2950 -16.0000
v  -2.8991 -0.2950 -16.0000
v  -3.0791 -0.2950 -21.3333
v  -2.8991 -0.2950 -21.3333
v  -3.0791 -0.2950 -26.6667
v  -2.8991 -0.2950 -26.6667
v  -3.0791 -0.2950 -32.0000
v  -2.8991 -0.2950 -32.0000
# 78 vertices

vn 0.0000 1.0000 -0.0000
# 1 vertex normals

vt 0.1015 0.0833 0.0000
vt 0.1015 0.0000 0.0000
vt 0.1193 0.0000 0.0000
vt 0.1193 0.0833 0.0000
vt 0.1015 0.1667 0.0000
vt 0.1193 0.1667 0.0000
vt 0.1015 0.2500 0.0000
vt 0.1193 0.2500 0.0000
vt 0.1015 0.3333 0.0000
vt 0.1193 0.3333 0.0000
vt 0.1015 0.4167 0.0000
vt 0.1193 0.4167 0.0000
vt 0.1015 0.5000 0.0000
vt 0.1193 0.5000 0.0000
vt 0.1015 0.5833 0.0000
vt 0.1193 0.5833 0.0000
vt 0.1015 0.6667 0.0000
vt 0.1193 0.6667 0.0000
vt 0.1015 0.7500 0.0000
vt 0.1193 0.7500 0.0000
vt 0.1015 0.8333 0.0000
vt 0.1193 0.8333 0.0000
vt 0.1015 0.9167 0.0000
vt 0.1193 0.9167 0.0000
vt 0.1015 1.0000 0.0000
vt 0.1193 1.0000 0.0000
vt 0.1591 0.0833 0.0000
vt 0.1591 0.0000 0.0000
vt 0.1634 0.0000 0.0000
vt 0.1634 0.0833 0.0000
vt 0.1591 0.1667 0.0000
vt 0.1634 0.1667 0.0000
vt 0.1591 0.2500 0.0000
vt 0.1634 0.2500 0.0000
vt 0.1591 0.3333 0.0000
vt 0.1634 0.3333 0.0000
vt 0.1591 0.4167 0.0000
vt 0.1634 0.4167 0.0000
vt 0.1591 0.5000 0.0000
vt 0.1634 0.5000 0.0000
vt 0.1591 0.5833 0.0000
vt 0.1634 0.5833 0.0000
vt 0.1591 0.6667 0.0000
vt 0.1634 0.6667 0.0000
vt 0.1591 0.7500 0.0000
vt 0.1634 0.7500 0.0000
vt 0.1591 0.8333 0.0000
vt 0.1634 0.8333 0.0000
vt 0.1591 0.9167 0.0000
vt 0.1634 0.9167 0.0000
vt 0.1591 1.0000 0.0000
vt 0.1634 1.0000 0.0000
# 52 texture coords

g Plane005
s 1
f 1/1/1 2/2/1 3/3/1 4/4/1 
f 5/5/1 1/1/1 4/4/1 6/6/1 
f 7/7/1 5/5/1 6/6/1 8/8/1 
f 9/9/1 7/7/1 8/8/1 10/10/1 
f 11/11/1 9/9/1 10/10/1 12/12/1 
f 13/13/1 11/11/1 12/12/1 14/14/1 
f 15/15/1 13/13/1 14/14/1 16/16/1 
f 17/17/1 15/15/1 16/16/1 18/18/1 
f 19/19/1 17/17/1 18/18/1 20/20/1 
f 21/21/1 19/19/1 20/20/1 22/22/1 
f 23/23/1 21/21/1 22/22/1 24/24/1 
f 25/25/1 23/23/1 24/24/1 26/26/1 
f 27/27/1 28/28/1 29/29/1 30/30/1 
f 31/31/1 27/27/1 30/30/1 32/32/1 
f 33/33/1 31/31/1 32/32/1 34/34/1 
f 35/35/1 33/33/1 34/34/1 36/36/1 
f 37/37/1 35/35/1 36/36/1 38/38/1 
f 39/39/1 37/37/1 38/38/1 40/40/1 
f 41/41/1 39/39/1 40/40/1 42/42/1 
f 43/43/1 41/41/1 42/42/1 44/44/1 
f 45/45/1 43/43/1 44/44/1 46/46/1 
f 47/47/1 45/45/1 46/46/1 48/48/1 
f 49/49/1 47/47/1 48/48/1 50/50/1 
f 51/51/1 49/49/1 50/50/1 52/52/1 
f 53/27/1 54/28/1 55/29/1 56/30/1 
f 57/31/1 53/27/1 56/30/1 58/32/1 
f 59/33/1 57/31/1 58/32/1 60/34/1 
f 61/35/1 59/33/1 60/34/1 62/36/1 
f 63/37/1 61/35/1 62/36/1 64/38/1 
f 65/39/1 63/37/1 64/38/1 66/40/1 
f 67/41/1 65/39/1 66/40/1 68/42/1 
f 69/43/1 67/41/1 68/42/1 70/44/1 
f 71/45/1 69/43/1 70/44/1 72/46/1 
f 73/47/1 71/45/1 72/46/1 74/48/1 
f 75/49/1 73/47/1 74/48/1 76/50/1 
f 77/51/1 75/49/1 76/50/1 78/52/1 
# 36 polygons

