# 3ds Max Wavefront OBJ Exporter v0.97b - (c)2007 guruware
# File Created: 04.02.2018 08:26:04

#
# object MedCon_OnePlusOne_End_LOD
#

v  -1.3688 -0.2951 -16.0000
v  1.3403 -0.2951 -16.0000
v  1.7312 -0.2950 -32.0000
v  -1.7688 -0.2950 -32.0000
v  -0.9686 -0.2952 0.0000
v  0.9495 -0.2952 0.0000
v  -0.5687 -0.2954 16.0000
v  0.5584 -0.2954 16.0000
v  -0.1687 -0.2955 32.0000
v  0.1675 -0.2955 32.0000
# 10 vertices

vn 0.0000 1.0000 -0.0000
# 1 vertex normals

vt 0.7266 0.2510 0.0000
vt 0.8912 0.2510 0.0000
vt 0.9129 0.0019 0.0000
vt 0.7049 0.0019 0.0000
vt 0.7484 0.5000 0.0000
vt 0.8694 0.5000 0.0000
vt 0.7702 0.7490 0.0000
vt 0.8476 0.7490 0.0000
vt 0.7920 0.9981 0.0000
vt 0.8258 0.9981 0.0000
# 10 texture coords

g MedCon_OnePlusOne_End_LOD
s 1
f 1/1/1 2/2/1 3/3/1 4/4/1 
f 5/5/1 6/6/1 2/2/1 1/1/1 
f 7/7/1 8/8/1 6/6/1 5/5/1 
f 9/9/1 10/10/1 8/8/1 7/7/1 
# 4 polygons

