# 3ds Max Wavefront OBJ Exporter v0.97b - (c)2007 guruware
# File Created: 14.02.2018 17:20:15

#
# object MedCon_OnePlusThreeS_Start001
#

v  2.7658 -0.2955 26.6667
v  3.1632 -0.2955 26.6667
v  3.2231 -0.2955 32.0000
v  2.8869 -0.2955 32.0000
v  2.9974 -0.2955 21.3333
v  2.4348 -0.2955 21.3333
v  1.9371 -0.2954 16.0000
v  2.7474 -0.2954 16.0000
v  1.3128 -0.2954 10.6667
v  2.4337 -0.2954 10.6667
v  0.6032 -0.2953 5.3333
v  2.0778 -0.2953 5.3333
v  -0.1484 -0.2953 -0.0000
v  1.7008 -0.2953 -0.0000
v  -0.9004 -0.2952 -5.3333
v  1.3239 -0.2952 -5.3333
v  -1.6098 -0.2951 -10.6667
v  0.9683 -0.2951 -10.6667
v  -2.2346 -0.2951 -16.0000
v  0.6549 -0.2951 -16.0000
v  -2.7328 -0.2950 -21.3333
v  0.4050 -0.2950 -21.3333
v  -3.0619 -0.2950 -26.6667
v  0.2395 -0.2950 -26.6667
v  0.1800 -0.2950 -32.0000
v  -3.1800 -0.2950 -32.0000
v  -6.2300 -0.2950 -26.6667
v  -6.4100 -0.2950 -26.6667
v  -6.4720 -0.2950 -32.0000
v  -6.2920 -0.2950 -32.0000
v  -6.0583 -0.2950 -21.3333
v  -6.2383 -0.2950 -21.3333
v  -5.7990 -0.2950 -16.0000
v  -5.9790 -0.2950 -16.0000
v  -5.4740 -0.2950 -10.6667
v  -5.6540 -0.2950 -10.6667
v  -5.1051 -0.2950 -5.3333
v  -5.2851 -0.2950 -5.3333
v  -4.7143 -0.2950 -0.0000
v  -4.8943 -0.2950 -0.0000
v  -4.3235 -0.2950 5.3333
v  -4.5035 -0.2950 5.3333
v  -3.9546 -0.2950 10.6667
v  -4.1346 -0.2950 10.6667
v  -3.6296 -0.2950 16.0000
v  -3.8096 -0.2950 16.0000
v  -3.3703 -0.2950 21.3333
v  -3.5503 -0.2950 21.3333
v  -3.1987 -0.2950 26.6667
v  -3.3787 -0.2950 26.6667
v  -3.1366 -0.2950 32.0000
v  -3.3166 -0.2950 32.0000
# 52 vertices

vn 0.0000 1.0000 -0.0000
# 1 vertex normals

vt 0.8270 0.9148 0.0000
vt 0.7906 0.9149 0.0000
vt 0.7983 0.9979 0.0000
vt 0.8177 0.9977 0.0000
vt 0.7829 0.8319 0.0000
vt 0.8350 0.8318 0.0000
vt 0.8429 0.7489 0.0000
vt 0.7752 0.7489 0.0000
vt 0.8508 0.6659 0.0000
vt 0.7675 0.6660 0.0000
vt 0.8587 0.5830 0.0000
vt 0.7598 0.5830 0.0000
vt 0.8666 0.5000 0.0000
vt 0.7520 0.5000 0.0000
vt 0.8745 0.4170 0.0000
vt 0.7443 0.4170 0.0000
vt 0.8824 0.3341 0.0000
vt 0.7366 0.3340 0.0000
vt 0.8903 0.2511 0.0000
vt 0.7289 0.2511 0.0000
vt 0.8982 0.1682 0.0000
vt 0.7212 0.1681 0.0000
vt 0.9061 0.0852 0.0000
vt 0.7135 0.0851 0.0000
vt 0.7058 0.0021 0.0000
vt 0.9140 0.0023 0.0000
vt 0.1635 0.0833 0.0000
vt 0.1589 0.0833 0.0000
vt 0.1589 0.0000 0.0000
vt 0.1635 0.0000 0.0000
vt 0.1635 0.1667 0.0000
vt 0.1589 0.1667 0.0000
vt 0.1635 0.2500 0.0000
vt 0.1589 0.2500 0.0000
vt 0.1635 0.3333 0.0000
vt 0.1589 0.3333 0.0000
vt 0.1635 0.4167 0.0000
vt 0.1589 0.4167 0.0000
vt 0.1635 0.5000 0.0000
vt 0.1589 0.5000 0.0000
vt 0.1635 0.5833 0.0000
vt 0.1589 0.5833 0.0000
vt 0.1635 0.6667 0.0000
vt 0.1589 0.6667 0.0000
vt 0.1635 0.7500 0.0000
vt 0.1589 0.7500 0.0000
vt 0.1635 0.8333 0.0000
vt 0.1589 0.8333 0.0000
vt 0.1635 0.9167 0.0000
vt 0.1589 0.9167 0.0000
vt 0.1635 1.0000 0.0000
vt 0.1589 1.0000 0.0000
# 52 texture coords

g MedCon_OnePlusThreeS_Start001
s 1
f 4/4/1 3/3/1 2/2/1 1/1/1 
f 6/6/1 1/1/1 2/2/1 5/5/1 
f 5/5/1 8/8/1 7/7/1 6/6/1 
f 8/8/1 10/10/1 9/9/1 7/7/1 
f 10/10/1 12/12/1 11/11/1 9/9/1 
f 12/12/1 14/14/1 13/13/1 11/11/1 
f 14/14/1 16/16/1 15/15/1 13/13/1 
f 16/16/1 18/18/1 17/17/1 15/15/1 
f 18/18/1 20/20/1 19/19/1 17/17/1 
f 20/20/1 22/22/1 21/21/1 19/19/1 
f 22/22/1 24/24/1 23/23/1 21/21/1 
f 26/26/1 23/23/1 24/24/1 25/25/1 
f 30/30/1 29/29/1 28/28/1 27/27/1 
f 27/27/1 28/28/1 32/32/1 31/31/1 
f 31/31/1 32/32/1 34/34/1 33/33/1 
f 33/33/1 34/34/1 36/36/1 35/35/1 
f 35/35/1 36/36/1 38/38/1 37/37/1 
f 37/37/1 38/38/1 40/40/1 39/39/1 
f 39/39/1 40/40/1 42/42/1 41/41/1 
f 41/41/1 42/42/1 44/44/1 43/43/1 
f 43/43/1 44/44/1 46/46/1 45/45/1 
f 45/45/1 46/46/1 48/48/1 47/47/1 
f 47/47/1 48/48/1 50/50/1 49/49/1 
f 49/49/1 50/50/1 52/52/1 51/51/1 
# 24 polygons

