# 3ds Max Wavefront OBJ Exporter v0.97b - (c)2007 guruware
# File Created: 14.02.2018 17:23:44

#
# object MedCon_OnePlusThreeS_Start001
#

v  2.7474 -0.2954 -16.0000
v  3.2231 -0.2955 -32.0000
v  2.8869 -0.2955 -32.0000
v  1.9371 -0.2954 -16.0000
v  1.7008 -0.2953 -0.0000
v  -0.1484 -0.2953 -0.0000
v  -2.2346 -0.2951 16.0000
v  0.6549 -0.2951 16.0000
v  -3.1800 -0.2950 32.0000
v  0.1800 -0.2950 32.0000
v  -5.9790 -0.2950 16.0000
v  -6.4720 -0.2950 32.0000
v  -6.2920 -0.2950 32.0000
v  -5.7990 -0.2950 16.0000
v  -4.8943 -0.2950 -0.0000
v  -4.7143 -0.2950 -0.0000
v  -3.6296 -0.2950 -16.0000
v  -3.8096 -0.2950 -16.0000
v  -3.1366 -0.2950 -32.0000
v  -3.3166 -0.2950 -32.0000
# 20 vertices

vn 0.0000 1.0000 -0.0000
# 1 vertex normals

vt 0.7752 0.7489 0.0000
vt 0.7983 0.9979 0.0000
vt 0.8177 0.9977 0.0000
vt 0.8429 0.7489 0.0000
vt 0.7520 0.5000 0.0000
vt 0.8666 0.5000 0.0000
vt 0.8903 0.2511 0.0000
vt 0.7289 0.2511 0.0000
vt 0.9140 0.0023 0.0000
vt 0.7058 0.0021 0.0000
vt 0.1589 0.2500 0.0000
vt 0.1589 0.0000 0.0000
vt 0.1635 0.0000 0.0000
vt 0.1635 0.2500 0.0000
vt 0.1589 0.5000 0.0000
vt 0.1635 0.5000 0.0000
vt 0.1635 0.7500 0.0000
vt 0.1589 0.7500 0.0000
vt 0.1635 1.0000 0.0000
vt 0.1589 1.0000 0.0000
# 20 texture coords

g MedCon_OnePlusThreeS_Start001
s 1
f 1/1/1 2/2/1 3/3/1 4/4/1 
f 5/5/1 1/1/1 4/4/1 6/6/1 
f 7/7/1 8/8/1 5/5/1 6/6/1 
f 9/9/1 10/10/1 8/8/1 7/7/1 
f 11/11/1 12/12/1 13/13/1 14/14/1 
f 15/15/1 11/11/1 14/14/1 16/16/1 
f 17/17/1 18/18/1 15/15/1 16/16/1 
f 19/19/1 20/20/1 18/18/1 17/17/1 
# 8 polygons

