# 3ds Max Wavefront OBJ Exporter v0.97b - (c)2007 guruware
# File Created: 04.03.2016 06:58:55

#
# object Plane001
#

v  -0.0500 -0.0900 25.3999
v  0.0500 -0.0900 25.3999
v  0.0500 -0.0700 22.7332
v  -0.0500 -0.0700 22.7332
v  -0.0500 -0.0100 14.7332
v  0.0500 -0.0100 14.7332
v  0.0500 0.0100 12.0666
v  -0.0500 0.0100 12.0666
v  -0.0500 0.0600 4.0666
v  0.0500 0.0600 4.0666
v  0.0500 0.0600 1.3999
v  -0.0500 0.0600 1.3999
v  -0.0500 0.0550 -6.6001
v  0.0500 0.0550 -6.6001
v  0.0500 0.0400 -9.2668
v  -0.0500 0.0400 -9.2668
v  -0.0500 -0.0300 -17.2668
v  0.0500 -0.0300 -17.2668
v  0.0500 -0.0500 -19.9334
v  -0.0500 -0.0500 -19.9334
v  -0.0500 -0.0500 19.9334
v  0.0500 -0.0500 19.9334
v  0.0500 -0.0300 17.2668
v  -0.0500 -0.0300 17.2668
v  -0.0500 0.0400 9.2668
v  0.0500 0.0400 9.2668
v  0.0500 0.0550 6.6001
v  -0.0500 0.0550 6.6001
v  -0.0500 0.0600 -1.3999
v  0.0500 0.0600 -1.3999
v  0.0500 0.0600 -4.0666
v  -0.0500 0.0600 -4.0666
v  -0.0500 0.0100 -12.0666
v  0.0500 0.0100 -12.0666
v  0.0500 -0.0100 -14.7332
v  -0.0500 -0.0100 -14.7332
v  -0.0500 -0.0700 -22.7332
v  0.0500 -0.0700 -22.7332
v  0.0500 -0.0900 -25.3999
v  -0.0500 -0.0900 -25.3999
# 40 vertices

vn 0.0000 1.0000 0.0075
vn 0.0000 1.0000 -0.0000
vn 0.0000 1.0000 -0.0056
vn 0.0000 1.0000 -0.0075
vn 0.0000 1.0000 0.0056
vn 0.0000 1.0000 0.0000
# 6 vertex normals

vt 0.0010 0.0833 0.0000
vt 0.0098 0.0833 0.0000
vt 0.0010 0.2500 0.0000
vt 0.0098 0.2500 0.0000
vt 0.0010 0.4167 0.0000
vt 0.0098 0.4167 0.0000
vt 0.0010 0.5833 0.0000
vt 0.0098 0.5833 0.0000
vt 0.0010 0.7500 0.0000
vt 0.0098 0.7500 0.0000
vt 0.0010 0.1250 0.0000
vt 0.0098 0.1250 0.0000
vt 0.0010 0.2917 0.0000
vt 0.0098 0.2917 0.0000
vt 0.0010 0.4583 0.0000
vt 0.0098 0.4583 0.0000
vt 0.0010 0.6250 0.0000
vt 0.0098 0.6250 0.0000
vt 0.0010 0.7917 0.0000
vt 0.0098 0.7917 0.0000
vt 0.0010 0.2917 0.0000
vt 0.0010 0.2500 0.0000
vt 0.0098 0.2500 0.0000
vt 0.0098 0.2917 0.0000
vt 0.0010 0.4583 0.0000
vt 0.0010 0.4167 0.0000
vt 0.0098 0.4167 0.0000
vt 0.0098 0.4583 0.0000
vt 0.0010 0.6250 0.0000
vt 0.0010 0.5833 0.0000
vt 0.0098 0.5833 0.0000
vt 0.0098 0.6250 0.0000
vt 0.0010 0.7917 0.0000
vt 0.0010 0.7500 0.0000
vt 0.0098 0.7500 0.0000
vt 0.0098 0.7917 0.0000
vt 0.0010 0.9583 0.0000
vt 0.0010 0.9167 0.0000
vt 0.0098 0.9167 0.0000
vt 0.0098 0.9583 0.0000
# 40 texture coords

g Plane001
s 1
f 1/1/1 2/2/1 3/12/1 
f 3/12/1 4/11/1 1/1/1 
f 5/3/1 6/4/1 7/14/1 
f 7/14/1 8/13/1 5/3/1 
f 9/5/2 10/6/2 11/16/2 
f 11/16/2 12/15/2 9/5/2 
f 13/7/3 14/8/3 15/18/3 
f 15/18/3 16/17/3 13/7/3 
f 17/9/4 18/10/4 19/20/4 
f 19/20/4 20/19/4 17/9/4 
f 21/22/1 22/23/1 23/24/1 
f 23/24/1 24/21/1 21/22/1 
f 25/26/5 26/27/5 27/28/5 
f 27/28/5 28/25/5 25/26/5 
f 29/30/6 30/31/6 31/32/6 
f 31/32/6 32/29/6 29/30/6 
f 33/34/4 34/35/4 35/36/4 
f 35/36/4 36/33/4 33/34/4 
f 37/38/4 38/39/4 39/40/4 
f 39/40/4 40/37/4 37/38/4 
# 20 faces

