# 3ds Max Wavefront OBJ Exporter v0.97b - (c)2007 guruware
# File Created: 04.03.2016 18:12:51

#
# object Plane005
#

v  11.0000 -3.1150 0.0000
v  8.0000 0.0500 0.0000
v  8.0000 0.0500 5.3333
v  11.0000 -3.1150 5.3333
v  -11.0000 -3.1150 -0.0000
v  -8.0000 0.0500 -0.0000
v  -8.0000 0.0500 -5.3333
v  -11.0000 -3.1150 -5.3333
v  -6.0000 0.0500 -0.0000
v  -6.0000 0.0500 -5.3333
v  0.8333 -0.0333 5.3333
v  1.0000 -0.0500 0.0000
v  0.0000 -0.0500 0.0000
v  -0.0000 -0.0333 5.3333
v  -4.3333 0.0500 5.3333
v  -4.0000 0.0500 -0.0000
v  -6.0000 0.0500 5.3333
v  6.0000 0.0500 0.0000
v  6.0000 0.0500 5.3333
v  4.0000 0.0500 0.0000
v  4.3333 0.0500 5.3333
v  -1.0000 -0.0500 -0.0000
v  -0.8333 -0.0333 5.3333
v  -3.6667 0.0500 -5.3333
v  -1.1667 -0.0667 -5.3333
v  11.0000 -3.1150 -32.0000
v  8.0000 0.0500 -32.0000
v  8.0000 0.0500 -26.6667
v  11.0000 -3.1150 -26.6667
v  8.0000 0.0500 -21.3333
v  11.0000 -3.1150 -21.3333
v  8.0000 0.0500 -16.0000
v  11.0000 -3.1150 -16.0000
v  8.0000 0.0500 -10.6667
v  11.0000 -3.1150 -10.6667
v  8.0000 0.0500 -5.3333
v  11.0000 -3.1150 -5.3333
v  8.0000 0.0500 32.0000
v  11.0000 -3.1150 32.0000
v  11.0000 -3.1150 26.6667
v  8.0000 0.0500 26.6667
v  11.0000 -3.1150 21.3333
v  8.0000 0.0500 21.3333
v  11.0000 -3.1150 16.0000
v  8.0000 0.0500 16.0000
v  11.0000 -3.1150 10.6667
v  8.0000 0.0500 10.6667
v  -11.0000 -3.1150 32.0000
v  -8.0000 0.0500 32.0000
v  -8.0000 0.0500 26.6667
v  -11.0000 -3.1150 26.6667
v  -8.0000 0.0500 21.3333
v  -11.0000 -3.1150 21.3333
v  -8.0000 0.0500 16.0000
v  -11.0000 -3.1150 16.0000
v  -8.0000 0.0500 10.6667
v  -11.0000 -3.1150 10.6667
v  -8.0000 0.0500 5.3333
v  -11.0000 -3.1150 5.3333
v  -8.0000 0.0500 -32.0000
v  -11.0000 -3.1150 -32.0000
v  -11.0000 -3.1150 -26.6667
v  -8.0000 0.0500 -26.6667
v  -11.0000 -3.1150 -21.3333
v  -8.0000 0.0500 -21.3333
v  -11.0000 -3.1150 -16.0000
v  -8.0000 0.0500 -16.0000
v  -11.0000 -3.1150 -10.6667
v  -8.0000 0.0500 -10.6667
v  -6.0000 0.0500 32.0000
v  -6.0000 0.0500 26.6667
v  -6.0000 0.0500 21.3333
v  -6.0000 0.0500 16.0000
v  -6.0000 0.0500 10.6667
v  -6.0000 0.0500 -32.0000
v  -6.0000 0.0500 -26.6667
v  -6.0000 0.0500 -21.3333
v  -6.0000 0.0500 -16.0000
v  -6.0000 0.0500 -10.6667
v  1.8333 -0.1333 -26.6667
v  2.0000 -0.1500 -32.0000
v  0.0000 -0.1500 -32.0000
v  0.0000 -0.1333 -26.6667
v  1.6667 -0.1167 -21.3333
v  0.0000 -0.1167 -21.3333
v  1.5000 -0.1000 -16.0000
v  0.0000 -0.1000 -16.0000
v  1.3333 -0.0833 -10.6667
v  0.0000 -0.0833 -10.6667
v  1.1667 -0.0667 -5.3333
v  0.0000 -0.0667 -5.3333
v  -0.0000 0.0333 26.6667
v  -0.0000 0.0500 32.0000
v  0.1667 0.0333 26.6667
v  0.3333 0.0167 21.3333
v  -0.0000 0.0167 21.3333
v  0.5000 -0.0000 16.0000
v  -0.0000 -0.0000 16.0000
v  0.6667 -0.0167 10.6667
v  -0.0000 -0.0167 10.6667
v  -2.3333 0.0500 -26.6667
v  -2.0000 0.0500 -32.0000
v  -2.6667 0.0500 -21.3333
v  -3.0000 0.0500 -16.0000
v  -3.3333 0.0500 -10.6667
v  -5.6667 0.0500 26.6667
v  -5.3333 0.0500 21.3333
v  -5.0000 0.0500 16.0000
v  -4.6667 0.0500 10.6667
v  6.0000 0.0500 -32.0000
v  6.0000 0.0500 -26.6667
v  6.0000 0.0500 -21.3333
v  6.0000 0.0500 -16.0000
v  6.0000 0.0500 -10.6667
v  6.0000 0.0500 -5.3333
v  6.0000 0.0500 32.0000
v  6.0000 0.0500 26.6667
v  6.0000 0.0500 21.3333
v  6.0000 0.0500 16.0000
v  6.0000 0.0500 10.6667
v  2.0000 0.0500 -32.0000
v  2.3333 0.0500 -26.6667
v  2.6667 0.0500 -21.3333
v  3.0000 0.0500 -16.0000
v  3.3333 0.0500 -10.6667
v  3.6667 0.0500 -5.3333
v  5.6667 0.0500 26.6667
v  5.3333 0.0500 21.3333
v  5.0000 0.0500 16.0000
v  4.6667 0.0500 10.6667
v  -2.0000 -0.1500 -32.0000
v  -1.8333 -0.1333 -26.6667
v  -1.6667 -0.1167 -21.3333
v  -1.5000 -0.1000 -16.0000
v  -1.3333 -0.0833 -10.6667
v  -0.1667 0.0333 26.6667
v  -0.3333 0.0167 21.3333
v  -0.5000 -0.0000 16.0000
v  -0.6667 -0.0167 10.6667
# 139 vertices

vn 0.7258 0.6879 0.0000
vn 0.3950 0.9187 0.0000
vn -0.7258 0.6879 -0.0000
vn -0.3950 0.9187 -0.0000
vn 0.0000 1.0000 -0.0000
vn 0.0000 1.0000 -0.0031
vn 0.0111 0.9999 -0.0001
vn 0.0158 0.9999 -0.0000
vn -0.0158 0.9999 -0.0000
vn -0.0111 0.9999 -0.0001
vn -0.0351 0.9994 -0.0020
vn -0.0253 0.9997 -0.0022
vn 0.0222 0.9998 0.0001
vn 0.0351 0.9994 -0.0020
vn 0.0489 0.9988 -0.0018
vn 0.1803 0.9836 0.0027
vn 0.7199 0.6926 0.0450
vn 0.0825 0.9966 -0.0030
vn 0.0479 0.9989 0.0005
vn 0.0319 0.9995 0.0002
vn 0.0011 1.0000 -0.0003
vn 0.0029 1.0000 -0.0003
vn 0.0050 1.0000 -0.0003
vn 0.0077 1.0000 -0.0002
vn -0.6998 0.7140 -0.0204
vn -0.1693 0.9856 0.0024
vn -0.0796 0.9968 0.0010
vn -0.0479 0.9989 0.0005
vn -0.0319 0.9995 0.0002
vn -0.0222 0.9998 0.0001
vn -0.0011 1.0000 -0.0003
vn -0.0029 1.0000 -0.0003
vn -0.0050 1.0000 -0.0003
vn -0.0077 1.0000 -0.0002
vn -0.9995 0.0000 -0.0312
vn -0.3547 0.9350 0.0031
vn -0.1702 0.9854 0.0001
vn -0.1034 0.9946 -0.0010
vn -0.0694 0.9976 -0.0015
vn -0.0489 0.9988 -0.0018
vn -0.0000 1.0000 -0.0016
vn -0.0039 1.0000 -0.0024
vn -0.0076 1.0000 -0.0023
vn -0.0122 0.9999 -0.0023
vn -0.0180 0.9998 -0.0022
vn 0.0039 1.0000 -0.0024
vn 0.0076 1.0000 -0.0023
vn 0.0122 0.9999 -0.0023
vn 0.0180 0.9998 -0.0022
vn 0.0253 0.9997 -0.0022
vn 0.9964 0.0596 0.0600
vn 0.3338 0.9426 0.0025
vn 0.1644 0.9864 -0.0082
vn 0.1034 0.9946 -0.0010
vn 0.0694 0.9976 -0.0015
# 55 vertex normals

vt 0.0359 1.0000 0.0000
vt 0.0359 0.0000 0.0000
vt 0.0175 1.0000 0.0000
vt 0.0175 0.0000 0.0000
vt 0.0175 1.0000 0.0000
vt 0.0175 0.0000 0.0000
vt 0.0359 0.0000 0.0000
vt 0.0359 1.0000 0.0000
vt 0.6232 1.0000 0.0000
vt 0.6860 0.0000 0.0000
vt 0.3121 0.0000 0.0000
vt 0.3739 1.0000 0.0000
vt 0.4357 0.0000 0.0000
vt 0.5604 0.0000 0.0000
vt 0.4357 1.0000 0.0000
vt 0.4357 0.0000 0.0000
vt 0.4975 0.0000 0.0000
vt 0.5604 0.0000 0.0000
vt 0.5289 1.0000 0.0000
vt 0.7489 0.0000 0.0000
vt 0.7489 1.0000 0.0000
vt 0.2493 1.0000 0.0000
vt 0.2493 0.0000 0.0000
vt 0.6860 1.0000 0.0000
vt 0.6860 0.0000 0.0000
vt 0.3121 0.0000 0.0000
vt 0.3120 1.0000 0.0000
vt 0.2493 0.9167 0.0000
vt 0.2493 0.8333 0.0000
vt 0.2493 0.7500 0.0000
vt 0.2493 0.6667 0.0000
vt 0.2493 0.5833 0.0000
vt 0.2493 0.5000 0.0000
vt 0.2493 0.4167 0.0000
vt 0.2493 0.3333 0.0000
vt 0.2493 0.2500 0.0000
vt 0.2493 0.1667 0.0000
vt 0.2493 0.0833 0.0000
vt 0.0175 0.9167 0.0000
vt 0.0175 0.8333 0.0000
vt 0.0175 0.7500 0.0000
vt 0.0175 0.6667 0.0000
vt 0.0175 0.5833 0.0000
vt 0.0175 0.5000 0.0000
vt 0.0175 0.4167 0.0000
vt 0.0175 0.3333 0.0000
vt 0.0175 0.2500 0.0000
vt 0.0175 0.1667 0.0000
vt 0.0175 0.0833 0.0000
vt 0.7489 0.0833 0.0000
vt 0.7489 0.1667 0.0000
vt 0.7489 0.2500 0.0000
vt 0.7489 0.3333 0.0000
vt 0.7489 0.4167 0.0000
vt 0.7489 0.5000 0.0000
vt 0.7489 0.5833 0.0000
vt 0.7489 0.6667 0.0000
vt 0.7489 0.7500 0.0000
vt 0.7489 0.8333 0.0000
vt 0.7489 0.9167 0.0000
vt 0.0359 0.0833 0.0000
vt 0.0359 0.1667 0.0000
vt 0.0359 0.2500 0.0000
vt 0.0359 0.3333 0.0000
vt 0.0359 0.4167 0.0000
vt 0.0359 0.5000 0.0000
vt 0.0359 0.5833 0.0000
vt 0.0359 0.6667 0.0000
vt 0.0359 0.7500 0.0000
vt 0.0359 0.8333 0.0000
vt 0.0359 0.9167 0.0000
vt 0.0175 0.9167 0.0000
vt 0.0175 0.8333 0.0000
vt 0.0175 0.7500 0.0000
vt 0.0175 0.6667 0.0000
vt 0.0175 0.5833 0.0000
vt 0.0175 0.5000 0.0000
vt 0.0175 0.4167 0.0000
vt 0.0175 0.3333 0.0000
vt 0.0175 0.2500 0.0000
vt 0.0175 0.1667 0.0000
vt 0.0175 0.0833 0.0000
vt 0.0359 0.0833 0.0000
vt 0.0359 0.1667 0.0000
vt 0.0359 0.2500 0.0000
vt 0.0359 0.3333 0.0000
vt 0.0359 0.4167 0.0000
vt 0.0359 0.5000 0.0000
vt 0.0359 0.5833 0.0000
vt 0.0359 0.6667 0.0000
vt 0.0359 0.7500 0.0000
vt 0.0359 0.8333 0.0000
vt 0.0359 0.9167 0.0000
vt 0.5263 0.9167 0.0000
vt 0.5237 0.8333 0.0000
vt 0.5211 0.7500 0.0000
vt 0.5185 0.6667 0.0000
vt 0.5159 0.5833 0.0000
vt 0.5132 0.5000 0.0000
vt 0.5106 0.4167 0.0000
vt 0.5080 0.3333 0.0000
vt 0.5054 0.2500 0.0000
vt 0.5028 0.1667 0.0000
vt 0.5001 0.0833 0.0000
vt 0.4409 0.9167 0.0000
vt 0.4460 0.8333 0.0000
vt 0.4512 0.7500 0.0000
vt 0.4563 0.6667 0.0000
vt 0.4615 0.5833 0.0000
vt 0.4666 0.5000 0.0000
vt 0.4718 0.4167 0.0000
vt 0.4769 0.3333 0.0000
vt 0.4821 0.2500 0.0000
vt 0.4872 0.1667 0.0000
vt 0.4924 0.0833 0.0000
vt 0.6860 0.9167 0.0000
vt 0.6860 0.8333 0.0000
vt 0.6860 0.7500 0.0000
vt 0.6860 0.6667 0.0000
vt 0.6860 0.5833 0.0000
vt 0.6860 0.5000 0.0000
vt 0.6860 0.4167 0.0000
vt 0.6860 0.3333 0.0000
vt 0.6860 0.2500 0.0000
vt 0.6860 0.1667 0.0000
vt 0.6860 0.0833 0.0000
vt 0.6284 0.9167 0.0000
vt 0.6337 0.8333 0.0000
vt 0.6389 0.7500 0.0000
vt 0.6442 0.6667 0.0000
vt 0.6494 0.5833 0.0000
vt 0.6546 0.5000 0.0000
vt 0.6599 0.4167 0.0000
vt 0.6651 0.3333 0.0000
vt 0.6703 0.2500 0.0000
vt 0.6756 0.1667 0.0000
vt 0.6808 0.0833 0.0000
vt 0.3688 0.9167 0.0000
vt 0.3636 0.8333 0.0000
vt 0.3585 0.7500 0.0000
vt 0.3533 0.6667 0.0000
vt 0.3482 0.5833 0.0000
vt 0.3430 0.5000 0.0000
vt 0.3379 0.4167 0.0000
vt 0.3327 0.3333 0.0000
vt 0.3276 0.2500 0.0000
vt 0.3224 0.1667 0.0000
vt 0.3173 0.0833 0.0000
vt 0.3120 0.9167 0.0000
vt 0.3120 0.8333 0.0000
vt 0.3120 0.7500 0.0000
vt 0.3120 0.6667 0.0000
vt 0.3121 0.5833 0.0000
vt 0.3121 0.5000 0.0000
vt 0.3121 0.4167 0.0000
vt 0.3121 0.3333 0.0000
vt 0.3121 0.2500 0.0000
vt 0.3121 0.1667 0.0000
vt 0.3121 0.0833 0.0000
vt 0.3791 0.9167 0.0000
vt 0.3842 0.8333 0.0000
vt 0.3894 0.7500 0.0000
vt 0.3945 0.6667 0.0000
vt 0.3997 0.5833 0.0000
vt 0.4048 0.5000 0.0000
vt 0.4100 0.4167 0.0000
vt 0.4151 0.3333 0.0000
vt 0.4203 0.2500 0.0000
vt 0.4254 0.1667 0.0000
vt 0.4306 0.0833 0.0000
vt 0.5656 0.0833 0.0000
vt 0.5708 0.1667 0.0000
vt 0.5761 0.2500 0.0000
vt 0.5813 0.3333 0.0000
vt 0.5866 0.4167 0.0000
vt 0.5918 0.5000 0.0000
vt 0.5970 0.5833 0.0000
vt 0.6023 0.6667 0.0000
vt 0.6075 0.7500 0.0000
vt 0.6127 0.8333 0.0000
vt 0.6180 0.9167 0.0000
vt 0.4357 0.9167 0.0000
vt 0.4357 0.8333 0.0000
vt 0.4357 0.7500 0.0000
vt 0.4357 0.6667 0.0000
vt 0.4357 0.5833 0.0000
vt 0.4357 0.5000 0.0000
vt 0.4357 0.4167 0.0000
vt 0.4357 0.3333 0.0000
vt 0.4357 0.2500 0.0000
vt 0.4357 0.1667 0.0000
vt 0.4357 0.0833 0.0000
vt 0.5577 0.0833 0.0000
vt 0.5551 0.1667 0.0000
vt 0.5525 0.2500 0.0000
vt 0.5499 0.3333 0.0000
vt 0.5473 0.4167 0.0000
vt 0.5447 0.5000 0.0000
vt 0.5420 0.5833 0.0000
vt 0.5394 0.6667 0.0000
vt 0.5368 0.7500 0.0000
vt 0.5342 0.8333 0.0000
vt 0.5316 0.9167 0.0000
# 203 texture coords

g Plane005
s 1
f 1/77/1 2/44/2 3/43/2 
f 3/43/2 4/76/1 1/77/1 
f 5/88/3 6/66/4 7/65/4 
f 7/65/4 8/87/3 5/88/3 
f 6/55/4 9/121/5 10/122/5 
f 10/122/5 7/54/4 6/55/4 
s 2
f 11/186/6 12/187/6 13/110/6 
f 13/110/6 14/109/6 11/186/6 
s 1
f 15/177/7 16/176/8 9/132/5 
f 9/132/5 17/131/5 15/177/7 
f 2/33/2 18/154/5 19/153/5 
f 19/153/5 3/32/2 2/33/2 
f 18/143/5 20/165/9 21/164/10 
f 21/164/10 19/142/5 18/143/5 
s 2
f 13/99/6 22/198/6 23/199/6 
f 23/199/6 14/98/6 13/99/6 
s 1
f 20/165/9 12/187/11 11/186/12 
f 11/186/12 21/164/10 20/165/9 
f 24/175/13 16/176/8 22/198/14 
f 22/198/14 25/197/15 24/175/13 
f 26/6/1 27/4/2 28/49/2 
f 28/49/2 29/82/1 26/6/1 
f 29/82/1 28/49/2 30/48/2 
f 30/48/2 31/81/1 29/82/1 
f 31/81/1 30/48/2 32/47/2 
f 32/47/2 33/80/1 31/81/1 
f 33/80/1 32/47/2 34/46/2 
f 34/46/2 35/79/1 33/80/1 
f 35/79/1 34/46/2 36/45/2 
f 36/45/2 37/78/1 35/79/1 
f 37/78/1 36/45/2 2/44/2 
f 2/44/2 1/77/1 37/78/1 
f 38/3/2 39/5/1 40/72/1 
f 40/72/1 41/39/2 38/3/2 
f 41/39/2 40/72/1 42/73/1 
f 42/73/1 43/40/2 41/39/2 
f 43/40/2 42/73/1 44/74/1 
f 44/74/1 45/41/2 43/40/2 
f 45/41/2 44/74/1 46/75/1 
f 46/75/1 47/42/2 45/41/2 
f 47/42/2 46/75/1 4/76/1 
f 4/76/1 3/43/2 47/42/2 
f 48/8/3 49/1/4 50/71/4 
f 50/71/4 51/93/3 48/8/3 
f 51/93/3 50/71/4 52/70/4 
f 52/70/4 53/92/3 51/93/3 
f 53/92/3 52/70/4 54/69/4 
f 54/69/4 55/91/3 53/92/3 
f 55/91/3 54/69/4 56/68/4 
f 56/68/4 57/90/3 55/91/3 
f 57/90/3 56/68/4 58/67/4 
f 58/67/4 59/89/3 57/90/3 
f 59/89/3 58/67/4 6/66/4 
f 6/66/4 5/88/3 59/89/3 
f 60/2/4 61/7/3 62/83/3 
f 62/83/3 63/61/4 60/2/4 
f 63/61/4 62/83/3 64/84/3 
f 64/84/3 65/62/4 63/61/4 
f 65/62/4 64/84/3 66/85/3 
f 66/85/3 67/63/4 65/62/4 
f 67/63/4 66/85/3 68/86/3 
f 68/86/3 69/64/4 67/63/4 
f 69/64/4 68/86/3 8/87/3 
f 8/87/3 7/65/4 69/64/4 
f 49/21/4 70/24/5 71/116/5 
f 71/116/5 50/60/4 49/21/4 
f 50/60/4 71/116/5 72/117/5 
f 72/117/5 52/59/4 50/60/4 
f 52/59/4 72/117/5 73/118/5 
f 73/118/5 54/58/4 52/59/4 
f 54/58/4 73/118/5 74/119/5 
f 74/119/5 56/57/4 54/58/4 
f 56/57/4 74/119/5 17/120/5 
f 17/120/5 58/56/4 56/57/4 
f 58/56/4 17/120/5 9/121/5 
f 9/121/5 6/55/4 58/56/4 
f 75/25/5 60/20/4 63/50/4 
f 63/50/4 76/126/5 75/25/5 
f 76/126/5 63/50/4 65/51/4 
f 65/51/4 77/125/5 76/126/5 
f 77/125/5 65/51/4 67/52/4 
f 67/52/4 78/124/5 77/125/5 
f 78/124/5 67/52/4 69/53/4 
f 69/53/4 79/123/5 78/124/5 
f 79/123/5 69/53/4 7/54/4 
f 7/54/4 10/122/5 79/123/5 
s 2
f 80/192/6 81/16/6 82/17/6 
f 82/17/6 83/115/6 80/192/6 
f 84/191/6 80/192/6 83/115/6 
f 83/115/6 85/114/6 84/191/6 
f 86/190/6 84/191/6 85/114/6 
f 85/114/6 87/113/6 86/190/6 
f 88/189/6 86/190/6 87/113/6 
f 87/113/6 89/112/6 88/189/6 
f 90/188/6 88/189/6 89/112/6 
f 89/112/6 91/111/6 90/188/6 
f 12/187/6 90/188/6 91/111/6 
f 91/111/6 13/110/6 12/187/6 
f 92/105/6 93/15/6 94/182/6 
f 92/105/6 94/182/6 95/183/6 
f 95/183/6 96/106/6 92/105/6 
f 96/106/6 95/183/6 97/184/6 
f 97/184/6 98/107/6 96/106/6 
f 98/107/6 97/184/6 99/185/6 
f 99/185/6 100/108/6 98/107/6 
f 100/108/6 99/185/6 11/186/6 
f 11/186/6 14/109/6 100/108/6 
s 1
f 101/171/16 102/14/17 75/10/5 
f 75/10/5 76/137/5 101/171/16 
f 103/172/18 101/171/16 76/137/5 
f 76/137/5 77/136/5 103/172/18 
f 104/173/19 103/172/18 77/136/5 
f 77/136/5 78/135/5 104/173/19 
f 105/174/20 104/173/19 78/135/5 
f 78/135/5 79/134/5 105/174/20 
f 24/175/13 105/174/20 79/134/5 
f 79/134/5 10/133/5 24/175/13 
f 16/176/8 24/175/13 10/133/5 
f 10/133/5 9/132/5 16/176/8 
f 71/127/5 70/9/5 106/181/21 
f 72/128/5 71/127/5 106/181/21 
f 106/181/21 107/180/22 72/128/5 
f 73/129/5 72/128/5 107/180/22 
f 107/180/22 108/179/23 73/129/5 
f 74/130/5 73/129/5 108/179/23 
f 108/179/23 109/178/24 74/130/5 
f 17/131/5 74/130/5 109/178/24 
f 109/178/24 15/177/7 17/131/5 
f 27/23/2 110/26/5 111/159/5 
f 111/159/5 28/38/2 27/23/2 
f 28/38/2 111/159/5 112/158/5 
f 112/158/5 30/37/2 28/38/2 
f 30/37/2 112/158/5 113/157/5 
f 113/157/5 32/36/2 30/37/2 
f 32/36/2 113/157/5 114/156/5 
f 114/156/5 34/35/2 32/36/2 
f 34/35/2 114/156/5 115/155/5 
f 115/155/5 36/34/2 34/35/2 
f 36/34/2 115/155/5 18/154/5 
f 18/154/5 2/33/2 36/34/2 
f 116/27/5 38/22/2 41/28/2 
f 41/28/2 117/149/5 116/27/5 
f 117/149/5 41/28/2 43/29/2 
f 43/29/2 118/150/5 117/149/5 
f 118/150/5 43/29/2 45/30/2 
f 45/30/2 119/151/5 118/150/5 
f 119/151/5 45/30/2 47/31/2 
f 47/31/2 120/152/5 119/151/5 
f 120/152/5 47/31/2 3/32/2 
f 3/32/2 19/153/5 120/152/5 
f 110/11/5 121/13/25 122/170/26 
f 122/170/26 111/148/5 110/11/5 
f 111/148/5 122/170/26 123/169/27 
f 123/169/27 112/147/5 111/148/5 
f 112/147/5 123/169/27 124/168/28 
f 124/168/28 113/146/5 112/147/5 
f 113/146/5 124/168/28 125/167/29 
f 125/167/29 114/145/5 113/146/5 
f 114/145/5 125/167/29 126/166/30 
f 126/166/30 115/144/5 114/145/5 
f 115/144/5 126/166/30 20/165/9 
f 20/165/9 18/143/5 115/144/5 
f 127/160/31 116/12/5 117/138/5 
f 127/160/31 117/138/5 118/139/5 
f 118/139/5 128/161/32 127/160/31 
f 128/161/32 118/139/5 119/140/5 
f 119/140/5 129/162/33 128/161/32 
f 129/162/33 119/140/5 120/141/5 
f 120/141/5 130/163/34 129/162/33 
f 130/163/34 120/141/5 19/142/5 
f 19/142/5 21/164/10 130/163/34 
s 2
f 82/17/6 131/18/6 132/193/6 
f 132/193/6 83/104/6 82/17/6 
f 83/104/6 132/193/6 133/194/6 
f 133/194/6 85/103/6 83/104/6 
f 85/103/6 133/194/6 134/195/6 
f 134/195/6 87/102/6 85/103/6 
f 87/102/6 134/195/6 135/196/6 
f 135/196/6 89/101/6 87/102/6 
f 89/101/6 135/196/6 25/197/6 
f 25/197/6 91/100/6 89/101/6 
f 91/100/6 25/197/6 22/198/6 
f 22/198/6 13/99/6 91/100/6 
f 136/203/6 93/19/6 92/94/6 
f 136/203/6 92/94/6 96/95/6 
f 96/95/6 137/202/6 136/203/6 
f 137/202/6 96/95/6 98/96/6 
f 98/96/6 138/201/6 137/202/6 
f 138/201/6 98/96/6 100/97/6 
f 100/97/6 139/200/6 138/201/6 
f 139/200/6 100/97/6 14/98/6 
f 14/98/6 23/199/6 139/200/6 
s 1
f 121/13/25 81/16/35 80/192/36 
f 80/192/36 122/170/26 121/13/25 
f 122/170/26 80/192/36 84/191/37 
f 84/191/37 123/169/27 122/170/26 
f 123/169/27 84/191/37 86/190/38 
f 86/190/38 124/168/28 123/169/27 
f 124/168/28 86/190/38 88/189/39 
f 88/189/39 125/167/29 124/168/28 
f 125/167/29 88/189/39 90/188/40 
f 90/188/40 126/166/30 125/167/29 
f 126/166/30 90/188/40 12/187/11 
f 12/187/11 20/165/9 126/166/30 
f 93/15/41 116/12/5 127/160/31 
f 127/160/31 94/182/42 93/15/41 
f 94/182/42 127/160/31 128/161/32 
f 128/161/32 95/183/43 94/182/42 
f 95/183/43 128/161/32 129/162/33 
f 129/162/33 97/184/44 95/183/43 
f 97/184/44 129/162/33 130/163/34 
f 130/163/34 99/185/45 97/184/44 
f 99/185/45 130/163/34 21/164/10 
f 21/164/10 11/186/12 99/185/45 
f 106/181/21 70/9/5 93/19/41 
f 93/19/41 136/203/46 106/181/21 
f 107/180/22 106/181/21 136/203/46 
f 136/203/46 137/202/47 107/180/22 
f 108/179/23 107/180/22 137/202/47 
f 137/202/47 138/201/48 108/179/23 
f 109/178/24 108/179/23 138/201/48 
f 138/201/48 139/200/49 109/178/24 
f 15/177/7 109/178/24 139/200/49 
f 139/200/49 23/199/50 15/177/7 
f 16/176/8 15/177/7 23/199/50 
f 23/199/50 22/198/14 16/176/8 
f 131/18/51 102/14/17 101/171/16 
f 101/171/16 132/193/52 131/18/51 
f 132/193/52 101/171/16 103/172/18 
f 103/172/18 133/194/53 132/193/52 
f 134/195/54 133/194/53 103/172/18 
f 103/172/18 104/173/19 134/195/54 
f 135/196/55 134/195/54 104/173/19 
f 104/173/19 105/174/20 135/196/55 
f 25/197/15 135/196/55 105/174/20 
f 105/174/20 24/175/13 25/197/15 
# 236 faces

