# 3ds Max Wavefront OBJ Exporter v0.97b - (c)2007 guruware
# File Created: 17.11.2015 13:36:49

#
# object Plane001
#

v  -11.00000 -0.30000 -0.00000
v  -6.00000 -0.30000 -0.00000
v  -6.00000 -0.30000 -32.00000
v  -11.00000 -0.30000 -32.00000
v  6.00000 -0.30000 -0.00000
v  11.00000 -0.30000 -0.00000
v  11.00000 -0.30000 -32.00000
v  6.00000 -0.30000 -32.00000
v  0.00000 -0.30000 32.00000
v  0.00000 -0.30000 -0.00000
v  -6.00000 -0.30000 32.00000
v  6.00000 -0.30000 32.00000
v  -11.00000 -0.30000 32.00000
v  11.00000 -0.30000 32.00000
v  0.00000 -0.30000 -32.00000
# 15 vertices

vn 0.00000 1.00000 -0.00000
# 1 vertex normals

vt 0.00218 0.50000 0.00000
vt 0.20582 0.50000 0.00000
vt 0.20582 1.00000 0.00000
vt 0.00218 1.00000 0.00000
vt 0.79418 0.50000 0.00000
vt 0.99782 0.50000 0.00000
vt 0.99782 1.00000 0.00000
vt 0.79418 1.00000 0.00000
vt 0.50000 0.00000 0.00000
vt 0.50000 0.50000 0.00000
vt 0.20582 0.00000 0.00000
vt 0.79418 0.00000 0.00000
vt 0.00218 0.00000 0.00000
vt 0.99782 0.00000 0.00000
vt 0.50000 1.00000 0.00000
# 15 texture coords

g Plane001
f 1/1/1 2/2/1 3/3/1 
f 3/3/1 4/4/1 1/1/1 
f 5/5/1 6/6/1 7/7/1 
f 7/7/1 8/8/1 5/5/1 
f 9/9/1 10/10/1 2/2/1 
f 2/2/1 11/11/1 9/9/1 
f 12/12/1 5/5/1 10/10/1 
f 10/10/1 9/9/1 12/12/1 
f 13/13/1 11/11/1 2/2/1 
f 2/2/1 1/1/1 13/13/1 
f 12/12/1 14/14/1 6/6/1 
f 6/6/1 5/5/1 12/12/1 
f 15/15/1 3/3/1 2/2/1 
f 2/2/1 10/10/1 15/15/1 
f 8/8/1 15/15/1 10/10/1 
f 10/10/1 5/5/1 8/8/1 
# 16 faces

