# 3ds Max Wavefront OBJ Exporter v0.97b - (c)2007 guruware
# File Created: 17.11.2015 13:41:35

#
# object Plane005
#

v  -9.00000 -0.30000 -0.00000
v  -6.00000 -0.30000 -0.00000
v  -6.00000 -0.30000 -32.00000
v  -9.00000 -0.30000 -32.00000
v  -9.00000 6.50000 -0.00000
v  -9.00000 7.00000 32.00000
v  -9.00000 -0.30000 32.00000
v  9.00000 -0.30000 -0.00000
v  9.00000 6.50000 -0.00000
v  9.00000 6.00000 -32.00000
v  9.00000 -0.30000 -32.00000
v  0.00000 6.50000 -0.00000
v  0.00000 6.00000 -32.00000
v  -11.00000 7.50000 32.00000
v  -11.00000 7.50000 -0.00000
v  -11.00000 -0.50000 -0.00000
v  -11.00000 -0.50000 32.00000
v  11.00000 7.50000 -0.00000
v  11.00000 -0.50000 -0.00000
v  11.00000 -0.50000 -32.00000
v  11.00000 7.50000 -32.00000
v  0.00000 7.50000 -0.00000
v  0.00000 7.50000 32.00000
v  11.00000 7.50000 32.00000
v  9.00000 -0.30000 32.00000
v  6.00000 -0.30000 -0.00000
v  6.00000 -0.30000 32.00000
v  0.00000 -0.30000 32.00000
v  0.00000 -0.30000 -0.00000
v  -6.00000 -0.30000 32.00000
v  0.00000 7.00000 32.00000
v  -11.00000 7.50000 -32.00000
v  0.00000 7.50000 -32.00000
v  -9.00000 6.00000 -32.00000
v  9.00000 7.00000 32.00000
v  -11.00000 -0.50000 -32.00000
v  11.00000 -0.50000 32.00000
v  6.00000 -0.30000 -32.00000
v  0.00000 -0.30000 -32.00000
# 39 vertices

vn 0.00000 1.00000 -0.00000
vn 1.00000 0.00000 -0.00000
vn -1.00000 0.00000 -0.00000
vn 0.00000 -0.99988 0.01562
vn 0.00000 1.00000 0.00000
# 5 vertex normals

vt 0.00129 0.50000 0.00000
vt 0.08552 0.50007 0.00000
vt 0.08552 1.00007 0.00000
vt 0.00129 1.00000 0.00000
vt 0.41201 0.50000 0.00000
vt 0.34058 0.50000 0.00000
vt 0.34058 1.00000 0.00000
vt 0.41201 1.00000 0.00000
vt 0.34058 -0.00000 0.00000
vt 0.41201 -0.00000 0.00000
vt 0.64402 0.50000 0.00000
vt 0.56603 0.50000 0.00000
vt 0.56603 1.00000 0.00000
vt 0.64402 1.00000 0.00000
vt 0.94660 0.00000 0.00000
vt 0.94660 0.50000 0.00000
vt 0.99060 0.50000 0.00000
vt 0.99060 1.00000 0.00000
vt 0.96860 0.50000 0.00000
vt 0.96860 0.00000 0.00000
vt 0.99060 0.00000 0.00000
vt 0.41479 0.00025 0.00000
vt 0.41479 0.50025 0.00000
vt 0.32913 0.50018 0.00000
vt 0.32913 0.00018 0.00000
vt 0.20804 0.00013 0.00000
vt 0.20804 0.50013 0.00000
vt 0.11407 0.50007 0.00000
vt 0.11407 0.00007 0.00000
vt 0.30202 0.00018 0.00000
vt 0.30202 0.50018 0.00000
vt 0.48805 0.00000 0.00000
vt 0.48805 0.50000 0.00000
vt 0.56603 0.00000 0.00000
vt 0.94660 1.00000 0.00000
vt 0.96860 1.00000 0.00000
vt 0.00129 0.00000 0.00000
vt 0.08552 0.00007 0.00000
vt 0.64402 0.00000 0.00000
vt 0.41479 1.00025 0.00000
vt 0.32913 1.00018 0.00000
vt 0.20804 1.00013 0.00000
vt 0.11407 1.00007 0.00000
vt 0.30202 1.00018 0.00000
vt 0.48805 1.00000 0.00000
# 45 texture coords

g Plane005
f 1/1/1 2/2/1 3/3/1 
f 3/3/1 4/4/1 1/1/1 
f 1/5/2 5/6/2 6/7/2 
f 6/7/2 7/8/2 1/5/2 
f 8/5/3 9/6/3 10/9/3 
f 10/9/3 11/10/3 8/5/3 
f 9/11/4 12/12/4 13/13/4 
f 13/13/4 10/14/4 9/11/4 
f 14/15/3 15/16/3 16/16/3 
f 16/16/3 17/15/3 14/15/3 
f 18/17/2 19/17/2 20/18/2 
f 20/18/2 21/18/2 18/17/2 
f 18/17/1 22/19/1 23/20/1 
f 23/20/1 24/21/1 18/17/1 
f 25/22/1 8/23/1 26/24/1 
f 26/24/1 27/25/1 25/22/1 
f 28/26/1 29/27/1 2/28/1 
f 2/28/1 30/29/1 28/26/1 
f 27/30/1 26/31/1 29/27/1 
f 29/27/1 28/26/1 27/30/1 
f 6/32/4 5/33/4 12/12/4 
f 12/12/4 31/34/4 6/32/4 
f 32/35/1 15/16/1 22/19/1 
f 22/19/1 33/36/1 32/35/1 
f 7/37/1 30/38/1 2/2/1 
f 2/2/1 1/1/1 7/37/1 
f 4/10/2 34/9/2 5/6/2 
f 5/6/2 1/5/2 4/10/2 
f 25/8/3 35/7/3 9/6/3 
f 9/6/3 8/5/3 25/8/3 
f 35/39/4 31/34/4 12/12/4 
f 12/12/4 9/11/4 35/39/4 
f 32/35/3 36/35/3 16/16/3 
f 16/16/3 15/16/3 32/35/3 
f 24/21/2 37/21/2 19/17/2 
f 19/17/2 18/17/2 24/21/2 
f 21/18/5 33/36/5 22/19/5 
f 22/19/1 18/17/1 21/18/1 
f 11/40/1 38/41/1 26/24/1 
f 26/24/1 8/23/1 11/40/1 
f 39/42/1 3/43/1 2/28/1 
f 2/28/1 29/27/1 39/42/1 
f 38/44/1 39/42/1 29/27/1 
f 29/27/1 26/31/1 38/44/1 
f 34/45/4 13/13/4 12/12/4 
f 12/12/4 5/33/4 34/45/4 
f 14/15/1 23/20/1 22/19/1 
f 22/19/1 15/16/1 14/15/1 
# 48 faces

