# 3ds Max Wavefront OBJ Exporter v0.97b - (c)2007 guruware
# File Created: 11.10.2015 00:47:25

#
# object Plane005
#

v  8.00000 -0.15000 -0.00000
v  6.00000 -0.15000 -0.00000
v  6.00000 -0.22500 16.00000
v  8.00000 -0.22500 16.00000
v  -6.00000 -0.15000 -0.00000
v  -0.00000 -0.15000 -0.00000
v  -0.00000 -0.07500 -16.00000
v  -6.00000 -0.07500 -16.00000
v  6.00000 -0.07500 -16.00000
v  -8.00000 -0.15000 -0.00000
v  -8.00000 -0.07500 -16.00000
v  8.00000 0.00000 -32.00000
v  6.00000 -0.00000 -32.00000
v  8.00000 -0.07500 -16.00000
v  6.00000 -0.30000 32.00000
v  8.00000 -0.30000 32.00000
v  -6.00000 -0.30000 32.00000
v  0.00000 -0.30000 32.00000
v  -0.00000 -0.22500 16.00000
v  -6.00000 -0.22500 16.00000
v  -0.00000 -0.00000 -32.00000
v  -6.00000 -0.00000 -32.00000
v  -8.00000 -0.30000 32.00000
v  -8.00000 -0.22500 16.00000
v  -8.00000 0.00000 -32.00000
# 25 vertices

vn -0.00000 0.99999 0.00469
vn 0.00000 0.99999 0.00469
# 2 vertex normals

vt 0.90000 0.50000 0.00000
vt 0.80000 0.50000 0.00000
vt 0.80000 0.25000 0.00000
vt 0.90000 0.25000 0.00000
vt 0.20000 0.50000 0.00000
vt 0.50000 0.50000 0.00000
vt 0.50000 0.75000 0.00000
vt 0.20000 0.75000 0.00000
vt 0.80000 0.75000 0.00000
vt 0.10000 0.50000 0.00000
vt 0.10000 0.75000 0.00000
vt 0.90000 1.00000 0.00000
vt 0.80000 1.00000 0.00000
vt 0.90000 0.75000 0.00000
vt 0.80000 0.00000 0.00000
vt 0.90000 0.00000 0.00000
vt 0.20000 0.00000 0.00000
vt 0.50000 0.00000 0.00000
vt 0.50000 0.25000 0.00000
vt 0.20000 0.25000 0.00000
vt 0.50000 1.00000 0.00000
vt 0.20000 1.00000 0.00000
vt 0.10000 0.00000 0.00000
vt 0.10000 0.25000 0.00000
vt 0.10000 1.00000 0.00000
# 25 texture coords

g Plane005
f 1/1/1 2/2/1 3/3/1 
f 3/3/1 4/4/1 1/1/1 
f 5/5/2 6/6/1 7/7/1 
f 7/7/1 8/8/2 5/5/2 
f 6/6/1 2/2/1 9/9/1 
f 9/9/1 7/7/1 6/6/1 
f 10/10/2 5/5/2 8/8/2 
f 8/8/2 11/11/2 10/10/2 
f 12/12/1 13/13/1 9/9/1 
f 9/9/1 14/14/1 12/12/1 
f 14/14/1 9/9/1 2/2/1 
f 2/2/1 1/1/1 14/14/1 
f 15/15/2 16/16/2 4/4/1 
f 4/4/1 3/3/1 15/15/2 
f 17/17/1 18/18/1 19/19/1 
f 19/19/1 20/20/2 17/17/1 
f 20/20/2 19/19/1 6/6/1 
f 6/6/1 5/5/2 20/20/2 
f 21/21/1 22/22/2 8/8/2 
f 8/8/2 7/7/1 21/21/1 
f 18/18/1 15/15/2 3/3/1 
f 3/3/1 19/19/1 18/18/1 
f 19/19/1 3/3/1 2/2/1 
f 2/2/1 6/6/1 19/19/1 
f 13/13/1 21/21/1 7/7/1 
f 7/7/1 9/9/1 13/13/1 
f 23/23/1 17/17/1 20/20/2 
f 20/20/2 24/24/2 23/23/1 
f 24/24/2 20/20/2 5/5/2 
f 5/5/2 10/10/2 24/24/2 
f 22/22/2 25/25/2 11/11/2 
f 11/11/2 8/8/2 22/22/2 
# 32 faces

