# 3ds Max Wavefront OBJ Exporter v0.97b - (c)2007 guruware
# File Created: 09.10.2015 20:38:27

#
# object Plane005
#

v  -7.00000 0.00000 -0.00000
v  7.00000 0.00000 -0.00000
v  7.00000 0.00000 -5.33333
v  -7.00000 0.00000 -5.33333
v  -7.00000 7.00000 -0.00000
v  -7.00000 7.00000 5.33333
v  -7.00000 0.00000 5.33333
v  7.00000 7.00000 -0.00000
v  7.00000 7.00000 -5.33333
v  -7.00000 7.00000 -5.33333
v  -8.00000 7.50000 -0.00000
v  -8.00000 -0.50000 -0.00000
v  -8.00000 -0.50000 5.33333
v  -8.00000 7.50000 5.33333
v  8.00000 7.50000 -0.00000
v  8.00000 -0.50000 -0.00000
v  8.00000 -0.50000 -5.33333
v  8.00000 7.50000 -5.33333
v  8.00000 7.50000 5.33333
v  -7.00000 0.00000 32.00000
v  7.00000 0.00000 32.00000
v  7.00000 0.00000 26.66667
v  -7.00000 0.00000 26.66667
v  7.00000 0.00000 21.33333
v  -7.00000 0.00000 21.33333
v  7.00000 0.00000 16.00000
v  -7.00000 0.00000 16.00000
v  7.00000 0.00000 10.66667
v  -7.00000 0.00000 10.66667
v  7.00000 0.00000 5.33333
v  7.00000 0.00000 -32.00000
v  -7.00000 0.00000 -32.00000
v  -7.00000 0.00000 -26.66667
v  7.00000 0.00000 -26.66667
v  -7.00000 0.00000 -21.33333
v  7.00000 0.00000 -21.33333
v  -7.00000 0.00000 -16.00000
v  7.00000 0.00000 -16.00000
v  -7.00000 0.00000 -10.66667
v  7.00000 0.00000 -10.66667
v  -7.00000 7.00000 -32.00000
v  -7.00000 7.00000 -26.66667
v  -7.00000 7.00000 -21.33333
v  -7.00000 7.00000 -16.00000
v  -7.00000 7.00000 -10.66667
v  -7.00000 7.00000 32.00000
v  -7.00000 7.00000 26.66667
v  -7.00000 7.00000 21.33333
v  -7.00000 7.00000 16.00000
v  -7.00000 7.00000 10.66667
v  7.00000 7.00000 32.00000
v  7.00000 7.00000 26.66667
v  7.00000 7.00000 21.33333
v  7.00000 7.00000 16.00000
v  7.00000 7.00000 10.66667
v  7.00000 7.00000 5.33333
v  7.00000 7.00000 -32.00000
v  7.00000 7.00000 -26.66667
v  7.00000 7.00000 -21.33333
v  7.00000 7.00000 -16.00000
v  7.00000 7.00000 -10.66667
v  -8.00000 7.50000 -32.00000
v  -8.00000 -0.50000 -32.00000
v  -8.00000 -0.50000 -26.66667
v  -8.00000 7.50000 -26.66667
v  -8.00000 -0.50000 -21.33333
v  -8.00000 7.50000 -21.33333
v  -8.00000 -0.50000 -16.00000
v  -8.00000 7.50000 -16.00000
v  -8.00000 -0.50000 -10.66667
v  -8.00000 7.50000 -10.66667
v  -8.00000 -0.50000 -5.33333
v  -8.00000 7.50000 -5.33333
v  -8.00000 -0.50000 32.00000
v  -8.00000 7.50000 32.00000
v  -8.00000 7.50000 26.66667
v  -8.00000 -0.50000 26.66667
v  -8.00000 7.50000 21.33333
v  -8.00000 -0.50000 21.33333
v  -8.00000 7.50000 16.00000
v  -8.00000 -0.50000 16.00000
v  -8.00000 7.50000 10.66667
v  -8.00000 -0.50000 10.66667
v  8.00000 7.50000 32.00000
v  8.00000 -0.50000 32.00000
v  8.00000 -0.50000 26.66667
v  8.00000 7.50000 26.66667
v  8.00000 -0.50000 21.33333
v  8.00000 7.50000 21.33333
v  8.00000 -0.50000 16.00000
v  8.00000 7.50000 16.00000
v  8.00000 -0.50000 10.66667
v  8.00000 7.50000 10.66667
v  8.00000 -0.50000 5.33333
v  8.00000 -0.50000 -32.00000
v  8.00000 7.50000 -32.00000
v  8.00000 7.50000 -26.66667
v  8.00000 -0.50000 -26.66667
v  8.00000 7.50000 -21.33333
v  8.00000 -0.50000 -21.33333
v  8.00000 7.50000 -16.00000
v  8.00000 -0.50000 -16.00000
v  8.00000 7.50000 -10.66667
v  8.00000 -0.50000 -10.66667
# 104 vertices

vn 0.00000 1.00000 -0.00000
vn 1.00000 0.00000 -0.00000
vn -1.00000 0.00000 -0.00000
vn 0.00000 -1.00000 -0.00000
# 4 vertex normals

vt 0.00000 0.49866 0.00000
vt 0.49381 0.50025 0.00000
vt 0.49381 0.58359 0.00000
vt 0.00000 0.58177 0.00000
vt 0.54411 0.50000 0.00000
vt 0.68852 0.50000 0.00000
vt 0.68852 0.41667 0.00000
vt 0.54411 0.41667 0.00000
vt 0.68852 0.58333 0.00000
vt 0.54411 0.58333 0.00000
vt 0.99969 0.50000 0.00000
vt 0.68858 0.50000 0.00000
vt 0.68858 0.58333 0.00000
vt 0.99969 0.58333 0.00000
vt 1.00000 1.00000 1.00000
vt 0.00000 0.00000 0.00000
vt 0.49381 0.00025 0.00000
vt 0.49381 0.08359 0.00000
vt 0.00000 0.08311 0.00000
vt 0.49381 0.16692 0.00000
vt 0.00000 0.16622 0.00000
vt 0.49381 0.25025 0.00000
vt 0.00000 0.24933 0.00000
vt 0.49381 0.33359 0.00000
vt 0.00000 0.33244 0.00000
vt 0.49381 0.41692 0.00000
vt 0.00000 0.41555 0.00000
vt 0.49381 1.00025 0.00000
vt 0.00000 0.99732 0.00000
vt 0.00000 0.91421 0.00000
vt 0.49381 0.91692 0.00000
vt 0.00000 0.83110 0.00000
vt 0.49381 0.83359 0.00000
vt 0.00000 0.74799 0.00000
vt 0.49381 0.75025 0.00000
vt 0.00000 0.66488 0.00000
vt 0.49381 0.66692 0.00000
vt 0.54411 1.00000 0.00000
vt 0.68852 1.00000 0.00000
vt 0.68852 0.91667 0.00000
vt 0.54411 0.91667 0.00000
vt 0.68852 0.83333 0.00000
vt 0.54411 0.83333 0.00000
vt 0.68852 0.75000 0.00000
vt 0.54411 0.75000 0.00000
vt 0.68852 0.66667 0.00000
vt 0.54411 0.66667 0.00000
vt 0.68852 0.00000 0.00000
vt 0.54411 0.00000 0.00000
vt 0.54411 0.08333 0.00000
vt 0.68852 0.08333 0.00000
vt 0.54411 0.16667 0.00000
vt 0.68852 0.16667 0.00000
vt 0.54411 0.25000 0.00000
vt 0.68852 0.25000 0.00000
vt 0.54411 0.33333 0.00000
vt 0.68852 0.33333 0.00000
vt 0.99969 0.00000 0.00000
vt 0.68858 0.00000 0.00000
vt 0.68858 0.08333 0.00000
vt 0.99969 0.08333 0.00000
vt 0.68858 0.16667 0.00000
vt 0.99969 0.16667 0.00000
vt 0.68858 0.25000 0.00000
vt 0.99969 0.25000 0.00000
vt 0.68858 0.33333 0.00000
vt 0.99969 0.33333 0.00000
vt 0.68858 0.41667 0.00000
vt 0.99969 0.41667 0.00000
vt 0.68858 1.00000 0.00000
vt 0.99969 1.00000 0.00000
vt 0.99969 0.91667 0.00000
vt 0.68858 0.91667 0.00000
vt 0.99969 0.83333 0.00000
vt 0.68858 0.83333 0.00000
vt 0.99969 0.75000 0.00000
vt 0.68858 0.75000 0.00000
vt 0.99969 0.66667 0.00000
vt 0.68858 0.66667 0.00000
# 79 texture coords

g Plane005
f 1/1/1 2/2/1 3/3/1 
f 3/3/1 4/4/1 1/1/1 
f 1/5/2 5/6/2 6/7/2 
f 6/7/2 7/8/2 1/5/2 
f 2/5/3 8/6/3 9/9/3 
f 9/9/3 3/10/3 2/5/3 
f 8/11/4 5/12/4 10/13/4 
f 10/13/4 9/14/4 8/11/4 
f 11/15/3 12/15/3 13/15/3 
f 13/15/3 14/15/3 11/15/3 
f 15/15/2 16/15/2 17/15/2 
f 17/15/2 18/15/2 15/15/2 
f 15/15/1 11/15/1 14/15/1 
f 14/15/1 19/15/1 15/15/1 
f 20/16/1 21/17/1 22/18/1 
f 22/18/1 23/19/1 20/16/1 
f 23/19/1 22/18/1 24/20/1 
f 24/20/1 25/21/1 23/19/1 
f 25/21/1 24/20/1 26/22/1 
f 26/22/1 27/23/1 25/21/1 
f 27/23/1 26/22/1 28/24/1 
f 28/24/1 29/25/1 27/23/1 
f 29/25/1 28/24/1 30/26/1 
f 30/26/1 7/27/1 29/25/1 
f 7/27/1 30/26/1 2/2/1 
f 2/2/1 1/1/1 7/27/1 
f 31/28/1 32/29/1 33/30/1 
f 33/30/1 34/31/1 31/28/1 
f 34/31/1 33/30/1 35/32/1 
f 35/32/1 36/33/1 34/31/1 
f 36/33/1 35/32/1 37/34/1 
f 37/34/1 38/35/1 36/33/1 
f 38/35/1 37/34/1 39/36/1 
f 39/36/1 40/37/1 38/35/1 
f 40/37/1 39/36/1 4/4/1 
f 4/4/1 3/3/1 40/37/1 
f 32/38/2 41/39/2 42/40/2 
f 42/40/2 33/41/2 32/38/2 
f 33/41/2 42/40/2 43/42/2 
f 43/42/2 35/43/2 33/41/2 
f 35/43/2 43/42/2 44/44/2 
f 44/44/2 37/45/2 35/43/2 
f 37/45/2 44/44/2 45/46/2 
f 45/46/2 39/47/2 37/45/2 
f 39/47/2 45/46/2 10/9/2 
f 10/9/2 4/10/2 39/47/2 
f 4/10/2 10/9/2 5/6/2 
f 5/6/2 1/5/2 4/10/2 
f 46/48/2 20/49/2 23/50/2 
f 23/50/2 47/51/2 46/48/2 
f 47/51/2 23/50/2 25/52/2 
f 25/52/2 48/53/2 47/51/2 
f 48/53/2 25/52/2 27/54/2 
f 27/54/2 49/55/2 48/53/2 
f 49/55/2 27/54/2 29/56/2 
f 29/56/2 50/57/2 49/55/2 
f 50/57/2 29/56/2 7/8/2 
f 7/8/2 6/7/2 50/57/2 
f 21/49/3 51/48/3 52/51/3 
f 52/51/3 22/50/3 21/49/3 
f 22/50/3 52/51/3 53/53/3 
f 53/53/3 24/52/3 22/50/3 
f 24/52/3 53/53/3 54/55/3 
f 54/55/3 26/54/3 24/52/3 
f 26/54/3 54/55/3 55/57/3 
f 55/57/3 28/56/3 26/54/3 
f 28/56/3 55/57/3 56/7/3 
f 56/7/3 30/8/3 28/56/3 
f 30/8/3 56/7/3 8/6/3 
f 8/6/3 2/5/3 30/8/3 
f 57/39/3 31/38/3 34/41/3 
f 34/41/3 58/40/3 57/39/3 
f 58/40/3 34/41/3 36/43/3 
f 36/43/3 59/42/3 58/40/3 
f 59/42/3 36/43/3 38/45/3 
f 38/45/3 60/44/3 59/42/3 
f 60/44/3 38/45/3 40/47/3 
f 40/47/3 61/46/3 60/44/3 
f 61/46/3 40/47/3 3/10/3 
f 3/10/3 9/9/3 61/46/3 
f 51/58/4 46/59/4 47/60/4 
f 47/60/4 52/61/4 51/58/4 
f 52/61/4 47/60/4 48/62/4 
f 48/62/4 53/63/4 52/61/4 
f 53/63/4 48/62/4 49/64/4 
f 49/64/4 54/65/4 53/63/4 
f 54/65/4 49/64/4 50/66/4 
f 50/66/4 55/67/4 54/65/4 
f 55/67/4 50/66/4 6/68/4 
f 6/68/4 56/69/4 55/67/4 
f 56/69/4 6/68/4 5/12/4 
f 5/12/4 8/11/4 56/69/4 
f 41/70/4 57/71/4 58/72/4 
f 58/72/4 42/73/4 41/70/4 
f 42/73/4 58/72/4 59/74/4 
f 59/74/4 43/75/4 42/73/4 
f 43/75/4 59/74/4 60/76/4 
f 60/76/4 44/77/4 43/75/4 
f 44/77/4 60/76/4 61/78/4 
f 61/78/4 45/79/4 44/77/4 
f 45/79/4 61/78/4 9/14/4 
f 9/14/4 10/13/4 45/79/4 
f 62/15/3 63/15/3 64/15/3 
f 64/15/3 65/15/3 62/15/3 
f 65/15/3 64/15/3 66/15/3 
f 66/15/3 67/15/3 65/15/3 
f 67/15/3 66/15/3 68/15/3 
f 68/15/3 69/15/3 67/15/3 
f 69/15/3 68/15/3 70/15/3 
f 70/15/3 71/15/3 69/15/3 
f 71/15/3 70/15/3 72/15/3 
f 72/15/3 73/15/3 71/15/3 
f 73/15/3 72/15/3 12/15/3 
f 12/15/3 11/15/3 73/15/3 
f 74/15/3 75/15/3 76/15/3 
f 76/15/3 77/15/3 74/15/3 
f 77/15/3 76/15/3 78/15/3 
f 78/15/3 79/15/3 77/15/3 
f 79/15/3 78/15/3 80/15/3 
f 80/15/3 81/15/3 79/15/3 
f 81/15/3 80/15/3 82/15/3 
f 82/15/3 83/15/3 81/15/3 
f 83/15/3 82/15/3 14/15/3 
f 14/15/3 13/15/3 83/15/3 
f 84/15/2 85/15/2 86/15/2 
f 86/15/2 87/15/2 84/15/2 
f 87/15/2 86/15/2 88/15/2 
f 88/15/2 89/15/2 87/15/2 
f 89/15/2 88/15/2 90/15/2 
f 90/15/2 91/15/2 89/15/2 
f 91/15/2 90/15/2 92/15/2 
f 92/15/2 93/15/2 91/15/2 
f 93/15/2 92/15/2 94/15/2 
f 94/15/2 19/15/2 93/15/2 
f 19/15/2 94/15/2 16/15/2 
f 16/15/2 15/15/2 19/15/2 
f 95/15/2 96/15/2 97/15/2 
f 97/15/2 98/15/2 95/15/2 
f 98/15/2 97/15/2 99/15/2 
f 99/15/2 100/15/2 98/15/2 
f 100/15/2 99/15/2 101/15/2 
f 101/15/2 102/15/2 100/15/2 
f 102/15/2 101/15/2 103/15/2 
f 103/15/2 104/15/2 102/15/2 
f 104/15/2 103/15/2 18/15/2 
f 18/15/2 17/15/2 104/15/2 
f 96/15/1 62/15/1 65/15/1 
f 65/15/1 97/15/1 96/15/1 
f 97/15/1 65/15/1 67/15/1 
f 67/15/1 99/15/1 97/15/1 
f 99/15/1 67/15/1 69/15/1 
f 69/15/1 101/15/1 99/15/1 
f 101/15/1 69/15/1 71/15/1 
f 71/15/1 103/15/1 101/15/1 
f 103/15/1 71/15/1 73/15/1 
f 73/15/1 18/15/1 103/15/1 
f 18/15/1 73/15/1 11/15/1 
f 11/15/1 15/15/1 18/15/1 
f 75/15/1 84/15/1 87/15/1 
f 87/15/1 76/15/1 75/15/1 
f 76/15/1 87/15/1 89/15/1 
f 89/15/1 78/15/1 76/15/1 
f 78/15/1 89/15/1 91/15/1 
f 91/15/1 80/15/1 78/15/1 
f 80/15/1 91/15/1 93/15/1 
f 93/15/1 82/15/1 80/15/1 
f 82/15/1 93/15/1 19/15/1 
f 19/15/1 14/15/1 82/15/1 
# 168 faces

