# 3ds Max Wavefront OBJ Exporter v0.97b - (c)2007 guruware
# File Created: 05.10.2015 23:04:07

#
# object Plane01_0
#

v  14.48587 -1.00022 -0.00000
v  12.50000 -4.49999 -0.00000
v  12.50000 -4.49999 -16.00000
v  14.48587 -1.00022 -16.00000
v  -14.48645 -1.00000 -0.00000
v  -12.50000 -4.49999 0.00000
v  -12.50000 -4.49999 16.00000
v  -14.48645 -1.00000 16.00000
v  13.50400 1.50000 -0.00000
v  13.50400 1.50000 -16.00000
v  12.50000 -4.49999 16.00000
v  -13.25000 0.00001 -0.00000
v  -13.50440 1.50000 -0.00000
v  -13.50440 1.50000 16.00000
v  -13.25000 0.00000 16.00000
v  13.25000 0.00001 -0.00000
v  13.25000 0.00001 -16.00000
v  -13.25000 0.00001 -16.00000
v  13.25000 0.00000 16.00000
v  13.50400 1.50000 16.00000
v  -13.50440 1.50000 -16.00000
v  -14.48644 -1.00000 -16.00000
v  14.48587 -1.00022 32.00000
v  12.50000 -4.49999 32.00000
v  14.48587 -1.00022 16.00000
v  12.50000 -4.49999 -32.00000
v  14.48587 -1.00022 -32.00000
v  -14.48644 -1.00000 -32.00000
v  -12.50000 -4.49999 -31.99999
v  -12.50000 -4.49999 -15.99999
v  -12.50000 -4.49999 32.00000
v  -14.48645 -1.00000 32.00000
v  13.50400 1.50000 32.00000
v  13.50400 1.50000 -32.00000
v  -13.25000 0.00002 -32.00000
v  -13.50440 1.50000 -32.00000
v  -13.50440 1.50000 32.00000
v  -13.25000 0.00000 32.00000
v  13.25000 -0.00000 32.00000
v  13.25000 0.00002 -32.00000
# 40 vertices

vn 0.99748 -0.07090 0.00000
vn 0.50323 -0.86415 0.00000
vn -0.86969 -0.49360 -0.00000
vn -0.50319 -0.86418 0.00000
vn -0.86969 -0.49360 0.00000
vn 0.93080 0.36554 -0.00000
vn 0.98592 0.16721 0.00000
vn 0.00000 1.00000 0.00000
vn -0.98596 0.16696 0.00000
vn -0.93076 0.36562 -0.00000
# 10 vertex normals

vt 0.75626 0.50000 0.00000
vt 0.83887 0.50000 0.00000
vt 0.83887 0.25000 0.00000
vt 0.75626 0.25000 0.00000
vt 0.83887 0.75000 0.00000
vt 0.75626 0.75000 0.00000
vt 0.68789 0.50000 0.00000
vt 0.75265 0.50000 0.00000
vt 0.75265 0.25000 0.00000
vt 0.68789 0.25000 0.00000
vt 0.93926 0.49984 0.00000
vt 0.93926 0.74984 0.00000
vt 0.72920 0.50000 0.00000
vt 0.69331 0.50000 0.00000
vt 0.69331 0.25000 0.00000
vt 0.72920 0.25000 0.00000
vt 0.14333 0.49998 0.00000
vt 0.61562 0.50004 0.00000
vt 0.61562 0.75001 0.00000
vt 0.14333 0.74997 0.00000
vt 0.68789 0.75000 0.00000
vt 0.75265 0.75000 0.00000
vt 0.75626 1.00000 0.00000
vt 0.83887 1.00000 0.00000
vt 0.83887 0.00000 0.00000
vt 0.75626 0.00000 0.00000
vt 0.68789 1.00000 0.00000
vt 0.75265 1.00000 0.00000
vt 0.75265 0.00000 0.00000
vt 0.68789 0.00000 0.00000
vt 0.93926 -0.00016 0.00000
vt 0.93926 0.24984 0.00000
vt 0.93926 0.99984 0.00000
vt 0.72920 1.00000 0.00000
vt 0.69331 1.00000 0.00000
vt 0.69331 0.75000 0.00000
vt 0.72920 0.75000 0.00000
vt 0.69331 -0.00000 0.00000
vt 0.72920 0.00000 0.00000
vt 0.14331 -0.00001 0.00000
vt 0.61562 0.00010 0.00000
vt 0.61562 0.25007 0.00000
vt 0.14332 0.24998 0.00000
vt 0.61563 0.99998 0.00000
vt 0.14334 0.99997 0.00000
# 45 texture coords

g Plane01_0
f 1/1/1 2/2/2 3/3/2 
f 3/3/2 4/4/1 1/1/1 
f 5/1/3 6/2/4 7/5/4 
f 7/5/4 8/6/5 5/1/3 
f 9/7/6 1/8/1 4/9/1 
f 4/9/1 10/10/6 9/7/6 
f 6/11/4 2/11/2 11/12/2 
f 11/12/2 7/12/4 6/11/4 
f 12/13/7 13/14/7 14/15/7 
f 14/15/7 15/16/7 12/13/7 
f 12/17/8 16/18/8 17/19/8 
f 17/19/8 18/20/8 12/17/8 
f 9/14/9 16/13/9 19/16/9 
f 19/16/9 20/15/9 9/14/9 
f 5/8/10 13/7/10 21/21/10 
f 21/21/10 22/22/10 5/8/10 
f 23/23/1 24/24/2 11/5/2 
f 11/5/2 25/6/1 23/23/1 
f 25/6/1 11/5/2 2/2/2 
f 2/2/2 1/1/1 25/6/1 
f 26/25/2 27/26/1 4/4/1 
f 4/4/1 3/3/2 26/25/2 
f 28/26/5 29/25/4 30/3/4 
f 30/3/4 22/4/3 28/26/5 
f 22/4/3 30/3/4 6/2/4 
f 6/2/4 5/1/3 22/4/3 
f 31/24/4 32/23/5 8/6/5 
f 8/6/5 7/5/4 31/24/4 
f 33/27/6 23/28/1 25/22/1 
f 25/22/1 20/21/6 33/27/6 
f 20/21/6 25/22/1 1/8/1 
f 1/8/1 9/7/6 20/21/6 
f 27/29/1 34/30/6 10/10/6 
f 10/10/6 4/9/1 27/29/1 
f 29/31/4 26/31/2 3/32/2 
f 3/32/2 30/32/4 29/31/4 
f 30/32/4 3/32/2 2/11/2 
f 2/11/2 6/11/4 30/32/4 
f 24/33/2 31/33/4 7/12/4 
f 7/12/4 11/12/2 24/33/2 
f 35/34/7 36/35/7 21/36/7 
f 21/36/7 18/37/7 35/34/7 
f 18/37/7 21/36/7 13/14/7 
f 13/14/7 12/13/7 18/37/7 
f 37/38/7 38/39/7 15/16/7 
f 15/16/7 14/15/7 37/38/7 
f 38/40/8 39/41/8 19/42/8 
f 19/42/8 15/43/8 38/40/8 
f 15/43/8 19/42/8 16/18/8 
f 16/18/8 12/17/8 15/43/8 
f 40/44/8 35/45/8 18/20/8 
f 18/20/8 17/19/8 40/44/8 
f 34/35/9 40/34/9 17/37/9 
f 17/37/9 10/36/9 34/35/9 
f 10/36/9 17/37/9 16/13/9 
f 16/13/9 9/14/9 10/36/9 
f 39/39/9 33/38/9 20/15/9 
f 20/15/9 19/16/9 39/39/9 
f 32/29/10 37/30/10 14/10/10 
f 14/10/10 8/9/10 32/29/10 
f 8/9/10 14/10/10 13/7/10 
f 13/7/10 5/8/10 8/9/10 
f 36/27/10 28/28/10 22/22/10 
f 22/22/10 21/21/10 36/27/10 
# 64 faces

