# 3ds Max Wavefront OBJ Exporter v0.97b - (c)2007 guruware
# File Created: 24.10.2015 21:21:59

#
# object Plane005
#

v  13.50000 0.00000 -0.00000
v  0.00000 0.00000 -0.00000
v  -0.00000 0.00000 5.33333
v  13.58333 0.00000 5.33333
v  -14.41667 0.00000 -5.33333
v  -14.50000 0.00000 -0.00000
v  -13.50000 0.00000 -0.00000
v  -13.41667 0.00000 -5.33333
v  -14.41667 6.41667 -5.33333
v  -14.50000 6.50000 -0.00000
v  14.50000 6.50000 -0.00000
v  14.50000 0.00000 -0.00000
v  14.58333 0.00000 5.33333
v  14.58333 6.58333 5.33333
v  14.41667 6.41667 -5.33334
v  -0.00000 6.50000 -0.00000
v  0.00000 6.41667 -5.33333
v  16.00001 -1.54167 5.33333
v  16.00001 -1.75000 -0.00001
v  15.99998 7.50000 -0.00000
v  15.99999 7.50000 5.33333
v  -15.99999 -1.75000 -0.00000
v  -16.00002 7.50000 -0.00000
v  -16.00002 7.50000 -5.33334
v  -15.99999 -1.95834 -5.33334
v  -0.00001 7.50000 -0.00000
v  -0.00002 7.50000 -5.33334
v  14.41667 0.00000 -5.33333
v  13.41667 0.00000 -5.33333
v  -0.00001 7.50000 5.33333
v  0.00000 0.00000 -5.33333
v  -0.00000 6.58333 5.33333
v  -14.58333 6.58333 5.33334
v  13.00000 0.00000 -32.00000
v  0.00001 0.00000 -32.00000
v  0.00001 0.00000 -26.66667
v  13.08333 0.00000 -26.66666
v  0.00001 0.00000 -21.33333
v  13.16667 0.00000 -21.33333
v  0.00001 0.00000 -16.00000
v  13.25000 0.00000 -16.00000
v  0.00000 0.00000 -10.66667
v  13.33333 0.00000 -10.66666
v  -0.00001 0.00000 32.00000
v  14.00000 0.00000 32.00000
v  13.91667 0.00000 26.66667
v  -0.00001 0.00000 26.66667
v  13.83333 0.00000 21.33333
v  -0.00001 0.00000 21.33333
v  13.75000 0.00000 16.00000
v  -0.00000 0.00000 16.00000
v  13.66667 0.00000 10.66667
v  -0.00000 0.00000 10.66667
v  -14.91667 0.00000 26.66667
v  -15.00001 0.00000 32.00000
v  -14.00000 0.00000 32.00000
v  -13.91667 0.00000 26.66667
v  -14.83334 0.00000 21.33333
v  -13.83333 0.00000 21.33333
v  -14.75000 0.00000 16.00000
v  -13.75000 0.00000 16.00000
v  -14.66667 0.00000 10.66667
v  -13.66667 0.00000 10.66667
v  -14.58333 0.00000 5.33333
v  -13.58333 0.00000 5.33333
v  -13.08333 0.00000 -26.66666
v  -13.00000 0.00000 -32.00000
v  -13.99999 0.00000 -32.00000
v  -14.08333 0.00000 -26.66666
v  -13.16667 0.00000 -21.33333
v  -14.16666 0.00000 -21.33333
v  -13.25000 0.00000 -16.00000
v  -14.25000 0.00000 -16.00000
v  -13.33333 0.00000 -10.66666
v  -14.33333 0.00000 -10.66666
v  -14.91667 6.91667 26.66666
v  -15.00001 7.00000 32.00000
v  -14.83334 6.83333 21.33334
v  -14.75000 6.75000 16.00000
v  -14.66667 6.66667 10.66666
v  -13.99999 6.00000 -32.00000
v  -14.08333 6.08333 -26.66667
v  -14.16666 6.16667 -21.33333
v  -14.25000 6.25000 -16.00000
v  -14.33333 6.33333 -10.66667
v  14.00001 6.00000 -32.00000
v  14.00001 0.00000 -32.00000
v  14.08334 0.00000 -26.66667
v  14.08334 6.08333 -26.66667
v  14.16667 0.00000 -21.33333
v  14.16667 6.16667 -21.33334
v  14.25000 0.00000 -16.00000
v  14.25000 6.25000 -16.00000
v  14.33334 0.00000 -10.66667
v  14.33334 6.33333 -10.66667
v  14.99999 0.00000 32.00000
v  14.99999 7.00000 32.00000
v  14.91666 6.91667 26.66666
v  14.91666 0.00000 26.66666
v  14.83333 6.83333 21.33333
v  14.83333 0.00000 21.33333
v  14.75000 6.75000 16.00000
v  14.75000 0.00000 16.00000
v  14.66666 6.66667 10.66666
v  14.66666 0.00000 10.66666
v  -0.00001 7.00000 32.00000
v  -0.00001 6.91667 26.66666
v  -0.00001 6.83333 21.33333
v  -0.00001 6.75000 16.00000
v  -0.00000 6.66667 10.66666
v  0.00001 6.08333 -26.66667
v  0.00001 6.00000 -32.00000
v  0.00000 6.16667 -21.33333
v  0.00000 6.25000 -16.00000
v  0.00000 6.33333 -10.66667
v  16.00001 -2.79167 -26.66668
v  16.00001 -3.00001 -32.00001
v  15.99997 7.49999 -32.00001
v  15.99997 7.49999 -26.66667
v  16.00001 -2.58334 -21.33334
v  15.99998 7.49999 -21.33334
v  16.00001 -2.37501 -16.00001
v  15.99998 7.49999 -16.00001
v  16.00001 -2.16667 -10.66667
v  15.99998 7.49999 -10.66667
v  16.00001 -1.95834 -5.33334
v  15.99998 7.50000 -5.33334
v  16.00000 7.50000 26.66667
v  16.00000 7.50000 32.00000
v  16.00000 -0.50000 32.00000
v  16.00000 -0.70833 26.66667
v  15.99999 7.50000 21.33333
v  16.00000 -0.91667 21.33333
v  15.99999 7.50000 16.00000
v  16.00000 -1.12500 16.00000
v  15.99999 7.50000 10.66666
v  16.00001 -1.33334 10.66666
v  -16.00000 -0.50000 32.00000
v  -16.00000 7.50000 32.00000
v  -16.00000 7.50000 26.66666
v  -16.00000 -0.70833 26.66667
v  -16.00001 7.50000 21.33334
v  -16.00000 -0.91667 21.33334
v  -16.00001 7.50000 16.00000
v  -15.99999 -1.12500 16.00000
v  -16.00001 7.50000 10.66666
v  -15.99999 -1.33334 10.66666
v  -16.00001 7.50000 5.33333
v  -15.99999 -1.54167 5.33333
v  -16.00003 7.49999 -32.00001
v  -15.99998 -3.00001 -32.00001
v  -15.99998 -2.79167 -26.66668
v  -16.00002 7.49999 -26.66667
v  -15.99999 -2.58334 -21.33334
v  -16.00002 7.49999 -21.33334
v  -15.99999 -2.37501 -16.00001
v  -16.00002 7.49999 -16.00001
v  -15.99999 -2.16667 -10.66667
v  -16.00002 7.49999 -10.66667
v  -0.00000 7.50000 32.00000
v  -0.00000 7.50000 26.66666
v  -0.00001 7.50000 21.33334
v  -0.00001 7.50000 16.00000
v  -0.00001 7.50000 10.66666
v  -0.00003 7.49999 -32.00001
v  -0.00002 7.49999 -26.66667
v  -0.00002 7.49999 -21.33334
v  -0.00002 7.49999 -16.00001
v  -0.00002 7.49999 -10.66667
# 169 vertices

vn 0.00000 1.00000 -0.00000
vn 0.99988 0.00000 0.01562
vn -0.99988 0.00000 0.01562
vn 0.00000 -0.99988 0.01562
vn 1.00000 0.00000 -0.00000
vn -1.00000 -0.00000 0.00000
vn -1.00000 -0.00000 -0.00000
vn 0.99988 -0.00000 0.01562
vn 1.00000 0.00000 0.00000
vn -0.00000 1.00000 -0.00000
# 10 vertex normals

vt 0.15133 0.50004 0.00000
vt 0.37943 0.50004 0.00000
vt 0.37945 0.41672 0.00000
vt 0.15133 0.41672 0.00000
vt 0.13378 0.58336 0.00000
vt 0.13378 0.50003 0.00000
vt 0.15133 0.50003 0.00000
vt 0.15133 0.58336 0.00000
vt 0.78456 0.58345 0.00000
vt 0.78456 0.50013 0.00000
vt 0.77366 0.50013 0.00000
vt 0.77366 0.58345 0.00000
vt 0.77366 0.41681 0.00000
vt 0.78456 0.41681 0.00000
vt 0.84359 0.58333 0.00000
vt 0.84359 0.50000 0.00000
vt 0.92203 0.50000 0.00000
vt 0.92203 0.58333 0.00000
vt 1.00000 1.00000 1.00000
vt 0.13378 0.50004 0.00000
vt 0.13378 0.58335 0.00000
vt 0.15133 0.58335 0.00000
vt 0.37941 0.58335 0.00000
vt 0.92203 0.41667 0.00000
vt 0.84359 0.41667 0.00000
vt 0.15132 0.99991 0.00000
vt 0.37933 0.99995 0.00000
vt 0.37935 0.91663 0.00000
vt 0.15132 0.91660 0.00000
vt 0.37937 0.83331 0.00000
vt 0.15132 0.83329 0.00000
vt 0.37938 0.74999 0.00000
vt 0.15132 0.74997 0.00000
vt 0.37940 0.66667 0.00000
vt 0.15132 0.66666 0.00000
vt 0.37952 0.00012 0.00000
vt 0.15133 0.00016 0.00000
vt 0.15133 0.08347 0.00000
vt 0.37951 0.08344 0.00000
vt 0.15133 0.16678 0.00000
vt 0.37949 0.16676 0.00000
vt 0.15133 0.25010 0.00000
vt 0.37948 0.25008 0.00000
vt 0.15133 0.33341 0.00000
vt 0.37946 0.33340 0.00000
vt 0.13378 0.08340 0.00000
vt 0.13378 0.00007 0.00000
vt 0.15133 0.00007 0.00000
vt 0.15133 0.08340 0.00000
vt 0.13378 0.16672 0.00000
vt 0.15133 0.16673 0.00000
vt 0.13378 0.25005 0.00000
vt 0.15133 0.25005 0.00000
vt 0.13378 0.33338 0.00000
vt 0.15133 0.33338 0.00000
vt 0.13378 0.41670 0.00000
vt 0.15133 0.41670 0.00000
vt 0.15132 0.91666 0.00000
vt 0.15132 0.99999 0.00000
vt 0.13378 0.99999 0.00000
vt 0.13378 0.91666 0.00000
vt 0.15132 0.83333 0.00000
vt 0.13378 0.83334 0.00000
vt 0.15132 0.75001 0.00000
vt 0.13378 0.75001 0.00000
vt 0.15132 0.66668 0.00000
vt 0.13378 0.66668 0.00000
vt 0.78456 0.08353 0.00000
vt 0.78456 0.00021 0.00000
vt 0.77366 0.00021 0.00000
vt 0.77366 0.08353 0.00000
vt 0.78456 0.16685 0.00000
vt 0.77366 0.16685 0.00000
vt 0.78456 0.25017 0.00000
vt 0.77366 0.25017 0.00000
vt 0.78456 0.33349 0.00000
vt 0.77366 0.33349 0.00000
vt 0.77366 0.91674 0.00000
vt 0.77366 1.00006 0.00000
vt 0.78456 1.00006 0.00000
vt 0.78456 0.91674 0.00000
vt 0.77366 0.83342 0.00000
vt 0.78456 0.83342 0.00000
vt 0.77366 0.75010 0.00000
vt 0.78456 0.75010 0.00000
vt 0.77366 0.66677 0.00000
vt 0.78456 0.66677 0.00000
vt 0.84359 0.00000 0.00000
vt 0.92203 0.00000 0.00000
vt 0.92203 0.08333 0.00000
vt 0.84359 0.08333 0.00000
vt 0.92203 0.16667 0.00000
vt 0.84359 0.16667 0.00000
vt 0.92203 0.25000 0.00000
vt 0.84359 0.25000 0.00000
vt 0.92203 0.33333 0.00000
vt 0.84359 0.33333 0.00000
vt 0.92203 0.91667 0.00000
vt 0.92203 1.00000 0.00000
vt 0.84359 1.00000 0.00000
vt 0.84359 0.91667 0.00000
vt 0.92203 0.83333 0.00000
vt 0.84359 0.83333 0.00000
vt 0.92203 0.75000 0.00000
vt 0.84359 0.75000 0.00000
vt 0.92203 0.66667 0.00000
vt 0.84359 0.66667 0.00000
vt 0.13378 0.00016 0.00000
vt 0.13378 0.08347 0.00000
vt 0.13378 0.16679 0.00000
vt 0.13378 0.25010 0.00000
vt 0.13378 0.33341 0.00000
vt 0.13378 0.41672 0.00000
vt 0.13378 0.99991 0.00000
vt 0.13378 0.91660 0.00000
vt 0.13378 0.83328 0.00000
vt 0.13378 0.74997 0.00000
vt 0.13378 0.66666 0.00000
# 118 texture coords

g Plane005
f 1/1/1 2/2/1 3/3/1 
f 3/3/1 4/4/1 1/1/1 
f 5/5/1 6/6/1 7/7/1 
f 7/7/1 8/8/1 5/5/1 
f 9/9/2 10/10/2 6/11/2 
f 6/11/2 5/12/2 9/9/2 
f 11/10/3 12/11/3 13/13/3 
f 13/13/3 14/14/3 11/10/3 
f 15/15/4 11/16/4 16/17/4 
f 16/17/4 17/18/4 15/15/4 
f 18/19/5 19/19/5 20/19/5 
f 20/19/5 21/19/5 18/19/5 
f 22/19/6 23/19/6 24/19/6 
f 24/19/7 25/19/7 22/19/7 
f 23/19/1 26/19/1 27/19/1 
f 27/19/1 24/19/1 23/19/1 
f 1/1/1 12/20/1 28/21/1 
f 28/21/1 29/22/1 1/1/1 
f 20/19/1 26/19/1 30/19/1 
f 30/19/1 21/19/1 20/19/1 
f 8/8/1 7/7/1 2/2/1 
f 2/2/1 31/23/1 8/8/1 
f 10/16/4 16/17/4 32/24/4 
f 32/24/4 33/25/4 10/16/4 
f 34/26/1 35/27/1 36/28/1 
f 36/28/1 37/29/1 34/26/1 
f 37/29/1 36/28/1 38/30/1 
f 38/30/1 39/31/1 37/29/1 
f 39/31/1 38/30/1 40/32/1 
f 40/32/1 41/33/1 39/31/1 
f 41/33/1 40/32/1 42/34/1 
f 42/34/1 43/35/1 41/33/1 
f 43/35/1 42/34/1 31/23/1 
f 31/23/1 29/22/1 43/35/1 
f 29/22/1 31/23/1 2/2/1 
f 2/2/1 1/1/1 29/22/1 
f 44/36/1 45/37/1 46/38/1 
f 46/38/1 47/39/1 44/36/1 
f 47/39/1 46/38/1 48/40/1 
f 48/40/1 49/41/1 47/39/1 
f 49/41/1 48/40/1 50/42/1 
f 50/42/1 51/43/1 49/41/1 
f 51/43/1 50/42/1 52/44/1 
f 52/44/1 53/45/1 51/43/1 
f 53/45/1 52/44/1 4/4/1 
f 4/4/1 3/3/1 53/45/1 
f 54/46/1 55/47/1 56/48/1 
f 56/48/1 57/49/1 54/46/1 
f 58/50/1 54/46/1 57/49/1 
f 57/49/1 59/51/1 58/50/1 
f 60/52/1 58/50/1 59/51/1 
f 59/51/1 61/53/1 60/52/1 
f 62/54/1 60/52/1 61/53/1 
f 61/53/1 63/55/1 62/54/1 
f 64/56/1 62/54/1 63/55/1 
f 63/55/1 65/57/1 64/56/1 
f 6/6/1 64/56/1 65/57/1 
f 65/57/1 7/7/1 6/6/1 
f 66/58/1 67/59/1 68/60/1 
f 68/60/1 69/61/1 66/58/1 
f 70/62/1 66/58/1 69/61/1 
f 69/61/1 71/63/1 70/62/1 
f 72/64/1 70/62/1 71/63/1 
f 71/63/1 73/65/1 72/64/1 
f 74/66/1 72/64/1 73/65/1 
f 73/65/1 75/67/1 74/66/1 
f 8/8/1 74/66/1 75/67/1 
f 75/67/1 5/5/1 8/8/1 
f 76/68/2 77/69/2 55/70/2 
f 55/70/2 54/71/2 76/68/2 
f 78/72/2 76/68/2 54/71/2 
f 54/71/8 58/73/8 78/72/8 
f 79/74/8 78/72/8 58/73/8 
f 58/73/2 60/75/2 79/74/2 
f 80/76/2 79/74/2 60/75/2 
f 60/75/2 62/77/2 80/76/2 
f 33/14/2 80/76/2 62/77/2 
f 62/77/8 64/13/8 33/14/8 
f 10/10/8 33/14/8 64/13/8 
f 64/13/2 6/11/2 10/10/2 
f 69/78/2 68/79/2 81/80/2 
f 81/80/2 82/81/2 69/78/2 
f 71/82/2 69/78/2 82/81/2 
f 82/81/2 83/83/2 71/82/2 
f 73/84/2 71/82/2 83/83/2 
f 83/83/2 84/85/2 73/84/2 
f 75/86/2 73/84/2 84/85/2 
f 84/85/2 85/87/2 75/86/2 
f 5/12/2 75/86/2 85/87/2 
f 85/87/2 9/9/2 5/12/2 
f 86/80/3 87/79/3 88/78/3 
f 88/78/3 89/81/3 86/80/3 
f 89/81/3 88/78/3 90/82/3 
f 90/82/3 91/83/3 89/81/3 
f 91/83/3 90/82/3 92/84/3 
f 92/84/3 93/85/3 91/83/3 
f 93/85/3 92/84/3 94/86/3 
f 94/86/3 95/87/3 93/85/3 
f 95/87/3 94/86/3 28/12/3 
f 28/12/3 15/9/3 95/87/3 
f 15/9/3 28/12/3 12/11/3 
f 12/11/3 11/10/3 15/9/3 
f 96/70/3 97/69/3 98/68/3 
f 98/68/3 99/71/3 96/70/3 
f 99/71/3 98/68/3 100/72/3 
f 100/72/3 101/73/3 99/71/3 
f 101/73/3 100/72/3 102/74/3 
f 102/74/3 103/75/3 101/73/3 
f 103/75/3 102/74/3 104/76/3 
f 104/76/3 105/77/3 103/75/3 
f 105/77/3 104/76/3 14/14/3 
f 14/14/3 13/13/3 105/77/3 
f 97/88/4 106/89/4 107/90/4 
f 107/90/4 98/91/4 97/88/4 
f 98/91/4 107/90/4 108/92/4 
f 108/92/4 100/93/4 98/91/4 
f 100/93/4 108/92/4 109/94/4 
f 109/94/4 102/95/4 100/93/4 
f 102/95/4 109/94/4 110/96/4 
f 110/96/4 104/97/4 102/95/4 
f 14/25/4 104/97/4 110/96/4 
f 110/96/4 32/24/4 14/25/4 
f 11/16/4 14/25/4 32/24/4 
f 32/24/4 16/17/4 11/16/4 
f 111/98/4 112/99/4 86/100/4 
f 86/100/4 89/101/4 111/98/4 
f 113/102/4 111/98/4 89/101/4 
f 89/101/4 91/103/4 113/102/4 
f 114/104/4 113/102/4 91/103/4 
f 91/103/4 93/105/4 114/104/4 
f 115/106/4 114/104/4 93/105/4 
f 93/105/4 95/107/4 115/106/4 
f 17/18/4 115/106/4 95/107/4 
f 95/107/4 15/15/4 17/18/4 
f 116/19/9 117/19/9 118/19/9 
f 118/19/5 119/19/5 116/19/5 
f 120/19/5 116/19/5 119/19/5 
f 119/19/5 121/19/5 120/19/5 
f 122/19/5 120/19/5 121/19/5 
f 121/19/5 123/19/5 122/19/5 
f 124/19/9 122/19/9 123/19/9 
f 123/19/5 125/19/5 124/19/5 
f 126/19/9 124/19/9 125/19/9 
f 125/19/5 127/19/5 126/19/5 
f 19/19/5 126/19/5 127/19/5 
f 127/19/5 20/19/5 19/19/5 
f 128/19/5 129/19/5 130/19/5 
f 130/19/5 131/19/5 128/19/5 
f 132/19/5 128/19/5 131/19/5 
f 131/19/9 133/19/9 132/19/9 
f 134/19/5 132/19/5 133/19/5 
f 133/19/5 135/19/5 134/19/5 
f 136/19/5 134/19/5 135/19/5 
f 135/19/9 137/19/9 136/19/9 
f 21/19/5 136/19/5 137/19/5 
f 137/19/9 18/19/9 21/19/9 
f 138/19/6 139/19/6 140/19/6 
f 140/19/7 141/19/7 138/19/7 
f 141/19/6 140/19/6 142/19/6 
f 142/19/7 143/19/7 141/19/7 
f 143/19/6 142/19/6 144/19/6 
f 144/19/7 145/19/7 143/19/7 
f 145/19/6 144/19/6 146/19/6 
f 146/19/7 147/19/7 145/19/7 
f 147/19/6 146/19/6 148/19/6 
f 148/19/7 149/19/7 147/19/7 
f 149/19/6 148/19/6 23/19/6 
f 23/19/7 22/19/7 149/19/7 
f 150/19/7 151/19/7 152/19/7 
f 152/19/6 153/19/6 150/19/6 
f 153/19/7 152/19/7 154/19/7 
f 154/19/6 155/19/6 153/19/6 
f 155/19/7 154/19/7 156/19/7 
f 156/19/6 157/19/6 155/19/6 
f 157/19/7 156/19/7 158/19/7 
f 158/19/6 159/19/6 157/19/6 
f 159/19/7 158/19/7 25/19/7 
f 25/19/6 24/19/6 159/19/6 
f 139/19/1 160/19/1 161/19/1 
f 161/19/1 140/19/1 139/19/1 
f 140/19/1 161/19/1 162/19/1 
f 162/19/1 142/19/1 140/19/1 
f 142/19/1 162/19/1 163/19/1 
f 163/19/1 144/19/1 142/19/1 
f 144/19/1 163/19/1 164/19/1 
f 164/19/1 146/19/1 144/19/1 
f 146/19/1 164/19/1 30/19/1 
f 30/19/1 148/19/1 146/19/1 
f 148/19/1 30/19/1 26/19/1 
f 26/19/1 23/19/1 148/19/1 
f 165/19/1 150/19/1 153/19/1 
f 153/19/1 166/19/1 165/19/1 
f 166/19/1 153/19/1 155/19/1 
f 155/19/1 167/19/1 166/19/1 
f 167/19/1 155/19/1 157/19/1 
f 157/19/1 168/19/1 167/19/1 
f 168/19/1 157/19/1 159/19/1 
f 159/19/1 169/19/1 168/19/1 
f 169/19/1 159/19/1 24/19/1 
f 24/19/1 27/19/1 169/19/1 
f 45/37/1 96/108/1 99/109/1 
f 99/109/1 46/38/1 45/37/1 
f 46/38/1 99/109/1 101/110/1 
f 101/110/1 48/40/1 46/38/1 
f 48/40/1 101/110/1 103/111/1 
f 103/111/1 50/42/1 48/40/1 
f 50/42/1 103/111/1 105/112/1 
f 105/112/1 52/44/1 50/42/1 
f 52/44/1 105/112/1 13/113/1 
f 13/113/1 4/4/1 52/44/1 
f 4/4/1 13/113/1 12/20/1 
f 12/20/1 1/1/1 4/4/1 
f 87/114/1 34/26/1 37/29/1 
f 37/29/1 88/115/1 87/114/1 
f 88/115/1 37/29/1 39/31/1 
f 39/31/1 90/116/1 88/115/1 
f 90/116/1 39/31/1 41/33/1 
f 41/33/1 92/117/1 90/116/1 
f 92/117/1 41/33/1 43/35/1 
f 43/35/1 94/118/1 92/117/1 
f 94/118/1 43/35/1 29/22/1 
f 29/22/1 28/21/1 94/118/1 
f 118/19/1 165/19/1 166/19/1 
f 166/19/1 119/19/1 118/19/1 
f 119/19/1 166/19/1 167/19/1 
f 167/19/10 121/19/10 119/19/10 
f 121/19/10 167/19/10 168/19/10 
f 168/19/10 123/19/10 121/19/10 
f 123/19/10 168/19/10 169/19/10 
f 169/19/1 125/19/1 123/19/1 
f 125/19/1 169/19/1 27/19/1 
f 27/19/1 127/19/1 125/19/1 
f 127/19/1 27/19/1 26/19/1 
f 26/19/1 20/19/1 127/19/1 
f 160/19/1 129/19/1 128/19/1 
f 128/19/1 161/19/1 160/19/1 
f 161/19/1 128/19/1 132/19/1 
f 132/19/10 162/19/10 161/19/10 
f 162/19/10 132/19/10 134/19/10 
f 134/19/10 163/19/10 162/19/10 
f 163/19/10 134/19/10 136/19/10 
f 136/19/1 164/19/1 163/19/1 
f 164/19/1 136/19/1 21/19/1 
f 21/19/1 30/19/1 164/19/1 
f 57/49/1 56/48/1 44/36/1 
f 44/36/1 47/39/1 57/49/1 
f 59/51/1 57/49/1 47/39/1 
f 47/39/1 49/41/1 59/51/1 
f 61/53/1 59/51/1 49/41/1 
f 49/41/1 51/43/1 61/53/1 
f 63/55/1 61/53/1 51/43/1 
f 51/43/1 53/45/1 63/55/1 
f 65/57/1 63/55/1 53/45/1 
f 53/45/1 3/3/1 65/57/1 
f 7/7/1 65/57/1 3/3/1 
f 3/3/1 2/2/1 7/7/1 
f 36/28/1 35/27/1 67/59/1 
f 67/59/1 66/58/1 36/28/1 
f 38/30/1 36/28/1 66/58/1 
f 66/58/1 70/62/1 38/30/1 
f 40/32/1 38/30/1 70/62/1 
f 70/62/1 72/64/1 40/32/1 
f 42/34/1 40/32/1 72/64/1 
f 72/64/1 74/66/1 42/34/1 
f 31/23/1 42/34/1 74/66/1 
f 74/66/1 8/8/1 31/23/1 
f 81/100/4 112/99/4 111/98/4 
f 111/98/4 82/101/4 81/100/4 
f 82/101/4 111/98/4 113/102/4 
f 113/102/4 83/103/4 82/101/4 
f 83/103/4 113/102/4 114/104/4 
f 114/104/4 84/105/4 83/103/4 
f 84/105/4 114/104/4 115/106/4 
f 115/106/4 85/107/4 84/105/4 
f 85/107/4 115/106/4 17/18/4 
f 17/18/4 9/15/4 85/107/4 
f 9/15/4 17/18/4 16/17/4 
f 16/17/4 10/16/4 9/15/4 
f 106/89/4 77/88/4 76/91/4 
f 76/91/4 107/90/4 106/89/4 
f 107/90/4 76/91/4 78/93/4 
f 78/93/4 108/92/4 107/90/4 
f 108/92/4 78/93/4 79/95/4 
f 79/95/4 109/94/4 108/92/4 
f 109/94/4 79/95/4 80/97/4 
f 80/97/4 110/96/4 109/94/4 
f 110/96/4 80/97/4 33/25/4 
f 33/25/4 32/24/4 110/96/4 
# 288 faces

