# 3ds Max Wavefront OBJ Exporter v0.97b - (c)2007 guruware
# File Created: 16.01.2016 02:28:44

#
# object Plane001
#

v  0.0000 -0.1000 -0.0000
v  0.0000 0.0000 -16.0000
v  -2.0000 0.0000 -16.0000
v  -2.0000 -0.1000 -0.0000
v  0.0000 -0.3000 32.0000
v  0.0000 -0.2000 16.0000
v  -2.0000 -0.2000 16.0000
v  -2.0000 -0.3000 32.0000
v  0.0000 0.1000 -32.0000
v  2.0000 0.0000 -16.0000
v  2.0000 0.1000 -32.0000
v  4.0000 -0.1000 -0.0000
v  4.0000 0.0000 -16.0000
v  2.0000 -0.1000 -0.0000
v  -4.0000 0.0000 -16.0000
v  -4.0000 -0.1000 -0.0000
v  4.0000 -0.3000 32.0000
v  4.0000 -0.2000 16.0000
v  2.0000 -0.2000 16.0000
v  2.0000 -0.3000 32.0000
v  -4.0000 -0.2000 16.0000
v  -4.0000 -0.3000 32.0000
v  -4.0000 0.1000 -32.0000
v  -2.0000 0.1000 -32.0000
v  4.0000 0.1000 -32.0000
# 25 vertices

vn 0.0000 1.0000 0.0062
# 1 vertex normals

vt -0.0994 0.0000 0.0000
vt 1.1013 0.0000 0.0000
vt -0.0994 1.0000 0.0000
vt 1.1013 1.0000 0.0000
vt -0.0994 0.7500 0.0000
vt -0.0994 0.5000 0.0000
vt -0.0994 0.2500 0.0000
vt 1.1013 0.2500 0.0000
vt 1.1013 0.5000 0.0000
vt 1.1013 0.7500 0.0000
vt 0.8011 1.0000 0.0000
vt 0.5010 1.0000 0.0000
vt 0.2008 1.0000 0.0000
vt 0.2008 0.0000 0.0000
vt 0.5010 0.0000 0.0000
vt 0.8011 0.0000 0.0000
vt 0.2008 0.2500 0.0000
vt 0.5010 0.2500 0.0000
vt 0.8011 0.2500 0.0000
vt 0.2008 0.5000 0.0000
vt 0.5010 0.5000 0.0000
vt 0.8011 0.5000 0.0000
vt 0.8011 0.7500 0.0000
vt 0.5010 0.7500 0.0000
vt 0.2008 0.7500 0.0000
# 25 texture coords

g Plane001
s 1
f 1/21/1 2/24/1 3/25/1 
f 3/25/1 4/20/1 1/21/1 
f 5/15/1 6/18/1 7/17/1 
f 7/17/1 8/14/1 5/15/1 
f 6/18/1 1/21/1 4/20/1 
f 4/20/1 7/17/1 6/18/1 
f 9/12/1 2/24/1 10/23/1 
f 10/23/1 11/11/1 9/12/1 
f 12/9/1 13/10/1 10/23/1 
f 10/23/1 14/22/1 12/9/1 
f 14/22/1 10/23/1 2/24/1 
f 2/24/1 1/21/1 14/22/1 
f 15/5/1 16/6/1 4/20/1 
f 4/20/1 3/25/1 15/5/1 
f 17/2/1 18/8/1 19/19/1 
f 19/19/1 20/16/1 17/2/1 
f 20/16/1 19/19/1 6/18/1 
f 6/18/1 5/15/1 20/16/1 
f 21/7/1 22/1/1 8/14/1 
f 8/14/1 7/17/1 21/7/1 
f 18/8/1 12/9/1 14/22/1 
f 14/22/1 19/19/1 18/8/1 
f 19/19/1 14/22/1 1/21/1 
f 1/21/1 6/18/1 19/19/1 
f 16/6/1 21/7/1 7/17/1 
f 7/17/1 4/20/1 16/6/1 
f 23/3/1 15/5/1 3/25/1 
f 3/25/1 24/13/1 23/3/1 
f 24/13/1 3/25/1 2/24/1 
f 2/24/1 9/12/1 24/13/1 
f 13/10/1 25/4/1 11/11/1 
f 11/11/1 10/23/1 13/10/1 
# 32 faces

