# 3ds Max Wavefront OBJ Exporter v0.97b - (c)2007 guruware
# File Created: 04.09.2015 18:37:51

#
# object Plane002
#

v  -4.00000 -0.30000 32.00000
v  4.00000 -0.30000 32.00000
v  -4.00000 -0.30000 -0.00000
v  4.00000 -0.30000 -0.00000
v  -4.00000 -0.30000 -32.00000
v  4.00000 -0.30000 -32.00000
v  2.00000 -0.30000 32.00000
v  2.00000 -0.30000 -0.00000
v  -2.00000 -0.30000 32.00000
v  -2.00000 -0.30000 -0.00000
v  0.00000 -0.30000 -0.00000
v  0.00000 -0.30000 32.00000
# 12 vertices

vn 0.00000 1.00000 -0.00000
vn 0.00000 1.00000 0.00000
# 2 vertex normals

vt 0.00000 0.00000 0.00000
vt 0.18750 0.00000 0.00000
vt 0.18750 0.50000 0.00000
vt 0.00000 0.50000 0.00000
vt 0.18750 1.00000 0.00000
vt 0.81250 0.00000 0.00000
vt 1.00000 0.00000 0.00000
vt 1.00000 0.50000 0.00000
vt 0.81250 0.50000 0.00000
vt 1.00000 1.00000 0.00000
vt 0.50000 0.00000 0.00000
vt 0.50000 0.50000 0.00000
vt 0.81250 1.00000 0.00000
# 13 texture coords

g Plane002
f 1/1/1 9/2/1 10/3/2 
f 10/3/2 3/4/2 1/1/1 
f 3/4/2 10/3/2 5/5/2 
f 7/6/1 2/7/1 4/8/2 
f 4/8/2 8/9/2 7/6/1 
f 8/9/2 4/8/2 6/10/2 
f 12/11/1 11/12/1 10/3/2 
f 10/3/2 9/2/1 12/11/1 
f 7/6/1 8/9/2 11/12/1 
f 11/12/1 12/11/1 7/6/1 
f 8/9/2 6/13/2 11/12/2 
f 11/12/2 5/5/2 10/3/2 
f 11/12/2 6/13/2 5/5/2 
# 13 faces

