# 3ds Max Wavefront OBJ Exporter v0.97b - (c)2007 guruware
# File Created: 13.02.2018 07:37:25

#
# object Plane003
#

v  -0.1506 -0.2950 32.0000
v  0.1825 -0.2950 32.0000
v  0.6914 -0.2950 14.5454
v  -0.1460 -0.2950 14.5454
v  1.4368 -0.2950 -0.0000
v  0.2887 -0.2950 -0.0000
v  1.8713 -0.2950 -14.5455
v  1.0345 -0.2950 -14.5455
v  1.8758 -0.2950 -32.0000
v  1.5437 -0.2950 -32.0000
# 10 vertices

vn 0.0000 1.0000 -0.0000
# 1 vertex normals

vt 0.8206 1.0001 0.0000
vt 0.7990 0.9999 0.0000
vt 0.7484 0.4547 0.0000
vt 0.8700 0.4546 0.0000
vt 0.7062 0.0003 0.0000
vt 0.9112 0.0001 0.0000
# 6 texture coords

g Plane003
s 1
f 1/1/1 2/2/1 3/3/1 4/4/1 
f 3/3/1 5/5/1 6/6/1 4/4/1 
f 5/6/1 7/4/1 8/3/1 6/5/1 
f 7/4/1 9/1/1 10/2/1 8/3/1 
# 4 polygons

