# 3ds Max Wavefront OBJ Exporter v0.97b - (c)2007 guruware
# File Created: 30.01.2016 18:56:43

#
# object Plane006
#

v  4.0000 0.0200 -0.0000
v  -4.0000 0.0200 -0.0000
v  -4.0000 0.0200 5.3333
v  4.0000 0.0200 5.3333
v  -4.0000 -0.7000 32.0000
v  4.0000 -0.7000 32.0000
v  4.0000 0.0200 32.0000
v  -4.0000 0.0200 32.0000
v  4.0000 -0.7000 -32.0000
v  -4.0000 -0.7000 -32.0000
v  -4.0000 0.0200 -32.0000
v  4.0000 0.0200 -32.0000
v  -4.0000 0.0200 -26.6667
v  4.0000 0.0200 -26.6667
v  -4.0000 0.0200 -21.3333
v  4.0000 0.0200 -21.3333
v  -4.0000 0.0200 -16.0000
v  4.0000 0.0200 -16.0000
v  -4.0000 0.0200 -10.6667
v  4.0000 0.0200 -10.6667
v  -4.0000 0.0200 -5.3333
v  4.0000 0.0200 -5.3333
v  4.0000 0.0200 26.6667
v  -4.0000 0.0200 26.6667
v  4.0000 0.0200 21.3333
v  -4.0000 0.0200 21.3333
v  4.0000 0.0200 16.0000
v  -4.0000 0.0200 16.0000
v  4.0000 0.0200 10.6667
v  -4.0000 0.0200 10.6667
# 30 vertices

vn -0.0000 1.0000 0.0000
vn 0.0000 0.0000 1.0000
vn 0.0000 0.0000 -1.0000
# 3 vertex normals

vt 0.4489 0.0000 0.0000
vt 0.4489 1.0000 0.0000
vt 0.3069 0.0000 0.0000
vt 0.3069 1.0000 0.0000
vt 1.0000 1.0000 1.0000
vt 1.0000 1.0000 1.0000
vt 1.0000 1.0000 1.0000
vt 1.0000 1.0000 1.0000
vt 0.4489 0.0833 0.0000
vt 0.4489 0.1667 0.0000
vt 0.4489 0.2500 0.0000
vt 0.4489 0.3333 0.0000
vt 0.4489 0.4167 0.0000
vt 0.4489 0.5000 0.0000
vt 0.4489 0.5833 0.0000
vt 0.4489 0.6667 0.0000
vt 0.4489 0.7500 0.0000
vt 0.4489 0.8333 0.0000
vt 0.4489 0.9167 0.0000
vt 0.3069 0.9167 0.0000
vt 0.3069 0.8333 0.0000
vt 0.3069 0.7500 0.0000
vt 0.3069 0.6667 0.0000
vt 0.3069 0.5833 0.0000
vt 0.3069 0.5000 0.0000
vt 0.3069 0.4167 0.0000
vt 0.3069 0.3333 0.0000
vt 0.3069 0.2500 0.0000
vt 0.3069 0.1667 0.0000
vt 0.3069 0.0833 0.0000
# 30 texture coords

g Plane006
s 2
f 1/14/1 2/25/1 3/26/1 
f 3/26/1 4/13/1 1/14/1 
s off
f 5/5/2 6/6/2 7/1/2 
f 7/1/2 8/3/2 5/5/2 
f 9/7/3 10/8/3 11/4/3 
f 11/4/3 12/2/3 9/7/3 
s 2
f 12/2/1 11/4/1 13/20/1 
f 13/20/1 14/19/1 12/2/1 
f 14/19/1 13/20/1 15/21/1 
f 15/21/1 16/18/1 14/19/1 
f 16/18/1 15/21/1 17/22/1 
f 17/22/1 18/17/1 16/18/1 
f 18/17/1 17/22/1 19/23/1 
f 19/23/1 20/16/1 18/17/1 
f 20/16/1 19/23/1 21/24/1 
f 21/24/1 22/15/1 20/16/1 
f 22/15/1 21/24/1 2/25/1 
f 2/25/1 1/14/1 22/15/1 
f 8/3/1 7/1/1 23/9/1 
f 23/9/1 24/30/1 8/3/1 
f 24/30/1 23/9/1 25/10/1 
f 25/10/1 26/29/1 24/30/1 
f 26/29/1 25/10/1 27/11/1 
f 27/11/1 28/28/1 26/29/1 
f 28/28/1 27/11/1 29/12/1 
f 29/12/1 30/27/1 28/28/1 
f 30/27/1 29/12/1 4/13/1 
f 4/13/1 3/26/1 30/27/1 
# 28 faces

