# 3ds Max Wavefront OBJ Exporter v0.97b - (c)2007 guruware
# File Created: 30.01.2016 18:57:14

#
# object Plane006
#

v  -19.0000 -3.1650 -0.0000
v  -16.0000 -0.0000 -0.0000
v  -16.0000 -0.0000 -5.3333
v  -19.0000 -3.1650 -5.3333
v  19.0000 -3.1650 -0.0000
v  16.0000 -0.0000 -0.0000
v  16.0000 -0.0000 5.3333
v  19.0000 -3.1650 5.3333
v  -4.0000 -0.0000 -0.0000
v  -16.0000 -0.0000 5.3333
v  -4.0000 -0.0000 5.3333
v  4.0000 -0.0000 -0.0000
v  4.0000 -0.0000 5.3333
v  -0.4945 -0.6000 -0.0000
v  -0.4945 -0.6000 5.3333
v  0.4945 -0.6000 -0.0000
v  0.4945 -0.6000 5.3333
v  -19.0000 -3.1650 32.0000
v  -16.0000 -0.0000 32.0000
v  -16.0000 -0.0000 26.6667
v  -19.0000 -3.1650 26.6667
v  -16.0000 -0.0000 21.3333
v  -19.0000 -3.1650 21.3333
v  -16.0000 -0.0000 16.0000
v  -19.0000 -3.1650 16.0000
v  -16.0000 -0.0000 10.6667
v  -19.0000 -3.1650 10.6667
v  -19.0000 -3.1650 5.3333
v  -16.0000 0.0000 -32.0000
v  -19.0000 -3.1650 -32.0000
v  -19.0000 -3.1650 -26.6667
v  -16.0000 -0.0000 -26.6667
v  -19.0000 -3.1650 -21.3333
v  -16.0000 -0.0000 -21.3333
v  -19.0000 -3.1650 -16.0000
v  -16.0000 -0.0000 -16.0000
v  -19.0000 -3.1650 -10.6667
v  -16.0000 -0.0000 -10.6667
v  19.0000 -3.1650 -32.0000
v  16.0000 0.0000 -32.0000
v  16.0000 -0.0000 -26.6667
v  19.0000 -3.1650 -26.6667
v  16.0000 -0.0000 -21.3333
v  19.0000 -3.1650 -21.3333
v  16.0000 -0.0000 -16.0000
v  19.0000 -3.1650 -16.0000
v  16.0000 -0.0000 -10.6667
v  19.0000 -3.1650 -10.6667
v  16.0000 -0.0000 -5.3333
v  19.0000 -3.1650 -5.3333
v  16.0000 -0.0000 32.0000
v  19.0000 -3.1650 32.0000
v  19.0000 -3.1650 26.6667
v  16.0000 -0.0000 26.6667
v  19.0000 -3.1650 21.3333
v  16.0000 -0.0000 21.3333
v  19.0000 -3.1650 16.0000
v  16.0000 -0.0000 16.0000
v  19.0000 -3.1650 10.6667
v  16.0000 -0.0000 10.6667
v  -4.0000 0.0000 -32.0000
v  -4.0000 -0.0000 -26.6667
v  -4.0000 -0.0000 -21.3333
v  -4.0000 -0.0000 -16.0000
v  -4.0000 -0.0000 -10.6667
v  -4.0000 -0.0000 -5.3333
v  -4.0000 -0.0000 32.0000
v  -4.0000 -0.0000 26.6667
v  -4.0000 -0.0000 21.3333
v  -4.0000 -0.0000 16.0000
v  -4.0000 -0.0000 10.6667
v  4.0000 0.0000 -32.0000
v  4.0000 -0.0000 -26.6667
v  4.0000 -0.0000 -21.3333
v  4.0000 -0.0000 -16.0000
v  4.0000 -0.0000 -10.6667
v  4.0000 -0.0000 -5.3333
v  4.0000 -0.0000 32.0000
v  4.0000 -0.0000 26.6667
v  4.0000 -0.0000 21.3333
v  4.0000 -0.0000 16.0000
v  4.0000 -0.0000 10.6667
v  -0.4945 -0.6000 -32.0000
v  -0.4945 -0.6000 -26.6667
v  -0.4945 -0.6000 -21.3333
v  -0.4945 -0.6000 -16.0000
v  -0.4945 -0.6000 -10.6667
v  -0.4945 -0.6000 -5.3333
v  -0.4945 -0.6000 32.0000
v  -0.4945 -0.6000 26.6667
v  -0.4945 -0.6000 21.3333
v  -0.4945 -0.6000 16.0000
v  -0.4945 -0.6000 10.6667
v  0.4945 -0.6000 -32.0000
v  0.4945 -0.6000 -26.6667
v  0.4945 -0.6000 -21.3333
v  0.4945 -0.6000 -16.0000
v  0.4945 -0.6000 -10.6667
v  0.4945 -0.6000 -5.3333
v  0.4945 -0.6000 32.0000
v  0.4945 -0.6000 26.6667
v  0.4945 -0.6000 21.3333
v  0.4945 -0.6000 16.0000
v  0.4945 -0.6000 10.6667
# 104 vertices

vn -0.7258 0.6879 0.0000
vn 0.7258 0.6879 0.0000
vn 0.0847 0.9964 0.0000
vn -0.0000 1.0000 0.0000
vn -0.0847 0.9964 0.0000
# 5 vertex normals

vt 0.0359 1.0000 0.0000
vt 0.0359 0.0000 0.0000
vt 0.0175 1.0000 0.0000
vt 0.0175 0.0000 0.0000
vt 0.0175 1.0000 0.0000
vt 0.0175 0.0000 0.0000
vt 0.0359 0.0000 0.0000
vt 0.0359 1.0000 0.0000
vt 0.6618 1.0000 0.0000
vt 0.6618 0.0000 0.0000
vt 0.0940 1.0000 0.0000
vt 0.0940 0.0000 0.0000
vt 0.4489 0.0000 0.0000
vt 0.4489 1.0000 0.0000
vt 0.3069 0.0000 0.0000
vt 0.3069 1.0000 0.0000
vt 0.3692 1.0000 0.0000
vt 0.3867 0.0000 0.0000
vt 0.3867 1.0000 0.0000
vt 0.3692 0.0000 0.0000
vt 0.0175 0.0833 0.0000
vt 0.0175 0.1667 0.0000
vt 0.0175 0.2500 0.0000
vt 0.0175 0.3333 0.0000
vt 0.0175 0.4167 0.0000
vt 0.0175 0.5000 0.0000
vt 0.0175 0.5833 0.0000
vt 0.0175 0.6667 0.0000
vt 0.0175 0.7500 0.0000
vt 0.0175 0.8333 0.0000
vt 0.0175 0.9167 0.0000
vt 0.0940 0.0833 0.0000
vt 0.0940 0.1667 0.0000
vt 0.0940 0.2500 0.0000
vt 0.0940 0.3333 0.0000
vt 0.0940 0.4167 0.0000
vt 0.0940 0.5000 0.0000
vt 0.0940 0.5833 0.0000
vt 0.0940 0.6667 0.0000
vt 0.0940 0.7500 0.0000
vt 0.0940 0.8333 0.0000
vt 0.0940 0.9167 0.0000
vt 0.0359 0.9167 0.0000
vt 0.0359 0.8333 0.0000
vt 0.0359 0.7500 0.0000
vt 0.0359 0.6667 0.0000
vt 0.0359 0.5833 0.0000
vt 0.0359 0.5000 0.0000
vt 0.0359 0.4167 0.0000
vt 0.0359 0.3333 0.0000
vt 0.0359 0.2500 0.0000
vt 0.0359 0.1667 0.0000
vt 0.0359 0.0833 0.0000
vt 0.6618 0.9167 0.0000
vt 0.6618 0.8333 0.0000
vt 0.6618 0.7500 0.0000
vt 0.6618 0.6667 0.0000
vt 0.6618 0.5833 0.0000
vt 0.6618 0.5000 0.0000
vt 0.6618 0.4167 0.0000
vt 0.6618 0.3333 0.0000
vt 0.6618 0.2500 0.0000
vt 0.6618 0.1667 0.0000
vt 0.6618 0.0833 0.0000
vt 0.0175 0.9167 0.0000
vt 0.0175 0.8333 0.0000
vt 0.0175 0.7500 0.0000
vt 0.0175 0.6667 0.0000
vt 0.0175 0.5833 0.0000
vt 0.0175 0.5000 0.0000
vt 0.0175 0.4167 0.0000
vt 0.0175 0.3333 0.0000
vt 0.0175 0.2500 0.0000
vt 0.0175 0.1667 0.0000
vt 0.0175 0.0833 0.0000
vt 0.0359 0.0833 0.0000
vt 0.0359 0.1667 0.0000
vt 0.0359 0.2500 0.0000
vt 0.0359 0.3333 0.0000
vt 0.0359 0.4167 0.0000
vt 0.0359 0.5000 0.0000
vt 0.0359 0.5833 0.0000
vt 0.0359 0.6667 0.0000
vt 0.0359 0.7500 0.0000
vt 0.0359 0.8333 0.0000
vt 0.0359 0.9167 0.0000
vt 0.4489 0.0833 0.0000
vt 0.4489 0.1667 0.0000
vt 0.4489 0.2500 0.0000
vt 0.4489 0.3333 0.0000
vt 0.4489 0.4167 0.0000
vt 0.4489 0.5000 0.0000
vt 0.4489 0.5833 0.0000
vt 0.4489 0.6667 0.0000
vt 0.4489 0.7500 0.0000
vt 0.4489 0.8333 0.0000
vt 0.4489 0.9167 0.0000
vt 0.3069 0.0833 0.0000
vt 0.3069 0.1667 0.0000
vt 0.3069 0.2500 0.0000
vt 0.3069 0.3333 0.0000
vt 0.3069 0.4167 0.0000
vt 0.3069 0.5000 0.0000
vt 0.3069 0.5833 0.0000
vt 0.3069 0.6667 0.0000
vt 0.3069 0.7500 0.0000
vt 0.3069 0.8333 0.0000
vt 0.3069 0.9167 0.0000
vt 0.3692 0.0833 0.0000
vt 0.3692 0.1667 0.0000
vt 0.3692 0.2500 0.0000
vt 0.3692 0.3333 0.0000
vt 0.3692 0.4167 0.0000
vt 0.3692 0.5000 0.0000
vt 0.3692 0.5833 0.0000
vt 0.3692 0.6667 0.0000
vt 0.3692 0.7500 0.0000
vt 0.3692 0.8333 0.0000
vt 0.3692 0.9167 0.0000
vt 0.3867 0.0833 0.0000
vt 0.3867 0.1667 0.0000
vt 0.3867 0.2500 0.0000
vt 0.3867 0.3333 0.0000
vt 0.3867 0.4167 0.0000
vt 0.3867 0.5000 0.0000
vt 0.3867 0.5833 0.0000
vt 0.3867 0.6667 0.0000
vt 0.3867 0.7500 0.0000
vt 0.3867 0.8333 0.0000
vt 0.3867 0.9167 0.0000
# 130 texture coords

g Plane006
s 1
f 1/70/1 2/26/1 3/27/1 
f 3/27/1 4/69/1 1/70/1 
f 5/81/2 6/48/2 7/49/2 
f 7/49/2 8/80/2 5/81/2 
s 2
f 9/103/3 2/37/4 10/36/4 
f 10/36/4 11/102/3 9/103/3 
f 6/59/4 12/92/5 13/91/5 
f 13/91/5 7/60/4 6/59/4 
f 14/114/3 9/103/3 11/102/3 
f 11/102/3 15/113/3 14/114/3 
f 12/92/5 16/125/5 17/124/5 
f 17/124/5 13/91/5 12/92/5 
f 16/125/5 14/114/3 15/113/3 
f 15/113/3 17/124/5 16/125/5 
s 1
f 18/6/1 19/4/1 20/21/1 
f 20/21/1 21/75/1 18/6/1 
f 21/75/1 20/21/1 22/22/1 
f 22/22/1 23/74/1 21/75/1 
f 23/74/1 22/22/1 24/23/1 
f 24/23/1 25/73/1 23/74/1 
f 25/73/1 24/23/1 26/24/1 
f 26/24/1 27/72/1 25/73/1 
f 27/72/1 26/24/1 10/25/1 
f 10/25/1 28/71/1 27/72/1 
f 28/71/1 10/25/1 2/26/1 
f 2/26/1 1/70/1 28/71/1 
f 29/3/1 30/5/1 31/65/1 
f 31/65/1 32/31/1 29/3/1 
f 32/31/1 31/65/1 33/66/1 
f 33/66/1 34/30/1 32/31/1 
f 34/30/1 33/66/1 35/67/1 
f 35/67/1 36/29/1 34/30/1 
f 36/29/1 35/67/1 37/68/1 
f 37/68/1 38/28/1 36/29/1 
f 38/28/1 37/68/1 4/69/1 
f 4/69/1 3/27/1 38/28/1 
f 39/8/2 40/1/2 41/43/2 
f 41/43/2 42/86/2 39/8/2 
f 42/86/2 41/43/2 43/44/2 
f 43/44/2 44/85/2 42/86/2 
f 44/85/2 43/44/2 45/45/2 
f 45/45/2 46/84/2 44/85/2 
f 46/84/2 45/45/2 47/46/2 
f 47/46/2 48/83/2 46/84/2 
f 48/83/2 47/46/2 49/47/2 
f 49/47/2 50/82/2 48/83/2 
f 50/82/2 49/47/2 6/48/2 
f 6/48/2 5/81/2 50/82/2 
f 51/2/2 52/7/2 53/76/2 
f 53/76/2 54/53/2 51/2/2 
f 54/53/2 53/76/2 55/77/2 
f 55/77/2 56/52/2 54/53/2 
f 56/52/2 55/77/2 57/78/2 
f 57/78/2 58/51/2 56/52/2 
f 58/51/2 57/78/2 59/79/2 
f 59/79/2 60/50/2 58/51/2 
f 60/50/2 59/79/2 8/80/2 
f 8/80/2 7/49/2 60/50/2 
s 2
f 61/16/3 29/11/4 32/42/4 
f 32/42/4 62/108/3 61/16/3 
f 62/108/3 32/42/4 34/41/4 
f 34/41/4 63/107/3 62/108/3 
f 63/107/3 34/41/4 36/40/4 
f 36/40/4 64/106/3 63/107/3 
f 64/106/3 36/40/4 38/39/4 
f 38/39/4 65/105/3 64/106/3 
f 65/105/3 38/39/4 3/38/4 
f 3/38/4 66/104/3 65/105/3 
f 66/104/3 3/38/4 2/37/4 
f 2/37/4 9/103/3 66/104/3 
f 19/12/4 67/15/3 68/98/3 
f 68/98/3 20/32/4 19/12/4 
f 20/32/4 68/98/3 69/99/3 
f 69/99/3 22/33/4 20/32/4 
f 22/33/4 69/99/3 70/100/3 
f 70/100/3 24/34/4 22/33/4 
f 24/34/4 70/100/3 71/101/3 
f 71/101/3 26/35/4 24/34/4 
f 26/35/4 71/101/3 11/102/3 
f 11/102/3 10/36/4 26/35/4 
f 40/9/4 72/14/5 73/97/5 
f 73/97/5 41/54/4 40/9/4 
f 41/54/4 73/97/5 74/96/5 
f 74/96/5 43/55/4 41/54/4 
f 43/55/4 74/96/5 75/95/5 
f 75/95/5 45/56/4 43/55/4 
f 45/56/4 75/95/5 76/94/5 
f 76/94/5 47/57/4 45/56/4 
f 47/57/4 76/94/5 77/93/5 
f 77/93/5 49/58/4 47/57/4 
f 49/58/4 77/93/5 12/92/5 
f 12/92/5 6/59/4 49/58/4 
f 78/13/5 51/10/4 54/64/4 
f 54/64/4 79/87/5 78/13/5 
f 79/87/5 54/64/4 56/63/4 
f 56/63/4 80/88/5 79/87/5 
f 80/88/5 56/63/4 58/62/4 
f 58/62/4 81/89/5 80/88/5 
f 81/89/5 58/62/4 60/61/4 
f 60/61/4 82/90/5 81/89/5 
f 82/90/5 60/61/4 7/60/4 
f 7/60/4 13/91/5 82/90/5 
f 83/17/3 61/16/3 62/108/3 
f 62/108/3 84/119/3 83/17/3 
f 84/119/3 62/108/3 63/107/3 
f 63/107/3 85/118/3 84/119/3 
f 85/118/3 63/107/3 64/106/3 
f 64/106/3 86/117/3 85/118/3 
f 86/117/3 64/106/3 65/105/3 
f 65/105/3 87/116/3 86/117/3 
f 87/116/3 65/105/3 66/104/3 
f 66/104/3 88/115/3 87/116/3 
f 88/115/3 66/104/3 9/103/3 
f 9/103/3 14/114/3 88/115/3 
f 67/15/3 89/20/3 90/109/3 
f 90/109/3 68/98/3 67/15/3 
f 68/98/3 90/109/3 91/110/3 
f 91/110/3 69/99/3 68/98/3 
f 69/99/3 91/110/3 92/111/3 
f 92/111/3 70/100/3 69/99/3 
f 70/100/3 92/111/3 93/112/3 
f 93/112/3 71/101/3 70/100/3 
f 71/101/3 93/112/3 15/113/3 
f 15/113/3 11/102/3 71/101/3 
f 72/14/5 94/19/5 95/130/5 
f 95/130/5 73/97/5 72/14/5 
f 73/97/5 95/130/5 96/129/5 
f 96/129/5 74/96/5 73/97/5 
f 74/96/5 96/129/5 97/128/5 
f 97/128/5 75/95/5 74/96/5 
f 75/95/5 97/128/5 98/127/5 
f 98/127/5 76/94/5 75/95/5 
f 76/94/5 98/127/5 99/126/5 
f 99/126/5 77/93/5 76/94/5 
f 77/93/5 99/126/5 16/125/5 
f 16/125/5 12/92/5 77/93/5 
f 100/18/5 78/13/5 79/87/5 
f 79/87/5 101/120/5 100/18/5 
f 101/120/5 79/87/5 80/88/5 
f 80/88/5 102/121/5 101/120/5 
f 102/121/5 80/88/5 81/89/5 
f 81/89/5 103/122/5 102/121/5 
f 103/122/5 81/89/5 82/90/5 
f 82/90/5 104/123/5 103/122/5 
f 104/123/5 82/90/5 13/91/5 
f 13/91/5 17/124/5 104/123/5 
f 94/19/5 83/17/3 84/119/3 
f 84/119/3 95/130/5 94/19/5 
f 95/130/5 84/119/3 85/118/3 
f 85/118/3 96/129/5 95/130/5 
f 96/129/5 85/118/3 86/117/3 
f 86/117/3 97/128/5 96/129/5 
f 97/128/5 86/117/3 87/116/3 
f 87/116/3 98/127/5 97/128/5 
f 98/127/5 87/116/3 88/115/3 
f 88/115/3 99/126/5 98/127/5 
f 99/126/5 88/115/3 14/114/3 
f 14/114/3 16/125/5 99/126/5 
f 89/20/3 100/18/5 101/120/5 
f 101/120/5 90/109/3 89/20/3 
f 90/109/3 101/120/5 102/121/5 
f 102/121/5 91/110/3 90/109/3 
f 91/110/3 102/121/5 103/122/5 
f 103/122/5 92/111/3 91/110/3 
f 92/111/3 103/122/5 104/123/5 
f 104/123/5 93/112/3 92/111/3 
f 93/112/3 104/123/5 17/124/5 
f 17/124/5 15/113/3 93/112/3 
# 168 faces

