# 3ds Max Wavefront OBJ Exporter v0.97b - (c)2007 guruware
# File Created: 13.01.2016 23:11:30

#
# object Plane001
#

v  2.5000 0.2500 -0.0000
v  3.7880 0.2500 -0.0000
v  3.7880 0.2500 -5.3333
v  2.5000 0.2500 -5.3333
v  -3.7880 0.2500 -0.0000
v  -2.5000 0.2500 -0.0000
v  -2.5000 0.2500 -5.3333
v  -3.7880 0.2500 -5.3333
v  2.5000 0.1000 -0.0000
v  -2.5000 0.1000 -0.0000
v  -2.5000 0.1000 5.3333
v  2.5000 0.1000 5.3333
v  2.5000 0.1000 -5.3333
v  7.0000 -3.0650 -0.0000
v  4.1423 0.1000 -0.0000
v  4.1423 0.1000 5.3333
v  7.0000 -3.0650 5.3333
v  -7.0000 -3.0650 -0.0000
v  -4.1423 0.1000 -0.0000
v  -4.1423 0.1000 -5.3333
v  -7.0000 -3.0650 -5.3333
v  -2.5000 0.2500 5.3333
v  3.7880 0.2500 5.3333
v  2.5000 0.2500 32.0000
v  3.7880 0.2500 32.0000
v  3.7880 0.2500 26.6667
v  2.5000 0.2500 26.6667
v  3.7880 0.2500 21.3333
v  2.5000 0.2500 21.3333
v  3.7880 0.2500 16.0000
v  2.5000 0.2500 16.0000
v  3.7880 0.2500 10.6667
v  2.5000 0.2500 10.6667
v  2.5000 0.2500 5.3333
v  3.7880 0.2500 -32.0000
v  2.5000 0.2500 -32.0000
v  2.5000 0.2500 -26.6667
v  3.7880 0.2500 -26.6667
v  2.5000 0.2500 -21.3333
v  3.7880 0.2500 -21.3333
v  2.5000 0.2500 -16.0000
v  3.7880 0.2500 -16.0000
v  2.5000 0.2500 -10.6667
v  3.7880 0.2500 -10.6667
v  -3.7880 0.2500 32.0000
v  -2.5000 0.2500 32.0000
v  -2.5000 0.2500 26.6667
v  -3.7880 0.2500 26.6667
v  -2.5000 0.2500 21.3333
v  -3.7880 0.2500 21.3333
v  -2.5000 0.2500 16.0000
v  -3.7880 0.2500 16.0000
v  -2.5000 0.2500 10.6667
v  -3.7880 0.2500 10.6667
v  -3.7880 0.2500 5.3333
v  -2.5000 0.2500 -32.0000
v  -3.7880 0.2500 -32.0000
v  -3.7880 0.2500 -26.6667
v  -2.5000 0.2500 -26.6667
v  -3.7880 0.2500 -21.3333
v  -2.5000 0.2500 -21.3333
v  -3.7880 0.2500 -16.0000
v  -2.5000 0.2500 -16.0000
v  -3.7880 0.2500 -10.6667
v  -2.5000 0.2500 -10.6667
v  2.5000 0.1000 -32.0000
v  -2.5000 0.1000 -32.0000
v  -2.5000 0.1000 -26.6667
v  2.5000 0.1000 -26.6667
v  -2.5000 0.1000 -21.3333
v  2.5000 0.1000 -21.3333
v  -2.5000 0.1000 -16.0000
v  2.5000 0.1000 -16.0000
v  -2.5000 0.1000 -10.6667
v  2.5000 0.1000 -10.6667
v  -2.5000 0.1000 -5.3333
v  -2.5000 0.1000 32.0000
v  2.5000 0.1000 32.0000
v  2.5000 0.1000 26.6667
v  -2.5000 0.1000 26.6667
v  2.5000 0.1000 21.3333
v  -2.5000 0.1000 21.3333
v  2.5000 0.1000 16.0000
v  -2.5000 0.1000 16.0000
v  2.5000 0.1000 10.6667
v  -2.5000 0.1000 10.6667
v  7.0000 -3.0650 -32.0000
v  4.1423 0.1000 -32.0000
v  4.1423 0.1000 -26.6667
v  7.0000 -3.0650 -26.6667
v  4.1423 0.1000 -21.3333
v  7.0000 -3.0650 -21.3333
v  4.1423 0.1000 -16.0000
v  7.0000 -3.0650 -16.0000
v  4.1423 0.1000 -10.6667
v  7.0000 -3.0650 -10.6667
v  4.1423 0.1000 -5.3333
v  7.0000 -3.0650 -5.3333
v  4.1423 0.1000 32.0000
v  7.0000 -3.0650 32.0000
v  7.0000 -3.0650 26.6667
v  4.1423 0.1000 26.6667
v  7.0000 -3.0650 21.3333
v  4.1423 0.1000 21.3333
v  7.0000 -3.0650 16.0000
v  4.1423 0.1000 16.0000
v  7.0000 -3.0650 10.6667
v  4.1423 0.1000 10.6667
v  -7.0000 -3.0650 32.0000
v  -4.1423 0.1000 32.0000
v  -4.1423 0.1000 26.6667
v  -7.0000 -3.0650 26.6667
v  -4.1423 0.1000 21.3333
v  -7.0000 -3.0650 21.3333
v  -4.1423 0.1000 16.0000
v  -7.0000 -3.0650 16.0000
v  -4.1423 0.1000 10.6667
v  -7.0000 -3.0650 10.6667
v  -4.1423 0.1000 5.3333
v  -7.0000 -3.0650 5.3333
v  -4.1423 0.1000 -32.0000
v  -7.0000 -3.0650 -32.0000
v  -7.0000 -3.0650 -26.6667
v  -4.1423 0.1000 -26.6667
v  -7.0000 -3.0650 -21.3333
v  -4.1423 0.1000 -21.3333
v  -7.0000 -3.0650 -16.0000
v  -4.1423 0.1000 -16.0000
v  -7.0000 -3.0650 -10.6667
v  -4.1423 0.1000 -10.6667
# 130 vertices

vn 0.0000 1.0000 -0.0000
vn 0.1989 0.9800 -0.0000
vn -0.1989 0.9800 -0.0000
vn -0.0000 1.0000 -0.0000
vn -1.0000 0.0000 -0.0000
vn 0.7422 0.6702 -0.0000
vn 0.5798 0.8148 -0.0000
vn -0.7422 0.6702 -0.0000
vn -0.5798 0.8148 -0.0000
vn 1.0000 0.0000 -0.0000
# 10 vertex normals

vt 0.7721 1.0000 0.0000
vt 0.7721 0.0000 0.0000
vt 0.2291 0.0000 0.0000
vt 0.2291 1.0000 0.0000
vt 0.7731 1.0000 0.0000
vt 0.7731 0.0000 0.0000
vt 0.9523 0.0000 0.0000
vt 0.9523 1.0000 0.0000
vt 0.2271 1.0000 0.0000
vt 0.0476 1.0000 0.0000
vt 0.0476 0.0000 0.0000
vt 0.2271 0.0000 0.0000
vt 0.7731 1.0000 0.0000
vt 0.7731 0.0000 0.0000
vt 0.9523 0.0000 0.0000
vt 0.9270 1.0000 0.0000
vt 0.2271 1.0000 0.0000
vt 0.0476 1.0000 0.0000
vt 0.0730 0.0000 0.0000
vt 0.2271 0.0000 0.0000
vt 0.9270 0.0000 0.0000
vt 0.9523 1.0000 0.0000
vt 0.0730 1.0000 0.0000
vt 0.0476 0.0000 0.0000
vt 0.7731 0.9167 0.0000
vt 0.7731 0.8333 0.0000
vt 0.7731 0.7500 0.0000
vt 0.7731 0.6667 0.0000
vt 0.7731 0.5833 0.0000
vt 0.7731 0.5000 0.0000
vt 0.7731 0.4167 0.0000
vt 0.7731 0.3333 0.0000
vt 0.7731 0.2500 0.0000
vt 0.7731 0.1667 0.0000
vt 0.7731 0.0833 0.0000
vt 0.7721 0.9167 0.0000
vt 0.7721 0.8333 0.0000
vt 0.7721 0.7500 0.0000
vt 0.7721 0.6667 0.0000
vt 0.7721 0.5833 0.0000
vt 0.7721 0.5000 0.0000
vt 0.7721 0.4167 0.0000
vt 0.7721 0.3333 0.0000
vt 0.7721 0.2500 0.0000
vt 0.7721 0.1667 0.0000
vt 0.7721 0.0833 0.0000
vt 0.9523 0.0833 0.0000
vt 0.9523 0.1667 0.0000
vt 0.9523 0.2500 0.0000
vt 0.9523 0.3333 0.0000
vt 0.9523 0.4167 0.0000
vt 0.9523 0.5000 0.0000
vt 0.9523 0.5833 0.0000
vt 0.9523 0.6667 0.0000
vt 0.9523 0.7500 0.0000
vt 0.9523 0.8333 0.0000
vt 0.9523 0.9167 0.0000
vt 0.0476 0.9167 0.0000
vt 0.0476 0.8333 0.0000
vt 0.0476 0.7500 0.0000
vt 0.0476 0.6667 0.0000
vt 0.0476 0.5833 0.0000
vt 0.0476 0.5000 0.0000
vt 0.0476 0.4167 0.0000
vt 0.0476 0.3333 0.0000
vt 0.0476 0.2500 0.0000
vt 0.0476 0.1667 0.0000
vt 0.0476 0.0833 0.0000
vt 0.2271 0.0833 0.0000
vt 0.2271 0.1667 0.0000
vt 0.2271 0.2500 0.0000
vt 0.2271 0.3333 0.0000
vt 0.2271 0.4167 0.0000
vt 0.2271 0.5000 0.0000
vt 0.2271 0.5833 0.0000
vt 0.2271 0.6667 0.0000
vt 0.2271 0.7500 0.0000
vt 0.2271 0.8333 0.0000
vt 0.2271 0.9167 0.0000
vt 0.2291 0.0833 0.0000
vt 0.2291 0.1667 0.0000
vt 0.2291 0.2500 0.0000
vt 0.2291 0.3333 0.0000
vt 0.2291 0.4167 0.0000
vt 0.2291 0.5000 0.0000
vt 0.2291 0.5833 0.0000
vt 0.2291 0.6667 0.0000
vt 0.2291 0.7500 0.0000
vt 0.2291 0.8333 0.0000
vt 0.2291 0.9167 0.0000
vt 0.7731 0.9167 0.0000
vt 0.7731 0.8333 0.0000
vt 0.7731 0.7500 0.0000
vt 0.7731 0.6667 0.0000
vt 0.7731 0.5833 0.0000
vt 0.7731 0.5000 0.0000
vt 0.7731 0.4167 0.0000
vt 0.7731 0.3333 0.0000
vt 0.7731 0.2500 0.0000
vt 0.7731 0.1667 0.0000
vt 0.7731 0.0833 0.0000
vt 0.9270 0.0833 0.0000
vt 0.9270 0.1667 0.0000
vt 0.9270 0.2500 0.0000
vt 0.9270 0.3333 0.0000
vt 0.9270 0.4167 0.0000
vt 0.9270 0.5000 0.0000
vt 0.9270 0.5833 0.0000
vt 0.9270 0.6667 0.0000
vt 0.9270 0.7500 0.0000
vt 0.9270 0.8333 0.0000
vt 0.9270 0.9167 0.0000
vt 0.0730 0.9167 0.0000
vt 0.0730 0.8333 0.0000
vt 0.0730 0.7500 0.0000
vt 0.0730 0.6667 0.0000
vt 0.0730 0.5833 0.0000
vt 0.0730 0.5000 0.0000
vt 0.0730 0.4167 0.0000
vt 0.0730 0.3333 0.0000
vt 0.0730 0.2500 0.0000
vt 0.0730 0.1667 0.0000
vt 0.0730 0.0833 0.0000
vt 0.2271 0.0833 0.0000
vt 0.2271 0.1667 0.0000
vt 0.2271 0.2500 0.0000
vt 0.2271 0.3333 0.0000
vt 0.2271 0.4167 0.0000
vt 0.2271 0.5000 0.0000
vt 0.2271 0.5833 0.0000
vt 0.2271 0.6667 0.0000
vt 0.2271 0.7500 0.0000
vt 0.2271 0.8333 0.0000
vt 0.2271 0.9167 0.0000
vt 0.9523 0.0833 0.0000
vt 0.9523 0.1667 0.0000
vt 0.9523 0.2500 0.0000
vt 0.9523 0.3333 0.0000
vt 0.9523 0.4167 0.0000
vt 0.9523 0.5000 0.0000
vt 0.9523 0.5833 0.0000
vt 0.9523 0.6667 0.0000
vt 0.9523 0.7500 0.0000
vt 0.9523 0.8333 0.0000
vt 0.9523 0.9167 0.0000
vt 0.0476 0.9167 0.0000
vt 0.0476 0.8333 0.0000
vt 0.0476 0.7500 0.0000
vt 0.0476 0.6667 0.0000
vt 0.0476 0.5833 0.0000
vt 0.0476 0.5000 0.0000
vt 0.0476 0.4167 0.0000
vt 0.0476 0.3333 0.0000
vt 0.0476 0.2500 0.0000
vt 0.0476 0.1667 0.0000
vt 0.0476 0.0833 0.0000
# 156 texture coords

g Plane001
s 1
f 1/96/1 2/107/2 3/108/2 
f 3/108/2 4/95/1 1/96/1 
f 5/118/3 6/129/4 7/130/4 
f 7/130/4 8/117/3 5/118/3 
f 9/41/4 10/85/4 11/84/4 
f 11/84/4 12/42/4 9/41/4 
s 2
f 9/30/5 1/96/5 4/95/5 
f 4/95/5 13/29/5 9/30/5 
s 1
f 14/52/6 15/140/7 16/139/7 
f 16/139/7 17/51/6 14/52/6 
f 18/63/8 19/151/9 20/150/9 
f 20/150/9 21/62/8 18/63/8 
s 2
f 10/74/10 6/129/10 22/128/10 
f 22/128/10 11/73/10 10/74/10 
s 1
f 15/140/7 2/107/2 23/106/2 
f 23/106/2 16/139/7 15/140/7 
f 19/151/9 5/118/3 8/117/3 
f 8/117/3 20/150/9 19/151/9 
f 24/14/1 25/21/2 26/102/2 
f 26/102/2 27/101/1 24/14/1 
f 27/101/1 26/102/2 28/103/2 
f 28/103/2 29/100/1 27/101/1 
f 29/100/1 28/103/2 30/104/2 
f 30/104/2 31/99/1 29/100/1 
f 31/99/1 30/104/2 32/105/2 
f 32/105/2 33/98/1 31/99/1 
f 33/98/1 32/105/2 23/106/2 
f 23/106/2 34/97/1 33/98/1 
f 34/97/1 23/106/2 2/107/2 
f 2/107/2 1/96/1 34/97/1 
f 35/16/2 36/13/4 37/91/4 
f 37/91/4 38/112/2 35/16/2 
f 38/112/2 37/91/4 39/92/4 
f 39/92/4 40/111/2 38/112/2 
f 40/111/2 39/92/4 41/93/1 
f 41/93/1 42/110/2 40/111/2 
f 42/110/2 41/93/1 43/94/1 
f 43/94/1 44/109/2 42/110/2 
f 44/109/2 43/94/1 4/95/1 
f 4/95/1 3/108/2 44/109/2 
f 45/19/3 46/20/4 47/124/4 
f 47/124/4 48/123/3 45/19/3 
f 48/123/3 47/124/4 49/125/4 
f 49/125/4 50/122/3 48/123/3 
f 50/122/3 49/125/4 51/126/4 
f 51/126/4 52/121/3 50/122/3 
f 52/121/3 51/126/4 53/127/4 
f 53/127/4 54/120/3 52/121/3 
f 54/120/3 53/127/4 22/128/4 
f 22/128/4 55/119/3 54/120/3 
f 55/119/3 22/128/4 6/129/4 
f 6/129/4 5/118/3 55/119/3 
f 56/17/1 57/23/3 58/113/3 
f 58/113/3 59/134/1 56/17/1 
f 59/134/1 58/113/3 60/114/3 
f 60/114/3 61/133/4 59/134/1 
f 61/133/4 60/114/3 62/115/3 
f 62/115/3 63/132/4 61/133/4 
f 63/132/4 62/115/3 64/116/3 
f 64/116/3 65/131/4 63/132/4 
f 65/131/4 64/116/3 8/117/3 
f 8/117/3 7/130/4 65/131/4 
f 66/1/1 67/4/1 68/90/1 
f 68/90/1 69/36/4 66/1/1 
f 69/36/4 68/90/1 70/89/4 
f 70/89/4 71/37/4 69/36/4 
f 71/37/4 70/89/4 72/88/4 
f 72/88/4 73/38/1 71/37/4 
f 73/38/1 72/88/4 74/87/1 
f 74/87/1 75/39/4 73/38/1 
f 75/39/4 74/87/1 76/86/4 
f 76/86/4 13/40/4 75/39/4 
f 13/40/4 76/86/4 10/85/4 
f 10/85/4 9/41/4 13/40/4 
f 77/3/1 78/2/1 79/46/1 
f 79/46/1 80/80/4 77/3/1 
f 80/80/4 79/46/1 81/45/4 
f 81/45/4 82/81/4 80/80/4 
f 82/81/4 81/45/4 83/44/4 
f 83/44/4 84/82/1 82/81/4 
f 84/82/1 83/44/4 85/43/1 
f 85/43/1 86/83/4 84/82/1 
f 86/83/4 85/43/1 12/42/4 
f 12/42/4 11/84/4 86/83/4 
s 2
f 78/6/5 24/14/5 27/101/5 
f 27/101/5 79/35/5 78/6/5 
f 79/35/5 27/101/5 29/100/5 
f 29/100/5 81/34/5 79/35/5 
f 81/34/5 29/100/5 31/99/5 
f 31/99/5 83/33/5 81/34/5 
f 83/33/5 31/99/5 33/98/5 
f 33/98/5 85/32/5 83/33/5 
f 85/32/5 33/98/5 34/97/5 
f 34/97/5 12/31/5 85/32/5 
f 12/31/5 34/97/5 1/96/5 
f 1/96/5 9/30/5 12/31/5 
f 36/13/5 66/5/5 69/25/5 
f 69/25/5 37/91/5 36/13/5 
f 37/91/5 69/25/5 71/26/5 
f 71/26/5 39/92/5 37/91/5 
f 39/92/5 71/26/5 73/27/5 
f 73/27/5 41/93/5 39/92/5 
f 41/93/5 73/27/5 75/28/5 
f 75/28/5 43/94/5 41/93/5 
f 43/94/5 75/28/5 13/29/5 
f 13/29/5 4/95/5 43/94/5 
s 1
f 87/8/6 88/22/7 89/145/7 
f 89/145/7 90/57/6 87/8/6 
f 90/57/6 89/145/7 91/144/7 
f 91/144/7 92/56/6 90/57/6 
f 92/56/6 91/144/7 93/143/7 
f 93/143/7 94/55/6 92/56/6 
f 94/55/6 93/143/7 95/142/7 
f 95/142/7 96/54/6 94/55/6 
f 96/54/6 95/142/7 97/141/7 
f 97/141/7 98/53/6 96/54/6 
f 98/53/6 97/141/7 15/140/7 
f 15/140/7 14/52/6 98/53/6 
f 99/15/7 100/7/6 101/47/6 
f 101/47/6 102/135/7 99/15/7 
f 102/135/7 101/47/6 103/48/6 
f 103/48/6 104/136/7 102/135/7 
f 104/136/7 103/48/6 105/49/6 
f 105/49/6 106/137/7 104/136/7 
f 106/137/7 105/49/6 107/50/6 
f 107/50/6 108/138/7 106/137/7 
f 108/138/7 107/50/6 17/51/6 
f 17/51/6 16/139/7 108/138/7 
f 109/11/8 110/24/9 111/156/9 
f 111/156/9 112/68/8 109/11/8 
f 112/68/8 111/156/9 113/155/9 
f 113/155/9 114/67/8 112/68/8 
f 114/67/8 113/155/9 115/154/9 
f 115/154/9 116/66/8 114/67/8 
f 116/66/8 115/154/9 117/153/9 
f 117/153/9 118/65/8 116/66/8 
f 118/65/8 117/153/9 119/152/9 
f 119/152/9 120/64/8 118/65/8 
f 120/64/8 119/152/9 19/151/9 
f 19/151/9 18/63/8 120/64/8 
f 121/18/9 122/10/8 123/58/8 
f 123/58/8 124/146/9 121/18/9 
f 124/146/9 123/58/8 125/59/8 
f 125/59/8 126/147/9 124/146/9 
f 126/147/9 125/59/8 127/60/8 
f 127/60/8 128/148/9 126/147/9 
f 128/148/9 127/60/8 129/61/8 
f 129/61/8 130/149/9 128/148/9 
f 130/149/9 129/61/8 21/62/8 
f 21/62/8 20/150/9 130/149/9 
s 2
f 67/9/10 56/17/10 59/134/10 
f 59/134/10 68/79/10 67/9/10 
f 68/79/10 59/134/10 61/133/10 
f 61/133/10 70/78/10 68/79/10 
f 70/78/10 61/133/10 63/132/10 
f 63/132/10 72/77/10 70/78/10 
f 72/77/10 63/132/10 65/131/10 
f 65/131/10 74/76/10 72/77/10 
f 74/76/10 65/131/10 7/130/10 
f 7/130/10 76/75/10 74/76/10 
f 76/75/10 7/130/10 6/129/10 
f 6/129/10 10/74/10 76/75/10 
f 46/20/10 77/12/10 80/69/10 
f 80/69/10 47/124/10 46/20/10 
f 47/124/10 80/69/10 82/70/10 
f 82/70/10 49/125/10 47/124/10 
f 49/125/10 82/70/10 84/71/10 
f 84/71/10 51/126/10 49/125/10 
f 51/126/10 84/71/10 86/72/10 
f 86/72/10 53/127/10 51/126/10 
f 53/127/10 86/72/10 11/73/10 
f 11/73/10 22/128/10 53/127/10 
s 1
f 88/22/7 35/16/2 38/112/2 
f 38/112/2 89/145/7 88/22/7 
f 89/145/7 38/112/2 40/111/2 
f 40/111/2 91/144/7 89/145/7 
f 91/144/7 40/111/2 42/110/2 
f 42/110/2 93/143/7 91/144/7 
f 93/143/7 42/110/2 44/109/2 
f 44/109/2 95/142/7 93/143/7 
f 95/142/7 44/109/2 3/108/2 
f 3/108/2 97/141/7 95/142/7 
f 97/141/7 3/108/2 2/107/2 
f 2/107/2 15/140/7 97/141/7 
f 25/21/2 99/15/7 102/135/7 
f 102/135/7 26/102/2 25/21/2 
f 26/102/2 102/135/7 104/136/7 
f 104/136/7 28/103/2 26/102/2 
f 28/103/2 104/136/7 106/137/7 
f 106/137/7 30/104/2 28/103/2 
f 30/104/2 106/137/7 108/138/7 
f 108/138/7 32/105/2 30/104/2 
f 32/105/2 108/138/7 16/139/7 
f 16/139/7 23/106/2 32/105/2 
f 110/24/9 45/19/3 48/123/3 
f 48/123/3 111/156/9 110/24/9 
f 111/156/9 48/123/3 50/122/3 
f 50/122/3 113/155/9 111/156/9 
f 113/155/9 50/122/3 52/121/3 
f 52/121/3 115/154/9 113/155/9 
f 115/154/9 52/121/3 54/120/3 
f 54/120/3 117/153/9 115/154/9 
f 117/153/9 54/120/3 55/119/3 
f 55/119/3 119/152/9 117/153/9 
f 119/152/9 55/119/3 5/118/3 
f 5/118/3 19/151/9 119/152/9 
f 57/23/3 121/18/9 124/146/9 
f 124/146/9 58/113/3 57/23/3 
f 58/113/3 124/146/9 126/147/9 
f 126/147/9 60/114/3 58/113/3 
f 60/114/3 126/147/9 128/148/9 
f 128/148/9 62/115/3 60/114/3 
f 62/115/3 128/148/9 130/149/9 
f 130/149/9 64/116/3 62/115/3 
f 64/116/3 130/149/9 20/150/9 
f 20/150/9 8/117/3 64/116/3 
# 216 faces

