# 3ds Max Wavefront OBJ Exporter v0.97b - (c)2007 guruware
# File Created: 13.01.2016 23:16:55

#
# object Plane001
#

v  2.5000 0.2500 -0.0000
v  3.7880 0.2500 -0.0000
v  3.7880 0.2500 -5.3333
v  2.5000 0.2500 -5.3333
v  -3.7880 0.2500 -0.0000
v  -2.5000 0.2500 -0.0000
v  -2.5000 0.2500 -5.3333
v  -3.7880 0.2500 -5.3333
v  0.0000 0.1000 -0.0000
v  -2.5000 0.1000 -0.0000
v  -2.5000 0.1000 5.3333
v  0.0000 0.1000 5.3333
v  2.5000 0.1000 -0.0000
v  2.5000 0.1000 -5.3333
v  7.0000 -3.0650 -0.0000
v  4.1423 0.1000 -0.0000
v  4.1423 0.1000 5.3333
v  7.0000 -3.0650 5.3333
v  -7.0000 -3.0650 -0.0000
v  -4.1423 0.1000 -0.0000
v  -4.1423 0.1000 -5.3333
v  -7.0000 -3.0650 -5.3333
v  -2.5000 0.2500 5.3333
v  3.7880 0.2500 5.3333
v  2.5000 0.1000 5.3333
v  2.5000 0.2500 32.0000
v  3.7880 0.2500 32.0000
v  3.7880 0.2500 26.6667
v  2.5000 0.2500 26.6667
v  3.7880 0.2500 21.3333
v  2.5000 0.2500 21.3333
v  3.7880 0.2500 16.0000
v  2.5000 0.2500 16.0000
v  3.7880 0.2500 10.6667
v  2.5000 0.2500 10.6667
v  2.5000 0.2500 5.3333
v  3.7880 0.2500 -32.0000
v  2.5000 0.2500 -32.0000
v  2.5000 0.2500 -26.6667
v  3.7880 0.2500 -26.6667
v  2.5000 0.2500 -21.3333
v  3.7880 0.2500 -21.3333
v  2.5000 0.2500 -16.0000
v  3.7880 0.2500 -16.0000
v  2.5000 0.2500 -10.6667
v  3.7880 0.2500 -10.6667
v  -3.7880 0.2500 32.0000
v  -2.5000 0.2500 32.0000
v  -2.5000 0.2500 26.6667
v  -3.7880 0.2500 26.6667
v  -2.5000 0.2500 21.3333
v  -3.7880 0.2500 21.3333
v  -2.5000 0.2500 16.0000
v  -3.7880 0.2500 16.0000
v  -2.5000 0.2500 10.6667
v  -3.7880 0.2500 10.6667
v  -3.7880 0.2500 5.3333
v  -2.5000 0.2500 -32.0000
v  -3.7880 0.2500 -32.0000
v  -3.7880 0.2500 -26.6667
v  -2.5000 0.2500 -26.6667
v  -3.7880 0.2500 -21.3333
v  -2.5000 0.2500 -21.3333
v  -3.7880 0.2500 -16.0000
v  -2.5000 0.2500 -16.0000
v  -3.7880 0.2500 -10.6667
v  -2.5000 0.2500 -10.6667
v  0.0000 0.1000 -32.0000
v  -2.5000 0.1000 -32.0000
v  -2.5000 0.1000 -26.6667
v  0.0000 0.1000 -26.6667
v  -2.5000 0.1000 -21.3333
v  0.0000 0.1000 -21.3333
v  -2.5000 0.1000 -16.0000
v  0.0000 0.1000 -16.0000
v  -2.5000 0.1000 -10.6667
v  0.0000 0.1000 -10.6667
v  -2.5000 0.1000 -5.3333
v  0.0000 0.1000 -5.3333
v  -2.5000 0.1000 32.0000
v  0.0000 0.1000 32.0000
v  0.0000 0.1000 26.6667
v  -2.5000 0.1000 26.6667
v  0.0000 0.1000 21.3333
v  -2.5000 0.1000 21.3333
v  0.0000 0.1000 16.0000
v  -2.5000 0.1000 16.0000
v  0.0000 0.1000 10.6667
v  -2.5000 0.1000 10.6667
v  2.5000 0.1000 32.0000
v  2.5000 0.1000 26.6667
v  2.5000 0.1000 21.3333
v  2.5000 0.1000 16.0000
v  2.5000 0.1000 10.6667
v  2.5000 0.1000 -32.0000
v  2.5000 0.1000 -26.6667
v  2.5000 0.1000 -21.3333
v  2.5000 0.1000 -16.0000
v  2.5000 0.1000 -10.6667
v  7.0000 -3.0650 -32.0000
v  4.1423 0.1000 -32.0000
v  4.1423 0.1000 -26.6667
v  7.0000 -3.0650 -26.6667
v  4.1423 0.1000 -21.3333
v  7.0000 -3.0650 -21.3333
v  4.1423 0.1000 -16.0000
v  7.0000 -3.0650 -16.0000
v  4.1423 0.1000 -10.6667
v  7.0000 -3.0650 -10.6667
v  4.1423 0.1000 -5.3333
v  7.0000 -3.0650 -5.3333
v  4.1423 0.1000 32.0000
v  7.0000 -3.0650 32.0000
v  7.0000 -3.0650 26.6667
v  4.1423 0.1000 26.6667
v  7.0000 -3.0650 21.3333
v  4.1423 0.1000 21.3333
v  7.0000 -3.0650 16.0000
v  4.1423 0.1000 16.0000
v  7.0000 -3.0650 10.6667
v  4.1423 0.1000 10.6667
v  -7.0000 -3.0650 32.0000
v  -4.1423 0.1000 32.0000
v  -4.1423 0.1000 26.6667
v  -7.0000 -3.0650 26.6667
v  -4.1423 0.1000 21.3333
v  -7.0000 -3.0650 21.3333
v  -4.1423 0.1000 16.0000
v  -7.0000 -3.0650 16.0000
v  -4.1423 0.1000 10.6667
v  -7.0000 -3.0650 10.6667
v  -4.1423 0.1000 5.3333
v  -7.0000 -3.0650 5.3333
v  -4.1423 0.1000 -32.0000
v  -7.0000 -3.0650 -32.0000
v  -7.0000 -3.0650 -26.6667
v  -4.1423 0.1000 -26.6667
v  -7.0000 -3.0650 -21.3333
v  -4.1423 0.1000 -21.3333
v  -7.0000 -3.0650 -16.0000
v  -4.1423 0.1000 -16.0000
v  -7.0000 -3.0650 -10.6667
v  -4.1423 0.1000 -10.6667
# 143 vertices

vn 0.0000 1.0000 -0.0000
vn 0.1989 0.9800 -0.0000
vn -0.1989 0.9800 -0.0000
vn -0.0000 1.0000 -0.0000
vn -1.0000 0.0000 -0.0000
vn 0.7422 0.6702 -0.0000
vn 0.5798 0.8148 -0.0000
vn -0.7422 0.6702 -0.0000
vn -0.5798 0.8148 -0.0000
vn 1.0000 0.0000 -0.0000
# 10 vertex normals

vt 0.7721 1.0000 0.0000
vt 0.7721 0.0000 0.0000
vt 0.2291 0.0000 0.0000
vt 0.2291 1.0000 0.0000
vt 0.7731 1.0000 0.0000
vt 0.7731 0.0000 0.0000
vt 0.9523 0.0000 0.0000
vt 0.9523 1.0000 0.0000
vt 0.2271 1.0000 0.0000
vt 0.0476 1.0000 0.0000
vt 0.0476 0.0000 0.0000
vt 0.2271 0.0000 0.0000
vt 0.7731 1.0000 0.0000
vt 0.7731 0.0000 0.0000
vt 0.9523 0.0000 0.0000
vt 0.9270 1.0000 0.0000
vt 0.2271 1.0000 0.0000
vt 0.0476 1.0000 0.0000
vt 0.0730 0.0000 0.0000
vt 0.2271 0.0000 0.0000
vt 0.9270 0.0000 0.0000
vt 0.9523 1.0000 0.0000
vt 0.0730 1.0000 0.0000
vt 0.0476 0.0000 0.0000
vt 0.5006 0.0000 0.0000
vt 0.5006 1.0000 0.0000
vt 0.7731 0.9167 0.0000
vt 0.7731 0.8333 0.0000
vt 0.7731 0.7500 0.0000
vt 0.7731 0.6667 0.0000
vt 0.7731 0.5833 0.0000
vt 0.7731 0.5000 0.0000
vt 0.7731 0.4167 0.0000
vt 0.7731 0.3333 0.0000
vt 0.7731 0.2500 0.0000
vt 0.7731 0.1667 0.0000
vt 0.7731 0.0833 0.0000
vt 0.7721 0.9167 0.0000
vt 0.7721 0.8333 0.0000
vt 0.7721 0.7500 0.0000
vt 0.7721 0.6667 0.0000
vt 0.7721 0.5833 0.0000
vt 0.7721 0.5000 0.0000
vt 0.7721 0.4167 0.0000
vt 0.7721 0.3333 0.0000
vt 0.7721 0.2500 0.0000
vt 0.7721 0.1667 0.0000
vt 0.7721 0.0833 0.0000
vt 0.9523 0.0833 0.0000
vt 0.9523 0.1667 0.0000
vt 0.9523 0.2500 0.0000
vt 0.9523 0.3333 0.0000
vt 0.9523 0.4167 0.0000
vt 0.9523 0.5000 0.0000
vt 0.9523 0.5833 0.0000
vt 0.9523 0.6667 0.0000
vt 0.9523 0.7500 0.0000
vt 0.9523 0.8333 0.0000
vt 0.9523 0.9167 0.0000
vt 0.0476 0.9167 0.0000
vt 0.0476 0.8333 0.0000
vt 0.0476 0.7500 0.0000
vt 0.0476 0.6667 0.0000
vt 0.0476 0.5833 0.0000
vt 0.0476 0.5000 0.0000
vt 0.0476 0.4167 0.0000
vt 0.0476 0.3333 0.0000
vt 0.0476 0.2500 0.0000
vt 0.0476 0.1667 0.0000
vt 0.0476 0.0833 0.0000
vt 0.2271 0.0833 0.0000
vt 0.2271 0.1667 0.0000
vt 0.2271 0.2500 0.0000
vt 0.2271 0.3333 0.0000
vt 0.2271 0.4167 0.0000
vt 0.2271 0.5000 0.0000
vt 0.2271 0.5833 0.0000
vt 0.2271 0.6667 0.0000
vt 0.2271 0.7500 0.0000
vt 0.2271 0.8333 0.0000
vt 0.2271 0.9167 0.0000
vt 0.2291 0.0833 0.0000
vt 0.2291 0.1667 0.0000
vt 0.2291 0.2500 0.0000
vt 0.2291 0.3333 0.0000
vt 0.2291 0.4167 0.0000
vt 0.2291 0.5000 0.0000
vt 0.2291 0.5833 0.0000
vt 0.2291 0.6667 0.0000
vt 0.2291 0.7500 0.0000
vt 0.2291 0.8333 0.0000
vt 0.2291 0.9167 0.0000
vt 0.7731 0.9167 0.0000
vt 0.7731 0.8333 0.0000
vt 0.7731 0.7500 0.0000
vt 0.7731 0.6667 0.0000
vt 0.7731 0.5833 0.0000
vt 0.7731 0.5000 0.0000
vt 0.7731 0.4167 0.0000
vt 0.7731 0.3333 0.0000
vt 0.7731 0.2500 0.0000
vt 0.7731 0.1667 0.0000
vt 0.7731 0.0833 0.0000
vt 0.9270 0.0833 0.0000
vt 0.9270 0.1667 0.0000
vt 0.9270 0.2500 0.0000
vt 0.9270 0.3333 0.0000
vt 0.9270 0.4167 0.0000
vt 0.9270 0.5000 0.0000
vt 0.9270 0.5833 0.0000
vt 0.9270 0.6667 0.0000
vt 0.9270 0.7500 0.0000
vt 0.9270 0.8333 0.0000
vt 0.9270 0.9167 0.0000
vt 0.0730 0.9167 0.0000
vt 0.0730 0.8333 0.0000
vt 0.0730 0.7500 0.0000
vt 0.0730 0.6667 0.0000
vt 0.0730 0.5833 0.0000
vt 0.0730 0.5000 0.0000
vt 0.0730 0.4167 0.0000
vt 0.0730 0.3333 0.0000
vt 0.0730 0.2500 0.0000
vt 0.0730 0.1667 0.0000
vt 0.0730 0.0833 0.0000
vt 0.2271 0.0833 0.0000
vt 0.2271 0.1667 0.0000
vt 0.2271 0.2500 0.0000
vt 0.2271 0.3333 0.0000
vt 0.2271 0.4167 0.0000
vt 0.2271 0.5000 0.0000
vt 0.2271 0.5833 0.0000
vt 0.2271 0.6667 0.0000
vt 0.2271 0.7500 0.0000
vt 0.2271 0.8333 0.0000
vt 0.2271 0.9167 0.0000
vt 0.9523 0.0833 0.0000
vt 0.9523 0.1667 0.0000
vt 0.9523 0.2500 0.0000
vt 0.9523 0.3333 0.0000
vt 0.9523 0.4167 0.0000
vt 0.9523 0.5000 0.0000
vt 0.9523 0.5833 0.0000
vt 0.9523 0.6667 0.0000
vt 0.9523 0.7500 0.0000
vt 0.9523 0.8333 0.0000
vt 0.9523 0.9167 0.0000
vt 0.0476 0.9167 0.0000
vt 0.0476 0.8333 0.0000
vt 0.0476 0.7500 0.0000
vt 0.0476 0.6667 0.0000
vt 0.0476 0.5833 0.0000
vt 0.0476 0.5000 0.0000
vt 0.0476 0.4167 0.0000
vt 0.0476 0.3333 0.0000
vt 0.0476 0.2500 0.0000
vt 0.0476 0.1667 0.0000
vt 0.0476 0.0833 0.0000
vt 0.5006 0.0833 0.0000
vt 0.5006 0.1667 0.0000
vt 0.5006 0.2500 0.0000
vt 0.5006 0.3333 0.0000
vt 0.5006 0.4167 0.0000
vt 0.5006 0.5000 0.0000
vt 0.5006 0.5833 0.0000
vt 0.5006 0.6667 0.0000
vt 0.5006 0.7500 0.0000
vt 0.5006 0.8333 0.0000
vt 0.5006 0.9167 0.0000
# 169 texture coords

g Plane001
s 1
f 1/98/1 2/109/2 3/110/2 
f 3/110/2 4/97/1 1/98/1 
f 5/120/3 6/131/4 7/132/4 
f 7/132/4 8/119/3 5/120/3 
f 9/164/4 10/87/1 11/86/1 
f 11/86/1 12/163/4 9/164/4 
s 2
f 13/32/5 1/98/5 4/97/5 
f 4/97/5 14/31/5 13/32/5 
s 1
f 15/54/6 16/142/7 17/141/7 
f 17/141/7 18/53/6 15/54/6 
f 19/65/8 20/153/9 21/152/9 
f 21/152/9 22/64/8 19/65/8 
s 2
f 10/76/10 6/131/10 23/130/10 
f 23/130/10 11/75/10 10/76/10 
s 1
f 16/142/7 2/109/2 24/108/2 
f 24/108/2 17/141/7 16/142/7 
f 20/153/9 5/120/3 8/119/3 
f 8/119/3 21/152/9 20/153/9 
f 13/43/4 9/164/4 12/163/4 
f 12/163/4 25/44/4 13/43/4 
f 26/14/1 27/21/2 28/104/2 
f 28/104/2 29/103/1 26/14/1 
f 29/103/1 28/104/2 30/105/2 
f 30/105/2 31/102/1 29/103/1 
f 31/102/1 30/105/2 32/106/2 
f 32/106/2 33/101/1 31/102/1 
f 33/101/1 32/106/2 34/107/2 
f 34/107/2 35/100/1 33/101/1 
f 35/100/1 34/107/2 24/108/2 
f 24/108/2 36/99/1 35/100/1 
f 36/99/1 24/108/2 2/109/2 
f 2/109/2 1/98/1 36/99/1 
f 37/16/2 38/13/4 39/93/4 
f 39/93/4 40/114/2 37/16/2 
f 40/114/2 39/93/4 41/94/4 
f 41/94/4 42/113/2 40/114/2 
f 42/113/2 41/94/4 43/95/1 
f 43/95/1 44/112/2 42/113/2 
f 44/112/2 43/95/1 45/96/1 
f 45/96/1 46/111/2 44/112/2 
f 46/111/2 45/96/1 4/97/1 
f 4/97/1 3/110/2 46/111/2 
f 47/19/3 48/20/4 49/126/4 
f 49/126/4 50/125/3 47/19/3 
f 50/125/3 49/126/4 51/127/4 
f 51/127/4 52/124/3 50/125/3 
f 52/124/3 51/127/4 53/128/4 
f 53/128/4 54/123/3 52/124/3 
f 54/123/3 53/128/4 55/129/4 
f 55/129/4 56/122/3 54/123/3 
f 56/122/3 55/129/4 23/130/4 
f 23/130/4 57/121/3 56/122/3 
f 57/121/3 23/130/4 6/131/4 
f 6/131/4 5/120/3 57/121/3 
f 58/17/1 59/23/3 60/115/3 
f 60/115/3 61/136/1 58/17/1 
f 61/136/1 60/115/3 62/116/3 
f 62/116/3 63/135/4 61/136/1 
f 63/135/4 62/116/3 64/117/3 
f 64/117/3 65/134/4 63/135/4 
f 65/134/4 64/117/3 66/118/3 
f 66/118/3 67/133/4 65/134/4 
f 67/133/4 66/118/3 8/119/3 
f 8/119/3 7/132/4 67/133/4 
f 68/26/1 69/4/1 70/92/1 
f 70/92/1 71/169/1 68/26/1 
f 71/169/1 70/92/1 72/91/1 
f 72/91/1 73/168/4 71/169/1 
f 73/168/4 72/91/1 74/90/1 
f 74/90/1 75/167/4 73/168/4 
f 75/167/4 74/90/1 76/89/1 
f 76/89/1 77/166/1 75/167/4 
f 77/166/1 76/89/1 78/88/1 
f 78/88/1 79/165/4 77/166/1 
f 79/165/4 78/88/1 10/87/1 
f 10/87/1 9/164/4 79/165/4 
f 80/3/1 81/25/1 82/159/4 
f 82/159/4 83/82/1 80/3/1 
f 83/82/1 82/159/4 84/160/4 
f 84/160/4 85/83/1 83/82/1 
f 85/83/1 84/160/4 86/161/1 
f 86/161/1 87/84/1 85/83/1 
f 87/84/1 86/161/1 88/162/4 
f 88/162/4 89/85/1 87/84/1 
f 89/85/1 88/162/4 12/163/4 
f 12/163/4 11/86/1 89/85/1 
s 2
f 90/6/5 26/14/5 29/103/5 
f 29/103/5 91/37/5 90/6/5 
f 91/37/5 29/103/5 31/102/5 
f 31/102/5 92/36/5 91/37/5 
f 92/36/5 31/102/5 33/101/5 
f 33/101/5 93/35/5 92/36/5 
f 93/35/5 33/101/5 35/100/5 
f 35/100/5 94/34/5 93/35/5 
f 94/34/5 35/100/5 36/99/5 
f 36/99/5 25/33/5 94/34/5 
f 25/33/5 36/99/5 1/98/5 
f 1/98/5 13/32/5 25/33/5 
f 38/13/5 95/5/5 96/27/5 
f 96/27/5 39/93/5 38/13/5 
f 39/93/5 96/27/5 97/28/5 
f 97/28/5 41/94/5 39/93/5 
f 41/94/5 97/28/5 98/29/5 
f 98/29/5 43/95/5 41/94/5 
f 43/95/5 98/29/5 99/30/5 
f 99/30/5 45/96/5 43/95/5 
f 45/96/5 99/30/5 14/31/5 
f 14/31/5 4/97/5 45/96/5 
s 1
f 100/8/6 101/22/7 102/147/7 
f 102/147/7 103/59/6 100/8/6 
f 103/59/6 102/147/7 104/146/7 
f 104/146/7 105/58/6 103/59/6 
f 105/58/6 104/146/7 106/145/7 
f 106/145/7 107/57/6 105/58/6 
f 107/57/6 106/145/7 108/144/7 
f 108/144/7 109/56/6 107/57/6 
f 109/56/6 108/144/7 110/143/7 
f 110/143/7 111/55/6 109/56/6 
f 111/55/6 110/143/7 16/142/7 
f 16/142/7 15/54/6 111/55/6 
f 112/15/7 113/7/6 114/49/6 
f 114/49/6 115/137/7 112/15/7 
f 115/137/7 114/49/6 116/50/6 
f 116/50/6 117/138/7 115/137/7 
f 117/138/7 116/50/6 118/51/6 
f 118/51/6 119/139/7 117/138/7 
f 119/139/7 118/51/6 120/52/6 
f 120/52/6 121/140/7 119/139/7 
f 121/140/7 120/52/6 18/53/6 
f 18/53/6 17/141/7 121/140/7 
f 122/11/8 123/24/9 124/158/9 
f 124/158/9 125/70/8 122/11/8 
f 125/70/8 124/158/9 126/157/9 
f 126/157/9 127/69/8 125/70/8 
f 127/69/8 126/157/9 128/156/9 
f 128/156/9 129/68/8 127/69/8 
f 129/68/8 128/156/9 130/155/9 
f 130/155/9 131/67/8 129/68/8 
f 131/67/8 130/155/9 132/154/9 
f 132/154/9 133/66/8 131/67/8 
f 133/66/8 132/154/9 20/153/9 
f 20/153/9 19/65/8 133/66/8 
f 134/18/9 135/10/8 136/60/8 
f 136/60/8 137/148/9 134/18/9 
f 137/148/9 136/60/8 138/61/8 
f 138/61/8 139/149/9 137/148/9 
f 139/149/9 138/61/8 140/62/8 
f 140/62/8 141/150/9 139/149/9 
f 141/150/9 140/62/8 142/63/8 
f 142/63/8 143/151/9 141/150/9 
f 143/151/9 142/63/8 22/64/8 
f 22/64/8 21/152/9 143/151/9 
s 2
f 69/9/10 58/17/10 61/136/10 
f 61/136/10 70/81/10 69/9/10 
f 70/81/10 61/136/10 63/135/10 
f 63/135/10 72/80/10 70/81/10 
f 72/80/10 63/135/10 65/134/10 
f 65/134/10 74/79/10 72/80/10 
f 74/79/10 65/134/10 67/133/10 
f 67/133/10 76/78/10 74/79/10 
f 76/78/10 67/133/10 7/132/10 
f 7/132/10 78/77/10 76/78/10 
f 78/77/10 7/132/10 6/131/10 
f 6/131/10 10/76/10 78/77/10 
f 48/20/10 80/12/10 83/71/10 
f 83/71/10 49/126/10 48/20/10 
f 49/126/10 83/71/10 85/72/10 
f 85/72/10 51/127/10 49/126/10 
f 51/127/10 85/72/10 87/73/10 
f 87/73/10 53/128/10 51/127/10 
f 53/128/10 87/73/10 89/74/10 
f 89/74/10 55/129/10 53/128/10 
f 55/129/10 89/74/10 11/75/10 
f 11/75/10 23/130/10 55/129/10 
s 1
f 101/22/7 37/16/2 40/114/2 
f 40/114/2 102/147/7 101/22/7 
f 102/147/7 40/114/2 42/113/2 
f 42/113/2 104/146/7 102/147/7 
f 104/146/7 42/113/2 44/112/2 
f 44/112/2 106/145/7 104/146/7 
f 106/145/7 44/112/2 46/111/2 
f 46/111/2 108/144/7 106/145/7 
f 108/144/7 46/111/2 3/110/2 
f 3/110/2 110/143/7 108/144/7 
f 110/143/7 3/110/2 2/109/2 
f 2/109/2 16/142/7 110/143/7 
f 27/21/2 112/15/7 115/137/7 
f 115/137/7 28/104/2 27/21/2 
f 28/104/2 115/137/7 117/138/7 
f 117/138/7 30/105/2 28/104/2 
f 30/105/2 117/138/7 119/139/7 
f 119/139/7 32/106/2 30/105/2 
f 32/106/2 119/139/7 121/140/7 
f 121/140/7 34/107/2 32/106/2 
f 34/107/2 121/140/7 17/141/7 
f 17/141/7 24/108/2 34/107/2 
f 123/24/9 47/19/3 50/125/3 
f 50/125/3 124/158/9 123/24/9 
f 124/158/9 50/125/3 52/124/3 
f 52/124/3 126/157/9 124/158/9 
f 126/157/9 52/124/3 54/123/3 
f 54/123/3 128/156/9 126/157/9 
f 128/156/9 54/123/3 56/122/3 
f 56/122/3 130/155/9 128/156/9 
f 130/155/9 56/122/3 57/121/3 
f 57/121/3 132/154/9 130/155/9 
f 132/154/9 57/121/3 5/120/3 
f 5/120/3 20/153/9 132/154/9 
f 59/23/3 134/18/9 137/148/9 
f 137/148/9 60/115/3 59/23/3 
f 60/115/3 137/148/9 139/149/9 
f 139/149/9 62/116/3 60/115/3 
f 62/116/3 139/149/9 141/150/9 
f 141/150/9 64/117/3 62/116/3 
f 64/117/3 141/150/9 143/151/9 
f 143/151/9 66/118/3 64/117/3 
f 66/118/3 143/151/9 21/152/9 
f 21/152/9 8/119/3 66/118/3 
f 95/1/1 68/26/1 71/169/1 
f 71/169/1 96/38/4 95/1/1 
f 96/38/4 71/169/1 73/168/4 
f 73/168/4 97/39/4 96/38/4 
f 97/39/4 73/168/4 75/167/4 
f 75/167/4 98/40/1 97/39/4 
f 98/40/1 75/167/4 77/166/1 
f 77/166/1 99/41/4 98/40/1 
f 99/41/4 77/166/1 79/165/4 
f 79/165/4 14/42/4 99/41/4 
f 14/42/4 79/165/4 9/164/4 
f 9/164/4 13/43/4 14/42/4 
f 81/25/1 90/2/1 91/48/1 
f 91/48/1 82/159/4 81/25/1 
f 82/159/4 91/48/1 92/47/4 
f 92/47/4 84/160/4 82/159/4 
f 84/160/4 92/47/4 93/46/4 
f 93/46/4 86/161/1 84/160/4 
f 86/161/1 93/46/4 94/45/1 
f 94/45/1 88/162/4 86/161/1 
f 88/162/4 94/45/1 25/44/4 
f 25/44/4 12/163/4 88/162/4 
# 240 faces

