# 3ds Max Wavefront OBJ Exporter v0.97b - (c)2007 guruware
# File Created: 20.01.2018 12:25:51

#
# object BusBoth_Pavement
#

v  11.2000 -0.3000 -32.0000
v  -11.2000 -0.3000 -32.0000
v  -11.2000 -0.3000 -29.0909
v  11.2000 -0.3000 -29.0909
v  -11.2000 -0.3000 -26.1818
v  11.2000 -0.3000 -26.1818
v  -11.2000 -0.3000 -23.2727
v  11.2000 -0.3000 -23.2727
v  -11.2000 -0.3000 -20.3636
v  11.2000 -0.3000 -20.3636
v  -11.2000 -0.3000 -17.4545
v  11.2000 -0.3000 -17.4545
v  -11.2000 -0.3000 -14.5455
v  11.2000 -0.3000 -14.5455
v  -11.2000 -0.3000 -11.6364
v  11.2000 -0.3000 -11.6364
v  -11.2000 -0.3000 -8.7273
v  11.2000 -0.3000 -8.7273
v  -11.2000 -0.3000 -5.8182
v  11.2000 -0.3000 -5.8182
v  -11.2000 -0.3000 -2.9091
v  11.2000 -0.3000 -2.9091
v  -11.2000 -0.3000 -0.0000
v  11.2000 -0.3000 -0.0000
v  -11.2000 -0.3000 2.9091
v  11.2000 -0.3000 2.9091
v  -11.2000 -0.3000 5.8182
v  11.2000 -0.3000 5.8182
v  -11.2000 -0.3000 8.7273
v  11.2000 -0.3000 8.7273
v  -11.2000 -0.3000 11.6364
v  11.2000 -0.3000 11.6364
v  -11.2000 -0.3000 14.5455
v  11.2000 -0.3000 14.5455
v  -11.2000 -0.3000 17.4545
v  11.2000 -0.3000 17.4545
v  -11.2000 -0.3000 20.3636
v  11.2000 -0.3000 20.3636
v  -11.2000 -0.3000 23.2727
v  11.2000 -0.3000 23.2727
v  -11.2000 -0.3000 26.1818
v  11.2000 -0.3000 26.1818
v  -11.2000 -0.3000 29.0909
v  11.2000 -0.3000 29.0909
v  -11.2000 -0.3000 32.0000
v  11.2000 -0.3000 32.0000
v  -16.0000 0.0000 32.0000
v  -16.0000 0.0000 28.6316
v  -19.0000 -3.1650 28.6316
v  -19.0000 -3.1650 32.0000
v  -10.2609 0.0000 28.6316
v  -9.2000 0.0000 32.0000
v  -9.2000 0.0000 29.4316
v  -9.4015 0.0000 28.6430
v  -16.0000 0.0000 25.8250
v  -19.0000 -3.1650 25.8250
v  -9.2000 -0.3000 32.0000
v  -9.2000 -0.3000 29.4316
v  -16.0000 0.0000 22.4566
v  -19.0000 -3.1650 22.4566
v  -9.9427 0.0000 27.8780
v  -14.8000 0.0000 25.8250
v  -11.2055 0.0000 26.5786
v  -11.8177 0.0000 25.8190
v  -9.9427 -0.3000 27.8780
v  -11.2055 -0.3000 26.5786
v  -12.1532 0.0000 25.0250
v  -9.4015 -0.3000 28.6432
v  -11.8524 -0.3000 25.8250
v  -11.8547 -0.3000 25.8221
v  -12.1546 -0.3000 25.0250
v  -16.0000 0.0000 -32.0000
v  -19.0000 -3.1650 -32.0000
v  -19.0000 -3.1650 -28.6316
v  -16.0000 0.0000 -28.6316
v  -10.2609 0.0000 -28.6316
v  -9.2000 0.0000 -29.4316
v  -9.2000 0.0000 -32.0000
v  -19.0000 -3.1650 -25.8250
v  -16.0000 0.0000 -25.8250
v  -9.2000 -0.3000 -29.4316
v  -9.2000 -0.3000 -32.0000
v  -14.8000 0.0000 -25.8250
v  -11.2055 0.0000 -26.5786
v  -9.9427 0.0000 -27.8780
v  -11.2055 -0.3000 -26.5786
v  -9.9427 -0.3000 -27.8780
v  -9.4015 0.0000 -28.6430
v  -11.8177 0.0000 -25.8190
v  -12.1532 0.0000 -25.0250
v  -9.4015 -0.3000 -28.6432
v  -11.8547 -0.3000 -25.8221
v  -12.1546 -0.3000 -25.0250
v  -12.2000 0.0000 22.4566
v  -12.2000 -0.3000 22.4566
v  -11.9315 -0.3000 -26.5786
v  -12.1655 -0.3000 -25.8221
v  -11.2000 -0.3000 -25.8250
v  -11.4685 -0.3000 -27.8780
v  -11.2000 -0.3000 -29.4316
v  -11.2671 -0.3000 -28.6432
v  -16.0000 0.0000 19.0882
v  -19.0000 -3.1650 19.0882
v  -12.2000 0.0000 19.0882
v  -12.2000 -0.3000 19.0882
v  -12.2000 -0.3000 25.0250
v  -12.1655 -0.3000 25.8221
v  -12.1646 -0.3000 25.8250
v  -11.2000 -0.3000 25.8250
v  -11.2000 -0.3000 22.4566
v  -11.2000 -0.3000 19.0882
v  -16.0000 0.0000 1.7779
v  -16.0000 0.0000 -1.6842
v  -19.0000 -3.1650 -1.6842
v  -19.0000 -3.1650 1.7779
v  -12.2000 0.0000 1.7779
v  -12.2000 0.0000 -1.6842
v  -12.2000 -0.3000 1.7779
v  -12.2000 -0.3000 -1.6842
v  -12.2000 -0.3000 -25.0250
v  -12.2000 -0.3000 -22.4566
v  -11.2000 -0.3000 -22.4566
v  -16.0000 0.0000 -22.4566
v  -19.0000 -3.1650 -22.4566
v  -12.2000 0.0000 -22.4566
v  -12.2000 -0.3000 -5.1463
v  -11.2000 -0.3000 -1.6842
v  -11.2000 -0.3000 -5.1463
v  -16.0000 0.0000 -18.9945
v  -19.0000 -3.1650 -18.9945
v  -16.0000 0.0000 -15.5325
v  -19.0000 -3.1650 -15.5325
v  -16.0000 0.0000 -12.0704
v  -19.0000 -3.1650 -12.0704
v  -16.0000 0.0000 -8.6083
v  -19.0000 -3.1650 -8.6083
v  -16.0000 0.0000 -5.1463
v  -19.0000 -3.1650 -5.1463
v  -19.0000 -3.1650 15.6261
v  -16.0000 0.0000 15.6261
v  -19.0000 -3.1650 12.1640
v  -16.0000 0.0000 12.1640
v  -19.0000 -3.1650 8.7020
v  -16.0000 0.0000 8.7020
v  -19.0000 -3.1650 5.2399
v  -16.0000 0.0000 5.2399
v  -12.2000 0.0000 -18.9945
v  -12.2000 0.0000 -15.5325
v  -12.2000 0.0000 -12.0704
v  -12.2000 0.0000 -8.6083
v  -12.2000 0.0000 -5.1463
v  -12.2000 0.0000 15.6261
v  -12.2000 0.0000 12.1640
v  -12.2000 0.0000 8.7020
v  -12.2000 0.0000 5.2399
v  -12.2000 -0.3000 -18.9945
v  -12.2000 -0.3000 -15.5325
v  -12.2000 -0.3000 -12.0704
v  -12.2000 -0.3000 -8.6083
v  -12.2000 -0.3000 15.6261
v  -12.2000 -0.3000 12.1640
v  -12.2000 -0.3000 8.7020
v  -12.2000 -0.3000 5.2399
v  -11.2000 -0.3000 15.6261
v  -11.2000 -0.3000 12.1640
v  -11.2000 -0.3000 8.7020
v  -11.2000 -0.3000 5.2399
v  -11.2000 -0.3000 1.7779
v  -11.2000 -0.3000 -18.9945
v  -11.2000 -0.3000 -15.5325
v  -11.2000 -0.3000 -12.0704
v  -11.2000 -0.3000 -8.6083
v  -11.2671 -0.3000 28.6432
v  -11.2000 -0.3000 29.4316
v  -11.2000 -0.3000 28.6431
v  -11.4685 -0.3000 27.8780
v  -11.9315 -0.3000 26.5786
v  19.0000 -3.1650 28.6316
v  16.0000 0.0000 28.6316
v  16.0000 0.0000 32.0000
v  19.0000 -3.1650 32.0000
v  9.2000 0.0000 29.4316
v  9.2000 0.0000 32.0000
v  10.2609 0.0000 28.6316
v  9.4015 0.0000 28.6430
v  19.0000 -3.1650 25.8250
v  16.0000 0.0000 25.8250
v  9.2000 -0.3000 32.0000
v  9.2000 -0.3000 29.4316
v  19.0000 -3.1650 22.4566
v  16.0000 0.0000 22.4566
v  14.8000 0.0000 25.8250
v  9.9427 0.0000 27.8780
v  11.8177 0.0000 25.8190
v  11.2055 0.0000 26.5786
v  9.9427 -0.3000 27.8780
v  11.2055 -0.3000 26.5786
v  12.1532 0.0000 25.0250
v  9.4015 -0.3000 28.6432
v  11.8524 -0.3000 25.8250
v  11.8547 -0.3000 25.8221
v  12.1546 -0.3000 25.0250
v  19.0000 -3.1650 -28.6316
v  19.0000 -3.1650 -32.0000
v  16.0000 0.0000 -32.0000
v  16.0000 0.0000 -28.6316
v  10.2609 0.0000 -28.6316
v  9.2000 0.0000 -32.0000
v  9.2000 0.0000 -29.4316
v  19.0000 -3.1650 -25.8250
v  16.0000 0.0000 -25.8250
v  9.2000 -0.3000 -32.0000
v  9.2000 -0.3000 -29.4316
v  14.8000 0.0000 -25.8250
v  9.9427 0.0000 -27.8780
v  11.2055 0.0000 -26.5786
v  9.9427 -0.3000 -27.8780
v  11.2055 -0.3000 -26.5786
v  9.4015 0.0000 -28.6430
v  11.8177 0.0000 -25.8190
v  12.1532 0.0000 -25.0250
v  9.4015 -0.3000 -28.6432
v  11.8547 -0.3000 -25.8221
v  12.1546 -0.3000 -25.0250
v  12.2000 0.0000 22.4566
v  12.2000 -0.3000 22.4566
v  11.2000 -0.3000 -25.8250
v  12.1655 -0.3000 -25.8221
v  11.9315 -0.3000 -26.5786
v  11.4685 -0.3000 -27.8780
v  11.2671 -0.3000 -28.6432
v  11.2000 -0.3000 -29.4316
v  19.0000 -3.1650 19.0882
v  16.0000 0.0000 19.0882
v  12.2000 0.0000 19.0882
v  12.2000 -0.3000 19.0882
v  12.1646 -0.3000 25.8250
v  12.1655 -0.3000 25.8221
v  12.2000 -0.3000 25.0250
v  11.2000 -0.3000 25.8250
v  11.2000 -0.3000 22.4566
v  11.2000 -0.3000 19.0882
v  19.0000 -3.1650 -1.6842
v  16.0000 0.0000 -1.6842
v  16.0000 0.0000 1.7779
v  19.0000 -3.1650 1.7779
v  12.2000 0.0000 -1.6842
v  12.2000 0.0000 1.7779
v  12.2000 -0.3000 -1.6842
v  12.2000 -0.3000 1.7779
v  12.2000 -0.3000 -22.4566
v  12.2000 -0.3000 -25.0250
v  11.2000 -0.3000 -22.4566
v  16.0000 0.0000 -22.4566
v  19.0000 -3.1650 -22.4566
v  12.2000 0.0000 -22.4566
v  11.2000 -0.3000 -1.6842
v  12.2000 -0.3000 -5.1463
v  11.2000 -0.3000 -5.1463
v  16.0000 0.0000 -18.9945
v  19.0000 -3.1650 -18.9945
v  16.0000 0.0000 -15.5325
v  19.0000 -3.1650 -15.5325
v  16.0000 0.0000 -12.0704
v  19.0000 -3.1650 -12.0704
v  16.0000 0.0000 -8.6083
v  19.0000 -3.1650 -8.6083
v  16.0000 0.0000 -5.1463
v  19.0000 -3.1650 -5.1463
v  19.0000 -3.1650 15.6261
v  16.0000 0.0000 15.6261
v  19.0000 -3.1650 12.1640
v  16.0000 0.0000 12.1640
v  19.0000 -3.1650 8.7020
v  16.0000 0.0000 8.7020
v  19.0000 -3.1650 5.2399
v  16.0000 0.0000 5.2399
v  12.2000 0.0000 -18.9945
v  12.2000 0.0000 -15.5325
v  12.2000 0.0000 -12.0704
v  12.2000 0.0000 -8.6083
v  12.2000 0.0000 -5.1463
v  12.2000 0.0000 15.6261
v  12.2000 0.0000 12.1640
v  12.2000 0.0000 8.7020
v  12.2000 0.0000 5.2399
v  12.2000 -0.3000 -18.9945
v  12.2000 -0.3000 -15.5325
v  12.2000 -0.3000 -12.0704
v  12.2000 -0.3000 -8.6083
v  12.2000 -0.3000 15.6261
v  12.2000 -0.3000 12.1640
v  12.2000 -0.3000 8.7020
v  12.2000 -0.3000 5.2399
v  11.2000 -0.3000 15.6261
v  11.2000 -0.3000 12.1640
v  11.2000 -0.3000 8.7020
v  11.2000 -0.3000 5.2399
v  11.2000 -0.3000 1.7779
v  11.2000 -0.3000 -18.9945
v  11.2000 -0.3000 -15.5325
v  11.2000 -0.3000 -12.0704
v  11.2000 -0.3000 -8.6083
v  11.2671 -0.3000 28.6432
v  11.2000 -0.3000 28.6431
v  11.2000 -0.3000 29.4316
v  11.4685 -0.3000 27.8780
v  11.9315 -0.3000 26.5786
# 308 vertices

vn 0.0000 1.0000 -0.0000
vn -0.7258 0.6879 -0.0000
vn 0.9922 0.0000 -0.1248
vn 1.0000 0.0000 -0.0000
vn 0.9922 -0.0000 -0.1248
vn 0.7487 0.0000 -0.6629
vn 0.7691 -0.0000 -0.6391
vn 0.7691 0.0000 -0.6391
vn 0.7467 -0.0096 -0.6651
vn 0.9078 -0.0002 -0.4195
vn 0.9077 -0.0003 -0.4196
vn 0.7678 -0.1015 -0.6326
vn 0.8605 -0.0987 -0.4998
vn 0.8446 -0.1001 -0.5260
vn 0.9813 -0.0168 -0.1920
vn 0.9822 -0.0046 -0.1876
vn 0.9922 0.0000 0.1248
vn 0.9922 -0.0000 0.1248
vn 0.7487 0.0000 0.6629
vn 0.7467 -0.0095 0.6651
vn 0.7691 0.0000 0.6391
vn 0.7691 -0.0000 0.6391
vn 0.9077 -0.0003 0.4196
vn 0.9078 -0.0002 0.4195
vn 0.8445 -0.0998 0.5261
vn 0.8512 -0.0976 0.5157
vn 0.9813 -0.0168 0.1920
vn 0.9822 -0.0046 0.1876
vn 1.0000 -0.0002 -0.0091
vn 1.0000 0.0000 -0.0091
vn 1.0000 -0.0002 0.0091
vn 1.0000 0.0000 0.0091
vn 0.7258 0.6879 -0.0000
vn -1.0000 0.0000 -0.0000
vn -0.9922 0.0000 -0.1248
vn -0.9922 -0.0000 -0.1248
vn -0.7691 0.0000 -0.6391
vn -0.7691 -0.0000 -0.6391
vn -0.7487 0.0000 -0.6629
vn -0.7467 -0.0096 -0.6651
vn -0.9077 -0.0003 -0.4196
vn -0.9078 -0.0002 -0.4195
vn -0.7678 -0.1015 -0.6326
vn -0.8446 -0.1001 -0.5260
vn -0.8605 -0.0987 -0.4998
vn -0.9813 -0.0168 -0.1920
vn -0.9822 -0.0046 -0.1876
vn -0.9922 -0.0000 0.1248
vn -0.9922 0.0000 0.1248
vn -0.7691 0.0000 0.6391
vn -0.7467 -0.0095 0.6651
vn -0.7487 0.0000 0.6629
vn -0.7691 -0.0000 0.6391
vn -0.9077 -0.0003 0.4196
vn -0.9078 -0.0002 0.4195
vn -0.8445 -0.0998 0.5261
vn -0.8512 -0.0976 0.5157
vn -0.9822 -0.0046 0.1876
vn -0.9813 -0.0168 0.1920
vn -1.0000 -0.0002 -0.0091
vn -1.0000 0.0000 -0.0091
vn -1.0000 -0.0002 0.0091
vn -1.0000 0.0000 0.0091
# 63 vertex normals

vt 0.1901 1.0000 0.0000
vt 0.8099 1.0000 0.0000
vt 0.8099 0.9546 0.0000
vt 0.1901 0.9546 0.0000
vt 0.8099 0.9091 0.0000
vt 0.1901 0.9091 0.0000
vt 0.8099 0.8636 0.0000
vt 0.1901 0.8636 0.0000
vt 0.8099 0.8182 0.0000
vt 0.1901 0.8182 0.0000
vt 0.8099 0.7727 0.0000
vt 0.1901 0.7727 0.0000
vt 0.8099 0.7273 0.0000
vt 0.1901 0.7273 0.0000
vt 0.8099 0.6818 0.0000
vt 0.1901 0.6818 0.0000
vt 0.8099 0.6364 0.0000
vt 0.1901 0.6364 0.0000
vt 0.8099 0.5909 0.0000
vt 0.1901 0.5909 0.0000
vt 0.8099 0.5454 0.0000
vt 0.1901 0.5454 0.0000
vt 0.8099 0.5000 0.0000
vt 0.1901 0.5000 0.0000
vt 0.8099 0.4545 0.0000
vt 0.1901 0.4545 0.0000
vt 0.8099 0.4091 0.0000
vt 0.1901 0.4091 0.0000
vt 0.8099 0.3636 0.0000
vt 0.1901 0.3636 0.0000
vt 0.8099 0.3182 0.0000
vt 0.1901 0.3182 0.0000
vt 0.8099 0.2727 0.0000
vt 0.1901 0.2727 0.0000
vt 0.8099 0.2273 0.0000
vt 0.1901 0.2273 0.0000
vt 0.8099 0.1818 0.0000
vt 0.1901 0.1818 0.0000
vt 0.8099 0.1364 0.0000
vt 0.1901 0.1364 0.0000
vt 0.8099 0.0909 0.0000
vt 0.1901 0.0909 0.0000
vt 0.8099 0.0454 0.0000
vt 0.1901 0.0454 0.0000
vt 0.8099 0.0000 0.0000
vt 0.1901 0.0000 0.0000
vt 0.1364 0.0000 0.0000
vt 0.1364 0.0526 0.0000
vt 0.0000 0.0526 0.0000
vt 0.0000 0.0000 0.0000
vt 0.1223 0.8455 0.0000
vt 0.1547 0.8982 0.0000
vt 0.1547 0.8580 0.0000
vt 0.1547 0.8457 0.0000
vt -0.0480 0.8975 0.0000
vt -0.0480 0.8448 0.0000
vt 0.1364 0.0965 0.0000
vt 0.0000 0.0965 0.0000
vt 0.1414 0.0401 0.0000
vt 0.1414 0.0000 0.0000
vt 0.1364 0.1491 0.0000
vt 0.0000 0.1491 0.0000
vt 0.1547 0.8338 0.0000
vt 0.0535 0.8028 0.0000
vt 0.1547 0.8135 0.0000
vt 0.1547 0.8016 0.0000
vt 0.0208 0.7491 0.0000
vt 0.0208 0.8007 0.0000
vt 0.1082 0.0847 0.0000
vt 0.1292 0.0644 0.0000
vt 0.1547 0.7892 0.0000
vt 0.1384 0.0525 0.0000
vt 0.0976 0.0965 0.0000
vt 0.0975 0.0965 0.0000
vt 0.0991 0.0966 0.0000
vt 0.0960 0.1090 0.0000
vt 0.1364 1.0000 0.0000
vt 0.0000 1.0000 0.0000
vt 0.0000 0.9474 0.0000
vt 0.1364 0.9474 0.0000
vt 0.0000 0.9035 0.0000
vt 0.1364 0.9035 0.0000
vt 0.1414 0.9599 0.0000
vt 0.1414 1.0000 0.0000
vt 0.1082 0.9153 0.0000
vt 0.1292 0.9356 0.0000
vt 0.1384 0.9475 0.0000
vt 0.0991 0.9034 0.0000
vt 0.0975 0.9035 0.0000
vt 0.0960 0.8910 0.0000
vt 0.1547 0.7491 0.0000
vt 0.0960 0.1491 0.0000
vt 0.8087 0.9153 0.0000
vt 0.7981 0.9035 0.0000
vt 0.8420 0.9035 0.0000
vt 0.8298 0.9356 0.0000
vt 0.8420 0.9599 0.0000
vt 0.8389 0.9475 0.0000
vt 0.1364 0.2017 0.0000
vt 0.0000 0.2017 0.0000
vt 0.1545 0.1498 0.0000
vt 0.1545 0.2025 0.0000
vt 0.0040 0.2017 0.0000
vt 0.0040 0.1491 0.0000
vt 0.0960 0.2017 0.0000
vt 0.7965 0.1090 0.0000
vt 0.7981 0.0965 0.0000
vt 0.8420 0.0965 0.0000
vt 0.8420 0.1491 0.0000
vt 0.7965 0.1491 0.0000
vt 0.7965 0.2017 0.0000
vt 0.8420 0.2017 0.0000
vt 0.1364 0.4722 0.0000
vt 0.1364 0.5263 0.0000
vt 0.0000 0.5263 0.0000
vt 0.0000 0.4722 0.0000
vt 0.1545 0.4729 0.0000
vt 0.1545 0.5270 0.0000
vt 0.0040 0.5263 0.0000
vt 0.0040 0.4722 0.0000
vt 0.0960 0.4722 0.0000
vt 0.0960 0.5263 0.0000
vt 0.7965 0.8910 0.0000
vt 0.7965 0.8509 0.0000
vt 0.8420 0.8509 0.0000
vt 0.1364 0.8509 0.0000
vt 0.0000 0.8509 0.0000
vt 0.0960 0.8509 0.0000
vt 0.7965 0.5804 0.0000
vt 0.7965 0.5263 0.0000
vt 0.8420 0.5263 0.0000
vt 0.8420 0.5804 0.0000
vt 0.1364 0.7968 0.0000
vt 0.0000 0.7968 0.0000
vt 0.1364 0.7427 0.0000
vt 0.0000 0.7427 0.0000
vt 0.1364 0.6886 0.0000
vt 0.0000 0.6886 0.0000
vt 0.1364 0.6345 0.0000
vt 0.0000 0.6345 0.0000
vt 0.1364 0.5804 0.0000
vt 0.0000 0.5804 0.0000
vt 0.0000 0.2558 0.0000
vt 0.1364 0.2558 0.0000
vt 0.0000 0.3099 0.0000
vt 0.1364 0.3099 0.0000
vt 0.0000 0.3640 0.0000
vt 0.1364 0.3640 0.0000
vt 0.0000 0.4181 0.0000
vt 0.1364 0.4181 0.0000
vt 0.1545 0.7975 0.0000
vt 0.1545 0.8516 0.0000
vt 0.0040 0.8509 0.0000
vt 0.0040 0.7968 0.0000
vt 0.1545 0.7434 0.0000
vt 0.0040 0.7427 0.0000
vt 0.1545 0.6893 0.0000
vt 0.0040 0.6886 0.0000
vt 0.1545 0.6352 0.0000
vt 0.0040 0.6345 0.0000
vt 0.1545 0.5811 0.0000
vt 0.0040 0.5804 0.0000
vt 0.0040 0.2558 0.0000
vt 0.1545 0.2566 0.0000
vt 0.0040 0.3099 0.0000
vt 0.1545 0.3107 0.0000
vt 0.0040 0.3640 0.0000
vt 0.1545 0.3648 0.0000
vt 0.0040 0.4181 0.0000
vt 0.1545 0.4188 0.0000
vt 0.0960 0.7968 0.0000
vt 0.0960 0.7427 0.0000
vt 0.0960 0.6886 0.0000
vt 0.0960 0.6345 0.0000
vt 0.0960 0.5804 0.0000
vt 0.0960 0.2558 0.0000
vt 0.0960 0.3099 0.0000
vt 0.0960 0.3640 0.0000
vt 0.0960 0.4181 0.0000
vt 0.7965 0.2558 0.0000
vt 0.8420 0.2558 0.0000
vt 0.7965 0.3099 0.0000
vt 0.8420 0.3099 0.0000
vt 0.7965 0.3640 0.0000
vt 0.8420 0.3640 0.0000
vt 0.7965 0.4181 0.0000
vt 0.8420 0.4181 0.0000
vt 0.7965 0.4722 0.0000
vt 0.8420 0.4722 0.0000
vt 0.8420 0.7968 0.0000
vt 0.7965 0.7968 0.0000
vt 0.8420 0.7427 0.0000
vt 0.7965 0.7427 0.0000
vt 0.8420 0.6886 0.0000
vt 0.7965 0.6886 0.0000
vt 0.8420 0.6345 0.0000
vt 0.7965 0.6345 0.0000
vt 0.1596 0.0542 0.0000
vt 0.1566 0.0418 0.0000
vt 0.1566 0.0542 0.0000
vt 0.8420 0.0525 0.0000
vt 0.8298 0.0644 0.0000
vt 0.8389 0.0525 0.0000
vt 0.8087 0.0847 0.0000
# 204 texture coords

g BusBoth_Pavement
s 1
f 1/1/1 2/2/1 3/3/1 4/4/1 
f 4/4/1 3/3/1 5/5/1 6/6/1 
f 6/6/1 5/5/1 7/7/1 8/8/1 
f 8/8/1 7/7/1 9/9/1 10/10/1 
f 10/10/1 9/9/1 11/11/1 12/12/1 
f 12/12/1 11/11/1 13/13/1 14/14/1 
f 14/14/1 13/13/1 15/15/1 16/16/1 
f 16/16/1 15/15/1 17/17/1 18/18/1 
f 18/18/1 17/17/1 19/19/1 20/20/1 
f 20/20/1 19/19/1 21/21/1 22/22/1 
f 22/22/1 21/21/1 23/23/1 24/24/1 
f 24/24/1 23/23/1 25/25/1 26/26/1 
f 26/26/1 25/25/1 27/27/1 28/28/1 
f 28/28/1 27/27/1 29/29/1 30/30/1 
f 30/30/1 29/29/1 31/31/1 32/32/1 
f 32/32/1 31/31/1 33/33/1 34/34/1 
f 34/34/1 33/33/1 35/35/1 36/36/1 
f 36/36/1 35/35/1 37/37/1 38/38/1 
f 38/38/1 37/37/1 39/39/1 40/40/1 
f 40/40/1 39/39/1 41/41/1 42/42/1 
f 42/42/1 41/41/1 43/43/1 44/44/1 
f 43/43/1 45/45/1 46/46/1 44/44/1 
s 2
f 47/47/2 48/48/2 49/49/2 50/50/2 
s 1
f 51/51/1 52/52/1 53/53/1 54/54/1 
f 47/55/1 52/52/1 51/51/1 48/56/1 
s 2
f 48/48/2 55/57/2 56/58/2 49/49/2 
f 53/59/3 52/60/4 57/60/4 58/59/5 
f 55/57/2 59/61/2 60/62/2 56/58/2 
s 1
f 51/51/1 61/63/1 62/64/1 48/56/1 
f 63/65/1 64/66/1 62/64/1 61/63/1 
f 62/64/1 59/67/1 55/68/1 48/56/1 
s 2
f 63/69/6 61/70/7 65/70/8 66/69/9 
s 1
f 51/51/1 54/54/1 61/63/1 
f 62/64/1 64/66/1 67/71/1 
s 2
f 58/59/5 68/72/10 54/72/11 53/59/3 
f 69/73/12 70/74/13 64/75/14 
f 66/69/9 69/73/12 64/75/14 63/69/6 
f 68/72/10 65/70/8 61/70/7 54/72/11 
f 67/76/15 64/75/14 70/74/13 71/76/16 
f 72/77/2 73/78/2 74/79/2 75/80/2 
s 1
f 76/51/1 77/53/1 78/52/1 
f 76/51/1 78/52/1 72/55/1 75/56/1 
s 2
f 75/80/2 74/79/2 79/81/2 80/82/2 
f 77/83/17 81/83/18 82/84/4 78/84/4 
s 1
f 83/64/1 84/65/1 85/63/1 
f 76/51/1 75/56/1 83/64/1 85/63/1 
f 80/68/1 83/64/1 75/56/1 
s 2
f 84/85/19 86/85/20 87/86/21 85/86/22 
s 1
f 76/51/1 85/63/1 88/54/1 77/53/1 
f 89/66/1 84/65/1 83/64/1 90/71/1 
s 2
f 81/83/18 77/83/17 88/87/23 91/87/24 
f 86/85/20 84/85/19 89/88/25 92/89/26 
f 91/87/24 88/87/23 85/86/22 87/86/21 
f 90/90/27 93/90/28 92/89/26 89/88/25 
s 1
f 94/91/1 59/67/1 62/64/1 67/71/1 
s 2
f 67/76/15 71/76/16 95/92/29 94/92/30 
s off
f 96/93/1 97/94/1 98/95/1 99/96/1 
f 98/95/1 100/97/1 101/98/1 99/96/1 
s 2
f 59/61/2 102/99/2 103/100/2 60/62/2 
s 1
f 94/101/1 104/102/1 102/103/1 59/104/1 
s 2
f 95/92/29 105/105/4 104/105/4 94/92/30 
s off
f 106/106/1 107/107/1 108/107/1 109/108/1 
f 106/106/1 109/108/1 110/109/1 95/110/1 
f 105/111/1 95/110/1 110/109/1 111/112/1 
s 2
f 112/113/2 113/114/2 114/115/2 115/116/2 
s 1
f 116/117/1 117/118/1 113/119/1 112/120/1 
s 2
f 118/121/4 119/122/4 117/122/4 116/121/4 
s off
f 120/123/1 121/124/1 98/95/1 97/94/1 
f 121/124/1 122/125/1 98/95/1 
s 2
f 123/126/2 80/82/2 79/81/2 124/127/2 
s 1
f 83/64/1 80/68/1 123/67/1 90/71/1 
f 125/91/1 90/71/1 123/67/1 
s 2
f 121/128/31 93/90/28 90/90/27 125/128/32 
s off
f 126/129/1 119/130/1 127/131/1 128/132/1 
s 2
f 129/133/2 123/126/2 124/127/2 130/134/2 
f 131/135/2 129/133/2 130/134/2 132/136/2 
f 133/137/2 131/135/2 132/136/2 134/138/2 
f 135/139/2 133/137/2 134/138/2 136/140/2 
f 137/141/2 135/139/2 136/140/2 138/142/2 
f 113/114/2 137/141/2 138/142/2 114/115/2 
f 139/143/2 103/100/2 102/99/2 140/144/2 
f 141/145/2 139/143/2 140/144/2 142/146/2 
f 143/147/2 141/145/2 142/146/2 144/148/2 
f 145/149/2 143/147/2 144/148/2 146/150/2 
f 115/116/2 145/149/2 146/150/2 112/113/2 
s 1
f 147/151/1 125/152/1 123/153/1 129/154/1 
f 148/155/1 147/151/1 129/154/1 131/156/1 
f 149/157/1 148/155/1 131/156/1 133/158/1 
f 150/159/1 149/157/1 133/158/1 135/160/1 
f 151/161/1 150/159/1 135/160/1 137/162/1 
f 117/118/1 151/161/1 137/162/1 113/119/1 
f 140/163/1 102/103/1 104/102/1 152/164/1 
f 142/165/1 140/163/1 152/164/1 153/166/1 
f 144/167/1 142/165/1 153/166/1 154/168/1 
f 146/169/1 144/167/1 154/168/1 155/170/1 
f 112/120/1 146/169/1 155/170/1 116/117/1 
s 2
f 156/171/4 121/128/31 125/128/32 147/171/4 
f 157/172/4 156/171/4 147/171/4 148/172/4 
f 158/173/4 157/172/4 148/172/4 149/173/4 
f 159/174/4 158/173/4 149/173/4 150/174/4 
f 126/175/4 159/174/4 150/174/4 151/175/4 
f 119/122/4 126/175/4 151/175/4 117/122/4 
f 152/176/4 104/105/4 105/105/4 160/176/4 
f 153/177/4 152/176/4 160/176/4 161/177/4 
f 154/178/4 153/177/4 161/177/4 162/178/4 
f 155/179/4 154/178/4 162/178/4 163/179/4 
f 116/121/4 155/179/4 163/179/4 118/121/4 
s off
f 160/180/1 105/111/1 111/112/1 164/181/1 
f 161/182/1 160/180/1 164/181/1 165/183/1 
f 162/184/1 161/182/1 165/183/1 166/185/1 
f 163/186/1 162/184/1 166/185/1 167/187/1 
f 118/188/1 163/186/1 167/187/1 168/189/1 
f 119/130/1 118/188/1 168/189/1 127/131/1 
f 169/190/1 122/125/1 121/124/1 156/191/1 
f 170/192/1 169/190/1 156/191/1 157/193/1 
f 171/194/1 170/192/1 157/193/1 158/195/1 
f 172/196/1 171/194/1 158/195/1 159/197/1 
f 128/132/1 172/196/1 159/197/1 126/129/1 
f 173/198/1 174/199/1 175/200/1 
f 175/201/1 109/108/1 176/202/1 173/203/1 
f 177/204/1 176/202/1 109/108/1 108/107/1 
s 2
f 178/49/33 179/48/33 180/47/33 181/50/33 
s 1
f 182/53/1 183/52/1 184/51/1 185/54/1 
f 184/51/1 183/52/1 180/55/1 179/56/1 
s 2
f 186/58/33 187/57/33 179/48/33 178/49/33 
f 188/60/34 183/60/34 182/59/35 189/59/36 
f 190/62/33 191/61/33 187/57/33 186/58/33 
s 1
f 192/64/1 193/63/1 184/51/1 179/56/1 
f 192/64/1 194/66/1 195/65/1 193/63/1 
f 187/68/1 191/67/1 192/64/1 179/56/1 
s 2
f 196/70/37 193/70/38 195/69/39 197/69/40 
s 1
f 184/51/1 193/63/1 185/54/1 
f 192/64/1 198/71/1 194/66/1 
s 2
f 185/72/41 199/72/42 189/59/36 182/59/35 
f 200/73/43 194/75/44 201/74/45 
f 194/75/44 200/73/43 197/69/40 195/69/39 
f 193/70/38 196/70/37 199/72/42 185/72/41 
f 201/74/45 194/75/44 198/76/46 202/76/47 
f 203/79/33 204/78/33 205/77/33 206/80/33 
s 1
f 207/51/1 208/52/1 209/53/1 
f 205/55/1 208/52/1 207/51/1 206/56/1 
s 2
f 210/81/33 203/79/33 206/80/33 211/82/33 
f 212/84/34 213/83/48 209/83/49 208/84/34 
s 1
f 214/64/1 215/63/1 216/65/1 
f 214/64/1 206/56/1 207/51/1 215/63/1 
f 211/68/1 206/56/1 214/64/1 
s 2
f 217/86/50 218/85/51 216/85/52 215/86/53 
s 1
f 219/54/1 215/63/1 207/51/1 209/53/1 
f 214/64/1 216/65/1 220/66/1 221/71/1 
s 2
f 219/87/54 209/83/49 213/83/48 222/87/55 
f 220/88/56 216/85/52 218/85/51 223/89/57 
f 215/86/53 219/87/54 222/87/55 217/86/50 
f 223/89/57 224/90/58 221/90/59 220/88/56 
s 1
f 192/64/1 191/67/1 225/91/1 198/71/1 
s 2
f 226/92/60 202/76/47 198/76/46 225/92/61 
s off
f 227/95/1 228/94/1 229/93/1 230/96/1 
f 231/98/1 232/97/1 227/95/1 230/96/1 
s 2
f 233/100/33 234/99/33 191/61/33 190/62/33 
s 1
f 234/103/1 235/102/1 225/101/1 191/104/1 
s 2
f 235/105/34 236/105/34 226/92/60 225/92/61 
s off
f 237/107/1 238/107/1 239/106/1 240/108/1 
f 241/109/1 240/108/1 239/106/1 226/110/1 
f 241/109/1 226/110/1 236/111/1 242/112/1 
s 2
f 243/115/33 244/114/33 245/113/33 246/116/33 
s 1
f 244/119/1 247/118/1 248/117/1 245/120/1 
s 2
f 247/122/34 249/122/34 250/121/34 248/121/34 
s off
f 227/95/1 251/124/1 252/123/1 228/94/1 
f 251/124/1 227/95/1 253/125/1 
s 2
f 210/81/33 211/82/33 254/126/33 255/127/33 
s 1
f 254/67/1 211/68/1 214/64/1 221/71/1 
f 256/91/1 254/67/1 221/71/1 
s 2
f 221/90/59 224/90/58 251/128/62 256/128/63 
s off
f 257/131/1 249/130/1 258/129/1 259/132/1 
s 2
f 255/127/33 254/126/33 260/133/33 261/134/33 
f 261/134/33 260/133/33 262/135/33 263/136/33 
f 263/136/33 262/135/33 264/137/33 265/138/33 
f 265/138/33 264/137/33 266/139/33 267/140/33 
f 267/140/33 266/139/33 268/141/33 269/142/33 
f 269/142/33 268/141/33 244/114/33 243/115/33 
f 234/99/33 233/100/33 270/143/33 271/144/33 
f 271/144/33 270/143/33 272/145/33 273/146/33 
f 273/146/33 272/145/33 274/147/33 275/148/33 
f 275/148/33 274/147/33 276/149/33 277/150/33 
f 277/150/33 276/149/33 246/116/33 245/113/33 
s 1
f 254/153/1 256/152/1 278/151/1 260/154/1 
f 260/154/1 278/151/1 279/155/1 262/156/1 
f 262/156/1 279/155/1 280/157/1 264/158/1 
f 264/158/1 280/157/1 281/159/1 266/160/1 
f 266/160/1 281/159/1 282/161/1 268/162/1 
f 268/162/1 282/161/1 247/118/1 244/119/1 
f 235/102/1 234/103/1 271/163/1 283/164/1 
f 283/164/1 271/163/1 273/165/1 284/166/1 
f 284/166/1 273/165/1 275/167/1 285/168/1 
f 285/168/1 275/167/1 277/169/1 286/170/1 
f 286/170/1 277/169/1 245/120/1 248/117/1 
s 2
f 256/128/63 251/128/62 287/171/34 278/171/34 
f 278/171/34 287/171/34 288/172/34 279/172/34 
f 279/172/34 288/172/34 289/173/34 280/173/34 
f 280/173/34 289/173/34 290/174/34 281/174/34 
f 281/174/34 290/174/34 258/175/34 282/175/34 
f 282/175/34 258/175/34 249/122/34 247/122/34 
f 236/105/34 235/105/34 283/176/34 291/176/34 
f 291/176/34 283/176/34 284/177/34 292/177/34 
f 292/177/34 284/177/34 285/178/34 293/178/34 
f 293/178/34 285/178/34 286/179/34 294/179/34 
f 294/179/34 286/179/34 248/121/34 250/121/34 
s off
f 242/112/1 236/111/1 291/180/1 295/181/1 
f 295/181/1 291/180/1 292/182/1 296/183/1 
f 296/183/1 292/182/1 293/184/1 297/185/1 
f 297/185/1 293/184/1 294/186/1 298/187/1 
f 298/187/1 294/186/1 250/188/1 299/189/1 
f 299/189/1 250/188/1 249/130/1 257/131/1 
f 251/124/1 253/125/1 300/190/1 287/191/1 
f 287/191/1 300/190/1 301/192/1 288/193/1 
f 288/193/1 301/192/1 302/194/1 289/195/1 
f 289/195/1 302/194/1 303/196/1 290/197/1 
f 290/197/1 303/196/1 259/132/1 258/129/1 
f 304/198/1 305/200/1 306/199/1 
f 307/202/1 240/108/1 305/201/1 304/203/1 
f 240/108/1 307/202/1 308/204/1 237/107/1 
# 202 polygons - 18 triangles

