# 3ds Max Wavefront OBJ Exporter v0.97b - (c)2007 guruware
# File Created: 13.01.2018 18:16:58

#
# object LargeRoadNode_002
#

v  9.0000 0.0000 -2.9091
v  9.0000 0.0000 -5.8182
v  9.0000 -0.3000 -5.8182
v  9.0000 -0.3000 -2.9091
v  9.0000 0.0000 -0.0000
v  9.0000 -0.3000 -0.0000
v  9.0000 0.0000 2.9091
v  9.0000 -0.3000 2.9091
v  9.0000 0.0000 5.8182
v  9.0000 -0.3000 5.8182
v  9.0000 0.0000 8.7273
v  9.0000 -0.3000 8.7273
v  9.0000 0.0000 11.6364
v  9.0000 -0.3000 11.6364
v  9.0000 0.0000 14.5455
v  9.0000 -0.3000 14.5455
v  9.0000 0.0000 17.4545
v  9.0000 -0.3000 17.4545
v  9.0000 0.0000 20.3636
v  9.0000 -0.3000 20.3636
v  9.0000 0.0000 23.2727
v  9.0000 -0.3000 23.2727
v  9.0000 0.0000 26.1818
v  9.0000 -0.3000 26.1818
v  9.0000 0.0000 29.0909
v  9.0000 -0.3000 29.0909
v  9.0000 0.0000 32.0000
v  9.0000 -0.3000 32.0000
v  9.0000 0.0000 -29.0909
v  9.0000 0.0000 -32.0000
v  9.0000 -0.3000 -32.0000
v  9.0000 -0.3000 -29.0909
v  9.0000 0.0000 -26.1818
v  9.0000 -0.3000 -26.1818
v  9.0000 0.0000 -23.2727
v  9.0000 -0.3000 -23.2727
v  9.0000 0.0000 -20.3636
v  9.0000 -0.3000 -20.3636
v  9.0000 0.0000 -17.4545
v  9.0000 -0.3000 -17.4545
v  9.0000 0.0000 -14.5455
v  9.0000 -0.3000 -14.5455
v  9.0000 0.0000 -11.6364
v  9.0000 -0.3000 -11.6364
v  9.0000 0.0000 -8.7273
v  9.0000 -0.3000 -8.7273
v  12.0000 0.0000 -29.0909
v  12.0000 0.0000 -32.0000
v  12.0000 0.0000 -26.1818
v  12.0000 0.0000 -23.2727
v  12.0000 0.0000 -20.3636
v  12.0000 0.0000 -17.4545
v  12.0000 0.0000 -14.5455
v  12.0000 0.0000 -11.6364
v  12.0000 0.0000 -8.7273
v  12.0000 0.0000 -5.8182
v  12.0000 0.0000 -2.9091
v  12.0000 0.0000 -0.0000
v  12.0000 0.0000 2.9091
v  12.0000 0.0000 5.8182
v  12.0000 0.0000 8.7273
v  12.0000 0.0000 11.6364
v  12.0000 0.0000 14.5455
v  12.0000 0.0000 17.4545
v  12.0000 0.0000 20.3636
v  12.0000 0.0000 23.2727
v  12.0000 0.0000 26.1818
v  12.0000 0.0000 29.0909
v  12.0000 0.0000 32.0000
# 69 vertices

vn -1.0000 0.0000 -0.0000
vn 0.0000 1.0000 -0.0000
# 2 vertex normals

vt 0.3988 0.5454 0.0000
vt 0.3988 0.5909 0.0000
vt 0.4050 0.5909 0.0000
vt 0.4050 0.5454 0.0000
vt 0.3988 0.5000 0.0000
vt 0.4050 0.5000 0.0000
vt 0.3988 0.4545 0.0000
vt 0.4050 0.4545 0.0000
vt 0.3988 0.4091 0.0000
vt 0.4050 0.4091 0.0000
vt 0.3988 0.3636 0.0000
vt 0.4050 0.3636 0.0000
vt 0.3988 0.3182 0.0000
vt 0.4050 0.3182 0.0000
vt 0.3988 0.2727 0.0000
vt 0.4050 0.2727 0.0000
vt 0.3988 0.2273 0.0000
vt 0.4050 0.2273 0.0000
vt 0.3988 0.1818 0.0000
vt 0.4050 0.1818 0.0000
vt 0.3988 0.1364 0.0000
vt 0.4050 0.1364 0.0000
vt 0.3988 0.0909 0.0000
vt 0.4050 0.0909 0.0000
vt 0.3988 0.0454 0.0000
vt 0.4050 0.0454 0.0000
vt 0.3988 0.0000 0.0000
vt 0.4050 0.0000 0.0000
vt 0.3988 0.9546 0.0000
vt 0.3988 1.0000 0.0000
vt 0.4050 1.0000 0.0000
vt 0.4050 0.9546 0.0000
vt 0.3988 0.9091 0.0000
vt 0.4050 0.9091 0.0000
vt 0.3988 0.8636 0.0000
vt 0.4050 0.8636 0.0000
vt 0.3988 0.8182 0.0000
vt 0.4050 0.8182 0.0000
vt 0.3988 0.7727 0.0000
vt 0.4050 0.7727 0.0000
vt 0.3988 0.7273 0.0000
vt 0.4050 0.7273 0.0000
vt 0.3988 0.6818 0.0000
vt 0.4050 0.6818 0.0000
vt 0.3988 0.6364 0.0000
vt 0.4050 0.6364 0.0000
vt 0.4000 0.9546 0.0000
vt 0.6064 0.9546 0.0000
vt 0.6064 1.0000 0.0000
vt 0.4000 1.0000 0.0000
vt 0.4000 0.9091 0.0000
vt 0.6064 0.9091 0.0000
vt 0.4000 0.8636 0.0000
vt 0.6064 0.8636 0.0000
vt 0.4000 0.8182 0.0000
vt 0.6064 0.8182 0.0000
vt 0.4000 0.7727 0.0000
vt 0.6064 0.7727 0.0000
vt 0.4000 0.7273 0.0000
vt 0.6064 0.7273 0.0000
vt 0.4000 0.6818 0.0000
vt 0.6064 0.6818 0.0000
vt 0.4000 0.6364 0.0000
vt 0.6064 0.6364 0.0000
vt 0.4000 0.5909 0.0000
vt 0.6064 0.5909 0.0000
vt 0.4000 0.5454 0.0000
vt 0.6064 0.5454 0.0000
vt 0.4000 0.5000 0.0000
vt 0.6064 0.5000 0.0000
vt 0.4000 0.4545 0.0000
vt 0.6064 0.4546 0.0000
vt 0.4000 0.4091 0.0000
vt 0.6064 0.4091 0.0000
vt 0.4000 0.3636 0.0000
vt 0.6064 0.3636 0.0000
vt 0.4000 0.3182 0.0000
vt 0.6064 0.3182 0.0000
vt 0.4000 0.2727 0.0000
vt 0.6064 0.2727 0.0000
vt 0.4000 0.2273 0.0000
vt 0.6064 0.2273 0.0000
vt 0.4000 0.1818 0.0000
vt 0.6064 0.1818 0.0000
vt 0.4000 0.1364 0.0000
vt 0.6064 0.1364 0.0000
vt 0.4000 0.0909 0.0000
vt 0.6064 0.0909 0.0000
vt 0.4000 0.0454 0.0000
vt 0.6064 0.0454 0.0000
vt 0.4000 0.0000 0.0000
vt 0.6064 0.0000 0.0000
# 92 texture coords

g LargeRoadNode_002
s 1
f 1/1/1 2/2/1 3/3/1 4/4/1 
f 5/5/1 1/1/1 4/4/1 6/6/1 
f 7/7/1 5/5/1 6/6/1 8/8/1 
f 9/9/1 7/7/1 8/8/1 10/10/1 
f 11/11/1 9/9/1 10/10/1 12/12/1 
f 13/13/1 11/11/1 12/12/1 14/14/1 
f 15/15/1 13/13/1 14/14/1 16/16/1 
f 17/17/1 15/15/1 16/16/1 18/18/1 
f 19/19/1 17/17/1 18/18/1 20/20/1 
f 21/21/1 19/19/1 20/20/1 22/22/1 
f 23/23/1 21/21/1 22/22/1 24/24/1 
f 25/25/1 23/23/1 24/24/1 26/26/1 
f 27/27/1 25/25/1 26/26/1 28/28/1 
f 29/29/1 30/30/1 31/31/1 32/32/1 
f 33/33/1 29/29/1 32/32/1 34/34/1 
f 35/35/1 33/33/1 34/34/1 36/36/1 
f 37/37/1 35/35/1 36/36/1 38/38/1 
f 39/39/1 37/37/1 38/38/1 40/40/1 
f 41/41/1 39/39/1 40/40/1 42/42/1 
f 43/43/1 41/41/1 42/42/1 44/44/1 
f 45/45/1 43/43/1 44/44/1 46/46/1 
f 2/2/1 45/45/1 46/46/1 3/3/1 
f 29/47/2 47/48/2 48/49/2 30/50/2 
f 33/51/2 49/52/2 47/48/2 29/47/2 
f 35/53/2 50/54/2 49/52/2 33/51/2 
f 37/55/2 51/56/2 50/54/2 35/53/2 
f 39/57/2 52/58/2 51/56/2 37/55/2 
f 41/59/2 53/60/2 52/58/2 39/57/2 
f 43/61/2 54/62/2 53/60/2 41/59/2 
f 45/63/2 55/64/2 54/62/2 43/61/2 
f 2/65/2 56/66/2 55/64/2 45/63/2 
f 1/67/2 57/68/2 56/66/2 2/65/2 
f 5/69/2 58/70/2 57/68/2 1/67/2 
f 7/71/2 59/72/2 58/70/2 5/69/2 
f 9/73/2 60/74/2 59/72/2 7/71/2 
f 11/75/2 61/76/2 60/74/2 9/73/2 
f 13/77/2 62/78/2 61/76/2 11/75/2 
f 15/79/2 63/80/2 62/78/2 13/77/2 
f 17/81/2 64/82/2 63/80/2 15/79/2 
f 19/83/2 65/84/2 64/82/2 17/81/2 
f 21/85/2 66/86/2 65/84/2 19/83/2 
f 23/87/2 67/88/2 66/86/2 21/85/2 
f 25/89/2 68/90/2 67/88/2 23/87/2 
f 27/91/2 69/92/2 68/90/2 25/89/2 
# 44 polygons

