# 3ds Max Wavefront OBJ Exporter v0.97b - (c)2007 guruware
# File Created: 09.01.2016 01:19:44

#
# object Plane005
#

v  -14.2500 0.0000 -0.0000
v  -9.0000 0.0000 -0.0000
v  -9.0000 0.0000 -5.3333
v  -14.2500 0.0000 -5.3333
v  -14.2500 7.0000 -0.0000
v  -14.2500 7.0000 5.3333
v  -14.2500 0.0000 5.3333
v  14.2500 0.0000 -0.0000
v  14.2500 7.0000 -0.0000
v  14.2500 7.0000 -5.3333
v  14.2500 0.0000 -5.3333
v  0.0000 7.0000 -0.0000
v  0.0000 7.0000 -5.3333
v  -16.0000 7.5000 -0.0000
v  -16.0000 -0.5000 -0.0000
v  -16.0000 -0.5000 5.3333
v  -16.0000 7.5000 5.3333
v  16.0000 7.5000 -0.0000
v  16.0000 -0.5000 -0.0000
v  16.0000 -0.5000 -5.3333
v  16.0000 7.5000 -5.3333
v  0.0000 7.5000 -0.0000
v  0.0000 7.5000 5.3333
v  16.0000 7.5000 5.3333
v  9.0000 0.0000 -0.0000
v  9.0000 0.0000 5.3333
v  14.2500 0.0000 5.3333
v  0.0000 -0.3000 -0.0000
v  -9.0000 -0.3000 -0.0000
v  -9.0000 -0.3000 5.3333
v  0.0000 -0.3000 5.3333
v  -9.0000 -0.3000 -5.3333
v  9.0000 -0.3000 -0.0000
v  9.0000 -0.3000 5.3333
v  0.0000 7.0000 5.3333
v  0.0000 7.5000 -5.3333
v  -16.0000 7.5000 -5.3333
v  -14.2500 0.0000 32.0000
v  -9.0000 0.0000 32.0000
v  -9.0000 0.0000 26.6667
v  -14.2500 0.0000 26.6667
v  -9.0000 0.0000 21.3333
v  -14.2500 0.0000 21.3333
v  -9.0000 0.0000 16.0000
v  -14.2500 0.0000 16.0000
v  -9.0000 0.0000 10.6667
v  -14.2500 0.0000 10.6667
v  -9.0000 0.0000 5.3333
v  -9.0000 0.0000 -32.0000
v  -14.2500 0.0000 -32.0000
v  -14.2500 0.0000 -26.6667
v  -9.0000 0.0000 -26.6667
v  -14.2500 0.0000 -21.3333
v  -9.0000 0.0000 -21.3333
v  -14.2500 0.0000 -16.0000
v  -9.0000 0.0000 -16.0000
v  -14.2500 0.0000 -10.6667
v  -9.0000 0.0000 -10.6667
v  -14.2500 7.0000 -32.0000
v  -14.2500 7.0000 -26.6667
v  -14.2500 7.0000 -21.3333
v  -14.2500 7.0000 -16.0000
v  -14.2500 7.0000 -10.6667
v  -14.2500 7.0000 -5.3333
v  -14.2500 7.0000 32.0000
v  -14.2500 7.0000 26.6667
v  -14.2500 7.0000 21.3333
v  -14.2500 7.0000 16.0000
v  -14.2500 7.0000 10.6667
v  14.2500 0.0000 32.0000
v  14.2500 7.0000 32.0000
v  14.2500 7.0000 26.6667
v  14.2500 0.0000 26.6667
v  14.2500 7.0000 21.3333
v  14.2500 0.0000 21.3333
v  14.2500 7.0000 16.0000
v  14.2500 0.0000 16.0000
v  14.2500 7.0000 10.6667
v  14.2500 0.0000 10.6667
v  14.2500 7.0000 5.3333
v  14.2500 7.0000 -32.0000
v  14.2500 0.0000 -32.0000
v  14.2500 0.0000 -26.6667
v  14.2500 7.0000 -26.6667
v  14.2500 0.0000 -21.3333
v  14.2500 7.0000 -21.3333
v  14.2500 0.0000 -16.0000
v  14.2500 7.0000 -16.0000
v  14.2500 0.0000 -10.6667
v  14.2500 7.0000 -10.6667
v  0.0000 7.0000 32.0000
v  0.0000 7.0000 26.6667
v  0.0000 7.0000 21.3333
v  0.0000 7.0000 16.0000
v  0.0000 7.0000 10.6667
v  0.0000 7.0000 -32.0000
v  0.0000 7.0000 -26.6667
v  0.0000 7.0000 -21.3333
v  0.0000 7.0000 -16.0000
v  0.0000 7.0000 -10.6667
v  -16.0000 7.5000 -32.0000
v  -16.0000 -0.5000 -32.0000
v  -16.0000 -0.5000 -26.6667
v  -16.0000 7.5000 -26.6667
v  -16.0000 -0.5000 -21.3333
v  -16.0000 7.5000 -21.3333
v  -16.0000 -0.5000 -16.0000
v  -16.0000 7.5000 -16.0000
v  -16.0000 -0.5000 -10.6667
v  -16.0000 7.5000 -10.6667
v  -16.0000 -0.5000 -5.3333
v  -16.0000 -0.5000 32.0000
v  -16.0000 7.5000 32.0000
v  -16.0000 7.5000 26.6667
v  -16.0000 -0.5000 26.6667
v  -16.0000 7.5000 21.3333
v  -16.0000 -0.5000 21.3333
v  -16.0000 7.5000 16.0000
v  -16.0000 -0.5000 16.0000
v  -16.0000 7.5000 10.6667
v  -16.0000 -0.5000 10.6667
v  16.0000 7.5000 32.0000
v  16.0000 -0.5000 32.0000
v  16.0000 -0.5000 26.6667
v  16.0000 7.5000 26.6667
v  16.0000 -0.5000 21.3333
v  16.0000 7.5000 21.3333
v  16.0000 -0.5000 16.0000
v  16.0000 7.5000 16.0000
v  16.0000 -0.5000 10.6667
v  16.0000 7.5000 10.6667
v  16.0000 -0.5000 5.3333
v  16.0000 -0.5000 -32.0000
v  16.0000 7.5000 -32.0000
v  16.0000 7.5000 -26.6667
v  16.0000 -0.5000 -26.6667
v  16.0000 7.5000 -21.3333
v  16.0000 -0.5000 -21.3333
v  16.0000 7.5000 -16.0000
v  16.0000 -0.5000 -16.0000
v  16.0000 7.5000 -10.6667
v  16.0000 -0.5000 -10.6667
v  0.0000 7.5000 -32.0000
v  0.0000 7.5000 -26.6667
v  0.0000 7.5000 -21.3333
v  0.0000 7.5000 -16.0000
v  0.0000 7.5000 -10.6667
v  0.0000 7.5000 32.0000
v  0.0000 7.5000 26.6667
v  0.0000 7.5000 21.3333
v  0.0000 7.5000 16.0000
v  0.0000 7.5000 10.6667
v  9.0000 0.0000 -32.0000
v  9.0000 0.0000 -26.6667
v  9.0000 0.0000 -21.3333
v  9.0000 0.0000 -16.0000
v  9.0000 0.0000 -10.6667
v  9.0000 0.0000 -5.3333
v  9.0000 0.0000 32.0000
v  9.0000 0.0000 26.6667
v  9.0000 0.0000 21.3333
v  9.0000 0.0000 16.0000
v  9.0000 0.0000 10.6667
v  0.0000 -0.3000 -32.0000
v  -9.0000 -0.3000 -32.0000
v  -9.0000 -0.3000 -26.6667
v  0.0000 -0.3000 -26.6667
v  -9.0000 -0.3000 -21.3333
v  0.0000 -0.3000 -21.3333
v  -9.0000 -0.3000 -16.0000
v  0.0000 -0.3000 -16.0000
v  -9.0000 -0.3000 -10.6667
v  0.0000 -0.3000 -10.6667
v  0.0000 -0.3000 -5.3333
v  -9.0000 -0.3000 32.0000
v  0.0000 -0.3000 32.0000
v  0.0000 -0.3000 26.6667
v  -9.0000 -0.3000 26.6667
v  0.0000 -0.3000 21.3333
v  -9.0000 -0.3000 21.3333
v  0.0000 -0.3000 16.0000
v  -9.0000 -0.3000 16.0000
v  0.0000 -0.3000 10.6667
v  -9.0000 -0.3000 10.6667
v  9.0000 -0.3000 -32.0000
v  9.0000 -0.3000 -26.6667
v  9.0000 -0.3000 -21.3333
v  9.0000 -0.3000 -16.0000
v  9.0000 -0.3000 -10.6667
v  9.0000 -0.3000 -5.3333
v  9.0000 -0.3000 32.0000
v  9.0000 -0.3000 26.6667
v  9.0000 -0.3000 21.3333
v  9.0000 -0.3000 16.0000
v  9.0000 -0.3000 10.6667
# 195 vertices

vn 0.0000 1.0000 -0.0000
vn 1.0000 0.0000 -0.0000
vn -1.0000 0.0000 -0.0000
vn 0.0000 -1.0000 -0.0000
vn 0.0000 -1.0000 0.0000
# 5 vertex normals

vt 0.9466 0.0000 0.0000
vt 0.9466 0.0000 0.0000
vt 0.9466 1.0000 0.0000
vt 0.9466 1.0000 0.0000
vt 0.9906 1.0000 0.0000
vt 0.9906 0.0000 0.0000
vt 0.9906 0.0000 0.0000
vt 0.9906 1.0000 0.0000
vt 0.0013 1.0000 0.0000
vt 0.0013 0.0000 0.0000
vt 0.5000 0.0003 0.0000
vt 0.5000 1.0003 0.0000
vt 0.3954 1.0002 0.0000
vt 0.3954 0.0002 0.0000
vt 0.1083 0.0001 0.0000
vt 0.1083 1.0001 0.0000
vt 0.3910 1.0002 0.0000
vt 0.1109 1.0001 0.0000
vt 0.1109 0.0001 0.0000
vt 0.3910 0.0002 0.0000
vt 0.3904 1.0002 0.0000
vt 0.1115 1.0001 0.0000
vt 0.1115 0.0001 0.0000
vt 0.3904 0.0002 0.0000
vt 0.5004 0.0000 0.0000
vt 0.5004 1.0000 0.0000
vt 0.5726 1.0000 0.0000
vt 0.5726 0.0000 0.0000
vt 0.5004 1.0000 0.0000
vt 0.5004 0.0000 0.0000
vt 0.5726 0.0000 0.0000
vt 0.5726 1.0000 0.0000
vt 0.7284 1.0000 0.0000
vt 0.7284 0.0000 0.0000
vt 0.5725 0.0000 0.0000
vt 0.5725 1.0000 0.0000
vt 0.6505 0.0000 0.0000
vt 0.9686 1.0000 0.0000
vt 0.6505 1.0000 0.0000
vt 0.9686 0.0000 0.0000
vt 0.2510 1.0001 0.0000
vt 0.2510 0.0001 0.0000
vt 0.5004 0.9167 0.0000
vt 0.5004 0.8333 0.0000
vt 0.5004 0.7500 0.0000
vt 0.5004 0.6667 0.0000
vt 0.5004 0.5833 0.0000
vt 0.5004 0.5000 0.0000
vt 0.5004 0.4167 0.0000
vt 0.5004 0.3333 0.0000
vt 0.5004 0.2500 0.0000
vt 0.5004 0.1667 0.0000
vt 0.5004 0.0833 0.0000
vt 0.5000 0.9169 0.0000
vt 0.5000 0.8336 0.0000
vt 0.5000 0.7503 0.0000
vt 0.5000 0.6669 0.0000
vt 0.5000 0.5836 0.0000
vt 0.5000 0.5003 0.0000
vt 0.5000 0.4169 0.0000
vt 0.5000 0.3336 0.0000
vt 0.5000 0.2503 0.0000
vt 0.5000 0.1669 0.0000
vt 0.5000 0.0836 0.0000
vt 0.5004 0.0833 0.0000
vt 0.5004 0.1667 0.0000
vt 0.5004 0.2500 0.0000
vt 0.5004 0.3333 0.0000
vt 0.5004 0.4167 0.0000
vt 0.5004 0.5000 0.0000
vt 0.5004 0.5833 0.0000
vt 0.5004 0.6667 0.0000
vt 0.5004 0.7500 0.0000
vt 0.5004 0.8333 0.0000
vt 0.5004 0.9167 0.0000
vt 0.0013 0.0833 0.0000
vt 0.0013 0.1667 0.0000
vt 0.0013 0.2500 0.0000
vt 0.0013 0.3333 0.0000
vt 0.0013 0.4167 0.0000
vt 0.0013 0.5000 0.0000
vt 0.0013 0.5833 0.0000
vt 0.0013 0.6667 0.0000
vt 0.0013 0.7500 0.0000
vt 0.0013 0.8333 0.0000
vt 0.0013 0.9167 0.0000
vt 0.5726 0.9167 0.0000
vt 0.5726 0.8333 0.0000
vt 0.5726 0.7500 0.0000
vt 0.5726 0.6667 0.0000
vt 0.5726 0.5833 0.0000
vt 0.5726 0.5000 0.0000
vt 0.5726 0.4167 0.0000
vt 0.5726 0.3333 0.0000
vt 0.5726 0.2500 0.0000
vt 0.5726 0.1667 0.0000
vt 0.5726 0.0833 0.0000
vt 0.5725 0.9167 0.0000
vt 0.5725 0.8333 0.0000
vt 0.5725 0.7500 0.0000
vt 0.5725 0.6667 0.0000
vt 0.5725 0.5833 0.0000
vt 0.5725 0.5000 0.0000
vt 0.5725 0.4167 0.0000
vt 0.5725 0.3333 0.0000
vt 0.5725 0.2500 0.0000
vt 0.5725 0.1667 0.0000
vt 0.5725 0.0833 0.0000
vt 0.5726 0.0833 0.0000
vt 0.5726 0.1667 0.0000
vt 0.5726 0.2500 0.0000
vt 0.5726 0.3333 0.0000
vt 0.5726 0.4167 0.0000
vt 0.5726 0.5000 0.0000
vt 0.5726 0.5833 0.0000
vt 0.5726 0.6667 0.0000
vt 0.5726 0.7500 0.0000
vt 0.5726 0.8333 0.0000
vt 0.5726 0.9167 0.0000
vt 0.7284 0.0833 0.0000
vt 0.7284 0.1667 0.0000
vt 0.7284 0.2500 0.0000
vt 0.7284 0.3333 0.0000
vt 0.7284 0.4167 0.0000
vt 0.7284 0.5000 0.0000
vt 0.7284 0.5833 0.0000
vt 0.7284 0.6667 0.0000
vt 0.7284 0.7500 0.0000
vt 0.7284 0.8333 0.0000
vt 0.7284 0.9167 0.0000
vt 0.9466 0.9167 0.0000
vt 0.9466 0.8333 0.0000
vt 0.9466 0.7500 0.0000
vt 0.9466 0.6667 0.0000
vt 0.9466 0.5833 0.0000
vt 0.9466 0.5000 0.0000
vt 0.9466 0.4167 0.0000
vt 0.9466 0.3333 0.0000
vt 0.9466 0.2500 0.0000
vt 0.9466 0.1667 0.0000
vt 0.9466 0.0833 0.0000
vt 0.9906 0.0833 0.0000
vt 0.9906 0.1667 0.0000
vt 0.9906 0.2500 0.0000
vt 0.9906 0.3333 0.0000
vt 0.9906 0.4167 0.0000
vt 0.9906 0.5000 0.0000
vt 0.9906 0.5833 0.0000
vt 0.9906 0.6667 0.0000
vt 0.9906 0.7500 0.0000
vt 0.9906 0.8333 0.0000
vt 0.9906 0.9167 0.0000
vt 0.9466 0.9167 0.0000
vt 0.9466 0.8333 0.0000
vt 0.9466 0.7500 0.0000
vt 0.9466 0.6667 0.0000
vt 0.9466 0.5833 0.0000
vt 0.9466 0.5000 0.0000
vt 0.9466 0.4167 0.0000
vt 0.9466 0.3333 0.0000
vt 0.9466 0.2500 0.0000
vt 0.9466 0.1667 0.0000
vt 0.9466 0.0833 0.0000
vt 0.9906 0.0833 0.0000
vt 0.9906 0.1667 0.0000
vt 0.9906 0.2500 0.0000
vt 0.9906 0.3333 0.0000
vt 0.9906 0.4167 0.0000
vt 0.9906 0.5000 0.0000
vt 0.9906 0.5833 0.0000
vt 0.9906 0.6667 0.0000
vt 0.9906 0.7500 0.0000
vt 0.9906 0.8333 0.0000
vt 0.9906 0.9167 0.0000
vt 0.3954 0.0835 0.0000
vt 0.3954 0.1669 0.0000
vt 0.3954 0.2502 0.0000
vt 0.3954 0.3335 0.0000
vt 0.3954 0.4169 0.0000
vt 0.3954 0.5002 0.0000
vt 0.3954 0.5835 0.0000
vt 0.3954 0.6669 0.0000
vt 0.3954 0.7502 0.0000
vt 0.3954 0.8335 0.0000
vt 0.3954 0.9169 0.0000
vt 0.1083 0.9167 0.0000
vt 0.1083 0.8334 0.0000
vt 0.1083 0.7501 0.0000
vt 0.1083 0.6667 0.0000
vt 0.1083 0.5834 0.0000
vt 0.1083 0.5001 0.0000
vt 0.1083 0.4167 0.0000
vt 0.1083 0.3334 0.0000
vt 0.1083 0.2501 0.0000
vt 0.1083 0.1667 0.0000
vt 0.1083 0.0834 0.0000
vt 0.1115 0.9167 0.0000
vt 0.1115 0.8334 0.0000
vt 0.1115 0.7501 0.0000
vt 0.1115 0.6667 0.0000
vt 0.1115 0.5834 0.0000
vt 0.1115 0.5001 0.0000
vt 0.1115 0.4167 0.0000
vt 0.1115 0.3334 0.0000
vt 0.1115 0.2501 0.0000
vt 0.1115 0.1667 0.0000
vt 0.1115 0.0834 0.0000
vt 0.1109 0.9167 0.0000
vt 0.1109 0.8334 0.0000
vt 0.1109 0.7501 0.0000
vt 0.1109 0.6667 0.0000
vt 0.1109 0.5834 0.0000
vt 0.1109 0.5001 0.0000
vt 0.1109 0.4167 0.0000
vt 0.1109 0.3334 0.0000
vt 0.1109 0.2501 0.0000
vt 0.1109 0.1667 0.0000
vt 0.1109 0.0834 0.0000
vt 0.3904 0.0835 0.0000
vt 0.3904 0.1669 0.0000
vt 0.3904 0.2502 0.0000
vt 0.3904 0.3335 0.0000
vt 0.3904 0.4169 0.0000
vt 0.3904 0.5002 0.0000
vt 0.3904 0.5835 0.0000
vt 0.3904 0.6669 0.0000
vt 0.3904 0.7502 0.0000
vt 0.3904 0.8335 0.0000
vt 0.3904 0.9169 0.0000
vt 0.3910 0.0835 0.0000
vt 0.3910 0.1669 0.0000
vt 0.3910 0.2502 0.0000
vt 0.3910 0.3335 0.0000
vt 0.3910 0.4169 0.0000
vt 0.3910 0.5002 0.0000
vt 0.3910 0.5835 0.0000
vt 0.3910 0.6669 0.0000
vt 0.3910 0.7502 0.0000
vt 0.3910 0.8335 0.0000
vt 0.3910 0.9169 0.0000
vt 0.6505 0.0833 0.0000
vt 0.6505 0.1667 0.0000
vt 0.6505 0.2500 0.0000
vt 0.6505 0.3333 0.0000
vt 0.6505 0.4167 0.0000
vt 0.6505 0.5000 0.0000
vt 0.6505 0.5833 0.0000
vt 0.6505 0.6667 0.0000
vt 0.6505 0.7500 0.0000
vt 0.6505 0.8333 0.0000
vt 0.6505 0.9167 0.0000
vt 0.9686 0.9167 0.0000
vt 0.9686 0.8333 0.0000
vt 0.9686 0.7500 0.0000
vt 0.9686 0.6667 0.0000
vt 0.9686 0.5833 0.0000
vt 0.9686 0.5000 0.0000
vt 0.9686 0.4167 0.0000
vt 0.9686 0.3333 0.0000
vt 0.9686 0.2500 0.0000
vt 0.9686 0.1667 0.0000
vt 0.9686 0.0833 0.0000
vt 0.2510 0.0835 0.0000
vt 0.2510 0.1668 0.0000
vt 0.2510 0.2501 0.0000
vt 0.2510 0.3335 0.0000
vt 0.2510 0.4168 0.0000
vt 0.2510 0.5001 0.0000
vt 0.2510 0.5835 0.0000
vt 0.2510 0.6668 0.0000
vt 0.2510 0.7501 0.0000
vt 0.2510 0.8335 0.0000
vt 0.2510 0.9168 0.0000
# 273 texture coords

g Plane005
s 1
f 1/81/1 2/191/1 3/190/1 
f 3/190/1 4/82/1 1/81/1 
s off
f 1/70/2 5/92/2 6/93/2 
f 6/93/2 7/69/2 1/70/2 
f 8/48/3 9/114/3 10/115/3 
f 10/115/3 11/47/3 8/48/3 
f 9/125/4 12/246/4 13/247/4 
f 13/247/4 10/126/4 9/125/4 
f 14/158/3 15/136/3 16/137/3 
f 16/137/3 17/159/3 14/158/3 
f 18/169/2 19/147/2 20/148/2 
f 20/148/2 21/170/2 18/169/2 
f 18/169/1 22/257/1 23/258/1 
f 23/258/1 24/168/1 18/169/1 
s 1
f 8/59/1 25/180/1 26/179/1 
f 26/179/1 27/60/1 8/59/1 
f 28/268/1 29/202/1 30/203/1 
f 30/203/1 31/267/1 28/268/1 
s off
f 2/191/2 29/213/2 32/212/2 
f 32/212/2 3/190/2 2/191/2 
f 25/180/3 33/235/3 34/234/3 
f 34/234/3 26/179/3 25/180/3 
f 5/103/4 12/246/4 35/245/4 
f 35/245/4 6/104/4 5/103/4 
f 14/158/1 22/257/1 36/256/1 
f 36/256/1 37/157/1 14/158/1 
s 1
f 33/224/1 28/268/1 31/267/1 
f 31/267/1 34/223/1 33/224/1 
f 38/10/1 39/15/1 40/196/1 
f 40/196/1 41/76/1 38/10/1 
f 41/76/1 40/196/1 42/195/1 
f 42/195/1 43/77/1 41/76/1 
f 43/77/1 42/195/1 44/194/1 
f 44/194/1 45/78/1 43/77/1 
f 45/78/1 44/194/1 46/193/1 
f 46/193/1 47/79/1 45/78/1 
f 47/79/1 46/193/1 48/192/1 
f 48/192/1 7/80/1 47/79/1 
f 7/80/1 48/192/1 2/191/1 
f 2/191/1 1/81/1 7/80/1 
f 49/16/1 50/9/1 51/86/1 
f 51/86/1 52/186/1 49/16/1 
f 52/186/1 51/86/1 53/85/1 
f 53/85/1 54/187/1 52/186/1 
f 54/187/1 53/85/1 55/84/1 
f 55/84/1 56/188/1 54/187/1 
f 56/188/1 55/84/1 57/83/1 
f 57/83/1 58/189/1 56/188/1 
f 58/189/1 57/83/1 4/82/1 
f 4/82/1 3/190/1 58/189/1 
s off
f 50/26/2 59/27/2 60/87/2 
f 60/87/2 51/75/2 50/26/2 
f 51/75/2 60/87/2 61/88/2 
f 61/88/2 53/74/2 51/75/2 
f 53/74/2 61/88/2 62/89/2 
f 62/89/2 55/73/2 53/74/2 
f 55/73/2 62/89/2 63/90/2 
f 63/90/2 57/72/2 55/73/2 
f 57/72/2 63/90/2 64/91/2 
f 64/91/2 4/71/2 57/72/2 
f 4/71/2 64/91/2 5/92/2 
f 5/92/2 1/70/2 4/71/2 
f 65/28/2 38/25/2 41/65/2 
f 41/65/2 66/97/2 65/28/2 
f 66/97/2 41/65/2 43/66/2 
f 43/66/2 67/96/2 66/97/2 
f 67/96/2 43/66/2 45/67/2 
f 45/67/2 68/95/2 67/96/2 
f 68/95/2 45/67/2 47/68/2 
f 47/68/2 69/94/2 68/95/2 
f 69/94/2 47/68/2 7/69/2 
f 7/69/2 6/93/2 69/94/2 
f 70/30/3 71/31/3 72/109/3 
f 72/109/3 73/53/3 70/30/3 
f 73/53/3 72/109/3 74/110/3 
f 74/110/3 75/52/3 73/53/3 
f 75/52/3 74/110/3 76/111/3 
f 76/111/3 77/51/3 75/52/3 
f 77/51/3 76/111/3 78/112/3 
f 78/112/3 79/50/3 77/51/3 
f 79/50/3 78/112/3 80/113/3 
f 80/113/3 27/49/3 79/50/3 
f 27/49/3 80/113/3 9/114/3 
f 9/114/3 8/48/3 27/49/3 
f 81/32/3 82/29/3 83/43/3 
f 83/43/3 84/119/3 81/32/3 
f 84/119/3 83/43/3 85/44/3 
f 85/44/3 86/118/3 84/119/3 
f 86/118/3 85/44/3 87/45/3 
f 87/45/3 88/117/3 86/118/3 
f 88/117/3 87/45/3 89/46/3 
f 89/46/3 90/116/3 88/117/3 
f 90/116/3 89/46/3 11/47/3 
f 11/47/3 10/115/3 90/116/3 
f 71/34/4 91/37/4 92/241/4 
f 92/241/4 72/120/4 71/34/4 
f 72/120/5 92/241/5 93/242/5 
f 93/242/4 74/121/4 72/120/4 
f 74/121/4 93/242/4 94/243/4 
f 94/243/4 76/122/4 74/121/4 
f 76/122/4 94/243/4 95/244/4 
f 95/244/4 78/123/4 76/122/4 
f 78/123/5 95/244/5 35/245/5 
f 35/245/4 80/124/4 78/123/4 
f 80/124/4 35/245/4 12/246/4 
f 12/246/4 9/125/4 80/124/4 
f 96/39/4 81/33/4 84/130/4 
f 84/130/4 97/251/4 96/39/4 
f 97/251/4 84/130/4 86/129/4 
f 86/129/4 98/250/4 97/251/4 
f 98/250/4 86/129/4 88/128/4 
f 88/128/4 99/249/4 98/250/4 
f 99/249/4 88/128/4 90/127/4 
f 90/127/4 100/248/4 99/249/4 
f 100/248/4 90/127/4 10/126/4 
f 10/126/5 13/247/5 100/248/5 
f 101/3/3 102/4/3 103/131/3 
f 103/131/3 104/153/3 101/3/3 
f 104/153/3 103/131/3 105/132/3 
f 105/132/3 106/154/3 104/153/3 
f 106/154/3 105/132/3 107/133/3 
f 107/133/3 108/155/3 106/154/3 
f 108/155/3 107/133/3 109/134/3 
f 109/134/3 110/156/3 108/155/3 
f 110/156/3 109/134/3 111/135/3 
f 111/135/3 37/157/3 110/156/3 
f 37/157/3 111/135/3 15/136/3 
f 15/136/3 14/158/3 37/157/3 
f 112/1/3 113/2/3 114/163/3 
f 114/163/3 115/141/3 112/1/3 
f 115/141/3 114/163/3 116/162/3 
f 116/162/3 117/140/3 115/141/3 
f 117/140/3 116/162/3 118/161/3 
f 118/161/3 119/139/3 117/140/3 
f 119/139/3 118/161/3 120/160/3 
f 120/160/3 121/138/3 119/139/3 
f 121/138/3 120/160/3 17/159/3 
f 17/159/3 16/137/3 121/138/3 
f 122/6/2 123/7/2 124/142/2 
f 124/142/2 125/164/2 122/6/2 
f 125/164/2 124/142/2 126/143/2 
f 126/143/2 127/165/2 125/164/2 
f 127/165/2 126/143/2 128/144/2 
f 128/144/2 129/166/2 127/165/2 
f 129/166/2 128/144/2 130/145/2 
f 130/145/2 131/167/2 129/166/2 
f 131/167/2 130/145/2 132/146/2 
f 132/146/2 24/168/2 131/167/2 
f 24/168/2 132/146/2 19/147/2 
f 19/147/2 18/169/2 24/168/2 
f 133/8/2 134/5/2 135/174/2 
f 135/174/2 136/152/2 133/8/2 
f 136/152/2 135/174/2 137/173/2 
f 137/173/2 138/151/2 136/152/2 
f 138/151/2 137/173/2 139/172/2 
f 139/172/2 140/150/2 138/151/2 
f 140/150/2 139/172/2 141/171/2 
f 141/171/2 142/149/2 140/150/2 
f 142/149/2 141/171/2 21/170/2 
f 21/170/2 20/148/2 142/149/2 
f 134/5/1 143/38/1 144/252/1 
f 144/252/1 135/174/1 134/5/1 
f 135/174/1 144/252/1 145/253/1 
f 145/253/1 137/173/1 135/174/1 
f 137/173/1 145/253/1 146/254/1 
f 146/254/1 139/172/1 137/173/1 
f 139/172/1 146/254/1 147/255/1 
f 147/255/1 141/171/1 139/172/1 
f 141/171/1 147/255/1 36/256/1 
f 36/256/1 21/170/1 141/171/1 
f 21/170/1 36/256/1 22/257/1 
f 22/257/1 18/169/1 21/170/1 
f 148/40/1 122/6/1 125/164/1 
f 125/164/1 149/262/1 148/40/1 
f 149/262/1 125/164/1 127/165/1 
f 127/165/1 150/261/1 149/262/1 
f 150/261/1 127/165/1 129/166/1 
f 129/166/1 151/260/1 150/261/1 
f 151/260/1 129/166/1 131/167/1 
f 131/167/1 152/259/1 151/260/1 
f 152/259/1 131/167/1 24/168/1 
f 24/168/1 23/258/1 152/259/1 
s 1
f 82/12/1 153/13/1 154/185/1 
f 154/185/1 83/54/1 82/12/1 
f 83/54/1 154/185/1 155/184/1 
f 155/184/1 85/55/1 83/54/1 
f 85/55/1 155/184/1 156/183/1 
f 156/183/1 87/56/1 85/55/1 
f 87/56/1 156/183/1 157/182/1 
f 157/182/1 89/57/1 87/56/1 
f 89/57/1 157/182/1 158/181/1 
f 158/181/1 11/58/1 89/57/1 
f 11/58/1 158/181/1 25/180/1 
f 25/180/1 8/59/1 11/58/1 
f 159/14/1 70/11/1 73/64/1 
f 73/64/1 160/175/1 159/14/1 
f 160/175/1 73/64/1 75/63/1 
f 75/63/1 161/176/1 160/175/1 
f 161/176/1 75/63/1 77/62/1 
f 77/62/1 162/177/1 161/176/1 
f 162/177/1 77/62/1 79/61/1 
f 79/61/1 163/178/1 162/177/1 
f 163/178/1 79/61/1 27/60/1 
f 27/60/1 26/179/1 163/178/1 
f 164/41/1 165/22/1 166/197/1 
f 166/197/1 167/273/1 164/41/1 
f 167/273/1 166/197/1 168/198/1 
f 168/198/1 169/272/1 167/273/1 
f 169/272/1 168/198/1 170/199/1 
f 170/199/1 171/271/1 169/272/1 
f 171/271/1 170/199/1 172/200/1 
f 172/200/1 173/270/1 171/271/1 
f 173/270/1 172/200/1 32/201/1 
f 32/201/1 174/269/1 173/270/1 
f 174/269/1 32/201/1 29/202/1 
f 29/202/1 28/268/1 174/269/1 
f 175/23/1 176/42/1 177/263/1 
f 177/263/1 178/207/1 175/23/1 
f 178/207/1 177/263/1 179/264/1 
f 179/264/1 180/206/1 178/207/1 
f 180/206/1 179/264/1 181/265/1 
f 181/265/1 182/205/1 180/206/1 
f 182/205/1 181/265/1 183/266/1 
f 183/266/1 184/204/1 182/205/1 
f 184/204/1 183/266/1 31/267/1 
f 31/267/1 30/203/1 184/204/1 
s off
f 39/15/2 175/19/2 178/218/2 
f 178/218/2 40/196/2 39/15/2 
f 40/196/2 178/218/2 180/217/2 
f 180/217/2 42/195/2 40/196/2 
f 42/195/2 180/217/2 182/216/2 
f 182/216/2 44/194/2 42/195/2 
f 44/194/2 182/216/2 184/215/2 
f 184/215/2 46/193/2 44/194/2 
f 46/193/2 184/215/2 30/214/2 
f 30/214/2 48/192/2 46/193/2 
f 48/192/2 30/214/2 29/213/2 
f 29/213/2 2/191/2 48/192/2 
f 165/18/2 49/16/2 52/186/2 
f 52/186/2 166/208/2 165/18/2 
f 166/208/2 52/186/2 54/187/2 
f 54/187/2 168/209/2 166/208/2 
f 168/209/2 54/187/2 56/188/2 
f 56/188/2 170/210/2 168/209/2 
f 170/210/2 56/188/2 58/189/2 
f 58/189/2 172/211/2 170/210/2 
f 172/211/2 58/189/2 3/190/2 
f 3/190/2 32/212/2 172/211/2 
f 153/13/3 185/17/3 186/240/3 
f 186/240/3 154/185/3 153/13/3 
f 154/185/3 186/240/3 187/239/3 
f 187/239/3 155/184/3 154/185/3 
f 155/184/3 187/239/3 188/238/3 
f 188/238/3 156/183/3 155/184/3 
f 156/183/3 188/238/3 189/237/3 
f 189/237/3 157/182/3 156/183/3 
f 157/182/3 189/237/3 190/236/3 
f 190/236/3 158/181/3 157/182/3 
f 158/181/3 190/236/3 33/235/3 
f 33/235/3 25/180/3 158/181/3 
f 191/20/3 159/14/3 160/175/3 
f 160/175/3 192/230/3 191/20/3 
f 192/230/3 160/175/3 161/176/3 
f 161/176/3 193/231/3 192/230/3 
f 193/231/3 161/176/3 162/177/3 
f 162/177/3 194/232/3 193/231/3 
f 194/232/3 162/177/3 163/178/3 
f 163/178/3 195/233/3 194/232/3 
f 195/233/3 163/178/3 26/179/3 
f 26/179/3 34/234/3 195/233/3 
f 59/36/4 96/39/4 97/251/4 
f 97/251/4 60/98/4 59/36/4 
f 60/98/4 97/251/4 98/250/4 
f 98/250/4 61/99/4 60/98/4 
f 61/99/4 98/250/4 99/249/4 
f 99/249/4 62/100/4 61/99/4 
f 62/100/4 99/249/4 100/248/4 
f 100/248/4 63/101/4 62/100/4 
f 63/101/4 100/248/4 13/247/4 
f 13/247/4 64/102/4 63/101/4 
f 64/102/4 13/247/4 12/246/4 
f 12/246/4 5/103/4 64/102/4 
f 91/37/4 65/35/4 66/108/4 
f 66/108/4 92/241/4 91/37/4 
f 92/241/4 66/108/4 67/107/4 
f 67/107/4 93/242/4 92/241/4 
f 93/242/4 67/107/4 68/106/4 
f 68/106/4 94/243/4 93/242/4 
f 94/243/4 68/106/4 69/105/4 
f 69/105/4 95/244/4 94/243/4 
f 95/244/4 69/105/4 6/104/4 
f 6/104/4 35/245/4 95/244/4 
f 113/2/1 148/40/1 149/262/1 
f 149/262/1 114/163/1 113/2/1 
f 114/163/1 149/262/1 150/261/1 
f 150/261/1 116/162/1 114/163/1 
f 116/162/1 150/261/1 151/260/1 
f 151/260/1 118/161/1 116/162/1 
f 118/161/1 151/260/1 152/259/1 
f 152/259/1 120/160/1 118/161/1 
f 120/160/1 152/259/1 23/258/1 
f 23/258/1 17/159/1 120/160/1 
f 17/159/1 23/258/1 22/257/1 
f 22/257/1 14/158/1 17/159/1 
f 143/38/1 101/3/1 104/153/1 
f 104/153/1 144/252/1 143/38/1 
f 144/252/1 104/153/1 106/154/1 
f 106/154/1 145/253/1 144/252/1 
f 145/253/1 106/154/1 108/155/1 
f 108/155/1 146/254/1 145/253/1 
f 146/254/1 108/155/1 110/156/1 
f 110/156/1 147/255/1 146/254/1 
f 147/255/1 110/156/1 37/157/1 
f 37/157/1 36/256/1 147/255/1 
s 1
f 185/21/1 164/41/1 167/273/1 
f 167/273/1 186/229/1 185/21/1 
f 186/229/1 167/273/1 169/272/1 
f 169/272/1 187/228/1 186/229/1 
f 187/228/1 169/272/1 171/271/1 
f 171/271/1 188/227/1 187/228/1 
f 188/227/1 171/271/1 173/270/1 
f 173/270/1 189/226/1 188/227/1 
f 189/226/1 173/270/1 174/269/1 
f 174/269/1 190/225/1 189/226/1 
f 190/225/1 174/269/1 28/268/1 
f 28/268/1 33/224/1 190/225/1 
f 176/42/1 191/24/1 192/219/1 
f 192/219/1 177/263/1 176/42/1 
f 177/263/1 192/219/1 193/220/1 
f 193/220/1 179/264/1 177/263/1 
f 179/264/1 193/220/1 194/221/1 
f 194/221/1 181/265/1 179/264/1 
f 181/265/1 194/221/1 195/222/1 
f 195/222/1 183/266/1 181/265/1 
f 183/266/1 195/222/1 34/223/1 
f 34/223/1 31/267/1 183/266/1 
# 336 faces

