# 3ds Max Wavefront OBJ Exporter v0.97b - (c)2007 guruware
# File Created: 20.03.2017 00:33:25

#
# object Plane001
#

v  -16.0000 0.0000 -0.0000
v  -13.0000 0.0000 -0.0000
v  -13.0000 0.0000 -5.3333
v  -16.0000 0.0000 -5.3333
v  13.0000 0.0000 -0.0000
v  16.0000 0.0000 -0.0000
v  16.0000 0.0000 -5.3333
v  13.0000 0.0000 -5.3333
v  -13.0000 -0.3000 -0.0000
v  -13.0000 -0.3000 -5.3333
v  -19.0000 -3.1650 -0.0000
v  -19.0000 -3.1650 5.3333
v  -16.0000 0.0000 5.3333
v  19.0000 -3.1650 -0.0000
v  16.0000 0.0000 5.3333
v  19.0000 -3.1650 5.3333
v  13.0000 -0.3000 -0.0000
v  13.0000 -0.3000 5.3333
v  13.0000 0.0000 5.3333
v  0.0000 -0.3000 -0.0000
v  -13.0000 -0.3000 5.3333
v  0.0000 -0.3000 5.3333
v  13.0000 -0.3000 -5.3333
v  0.0000 -0.3000 -5.3333
v  -16.0000 0.0000 32.0000
v  -13.0000 0.0000 32.0000
v  -13.0000 0.0000 26.6667
v  -16.0000 0.0000 26.6667
v  -13.0000 0.0000 21.3333
v  -16.0000 0.0000 21.3333
v  -13.0000 0.0000 16.0000
v  -16.0000 0.0000 16.0000
v  -13.0000 0.0000 10.6667
v  -16.0000 0.0000 10.6667
v  -13.0000 0.0000 5.3333
v  -13.0000 0.0000 -32.0000
v  -16.0000 0.0000 -32.0000
v  -16.0000 0.0000 -26.6667
v  -13.0000 0.0000 -26.6667
v  -16.0000 0.0000 -21.3333
v  -13.0000 0.0000 -21.3333
v  -16.0000 0.0000 -16.0000
v  -13.0000 0.0000 -16.0000
v  -16.0000 0.0000 -10.6667
v  -13.0000 0.0000 -10.6667
v  13.0000 0.0000 32.0000
v  16.0000 0.0000 32.0000
v  16.0000 0.0000 26.6667
v  13.0000 0.0000 26.6667
v  16.0000 0.0000 21.3333
v  13.0000 0.0000 21.3333
v  16.0000 0.0000 16.0000
v  13.0000 0.0000 16.0000
v  16.0000 0.0000 10.6667
v  13.0000 0.0000 10.6667
v  16.0000 0.0000 -32.0000
v  13.0000 0.0000 -32.0000
v  13.0000 0.0000 -26.6667
v  16.0000 0.0000 -26.6667
v  13.0000 0.0000 -21.3333
v  16.0000 0.0000 -21.3333
v  13.0000 0.0000 -16.0000
v  16.0000 0.0000 -16.0000
v  13.0000 0.0000 -10.6667
v  16.0000 0.0000 -10.6667
v  -13.0000 -0.3000 32.0000
v  -13.0000 -0.3000 26.6667
v  -13.0000 -0.3000 21.3333
v  -13.0000 -0.3000 16.0000
v  -13.0000 -0.3000 10.6667
v  -13.0000 -0.3000 -32.0000
v  -13.0000 -0.3000 -26.6667
v  -13.0000 -0.3000 -21.3333
v  -13.0000 -0.3000 -16.0000
v  -13.0000 -0.3000 -10.6667
v  -19.0000 -3.1650 -32.0000
v  -19.0000 -3.1650 -26.6667
v  -19.0000 -3.1650 -21.3333
v  -19.0000 -3.1650 -16.0000
v  -19.0000 -3.1650 -10.6667
v  -19.0000 -3.1650 -5.3333
v  -19.0000 -3.1650 32.0000
v  -19.0000 -3.1650 26.6667
v  -19.0000 -3.1650 21.3333
v  -19.0000 -3.1650 16.0000
v  -19.0000 -3.1650 10.6667
v  19.0000 -3.1650 -32.0000
v  19.0000 -3.1650 -26.6667
v  19.0000 -3.1650 -21.3333
v  19.0000 -3.1650 -16.0000
v  19.0000 -3.1650 -10.6667
v  19.0000 -3.1650 -5.3333
v  19.0000 -3.1650 32.0000
v  19.0000 -3.1650 26.6667
v  19.0000 -3.1650 21.3333
v  19.0000 -3.1650 16.0000
v  19.0000 -3.1650 10.6667
v  13.0000 -0.3000 -32.0000
v  13.0000 -0.3000 -26.6667
v  13.0000 -0.3000 -21.3333
v  13.0000 -0.3000 -16.0000
v  13.0000 -0.3000 -10.6667
v  13.0000 -0.3000 32.0000
v  13.0000 -0.3000 26.6667
v  13.0000 -0.3000 21.3333
v  13.0000 -0.3000 16.0000
v  13.0000 -0.3000 10.6667
v  -5.1963 0.0000 -32.0000
v  -5.1963 0.0000 -31.9442
v  -4.7281 0.0000 -30.8687
v  -3.7564 0.0000 -30.0052
v  -4.1006 0.0000 -29.4271
v  -4.0555 0.0000 -29.3237
v  -3.9075 0.0000 -29.6609
v  -4.3499 0.0000 -29.9998
v  -2.8808 0.0000 -32.0000
v  0.0000 -0.3000 -26.6667
v  0.0000 -0.3000 -21.3333
v  0.0000 -0.3000 -16.0000
v  0.0000 -0.3000 -10.6667
v  0.0000 -0.3000 32.0000
v  0.0000 -0.3000 26.6667
v  0.0000 -0.3000 21.3333
v  0.0000 -0.3000 16.0000
v  0.0000 -0.3000 10.6667
v  4.9438 0.0000 -31.3836
v  5.2054 0.0000 -31.9969
v  2.9125 0.0000 -31.9969
v  4.0212 0.0000 -29.4287
v  4.0996 0.0000 -29.4046
v  4.0658 0.0000 -29.3254
v  -5.1963 -0.3000 -31.9442
v  -5.1963 -0.3000 -32.0000
v  -5.2206 -0.3000 -32.0000
v  -5.1963 -0.3000 -31.2848
v  -5.1526 -0.3000 -30.6149
v  -5.0070 -0.3000 -30.0373
v  -4.7885 -0.3000 -29.6635
v  -4.4633 -0.3000 -29.4062
v  -4.3364 -0.3000 -29.3806
v  -4.0555 -0.3000 -29.3237
v  -3.9701 -0.3000 -29.3393
v  -3.6284 -0.3000 -29.4014
v  -3.5977 -0.3000 -29.4235
v  -3.3239 -0.3000 -29.6208
v  0.0000 -0.3000 -32.0000
v  -2.8808 -0.3000 -32.0000
v  -2.9051 -0.3000 -31.2897
v  -2.9391 -0.3000 -30.6004
v  -3.0847 -0.3000 -30.0276
v  -3.2983 -0.3000 -29.6392
v  -4.7885 0.0000 -29.6635
v  -4.4633 0.0000 -29.4062
v  -4.3364 0.0000 -29.3806
v  -5.0070 0.0000 -30.0373
v  -5.1526 0.0000 -30.6149
v  -5.1963 0.0000 -31.2848
v  -3.9701 0.0000 -29.3393
v  -3.6284 0.0000 -29.4014
v  -3.5977 0.0000 -29.4235
v  -3.3239 0.0000 -29.6208
v  -3.2983 0.0000 -29.6392
v  -3.0847 0.0000 -30.0276
v  -2.9051 0.0000 -31.2897
v  -2.9391 0.0000 -30.6004
v  2.9125 -0.3000 -31.9969
v  2.9091 -0.3000 -31.2579
v  2.9571 -0.3000 -30.5955
v  3.0876 -0.3000 -30.0566
v  3.3313 -0.3000 -29.6412
v  3.6471 -0.3000 -29.4078
v  4.0658 -0.3000 -29.3254
v  4.2439 -0.3000 -29.3602
v  4.4880 -0.3000 -29.4078
v  4.8107 -0.3000 -29.6447
v  5.2054 -0.3000 -31.9969
v  5.2123 -0.3000 -31.3026
v  5.1642 -0.3000 -30.5817
v  5.0098 -0.3000 -30.0291
v  2.9091 0.0000 -31.2579
v  2.9571 0.0000 -30.5955
v  3.0876 0.0000 -30.0566
v  3.3313 0.0000 -29.6412
v  3.6471 0.0000 -29.4078
v  4.2439 0.0000 -29.3602
v  4.4880 0.0000 -29.4078
v  4.8107 0.0000 -29.6447
v  5.1642 0.0000 -30.5817
v  5.0098 0.0000 -30.0291
v  5.2123 0.0000 -31.3026
# 190 vertices

vn 0.0000 1.0000 -0.0000
vn 1.0000 0.0000 -0.0000
vn -0.7258 0.6879 -0.0000
vn 0.7258 0.6879 -0.0000
vn -1.0000 0.0000 -0.0000
vn -0.9979 0.0000 0.0651
vn -0.9697 0.0000 0.2445
vn -0.8634 0.0000 0.5046
vn -0.6204 0.0000 0.7843
vn -0.1984 0.0000 0.9801
vn 0.1789 0.0000 0.9839
vn 0.5846 0.0000 0.8113
vn 0.8762 0.0000 0.4819
vn 0.9692 0.0000 0.2464
vn 0.9988 0.0000 0.0492
vn 0.9994 0.0000 0.0342
vn 0.0000 0.0000 -1.0000
vn -1.0000 0.0000 -0.0046
vn -0.9974 0.0000 0.0723
vn -0.9719 0.0000 0.2352
vn -0.8625 0.0000 0.5061
vn -0.5944 0.0000 0.8042
vn -0.1931 0.0000 0.9812
vn 0.1916 0.0000 0.9815
vn 0.1915 0.0000 0.9815
vn 0.5917 0.0000 0.8061
vn 0.8880 0.0000 0.4599
vn 0.9631 0.0000 0.2692
vn 0.9978 0.0000 0.0665
vn 1.0000 0.0000 -0.0099
# 30 vertex normals

vt 1.0000 0.5000 0.0000
vt 0.8770 0.5000 0.0000
vt 0.8770 0.4167 0.0000
vt 1.0000 0.4167 0.0000
vt 0.1245 0.5000 0.0000
vt -0.0000 0.5000 0.0000
vt -0.0000 0.4167 0.0000
vt 0.1245 0.4167 0.0000
vt 0.0000 1.0000 0.0000
vt 0.0000 0.0000 0.0000
vt 0.0000 -0.0000 0.0000
vt 0.9702 -0.0000 0.0000
vt 0.9702 1.0000 0.0000
vt 0.9652 1.0000 0.0000
vt 0.9652 -0.0000 0.0000
vt 0.9702 0.0000 0.0000
vt 0.9652 0.0000 0.0000
vt 1.0000 1.0000 0.0000
vt 1.0000 0.0000 0.0000
vt 0.5000 0.5080 0.0000
vt 0.8760 0.5080 0.0000
vt 0.8760 0.5900 0.0000
vt 0.5000 0.5900 0.0000
vt 0.1244 0.5080 0.0000
vt 0.1244 0.4260 0.0000
vt 0.5000 0.4260 0.0000
vt 0.8770 1.0000 0.0000
vt 0.8770 0.9167 0.0000
vt 1.0000 0.9167 0.0000
vt 0.8770 0.8333 0.0000
vt 1.0000 0.8333 0.0000
vt 0.8770 0.7500 0.0000
vt 1.0000 0.7500 0.0000
vt 0.8770 0.6667 0.0000
vt 1.0000 0.6667 0.0000
vt 0.8770 0.5833 0.0000
vt 1.0000 0.5833 0.0000
vt 0.8770 -0.0000 0.0000
vt 1.0000 -0.0000 0.0000
vt 1.0000 0.0833 0.0000
vt 0.8770 0.0833 0.0000
vt 1.0000 0.1667 0.0000
vt 0.8770 0.1667 0.0000
vt 1.0000 0.2500 0.0000
vt 0.8770 0.2500 0.0000
vt 1.0000 0.3333 0.0000
vt 0.8770 0.3333 0.0000
vt 0.1245 1.0000 0.0000
vt -0.0000 1.0000 0.0000
vt -0.0000 0.9167 0.0000
vt 0.1245 0.9167 0.0000
vt -0.0000 0.8333 0.0000
vt 0.1245 0.8333 0.0000
vt -0.0000 0.7500 0.0000
vt 0.1245 0.7500 0.0000
vt -0.0000 0.6667 0.0000
vt 0.1245 0.6667 0.0000
vt -0.0000 0.5833 0.0000
vt 0.1245 0.5833 0.0000
vt 0.1245 -0.0000 0.0000
vt 0.1245 0.0833 0.0000
vt 0.0000 0.0833 0.0000
vt 0.1245 0.1667 0.0000
vt 0.0000 0.1667 0.0000
vt 0.1245 0.2500 0.0000
vt 0.0000 0.2500 0.0000
vt 0.1245 0.3333 0.0000
vt 0.0000 0.3333 0.0000
vt -0.0000 -0.0000 0.0000
vt 0.9950 1.0000 0.0000
vt 0.9950 -0.0000 0.0000
vt 0.9901 1.0000 0.0000
vt 0.9901 -0.0000 0.0000
vt 0.9851 1.0000 0.0000
vt 0.9851 -0.0000 0.0000
vt 0.9801 1.0000 0.0000
vt 0.9801 -0.0000 0.0000
vt 0.9751 1.0000 0.0000
vt 0.9751 -0.0000 0.0000
vt 0.9403 1.0000 0.0000
vt 0.9403 -0.0000 0.0000
vt 0.9453 -0.0000 0.0000
vt 0.9453 1.0000 0.0000
vt 0.9503 -0.0000 0.0000
vt 0.9503 1.0000 0.0000
vt 0.9553 -0.0000 0.0000
vt 0.9553 1.0000 0.0000
vt 0.9602 -0.0000 0.0000
vt 0.9602 1.0000 0.0000
vt 0.9950 0.0000 0.0000
vt 0.9901 0.0000 0.0000
vt 0.9851 0.0000 0.0000
vt 0.9801 0.0000 0.0000
vt 0.9751 0.0000 0.0000
vt 0.9403 0.0000 0.0000
vt 0.9453 0.0000 0.0000
vt 0.9503 0.0000 0.0000
vt 0.9553 0.0000 0.0000
vt 0.9602 0.0000 0.0000
vt 0.6503 0.0160 0.0000
vt 0.6503 0.0169 0.0000
vt 0.6368 0.0334 0.0000
vt 0.6086 0.0467 0.0000
vt 0.6186 0.0556 0.0000
vt 0.6173 0.0571 0.0000
vt 0.6130 0.0520 0.0000
vt 0.6258 0.0468 0.0000
vt 0.5833 0.0160 0.0000
vt 0.5000 0.0980 0.0000
vt 0.8760 0.0980 0.0000
vt 0.8760 0.1800 0.0000
vt 0.5000 0.1800 0.0000
vt 0.8760 0.2620 0.0000
vt 0.5000 0.2620 0.0000
vt 0.8760 0.3440 0.0000
vt 0.5000 0.3440 0.0000
vt 0.8760 0.4260 0.0000
vt 0.8760 1.0000 0.0000
vt 0.5000 1.0000 0.0000
vt 0.5000 0.9180 0.0000
vt 0.8760 0.9180 0.0000
vt 0.5000 0.8360 0.0000
vt 0.8760 0.8360 0.0000
vt 0.5000 0.7540 0.0000
vt 0.8760 0.7540 0.0000
vt 0.5000 0.6720 0.0000
vt 0.8760 0.6720 0.0000
vt 0.1244 1.0000 0.0000
vt 0.1244 0.9180 0.0000
vt 0.1244 0.8360 0.0000
vt 0.1244 0.7540 0.0000
vt 0.1244 0.6720 0.0000
vt 0.1244 0.5900 0.0000
vt 0.3572 0.0254 0.0000
vt 0.3496 0.0160 0.0000
vt 0.4159 0.0160 0.0000
vt 0.3838 0.0555 0.0000
vt 0.3816 0.0559 0.0000
vt 0.3825 0.0571 0.0000
vt 0.1244 0.0980 0.0000
vt 0.1244 0.1800 0.0000
vt 0.1244 0.2620 0.0000
vt 0.1244 0.3440 0.0000
vt 0.6510 0.0160 0.0000
vt 0.6503 0.0270 0.0000
vt 0.8760 0.0160 0.0000
vt 0.6490 0.0373 0.0000
vt 0.6448 0.0462 0.0000
vt 0.6385 0.0519 0.0000
vt 0.6291 0.0559 0.0000
vt 0.6254 0.0563 0.0000
vt 0.6148 0.0569 0.0000
vt 0.6049 0.0560 0.0000
vt 0.6041 0.0556 0.0000
vt 0.5961 0.0526 0.0000
vt 0.5000 0.0160 0.0000
vt 0.5840 0.0269 0.0000
vt 0.5850 0.0375 0.0000
vt 0.5892 0.0463 0.0000
vt 0.5954 0.0523 0.0000
vt 0.4160 0.0274 0.0000
vt 0.4146 0.0375 0.0000
vt 0.4108 0.0458 0.0000
vt 0.4038 0.0522 0.0000
vt 0.3946 0.0558 0.0000
vt 0.3774 0.0565 0.0000
vt 0.3703 0.0558 0.0000
vt 0.1244 0.0160 0.0000
vt 0.3610 0.0522 0.0000
vt 0.3494 0.0267 0.0000
vt 0.3508 0.0378 0.0000
vt 0.3553 0.0463 0.0000
# 172 texture coords

g Plane001
f 1/1/1 2/2/1 3/3/1 
f 3/3/1 4/4/1 1/1/1 
f 5/5/1 6/6/1 7/7/1 
f 7/7/1 8/8/1 5/5/1 
f 2/9/2 9/10/2 10/11/2 
f 10/11/2 3/9/2 2/9/2 
f 1/12/3 11/13/3 12/14/3 
f 12/14/3 13/15/3 1/12/3 
f 14/13/4 6/16/4 15/17/4 
f 15/17/4 16/14/4 14/13/4 
f 5/18/5 17/19/5 18/19/5 
f 18/19/5 19/18/5 5/18/5 
f 20/20/1 9/21/1 21/22/1 
f 21/22/1 22/23/1 20/20/1 
f 20/20/1 17/24/1 23/25/1 
f 23/25/1 24/26/1 20/20/1 
f 25/18/1 26/27/1 27/28/1 
f 27/28/1 28/29/1 25/18/1 
f 28/29/1 27/28/1 29/30/1 
f 29/30/1 30/31/1 28/29/1 
f 30/31/1 29/30/1 31/32/1 
f 31/32/1 32/33/1 30/31/1 
f 32/33/1 31/32/1 33/34/1 
f 33/34/1 34/35/1 32/33/1 
f 34/35/1 33/34/1 35/36/1 
f 35/36/1 13/37/1 34/35/1 
f 13/37/1 35/36/1 2/2/1 
f 2/2/1 1/1/1 13/37/1 
f 36/38/1 37/39/1 38/40/1 
f 38/40/1 39/41/1 36/38/1 
f 39/41/1 38/40/1 40/42/1 
f 40/42/1 41/43/1 39/41/1 
f 41/43/1 40/42/1 42/44/1 
f 42/44/1 43/45/1 41/43/1 
f 43/45/1 42/44/1 44/46/1 
f 44/46/1 45/47/1 43/45/1 
f 45/47/1 44/46/1 4/4/1 
f 4/4/1 3/3/1 45/47/1 
f 46/48/1 47/49/1 48/50/1 
f 48/50/1 49/51/1 46/48/1 
f 49/51/1 48/50/1 50/52/1 
f 50/52/1 51/53/1 49/51/1 
f 51/53/1 50/52/1 52/54/1 
f 52/54/1 53/55/1 51/53/1 
f 53/55/1 52/54/1 54/56/1 
f 54/56/1 55/57/1 53/55/1 
f 55/57/1 54/56/1 15/58/1 
f 15/58/1 19/59/1 55/57/1 
f 19/59/1 15/58/1 6/6/1 
f 6/6/1 5/5/1 19/59/1 
f 56/11/1 57/60/1 58/61/1 
f 58/61/1 59/62/1 56/11/1 
f 59/62/1 58/61/1 60/63/1 
f 60/63/1 61/64/1 59/62/1 
f 61/64/1 60/63/1 62/65/1 
f 62/65/1 63/66/1 61/64/1 
f 63/66/1 62/65/1 64/67/1 
f 64/67/1 65/68/1 63/66/1 
f 65/68/1 64/67/1 8/8/1 
f 8/8/1 7/7/1 65/68/1 
f 26/9/2 66/10/2 67/10/2 
f 67/10/2 27/9/2 26/9/2 
f 27/9/2 67/10/2 68/10/2 
f 68/10/2 29/9/2 27/9/2 
f 29/9/2 68/10/2 69/10/2 
f 69/10/2 31/9/2 29/9/2 
f 31/9/2 69/10/2 70/10/2 
f 70/10/2 33/9/2 31/9/2 
f 33/9/2 70/10/2 21/10/2 
f 21/10/2 35/9/2 33/9/2 
f 35/9/2 21/10/2 9/10/2 
f 9/10/2 2/9/2 35/9/2 
f 71/69/2 36/49/2 39/49/2 
f 39/49/2 72/69/2 71/69/2 
f 72/69/2 39/49/2 41/49/2 
f 41/49/2 73/69/2 72/69/2 
f 73/69/2 41/49/2 43/49/2 
f 43/49/2 74/69/2 73/69/2 
f 74/69/2 43/49/2 45/9/2 
f 45/9/2 75/11/2 74/69/2 
f 75/11/2 45/9/2 3/9/2 
f 3/9/2 10/11/2 75/11/2 
f 37/39/3 76/18/3 77/70/3 
f 77/70/3 38/71/3 37/39/3 
f 38/71/3 77/70/3 78/72/3 
f 78/72/3 40/73/3 38/71/3 
f 40/73/3 78/72/3 79/74/3 
f 79/74/3 42/75/3 40/73/3 
f 42/75/3 79/74/3 80/76/3 
f 80/76/3 44/77/3 42/75/3 
f 44/77/3 80/76/3 81/78/3 
f 81/78/3 4/79/3 44/77/3 
f 4/79/3 81/78/3 11/13/3 
f 11/13/3 1/12/3 4/79/3 
f 82/80/3 25/81/3 28/82/3 
f 28/82/3 83/83/3 82/80/3 
f 83/83/3 28/82/3 30/84/3 
f 30/84/3 84/85/3 83/83/3 
f 84/85/3 30/84/3 32/86/3 
f 32/86/3 85/87/3 84/85/3 
f 85/87/3 32/86/3 34/88/3 
f 34/88/3 86/89/3 85/87/3 
f 86/89/3 34/88/3 13/15/3 
f 13/15/3 12/14/3 86/89/3 
f 87/18/4 56/19/4 59/90/4 
f 59/90/4 88/70/4 87/18/4 
f 88/70/4 59/90/4 61/91/4 
f 61/91/4 89/72/4 88/70/4 
f 89/72/4 61/91/4 63/92/4 
f 63/92/4 90/74/4 89/72/4 
f 90/74/4 63/92/4 65/93/4 
f 65/93/4 91/76/4 90/74/4 
f 91/76/4 65/93/4 7/94/4 
f 7/94/4 92/78/4 91/76/4 
f 92/78/4 7/94/4 6/16/4 
f 6/16/4 14/13/4 92/78/4 
f 47/95/4 93/80/4 94/83/4 
f 94/83/4 48/96/4 47/95/4 
f 48/96/4 94/83/4 95/85/4 
f 95/85/4 50/97/4 48/96/4 
f 50/97/4 95/85/4 96/87/4 
f 96/87/4 52/98/4 50/97/4 
f 52/98/4 96/87/4 97/89/4 
f 97/89/4 54/99/4 52/98/4 
f 54/99/4 97/89/4 16/14/4 
f 16/14/4 15/17/4 54/99/4 
f 57/18/5 98/39/5 99/39/5 
f 99/39/5 58/18/5 57/18/5 
f 58/18/5 99/39/5 100/39/5 
f 100/39/5 60/18/5 58/18/5 
f 60/18/5 100/39/5 101/39/5 
f 101/39/5 62/18/5 60/18/5 
f 62/18/5 101/39/5 102/39/5 
f 102/39/5 64/18/5 62/18/5 
f 64/18/5 102/39/5 23/39/5 
f 23/39/5 8/18/5 64/18/5 
f 8/18/5 23/39/5 17/19/5 
f 17/19/5 5/18/5 8/18/5 
f 103/19/5 46/18/5 49/18/5 
f 49/18/5 104/19/5 103/19/5 
f 104/19/5 49/18/5 51/18/5 
f 51/18/5 105/19/5 104/19/5 
f 105/19/5 51/18/5 53/18/5 
f 53/18/5 106/19/5 105/19/5 
f 106/19/5 53/18/5 55/18/5 
f 55/18/5 107/19/5 106/19/5 
f 107/19/5 55/18/5 19/18/5 
f 19/18/5 18/19/5 107/19/5 
f 108/100/1 109/101/1 110/102/1 111/103/1 
f 112/104/1 113/105/1 114/106/1 
f 115/107/1 112/104/1 114/106/1 111/103/1 
f 110/102/1 115/107/1 111/103/1 
f 116/108/1 108/100/1 111/103/1 
f 117/109/1 72/110/1 73/111/1 
f 73/111/1 118/112/1 117/109/1 
f 118/112/1 73/111/1 74/113/1 
f 74/113/1 119/114/1 118/112/1 
f 119/114/1 74/113/1 75/115/1 
f 75/115/1 120/116/1 119/114/1 
f 120/116/1 75/115/1 10/117/1 
f 10/117/1 24/26/1 120/116/1 
f 24/26/1 10/117/1 9/21/1 
f 9/21/1 20/20/1 24/26/1 
f 66/118/1 121/119/1 122/120/1 
f 122/120/1 67/121/1 66/118/1 
f 67/121/1 122/120/1 123/122/1 
f 123/122/1 68/123/1 67/121/1 
f 68/123/1 123/122/1 124/124/1 
f 124/124/1 69/125/1 68/123/1 
f 69/125/1 124/124/1 125/126/1 
f 125/126/1 70/127/1 69/125/1 
f 70/127/1 125/126/1 22/23/1 
f 22/23/1 21/22/1 70/127/1 
f 121/119/1 103/128/1 104/129/1 
f 104/129/1 122/120/1 121/119/1 
f 122/120/1 104/129/1 105/130/1 
f 105/130/1 123/122/1 122/120/1 
f 123/122/1 105/130/1 106/131/1 
f 106/131/1 124/124/1 123/122/1 
f 124/124/1 106/131/1 107/132/1 
f 107/132/1 125/126/1 124/124/1 
f 125/126/1 107/132/1 18/133/1 
f 18/133/1 22/23/1 125/126/1 
f 22/23/1 18/133/1 17/24/1 
f 17/24/1 20/20/1 22/23/1 
f 126/134/1 127/135/1 127/135/1 128/136/1 
f 126/134/1 128/136/1 129/137/1 130/138/1 
f 129/137/1 131/139/1 130/138/1 
f 99/140/1 117/109/1 118/112/1 
f 118/112/1 100/141/1 99/140/1 
f 100/141/1 118/112/1 119/114/1 
f 119/114/1 101/142/1 100/141/1 
f 101/142/1 119/114/1 120/116/1 
f 120/116/1 102/143/1 101/142/1 
f 102/143/1 120/116/1 24/26/1 
f 24/26/1 23/25/1 102/143/1 
f 132/101/1 133/100/1 134/144/1 
f 135/145/1 132/101/1 134/144/1 71/146/1 
f 136/147/1 135/145/1 71/146/1 137/148/1 
f 138/149/1 137/148/1 71/146/1 139/150/1 
f 139/150/1 71/146/1 72/110/1 117/109/1 
f 140/151/1 139/150/1 117/109/1 141/105/1 
f 142/152/1 141/105/1 117/109/1 143/153/1 
f 144/154/1 143/153/1 117/109/1 145/155/1 
f 146/156/1 147/108/1 148/157/1 149/158/1 
f 146/156/1 149/158/1 150/159/1 151/160/1 
f 117/109/1 146/156/1 151/160/1 145/155/1 
f 152/149/1 153/150/1 154/151/1 113/105/1 
f 155/148/1 152/149/1 113/105/1 112/104/1 
f 155/148/1 112/104/1 115/107/1 156/147/1 
f 156/147/1 115/107/1 110/102/1 157/145/1 
f 109/101/1 157/145/1 110/102/1 
f 113/105/1 158/152/1 114/106/1 
f 114/106/1 158/152/1 159/153/1 160/154/1 
f 114/106/1 160/154/1 161/155/1 111/103/1 
f 161/155/1 162/160/1 163/159/1 164/157/1 
f 163/159/1 165/158/1 164/157/1 
f 161/155/1 164/157/1 116/108/1 111/103/1 
f 133/100/5 132/101/5 109/101/5 108/100/5 
f 132/101/5 135/145/5 157/145/5 109/101/5 
f 135/145/6 136/147/6 156/147/6 157/145/6 
f 136/147/7 137/148/7 155/148/7 156/147/7 
f 137/148/8 138/149/8 152/149/8 155/148/8 
f 138/149/9 139/150/9 153/150/9 152/149/9 
f 139/150/10 140/151/10 154/151/10 153/150/10 
f 140/151/10 141/105/10 113/105/10 154/151/10 
f 141/105/11 142/152/11 158/152/11 113/105/11 
f 142/152/11 143/153/11 159/153/11 158/152/11 
f 143/153/12 144/154/12 160/154/12 159/153/12 
f 144/154/12 145/155/12 161/155/12 160/154/12 
f 145/155/12 151/160/12 162/160/12 161/155/12 
f 151/160/13 150/159/13 163/159/13 162/160/13 
f 150/159/14 149/158/14 165/158/14 163/159/14 
f 149/158/15 148/157/15 164/157/15 165/158/15 
f 148/157/16 147/108/16 116/108/16 164/157/16 
f 147/108/17 133/100/17 108/100/17 116/108/17 
f 166/136/1 146/156/1 117/109/1 167/161/1 
f 168/162/1 167/161/1 117/109/1 169/163/1 
f 170/164/1 169/163/1 117/109/1 171/165/1 
f 171/165/1 117/109/1 99/140/1 172/139/1 
f 173/166/1 172/139/1 99/140/1 174/167/1 
f 174/167/1 99/140/1 98/168/1 175/169/1 
f 98/168/1 176/135/1 176/135/1 177/170/1 
f 98/168/1 177/170/1 178/171/1 179/172/1 
f 98/168/1 179/172/1 175/169/1 
f 180/161/1 181/162/1 182/163/1 129/137/1 
f 183/164/1 184/165/1 131/139/1 129/137/1 
f 182/163/1 183/164/1 129/137/1 
f 128/136/1 180/161/1 129/137/1 
f 130/138/1 131/139/1 185/166/1 126/134/1 
f 185/166/1 186/167/1 187/169/1 188/171/1 
f 187/169/1 189/172/1 188/171/1 
f 190/170/1 127/135/1 126/134/1 188/171/1 
f 185/166/1 188/171/1 126/134/1 
f 166/136/18 167/161/18 180/161/18 128/136/18 
f 167/161/19 168/162/19 181/162/19 180/161/19 
f 168/162/20 169/163/20 182/163/20 181/162/20 
f 169/163/21 170/164/21 183/164/21 182/163/21 
f 170/164/22 171/165/22 184/165/22 183/164/22 
f 171/165/23 172/139/23 131/139/23 184/165/23 
f 172/139/24 173/166/24 185/166/24 131/139/24 
f 173/166/25 174/167/25 186/167/25 185/166/25 
f 174/167/26 175/169/26 187/169/26 186/167/26 
f 175/169/27 179/172/27 189/172/27 187/169/27 
f 179/172/28 178/171/28 188/171/28 189/172/28 
f 178/171/29 177/170/29 190/170/29 188/171/29 
f 177/170/30 176/135/30 127/135/30 190/170/30 
f 176/135/2 176/135/2 127/135/2 127/135/2 
f 176/135/17 166/136/17 128/136/17 127/135/17 
# 68 polygons - 201 triangles

