# 3ds Max Wavefront OBJ Exporter v0.97b - (c)2007 guruware
# File Created: 28.07.2018 14:50:12

#
# object Plane008
#

v  -8.5000 -0.0000 32.0001
v  -6.0000 -0.0000 32.0001
v  -6.0000 -0.0000 16.0001
v  -8.5000 -0.0000 16.0001
v  -6.0000 -0.0000 0.0001
v  -8.5000 -0.0000 0.0001
v  -6.0000 -0.0000 -15.9999
v  -8.5000 -0.0000 -15.9999
v  -6.0000 -0.0000 -31.9999
v  -8.5000 -0.0000 -31.9999
v  6.0000 -0.0000 32.0001
v  8.5000 -0.0000 32.0001
v  8.5000 -0.0000 16.0001
v  6.0000 -0.0000 16.0001
v  8.5000 -0.0000 0.0001
v  6.0000 -0.0000 0.0001
v  8.5000 -0.0000 -15.9999
v  6.0000 -0.0000 -15.9999
v  8.5000 -0.0000 -31.9999
v  6.0000 -0.0000 -31.9999
# 20 vertices

vn 0.0000 1.0000 -0.0000
vn -0.0000 1.0000 -0.0000
# 2 vertex normals

vt 0.3995 0.0000 0.0000
vt 0.6056 0.0000 0.0000
vt 0.6056 0.2500 0.0000
vt 0.3995 0.2500 0.0000
vt 0.6056 0.5000 0.0000
vt 0.3995 0.5000 0.0000
vt 0.6056 0.7500 0.0000
vt 0.3995 0.7500 0.0000
vt 0.6056 1.0000 0.0000
vt 0.3995 1.0000 0.0000
# 10 texture coords

g Plane008
s 1
f 1/1/1 2/2/1 3/3/1 
f 3/3/1 4/4/1 1/1/1 
f 4/4/1 3/3/1 5/5/1 
f 5/5/1 6/6/1 4/4/1 
f 6/6/1 5/5/1 7/7/1 
f 7/7/1 8/8/1 6/6/1 
f 8/8/1 7/7/1 9/9/1 
f 9/9/1 10/10/1 8/8/1 
f 11/1/2 12/2/2 13/3/2 
f 13/3/2 14/4/2 11/1/2 
f 14/4/2 13/3/2 15/5/2 
f 15/5/2 16/6/2 14/4/2 
f 16/6/2 15/5/2 17/7/2 
f 17/7/2 18/8/2 16/6/2 
f 18/8/2 17/7/2 19/9/2 
f 19/9/2 20/10/2 18/8/2 
# 0 polygons - 16 triangles

