# 3ds Max Wavefront OBJ Exporter v0.97b - (c)2007 guruware
# File Created: 07.01.2016 08:22:09

#
# object Plane001
#

v  -16.0000 0.0000 -0.0000
v  -12.0000 0.0000 -0.0000
v  -12.0000 0.0000 -5.3333
v  -16.0000 0.0000 -5.3333
v  -1.0000 0.0000 -32.0000
v  -1.0000 0.0000 -31.3050
v  -0.9600 0.0000 -30.5953
v  -0.8400 0.0000 -30.0433
v  -0.6400 0.0000 -29.6489
v  -0.3600 0.0000 -29.4124
v  -0.0000 0.0000 -29.3335
v  -0.0000 0.0000 -32.0000
v  12.0000 0.0000 -0.0000
v  16.0000 0.0000 -0.0000
v  16.0000 0.0000 -5.3333
v  12.0000 0.0000 -5.3333
v  -12.0000 -0.3000 -0.0000
v  -12.0000 -0.3000 -5.3333
v  1.0000 0.0000 -31.3050
v  1.0000 -0.3000 -31.3050
v  1.0000 -0.3000 -32.0000
v  1.0000 0.0000 -32.0000
v  -19.0000 -3.1650 -0.0000
v  -19.0000 -3.1650 5.3333
v  -16.0000 0.0000 5.3333
v  19.0000 -3.1650 -0.0000
v  16.0000 0.0000 5.3333
v  19.0000 -3.1650 5.3333
v  -1.0000 -0.3000 -32.0000
v  -1.0000 -0.3000 -31.3050
v  0.9600 0.0000 -30.5953
v  0.8400 0.0000 -30.0433
v  0.6400 0.0000 -29.6489
v  0.3600 0.0000 -29.4124
v  12.0000 -0.3000 -0.0000
v  12.0000 -0.3000 5.3333
v  12.0000 0.0000 5.3333
v  -0.0000 -0.3000 -29.3335
v  0.9600 -0.3000 -30.5953
v  -0.9600 -0.3000 -30.5953
v  0.8400 -0.3000 -30.0433
v  0.6400 -0.3000 -29.6489
v  0.3600 -0.3000 -29.4124
v  -0.8400 -0.3000 -30.0433
v  -0.6400 -0.3000 -29.6489
v  -0.3600 -0.3000 -29.4124
v  -0.0000 -0.3000 -0.0000
v  -12.0000 -0.3000 5.3333
v  -0.0000 -0.3000 5.3333
v  12.0000 -0.3000 -5.3333
v  -0.0000 -0.3000 -5.3333
v  -16.0000 0.0000 32.0000
v  -12.0000 0.0000 32.0000
v  -12.0000 0.0000 26.6667
v  -16.0000 0.0000 26.6667
v  -12.0000 0.0000 21.3333
v  -16.0000 0.0000 21.3333
v  -12.0000 0.0000 16.0000
v  -16.0000 0.0000 16.0000
v  -12.0000 0.0000 10.6667
v  -16.0000 0.0000 10.6667
v  -12.0000 0.0000 5.3333
v  -12.0000 0.0000 -32.0000
v  -16.0000 0.0000 -32.0000
v  -16.0000 0.0000 -26.6667
v  -12.0000 0.0000 -26.6667
v  -16.0000 0.0000 -21.3333
v  -12.0000 0.0000 -21.3333
v  -16.0000 0.0000 -16.0000
v  -12.0000 0.0000 -16.0000
v  -16.0000 0.0000 -10.6667
v  -12.0000 0.0000 -10.6667
v  12.0000 0.0000 32.0000
v  16.0000 0.0000 32.0000
v  16.0000 0.0000 26.6667
v  12.0000 0.0000 26.6667
v  16.0000 0.0000 21.3333
v  12.0000 0.0000 21.3333
v  16.0000 0.0000 16.0000
v  12.0000 0.0000 16.0000
v  16.0000 0.0000 10.6667
v  12.0000 0.0000 10.6667
v  16.0000 0.0000 -32.0000
v  12.0000 0.0000 -32.0000
v  12.0000 0.0000 -26.6667
v  16.0000 0.0000 -26.6667
v  12.0000 0.0000 -21.3333
v  16.0000 0.0000 -21.3333
v  12.0000 0.0000 -16.0000
v  16.0000 0.0000 -16.0000
v  12.0000 0.0000 -10.6667
v  16.0000 0.0000 -10.6667
v  -12.0000 -0.3000 32.0000
v  -12.0000 -0.3000 26.6667
v  -12.0000 -0.3000 21.3333
v  -12.0000 -0.3000 16.0000
v  -12.0000 -0.3000 10.6667
v  -12.0000 -0.3000 -32.0000
v  -12.0000 -0.3000 -26.6667
v  -12.0000 -0.3000 -21.3333
v  -12.0000 -0.3000 -16.0000
v  -12.0000 -0.3000 -10.6667
v  -19.0000 -3.1650 -32.0000
v  -19.0000 -3.1650 -26.6667
v  -19.0000 -3.1650 -21.3333
v  -19.0000 -3.1650 -16.0000
v  -19.0000 -3.1650 -10.6667
v  -19.0000 -3.1650 -5.3333
v  -19.0000 -3.1650 32.0000
v  -19.0000 -3.1650 26.6667
v  -19.0000 -3.1650 21.3333
v  -19.0000 -3.1650 16.0000
v  -19.0000 -3.1650 10.6667
v  19.0000 -3.1650 -32.0000
v  19.0000 -3.1650 -26.6667
v  19.0000 -3.1650 -21.3333
v  19.0000 -3.1650 -16.0000
v  19.0000 -3.1650 -10.6667
v  19.0000 -3.1650 -5.3333
v  19.0000 -3.1650 32.0000
v  19.0000 -3.1650 26.6667
v  19.0000 -3.1650 21.3333
v  19.0000 -3.1650 16.0000
v  19.0000 -3.1650 10.6667
v  12.0000 -0.3000 -32.0000
v  12.0000 -0.3000 -26.6667
v  12.0000 -0.3000 -21.3333
v  12.0000 -0.3000 -16.0000
v  12.0000 -0.3000 -10.6667
v  12.0000 -0.3000 32.0000
v  12.0000 -0.3000 26.6667
v  12.0000 -0.3000 21.3333
v  12.0000 -0.3000 16.0000
v  12.0000 -0.3000 10.6667
v  -0.0000 -0.3000 -32.0000
v  -0.0000 -0.3000 -26.6667
v  -0.0000 -0.3000 -21.3333
v  -0.0000 -0.3000 -16.0000
v  -0.0000 -0.3000 -10.6667
v  -0.0000 -0.3000 32.0000
v  -0.0000 -0.3000 26.6667
v  -0.0000 -0.3000 21.3333
v  -0.0000 -0.3000 16.0000
v  -0.0000 -0.3000 10.6667
# 144 vertices

vn 0.0000 1.0000 -0.0000
vn 1.0000 0.0000 -0.0000
vn 0.9996 -0.0000 0.0281
vn 0.9996 0.0000 0.0281
vn -0.7258 0.6879 -0.0000
vn 0.7258 0.6879 -0.0000
vn -1.0000 0.0000 -0.0000
vn -0.9996 0.0000 0.0281
vn 0.0000 0.0000 1.0000
vn 0.1076 -0.0000 0.9942
vn -0.1076 0.0000 0.9942
vn 0.9909 -0.0000 0.1348
vn -0.9909 0.0000 0.1348
vn 0.9422 -0.0000 0.3351
vn 0.7842 -0.0000 0.6205
vn 0.4427 -0.0000 0.8967
vn -0.9422 0.0000 0.3351
vn -0.7842 0.0000 0.6205
vn -0.4427 0.0000 0.8967
vn -0.0000 1.0000 -0.0000
vn -0.0000 1.0000 0.0000
vn 0.0000 0.0000 -0.0000
# 22 vertex normals

vt 0.9403 -0.0000 0.0000
vt 1.0000 -0.0000 0.0000
vt 1.0000 1.0000 0.0000
vt 0.9403 1.0000 0.0000
vt 0.9403 1.0000 0.0000
vt 1.0000 1.0000 0.0000
vt 1.0000 0.0000 0.0000
vt 0.9403 0.0000 0.0000
vt 0.1245 1.0000 0.0000
vt -0.0000 1.0000 0.0000
vt 0.1245 -0.0000 0.0000
vt 0.0000 -0.0000 0.0000
vt 0.4988 0.0369 0.0000
vt 0.5076 0.0613 1.0000
vt 0.5076 0.0613 1.0000
vt 0.4988 0.0369 0.0000
vt 0.4988 0.0369 0.0000
vt 0.5076 0.0613 1.0000
vt 0.8760 0.0160 0.0000
vt 0.8760 1.0000 0.0000
vt 0.5000 1.0000 0.0000
vt 0.5000 0.0160 0.0000
vt 0.8760 0.0160 0.0000
vt 0.1244 0.0160 0.0000
vt 0.1244 1.0000 0.0000
vt 0.1244 0.0160 0.0000
vt -0.0000 -0.0000 0.0000
vt -0.0000 1.0000 0.0000
vt 0.0000 1.0000 0.0000
vt 0.0000 0.0000 0.0000
vt 0.5231 0.0252 0.0000
vt 0.5231 0.0252 0.0000
vt 0.5231 -0.0000 0.0000
vt 0.5231 -0.0000 0.0000
vt 0.4749 0.0252 0.0000
vt 0.4749 0.0252 0.0000
vt 0.4749 -0.0000 0.0000
vt 0.4749 -0.0000 0.0000
vt 1.0000 0.0000 0.0000
vt 1.0000 1.0000 0.0000
vt 1.0000 1.0000 0.0000
vt 1.0000 -0.0000 0.0000
vt 0.5216 0.0252 0.0000
vt 0.5216 -0.0000 0.0000
vt 0.4765 -0.0000 0.0000
vt 0.4765 0.0252 0.0000
vt 0.5170 0.0252 0.0000
vt 0.5170 -0.0000 0.0000
vt 0.5093 0.0252 0.0000
vt 0.5093 -0.0000 0.0000
vt 0.5051 0.0252 0.0000
vt 0.5051 -0.0000 0.0000
vt 0.5000 0.0252 0.0000
vt 0.5000 -0.0000 0.0000
vt 0.4811 -0.0000 0.0000
vt 0.4811 0.0252 0.0000
vt 0.4888 -0.0000 0.0000
vt 0.4888 0.0252 0.0000
vt 0.4953 -0.0000 0.0000
vt 0.4953 0.0252 0.0000
vt 0.5000 -0.0000 0.0000
vt 0.5000 0.0252 0.0000
vt 1.0000 1.0000 0.0000
vt 0.8770 1.0000 0.0000
vt 1.0000 -0.0000 0.0000
vt 0.8770 -0.0000 0.0000
vt 0.5240 -0.0000 0.0000
vt 0.4741 -0.0000 0.0000
vt 0.4988 -0.0000 0.0000
vt 0.4741 0.0096 0.0000
vt 0.5240 0.0096 0.0000
vt 0.4988 0.0137 0.0000
vt 0.4988 0.0137 0.0000
vt 0.4988 0.0137 0.0000
vt 0.4907 0.0126 0.0000
vt 0.4834 0.0164 0.0000
vt 0.4782 0.0146 0.0000
vt 0.4751 0.0119 0.0000
vt 0.5229 0.0119 0.0000
vt 0.5197 0.0146 0.0000
vt 0.5144 0.0164 0.0000
vt 0.5069 0.0126 0.0000
vt 0.9950 1.0000 0.0000
vt 0.9901 1.0000 0.0000
vt 0.9851 1.0000 0.0000
vt 0.9801 1.0000 0.0000
vt 0.9751 1.0000 0.0000
vt 0.9702 1.0000 0.0000
vt 0.9652 1.0000 0.0000
vt 0.9602 1.0000 0.0000
vt 0.9553 1.0000 0.0000
vt 0.9503 1.0000 0.0000
vt 0.9453 1.0000 0.0000
vt 0.9453 1.0000 0.0000
vt 0.9503 1.0000 0.0000
vt 0.9553 1.0000 0.0000
vt 0.9602 1.0000 0.0000
vt 0.9652 1.0000 0.0000
vt 0.9702 1.0000 0.0000
vt 0.9751 1.0000 0.0000
vt 0.9801 1.0000 0.0000
vt 0.9851 1.0000 0.0000
vt 0.9901 1.0000 0.0000
vt 0.9950 1.0000 0.0000
vt 1.0000 0.0833 0.0000
vt 1.0000 0.1667 0.0000
vt 1.0000 0.2500 0.0000
vt 1.0000 0.3333 0.0000
vt 1.0000 0.4167 0.0000
vt 1.0000 0.5000 0.0000
vt 1.0000 0.5833 0.0000
vt 1.0000 0.6667 0.0000
vt 1.0000 0.7500 0.0000
vt 1.0000 0.8333 0.0000
vt 1.0000 0.9167 0.0000
vt 0.9950 -0.0000 0.0000
vt 0.9901 -0.0000 0.0000
vt 0.9851 -0.0000 0.0000
vt 0.9801 -0.0000 0.0000
vt 0.9751 -0.0000 0.0000
vt 0.9702 -0.0000 0.0000
vt 0.9652 -0.0000 0.0000
vt 0.9602 -0.0000 0.0000
vt 0.9553 -0.0000 0.0000
vt 0.9503 -0.0000 0.0000
vt 0.9453 -0.0000 0.0000
vt -0.0000 1.0000 0.0000
vt -0.0000 1.0000 0.0000
vt -0.0000 1.0000 0.0000
vt 0.0000 1.0000 0.0000
vt 0.0000 1.0000 0.0000
vt 0.0000 1.0000 0.0000
vt 0.0000 1.0000 0.0000
vt 0.0000 1.0000 0.0000
vt 0.0000 1.0000 0.0000
vt 0.0000 1.0000 0.0000
vt 0.0000 1.0000 0.0000
vt 0.8770 0.0833 0.0000
vt 0.8770 0.1667 0.0000
vt 0.8770 0.2500 0.0000
vt 0.8770 0.3333 0.0000
vt 0.8770 0.4167 0.0000
vt 0.8770 0.5000 0.0000
vt 0.8770 0.5833 0.0000
vt 0.8770 0.6667 0.0000
vt 0.8770 0.7500 0.0000
vt 0.8770 0.8333 0.0000
vt 0.8770 0.9167 0.0000
vt 0.5000 0.0980 0.0000
vt 0.5000 0.1800 0.0000
vt 0.5000 0.2620 0.0000
vt 0.5000 0.3440 0.0000
vt 0.5000 0.4260 0.0000
vt 0.5000 0.5080 0.0000
vt 0.5000 0.5900 0.0000
vt 0.5000 0.6720 0.0000
vt 0.5000 0.7540 0.0000
vt 0.5000 0.8360 0.0000
vt 0.5000 0.9180 0.0000
vt 1.0000 1.0000 0.0000
vt 1.0000 1.0000 0.0000
vt 1.0000 1.0000 0.0000
vt 1.0000 1.0000 0.0000
vt 1.0000 1.0000 0.0000
vt 1.0000 1.0000 0.0000
vt 1.0000 1.0000 0.0000
vt 1.0000 1.0000 0.0000
vt 1.0000 1.0000 0.0000
vt 1.0000 1.0000 0.0000
vt 1.0000 1.0000 0.0000
vt 0.1245 0.9167 0.0000
vt 0.1245 0.8333 0.0000
vt 0.1245 0.7500 0.0000
vt 0.1245 0.6667 0.0000
vt 0.1245 0.5833 0.0000
vt 0.1245 0.5000 0.0000
vt 0.1245 0.4167 0.0000
vt 0.1245 0.3333 0.0000
vt 0.1245 0.2500 0.0000
vt 0.1245 0.1667 0.0000
vt 0.1245 0.0833 0.0000
vt -0.0000 0.9167 0.0000
vt -0.0000 0.8333 0.0000
vt -0.0000 0.7500 0.0000
vt -0.0000 0.6667 0.0000
vt -0.0000 0.5833 0.0000
vt -0.0000 0.5000 0.0000
vt -0.0000 0.4167 0.0000
vt 0.0000 0.3333 0.0000
vt 0.0000 0.2500 0.0000
vt 0.0000 0.1667 0.0000
vt 0.0000 0.0833 0.0000
vt 0.9453 0.0000 0.0000
vt 0.9503 0.0000 0.0000
vt 0.9553 0.0000 0.0000
vt 0.9602 0.0000 0.0000
vt 0.9652 0.0000 0.0000
vt 0.9702 0.0000 0.0000
vt 0.9751 0.0000 0.0000
vt 0.9801 0.0000 0.0000
vt 0.9851 0.0000 0.0000
vt 0.9901 0.0000 0.0000
vt 0.9950 0.0000 0.0000
vt 0.0000 0.0000 0.0000
vt 0.0000 0.0000 0.0000
vt 0.0000 0.0000 0.0000
vt 0.0000 0.0000 0.0000
vt 0.0000 0.0000 0.0000
vt 0.0000 0.0000 0.0000
vt 0.0000 -0.0000 0.0000
vt 0.0000 -0.0000 0.0000
vt -0.0000 -0.0000 0.0000
vt -0.0000 -0.0000 0.0000
vt -0.0000 -0.0000 0.0000
vt 0.8760 0.9180 0.0000
vt 0.8760 0.8360 0.0000
vt 0.8760 0.7540 0.0000
vt 0.8760 0.6720 0.0000
vt 0.8760 0.5900 0.0000
vt 0.8760 0.5080 0.0000
vt 0.8760 0.4260 0.0000
vt 0.8760 0.3440 0.0000
vt 0.8760 0.2620 0.0000
vt 0.8760 0.1800 0.0000
vt 0.8760 0.0980 0.0000
vt 1.0000 -0.0000 0.0000
vt 1.0000 -0.0000 0.0000
vt 1.0000 -0.0000 0.0000
vt 1.0000 -0.0000 0.0000
vt 1.0000 -0.0000 0.0000
vt 1.0000 0.0000 0.0000
vt 1.0000 0.0000 0.0000
vt 1.0000 0.0000 0.0000
vt 1.0000 0.0000 0.0000
vt 1.0000 0.0000 0.0000
vt 1.0000 0.0000 0.0000
vt 0.1244 0.0980 0.0000
vt 0.1244 0.1800 0.0000
vt 0.1244 0.2620 0.0000
vt 0.1244 0.3440 0.0000
vt 0.1244 0.4260 0.0000
vt 0.1244 0.5080 0.0000
vt 0.1244 0.5900 0.0000
vt 0.1244 0.6720 0.0000
vt 0.1244 0.7540 0.0000
vt 0.1244 0.8360 0.0000
vt 0.1244 0.9180 0.0000
# 247 texture coords

g Plane001
s off
f 1/110/1 2/143/1 3/142/1 
f 3/142/1 4/109/1 1/110/1 
s 1
f 5/67/1 6/71/1 7/79/1 
f 5/67/1 7/79/1 8/80/1 
f 5/67/1 8/80/1 9/81/1 
f 5/67/1 9/81/1 10/82/1 
f 5/67/1 10/82/1 11/74/1 
f 11/74/1 11/72/1 12/69/1 
f 5/67/1 11/74/1 12/69/1 
s off
f 13/176/1 14/187/1 15/188/1 
f 15/188/1 16/177/1 13/176/1 
f 2/132/2 17/209/2 18/210/2 
f 18/210/2 3/131/2 2/132/2 
s 2
f 19/32/3 20/33/4 21/34/2 
f 21/34/2 22/31/2 19/32/3 
s off
f 1/121/5 23/88/5 24/89/5 
f 24/89/5 25/122/5 1/121/5 
f 26/99/6 14/198/6 27/197/6 
f 27/197/6 28/98/6 26/99/6 
s 2
f 5/36/7 29/37/7 30/38/8 
f 30/38/8 6/35/8 5/36/7 
s 1
f 22/68/1 12/69/1 11/72/1 
f 19/70/1 22/68/1 11/72/1 
f 31/78/1 19/70/1 11/72/1 
f 32/77/1 31/78/1 11/72/1 
f 33/76/1 32/77/1 11/72/1 
f 34/75/1 33/76/1 11/72/1 
f 11/73/1 34/75/1 11/72/1 
s off
f 13/165/7 35/231/7 36/232/7 
f 36/232/7 37/164/7 13/165/7 
s 2
f 11/13/9 38/15/9 38/18/10 
f 38/18/10 11/16/10 11/13/9 
f 11/17/11 38/14/11 38/15/9 
f 38/15/9 11/13/9 11/17/11 
f 39/44/12 20/33/4 19/32/3 
f 19/32/3 31/43/12 39/44/12 
f 7/46/13 6/35/8 30/38/8 
f 30/38/8 40/45/13 7/46/13 
f 41/48/14 39/44/12 31/43/12 
f 31/43/12 32/47/14 41/48/14 
f 42/50/15 41/48/14 32/47/14 
f 32/47/14 33/49/15 42/50/15 
f 43/52/16 42/50/15 33/49/15 
f 33/49/15 34/51/16 43/52/16 
f 38/54/10 43/52/16 34/51/16 
f 34/51/16 11/53/10 38/54/10 
f 8/56/17 7/46/13 40/45/13 
f 40/45/13 44/55/17 8/56/17 
f 9/58/18 8/56/17 44/55/17 
f 44/55/17 45/57/18 9/58/18 
f 10/60/19 9/58/18 45/57/18 
f 45/57/18 46/59/19 10/60/19 
f 11/62/11 10/60/19 46/59/19 
f 46/59/19 38/61/11 11/62/11 
s off
f 47/154/1 17/220/1 48/219/1 
f 48/219/1 49/155/1 47/154/1 
f 47/154/20 35/242/20 50/241/20 
f 50/241/21 51/153/21 47/154/21 
f 52/63/1 53/64/1 54/148/1 
f 54/148/1 55/115/1 52/63/1 
f 55/115/1 54/148/1 56/147/1 
f 56/147/1 57/114/1 55/115/1 
f 57/114/1 56/147/1 58/146/1 
f 58/146/1 59/113/1 57/114/1 
f 59/113/1 58/146/1 60/145/1 
f 60/145/1 61/112/1 59/113/1 
f 61/112/1 60/145/1 62/144/1 
f 62/144/1 25/111/1 61/112/1 
f 25/111/1 62/144/1 2/143/1 
f 2/143/1 1/110/1 25/111/1 
f 63/66/1 64/65/1 65/105/1 
f 65/105/1 66/138/1 63/66/1 
f 66/138/1 65/105/1 67/106/1 
f 67/106/1 68/139/1 66/138/1 
f 68/139/1 67/106/1 69/107/1 
f 69/107/1 70/140/1 68/139/1 
f 70/140/1 69/107/1 71/108/1 
f 71/108/1 72/141/1 70/140/1 
f 72/141/1 71/108/1 4/109/1 
f 4/109/1 3/142/1 72/141/1 
f 73/9/1 74/10/1 75/182/1 
f 75/182/1 76/171/1 73/9/1 
f 76/171/1 75/182/1 77/183/1 
f 77/183/1 78/172/1 76/171/1 
f 78/172/1 77/183/1 79/184/1 
f 79/184/1 80/173/1 78/172/1 
f 80/173/1 79/184/1 81/185/1 
f 81/185/1 82/174/1 80/173/1 
f 82/174/1 81/185/1 27/186/1 
f 27/186/1 37/175/1 82/174/1 
f 37/175/1 27/186/1 14/187/1 
f 14/187/1 13/176/1 37/175/1 
f 83/12/1 84/11/1 85/181/1 
f 85/181/1 86/192/1 83/12/1 
f 86/192/1 85/181/1 87/180/1 
f 87/180/1 88/191/1 86/192/1 
f 88/191/1 87/180/1 89/179/1 
f 89/179/1 90/190/1 88/191/1 
f 90/190/1 89/179/1 91/178/1 
f 91/178/1 92/189/1 90/190/1 
f 92/189/1 91/178/1 16/177/1 
f 16/177/1 15/188/1 92/189/1 
f 53/29/2 93/30/2 94/204/2 
f 94/204/2 54/137/2 53/29/2 
f 54/137/2 94/204/2 95/205/2 
f 95/205/2 56/136/2 54/137/2 
f 56/136/2 95/205/2 96/206/2 
f 96/206/2 58/135/2 56/136/2 
f 58/135/2 96/206/2 97/207/2 
f 97/207/2 60/134/2 58/135/2 
f 60/134/2 97/207/2 48/208/2 
f 48/208/2 62/133/2 60/134/2 
f 62/133/2 48/208/2 17/209/2 
f 17/209/2 2/132/2 62/133/2 
f 98/27/2 63/28/2 66/127/2 
f 66/127/2 99/214/2 98/27/2 
f 99/214/2 66/127/2 68/128/2 
f 68/128/2 100/213/2 99/214/2 
f 100/213/2 68/128/2 70/129/2 
f 70/129/2 101/212/2 100/213/2 
f 101/212/2 70/129/2 72/130/2 
f 72/130/2 102/211/2 101/212/2 
f 102/211/2 72/130/2 3/131/2 
f 3/131/2 18/210/2 102/211/2 
f 64/2/5 103/3/5 104/83/5 
f 104/83/5 65/116/5 64/2/5 
f 65/116/5 104/83/5 105/84/5 
f 105/84/5 67/117/5 65/116/5 
f 67/117/5 105/84/5 106/85/5 
f 106/85/5 69/118/5 67/117/5 
f 69/118/5 106/85/5 107/86/5 
f 107/86/5 71/119/5 69/118/5 
f 71/119/5 107/86/5 108/87/5 
f 108/87/5 4/120/5 71/119/5 
f 4/120/5 108/87/5 23/88/5 
f 23/88/5 1/121/5 4/120/5 
f 109/4/5 52/1/5 55/126/5 
f 55/126/5 110/93/5 109/4/5 
f 110/93/5 55/126/5 57/125/5 
f 57/125/5 111/92/5 110/93/5 
f 111/92/5 57/125/5 59/124/5 
f 59/124/5 112/91/5 111/92/5 
f 112/91/5 59/124/5 61/123/5 
f 61/123/5 113/90/5 112/91/5 
f 113/90/5 61/123/5 25/122/5 
f 25/122/5 24/89/5 113/90/5 
f 114/6/6 83/7/6 86/203/6 
f 86/203/6 115/104/6 114/6/6 
f 115/104/6 86/203/6 88/202/6 
f 88/202/6 116/103/6 115/104/6 
f 116/103/6 88/202/6 90/201/6 
f 90/201/6 117/102/6 116/103/6 
f 117/102/6 90/201/6 92/200/6 
f 92/200/6 118/101/6 117/102/6 
f 118/101/6 92/200/6 15/199/6 
f 15/199/6 119/100/6 118/101/6 
f 119/100/6 15/199/6 14/198/6 
f 14/198/6 26/99/6 119/100/6 
f 74/8/6 120/5/6 121/94/6 
f 121/94/6 75/193/6 74/8/6 
f 75/193/6 121/94/6 122/95/6 
f 122/95/6 77/194/6 75/193/6 
f 77/194/6 122/95/6 123/96/6 
f 123/96/6 79/195/6 77/194/6 
f 79/195/6 123/96/6 124/97/6 
f 124/97/6 81/196/6 79/195/6 
f 81/196/6 124/97/6 28/98/6 
f 28/98/6 27/197/6 81/196/6 
f 84/41/7 125/42/7 126/226/7 
f 126/226/7 85/170/7 84/41/7 
f 85/170/7 126/226/7 127/227/7 
f 127/227/7 87/169/7 85/170/7 
f 87/169/7 127/227/7 128/228/7 
f 128/228/7 89/168/7 87/169/7 
f 89/168/7 128/228/7 129/229/7 
f 129/229/7 91/167/7 89/168/7 
f 91/167/7 129/229/7 50/230/7 
f 50/230/7 16/166/7 91/167/7 
f 16/166/7 50/230/7 35/231/7 
f 35/231/7 13/165/7 16/166/7 
f 130/39/7 73/40/7 76/160/7 
f 76/160/7 131/236/7 130/39/7 
f 131/236/7 76/160/7 78/161/7 
f 78/161/7 132/235/7 131/236/7 
f 132/235/7 78/161/7 80/162/7 
f 80/162/7 133/234/7 132/235/7 
f 133/234/7 80/162/7 82/163/7 
f 82/163/7 134/233/7 133/234/7 
f 134/233/7 82/163/7 37/164/7 
f 37/164/7 36/232/7 134/233/7 
f 135/22/22 98/23/22 98/19/22 
f 135/22/1 98/19/1 99/225/1 
f 136/149/1 135/22/1 99/225/1 
f 136/149/1 99/225/1 100/224/1 
f 100/224/1 137/150/1 136/149/1 
f 137/150/1 100/224/1 101/223/1 
f 101/223/1 138/151/1 137/150/1 
f 138/151/1 101/223/1 102/222/1 
f 102/222/1 139/152/1 138/151/1 
f 139/152/1 102/222/1 18/221/1 
f 18/221/1 51/153/1 139/152/1 
f 51/153/1 18/221/1 17/220/1 
f 17/220/1 47/154/1 51/153/1 
f 93/20/1 140/21/1 141/159/1 
f 141/159/1 94/215/1 93/20/1 
f 94/215/1 141/159/1 142/158/1 
f 142/158/1 95/216/1 94/215/1 
f 95/216/1 142/158/1 143/157/1 
f 143/157/1 96/217/1 95/216/1 
f 96/217/1 143/157/1 144/156/1 
f 144/156/1 97/218/1 96/217/1 
f 97/218/1 144/156/1 49/155/1 
f 49/155/1 48/219/1 97/218/1 
f 140/21/1 130/25/1 131/247/1 
f 131/247/1 141/159/1 140/21/1 
f 141/159/1 131/247/1 132/246/1 
f 132/246/1 142/158/1 141/159/1 
f 142/158/1 132/246/1 133/245/1 
f 133/245/1 143/157/1 142/158/1 
f 143/157/1 133/245/1 134/244/1 
f 134/244/20 144/156/20 143/157/20 
f 144/156/20 134/244/20 36/243/20 
f 36/243/21 49/155/21 144/156/21 
f 49/155/20 36/243/20 35/242/20 
f 35/242/21 47/154/21 49/155/21 
f 126/237/22 125/26/22 125/24/22 
f 126/237/20 125/24/20 135/22/20 
f 126/237/21 135/22/21 136/149/21 
f 126/237/21 136/149/21 137/150/21 
f 137/150/20 127/238/20 126/237/20 
f 127/238/21 137/150/21 138/151/21 
f 138/151/20 128/239/20 127/238/20 
f 128/239/20 138/151/20 139/152/20 
f 139/152/20 129/240/20 128/239/20 
f 129/240/21 139/152/21 51/153/21 
f 51/153/20 50/241/20 129/240/20 
# 236 faces

