# 3ds Max Wavefront OBJ Exporter v0.97b - (c)2007 guruware
# File Created: 28.07.2017 00:52:42

#
# object Plane003
#

v  -16.0000 0.0000 -0.0000
v  -11.0000 0.0000 -0.0000
v  -11.0000 0.0000 -5.3333
v  -16.0000 0.0000 -5.3333
v  -2.0000 0.0000 -32.0000
v  -2.0000 0.0000 -31.3050
v  -1.9200 0.0000 -30.5953
v  -1.6800 -0.0000 -30.0433
v  -1.2800 0.0000 -29.6489
v  -0.7200 0.0000 -29.4124
v  0.0000 0.0000 -29.3335
v  0.0000 0.0000 -32.0000
v  11.0000 0.0000 -0.0000
v  16.0000 0.0000 -0.0000
v  16.0000 0.0000 -5.3333
v  11.0000 0.0000 -5.3333
v  -11.0000 -0.3000 -0.0000
v  -11.0000 -0.3000 -5.3333
v  2.0000 0.0000 -31.3050
v  2.0000 -0.3000 -31.3050
v  2.0000 -0.3000 -32.0000
v  2.0000 0.0000 -32.0000
v  -19.0000 -3.1650 -0.0000
v  -19.0000 -3.1650 5.3333
v  -16.0000 0.0000 5.3333
v  19.0000 -3.1650 -0.0000
v  16.0000 0.0000 5.3333
v  19.0000 -3.1650 5.3333
v  -2.0000 -0.3000 -32.0000
v  -2.0000 -0.3000 -31.3050
v  1.9200 0.0000 -30.5953
v  1.6800 0.0000 -30.0433
v  1.2800 0.0000 -29.6489
v  0.7200 0.0000 -29.4124
v  11.0000 -0.3000 -0.0000
v  11.0000 -0.3000 5.3333
v  11.0000 0.0000 5.3333
v  1.9200 -0.3000 -30.5953
v  -1.9200 -0.3000 -30.5953
v  1.6800 -0.3000 -30.0433
v  1.2800 -0.3000 -29.6489
v  0.7200 -0.3000 -29.4124
v  0.0000 -0.3000 -29.3335
v  -1.6800 -0.3000 -30.0433
v  -1.2800 -0.3000 -29.6489
v  -0.7200 -0.3000 -29.4124
v  0.0000 -0.3000 -0.0000
v  -11.0000 -0.3000 5.3333
v  0.0000 -0.3000 5.3333
v  11.0000 -0.3000 -5.3333
v  0.0000 -0.3000 -5.3333
v  -16.0000 0.0000 32.0000
v  -11.0000 0.0000 32.0000
v  -11.0000 0.0000 26.6667
v  -16.0000 0.0000 26.6667
v  -11.0000 0.0000 21.3333
v  -16.0000 0.0000 21.3333
v  -11.0000 0.0000 16.0000
v  -16.0000 0.0000 16.0000
v  -11.0000 0.0000 10.6667
v  -16.0000 0.0000 10.6667
v  -11.0000 0.0000 5.3333
v  -11.0000 0.0000 -32.0000
v  -16.0000 0.0000 -32.0000
v  -16.0000 0.0000 -26.6667
v  -11.0000 0.0000 -26.6667
v  -16.0000 0.0000 -21.3333
v  -11.0000 0.0000 -21.3333
v  -16.0000 0.0000 -16.0000
v  -11.0000 0.0000 -16.0000
v  -16.0000 0.0000 -10.6667
v  -11.0000 0.0000 -10.6667
v  11.0000 0.0000 32.0000
v  16.0000 0.0000 32.0000
v  16.0000 0.0000 26.6667
v  11.0000 0.0000 26.6667
v  16.0000 0.0000 21.3333
v  11.0000 0.0000 21.3333
v  16.0000 0.0000 16.0000
v  11.0000 0.0000 16.0000
v  16.0000 0.0000 10.6667
v  11.0000 0.0000 10.6667
v  16.0000 0.0000 -32.0000
v  11.0000 0.0000 -32.0000
v  11.0000 0.0000 -26.6667
v  16.0000 0.0000 -26.6667
v  11.0000 0.0000 -21.3333
v  16.0000 0.0000 -21.3333
v  11.0000 0.0000 -16.0000
v  16.0000 0.0000 -16.0000
v  11.0000 0.0000 -10.6667
v  16.0000 0.0000 -10.6667
v  -11.0000 -0.3000 32.0000
v  -11.0000 -0.3000 26.6667
v  -11.0000 -0.3000 21.3333
v  -11.0000 -0.3000 16.0000
v  -11.0000 -0.3000 10.6667
v  -11.0000 -0.3000 -32.0000
v  -11.0000 -0.3000 -26.6667
v  -11.0000 -0.3000 -21.3333
v  -11.0000 -0.3000 -16.0000
v  -11.0000 -0.3000 -10.6667
v  -19.0000 -3.1650 -32.0000
v  -19.0000 -3.1650 -26.6667
v  -19.0000 -3.1650 -21.3333
v  -19.0000 -3.1650 -16.0000
v  -19.0000 -3.1650 -10.6667
v  -19.0000 -3.1650 -5.3333
v  -19.0000 -3.1650 32.0000
v  -19.0000 -3.1650 26.6667
v  -19.0000 -3.1650 21.3333
v  -19.0000 -3.1650 16.0000
v  -19.0000 -3.1650 10.6667
v  19.0000 -3.1650 -32.0000
v  19.0000 -3.1650 -26.6667
v  19.0000 -3.1650 -21.3333
v  19.0000 -3.1650 -16.0000
v  19.0000 -3.1650 -10.6667
v  19.0000 -3.1650 -5.3333
v  19.0000 -3.1650 32.0000
v  19.0000 -3.1650 26.6667
v  19.0000 -3.1650 21.3333
v  19.0000 -3.1650 16.0000
v  19.0000 -3.1650 10.6667
v  11.0000 -0.3000 -32.0000
v  11.0000 -0.3000 -26.6667
v  11.0000 -0.3000 -21.3333
v  11.0000 -0.3000 -16.0000
v  11.0000 -0.3000 -10.6667
v  11.0000 -0.3000 32.0000
v  11.0000 -0.3000 26.6667
v  11.0000 -0.3000 21.3333
v  11.0000 -0.3000 16.0000
v  11.0000 -0.3000 10.6667
v  0.0000 -0.3000 -32.0000
v  0.0000 -0.3000 -26.6667
v  0.0000 -0.3000 -21.3333
v  0.0000 -0.3000 -16.0000
v  0.0000 -0.3000 -10.6667
v  0.0000 -0.3000 32.0000
v  0.0000 -0.3000 26.6667
v  0.0000 -0.3000 21.3333
v  0.0000 -0.3000 16.0000
v  0.0000 -0.3000 10.6667
# 144 vertices

vn 0.0000 1.0000 -0.0000
vn 0.0000 1.0000 0.0000
vn -0.0000 1.0000 0.0000
vn 1.0000 0.0000 -0.0000
vn 0.9984 0.0000 0.0561
vn -0.7258 0.6879 -0.0000
vn 0.7258 0.6879 -0.0000
vn -1.0000 0.0000 -0.0000
vn -0.9984 0.0000 0.0561
vn 0.9661 0.0000 0.2582
vn -0.9661 0.0000 0.2582
vn 0.8246 0.0000 0.5657
vn 0.5555 0.0000 0.8315
vn 0.2516 0.0000 0.9678
vn -0.0000 0.0000 1.0000
vn 0.0000 0.0000 1.0000
vn -0.8246 0.0000 0.5657
vn -0.5555 0.0000 0.8315
vn -0.2516 0.0000 0.9678
# 19 vertex normals

vt 1.0000 0.5000 0.0000
vt 0.8770 0.5000 0.0000
vt 0.8770 0.4167 0.0000
vt 1.0000 0.4167 0.0000
vt 0.5240 -0.0000 0.0000
vt 0.5240 0.0096 0.0000
vt 0.5229 0.0119 0.0000
vt 0.5197 0.0146 0.0000
vt 0.5144 0.0164 0.0000
vt 0.5069 0.0126 0.0000
vt 0.4988 0.0137 0.0000
vt 0.4988 -0.0000 0.0000
vt 0.1245 0.5000 0.0000
vt -0.0000 0.5000 0.0000
vt -0.0000 0.4167 0.0000
vt 0.1245 0.4167 0.0000
vt 0.0000 1.0000 0.0000
vt 0.0000 0.0000 0.0000
vt 0.0000 -0.0000 0.0000
vt 0.5231 0.0252 0.0000
vt 0.5231 -0.0000 0.0000
vt 0.9702 -0.0000 0.0000
vt 0.9702 1.0000 0.0000
vt 0.9652 1.0000 0.0000
vt 0.9652 -0.0000 0.0000
vt 0.9702 0.0000 0.0000
vt 0.9652 0.0000 0.0000
vt 0.4749 0.0252 0.0000
vt 0.4749 -0.0000 0.0000
vt 0.4741 -0.0000 0.0000
vt 0.4741 0.0096 0.0000
vt 0.4751 0.0119 0.0000
vt 0.4782 0.0146 0.0000
vt 0.4834 0.0164 0.0000
vt 0.4907 0.0126 0.0000
vt 1.0000 1.0000 0.0000
vt 1.0000 0.0000 0.0000
vt 0.5216 -0.0000 0.0000
vt 0.5216 0.0252 0.0000
vt 0.4765 0.0252 0.0000
vt 0.4765 -0.0000 0.0000
vt 0.5170 -0.0000 0.0000
vt 0.5170 0.0252 0.0000
vt 0.5093 -0.0000 0.0000
vt 0.5093 0.0252 0.0000
vt 0.5051 -0.0000 0.0000
vt 0.5051 0.0252 0.0000
vt 0.5000 -0.0000 0.0000
vt 0.5000 0.0252 0.0000
vt 0.4811 0.0252 0.0000
vt 0.4811 -0.0000 0.0000
vt 0.4888 0.0252 0.0000
vt 0.4888 -0.0000 0.0000
vt 0.4953 0.0252 0.0000
vt 0.4953 -0.0000 0.0000
vt 0.5000 0.5080 0.0000
vt 0.8760 0.5080 0.0000
vt 0.8760 0.5900 0.0000
vt 0.5000 0.5900 0.0000
vt 0.1244 0.5080 0.0000
vt 0.1244 0.4260 0.0000
vt 0.5000 0.4260 0.0000
vt 0.8770 1.0000 0.0000
vt 0.8770 0.9167 0.0000
vt 1.0000 0.9167 0.0000
vt 0.8770 0.8333 0.0000
vt 1.0000 0.8333 0.0000
vt 0.8770 0.7500 0.0000
vt 1.0000 0.7500 0.0000
vt 0.8770 0.6667 0.0000
vt 1.0000 0.6667 0.0000
vt 0.8770 0.5833 0.0000
vt 1.0000 0.5833 0.0000
vt 0.8770 -0.0000 0.0000
vt 1.0000 -0.0000 0.0000
vt 1.0000 0.0833 0.0000
vt 0.8770 0.0833 0.0000
vt 1.0000 0.1667 0.0000
vt 0.8770 0.1667 0.0000
vt 1.0000 0.2500 0.0000
vt 0.8770 0.2500 0.0000
vt 1.0000 0.3333 0.0000
vt 0.8770 0.3333 0.0000
vt 0.1245 1.0000 0.0000
vt -0.0000 1.0000 0.0000
vt -0.0000 0.9167 0.0000
vt 0.1245 0.9167 0.0000
vt -0.0000 0.8333 0.0000
vt 0.1245 0.8333 0.0000
vt -0.0000 0.7500 0.0000
vt 0.1245 0.7500 0.0000
vt -0.0000 0.6667 0.0000
vt 0.1245 0.6667 0.0000
vt -0.0000 0.5833 0.0000
vt 0.1245 0.5833 0.0000
vt 0.1245 -0.0000 0.0000
vt 0.1245 0.0833 0.0000
vt 0.0000 0.0833 0.0000
vt 0.1245 0.1667 0.0000
vt 0.0000 0.1667 0.0000
vt 0.1245 0.2500 0.0000
vt 0.0000 0.2500 0.0000
vt 0.1245 0.3333 0.0000
vt 0.0000 0.3333 0.0000
vt -0.0000 -0.0000 0.0000
vt 0.9950 1.0000 0.0000
vt 0.9950 -0.0000 0.0000
vt 0.9901 1.0000 0.0000
vt 0.9901 -0.0000 0.0000
vt 0.9851 1.0000 0.0000
vt 0.9851 -0.0000 0.0000
vt 0.9801 1.0000 0.0000
vt 0.9801 -0.0000 0.0000
vt 0.9751 1.0000 0.0000
vt 0.9751 -0.0000 0.0000
vt 0.9403 1.0000 0.0000
vt 0.9403 -0.0000 0.0000
vt 0.9453 -0.0000 0.0000
vt 0.9453 1.0000 0.0000
vt 0.9503 -0.0000 0.0000
vt 0.9503 1.0000 0.0000
vt 0.9553 -0.0000 0.0000
vt 0.9553 1.0000 0.0000
vt 0.9602 -0.0000 0.0000
vt 0.9602 1.0000 0.0000
vt 0.9950 0.0000 0.0000
vt 0.9901 0.0000 0.0000
vt 0.9851 0.0000 0.0000
vt 0.9801 0.0000 0.0000
vt 0.9751 0.0000 0.0000
vt 0.9403 0.0000 0.0000
vt 0.9453 0.0000 0.0000
vt 0.9503 0.0000 0.0000
vt 0.9553 0.0000 0.0000
vt 0.9602 0.0000 0.0000
vt 0.5000 0.0160 0.0000
vt 0.8760 0.0160 0.0000
vt 0.8760 0.0980 0.0000
vt 0.5000 0.0980 0.0000
vt 0.8760 0.1800 0.0000
vt 0.5000 0.1800 0.0000
vt 0.8760 0.2620 0.0000
vt 0.5000 0.2620 0.0000
vt 0.8760 0.3440 0.0000
vt 0.5000 0.3440 0.0000
vt 0.8760 0.4260 0.0000
vt 0.8760 1.0000 0.0000
vt 0.5000 1.0000 0.0000
vt 0.5000 0.9180 0.0000
vt 0.8760 0.9180 0.0000
vt 0.5000 0.8360 0.0000
vt 0.8760 0.8360 0.0000
vt 0.5000 0.7540 0.0000
vt 0.8760 0.7540 0.0000
vt 0.5000 0.6720 0.0000
vt 0.8760 0.6720 0.0000
vt 0.1244 1.0000 0.0000
vt 0.1244 0.9180 0.0000
vt 0.1244 0.8360 0.0000
vt 0.1244 0.7540 0.0000
vt 0.1244 0.6720 0.0000
vt 0.1244 0.5900 0.0000
vt 0.1244 0.0980 0.0000
vt 0.1244 0.0160 0.0000
vt 0.1244 0.1800 0.0000
vt 0.1244 0.2620 0.0000
vt 0.1244 0.3440 0.0000
# 167 texture coords

g Plane003
s off
f 1/1/1 2/2/1 3/3/1 
f 3/3/1 4/4/1 1/1/1 
s 1
f 5/5/2 6/6/1 7/7/1 
f 5/5/2 7/7/1 8/8/3 
f 5/5/2 8/8/3 9/9/3 
f 5/5/2 9/9/3 10/10/1 
f 5/5/2 10/10/1 11/11/1 
f 5/5/2 11/11/1 12/12/1 
s off
f 13/13/1 14/14/1 15/15/1 
f 15/15/1 16/16/1 13/13/1 
f 2/17/4 17/18/4 18/19/4 
f 18/19/4 3/17/4 2/17/4 
s 2
f 19/20/5 20/21/5 21/21/4 
f 21/21/4 22/20/4 19/20/5 
s off
f 1/22/6 23/23/6 24/24/6 
f 24/24/6 25/25/6 1/22/6 
f 26/23/7 14/26/7 27/27/7 
f 27/27/7 28/24/7 26/23/7 
s 2
f 5/28/8 29/29/8 30/29/9 
f 30/29/9 6/28/9 5/28/8 
s 1
f 22/30/1 12/12/1 11/11/1 
f 19/31/1 22/30/1 11/11/1 
f 31/32/1 19/31/1 11/11/1 
f 32/33/1 31/32/1 11/11/1 
f 33/34/1 32/33/1 11/11/1 
f 34/35/1 33/34/1 11/11/1 
s off
f 13/36/8 35/37/8 36/37/8 
f 36/37/8 37/36/8 13/36/8 
s 2
f 38/38/10 20/21/5 19/20/5 
f 19/20/5 31/39/10 38/38/10 
f 7/40/11 6/28/9 30/29/9 
f 30/29/9 39/41/11 7/40/11 
f 40/42/12 38/38/10 31/39/10 
f 31/39/10 32/43/12 40/42/12 
f 41/44/13 40/42/12 32/43/12 
f 32/43/12 33/45/13 41/44/13 
f 42/46/14 41/44/13 33/45/13 
f 33/45/13 34/47/14 42/46/14 
f 43/48/15 42/46/14 34/47/14 
f 34/47/14 11/49/16 43/48/15 
f 8/50/17 7/40/11 39/41/11 
f 39/41/11 44/51/17 8/50/17 
f 9/52/18 8/50/17 44/51/17 
f 44/51/17 45/53/18 9/52/18 
f 10/54/19 9/52/18 45/53/18 
f 45/53/18 46/55/19 10/54/19 
f 11/49/16 10/54/19 46/55/19 
f 46/55/19 43/48/15 11/49/16 
s off
f 47/56/1 17/57/1 48/58/1 
f 48/58/1 49/59/1 47/56/1 
f 47/56/1 35/60/1 50/61/1 
f 50/61/1 51/62/1 47/56/1 
f 52/36/1 53/63/1 54/64/1 
f 54/64/1 55/65/1 52/36/1 
f 55/65/1 54/64/1 56/66/1 
f 56/66/1 57/67/1 55/65/1 
f 57/67/1 56/66/1 58/68/1 
f 58/68/1 59/69/1 57/67/1 
f 59/69/1 58/68/1 60/70/1 
f 60/70/1 61/71/1 59/69/1 
f 61/71/1 60/70/1 62/72/1 
f 62/72/1 25/73/1 61/71/1 
f 25/73/1 62/72/1 2/2/1 
f 2/2/1 1/1/1 25/73/1 
f 63/74/1 64/75/1 65/76/1 
f 65/76/1 66/77/1 63/74/1 
f 66/77/1 65/76/1 67/78/1 
f 67/78/1 68/79/1 66/77/1 
f 68/79/1 67/78/1 69/80/1 
f 69/80/1 70/81/1 68/79/1 
f 70/81/1 69/80/1 71/82/1 
f 71/82/1 72/83/1 70/81/1 
f 72/83/1 71/82/1 4/4/1 
f 4/4/1 3/3/1 72/83/1 
f 73/84/1 74/85/1 75/86/1 
f 75/86/1 76/87/1 73/84/1 
f 76/87/1 75/86/1 77/88/1 
f 77/88/1 78/89/1 76/87/1 
f 78/89/1 77/88/1 79/90/1 
f 79/90/1 80/91/1 78/89/1 
f 80/91/1 79/90/1 81/92/1 
f 81/92/1 82/93/1 80/91/1 
f 82/93/1 81/92/1 27/94/1 
f 27/94/1 37/95/1 82/93/1 
f 37/95/1 27/94/1 14/14/1 
f 14/14/1 13/13/1 37/95/1 
f 83/19/1 84/96/1 85/97/1 
f 85/97/1 86/98/1 83/19/1 
f 86/98/1 85/97/1 87/99/1 
f 87/99/1 88/100/1 86/98/1 
f 88/100/1 87/99/1 89/101/1 
f 89/101/1 90/102/1 88/100/1 
f 90/102/1 89/101/1 91/103/1 
f 91/103/1 92/104/1 90/102/1 
f 92/104/1 91/103/1 16/16/1 
f 16/16/1 15/15/1 92/104/1 
f 53/17/4 93/18/4 94/18/4 
f 94/18/4 54/17/4 53/17/4 
f 54/17/4 94/18/4 95/18/4 
f 95/18/4 56/17/4 54/17/4 
f 56/17/4 95/18/4 96/18/4 
f 96/18/4 58/17/4 56/17/4 
f 58/17/4 96/18/4 97/18/4 
f 97/18/4 60/17/4 58/17/4 
f 60/17/4 97/18/4 48/18/4 
f 48/18/4 62/17/4 60/17/4 
f 62/17/4 48/18/4 17/18/4 
f 17/18/4 2/17/4 62/17/4 
f 98/105/4 63/85/4 66/85/4 
f 66/85/4 99/105/4 98/105/4 
f 99/105/4 66/85/4 68/85/4 
f 68/85/4 100/105/4 99/105/4 
f 100/105/4 68/85/4 70/85/4 
f 70/85/4 101/105/4 100/105/4 
f 101/105/4 70/85/4 72/17/4 
f 72/17/4 102/19/4 101/105/4 
f 102/19/4 72/17/4 3/17/4 
f 3/17/4 18/19/4 102/19/4 
f 64/75/6 103/36/6 104/106/6 
f 104/106/6 65/107/6 64/75/6 
f 65/107/6 104/106/6 105/108/6 
f 105/108/6 67/109/6 65/107/6 
f 67/109/6 105/108/6 106/110/6 
f 106/110/6 69/111/6 67/109/6 
f 69/111/6 106/110/6 107/112/6 
f 107/112/6 71/113/6 69/111/6 
f 71/113/6 107/112/6 108/114/6 
f 108/114/6 4/115/6 71/113/6 
f 4/115/6 108/114/6 23/23/6 
f 23/23/6 1/22/6 4/115/6 
f 109/116/6 52/117/6 55/118/6 
f 55/118/6 110/119/6 109/116/6 
f 110/119/6 55/118/6 57/120/6 
f 57/120/6 111/121/6 110/119/6 
f 111/121/6 57/120/6 59/122/6 
f 59/122/6 112/123/6 111/121/6 
f 112/123/6 59/122/6 61/124/6 
f 61/124/6 113/125/6 112/123/6 
f 113/125/6 61/124/6 25/25/6 
f 25/25/6 24/24/6 113/125/6 
f 114/36/7 83/37/7 86/126/7 
f 86/126/7 115/106/7 114/36/7 
f 115/106/7 86/126/7 88/127/7 
f 88/127/7 116/108/7 115/106/7 
f 116/108/7 88/127/7 90/128/7 
f 90/128/7 117/110/7 116/108/7 
f 117/110/7 90/128/7 92/129/7 
f 92/129/7 118/112/7 117/110/7 
f 118/112/7 92/129/7 15/130/7 
f 15/130/7 119/114/7 118/112/7 
f 119/114/7 15/130/7 14/26/7 
f 14/26/7 26/23/7 119/114/7 
f 74/131/7 120/116/7 121/119/7 
f 121/119/7 75/132/7 74/131/7 
f 75/132/7 121/119/7 122/121/7 
f 122/121/7 77/133/7 75/132/7 
f 77/133/7 122/121/7 123/123/7 
f 123/123/7 79/134/7 77/133/7 
f 79/134/7 123/123/7 124/125/7 
f 124/125/7 81/135/7 79/134/7 
f 81/135/7 124/125/7 28/24/7 
f 28/24/7 27/27/7 81/135/7 
f 84/36/8 125/75/8 126/75/8 
f 126/75/8 85/36/8 84/36/8 
f 85/36/8 126/75/8 127/75/8 
f 127/75/8 87/36/8 85/36/8 
f 87/36/8 127/75/8 128/75/8 
f 128/75/8 89/36/8 87/36/8 
f 89/36/8 128/75/8 129/75/8 
f 129/75/8 91/36/8 89/36/8 
f 91/36/8 129/75/8 50/75/8 
f 50/75/8 16/36/8 91/36/8 
f 16/36/8 50/75/8 35/37/8 
f 35/37/8 13/36/8 16/36/8 
f 130/37/8 73/36/8 76/36/8 
f 76/36/8 131/37/8 130/37/8 
f 131/37/8 76/36/8 78/36/8 
f 78/36/8 132/37/8 131/37/8 
f 132/37/8 78/36/8 80/36/8 
f 80/36/8 133/37/8 132/37/8 
f 133/37/8 80/36/8 82/36/8 
f 82/36/8 134/37/8 133/37/8 
f 134/37/8 82/36/8 37/36/8 
f 37/36/8 36/37/8 134/37/8 
f 135/136/1 98/137/1 99/138/1 
f 136/139/1 135/136/1 99/138/1 
f 136/139/1 99/138/1 100/140/1 
f 100/140/1 137/141/1 136/139/1 
f 137/141/1 100/140/1 101/142/1 
f 101/142/1 138/143/1 137/141/1 
f 138/143/1 101/142/1 102/144/1 
f 102/144/1 139/145/1 138/143/1 
f 139/145/1 102/144/1 18/146/1 
f 18/146/1 51/62/1 139/145/1 
f 51/62/1 18/146/1 17/57/1 
f 17/57/1 47/56/1 51/62/1 
f 93/147/1 140/148/1 141/149/1 
f 141/149/1 94/150/1 93/147/1 
f 94/150/1 141/149/1 142/151/1 
f 142/151/1 95/152/1 94/150/1 
f 95/152/1 142/151/1 143/153/1 
f 143/153/1 96/154/1 95/152/1 
f 96/154/1 143/153/1 144/155/1 
f 144/155/1 97/156/1 96/154/1 
f 97/156/1 144/155/1 49/59/1 
f 49/59/1 48/58/1 97/156/1 
f 140/148/1 130/157/1 131/158/1 
f 131/158/1 141/149/1 140/148/1 
f 141/149/1 131/158/1 132/159/1 
f 132/159/1 142/151/1 141/149/1 
f 142/151/1 132/159/1 133/160/1 
f 133/160/1 143/153/1 142/151/1 
f 143/153/1 133/160/1 134/161/1 
f 134/161/1 144/155/1 143/153/1 
f 144/155/1 134/161/1 36/162/1 
f 36/162/1 49/59/1 144/155/1 
f 49/59/1 36/162/1 35/60/1 
f 35/60/1 47/56/1 49/59/1 
f 126/163/1 125/164/1 135/136/1 
f 126/163/1 135/136/1 136/139/1 
f 126/163/1 136/139/1 137/141/1 
f 137/141/1 127/165/1 126/163/1 
f 127/165/1 137/141/1 138/143/1 
f 138/143/1 128/166/1 127/165/1 
f 128/166/1 138/143/1 139/145/1 
f 139/145/1 129/167/1 128/166/1 
f 129/167/1 139/145/1 51/62/1 
f 51/62/1 50/61/1 129/167/1 
# 228 faces

