# 3ds Max Wavefront OBJ Exporter v0.97b - (c)2007 guruware
# File Created: 28.07.2017 07:52:26

#
# object Plane006
#

v  -16.0000 0.0000 -0.0000
v  -11.0000 0.0000 -0.0000
v  -11.0000 0.0000 -5.3333
v  -16.0000 0.0000 -5.3333
v  -16.0000 7.0000 -0.0000
v  -16.0000 7.0000 -5.3333
v  16.0000 7.0000 -0.0000
v  16.0000 0.0000 -0.0000
v  16.0000 0.0000 5.3333
v  16.0000 7.0000 5.3333
v  0.0000 7.0000 -0.0000
v  0.0000 7.0000 -5.3333
v  16.0000 7.0000 -5.3333
v  17.0000 -0.5000 -0.0000
v  17.0000 7.5000 -0.0000
v  17.0000 7.5000 5.3333
v  17.0000 -0.5000 5.3333
v  -17.0000 -0.5000 -0.0000
v  -17.0000 7.5000 -0.0000
v  -17.0000 7.5000 -5.3333
v  -17.0000 -0.5000 -5.3333
v  0.0000 7.5000 -0.0000
v  0.0000 7.5000 -5.3333
v  11.0000 0.0000 -0.0000
v  16.0000 0.0000 -5.3333
v  11.0000 0.0000 -5.3333
v  0.0000 7.5000 5.3333
v  0.0000 7.0000 5.3333
v  -16.0000 7.0000 5.3333
v  11.0000 -0.3000 -0.0000
v  11.0000 -0.3000 5.3333
v  11.0000 0.0000 5.3333
v  -11.0000 -0.3000 -0.0000
v  -11.0000 -0.3000 -5.3333
v  -1.0000 0.0000 -32.0000
v  -1.0000 0.0000 -28.3938
v  -0.6000 7.0000 -29.1102
v  -0.6000 7.0000 -32.0000
v  -0.5000 0.0000 -27.0535
v  0.0000 0.0000 -26.6670
v  0.0000 7.0000 -26.6670
v  0.5000 0.0000 -27.0535
v  1.0000 0.0000 -32.0000
v  0.6000 7.0000 -32.0000
v  0.6000 7.0000 -29.1102
v  1.0000 0.0000 -28.3938
v  0.0000 -0.3000 -0.0000
v  0.0000 -0.3000 5.3333
v  0.0000 -0.3000 -5.3333
v  -16.0000 0.0000 32.0000
v  -11.0000 0.0000 32.0000
v  -11.0000 0.0000 26.6667
v  -16.0000 0.0000 26.6667
v  -11.0000 0.0000 21.3333
v  -16.0000 0.0000 21.3333
v  -11.0000 0.0000 16.0000
v  -16.0000 0.0000 16.0000
v  -11.0000 0.0000 10.6667
v  -16.0000 0.0000 10.6667
v  -11.0000 0.0000 5.3333
v  -16.0000 0.0000 5.3333
v  -11.0000 0.0000 -32.0000
v  -16.0000 0.0000 -32.0000
v  -16.0000 0.0000 -26.6667
v  -11.0000 0.0000 -26.6667
v  -16.0000 0.0000 -21.3333
v  -11.0000 0.0000 -21.3333
v  -16.0000 0.0000 -16.0000
v  -11.0000 0.0000 -16.0000
v  -16.0000 0.0000 -10.6667
v  -11.0000 0.0000 -10.6667
v  -16.0000 7.0000 32.0000
v  -16.0000 7.0000 26.6667
v  -16.0000 7.0000 21.3333
v  -16.0000 7.0000 16.0000
v  -16.0000 7.0000 10.6667
v  -16.0000 7.0000 -32.0000
v  -16.0000 7.0000 -26.6667
v  -16.0000 7.0000 -21.3333
v  -16.0000 7.0000 -16.0000
v  -16.0000 7.0000 -10.6667
v  16.0000 7.0000 -32.0000
v  16.0000 0.0000 -32.0000
v  16.0000 0.0000 -26.6667
v  16.0000 7.0000 -26.6667
v  16.0000 0.0000 -21.3333
v  16.0000 7.0000 -21.3333
v  16.0000 0.0000 -16.0000
v  16.0000 7.0000 -16.0000
v  16.0000 0.0000 -10.6667
v  16.0000 7.0000 -10.6667
v  16.0000 0.0000 32.0000
v  16.0000 7.0000 32.0000
v  16.0000 7.0000 26.6667
v  16.0000 0.0000 26.6667
v  16.0000 7.0000 21.3333
v  16.0000 0.0000 21.3333
v  16.0000 7.0000 16.0000
v  16.0000 0.0000 16.0000
v  16.0000 7.0000 10.6667
v  16.0000 0.0000 10.6667
v  0.0000 7.0000 32.0000
v  0.0000 7.0000 26.6667
v  0.0000 7.0000 21.3333
v  0.0000 7.0000 16.0000
v  0.0000 7.0000 10.6667
v  0.0000 7.0000 -32.0000
v  0.0000 7.0000 -26.6667
v  0.0000 7.0000 -21.3333
v  0.0000 7.0000 -16.0000
v  0.0000 7.0000 -10.6667
v  17.0000 -0.5000 -32.0000
v  17.0000 7.5000 -32.0000
v  17.0000 7.5000 -26.6667
v  17.0000 -0.5000 -26.6667
v  17.0000 7.5000 -21.3333
v  17.0000 -0.5000 -21.3333
v  17.0000 7.5000 -16.0000
v  17.0000 -0.5000 -16.0000
v  17.0000 7.5000 -10.6667
v  17.0000 -0.5000 -10.6667
v  17.0000 7.5000 -5.3333
v  17.0000 -0.5000 -5.3333
v  17.0000 7.5000 32.0000
v  17.0000 -0.5000 32.0000
v  17.0000 -0.5000 26.6667
v  17.0000 7.5000 26.6667
v  17.0000 -0.5000 21.3333
v  17.0000 7.5000 21.3333
v  17.0000 -0.5000 16.0000
v  17.0000 7.5000 16.0000
v  17.0000 -0.5000 10.6667
v  17.0000 7.5000 10.6667
v  -17.0000 -0.5000 32.0000
v  -17.0000 7.5000 32.0000
v  -17.0000 7.5000 26.6667
v  -17.0000 -0.5000 26.6667
v  -17.0000 7.5000 21.3333
v  -17.0000 -0.5000 21.3333
v  -17.0000 7.5000 16.0000
v  -17.0000 -0.5000 16.0000
v  -17.0000 7.5000 10.6667
v  -17.0000 -0.5000 10.6667
v  -17.0000 7.5000 5.3333
v  -17.0000 -0.5000 5.3333
v  -17.0000 7.5000 -32.0000
v  -17.0000 -0.5000 -32.0000
v  -17.0000 -0.5000 -26.6667
v  -17.0000 7.5000 -26.6667
v  -17.0000 -0.5000 -21.3333
v  -17.0000 7.5000 -21.3333
v  -17.0000 -0.5000 -16.0000
v  -17.0000 7.5000 -16.0000
v  -17.0000 -0.5000 -10.6667
v  -17.0000 7.5000 -10.6667
v  0.0000 7.5000 32.0000
v  0.0000 7.5000 26.6667
v  0.0000 7.5000 21.3333
v  0.0000 7.5000 16.0000
v  0.0000 7.5000 10.6667
v  0.0000 7.5000 -32.0000
v  0.0000 7.5000 -26.6667
v  0.0000 7.5000 -21.3333
v  0.0000 7.5000 -16.0000
v  0.0000 7.5000 -10.6667
v  11.0000 0.0000 32.0000
v  11.0000 0.0000 26.6667
v  11.0000 0.0000 21.3333
v  11.0000 0.0000 16.0000
v  11.0000 0.0000 10.6667
v  11.0000 0.0000 -32.0000
v  11.0000 0.0000 -26.6667
v  11.0000 0.0000 -21.3333
v  11.0000 0.0000 -16.0000
v  11.0000 0.0000 -10.6667
v  11.0000 -0.3000 -32.0000
v  11.0000 -0.3000 -26.6667
v  11.0000 -0.3000 -21.3333
v  11.0000 -0.3000 -16.0000
v  11.0000 -0.3000 -10.6667
v  11.0000 -0.3000 -5.3333
v  11.0000 -0.3000 32.0000
v  11.0000 -0.3000 26.6667
v  11.0000 -0.3000 21.3333
v  11.0000 -0.3000 16.0000
v  11.0000 -0.3000 10.6667
v  -11.0000 -0.3000 32.0000
v  -11.0000 -0.3000 26.6667
v  -11.0000 -0.3000 21.3333
v  -11.0000 -0.3000 16.0000
v  -11.0000 -0.3000 10.6667
v  -11.0000 -0.3000 5.3333
v  -11.0000 -0.3000 -32.0000
v  -11.0000 -0.3000 -26.6667
v  -11.0000 -0.3000 -21.3333
v  -11.0000 -0.3000 -16.0000
v  -11.0000 -0.3000 -10.6667
v  0.0000 -0.3000 -32.0000
v  0.0000 -0.3000 -26.6667
v  0.0000 -0.3000 -21.3333
v  0.0000 -0.3000 -16.0000
v  0.0000 -0.3000 -10.6667
v  0.0000 -0.3000 32.0000
v  0.0000 -0.3000 26.6667
v  0.0000 -0.3000 21.3333
v  0.0000 -0.3000 16.0000
v  0.0000 -0.3000 10.6667
v  -2.0000 0.0000 -27.1666
v  2.0000 0.0000 -27.1666
v  2.0000 0.0000 -32.0000
v  -2.0000 0.0000 -32.0000
v  -2.0000 -0.3000 -27.1666
v  -2.0000 -0.3000 -32.0000
v  2.0000 -0.3000 -27.1666
v  2.0000 -0.3000 -32.0000
v  -2.0000 0.0000 -26.4716
v  -1.9200 0.0000 -25.7619
v  -1.6800 0.0000 -25.2099
v  -1.2800 0.0000 -24.8155
v  -0.7200 0.0000 -24.5790
v  0.0000 0.0000 -24.5001
v  0.0000 0.0000 -27.1666
v  2.0000 0.0000 -26.4716
v  2.0000 -0.3000 -26.4716
v  -2.0000 -0.3000 -26.4716
v  1.9200 0.0000 -25.7619
v  1.6800 0.0000 -25.2099
v  1.2800 0.0000 -24.8155
v  0.7200 0.0000 -24.5790
v  1.9200 -0.3000 -25.7619
v  -1.9200 -0.3000 -25.7619
v  1.6800 -0.3000 -25.2099
v  1.2800 -0.3000 -24.8155
v  0.7200 -0.3000 -24.5790
v  0.0000 -0.3000 -24.5001
v  -1.6800 -0.3000 -25.2099
v  -1.2800 -0.3000 -24.8155
v  -0.7200 -0.3000 -24.5790
# 238 vertices

vn 0.0000 1.0000 -0.0000
vn 1.0000 0.0000 -0.0000
vn -1.0000 0.0000 -0.0000
vn 0.0000 -1.0000 -0.0000
vn -0.9984 0.0570 -0.0000
vn -0.9795 0.0751 0.1869
vn -0.9910 0.0592 0.1199
vn -0.8205 0.0451 0.5699
vn 0.0000 0.0000 1.0000
vn -0.0082 0.2192 0.9756
vn 0.8137 0.0261 0.5807
vn 0.9984 0.0570 -0.0000
vn 0.9913 0.0682 0.1126
vn 0.9830 0.0565 0.1746
vn 0.9984 0.0000 0.0561
vn -0.9984 0.0000 0.0561
vn 0.9661 0.0000 0.2582
vn -0.9661 0.0000 0.2582
vn 0.8246 0.0000 0.5657
vn 0.5555 0.0000 0.8315
vn 0.2516 0.0000 0.9678
vn -0.8246 0.0000 0.5657
vn -0.5555 0.0000 0.8315
vn -0.2516 0.0000 0.9678
# 24 vertex normals

vt 0.0001 0.5000 0.0000
vt 0.0625 0.5000 0.0000
vt 0.0625 0.5834 0.0000
vt 0.0001 0.5834 0.0000
vt 0.6584 0.5000 0.0000
vt 0.5860 0.5000 0.0000
vt 0.5860 0.5833 0.0000
vt 0.6584 0.5833 0.0000
vt 0.5860 0.4167 0.0000
vt 0.6584 0.4167 0.0000
vt 0.8131 0.5471 0.0000
vt 0.7374 0.5483 0.0000
vt 0.7374 0.6392 0.0000
vt 0.8131 0.6379 0.0000
vt 1.0000 1.0000 1.0000
vt 0.0001 0.5833 0.0000
vt 0.0625 0.5833 0.0000
vt 0.6589 0.5504 0.0000
vt 0.7374 0.4575 0.0000
vt 0.6589 0.4595 0.0000
vt 0.0625 0.4167 0.0000
vt 0.4420 0.0000 0.0000
vt 0.4980 0.0000 0.0000
vt 0.4971 1.0000 0.0000
vt 0.4420 1.0000 0.0000
vt 0.4404 0.0000 0.0000
vt 0.4989 0.0000 0.0000
vt 0.4690 1.0000 0.0000
vt 0.4403 0.0000 0.0000
vt 0.5001 0.0000 0.0000
vt 0.4999 1.0003 0.0000
vt 0.4406 1.0003 0.0000
vt 0.4416 0.0000 0.0000
vt 0.4355 0.5000 0.0000
vt 0.2668 0.5000 0.0000
vt 0.2668 0.4167 0.0000
vt 0.4355 0.4167 0.0000
vt 0.0664 0.5000 0.0000
vt 0.2306 0.5000 0.0000
vt 0.2306 0.5833 0.0000
vt 0.0664 0.5833 0.0000
vt 0.0001 0.0001 0.0000
vt 0.0625 0.0001 0.0000
vt 0.0625 0.0834 0.0000
vt 0.0001 0.0834 0.0000
vt 0.0625 0.1667 0.0000
vt 0.0001 0.1667 0.0000
vt 0.0625 0.2501 0.0000
vt 0.0001 0.2501 0.0000
vt 0.0625 0.3334 0.0000
vt 0.0001 0.3334 0.0000
vt 0.0001 0.4167 0.0000
vt 0.0624 1.0000 0.0000
vt 0.0001 1.0000 0.0000
vt 0.0001 0.9167 0.0000
vt 0.0624 0.9167 0.0000
vt 0.0001 0.8333 0.0000
vt 0.0624 0.8333 0.0000
vt 0.0001 0.7500 0.0000
vt 0.0624 0.7500 0.0000
vt 0.0001 0.6667 0.0000
vt 0.0625 0.6667 0.0000
vt 0.6584 0.0000 0.0000
vt 0.5860 0.0000 0.0000
vt 0.5860 0.0833 0.0000
vt 0.6584 0.0833 0.0000
vt 0.5860 0.1667 0.0000
vt 0.6584 0.1667 0.0000
vt 0.5860 0.2500 0.0000
vt 0.6584 0.2500 0.0000
vt 0.5860 0.3333 0.0000
vt 0.6584 0.3333 0.0000
vt 0.5860 1.0000 0.0000
vt 0.6584 1.0000 0.0000
vt 0.6584 0.9167 0.0000
vt 0.5860 0.9167 0.0000
vt 0.6584 0.8333 0.0000
vt 0.5860 0.8333 0.0000
vt 0.6584 0.7500 0.0000
vt 0.5860 0.7500 0.0000
vt 0.6584 0.6667 0.0000
vt 0.5860 0.6667 0.0000
vt 0.8131 0.0021 0.0000
vt 0.7374 0.0033 0.0000
vt 0.7374 0.0941 0.0000
vt 0.8131 0.0929 0.0000
vt 0.7374 0.1850 0.0000
vt 0.8131 0.1837 0.0000
vt 0.7374 0.2758 0.0000
vt 0.8131 0.2746 0.0000
vt 0.7374 0.3666 0.0000
vt 0.8131 0.3654 0.0000
vt 0.8131 0.4562 0.0000
vt 0.7374 1.0933 0.0000
vt 0.8131 1.0921 0.0000
vt 0.8131 1.0013 0.0000
vt 0.7374 1.0025 0.0000
vt 0.8131 0.9104 0.0000
vt 0.7374 0.9117 0.0000
vt 0.8131 0.8196 0.0000
vt 0.7374 0.8208 0.0000
vt 0.8131 0.7288 0.0000
vt 0.7374 0.7300 0.0000
vt 0.0625 0.0002 0.0000
vt 0.0001 0.0002 0.0000
vt 0.0001 0.0835 0.0000
vt 0.0625 0.0835 0.0000
vt 0.0001 0.1668 0.0000
vt 0.0625 0.1668 0.0000
vt 0.0001 0.9999 0.0000
vt 0.0624 0.9999 0.0000
vt 0.0624 0.9166 0.0000
vt 0.0001 0.9166 0.0000
vt 0.6589 1.0954 0.0000
vt 0.6589 1.0046 0.0000
vt 0.6589 0.9137 0.0000
vt 0.6589 0.8229 0.0000
vt 0.6589 0.7321 0.0000
vt 0.6589 0.6412 0.0000
vt 0.6589 0.0054 0.0000
vt 0.6589 0.0962 0.0000
vt 0.6589 0.1870 0.0000
vt 0.6589 0.2779 0.0000
vt 0.6589 0.3687 0.0000
vt 0.4355 1.0000 0.0000
vt 0.2668 1.0000 0.0000
vt 0.2668 0.9167 0.0000
vt 0.4355 0.9167 0.0000
vt 0.2668 0.8333 0.0000
vt 0.4355 0.8333 0.0000
vt 0.2668 0.7500 0.0000
vt 0.4355 0.7500 0.0000
vt 0.2668 0.6667 0.0000
vt 0.4355 0.6667 0.0000
vt 0.2668 0.5833 0.0000
vt 0.4355 0.5833 0.0000
vt 0.2668 0.0000 0.0000
vt 0.4355 0.0000 0.0000
vt 0.4355 0.0833 0.0000
vt 0.2668 0.0833 0.0000
vt 0.4355 0.1667 0.0000
vt 0.2668 0.1667 0.0000
vt 0.4355 0.2500 0.0000
vt 0.2668 0.2500 0.0000
vt 0.4355 0.3333 0.0000
vt 0.2668 0.3333 0.0000
vt 0.0664 0.0000 0.0000
vt 0.2306 0.0000 0.0000
vt 0.2306 0.0833 0.0000
vt 0.0664 0.0833 0.0000
vt 0.2306 0.1667 0.0000
vt 0.0664 0.1667 0.0000
vt 0.2306 0.2500 0.0000
vt 0.0664 0.2500 0.0000
vt 0.2306 0.3333 0.0000
vt 0.0664 0.3333 0.0000
vt 0.2306 0.4167 0.0000
vt 0.0664 0.4167 0.0000
vt 0.2306 1.0000 0.0000
vt 0.0664 1.0000 0.0000
vt 0.0664 0.9167 0.0000
vt 0.2306 0.9167 0.0000
vt 0.0664 0.8333 0.0000
vt 0.2306 0.8333 0.0000
vt 0.0664 0.7500 0.0000
vt 0.2306 0.7500 0.0000
vt 0.0664 0.6667 0.0000
vt 0.2306 0.6667 0.0000
vt 0.2243 0.9138 0.0000
vt 0.2759 0.9137 0.0000
vt 0.2759 0.9970 0.0000
vt 0.2243 0.9971 0.0000
vt 0.2243 0.9136 0.0000
vt 0.2289 0.9136 0.0000
vt 0.2289 0.9969 0.0000
vt 0.2243 0.9969 0.0000
vt 0.2748 0.0185 0.0000
vt 0.2748 0.0281 0.0000
vt 0.2737 0.0304 0.0000
vt 0.2705 0.0331 0.0000
vt 0.2652 0.0349 0.0000
vt 0.2577 0.0311 0.0000
vt 0.2496 0.0322 0.0000
vt 0.2496 0.0185 0.0000
vt 0.2739 0.0437 0.0000
vt 0.2739 0.0185 0.0000
vt 0.2257 0.0437 0.0000
vt 0.2257 0.0185 0.0000
vt 0.2249 0.0185 0.0000
vt 0.2249 0.0281 0.0000
vt 0.2259 0.0304 0.0000
vt 0.2290 0.0331 0.0000
vt 0.2342 0.0349 0.0000
vt 0.2415 0.0311 0.0000
vt 0.2724 0.0185 0.0000
vt 0.2724 0.0437 0.0000
vt 0.2273 0.0437 0.0000
vt 0.2273 0.0185 0.0000
vt 0.2678 0.0185 0.0000
vt 0.2678 0.0437 0.0000
vt 0.2601 0.0185 0.0000
vt 0.2601 0.0437 0.0000
vt 0.2559 0.0185 0.0000
vt 0.2559 0.0437 0.0000
vt 0.2508 0.0185 0.0000
vt 0.2508 0.0437 0.0000
vt 0.2319 0.0437 0.0000
vt 0.2319 0.0185 0.0000
vt 0.2396 0.0437 0.0000
vt 0.2396 0.0185 0.0000
vt 0.2461 0.0437 0.0000
vt 0.2461 0.0185 0.0000
# 212 texture coords

g Plane006
s 1
f 1/1/1 2/2/1 3/3/1 
f 3/3/1 4/4/1 1/1/1 
s 2
f 5/5/2 1/6/2 4/7/2 
f 4/7/2 6/8/2 5/5/2 
s 1
f 7/5/3 8/6/3 9/9/3 
f 9/9/3 10/10/3 7/5/3 
s 4
f 7/11/4 11/12/4 12/13/4 
f 12/13/4 13/14/4 7/11/4 
s 1
f 14/15/2 15/15/2 16/15/2 
f 16/15/2 17/15/2 14/15/2 
f 18/15/3 19/15/3 20/15/3 
f 20/15/3 21/15/3 18/15/3 
s 2
f 19/15/1 22/15/1 23/15/1 
f 23/15/1 20/15/1 19/15/1 
f 24/2/1 8/1/1 25/16/1 
f 25/16/1 26/17/1 24/2/1 
f 15/15/1 22/15/1 27/15/1 
f 27/15/1 16/15/1 15/15/1 
s 4
f 5/18/4 11/12/4 28/19/4 
f 28/19/4 29/20/4 5/18/4 
f 24/2/3 30/2/3 31/21/3 
f 31/21/3 32/21/3 24/2/3 
s 2
f 2/2/2 33/2/2 34/3/2 
f 34/3/2 3/3/2 2/2/2 
s 64
f 35/22/5 36/23/6 37/24/7 
f 37/24/7 38/25/5 35/22/5 
f 39/26/8 40/27/9 41/28/10 
f 40/27/9 42/29/11 41/28/10 
f 43/22/12 44/25/12 45/24/13 
f 45/24/13 46/23/14 43/22/12 
f 46/30/14 45/31/13 41/32/10 
f 41/32/10 42/33/11 46/30/14 
f 39/33/8 41/32/10 37/31/7 
f 37/31/7 36/30/6 39/33/8 
s off
f 30/34/1 47/35/1 48/36/1 
f 48/36/1 31/37/1 30/34/1 
f 33/38/1 47/39/1 49/40/1 
f 49/40/1 34/41/1 33/38/1 
s 1
f 50/42/1 51/43/1 52/44/1 
f 52/44/1 53/45/1 50/42/1 
f 53/45/1 52/44/1 54/46/1 
f 54/46/1 55/47/1 53/45/1 
f 55/47/1 54/46/1 56/48/1 
f 56/48/1 57/49/1 55/47/1 
f 57/49/1 56/48/1 58/50/1 
f 58/50/1 59/51/1 57/49/1 
f 59/51/1 58/50/1 60/21/1 
f 60/21/1 61/52/1 59/51/1 
f 61/52/1 60/21/1 2/2/1 
f 2/2/1 1/1/1 61/52/1 
f 62/53/1 63/54/1 64/55/1 
f 64/55/1 65/56/1 62/53/1 
f 65/56/1 64/55/1 66/57/1 
f 66/57/1 67/58/1 65/56/1 
f 67/58/1 66/57/1 68/59/1 
f 68/59/1 69/60/1 67/58/1 
f 69/60/1 68/59/1 70/61/1 
f 70/61/1 71/62/1 69/60/1 
f 71/62/1 70/61/1 4/4/1 
f 4/4/1 3/3/1 71/62/1 
s 2
f 72/63/2 50/64/2 53/65/2 
f 53/65/2 73/66/2 72/63/2 
f 73/66/2 53/65/2 55/67/2 
f 55/67/2 74/68/2 73/66/2 
f 74/68/2 55/67/2 57/69/2 
f 57/69/2 75/70/2 74/68/2 
f 75/70/2 57/69/2 59/71/2 
f 59/71/2 76/72/2 75/70/2 
f 76/72/2 59/71/2 61/9/2 
f 61/9/2 29/10/2 76/72/2 
f 29/10/2 61/9/2 1/6/2 
f 1/6/2 5/5/2 29/10/2 
f 63/73/2 77/74/2 78/75/2 
f 78/75/2 64/76/2 63/73/2 
f 64/76/2 78/75/2 79/77/2 
f 79/77/2 66/78/2 64/76/2 
f 66/78/2 79/77/2 80/79/2 
f 80/79/2 68/80/2 66/78/2 
f 68/80/2 80/79/2 81/81/2 
f 81/81/2 70/82/2 68/80/2 
f 70/82/2 81/81/2 6/8/2 
f 6/8/2 4/7/2 70/82/2 
s 1
f 82/74/3 83/73/3 84/76/3 
f 84/76/3 85/75/3 82/74/3 
f 85/75/3 84/76/3 86/78/3 
f 86/78/3 87/77/3 85/75/3 
f 87/77/3 86/78/3 88/80/3 
f 88/80/3 89/79/3 87/77/3 
f 89/79/3 88/80/3 90/82/3 
f 90/82/3 91/81/3 89/79/3 
f 91/81/3 90/82/3 25/7/3 
f 25/7/3 13/8/3 91/81/3 
f 13/8/3 25/7/3 8/6/3 
f 8/6/3 7/5/3 13/8/3 
f 92/64/3 93/63/3 94/66/3 
f 94/66/3 95/65/3 92/64/3 
f 95/65/3 94/66/3 96/68/3 
f 96/68/3 97/67/3 95/65/3 
f 97/67/3 96/68/3 98/70/3 
f 98/70/3 99/69/3 97/67/3 
f 99/69/3 98/70/3 100/72/3 
f 100/72/3 101/71/3 99/69/3 
f 101/71/3 100/72/3 10/10/3 
f 10/10/3 9/9/3 101/71/3 
s 4
f 93/83/4 102/84/4 103/85/4 
f 103/85/4 94/86/4 93/83/4 
f 94/86/4 103/85/4 104/87/4 
f 104/87/4 96/88/4 94/86/4 
f 96/88/4 104/87/4 105/89/4 
f 105/89/4 98/90/4 96/88/4 
f 98/90/4 105/89/4 106/91/4 
f 106/91/4 100/92/4 98/90/4 
f 100/92/4 106/91/4 28/19/4 
f 28/19/4 10/93/4 100/92/4 
f 10/93/4 28/19/4 11/12/4 
f 11/12/4 7/11/4 10/93/4 
f 107/94/4 82/95/4 85/96/4 
f 85/96/4 108/97/4 107/94/4 
f 108/97/4 85/96/4 87/98/4 
f 87/98/4 109/99/4 108/97/4 
f 109/99/4 87/98/4 89/100/4 
f 89/100/4 110/101/4 109/99/4 
f 110/101/4 89/100/4 91/102/4 
f 91/102/4 111/103/4 110/101/4 
f 111/103/4 91/102/4 13/14/4 
f 13/14/4 12/13/4 111/103/4 
s 1
f 112/15/2 113/15/2 114/15/2 
f 114/15/2 115/15/2 112/15/2 
f 115/15/2 114/15/2 116/15/2 
f 116/15/2 117/15/2 115/15/2 
f 117/15/2 116/15/2 118/15/2 
f 118/15/2 119/15/2 117/15/2 
f 119/15/2 118/15/2 120/15/2 
f 120/15/2 121/15/2 119/15/2 
f 121/15/2 120/15/2 122/15/2 
f 122/15/2 123/15/2 121/15/2 
f 123/15/2 122/15/2 15/15/2 
f 15/15/2 14/15/2 123/15/2 
f 124/15/2 125/15/2 126/15/2 
f 126/15/2 127/15/2 124/15/2 
f 127/15/2 126/15/2 128/15/2 
f 128/15/2 129/15/2 127/15/2 
f 129/15/2 128/15/2 130/15/2 
f 130/15/2 131/15/2 129/15/2 
f 131/15/2 130/15/2 132/15/2 
f 132/15/2 133/15/2 131/15/2 
f 133/15/2 132/15/2 17/15/2 
f 17/15/2 16/15/2 133/15/2 
f 134/15/3 135/15/3 136/15/3 
f 136/15/3 137/15/3 134/15/3 
f 137/15/3 136/15/3 138/15/3 
f 138/15/3 139/15/3 137/15/3 
f 139/15/3 138/15/3 140/15/3 
f 140/15/3 141/15/3 139/15/3 
f 141/15/3 140/15/3 142/15/3 
f 142/15/3 143/15/3 141/15/3 
f 143/15/3 142/15/3 144/15/3 
f 144/15/3 145/15/3 143/15/3 
f 145/15/3 144/15/3 19/15/3 
f 19/15/3 18/15/3 145/15/3 
f 146/15/3 147/15/3 148/15/3 
f 148/15/3 149/15/3 146/15/3 
f 149/15/3 148/15/3 150/15/3 
f 150/15/3 151/15/3 149/15/3 
f 151/15/3 150/15/3 152/15/3 
f 152/15/3 153/15/3 151/15/3 
f 153/15/3 152/15/3 154/15/3 
f 154/15/3 155/15/3 153/15/3 
f 155/15/3 154/15/3 21/15/3 
f 21/15/3 20/15/3 155/15/3 
s 2
f 135/15/1 156/15/1 157/15/1 
f 157/15/1 136/15/1 135/15/1 
f 136/15/1 157/15/1 158/15/1 
f 158/15/1 138/15/1 136/15/1 
f 138/15/1 158/15/1 159/15/1 
f 159/15/1 140/15/1 138/15/1 
f 140/15/1 159/15/1 160/15/1 
f 160/15/1 142/15/1 140/15/1 
f 142/15/1 160/15/1 27/15/1 
f 27/15/1 144/15/1 142/15/1 
f 144/15/1 27/15/1 22/15/1 
f 22/15/1 19/15/1 144/15/1 
f 161/15/1 146/15/1 149/15/1 
f 149/15/1 162/15/1 161/15/1 
f 162/15/1 149/15/1 151/15/1 
f 151/15/1 163/15/1 162/15/1 
f 163/15/1 151/15/1 153/15/1 
f 153/15/1 164/15/1 163/15/1 
f 164/15/1 153/15/1 155/15/1 
f 155/15/1 165/15/1 164/15/1 
f 165/15/1 155/15/1 20/15/1 
f 20/15/1 23/15/1 165/15/1 
f 166/104/1 92/105/1 95/106/1 
f 95/106/1 167/107/1 166/104/1 
f 167/107/1 95/106/1 97/108/1 
f 97/108/1 168/109/1 167/107/1 
f 168/109/1 97/108/1 99/49/1 
f 99/49/1 169/48/1 168/109/1 
f 169/48/1 99/49/1 101/51/1 
f 101/51/1 170/50/1 169/48/1 
f 170/50/1 101/51/1 9/52/1 
f 9/52/1 32/21/1 170/50/1 
f 32/21/1 9/52/1 8/1/1 
f 8/1/1 24/2/1 32/21/1 
f 83/110/1 171/111/1 172/112/1 
f 172/112/1 84/113/1 83/110/1 
f 84/113/1 172/112/1 173/58/1 
f 173/58/1 86/57/1 84/113/1 
f 86/57/1 173/58/1 174/60/1 
f 174/60/1 88/59/1 86/57/1 
f 88/59/1 174/60/1 175/62/1 
f 175/62/1 90/61/1 88/59/1 
f 90/61/1 175/62/1 26/17/1 
f 26/17/1 25/16/1 90/61/1 
f 113/15/1 161/15/1 162/15/1 
f 162/15/1 114/15/1 113/15/1 
f 114/15/1 162/15/1 163/15/1 
f 163/15/1 116/15/1 114/15/1 
f 116/15/1 163/15/1 164/15/1 
f 164/15/1 118/15/1 116/15/1 
f 118/15/1 164/15/1 165/15/1 
f 165/15/1 120/15/1 118/15/1 
f 120/15/1 165/15/1 23/15/1 
f 23/15/1 122/15/1 120/15/1 
f 122/15/1 23/15/1 22/15/1 
f 22/15/1 15/15/1 122/15/1 
f 156/15/1 124/15/1 127/15/1 
f 127/15/1 157/15/1 156/15/1 
f 157/15/1 127/15/1 129/15/1 
f 129/15/1 158/15/1 157/15/1 
f 158/15/1 129/15/1 131/15/1 
f 131/15/1 159/15/1 158/15/1 
f 159/15/1 131/15/1 133/15/1 
f 133/15/1 160/15/1 159/15/1 
f 160/15/1 133/15/1 16/15/1 
f 16/15/1 27/15/1 160/15/1 
s 4
f 77/114/4 107/94/4 108/97/4 
f 108/97/4 78/115/4 77/114/4 
f 78/115/4 108/97/4 109/99/4 
f 109/99/4 79/116/4 78/115/4 
f 79/116/4 109/99/4 110/101/4 
f 110/101/4 80/117/4 79/116/4 
f 80/117/4 110/101/4 111/103/4 
f 111/103/4 81/118/4 80/117/4 
f 81/118/4 111/103/4 12/13/4 
f 12/13/4 6/119/4 81/118/4 
f 6/119/4 12/13/4 11/12/4 
f 11/12/4 5/18/4 6/119/4 
f 102/84/4 72/120/4 73/121/4 
f 73/121/4 103/85/4 102/84/4 
f 103/85/4 73/121/4 74/122/4 
f 74/122/4 104/87/4 103/85/4 
f 104/87/4 74/122/4 75/123/4 
f 75/123/4 105/89/4 104/87/4 
f 105/89/4 75/123/4 76/124/4 
f 76/124/4 106/91/4 105/89/4 
f 106/91/4 76/124/4 29/20/4 
f 29/20/4 28/19/4 106/91/4 
f 171/111/3 176/111/3 177/112/3 
f 177/112/3 172/112/3 171/111/3 
f 172/112/3 177/112/3 178/58/3 
f 178/58/3 173/58/3 172/112/3 
f 173/58/3 178/58/3 179/60/3 
f 179/60/3 174/60/3 173/58/3 
f 174/60/3 179/60/3 180/62/3 
f 180/62/3 175/62/3 174/60/3 
f 175/62/3 180/62/3 181/17/3 
f 181/17/3 26/17/3 175/62/3 
f 26/17/3 181/17/3 30/2/3 
f 30/2/3 24/2/3 26/17/3 
f 182/104/3 166/104/3 167/107/3 
f 167/107/3 183/107/3 182/104/3 
f 183/107/3 167/107/3 168/109/3 
f 168/109/3 184/109/3 183/107/3 
f 184/109/3 168/109/3 169/48/3 
f 169/48/3 185/48/3 184/109/3 
f 185/48/3 169/48/3 170/50/3 
f 170/50/3 186/50/3 185/48/3 
f 186/50/3 170/50/3 32/21/3 
f 32/21/3 31/21/3 186/50/3 
s 2
f 51/43/2 187/43/2 188/44/2 
f 188/44/2 52/44/2 51/43/2 
f 52/44/2 188/44/2 189/46/2 
f 189/46/2 54/46/2 52/44/2 
f 54/46/2 189/46/2 190/48/2 
f 190/48/2 56/48/2 54/46/2 
f 56/48/2 190/48/2 191/50/2 
f 191/50/2 58/50/2 56/48/2 
f 58/50/2 191/50/2 192/21/2 
f 192/21/2 60/21/2 58/50/2 
f 60/21/2 192/21/2 33/2/2 
f 33/2/2 2/2/2 60/21/2 
f 193/53/2 62/53/2 65/56/2 
f 65/56/2 194/56/2 193/53/2 
f 194/56/2 65/56/2 67/58/2 
f 67/58/2 195/58/2 194/56/2 
f 195/58/2 67/58/2 69/60/2 
f 69/60/2 196/60/2 195/58/2 
f 196/60/2 69/60/2 71/62/2 
f 71/62/2 197/62/2 196/60/2 
f 197/62/2 71/62/2 3/3/2 
f 3/3/2 34/3/2 197/62/2 
s off
f 176/125/1 198/126/1 199/127/1 
f 199/127/1 177/128/1 176/125/1 
f 177/128/1 199/127/1 200/129/1 
f 200/129/1 178/130/1 177/128/1 
f 178/130/1 200/129/1 201/131/1 
f 201/131/1 179/132/1 178/130/1 
f 179/132/1 201/131/1 202/133/1 
f 202/133/1 180/134/1 179/132/1 
f 180/134/1 202/133/1 49/135/1 
f 49/135/1 181/136/1 180/134/1 
f 181/136/1 49/135/1 47/35/1 
f 47/35/1 30/34/1 181/136/1 
f 203/137/1 182/138/1 183/139/1 
f 183/139/1 204/140/1 203/137/1 
f 204/140/1 183/139/1 184/141/1 
f 184/141/1 205/142/1 204/140/1 
f 205/142/1 184/141/1 185/143/1 
f 185/143/1 206/144/1 205/142/1 
f 206/144/1 185/143/1 186/145/1 
f 186/145/1 207/146/1 206/144/1 
f 207/146/1 186/145/1 31/37/1 
f 31/37/1 48/36/1 207/146/1 
f 187/147/1 203/148/1 204/149/1 
f 204/149/1 188/150/1 187/147/1 
f 188/150/1 204/149/1 205/151/1 
f 205/151/1 189/152/1 188/150/1 
f 189/152/1 205/151/1 206/153/1 
f 206/153/1 190/154/1 189/152/1 
f 190/154/1 206/153/1 207/155/1 
f 207/155/1 191/156/1 190/154/1 
f 191/156/1 207/155/1 48/157/1 
f 48/157/1 192/158/1 191/156/1 
f 192/158/1 48/157/1 47/39/1 
f 47/39/1 33/38/1 192/158/1 
f 198/159/1 193/160/1 194/161/1 
f 194/161/1 199/162/1 198/159/1 
f 199/162/1 194/161/1 195/163/1 
f 195/163/1 200/164/1 199/162/1 
f 200/164/1 195/163/1 196/165/1 
f 196/165/1 201/166/1 200/164/1 
f 201/166/1 196/165/1 197/167/1 
f 197/167/1 202/168/1 201/166/1 
f 202/168/1 197/167/1 34/41/1 
f 34/41/1 49/40/1 202/168/1 
f 208/169/1 209/170/1 210/171/1 
f 210/171/1 211/172/1 208/169/1 
f 212/173/3 208/174/3 211/175/3 
f 211/175/3 213/176/3 212/173/3 
f 209/174/2 214/173/2 215/176/2 
f 215/176/2 210/175/2 209/174/2 
s 1
f 208/177/1 216/178/1 217/179/1 
f 208/177/1 217/179/1 218/180/1 
f 208/177/1 218/180/1 219/181/1 
f 208/177/1 219/181/1 220/182/1 
f 208/177/1 220/182/1 221/183/1 
f 208/177/1 221/183/1 222/184/1 
s 2
f 223/185/15 224/186/15 214/186/2 
f 214/186/2 209/185/2 223/185/15 
f 208/187/3 212/188/3 225/188/16 
f 225/188/16 216/187/16 208/187/3 
s 1
f 209/189/1 222/184/1 221/183/1 
f 223/190/1 209/189/1 221/183/1 
f 226/191/1 223/190/1 221/183/1 
f 227/192/1 226/191/1 221/183/1 
f 228/193/1 227/192/1 221/183/1 
f 229/194/1 228/193/1 221/183/1 
s 2
f 230/195/17 224/186/15 223/185/15 
f 223/185/15 226/196/17 230/195/17 
f 217/197/18 216/187/16 225/188/16 
f 225/188/16 231/198/18 217/197/18 
f 232/199/19 230/195/17 226/196/17 
f 226/196/17 227/200/19 232/199/19 
f 233/201/20 232/199/19 227/200/19 
f 227/200/19 228/202/20 233/201/20 
f 234/203/21 233/201/20 228/202/20 
f 228/202/20 229/204/21 234/203/21 
f 235/205/9 234/203/21 229/204/21 
f 229/204/21 221/206/9 235/205/9 
f 218/207/22 217/197/18 231/198/18 
f 231/198/18 236/208/22 218/207/22 
f 219/209/23 218/207/22 236/208/22 
f 236/208/22 237/210/23 219/209/23 
f 220/211/24 219/209/23 237/210/23 
f 237/210/23 238/212/24 220/211/24 
f 221/206/9 220/211/24 238/212/24 
f 238/212/24 235/205/9 221/206/9 
# 388 faces

