# 3ds Max Wavefront OBJ Exporter v0.97b - (c)2007 guruware
# File Created: 27.01.2018 07:58:35

#
# object Object006
#

v  -2.2500 0.0000 -0.0000
v  2.2500 0.0000 -0.0000
v  2.4358 0.0000 -5.3333
v  -2.4358 0.0000 -5.3333
v  -2.2500 -0.3000 -0.0000
v  -2.4358 -0.3000 -5.3333
v  2.2500 -0.3000 -0.0000
v  2.0642 0.0000 5.3333
v  2.0642 -0.3000 5.3333
v  -1.5000 0.0000 32.0000
v  1.5000 0.0000 32.0000
v  1.5295 0.0000 26.6667
v  -1.5295 0.0000 26.6667
v  1.6111 0.0000 21.3333
v  -1.6111 0.0000 21.3333
v  1.7344 0.0000 16.0000
v  -1.7344 0.0000 16.0000
v  1.8889 0.0000 10.6667
v  -1.8889 0.0000 10.6667
v  -2.0642 0.0000 5.3333
v  3.0000 0.0000 -32.0000
v  -3.0000 0.0000 -32.0000
v  -2.9705 0.0000 -26.6667
v  2.9705 0.0000 -26.6667
v  -2.8889 0.0000 -21.3333
v  2.8889 0.0000 -21.3333
v  -2.7656 0.0000 -16.0000
v  2.7656 0.0000 -16.0000
v  -2.6111 0.0000 -10.6667
v  2.6111 0.0000 -10.6667
v  -1.5000 -0.3000 32.0000
v  -1.5295 -0.3000 26.6667
v  -1.6111 -0.3000 21.3333
v  -1.7344 -0.3000 16.0000
v  -1.8889 -0.3000 10.6667
v  -2.0642 -0.3000 5.3333
v  -3.0000 -0.3000 -32.0000
v  -2.9705 -0.3000 -26.6667
v  -2.8889 -0.3000 -21.3333
v  -2.7656 -0.3000 -16.0000
v  -2.6111 -0.3000 -10.6667
v  3.0000 -0.3000 -32.0000
v  2.9705 -0.3000 -26.6667
v  2.8889 -0.3000 -21.3333
v  2.7656 -0.3000 -16.0000
v  2.6111 -0.3000 -10.6667
v  2.4358 -0.3000 -5.3333
v  1.5000 -0.3000 32.0000
v  1.5295 -0.3000 26.6667
v  1.6111 -0.3000 21.3333
v  1.7344 -0.3000 16.0000
v  1.8889 -0.3000 10.6667
# 52 vertices

vn 0.0000 1.0000 -0.0000
vn -1.0000 0.0000 -0.0000
vn 1.0000 0.0000 -0.0000
vn 0.0000 0.0000 -1.0000
vn 0.0000 0.0000 1.0000
# 5 vertex normals

vt 0.4004 0.5000 0.0000
vt 0.6046 0.5000 0.0000
vt 0.6046 0.5833 0.0000
vt 0.4004 0.5833 0.0000
vt 0.6046 0.4167 0.0000
vt 0.4004 0.0000 0.0000
vt 0.6046 0.0000 0.0000
vt 0.6046 0.0833 0.0000
vt 0.4004 0.0833 0.0000
vt 0.6046 0.1667 0.0000
vt 0.4004 0.1667 0.0000
vt 0.6046 0.2500 0.0000
vt 0.4004 0.2500 0.0000
vt 0.6046 0.3333 0.0000
vt 0.4004 0.3333 0.0000
vt 0.4004 0.4167 0.0000
vt 0.6046 1.0000 0.0000
vt 0.4004 1.0000 0.0000
vt 0.4004 0.9167 0.0000
vt 0.6046 0.9167 0.0000
vt 0.4004 0.8333 0.0000
vt 0.6046 0.8333 0.0000
vt 0.4004 0.7500 0.0000
vt 0.6046 0.7500 0.0000
vt 0.4004 0.6667 0.0000
vt 0.6046 0.6667 0.0000
vt 0.0398 1.0000 0.0000
vt 0.2440 1.0000 0.0000
vt 0.2440 0.0000 0.0000
vt 0.0398 0.0000 0.0000
# 30 texture coords

g Object006
s off
f 1/1/1 2/2/1 3/3/1 
f 3/3/1 4/4/1 1/1/1 
f 5/1/2 1/1/2 4/4/2 
f 4/4/2 6/4/2 5/1/2 
f 7/2/3 2/2/3 8/5/3 
f 8/5/3 9/5/3 7/2/3 
f 10/6/1 11/7/1 12/8/1 
f 12/8/1 13/9/1 10/6/1 
f 13/9/1 12/8/1 14/10/1 
f 14/10/1 15/11/1 13/9/1 
f 15/11/1 14/10/1 16/12/1 
f 16/12/1 17/13/1 15/11/1 
f 17/13/1 16/12/1 18/14/1 
f 18/14/1 19/15/1 17/13/1 
f 19/15/1 18/14/1 8/5/1 
f 8/5/1 20/16/1 19/15/1 
f 20/16/1 8/5/1 2/2/1 
f 2/2/1 1/1/1 20/16/1 
f 21/17/1 22/18/1 23/19/1 
f 23/19/1 24/20/1 21/17/1 
f 24/20/1 23/19/1 25/21/1 
f 25/21/1 26/22/1 24/20/1 
f 26/22/1 25/21/1 27/23/1 
f 27/23/1 28/24/1 26/22/1 
f 28/24/1 27/23/1 29/25/1 
f 29/25/1 30/26/1 28/24/1 
f 30/26/1 29/25/1 4/4/1 
f 4/4/1 3/3/1 30/26/1 
f 31/6/2 10/6/2 13/9/2 
f 13/9/2 32/9/2 31/6/2 
f 32/9/2 13/9/2 15/11/2 
f 15/11/2 33/11/2 32/9/2 
f 33/11/2 15/11/2 17/13/2 
f 17/13/2 34/13/2 33/11/2 
f 34/13/2 17/13/2 19/15/2 
f 19/15/2 35/15/2 34/13/2 
f 35/15/2 19/15/2 20/16/2 
f 20/16/2 36/16/2 35/15/2 
f 36/16/2 20/16/2 1/1/2 
f 1/1/2 5/1/2 36/16/2 
f 22/18/2 37/18/2 38/19/2 
f 38/19/2 23/19/2 22/18/2 
f 23/19/2 38/19/2 39/21/2 
f 39/21/2 25/21/2 23/19/2 
f 25/21/2 39/21/2 40/23/2 
f 40/23/2 27/23/2 25/21/2 
f 27/23/2 40/23/2 41/25/2 
f 41/25/2 29/25/2 27/23/2 
f 29/25/2 41/25/2 6/4/2 
f 6/4/2 4/4/2 29/25/2 
f 42/17/3 21/17/3 24/20/3 
f 24/20/3 43/20/3 42/17/3 
f 43/20/3 24/20/3 26/22/3 
f 26/22/3 44/22/3 43/20/3 
f 44/22/3 26/22/3 28/24/3 
f 28/24/3 45/24/3 44/22/3 
f 45/24/3 28/24/3 30/26/3 
f 30/26/3 46/26/3 45/24/3 
f 46/26/3 30/26/3 3/3/3 
f 3/3/3 47/3/3 46/26/3 
f 47/3/3 3/3/3 2/2/3 
f 2/2/3 7/2/3 47/3/3 
f 11/7/3 48/7/3 49/8/3 
f 49/8/3 12/8/3 11/7/3 
f 12/8/3 49/8/3 50/10/3 
f 50/10/3 14/10/3 12/8/3 
f 14/10/3 50/10/3 51/12/3 
f 51/12/3 16/12/3 14/10/3 
f 16/12/3 51/12/3 52/14/3 
f 52/14/3 18/14/3 16/12/3 
f 18/14/3 52/14/3 9/5/3 
f 9/5/3 8/5/3 18/14/3 
f 37/27/4 21/28/4 42/28/4 
f 37/27/4 22/27/4 21/28/4 
f 48/29/5 11/29/5 10/30/5 
f 10/30/5 31/30/5 48/29/5 
# 0 polygons - 76 triangles

