


# 3ds Max Wavefront OBJ Exporter v0.97b - (c)2007 guruware
# File Created: 27.01.2018 08:00:38

#
# object Plane001
#

v  -3.0000 0.0000 32.0000
v  3.0000 -0.0005 32.0000
v  2.6250 -0.0004 16.0000
v  -2.6250 -0.0001 16.0000
v  2.2500 -0.0003 -0.0000
v  -2.2500 -0.0003 -0.0000
v  1.8750 -0.0001 -16.0000
v  -1.8750 -0.0004 -16.0000
v  1.5000 0.0000 -32.0000
v  -1.5000 -0.0005 -32.0000
# 10 vertices

vn 0.0001 1.0000 0.0000
vn 0.0000 1.0000 -0.0000
vn 0.0000 1.0000 0.0000
vn -0.0000 1.0000 -0.0000
vn -0.0001 1.0000 0.0000
vn -0.0001 1.0000 -0.0000
vn -0.0002 1.0000 -0.0000
# 7 vertex normals

vt 0.0000 0.0000 0.0000
vt 1.0000 0.0000 0.0000
vt 1.0000 0.2500 0.0000
vt 0.0000 0.2500 0.0000
vt 1.0000 0.5000 0.0000
vt 0.0000 0.5000 0.0000
vt 1.0000 0.7500 0.0000
vt 0.0000 0.7500 0.0000
vt 1.0000 1.0000 0.0000
vt 0.0000 1.0000 0.0000
# 10 texture coords

g Plane001
s 1
f 1/1/1 2/2/1 3/3/1 4/4/2 
f 4/4/2 3/3/1 5/5/3 6/6/4 
f 6/6/4 5/5/3 7/7/5 8/8/6 
f 8/8/6 7/7/5 9/9/7 10/10/7 
# 4 polygons

