# 3ds Max Wavefront OBJ Exporter v0.97b - (c)2007 guruware
# File Created: 15.02.2018 07:34:12

#
# object MedCon_OnePlusThreeS_Start001
#

v  0.1680 -0.2950 -31.9999
v  0.2440 -0.2950 -26.6666
v  -0.1311 -0.2950 -26.6666
v  -0.1682 -0.2950 -31.9999
v  0.4555 -0.2950 -21.3332
v  -0.0245 -0.2950 -21.3332
v  0.1379 -0.2950 -15.9999
v  0.7758 -0.2950 -15.9999
v  0.3430 -0.2950 -10.6666
v  1.1773 -0.2950 -10.6666
v  0.5763 -0.2950 -5.3332
v  1.6334 -0.2950 -5.3332
v  0.8241 -0.2950 -0.0000
v  2.1166 -0.2950 0.0001
v  1.0715 -0.2950 5.3333
v  2.6000 -0.2950 5.3334
v  1.3050 -0.2950 10.6667
v  3.0564 -0.2950 10.6668
v  1.5104 -0.2950 16.0000
v  3.4700 -0.2950 16.0001
v  1.6736 -0.2950 21.3333
v  3.8295 -0.2950 21.3334
v  1.7815 -0.2950 26.6667
v  4.0834 -0.2950 26.6667
v  4.1800 -0.2950 32.0000
v  1.8200 -0.2950 32.0000
v  -4.0357 -0.2950 32.0000
v  -4.0175 -0.2950 26.6675
v  -3.8375 -0.2950 26.6675
v  -3.8557 -0.2950 32.0000
v  -3.9661 -0.2950 21.3391
v  -3.7861 -0.2950 21.3391
v  -3.8888 -0.2950 16.0166
v  -3.7088 -0.2950 16.0166
v  -3.7920 -0.2950 10.6992
v  -3.6120 -0.2950 10.6992
v  -3.6816 -0.2950 5.3848
v  -3.5022 -0.2950 5.3848
v  -3.5652 -0.2950 0.0700
v  -3.3858 -0.2950 0.0700
v  -3.4486 -0.2950 -5.2491
v  -3.2692 -0.2950 -5.2492
v  -3.3383 -0.2950 -10.5766
v  -3.1588 -0.2950 -10.5766
v  -3.2406 -0.2950 -15.9154
v  -3.0610 -0.2950 -15.9154
v  -3.1621 -0.2950 -21.2676
v  -2.9824 -0.2950 -21.2676
v  -3.1092 -0.2950 -26.6336
v  -2.9294 -0.2950 -26.6336
v  -3.0890 -0.2950 -31.9999
v  -2.9090 -0.2950 -31.9999
v  -7.0560 -0.2950 31.9995
v  -7.0378 -0.2950 26.6670
v  -6.8578 -0.2950 26.6670
v  -6.8760 -0.2950 31.9995
v  -6.9864 -0.2950 21.3386
v  -6.8064 -0.2950 21.3386
v  -6.9091 -0.2950 16.0161
v  -6.7291 -0.2950 16.0161
v  -6.8123 -0.2950 10.6987
v  -6.6323 -0.2950 10.6987
v  -6.7019 -0.2950 5.3843
v  -6.5225 -0.2950 5.3843
v  -6.5855 -0.2950 0.0695
v  -6.4061 -0.2950 0.0695
v  -6.4689 -0.2950 -5.2496
v  -6.2895 -0.2950 -5.2497
v  -6.3586 -0.2950 -10.5771
v  -6.1791 -0.2950 -10.5771
v  -6.2609 -0.2950 -15.9159
v  -6.0813 -0.2950 -15.9159
v  -6.1824 -0.2950 -21.2681
v  -6.0027 -0.2950 -21.2681
v  -6.1295 -0.2950 -26.6341
v  -5.9497 -0.2950 -26.6341
v  -6.1093 -0.2950 -32.0004
v  -5.9293 -0.2950 -32.0004
v  7.0575 -0.2950 31.9997
v  6.8775 -0.2950 31.9997
v  6.8593 -0.2950 26.6672
v  7.0393 -0.2950 26.6672
v  6.8079 -0.2950 21.3388
v  6.9879 -0.2950 21.3388
v  6.7306 -0.2950 16.0163
v  6.9106 -0.2950 16.0163
v  6.6338 -0.2950 10.6989
v  6.8138 -0.2950 10.6989
v  6.7034 -0.2950 5.3845
v  6.5240 -0.2950 5.3845
v  6.5870 -0.2950 0.0697
v  6.4076 -0.2950 0.0697
v  6.4704 -0.2950 -5.2494
v  6.2910 -0.2950 -5.2495
v  6.3601 -0.2950 -10.5769
v  6.1806 -0.2950 -10.5769
v  6.0828 -0.2950 -15.9157
v  6.2624 -0.2950 -15.9157
v  6.0042 -0.2950 -21.2679
v  6.1839 -0.2950 -21.2679
v  5.9512 -0.2950 -26.6339
v  6.1310 -0.2950 -26.6339
v  5.9308 -0.2950 -32.0002
v  6.1108 -0.2950 -32.0002
# 104 vertices

vn 0.0000 1.0000 -0.0000
# 1 vertex normals

vt 0.7983 0.9979 0.0000
vt 0.7906 0.9149 0.0000
vt 0.8270 0.9148 0.0000
vt 0.8177 0.9977 0.0000
vt 0.7829 0.8319 0.0000
vt 0.8350 0.8318 0.0000
vt 0.8429 0.7489 0.0000
vt 0.7752 0.7489 0.0000
vt 0.8508 0.6659 0.0000
vt 0.7675 0.6660 0.0000
vt 0.8587 0.5830 0.0000
vt 0.7598 0.5830 0.0000
vt 0.8666 0.5000 0.0000
vt 0.7520 0.5000 0.0000
vt 0.8745 0.4170 0.0000
vt 0.7443 0.4170 0.0000
vt 0.8824 0.3341 0.0000
vt 0.7366 0.3340 0.0000
vt 0.8903 0.2511 0.0000
vt 0.7289 0.2511 0.0000
vt 0.8982 0.1682 0.0000
vt 0.7212 0.1681 0.0000
vt 0.9061 0.0852 0.0000
vt 0.7135 0.0851 0.0000
vt 0.7058 0.0021 0.0000
vt 0.9140 0.0023 0.0000
vt 0.1589 0.0000 0.0000
vt 0.1589 0.0833 0.0000
vt 0.1635 0.0833 0.0000
vt 0.1635 0.0000 0.0000
vt 0.1589 0.1667 0.0000
vt 0.1635 0.1667 0.0000
vt 0.1589 0.2500 0.0000
vt 0.1635 0.2500 0.0000
vt 0.1589 0.3333 0.0000
vt 0.1635 0.3333 0.0000
vt 0.1589 0.4167 0.0000
vt 0.1635 0.4167 0.0000
vt 0.1589 0.5000 0.0000
vt 0.1635 0.5000 0.0000
vt 0.1589 0.5833 0.0000
vt 0.1635 0.5833 0.0000
vt 0.1589 0.6667 0.0000
vt 0.1635 0.6667 0.0000
vt 0.1589 0.7500 0.0000
vt 0.1635 0.7500 0.0000
vt 0.1589 0.8333 0.0000
vt 0.1635 0.8333 0.0000
vt 0.1589 0.9167 0.0000
vt 0.1635 0.9167 0.0000
vt 0.1589 1.0000 0.0000
vt 0.1635 1.0000 0.0000
# 52 texture coords

g MedCon_OnePlusThreeS_Start001
s 1
f 4/4/1 3/3/1 2/2/1 1/1/1 
f 6/6/1 5/5/1 2/2/1 3/3/1 
f 8/8/1 5/5/1 6/6/1 7/7/1 
f 10/10/1 8/8/1 7/7/1 9/9/1 
f 12/12/1 10/10/1 9/9/1 11/11/1 
f 14/14/1 12/12/1 11/11/1 13/13/1 
f 16/16/1 14/14/1 13/13/1 15/15/1 
f 18/18/1 16/16/1 15/15/1 17/17/1 
f 20/20/1 18/18/1 17/17/1 19/19/1 
f 22/22/1 20/20/1 19/19/1 21/21/1 
f 24/24/1 22/22/1 21/21/1 23/23/1 
f 23/23/1 26/26/1 25/25/1 24/24/1 
f 30/30/1 29/29/1 28/28/1 27/27/1 
f 29/29/1 32/32/1 31/31/1 28/28/1 
f 32/32/1 34/34/1 33/33/1 31/31/1 
f 34/34/1 36/36/1 35/35/1 33/33/1 
f 35/35/1 36/36/1 38/38/1 37/37/1 
f 37/37/1 38/38/1 40/40/1 39/39/1 
f 39/39/1 40/40/1 42/42/1 41/41/1 
f 41/41/1 42/42/1 44/44/1 43/43/1 
f 44/44/1 46/46/1 45/45/1 43/43/1 
f 46/46/1 48/48/1 47/47/1 45/45/1 
f 48/48/1 50/50/1 49/49/1 47/47/1 
f 50/50/1 52/52/1 51/51/1 49/49/1 
f 56/30/1 55/29/1 54/28/1 53/27/1 
f 55/29/1 58/32/1 57/31/1 54/28/1 
f 58/32/1 60/34/1 59/33/1 57/31/1 
f 60/34/1 62/36/1 61/35/1 59/33/1 
f 61/35/1 62/36/1 64/38/1 63/37/1 
f 63/37/1 64/38/1 66/40/1 65/39/1 
f 65/39/1 66/40/1 68/42/1 67/41/1 
f 67/41/1 68/42/1 70/44/1 69/43/1 
f 70/44/1 72/46/1 71/45/1 69/43/1 
f 72/46/1 74/48/1 73/47/1 71/45/1 
f 74/48/1 76/50/1 75/49/1 73/47/1 
f 76/50/1 78/52/1 77/51/1 75/49/1 
f 82/28/1 81/29/1 80/30/1 79/27/1 
f 84/31/1 83/32/1 81/29/1 82/28/1 
f 86/33/1 85/34/1 83/32/1 84/31/1 
f 88/35/1 87/36/1 85/34/1 86/33/1 
f 90/38/1 87/36/1 88/35/1 89/37/1 
f 92/40/1 90/38/1 89/37/1 91/39/1 
f 94/42/1 92/40/1 91/39/1 93/41/1 
f 96/44/1 94/42/1 93/41/1 95/43/1 
f 98/45/1 97/46/1 96/44/1 95/43/1 
f 100/47/1 99/48/1 97/46/1 98/45/1 
f 102/49/1 101/50/1 99/48/1 100/47/1 
f 104/51/1 103/52/1 101/50/1 102/49/1 
# 48 polygons

