# Blender v2.75 (sub 0) OBJ File: ''
# www.blender.org
o Plane01_0
v 0.000000 -0.000000 0.000000
v 8.000005 0.000005 -32.000000
v -7.999995 0.000005 -32.000000
v -5.000000 -0.000000 0.000000
v 5.000000 -0.000000 0.000000
v 8.000000 -0.000000 0.000000
v -8.000000 -0.000000 0.000000
v 4.999995 -0.300005 32.000000
v 7.999995 -0.300005 32.000000
v -0.000005 -0.300005 32.000000
v -5.000005 -0.300005 32.000000
v -8.000005 -0.300005 32.000000
vt 0.500000 0.500000
vt 0.000000 1.000000
vt 1.000000 1.000000
vt 0.812500 0.500000
vt 0.187500 0.500000
vt 0.000000 0.500000
vt 1.000000 0.500000
vt 0.187500 0.000000
vt 0.000000 0.000000
vt 0.500000 0.000000
vt 0.812500 0.000000
vt 1.000000 0.000000
vn 0.000000 1.000000 0.004700
vn 0.000000 1.000000 0.000000
vn 0.000000 1.000000 0.009400
s 1
f 1/1/1 2/2/2 3/3/2
f 3/3/2 4/4/1 1/1/1
f 1/1/1 5/5/1 2/2/2
f 2/2/2 5/5/1 6/6/1
f 7/7/1 4/4/1 3/3/2
f 5/5/1 8/8/3 6/6/1
f 6/6/1 8/8/3 9/9/3
f 10/10/3 8/8/3 5/5/1
f 10/10/3 5/5/1 1/1/1
f 1/1/1 11/11/3 10/10/3
f 4/4/1 11/11/3 1/1/1
f 12/12/3 11/11/3 4/4/1
f 12/12/3 4/4/1 7/7/1
