# File exported by Unity3D version 5.1.1p2
v 8.00000000 0.00000000 0.00000001
v -8.00000000 0.00000000 0.00000001
v 8.00000000 0.00000000 16.00000000
v -8.00000000 0.00000000 -16.00000000
v -8.00000000 0.00000000 16.00000000
v 8.00000000 0.00000000 32.00000000
v -8.00000000 0.00000000 32.00000000
v 8.00000000 0.00000000 -16.00000000
v -8.00000000 0.00000000 -32.00000000
v 8.00000000 0.00000000 -32.00000000
vt 0.00000 0.50000
vt 1.00000 0.50000
vt 0.00000 0.25000
vt 1.00000 0.75000
vt 1.00000 0.25000
vt 0.00000 0.00000
vt 1.00000 0.00000
vt 0.00000 0.75000
vt 1.00000 1.00000
vt 0.00000 1.00000
vn 0.00000000 1.00000000 0.00000000
vn 0.00000000 1.00000000 0.00000000
vn 0.00000000 1.00000000 0.00000000
vn 0.00000000 1.00000000 0.00000000
vn 0.00000000 1.00000000 0.00000000
vn 0.00000000 1.00000000 0.00000000
vn 0.00000000 1.00000000 0.00000000
vn 0.00000000 1.00000000 0.00000000
vn 0.00000000 1.00000000 0.00000000
vn 0.00000000 1.00000000 0.00000000
g Plane01_0
f 1/1/1 2/2/2 3/3/3
f 2/2/2 1/1/1 4/4/4
f 3/3/3 2/2/2 5/5/5
f 3/3/3 5/5/5 6/6/6
f 7/7/7 6/6/6 5/5/5
f 8/8/8 4/4/4 1/1/1
f 8/8/8 9/9/9 4/4/4
f 10/10/10 9/9/9 8/8/8
