# 3ds Max Wavefront OBJ Exporter v0.97b - (c)2007 guruware
# File Created: 22.04.2016 01:01:17

#
# object Plane001_003
#

v  -1.0000 4.1000 -0.0000
v  -1.0000 6.1000 -0.0000
v  -2.0000 4.1000 32.0000
v  -2.0000 6.1000 32.0000
v  0.0000 6.1000 -32.0000
v  0.0000 4.1000 -32.0000
v  -1.0000 4.8200 -0.0000
v  -1.0000 6.8200 -0.0000
v  -2.0000 4.8200 32.0000
v  -2.0000 6.8200 32.0000
v  0.0000 6.8200 -32.0000
v  0.0000 4.8200 -32.0000
v  -2.0000 4.1000 -32.0000
v  -2.0000 6.1000 -32.0000
v  0.0000 6.1000 32.0000
v  0.0000 4.1000 32.0000
v  -2.0000 4.8200 -32.0000
v  -2.0000 6.8200 -32.0000
v  0.0000 6.8200 32.0000
v  0.0000 4.8200 32.0000
# 20 vertices

vn 1.0000 0.0000 -0.0000
vn -0.9995 0.0000 0.0312
# 2 vertex normals

vt 0.0000 -1.0000 0.0000
vt 0.0000 1.0000 0.0000
vt 1.0000 -1.0000 0.0000
vt 1.0000 1.0000 0.0000
vt -1.0000 1.0000 0.0000
vt -1.0000 -1.0000 0.0000
# 6 texture coords

g Plane001_003
s 1
f 1/1/1 2/2/1 3/3/1 
f 4/4/1 3/3/1 2/2/1 
f 2/2/1 1/1/1 5/5/1 
f 6/6/1 5/5/1 1/1/1 
f 7/1/1 8/2/1 9/3/1 
f 10/4/1 9/3/1 8/2/1 
f 8/2/1 7/1/1 11/5/1 
f 12/6/1 11/5/1 7/1/1 
f 1/1/2 2/2/2 13/3/2 
f 14/4/2 13/3/2 2/2/2 
f 2/2/2 1/1/2 15/5/2 
f 16/6/2 15/5/2 1/1/2 
f 7/1/2 8/2/2 17/3/2 
f 18/4/2 17/3/2 8/2/2 
f 8/2/2 7/1/2 19/5/2 
f 20/6/2 19/5/2 7/1/2 
# 16 faces

