# 3ds Max Wavefront OBJ Exporter v0.97b - (c)2007 guruware
# File Created: 17.11.2015 00:48:11

#
# object Plane005
#

v  -9.00000 0.00000 -0.00000
v  -5.00000 0.00000 -0.00000
v  -5.00000 0.00000 -5.33333
v  -9.00000 0.00000 -5.33333
v  -9.00000 0.00000 5.33333
v  -9.00000 6.50000 -0.00000
v  -9.00000 6.58333 5.33333
v  9.00000 0.00000 -0.00000
v  9.00000 6.50000 -0.00000
v  9.00000 6.41667 -5.33333
v  9.00000 0.00000 -5.33333
v  0.00000 6.50000 -0.00000
v  0.00000 6.41667 -5.33333
v  -11.00000 7.50000 -0.00000
v  -11.00000 -0.50000 -0.00000
v  -11.00000 -0.50000 5.33333
v  -11.00000 7.50000 5.33333
v  11.00000 7.50000 -0.00000
v  11.00000 -0.50000 -0.00000
v  11.00000 -0.50000 -5.33333
v  11.00000 7.50000 -5.33333
v  0.00000 7.50000 -0.00000
v  0.00000 7.50000 5.33333
v  11.00000 7.50000 5.33333
v  5.00000 0.00000 -0.00000
v  5.00000 0.00000 5.33333
v  9.00000 0.00000 5.33333
v  0.00000 -0.30000 -0.00000
v  -5.00000 -0.30000 -0.00000
v  -5.00000 -0.30000 5.33333
v  0.00000 -0.30000 5.33333
v  -5.00000 -0.30000 -5.33333
v  5.00000 -0.30000 -0.00000
v  5.00000 -0.30000 5.33333
v  0.00000 6.58333 5.33333
v  0.00000 7.50000 -5.33333
v  -11.00000 7.50000 -5.33333
v  -9.00000 0.00000 32.00000
v  -5.00000 0.00000 32.00000
v  -5.00000 0.00000 26.66667
v  -9.00000 0.00000 26.66667
v  -5.00000 0.00000 21.33333
v  -9.00000 0.00000 21.33333
v  -5.00000 0.00000 16.00000
v  -9.00000 0.00000 16.00000
v  -5.00000 0.00000 10.66667
v  -9.00000 0.00000 10.66667
v  -5.00000 0.00000 5.33333
v  -5.00000 0.00000 -32.00000
v  -9.00000 0.00000 -32.00000
v  -9.00000 0.00000 -26.66667
v  -5.00000 0.00000 -26.66667
v  -9.00000 0.00000 -21.33333
v  -5.00000 0.00000 -21.33333
v  -9.00000 0.00000 -16.00000
v  -5.00000 0.00000 -16.00000
v  -9.00000 0.00000 -10.66667
v  -5.00000 0.00000 -10.66667
v  -9.00000 6.00000 -32.00000
v  -9.00000 6.08333 -26.66667
v  -9.00000 6.16667 -21.33333
v  -9.00000 6.25000 -16.00000
v  -9.00000 6.33333 -10.66667
v  -9.00000 6.41667 -5.33333
v  -9.00000 6.91667 26.66666
v  -9.00000 7.00000 32.00000
v  -9.00000 6.83333 21.33333
v  -9.00000 6.75000 16.00000
v  -9.00000 6.66667 10.66666
v  9.00000 0.00000 32.00000
v  9.00000 7.00000 32.00000
v  9.00000 6.91667 26.66667
v  9.00000 0.00000 26.66667
v  9.00000 6.83333 21.33333
v  9.00000 0.00000 21.33333
v  9.00000 6.75000 16.00000
v  9.00000 0.00000 16.00000
v  9.00000 6.66667 10.66667
v  9.00000 0.00000 10.66667
v  9.00000 6.58333 5.33333
v  9.00000 6.00000 -32.00000
v  9.00000 0.00000 -32.00000
v  9.00000 0.00000 -26.66667
v  9.00000 6.08333 -26.66666
v  9.00000 0.00000 -21.33333
v  9.00000 6.16667 -21.33333
v  9.00000 0.00000 -16.00000
v  9.00000 6.25000 -16.00000
v  9.00000 0.00000 -10.66667
v  9.00000 6.33333 -10.66666
v  0.00000 7.00000 32.00000
v  0.00000 6.91667 26.66667
v  0.00000 6.83333 21.33333
v  0.00000 6.75000 16.00000
v  0.00000 6.66667 10.66667
v  0.00000 6.00000 -32.00000
v  0.00000 6.08333 -26.66666
v  0.00000 6.16667 -21.33333
v  0.00000 6.25000 -16.00000
v  0.00000 6.33333 -10.66666
v  -11.00000 7.50000 -32.00000
v  -11.00000 -0.50000 -32.00000
v  -11.00000 -0.50000 -26.66667
v  -11.00000 7.50000 -26.66667
v  -11.00000 -0.50000 -21.33333
v  -11.00000 7.50000 -21.33333
v  -11.00000 -0.50000 -16.00000
v  -11.00000 7.50000 -16.00000
v  -11.00000 -0.50000 -10.66667
v  -11.00000 7.50000 -10.66667
v  -11.00000 -0.50000 -5.33333
v  -11.00000 -0.50000 32.00000
v  -11.00000 7.50000 32.00000
v  -11.00000 7.50000 26.66667
v  -11.00000 -0.50000 26.66667
v  -11.00000 7.50000 21.33333
v  -11.00000 -0.50000 21.33333
v  -11.00000 7.50000 16.00000
v  -11.00000 -0.50000 16.00000
v  -11.00000 7.50000 10.66667
v  -11.00000 -0.50000 10.66667
v  11.00000 7.50000 32.00000
v  11.00000 -0.50000 32.00000
v  11.00000 -0.50000 26.66667
v  11.00000 7.50000 26.66667
v  11.00000 -0.50000 21.33333
v  11.00000 7.50000 21.33333
v  11.00000 -0.50000 16.00000
v  11.00000 7.50000 16.00000
v  11.00000 -0.50000 10.66667
v  11.00000 7.50000 10.66667
v  11.00000 -0.50000 5.33333
v  11.00000 -0.50000 -32.00000
v  11.00000 7.50000 -32.00000
v  11.00000 7.50000 -26.66667
v  11.00000 -0.50000 -26.66667
v  11.00000 7.50000 -21.33333
v  11.00000 -0.50000 -21.33333
v  11.00000 7.50000 -16.00000
v  11.00000 -0.50000 -16.00000
v  11.00000 7.50000 -10.66667
v  11.00000 -0.50000 -10.66667
v  0.00000 7.50000 -32.00000
v  0.00000 7.50000 -26.66667
v  0.00000 7.50000 -21.33333
v  0.00000 7.50000 -16.00000
v  0.00000 7.50000 -10.66667
v  0.00000 7.50000 32.00000
v  0.00000 7.50000 26.66667
v  0.00000 7.50000 21.33333
v  0.00000 7.50000 16.00000
v  0.00000 7.50000 10.66667
v  5.00000 0.00000 -32.00000
v  5.00000 0.00000 -26.66667
v  5.00000 0.00000 -21.33333
v  5.00000 0.00000 -16.00000
v  5.00000 0.00000 -10.66667
v  5.00000 0.00000 -5.33333
v  5.00000 0.00000 32.00000
v  5.00000 0.00000 26.66667
v  5.00000 0.00000 21.33333
v  5.00000 0.00000 16.00000
v  5.00000 0.00000 10.66667
v  0.00000 -0.30000 -32.00000
v  -5.00000 -0.30000 -32.00000
v  -5.00000 -0.30000 -26.66667
v  0.00000 -0.30000 -26.66667
v  -5.00000 -0.30000 -21.33333
v  0.00000 -0.30000 -21.33333
v  -5.00000 -0.30000 -16.00000
v  0.00000 -0.30000 -16.00000
v  -5.00000 -0.30000 -10.66667
v  0.00000 -0.30000 -10.66667
v  0.00000 -0.30000 -5.33333
v  -5.00000 -0.30000 32.00000
v  0.00000 -0.30000 32.00000
v  0.00000 -0.30000 26.66667
v  -5.00000 -0.30000 26.66667
v  0.00000 -0.30000 21.33333
v  -5.00000 -0.30000 21.33333
v  0.00000 -0.30000 16.00000
v  -5.00000 -0.30000 16.00000
v  0.00000 -0.30000 10.66667
v  -5.00000 -0.30000 10.66667
v  5.00000 -0.30000 -32.00000
v  5.00000 -0.30000 -26.66667
v  5.00000 -0.30000 -21.33333
v  5.00000 -0.30000 -16.00000
v  5.00000 -0.30000 -10.66667
v  5.00000 -0.30000 -5.33333
v  5.00000 -0.30000 32.00000
v  5.00000 -0.30000 26.66667
v  5.00000 -0.30000 21.33333
v  5.00000 -0.30000 16.00000
v  5.00000 -0.30000 10.66667
# 195 vertices

vn 0.00000 1.00000 -0.00000
vn 1.00000 0.00000 -0.00000
vn -1.00000 0.00000 -0.00000
vn 0.00000 -0.99988 0.01562
vn 0.00000 1.00000 0.00000
vn -0.00000 -0.99988 0.01562
# 6 vertex normals

vt 0.00129 0.50000 0.00000
vt 0.08552 0.50007 0.00000
vt 0.08552 0.58340 0.00000
vt 0.00129 0.58333 0.00000
vt 0.41201 0.58333 0.00000
vt 0.41201 0.50000 0.00000
vt 0.34058 0.50000 0.00000
vt 0.34058 0.58333 0.00000
vt 0.34058 0.41667 0.00000
vt 0.41201 0.41667 0.00000
vt 0.64402 0.50000 0.00000
vt 0.56603 0.50000 0.00000
vt 0.56603 0.58333 0.00000
vt 0.64402 0.58333 0.00000
vt 0.94660 0.50000 0.00000
vt 0.94660 0.41667 0.00000
vt 0.99060 0.50000 0.00000
vt 0.99060 0.58333 0.00000
vt 0.96860 0.50000 0.00000
vt 0.96860 0.41667 0.00000
vt 0.99060 0.41667 0.00000
vt 0.41479 0.50025 0.00000
vt 0.32913 0.50018 0.00000
vt 0.32913 0.41685 0.00000
vt 0.41479 0.41692 0.00000
vt 0.20804 0.50013 0.00000
vt 0.11407 0.50007 0.00000
vt 0.11407 0.41674 0.00000
vt 0.20804 0.41679 0.00000
vt 0.30202 0.50018 0.00000
vt 0.30202 0.41685 0.00000
vt 0.48805 0.50000 0.00000
vt 0.56603 0.41667 0.00000
vt 0.48805 0.41667 0.00000
vt 0.96860 0.58333 0.00000
vt 0.94660 0.58333 0.00000
vt 0.00129 0.00000 0.00000
vt 0.08552 0.00007 0.00000
vt 0.08552 0.08340 0.00000
vt 0.00129 0.08333 0.00000
vt 0.08552 0.16674 0.00000
vt 0.00129 0.16667 0.00000
vt 0.08552 0.25007 0.00000
vt 0.00129 0.25000 0.00000
vt 0.08552 0.33340 0.00000
vt 0.00129 0.33333 0.00000
vt 0.08552 0.41674 0.00000
vt 0.00129 0.41667 0.00000
vt 0.08552 1.00007 0.00000
vt 0.00129 1.00000 0.00000
vt 0.00129 0.91667 0.00000
vt 0.08552 0.91674 0.00000
vt 0.00129 0.83333 0.00000
vt 0.08552 0.83340 0.00000
vt 0.00129 0.75000 0.00000
vt 0.08552 0.75007 0.00000
vt 0.00129 0.66667 0.00000
vt 0.08552 0.66674 0.00000
vt 0.41201 0.08333 0.00000
vt 0.41201 -0.00000 0.00000
vt 0.34058 -0.00000 0.00000
vt 0.34058 0.08333 0.00000
vt 0.41201 0.16667 0.00000
vt 0.34058 0.16667 0.00000
vt 0.41201 0.25000 0.00000
vt 0.34058 0.25000 0.00000
vt 0.41201 0.33333 0.00000
vt 0.34058 0.33333 0.00000
vt 0.34058 0.91667 0.00000
vt 0.34058 1.00000 0.00000
vt 0.41201 1.00000 0.00000
vt 0.41201 0.91667 0.00000
vt 0.34058 0.83333 0.00000
vt 0.41201 0.83333 0.00000
vt 0.34058 0.75000 0.00000
vt 0.41201 0.75000 0.00000
vt 0.34058 0.66667 0.00000
vt 0.41201 0.66667 0.00000
vt 0.64402 0.00000 0.00000
vt 0.56603 0.00000 0.00000
vt 0.56603 0.08333 0.00000
vt 0.64402 0.08333 0.00000
vt 0.56603 0.16667 0.00000
vt 0.64402 0.16667 0.00000
vt 0.56603 0.25000 0.00000
vt 0.64402 0.25000 0.00000
vt 0.56603 0.33333 0.00000
vt 0.64402 0.33333 0.00000
vt 0.64402 0.41667 0.00000
vt 0.56603 1.00000 0.00000
vt 0.64402 1.00000 0.00000
vt 0.64402 0.91667 0.00000
vt 0.56603 0.91667 0.00000
vt 0.64402 0.83333 0.00000
vt 0.56603 0.83333 0.00000
vt 0.64402 0.75000 0.00000
vt 0.56603 0.75000 0.00000
vt 0.64402 0.66667 0.00000
vt 0.56603 0.66667 0.00000
vt 0.94660 1.00000 0.00000
vt 0.94660 0.91667 0.00000
vt 0.94660 0.83333 0.00000
vt 0.94660 0.75000 0.00000
vt 0.94660 0.66667 0.00000
vt 0.94660 0.00000 0.00000
vt 0.94660 0.08333 0.00000
vt 0.94660 0.16667 0.00000
vt 0.94660 0.25000 0.00000
vt 0.94660 0.33333 0.00000
vt 0.99060 0.00000 0.00000
vt 0.99060 0.08333 0.00000
vt 0.99060 0.16667 0.00000
vt 0.99060 0.25000 0.00000
vt 0.99060 0.33333 0.00000
vt 0.99060 1.00000 0.00000
vt 0.99060 0.91667 0.00000
vt 0.99060 0.83333 0.00000
vt 0.99060 0.75000 0.00000
vt 0.99060 0.66667 0.00000
vt 0.96860 1.00000 0.00000
vt 0.96860 0.91667 0.00000
vt 0.96860 0.83333 0.00000
vt 0.96860 0.75000 0.00000
vt 0.96860 0.66667 0.00000
vt 0.96860 0.00000 0.00000
vt 0.96860 0.08333 0.00000
vt 0.96860 0.16667 0.00000
vt 0.96860 0.25000 0.00000
vt 0.96860 0.33333 0.00000
vt 0.41479 1.00025 0.00000
vt 0.32913 1.00018 0.00000
vt 0.32913 0.91685 0.00000
vt 0.41479 0.91692 0.00000
vt 0.32913 0.83352 0.00000
vt 0.41479 0.83359 0.00000
vt 0.32913 0.75018 0.00000
vt 0.41479 0.75025 0.00000
vt 0.32913 0.66685 0.00000
vt 0.41479 0.66692 0.00000
vt 0.32913 0.58352 0.00000
vt 0.41479 0.58359 0.00000
vt 0.32913 0.00018 0.00000
vt 0.41479 0.00025 0.00000
vt 0.41479 0.08359 0.00000
vt 0.32913 0.08352 0.00000
vt 0.41479 0.16692 0.00000
vt 0.32913 0.16685 0.00000
vt 0.41479 0.25025 0.00000
vt 0.32913 0.25018 0.00000
vt 0.41479 0.33359 0.00000
vt 0.32913 0.33352 0.00000
vt 0.20804 1.00013 0.00000
vt 0.11407 1.00007 0.00000
vt 0.11407 0.91674 0.00000
vt 0.20804 0.91679 0.00000
vt 0.11407 0.83340 0.00000
vt 0.20804 0.83346 0.00000
vt 0.11407 0.75007 0.00000
vt 0.20804 0.75013 0.00000
vt 0.11407 0.66674 0.00000
vt 0.20804 0.66679 0.00000
vt 0.11407 0.58340 0.00000
vt 0.20804 0.58346 0.00000
vt 0.11407 0.00007 0.00000
vt 0.20804 0.00013 0.00000
vt 0.20804 0.08346 0.00000
vt 0.11407 0.08340 0.00000
vt 0.20804 0.16679 0.00000
vt 0.11407 0.16674 0.00000
vt 0.20804 0.25013 0.00000
vt 0.11407 0.25007 0.00000
vt 0.20804 0.33346 0.00000
vt 0.11407 0.33340 0.00000
vt 0.30202 1.00018 0.00000
vt 0.30202 0.91685 0.00000
vt 0.30202 0.83352 0.00000
vt 0.30202 0.75018 0.00000
vt 0.30202 0.66685 0.00000
vt 0.30202 0.58352 0.00000
vt 0.30202 0.00018 0.00000
vt 0.30202 0.08352 0.00000
vt 0.30202 0.16685 0.00000
vt 0.30202 0.25018 0.00000
vt 0.30202 0.33352 0.00000
vt 0.48805 1.00000 0.00000
vt 0.48805 0.91667 0.00000
vt 0.48805 0.83333 0.00000
vt 0.48805 0.75000 0.00000
vt 0.48805 0.66667 0.00000
vt 0.48805 0.58333 0.00000
vt 0.48805 0.00000 0.00000
vt 0.48805 0.08333 0.00000
vt 0.48805 0.16667 0.00000
vt 0.48805 0.25000 0.00000
vt 0.48805 0.33333 0.00000
# 195 texture coords

g Plane005
f 1/1/1 2/2/1 3/3/1 
f 3/3/1 4/4/1 1/1/1 
f 5/5/2 1/6/2 6/7/2 
f 6/7/2 7/8/2 5/5/2 
f 8/6/3 9/7/3 10/9/3 
f 10/9/3 11/10/3 8/6/3 
f 9/11/4 12/12/4 13/13/4 
f 13/13/4 10/14/4 9/11/4 
f 14/15/3 15/15/3 16/16/3 
f 16/16/3 17/16/3 14/15/3 
f 18/17/2 19/17/2 20/18/2 
f 20/18/2 21/18/2 18/17/2 
f 18/17/1 22/19/1 23/20/1 
f 23/20/1 24/21/1 18/17/1 
f 8/22/1 25/23/1 26/24/1 
f 26/24/1 27/25/1 8/22/1 
f 28/26/1 29/27/1 30/28/1 
f 30/28/1 31/29/1 28/26/1 
f 2/2/2 29/2/2 32/3/2 
f 32/3/2 3/3/2 2/2/2 
f 25/23/3 33/23/3 34/24/3 
f 34/24/3 26/24/3 25/23/3 
f 33/30/1 28/26/1 31/29/1 
f 31/29/1 34/31/1 33/30/1 
f 6/32/4 12/12/4 35/33/4 
f 35/33/4 7/34/4 6/32/4 
f 14/15/5 22/19/5 36/35/5 
f 36/35/1 37/36/1 14/15/1 
f 38/37/1 39/38/1 40/39/1 
f 40/39/1 41/40/1 38/37/1 
f 41/40/1 40/39/1 42/41/1 
f 42/41/1 43/42/1 41/40/1 
f 43/42/1 42/41/1 44/43/1 
f 44/43/1 45/44/1 43/42/1 
f 45/44/1 44/43/1 46/45/1 
f 46/45/1 47/46/1 45/44/1 
f 47/46/1 46/45/1 48/47/1 
f 48/47/1 5/48/1 47/46/1 
f 5/48/1 48/47/1 2/2/1 
f 2/2/1 1/1/1 5/48/1 
f 49/49/1 50/50/1 51/51/1 
f 51/51/1 52/52/1 49/49/1 
f 52/52/1 51/51/1 53/53/1 
f 53/53/1 54/54/1 52/52/1 
f 54/54/1 53/53/1 55/55/1 
f 55/55/1 56/56/1 54/54/1 
f 56/56/1 55/55/1 57/57/1 
f 57/57/1 58/58/1 56/56/1 
f 58/58/1 57/57/1 4/4/1 
f 4/4/1 3/3/1 58/58/1 
f 51/59/2 50/60/2 59/61/2 
f 59/61/2 60/62/2 51/59/2 
f 53/63/2 51/59/2 60/62/2 
f 60/62/2 61/64/2 53/63/2 
f 55/65/2 53/63/2 61/64/2 
f 61/64/2 62/66/2 55/65/2 
f 57/67/2 55/65/2 62/66/2 
f 62/66/2 63/68/2 57/67/2 
f 4/10/2 57/67/2 63/68/2 
f 63/68/2 64/9/2 4/10/2 
f 1/6/2 4/10/2 64/9/2 
f 64/9/2 6/7/2 1/6/2 
f 65/69/2 66/70/2 38/71/2 
f 38/71/2 41/72/2 65/69/2 
f 67/73/2 65/69/2 41/72/2 
f 41/72/2 43/74/2 67/73/2 
f 68/75/2 67/73/2 43/74/2 
f 43/74/2 45/76/2 68/75/2 
f 69/77/2 68/75/2 45/76/2 
f 45/76/2 47/78/2 69/77/2 
f 7/8/2 69/77/2 47/78/2 
f 47/78/2 5/5/2 7/8/2 
f 70/71/3 71/70/3 72/69/3 
f 72/69/3 73/72/3 70/71/3 
f 73/72/3 72/69/3 74/73/3 
f 74/73/3 75/74/3 73/72/3 
f 75/74/3 74/73/3 76/75/3 
f 76/75/3 77/76/3 75/74/3 
f 77/76/3 76/75/3 78/77/3 
f 78/77/3 79/78/3 77/76/3 
f 79/78/3 78/77/3 80/8/3 
f 80/8/3 27/5/3 79/78/3 
f 27/5/3 80/8/3 9/7/3 
f 9/7/3 8/6/3 27/5/3 
f 81/61/3 82/60/3 83/59/3 
f 83/59/3 84/62/3 81/61/3 
f 84/62/3 83/59/3 85/63/3 
f 85/63/3 86/64/3 84/62/3 
f 86/64/3 85/63/3 87/65/3 
f 87/65/3 88/66/3 86/64/3 
f 88/66/3 87/65/3 89/67/3 
f 89/67/3 90/68/3 88/66/3 
f 90/68/3 89/67/3 11/10/3 
f 11/10/3 10/9/3 90/68/3 
f 71/79/4 91/80/4 92/81/4 
f 92/81/4 72/82/4 71/79/4 
f 72/82/4 92/81/4 93/83/4 
f 93/83/4 74/84/4 72/82/4 
f 74/84/4 93/83/4 94/85/4 
f 94/85/4 76/86/4 74/84/4 
f 76/86/4 94/85/4 95/87/4 
f 95/87/4 78/88/4 76/86/4 
f 78/88/4 95/87/4 35/33/4 
f 35/33/4 80/89/4 78/88/4 
f 80/89/4 35/33/4 12/12/4 
f 12/12/4 9/11/4 80/89/4 
f 96/90/4 81/91/4 84/92/4 
f 84/92/4 97/93/4 96/90/4 
f 97/93/4 84/92/4 86/94/4 
f 86/94/4 98/95/4 97/93/4 
f 98/95/4 86/94/4 88/96/4 
f 88/96/4 99/97/4 98/95/4 
f 99/97/4 88/96/4 90/98/4 
f 90/98/4 100/99/4 99/97/4 
f 100/99/4 90/98/4 10/14/4 
f 10/14/4 13/13/4 100/99/4 
f 101/100/3 102/100/3 103/101/3 
f 103/101/3 104/101/3 101/100/3 
f 104/101/3 103/101/3 105/102/3 
f 105/102/3 106/102/3 104/101/3 
f 106/102/3 105/102/3 107/103/3 
f 107/103/3 108/103/3 106/102/3 
f 108/103/3 107/103/3 109/104/3 
f 109/104/3 110/104/3 108/103/3 
f 110/104/3 109/104/3 111/36/3 
f 111/36/3 37/36/3 110/104/3 
f 37/36/3 111/36/3 15/15/3 
f 15/15/3 14/15/3 37/36/3 
f 112/105/3 113/105/3 114/106/3 
f 114/106/3 115/106/3 112/105/3 
f 115/106/3 114/106/3 116/107/3 
f 116/107/3 117/107/3 115/106/3 
f 117/107/3 116/107/3 118/108/3 
f 118/108/3 119/108/3 117/107/3 
f 119/108/3 118/108/3 120/109/3 
f 120/109/3 121/109/3 119/108/3 
f 121/109/3 120/109/3 17/16/3 
f 17/16/3 16/16/3 121/109/3 
f 122/110/2 123/110/2 124/111/2 
f 124/111/2 125/111/2 122/110/2 
f 125/111/2 124/111/2 126/112/2 
f 126/112/2 127/112/2 125/111/2 
f 127/112/2 126/112/2 128/113/2 
f 128/113/2 129/113/2 127/112/2 
f 129/113/2 128/113/2 130/114/2 
f 130/114/2 131/114/2 129/113/2 
f 131/114/2 130/114/2 132/21/2 
f 132/21/2 24/21/2 131/114/2 
f 24/21/2 132/21/2 19/17/2 
f 19/17/2 18/17/2 24/21/2 
f 133/115/2 134/115/2 135/116/2 
f 135/116/2 136/116/2 133/115/2 
f 136/116/2 135/116/2 137/117/2 
f 137/117/2 138/117/2 136/116/2 
f 138/117/2 137/117/2 139/118/2 
f 139/118/2 140/118/2 138/117/2 
f 140/118/2 139/118/2 141/119/2 
f 141/119/2 142/119/2 140/118/2 
f 142/119/2 141/119/2 21/18/2 
f 21/18/2 20/18/2 142/119/2 
f 134/115/5 143/120/5 144/121/5 
f 144/121/1 135/116/1 134/115/1 
f 135/116/5 144/121/5 145/122/5 
f 145/122/1 137/117/1 135/116/1 
f 137/117/5 145/122/5 146/123/5 
f 146/123/1 139/118/1 137/117/1 
f 139/118/5 146/123/5 147/124/5 
f 147/124/1 141/119/1 139/118/1 
f 141/119/5 147/124/5 36/35/5 
f 36/35/1 21/18/1 141/119/1 
f 21/18/5 36/35/5 22/19/5 
f 22/19/1 18/17/1 21/18/1 
f 148/125/1 122/110/1 125/111/1 
f 125/111/5 149/126/5 148/125/5 
f 149/126/1 125/111/1 127/112/1 
f 127/112/5 150/127/5 149/126/5 
f 150/127/1 127/112/1 129/113/1 
f 129/113/5 151/128/5 150/127/5 
f 151/128/1 129/113/1 131/114/1 
f 131/114/5 152/129/5 151/128/5 
f 152/129/1 131/114/1 24/21/1 
f 24/21/5 23/20/5 152/129/5 
f 82/130/1 153/131/1 154/132/1 
f 154/132/1 83/133/1 82/130/1 
f 83/133/1 154/132/1 155/134/1 
f 155/134/1 85/135/1 83/133/1 
f 85/135/1 155/134/1 156/136/1 
f 156/136/1 87/137/1 85/135/1 
f 87/137/1 156/136/1 157/138/1 
f 157/138/1 89/139/1 87/137/1 
f 89/139/1 157/138/1 158/140/1 
f 158/140/1 11/141/1 89/139/1 
f 11/141/1 158/140/1 25/23/1 
f 25/23/1 8/22/1 11/141/1 
f 159/142/1 70/143/1 73/144/1 
f 73/144/1 160/145/1 159/142/1 
f 160/145/1 73/144/1 75/146/1 
f 75/146/1 161/147/1 160/145/1 
f 161/147/1 75/146/1 77/148/1 
f 77/148/1 162/149/1 161/147/1 
f 162/149/1 77/148/1 79/150/1 
f 79/150/1 163/151/1 162/149/1 
f 163/151/1 79/150/1 27/25/1 
f 27/25/1 26/24/1 163/151/1 
f 164/152/1 165/153/1 166/154/1 
f 166/154/1 167/155/1 164/152/1 
f 167/155/1 166/154/1 168/156/1 
f 168/156/1 169/157/1 167/155/1 
f 169/157/1 168/156/1 170/158/1 
f 170/158/1 171/159/1 169/157/1 
f 171/159/1 170/158/1 172/160/1 
f 172/160/1 173/161/1 171/159/1 
f 173/161/1 172/160/1 32/162/1 
f 32/162/1 174/163/1 173/161/1 
f 174/163/1 32/162/1 29/27/1 
f 29/27/1 28/26/1 174/163/1 
f 175/164/1 176/165/1 177/166/1 
f 177/166/1 178/167/1 175/164/1 
f 178/167/1 177/166/1 179/168/1 
f 179/168/1 180/169/1 178/167/1 
f 180/169/1 179/168/1 181/170/1 
f 181/170/1 182/171/1 180/169/1 
f 182/171/1 181/170/1 183/172/1 
f 183/172/1 184/173/1 182/171/1 
f 184/173/1 183/172/1 31/29/1 
f 31/29/1 30/28/1 184/173/1 
f 39/38/2 175/38/2 178/39/2 
f 178/39/2 40/39/2 39/38/2 
f 40/39/2 178/39/2 180/41/2 
f 180/41/2 42/41/2 40/39/2 
f 42/41/2 180/41/2 182/43/2 
f 182/43/2 44/43/2 42/41/2 
f 44/43/2 182/43/2 184/45/2 
f 184/45/2 46/45/2 44/43/2 
f 46/45/2 184/45/2 30/47/2 
f 30/47/2 48/47/2 46/45/2 
f 48/47/2 30/47/2 29/2/2 
f 29/2/2 2/2/2 48/47/2 
f 165/49/2 49/49/2 52/52/2 
f 52/52/2 166/52/2 165/49/2 
f 166/52/2 52/52/2 54/54/2 
f 54/54/2 168/54/2 166/52/2 
f 168/54/2 54/54/2 56/56/2 
f 56/56/2 170/56/2 168/54/2 
f 170/56/2 56/56/2 58/58/2 
f 58/58/2 172/58/2 170/56/2 
f 172/58/2 58/58/2 3/3/2 
f 3/3/2 32/3/2 172/58/2 
f 153/131/3 185/131/3 186/132/3 
f 186/132/3 154/132/3 153/131/3 
f 154/132/3 186/132/3 187/134/3 
f 187/134/3 155/134/3 154/132/3 
f 155/134/3 187/134/3 188/136/3 
f 188/136/3 156/136/3 155/134/3 
f 156/136/3 188/136/3 189/138/3 
f 189/138/3 157/138/3 156/136/3 
f 157/138/3 189/138/3 190/140/3 
f 190/140/3 158/140/3 157/138/3 
f 158/140/3 190/140/3 33/23/3 
f 33/23/3 25/23/3 158/140/3 
f 191/142/3 159/142/3 160/145/3 
f 160/145/3 192/145/3 191/142/3 
f 192/145/3 160/145/3 161/147/3 
f 161/147/3 193/147/3 192/145/3 
f 193/147/3 161/147/3 162/149/3 
f 162/149/3 194/149/3 193/147/3 
f 194/149/3 162/149/3 163/151/3 
f 163/151/3 195/151/3 194/149/3 
f 195/151/3 163/151/3 26/24/3 
f 26/24/3 34/24/3 195/151/3 
f 185/174/1 164/152/1 167/155/1 
f 167/155/1 186/175/1 185/174/1 
f 186/175/1 167/155/1 169/157/1 
f 169/157/1 187/176/1 186/175/1 
f 187/176/1 169/157/1 171/159/1 
f 171/159/1 188/177/1 187/176/1 
f 188/177/1 171/159/1 173/161/1 
f 173/161/1 189/178/1 188/177/1 
f 189/178/1 173/161/1 174/163/1 
f 174/163/1 190/179/1 189/178/1 
f 190/179/1 174/163/1 28/26/1 
f 28/26/1 33/30/1 190/179/1 
f 176/165/1 191/180/1 192/181/1 
f 192/181/1 177/166/1 176/165/1 
f 177/166/1 192/181/1 193/182/1 
f 193/182/1 179/168/1 177/166/1 
f 179/168/1 193/182/1 194/183/1 
f 194/183/1 181/170/1 179/168/1 
f 181/170/1 194/183/1 195/184/1 
f 195/184/1 183/172/1 181/170/1 
f 183/172/1 195/184/1 34/31/1 
f 34/31/1 31/29/1 183/172/1 
f 59/185/4 96/90/4 97/93/4 
f 97/93/6 60/186/6 59/185/6 
f 60/186/6 97/93/6 98/95/6 
f 98/95/6 61/187/6 60/186/6 
f 61/187/6 98/95/6 99/97/6 
f 99/97/4 62/188/4 61/187/4 
f 62/188/4 99/97/4 100/99/4 
f 100/99/4 63/189/4 62/188/4 
f 63/189/4 100/99/4 13/13/4 
f 13/13/6 64/190/6 63/189/6 
f 64/190/6 13/13/6 12/12/6 
f 12/12/4 6/32/4 64/190/4 
f 91/80/4 66/191/4 65/192/4 
f 65/192/4 92/81/4 91/80/4 
f 92/81/4 65/192/4 67/193/4 
f 67/193/4 93/83/4 92/81/4 
f 93/83/4 67/193/4 68/194/4 
f 68/194/4 94/85/4 93/83/4 
f 94/85/4 68/194/4 69/195/4 
f 69/195/6 95/87/6 94/85/6 
f 95/87/6 69/195/6 7/34/6 
f 7/34/4 35/33/4 95/87/4 
f 113/105/5 148/125/5 149/126/5 
f 149/126/1 114/106/1 113/105/1 
f 114/106/5 149/126/5 150/127/5 
f 150/127/1 116/107/1 114/106/1 
f 116/107/5 150/127/5 151/128/5 
f 151/128/1 118/108/1 116/107/1 
f 118/108/5 151/128/5 152/129/5 
f 152/129/1 120/109/1 118/108/1 
f 120/109/1 152/129/1 23/20/1 
f 23/20/1 17/16/1 120/109/1 
f 17/16/1 23/20/1 22/19/1 
f 22/19/1 14/15/1 17/16/1 
f 143/120/1 101/100/1 104/101/1 
f 104/101/1 144/121/1 143/120/1 
f 144/121/1 104/101/1 106/102/1 
f 106/102/1 145/122/1 144/121/1 
f 145/122/1 106/102/1 108/103/1 
f 108/103/1 146/123/1 145/122/1 
f 146/123/1 108/103/1 110/104/1 
f 110/104/5 147/124/5 146/123/5 
f 147/124/1 110/104/1 37/36/1 
f 37/36/5 36/35/5 147/124/5 
# 336 faces

