# 3ds Max Wavefront OBJ Exporter v0.97b - (c)2007 guruware
# File Created: 06.11.2015 00:01:22

#
# object Plane005
#

v  -9.00000 0.00000 -0.00000
v  -5.00000 0.00000 -0.00000
v  -5.00000 0.00000 -5.33333
v  -9.00000 0.00000 -5.33333
v  -9.00000 7.00000 -0.00000
v  -9.00000 7.00000 5.33333
v  -9.00000 0.00000 5.33333
v  9.00000 0.00000 -0.00000
v  9.00000 7.00000 -0.00000
v  9.00000 7.00000 -5.33333
v  9.00000 0.00000 -5.33333
v  -9.00000 7.00000 -5.33333
v  -11.00000 7.50000 -0.00000
v  -11.00000 -0.50000 -0.00000
v  -11.00000 -0.50000 5.33333
v  -11.00000 7.50000 5.33333
v  11.00000 7.50000 -0.00000
v  11.00000 -0.50000 -0.00000
v  11.00000 -0.50000 -5.33333
v  11.00000 7.50000 -5.33333
v  11.00000 7.50000 5.33333
v  5.00000 0.00000 -0.00000
v  5.00000 0.00000 5.33333
v  9.00000 0.00000 5.33333
v  0.00000 -0.30000 -0.00000
v  -5.00000 -0.30000 -0.00000
v  -5.00000 -0.30000 5.33333
v  0.00000 -0.30000 5.33333
v  -5.00000 -0.30000 -5.33333
v  5.00000 -0.30000 -0.00000
v  5.00000 -0.30000 5.33333
v  -9.00000 0.00000 32.00000
v  -5.00000 0.00000 32.00000
v  -5.00000 0.00000 26.66667
v  -9.00000 0.00000 26.66667
v  -5.00000 0.00000 21.33333
v  -9.00000 0.00000 21.33333
v  -5.00000 0.00000 16.00000
v  -9.00000 0.00000 16.00000
v  -5.00000 0.00000 10.66667
v  -9.00000 0.00000 10.66667
v  -5.00000 0.00000 5.33333
v  -5.00000 0.00000 -32.00000
v  -9.00000 0.00000 -32.00000
v  -9.00000 0.00000 -26.66667
v  -5.00000 0.00000 -26.66667
v  -9.00000 0.00000 -21.33333
v  -5.00000 0.00000 -21.33333
v  -9.00000 0.00000 -16.00000
v  -5.00000 0.00000 -16.00000
v  -9.00000 0.00000 -10.66667
v  -5.00000 0.00000 -10.66667
v  -9.00000 7.00000 -32.00000
v  -9.00000 7.00000 -26.66667
v  -9.00000 7.00000 -21.33333
v  -9.00000 7.00000 -16.00000
v  -9.00000 7.00000 -10.66667
v  -9.00000 7.00000 32.00000
v  -9.00000 7.00000 26.66667
v  -9.00000 7.00000 21.33333
v  -9.00000 7.00000 16.00000
v  -9.00000 7.00000 10.66667
v  9.00000 0.00000 32.00000
v  9.00000 7.00000 32.00000
v  9.00000 7.00000 26.66667
v  9.00000 0.00000 26.66667
v  9.00000 7.00000 21.33333
v  9.00000 0.00000 21.33333
v  9.00000 7.00000 16.00000
v  9.00000 0.00000 16.00000
v  9.00000 7.00000 10.66667
v  9.00000 0.00000 10.66667
v  9.00000 7.00000 5.33333
v  9.00000 7.00000 -32.00000
v  9.00000 0.00000 -32.00000
v  9.00000 0.00000 -26.66667
v  9.00000 7.00000 -26.66667
v  9.00000 0.00000 -21.33333
v  9.00000 7.00000 -21.33333
v  9.00000 0.00000 -16.00000
v  9.00000 7.00000 -16.00000
v  9.00000 0.00000 -10.66667
v  9.00000 7.00000 -10.66667
v  -11.00000 7.50000 -32.00000
v  -11.00000 -0.50000 -32.00000
v  -11.00000 -0.50000 -26.66667
v  -11.00000 7.50000 -26.66667
v  -11.00000 -0.50000 -21.33333
v  -11.00000 7.50000 -21.33333
v  -11.00000 -0.50000 -16.00000
v  -11.00000 7.50000 -16.00000
v  -11.00000 -0.50000 -10.66667
v  -11.00000 7.50000 -10.66667
v  -11.00000 -0.50000 -5.33333
v  -11.00000 7.50000 -5.33333
v  -11.00000 -0.50000 32.00000
v  -11.00000 7.50000 32.00000
v  -11.00000 7.50000 26.66667
v  -11.00000 -0.50000 26.66667
v  -11.00000 7.50000 21.33333
v  -11.00000 -0.50000 21.33333
v  -11.00000 7.50000 16.00000
v  -11.00000 -0.50000 16.00000
v  -11.00000 7.50000 10.66667
v  -11.00000 -0.50000 10.66667
v  11.00000 7.50000 32.00000
v  11.00000 -0.50000 32.00000
v  11.00000 -0.50000 26.66667
v  11.00000 7.50000 26.66667
v  11.00000 -0.50000 21.33333
v  11.00000 7.50000 21.33333
v  11.00000 -0.50000 16.00000
v  11.00000 7.50000 16.00000
v  11.00000 -0.50000 10.66667
v  11.00000 7.50000 10.66667
v  11.00000 -0.50000 5.33333
v  11.00000 -0.50000 -32.00000
v  11.00000 7.50000 -32.00000
v  11.00000 7.50000 -26.66667
v  11.00000 -0.50000 -26.66667
v  11.00000 7.50000 -21.33333
v  11.00000 -0.50000 -21.33333
v  11.00000 7.50000 -16.00000
v  11.00000 -0.50000 -16.00000
v  11.00000 7.50000 -10.66667
v  11.00000 -0.50000 -10.66667
v  5.00000 0.00000 -32.00000
v  5.00000 0.00000 -26.66667
v  5.00000 0.00000 -21.33333
v  5.00000 0.00000 -16.00000
v  5.00000 0.00000 -10.66667
v  5.00000 0.00000 -5.33333
v  5.00000 0.00000 32.00000
v  5.00000 0.00000 26.66667
v  5.00000 0.00000 21.33333
v  5.00000 0.00000 16.00000
v  5.00000 0.00000 10.66667
v  0.00000 -0.30000 -32.00000
v  -5.00000 -0.30000 -32.00000
v  -5.00000 -0.30000 -26.66667
v  0.00000 -0.30000 -26.66667
v  -5.00000 -0.30000 -21.33333
v  0.00000 -0.30000 -21.33333
v  -5.00000 -0.30000 -16.00000
v  0.00000 -0.30000 -16.00000
v  -5.00000 -0.30000 -10.66667
v  0.00000 -0.30000 -10.66667
v  0.00000 -0.30000 -5.33333
v  -5.00000 -0.30000 32.00000
v  0.00000 -0.30000 32.00000
v  0.00000 -0.30000 26.66667
v  -5.00000 -0.30000 26.66667
v  0.00000 -0.30000 21.33333
v  -5.00000 -0.30000 21.33333
v  0.00000 -0.30000 16.00000
v  -5.00000 -0.30000 16.00000
v  0.00000 -0.30000 10.66667
v  -5.00000 -0.30000 10.66667
v  5.00000 -0.30000 -32.00000
v  5.00000 -0.30000 -26.66667
v  5.00000 -0.30000 -21.33333
v  5.00000 -0.30000 -16.00000
v  5.00000 -0.30000 -10.66667
v  5.00000 -0.30000 -5.33333
v  5.00000 -0.30000 32.00000
v  5.00000 -0.30000 26.66667
v  5.00000 -0.30000 21.33333
v  5.00000 -0.30000 16.00000
v  5.00000 -0.30000 10.66667
# 169 vertices

vn 0.00000 1.00000 -0.00000
vn 1.00000 0.00000 -0.00000
vn -1.00000 0.00000 -0.00000
vn 0.00000 -1.00000 -0.00000
# 4 vertex normals

vt 0.00129 0.50000 0.00000
vt 0.08552 0.50007 0.00000
vt 0.08552 0.58340 0.00000
vt 0.00129 0.58333 0.00000
vt 0.41613 0.50000 0.00000
vt 0.48823 0.50000 0.00000
vt 0.48823 0.41667 0.00000
vt 0.41613 0.41667 0.00000
vt 0.48823 0.58333 0.00000
vt 0.41613 0.58333 0.00000
vt 0.64402 0.50000 0.00000
vt 0.48805 0.50000 0.00000
vt 0.48805 0.58333 0.00000
vt 0.64402 0.58333 0.00000
vt 0.94660 0.50000 0.00000
vt 0.94660 0.41667 0.00000
vt 0.99060 0.50000 0.00000
vt 0.99060 0.58333 0.00000
vt 0.99060 0.41667 0.00000
vt 0.41479 0.50025 0.00000
vt 0.32913 0.50018 0.00000
vt 0.32913 0.41685 0.00000
vt 0.41479 0.41692 0.00000
vt 0.20804 0.50013 0.00000
vt 0.11407 0.50007 0.00000
vt 0.11407 0.41674 0.00000
vt 0.20804 0.41679 0.00000
vt 0.30202 0.50018 0.00000
vt 0.30202 0.41685 0.00000
vt 0.00129 0.00000 0.00000
vt 0.08552 0.00007 0.00000
vt 0.08552 0.08340 0.00000
vt 0.00129 0.08333 0.00000
vt 0.08552 0.16674 0.00000
vt 0.00129 0.16667 0.00000
vt 0.08552 0.25007 0.00000
vt 0.00129 0.25000 0.00000
vt 0.08552 0.33340 0.00000
vt 0.00129 0.33333 0.00000
vt 0.08552 0.41674 0.00000
vt 0.00129 0.41667 0.00000
vt 0.08552 1.00007 0.00000
vt 0.00129 1.00000 0.00000
vt 0.00129 0.91667 0.00000
vt 0.08552 0.91674 0.00000
vt 0.00129 0.83333 0.00000
vt 0.08552 0.83340 0.00000
vt 0.00129 0.75000 0.00000
vt 0.08552 0.75007 0.00000
vt 0.00129 0.66667 0.00000
vt 0.08552 0.66674 0.00000
vt 0.41613 1.00000 0.00000
vt 0.48823 1.00000 0.00000
vt 0.48823 0.91667 0.00000
vt 0.41613 0.91667 0.00000
vt 0.48823 0.83333 0.00000
vt 0.41613 0.83333 0.00000
vt 0.48823 0.75000 0.00000
vt 0.41613 0.75000 0.00000
vt 0.48823 0.66667 0.00000
vt 0.41613 0.66667 0.00000
vt 0.48823 0.00000 0.00000
vt 0.41613 0.00000 0.00000
vt 0.41613 0.08333 0.00000
vt 0.48823 0.08333 0.00000
vt 0.41613 0.16667 0.00000
vt 0.48823 0.16667 0.00000
vt 0.41613 0.25000 0.00000
vt 0.48823 0.25000 0.00000
vt 0.41613 0.33333 0.00000
vt 0.48823 0.33333 0.00000
vt 0.64402 0.00000 0.00000
vt 0.48805 0.00000 0.00000
vt 0.48805 0.08333 0.00000
vt 0.64402 0.08333 0.00000
vt 0.48805 0.16667 0.00000
vt 0.64402 0.16667 0.00000
vt 0.48805 0.25000 0.00000
vt 0.64402 0.25000 0.00000
vt 0.48805 0.33333 0.00000
vt 0.64402 0.33333 0.00000
vt 0.48805 0.41667 0.00000
vt 0.64402 0.41667 0.00000
vt 0.48805 1.00000 0.00000
vt 0.64402 1.00000 0.00000
vt 0.64402 0.91667 0.00000
vt 0.48805 0.91667 0.00000
vt 0.64402 0.83333 0.00000
vt 0.48805 0.83333 0.00000
vt 0.64402 0.75000 0.00000
vt 0.48805 0.75000 0.00000
vt 0.64402 0.66667 0.00000
vt 0.48805 0.66667 0.00000
vt 0.94660 1.00000 0.00000
vt 0.94660 0.91667 0.00000
vt 0.94660 0.83333 0.00000
vt 0.94660 0.75000 0.00000
vt 0.94660 0.66667 0.00000
vt 0.94660 0.58333 0.00000
vt 0.94660 0.00000 0.00000
vt 0.94660 0.08333 0.00000
vt 0.94660 0.16667 0.00000
vt 0.94660 0.25000 0.00000
vt 0.94660 0.33333 0.00000
vt 0.99060 0.00000 0.00000
vt 0.99060 0.08333 0.00000
vt 0.99060 0.16667 0.00000
vt 0.99060 0.25000 0.00000
vt 0.99060 0.33333 0.00000
vt 0.99060 1.00000 0.00000
vt 0.99060 0.91667 0.00000
vt 0.99060 0.83333 0.00000
vt 0.99060 0.75000 0.00000
vt 0.99060 0.66667 0.00000
vt 0.41479 1.00025 0.00000
vt 0.32913 1.00018 0.00000
vt 0.32913 0.91685 0.00000
vt 0.41479 0.91692 0.00000
vt 0.32913 0.83352 0.00000
vt 0.41479 0.83359 0.00000
vt 0.32913 0.75018 0.00000
vt 0.41479 0.75025 0.00000
vt 0.32913 0.66685 0.00000
vt 0.41479 0.66692 0.00000
vt 0.32913 0.58352 0.00000
vt 0.41479 0.58359 0.00000
vt 0.32913 0.00018 0.00000
vt 0.41479 0.00025 0.00000
vt 0.41479 0.08359 0.00000
vt 0.32913 0.08352 0.00000
vt 0.41479 0.16692 0.00000
vt 0.32913 0.16685 0.00000
vt 0.41479 0.25025 0.00000
vt 0.32913 0.25018 0.00000
vt 0.41479 0.33359 0.00000
vt 0.32913 0.33352 0.00000
vt 0.20804 1.00013 0.00000
vt 0.11407 1.00007 0.00000
vt 0.11407 0.91674 0.00000
vt 0.20804 0.91679 0.00000
vt 0.11407 0.83340 0.00000
vt 0.20804 0.83346 0.00000
vt 0.11407 0.75007 0.00000
vt 0.20804 0.75013 0.00000
vt 0.11407 0.66674 0.00000
vt 0.20804 0.66679 0.00000
vt 0.11407 0.58340 0.00000
vt 0.20804 0.58346 0.00000
vt 0.11407 0.00007 0.00000
vt 0.20804 0.00013 0.00000
vt 0.20804 0.08346 0.00000
vt 0.11407 0.08340 0.00000
vt 0.20804 0.16679 0.00000
vt 0.11407 0.16674 0.00000
vt 0.20804 0.25013 0.00000
vt 0.11407 0.25007 0.00000
vt 0.20804 0.33346 0.00000
vt 0.11407 0.33340 0.00000
vt 0.30202 1.00018 0.00000
vt 0.30202 0.91685 0.00000
vt 0.30202 0.83352 0.00000
vt 0.30202 0.75018 0.00000
vt 0.30202 0.66685 0.00000
vt 0.30202 0.58352 0.00000
vt 0.30202 0.00018 0.00000
vt 0.30202 0.08352 0.00000
vt 0.30202 0.16685 0.00000
vt 0.30202 0.25018 0.00000
vt 0.30202 0.33352 0.00000
# 169 texture coords

g Plane005
f 1/1/1 2/2/1 3/3/1 
f 3/3/1 4/4/1 1/1/1 
f 1/5/2 5/6/2 6/7/2 
f 6/7/2 7/8/2 1/5/2 
f 8/5/3 9/6/3 10/9/3 
f 10/9/3 11/10/3 8/5/3 
f 9/11/4 5/12/4 12/13/4 
f 12/13/4 10/14/4 9/11/4 
f 13/15/3 14/15/3 15/16/3 
f 15/16/3 16/16/3 13/15/3 
f 17/17/2 18/17/2 19/18/2 
f 19/18/2 20/18/2 17/17/2 
f 17/17/1 13/15/1 16/16/1 
f 16/16/1 21/19/1 17/17/1 
f 8/20/1 22/21/1 23/22/1 
f 23/22/1 24/23/1 8/20/1 
f 25/24/1 26/25/1 27/26/1 
f 27/26/1 28/27/1 25/24/1 
f 2/2/2 26/2/2 29/3/2 
f 29/3/2 3/3/2 2/2/2 
f 22/21/3 30/21/3 31/22/3 
f 31/22/3 23/22/3 22/21/3 
f 30/28/1 25/24/1 28/27/1 
f 28/27/1 31/29/1 30/28/1 
f 32/30/1 33/31/1 34/32/1 
f 34/32/1 35/33/1 32/30/1 
f 35/33/1 34/32/1 36/34/1 
f 36/34/1 37/35/1 35/33/1 
f 37/35/1 36/34/1 38/36/1 
f 38/36/1 39/37/1 37/35/1 
f 39/37/1 38/36/1 40/38/1 
f 40/38/1 41/39/1 39/37/1 
f 41/39/1 40/38/1 42/40/1 
f 42/40/1 7/41/1 41/39/1 
f 7/41/1 42/40/1 2/2/1 
f 2/2/1 1/1/1 7/41/1 
f 43/42/1 44/43/1 45/44/1 
f 45/44/1 46/45/1 43/42/1 
f 46/45/1 45/44/1 47/46/1 
f 47/46/1 48/47/1 46/45/1 
f 48/47/1 47/46/1 49/48/1 
f 49/48/1 50/49/1 48/47/1 
f 50/49/1 49/48/1 51/50/1 
f 51/50/1 52/51/1 50/49/1 
f 52/51/1 51/50/1 4/4/1 
f 4/4/1 3/3/1 52/51/1 
f 44/52/2 53/53/2 54/54/2 
f 54/54/2 45/55/2 44/52/2 
f 45/55/2 54/54/2 55/56/2 
f 55/56/2 47/57/2 45/55/2 
f 47/57/2 55/56/2 56/58/2 
f 56/58/2 49/59/2 47/57/2 
f 49/59/2 56/58/2 57/60/2 
f 57/60/2 51/61/2 49/59/2 
f 51/61/2 57/60/2 12/9/2 
f 12/9/2 4/10/2 51/61/2 
f 4/10/2 12/9/2 5/6/2 
f 5/6/2 1/5/2 4/10/2 
f 58/62/2 32/63/2 35/64/2 
f 35/64/2 59/65/2 58/62/2 
f 59/65/2 35/64/2 37/66/2 
f 37/66/2 60/67/2 59/65/2 
f 60/67/2 37/66/2 39/68/2 
f 39/68/2 61/69/2 60/67/2 
f 61/69/2 39/68/2 41/70/2 
f 41/70/2 62/71/2 61/69/2 
f 62/71/2 41/70/2 7/8/2 
f 7/8/2 6/7/2 62/71/2 
f 63/63/3 64/62/3 65/65/3 
f 65/65/3 66/64/3 63/63/3 
f 66/64/3 65/65/3 67/67/3 
f 67/67/3 68/66/3 66/64/3 
f 68/66/3 67/67/3 69/69/3 
f 69/69/3 70/68/3 68/66/3 
f 70/68/3 69/69/3 71/71/3 
f 71/71/3 72/70/3 70/68/3 
f 72/70/3 71/71/3 73/7/3 
f 73/7/3 24/8/3 72/70/3 
f 24/8/3 73/7/3 9/6/3 
f 9/6/3 8/5/3 24/8/3 
f 74/53/3 75/52/3 76/55/3 
f 76/55/3 77/54/3 74/53/3 
f 77/54/3 76/55/3 78/57/3 
f 78/57/3 79/56/3 77/54/3 
f 79/56/3 78/57/3 80/59/3 
f 80/59/3 81/58/3 79/56/3 
f 81/58/3 80/59/3 82/61/3 
f 82/61/3 83/60/3 81/58/3 
f 83/60/3 82/61/3 11/10/3 
f 11/10/3 10/9/3 83/60/3 
f 64/72/4 58/73/4 59/74/4 
f 59/74/4 65/75/4 64/72/4 
f 65/75/4 59/74/4 60/76/4 
f 60/76/4 67/77/4 65/75/4 
f 67/77/4 60/76/4 61/78/4 
f 61/78/4 69/79/4 67/77/4 
f 69/79/4 61/78/4 62/80/4 
f 62/80/4 71/81/4 69/79/4 
f 71/81/4 62/80/4 6/82/4 
f 6/82/4 73/83/4 71/81/4 
f 73/83/4 6/82/4 5/12/4 
f 5/12/4 9/11/4 73/83/4 
f 53/84/4 74/85/4 77/86/4 
f 77/86/4 54/87/4 53/84/4 
f 54/87/4 77/86/4 79/88/4 
f 79/88/4 55/89/4 54/87/4 
f 55/89/4 79/88/4 81/90/4 
f 81/90/4 56/91/4 55/89/4 
f 56/91/4 81/90/4 83/92/4 
f 83/92/4 57/93/4 56/91/4 
f 57/93/4 83/92/4 10/14/4 
f 10/14/4 12/13/4 57/93/4 
f 84/94/3 85/94/3 86/95/3 
f 86/95/3 87/95/3 84/94/3 
f 87/95/3 86/95/3 88/96/3 
f 88/96/3 89/96/3 87/95/3 
f 89/96/3 88/96/3 90/97/3 
f 90/97/3 91/97/3 89/96/3 
f 91/97/3 90/97/3 92/98/3 
f 92/98/3 93/98/3 91/97/3 
f 93/98/3 92/98/3 94/99/3 
f 94/99/3 95/99/3 93/98/3 
f 95/99/3 94/99/3 14/15/3 
f 14/15/3 13/15/3 95/99/3 
f 96/100/3 97/100/3 98/101/3 
f 98/101/3 99/101/3 96/100/3 
f 99/101/3 98/101/3 100/102/3 
f 100/102/3 101/102/3 99/101/3 
f 101/102/3 100/102/3 102/103/3 
f 102/103/3 103/103/3 101/102/3 
f 103/103/3 102/103/3 104/104/3 
f 104/104/3 105/104/3 103/103/3 
f 105/104/3 104/104/3 16/16/3 
f 16/16/3 15/16/3 105/104/3 
f 106/105/2 107/105/2 108/106/2 
f 108/106/2 109/106/2 106/105/2 
f 109/106/2 108/106/2 110/107/2 
f 110/107/2 111/107/2 109/106/2 
f 111/107/2 110/107/2 112/108/2 
f 112/108/2 113/108/2 111/107/2 
f 113/108/2 112/108/2 114/109/2 
f 114/109/2 115/109/2 113/108/2 
f 115/109/2 114/109/2 116/19/2 
f 116/19/2 21/19/2 115/109/2 
f 21/19/2 116/19/2 18/17/2 
f 18/17/2 17/17/2 21/19/2 
f 117/110/2 118/110/2 119/111/2 
f 119/111/2 120/111/2 117/110/2 
f 120/111/2 119/111/2 121/112/2 
f 121/112/2 122/112/2 120/111/2 
f 122/112/2 121/112/2 123/113/2 
f 123/113/2 124/113/2 122/112/2 
f 124/113/2 123/113/2 125/114/2 
f 125/114/2 126/114/2 124/113/2 
f 126/114/2 125/114/2 20/18/2 
f 20/18/2 19/18/2 126/114/2 
f 118/110/1 84/94/1 87/95/1 
f 87/95/1 119/111/1 118/110/1 
f 119/111/1 87/95/1 89/96/1 
f 89/96/1 121/112/1 119/111/1 
f 121/112/1 89/96/1 91/97/1 
f 91/97/1 123/113/1 121/112/1 
f 123/113/1 91/97/1 93/98/1 
f 93/98/1 125/114/1 123/113/1 
f 125/114/1 93/98/1 95/99/1 
f 95/99/1 20/18/1 125/114/1 
f 20/18/1 95/99/1 13/15/1 
f 13/15/1 17/17/1 20/18/1 
f 97/100/1 106/105/1 109/106/1 
f 109/106/1 98/101/1 97/100/1 
f 98/101/1 109/106/1 111/107/1 
f 111/107/1 100/102/1 98/101/1 
f 100/102/1 111/107/1 113/108/1 
f 113/108/1 102/103/1 100/102/1 
f 102/103/1 113/108/1 115/109/1 
f 115/109/1 104/104/1 102/103/1 
f 104/104/1 115/109/1 21/19/1 
f 21/19/1 16/16/1 104/104/1 
f 75/115/1 127/116/1 128/117/1 
f 128/117/1 76/118/1 75/115/1 
f 76/118/1 128/117/1 129/119/1 
f 129/119/1 78/120/1 76/118/1 
f 78/120/1 129/119/1 130/121/1 
f 130/121/1 80/122/1 78/120/1 
f 80/122/1 130/121/1 131/123/1 
f 131/123/1 82/124/1 80/122/1 
f 82/124/1 131/123/1 132/125/1 
f 132/125/1 11/126/1 82/124/1 
f 11/126/1 132/125/1 22/21/1 
f 22/21/1 8/20/1 11/126/1 
f 133/127/1 63/128/1 66/129/1 
f 66/129/1 134/130/1 133/127/1 
f 134/130/1 66/129/1 68/131/1 
f 68/131/1 135/132/1 134/130/1 
f 135/132/1 68/131/1 70/133/1 
f 70/133/1 136/134/1 135/132/1 
f 136/134/1 70/133/1 72/135/1 
f 72/135/1 137/136/1 136/134/1 
f 137/136/1 72/135/1 24/23/1 
f 24/23/1 23/22/1 137/136/1 
f 138/137/1 139/138/1 140/139/1 
f 140/139/1 141/140/1 138/137/1 
f 141/140/1 140/139/1 142/141/1 
f 142/141/1 143/142/1 141/140/1 
f 143/142/1 142/141/1 144/143/1 
f 144/143/1 145/144/1 143/142/1 
f 145/144/1 144/143/1 146/145/1 
f 146/145/1 147/146/1 145/144/1 
f 147/146/1 146/145/1 29/147/1 
f 29/147/1 148/148/1 147/146/1 
f 148/148/1 29/147/1 26/25/1 
f 26/25/1 25/24/1 148/148/1 
f 149/149/1 150/150/1 151/151/1 
f 151/151/1 152/152/1 149/149/1 
f 152/152/1 151/151/1 153/153/1 
f 153/153/1 154/154/1 152/152/1 
f 154/154/1 153/153/1 155/155/1 
f 155/155/1 156/156/1 154/154/1 
f 156/156/1 155/155/1 157/157/1 
f 157/157/1 158/158/1 156/156/1 
f 158/158/1 157/157/1 28/27/1 
f 28/27/1 27/26/1 158/158/1 
f 33/31/2 149/31/2 152/32/2 
f 152/32/2 34/32/2 33/31/2 
f 34/32/2 152/32/2 154/34/2 
f 154/34/2 36/34/2 34/32/2 
f 36/34/2 154/34/2 156/36/2 
f 156/36/2 38/36/2 36/34/2 
f 38/36/2 156/36/2 158/38/2 
f 158/38/2 40/38/2 38/36/2 
f 40/38/2 158/38/2 27/40/2 
f 27/40/2 42/40/2 40/38/2 
f 42/40/2 27/40/2 26/2/2 
f 26/2/2 2/2/2 42/40/2 
f 139/42/2 43/42/2 46/45/2 
f 46/45/2 140/45/2 139/42/2 
f 140/45/2 46/45/2 48/47/2 
f 48/47/2 142/47/2 140/45/2 
f 142/47/2 48/47/2 50/49/2 
f 50/49/2 144/49/2 142/47/2 
f 144/49/2 50/49/2 52/51/2 
f 52/51/2 146/51/2 144/49/2 
f 146/51/2 52/51/2 3/3/2 
f 3/3/2 29/3/2 146/51/2 
f 127/116/3 159/116/3 160/117/3 
f 160/117/3 128/117/3 127/116/3 
f 128/117/3 160/117/3 161/119/3 
f 161/119/3 129/119/3 128/117/3 
f 129/119/3 161/119/3 162/121/3 
f 162/121/3 130/121/3 129/119/3 
f 130/121/3 162/121/3 163/123/3 
f 163/123/3 131/123/3 130/121/3 
f 131/123/3 163/123/3 164/125/3 
f 164/125/3 132/125/3 131/123/3 
f 132/125/3 164/125/3 30/21/3 
f 30/21/3 22/21/3 132/125/3 
f 165/127/3 133/127/3 134/130/3 
f 134/130/3 166/130/3 165/127/3 
f 166/130/3 134/130/3 135/132/3 
f 135/132/3 167/132/3 166/130/3 
f 167/132/3 135/132/3 136/134/3 
f 136/134/3 168/134/3 167/132/3 
f 168/134/3 136/134/3 137/136/3 
f 137/136/3 169/136/3 168/134/3 
f 169/136/3 137/136/3 23/22/3 
f 23/22/3 31/22/3 169/136/3 
f 159/159/1 138/137/1 141/140/1 
f 141/140/1 160/160/1 159/159/1 
f 160/160/1 141/140/1 143/142/1 
f 143/142/1 161/161/1 160/160/1 
f 161/161/1 143/142/1 145/144/1 
f 145/144/1 162/162/1 161/161/1 
f 162/162/1 145/144/1 147/146/1 
f 147/146/1 163/163/1 162/162/1 
f 163/163/1 147/146/1 148/148/1 
f 148/148/1 164/164/1 163/163/1 
f 164/164/1 148/148/1 25/24/1 
f 25/24/1 30/28/1 164/164/1 
f 150/150/1 165/165/1 166/166/1 
f 166/166/1 151/151/1 150/150/1 
f 151/151/1 166/166/1 167/167/1 
f 167/167/1 153/153/1 151/151/1 
f 153/153/1 167/167/1 168/168/1 
f 168/168/1 155/155/1 153/153/1 
f 155/155/1 168/168/1 169/169/1 
f 169/169/1 157/157/1 155/155/1 
f 157/157/1 169/169/1 31/29/1 
f 31/29/1 28/27/1 157/157/1 
# 288 faces

